<?xml version="1.0" encoding="utf-8"?>
<!-- Generator: Adobe Illustrator 28.0.0, SVG Export Plug-In . SVG Version: 6.00 Build 0)  -->
<svg version="1.1" id="Capa_1" xmlns="http://www.w3.org/2000/svg" xmlns:xlink="http://www.w3.org/1999/xlink" x="0px" y="0px"
	 viewBox="0 0 844 890.4" style="enable-background:new 0 0 844 890.4;" xml:space="preserve">
<style type="text/css">
	.st0{fill:#FFFFFF;}
	.st1{fill:#5DA0FF;}
	.st2{fill:#241816;}
	.st3{fill:#262626;}
	.st4{fill:#CF9E76;}
	.st5{fill:#FCD770;stroke:#000000;stroke-miterlimit:10;}
</style>
<path class="st0" d="M419.1,528.1c-2.3,0-4.2-1.9-4.2-4.2c0-1.4,0.7-2.8,1.9-3.6l9.5-6.2l-19.8,11.5c-2,1.2-4.6,0.6-5.8-1.4
	c-1.2-2-0.6-4.6,1.4-5.8l0,0l10.2-6.6l-18.5,10.7c-2,1.1-4.5,0.5-5.7-1.4s-0.7-4.5,1.2-5.8l73.1-50.1l-86.9,50.2
	c-2,1.1-4.6,0.4-5.8-1.7c-1.1-1.9-0.5-4.3,1.3-5.5l50.7-33.1l-58.3,33.6c-2,1.1-4.6,0.4-5.8-1.7c-1.1-1.9-0.5-4.3,1.3-5.6l42.6-27.4
	l-48.1,27.8c-2.1,1.1-4.6,0.3-5.7-1.7c-1-1.9-0.4-4.3,1.3-5.5l47.7-30.6l-52.2,30.2c-2,1.2-4.6,0.5-5.8-1.5
	c-1.1-1.9-0.5-4.4,1.3-5.6l99.2-66.4l-106.3,61.4c-2,1.2-4.6,0.6-5.8-1.4c-1.2-2-0.6-4.6,1.4-5.8l72.8-47.2l-76.2,44
	c-2,1.1-4.6,0.4-5.8-1.6c-1.1-1.9-0.5-4.4,1.3-5.6l74.6-48.3l-76.9,44.3c-2,1.1-4.6,0.4-5.8-1.6c-1.1-1.9-0.5-4.4,1.4-5.6l14.2-8.9
	l-13.8,7.9c-2,1.1-4.6,0.4-5.8-1.6c-1.1-1.9-0.5-4.3,1.3-5.6l99.3-66.3l-100.5,58c-2,1.1-4.6,0.4-5.8-1.7c-1.1-1.9-0.5-4.4,1.4-5.6
	l15.9-10l-13.9,8c-2.1,1.1-4.6,0.4-5.7-1.7c-1-1.9-0.5-4.3,1.3-5.5l74.2-48.7l-71.9,41.5c-2.1,1.1-4.6,0.4-5.7-1.7
	c-1-1.9-0.5-4.3,1.4-5.5l17.3-11l-13.5,7.8c-2,1.2-4.6,0.6-5.8-1.4s-0.6-4.6,1.4-5.8l7.9-5l-3.2,1.9c-2,1.2-4.6,0.5-5.8-1.5
	c-1.1-1.9-0.5-4.4,1.3-5.6l64.2-43.3l-57.3,33.1c-2.1,1.1-4.6,0.4-5.7-1.7c-1-1.9-0.5-4.2,1.2-5.5l51.3-35l-41.5,23.9
	c-2,1.2-4.6,0.5-5.8-1.5c-1.1-1.9-0.6-4.3,1.2-5.6l48.5-35.4l-31.6,18.3c-2,1.2-4.6,0.5-5.8-1.5c-1.1-1.8-0.6-4.2,1.1-5.5l25.9-20.4
	c-1-0.3-1.9-1-2.4-1.9c-1.2-2-0.5-4.6,1.5-5.8l39.7-22.9c2-1.2,4.6-0.5,5.8,1.6c1,1.8,0.6,4.1-1,5.4l-18.6,14.7l49.8-28.7
	c2-1.2,4.6-0.5,5.8,1.5c1.1,1.9,0.6,4.3-1.2,5.6l-48.4,35.4l70.8-40.9c2-1.1,4.6-0.4,5.8,1.6c1.1,1.9,0.5,4.3-1.3,5.5l-51.4,35
	l65.3-37.7c2-1.2,4.6-0.5,5.8,1.5c1.1,1.9,0.5,4.4-1.3,5.6l-64.2,43.2l76-43.9c2-1.2,4.6-0.6,5.8,1.4s0.6,4.6-1.4,5.8l-8.1,5.2
	l12.9-7.5c2-1.2,4.6-0.5,5.8,1.6c1.1,2,0.5,4.4-1.4,5.7L478,302.8l21.5-12.4c2-1.2,4.6-0.5,5.8,1.5c1.2,2,0.6,4.5-1.4,5.8
	l-74.2,48.7l81.1-46.9c2-1.2,4.6-0.6,5.8,1.4s0.6,4.6-1.4,5.8l-15.9,10l18.4-10.6c2.1-1.1,4.6-0.4,5.7,1.7c1,1.9,0.5,4.3-1.3,5.5
	l-99.3,66.3l105.5-60.9c2.1-1.1,4.6-0.3,5.7,1.7c1,1.9,0.4,4.3-1.4,5.5l-14.3,8.9l15-8.7c2-1.1,4.6-0.4,5.8,1.6
	c1.1,1.9,0.5,4.4-1.3,5.6l-74.6,48.4l76.6-44.2c2-1.2,4.6-0.4,5.8,1.6c1.1,1.9,0.5,4.4-1.4,5.6L471.6,392l73.5-42.4
	c2-1.1,4.6-0.4,5.8,1.7c1,1.9,0.5,4.3-1.3,5.5l-99.1,66.4l99.5-57.4c2.1-1.1,4.6-0.3,5.7,1.7c1,1.9,0.4,4.3-1.3,5.5l-47.6,30.5
	l45.3-26.2c2-1.1,4.6-0.4,5.8,1.7c1.1,1.9,0.5,4.3-1.3,5.6L513.7,412l39.2-22.6c2-1.2,4.6-0.4,5.8,1.6c1.1,1.9,0.5,4.4-1.3,5.6
	l-50.8,33.1l46.1-26.6c2-1.2,4.6-0.5,5.8,1.6c1.1,1.9,0.5,4.3-1.3,5.6l-73.2,50l65.6-37.9c2-1.2,4.6-0.6,5.8,1.4s0.6,4.6-1.4,5.8
	l-10.2,6.6l2.2-1.2c2-1.2,4.6-0.6,5.8,1.4s0.6,4.6-1.4,5.8l-9.8,6.5c2.1-1,4.6,0,5.6,2.1c0.8,1.8,0.3,4-1.4,5.2L512,480l13.8-7.9
	c2-1.2,4.6-0.4,5.8,1.6c1.1,2,0.5,4.6-1.5,5.7l-81.7,47.1c-2,1.1-4.6,0.4-5.8-1.6c-1-1.9-0.6-4.2,1.2-5.5l32.9-24.1l-55.6,32.1
	C420.5,527.8,419.8,528,419.1,528.1z"/>
<path class="st0" d="M478.8,587.7c-1.1,0-2.2-0.5-3-1.3c-1.4-1.4-1.6-3.5-0.6-5.1l8.8-14.7l-19.3,11.1c-2,1.2-4.6,0.5-5.8-1.6
	c-0.6-1-0.7-2.2-0.4-3.3l3.2-10.6c-1.2-0.2-2.2-1-2.8-2c-1.2-2-0.5-4.6,1.5-5.8l5.8-3.4c2-1.2,4.6-0.5,5.8,1.6
	c0.6,1,0.7,2.2,0.4,3.3l-2.7,9.2l24.1-13.9c2-1.2,4.6-0.5,5.8,1.6c0.8,1.3,0.8,3,0,4.3l-8.8,14.7l3-1.7c2.1-1.1,4.6-0.3,5.7,1.8
	c1,1.9,0.4,4.4-1.5,5.5l-17.1,9.8C480.3,587.5,479.5,587.7,478.8,587.7z"/>
<path class="st1" d="M438.8,485.4c-2.3,0-4.2-1.9-4.2-4.2c0-1.3,0.6-2.5,1.6-3.3l21.1-16.5l-40.1,23.2c-2,1.1-4.6,0.4-5.8-1.7
	c-1-1.9-0.5-4.2,1.2-5.5l8.2-5.6l-16.7,9.6c-2,1.1-4.6,0.4-5.8-1.6c-1.1-1.9-0.5-4.3,1.2-5.5l23.5-16.2L391.8,476
	c-2,1.2-4.6,0.5-5.8-1.6c-1.1-1.9-0.6-4.3,1.2-5.5l54.7-39.5l-64.4,37.2c-2,1.2-4.6,0.4-5.8-1.6c-1.1-1.9-0.5-4.4,1.3-5.6l12.3-8.1
	l-15.2,8.8c-2,1.1-4.6,0.4-5.8-1.7c-1-1.9-0.5-4.2,1.2-5.5l47.8-32.8l-51.8,29.8c-2,1.2-4.6,0.5-5.8-1.6c-1.1-1.9-0.6-4.3,1.2-5.6
	l60.3-42.7L354,436.7c-2,1.2-4.6,0.6-5.8-1.4c-1.2-2-0.6-4.5,1.3-5.8l40.2-27.4l-40.1,23.1c-2,1.2-4.6,0.5-5.8-1.5
	c-1.1-1.9-0.6-4.3,1.2-5.5l60.5-44.4l-59.1,34.1c-2,1.1-4.6,0.4-5.8-1.7c-1.1-1.9-0.5-4.3,1.3-5.5l5.1-3.4l-0.7,0.4
	c-2,1.2-4.6,0.4-5.8-1.6c-1.1-1.9-0.5-4.3,1.3-5.6l13.4-9l-7.6,4.4c-2,1.2-4.6,0.5-5.8-1.6c-1.1-1.9-0.6-4.3,1.2-5.5l22.7-16.1
	l-13.8,8c-2,1.2-4.6,0.5-5.8-1.5c-1-1.7-0.7-3.9,0.8-5.3l26.6-24.7l-0.2,0.1c-2.1,1.1-4.6,0.3-5.7-1.8c-1-1.9-0.4-4.4,1.5-5.5
	l32.5-18.7c2-1.2,4.6-0.5,5.8,1.5c1,1.7,0.7,3.9-0.8,5.3L380,344.8l59.3-34.2c2-1.2,4.6-0.5,5.8,1.6c1.1,1.9,0.6,4.3-1.2,5.5
	L421,333.6l31.6-18.3c2-1.2,4.6-0.5,5.8,1.5c1.1,1.9,0.6,4.4-1.3,5.7l-13.3,9l16.7-9.7c2-1.2,4.6-0.5,5.8,1.5
	c1.1,1.9,0.5,4.4-1.3,5.7l-5.1,3.4l7.9-4.6c2-1.2,4.6-0.5,5.8,1.5c1.1,1.9,0.6,4.3-1.2,5.5L412,379.2l69.6-40.2
	c2-1.2,4.6-0.5,5.8,1.5c1.1,1.9,0.6,4.4-1.3,5.6L446,373.8l45.7-26.4c2-1.2,4.6-0.5,5.8,1.5c1.1,1.9,0.6,4.4-1.2,5.7L436,397.3
	l66.9-38.6c2-1.2,4.6-0.5,5.8,1.6c1.1,1.9,0.5,4.3-1.3,5.6l-47.7,32.8l47.8-27.6c2.1-1.1,4.6-0.4,5.7,1.7c1,1.9,0.5,4.3-1.3,5.5
	l-12.4,8.1l10.1-5.8c2-1.2,4.6-0.5,5.8,1.6c1.1,1.9,0.6,4.3-1.2,5.5l-54.8,39.5l51-29.5c2-1.2,4.6-0.5,5.8,1.5
	c1.1,1.9,0.6,4.4-1.3,5.7L491.6,421l17.2-9.9c2-1.2,4.6-0.5,5.8,1.6c1.1,1.9,0.5,4.3-1.3,5.6l-8.2,5.7c2-1.1,4.6-0.4,5.8,1.7
	c1,1.8,0.5,4.1-1.1,5.4l-21.1,16.5l4.8-2.8c2-1.3,4.6-0.7,5.8,1.3c1.3,2,0.7,4.6-1.3,5.8c-0.1,0.1-0.2,0.1-0.3,0.2l-56.8,32.8
	C440.3,485.2,439.5,485.4,438.8,485.4z"/>
<path class="st0" d="M472.1,392.4c-2.3,0-4.2-1.9-4.2-4.2c0-1,0.4-2,1-2.8l16.1-18.7l-35.4,20.4c-2,1.2-4.6,0.4-5.8-1.6
	c-1-1.8-0.6-4.1,1-5.4l10.8-8.6l-14.8,8.5c-2,1.2-4.6,0.5-5.8-1.6c-1-1.7-0.6-3.9,0.9-5.3l24.4-21.4l-27.2,15.7
	c-2,1.1-4.6,0.4-5.8-1.6c-0.9-1.7-0.6-3.8,0.8-5.1l23-21l-20.2,11.7c-2,1.2-4.6,0.5-5.8-1.6c-0.9-1.6-0.7-3.6,0.5-4.9l13.2-14.8
	c-2.3,0.5-4.6-0.9-5.1-3.1c-0.4-1.8,0.4-3.7,2-4.7l21.5-12.4c2-1.2,4.6-0.5,5.8,1.6c0.9,1.6,0.7,3.6-0.5,4.9l-12.8,14.3l30.9-17.9
	c2-1.1,4.6-0.4,5.8,1.6c0.9,1.7,0.6,3.8-0.8,5.1l-23,21l30.8-17.8c2-1.1,4.6-0.4,5.8,1.6c1,1.7,0.6,3.9-0.9,5.2l-24.4,21.4
	l26.5-15.3c2-1.2,4.6-0.5,5.8,1.6c1,1.8,0.6,4.1-1,5.4l-10.8,8.6l7.8-4.5c2-1.2,4.6-0.5,5.8,1.5c0.9,1.6,0.7,3.5-0.4,4.9l-16.1,18.7
	l2.5-1.5c2-1.3,4.6-0.7,5.8,1.3s0.7,4.6-1.3,5.8c-0.1,0.1-0.2,0.1-0.3,0.2l-24,13.9C473.6,392.3,472.8,392.5,472.1,392.4z"/>
<path class="st0" d="M391.1,426.4c-2.3,0-4.2-1.9-4.2-4.2c0-0.9,0.3-1.8,0.8-2.5l6.2-8.6l-11.7,6.8c-2,1.2-4.6,0.5-5.8-1.5
	c-0.8-1.3-0.8-2.9,0-4.2l6.5-11.4l-0.5,0.3c-2.1,1.1-4.6,0.3-5.7-1.8c-1-1.9-0.4-4.4,1.5-5.5l14-8.1c2-1.2,4.6-0.5,5.8,1.6
	c0.7,1.3,0.7,2.9,0,4.2l-6.5,11.4l15.3-8.8c2-1.2,4.6-0.5,5.8,1.6c0.8,1.4,0.7,3.2-0.2,4.6l-6.2,8.6l2.1-1.2c2-1.3,4.6-0.7,5.8,1.3
	s0.7,4.6-1.3,5.8c-0.1,0.1-0.2,0.1-0.3,0.2l-19.2,11.1C392.6,426.2,391.9,426.4,391.1,426.4z"/>
<path class="st2" d="M212.3,643.5c11.6,11.3,23.5,12,36.8,2.8c17.9-16.7,12.3-47,17.3-68.8c8.5,27.4,20.3,59.4,32.4,85.4
	c4.2,11.5,8.6,8-6.8,8c-30.8-0.6-41.3,48.6-7.1,52.3h52.4c75.9,1.1,4.4-70.9,106.1-59.3c15.7,0,16.7-2.7,26.3,11.6
	c7.4,11,5.9,22.7,12.9,33.2c16.6,25.1,65.6,14.5,90.7,14.5c34.3-3.7,19.6-53.8-9.8-52.3c-3.6-0.2-8.6,1.1-9.7-1.4
	c17.4-27.8,25.4-55.9,35.3-86.1c4.9,21.9,0.1,47.1,18,64c13.6,8.8,28.1,6.8,39.2-5c19.2-21.8-7.1-112.9-37-141.3
	c12.7-93.4,59.8-267.5-80.2-279.1c-62.5-3.2-126.1-0.6-188.6,0c-150.7,1.3-108.1,181.3-91.4,280.4
	C219.3,529.7,191,606.6,212.3,643.5z M552.3,670.1c0,0.1,0.1,0.1,0.1,0.2C552.6,671.2,552.9,672,552.3,670.1z M631.5,549.5
	c7,17,20.1,53.4,15.7,71.9c-11.6,51.2-46.2,20.1-48.7-8.8c-1.6-14-2.4-29.3-5.7-43c5.3-18.4,10.5-40.8,14.4-59.6
	C617.7,520.9,625.8,535.6,631.5,549.5z M237.5,333.2c1.4-59.8,35-99.2,96.4-101.2c62.2-0.5,124.4-0.4,186.6,0
	c139.7,3.1,80.4,270.8,81.1,273.2c-4.1,19.6-15.6,61.3-16,63c-10.7,36-24.7,70.9-41.8,104.3c-1.5,2.9,0,8.5,3.9,8.5
	c13.6-0.2,32.3-2.1,37,14.3c2.4,7.2-1.5,15-8.7,17.4c-1.4,0.5-2.8,0.7-4.2,0.7c-16.7,0-49.5,7.1-64.3,0
	c-47.6-32.8,9.6-72.5-110.4-59.3c-50.5,8.5,6.1,67.7-73.9,59.3h-39.7c-7-0.1-12.6-5.9-12.4-13c0-2.4,0.8-4.8,2.2-6.9
	c6.6-14.7,23.6-12.7,37-12.6c3.9,0,3.6-5.1,2.4-7.5c-17-33.2-31.1-67.8-41.9-103.5c-1.3-4.4-1.2-6.2-2.1-7
	c-0.9-0.9-16-61.2-16.1-64.6C241.5,443.9,236.4,388.6,237.5,333.2z M249.8,511c3.9,18.8,8.4,37.4,13.6,55.9
	c-11.4,21.7,0.8,73.5-26.7,79c-18.5,3.2-22.6-10.8-24.1-28.1C210.3,578.6,223.7,540.2,249.8,511z"/>
<path class="st3" d="M427.7,528.3c174.5-9.2,175.9-253.4,1.3-261.8C255,274.1,252.7,518.5,427.7,528.3z M427.7,274.2
	c160.9,7.4,162.8,236.4,1.3,246.4C267.7,512,266.6,282.4,427.7,274.2L427.7,274.2z"/>
<path class="st3" d="M371.8,465.6C445.9,526,547.5,442.1,508,357.4c7.1-31.7-28.3-60.2-57.6-45.5
	C362.3,295.1,295.6,403.9,371.8,465.6z M499.4,344.8c0.8,3.7,1,7.5,0.5,11.2c-1.3,0.9-1.7,2.6-0.8,3.9c0,0,0,0,0,0.1
	c-4.2,14.1-17.1,23.9-31.9,24.2c-42.5-2.3-45.9-66.6-1.6-66.8C481.9,317.7,495.8,329,499.4,344.8z M440.6,318.1
	c-50.8,45.1,27.1,110.2,62.5,52.7c21.3,72.7-62.7,144.6-127.4,86.9C314.5,403.1,366.1,311.1,440.6,318.1L440.6,318.1z"/>
<path class="st3" d="M394.5,427.8c27.5-0.1,26.5-43.9-0.6-43.9S368.3,426.4,394.5,427.8z M395,394c6.6-0.2,12.1,4.9,12.3,11.5
	s-4.9,12.1-11.5,12.3c-0.6,0-1.2,0-1.8-0.1c-6.6,0.2-12-5-12.2-11.6s5-12,11.6-12.2C394,393.9,394.5,394,395,394L395,394z"/>
<path class="st3" d="M533.6,570.5c0-0.6-0.2-1.1-0.6-1.6c-9.9-29.5-44.1-24.4-67.8-18c-23.7,3.5-47.7,3.5-71.3,0
	c-26.6-3.9-76-10-71.8,33.5c4.4,65.3,223.6,62.3,211.5-12.2C533.8,571.7,533.8,571.1,533.6,570.5z M491,556.7
	c-1.4,7.9,5.1,25.6-8.4,23.2c-19.7,3-15.2-7.7-15.5-22.1C475.1,556.9,483.1,556.6,491,556.7z M429.5,621.5
	c-17.7,2.4-123.7-13.6-96.9-49.9c36.6-29.9,81.2,0.4,124.4-12.6c-2.5,23,2.3,30.9,26.2,28.5c19.2,1.4,18.8-15.5,17.9-29.9
	c11.3,1.8,20.1,6.4,22.9,16C528.4,617.5,454.9,621.5,429.5,621.5L429.5,621.5z"/>
<g>
	<g>
		<path class="st2" d="M742.7,648.3c-16.3-9.6-32.7-18.7-48.9-27c-9.4-4.8-18.9-9.3-32.4-12c-7.7-1.5-18.4-3.6-31.6-0.6
			c-8.7,2-16.9,5.8-24.3,11.3c-2.1-1.1-4.4-1.8-6.6-2.2c-2.6-0.4-5.3-0.4-8,0.1c-1.7-3.6-4-6.9-5.7-8.7c-1.4-1.5-2.7-2.6-3.7-3.5
			c-2.2-1.8-2.6-2.3-2.7-3c0.1-0.1,0.1-0.3,0.3-0.5c0.5-0.9,1.1-2.3,1.6-4.6c1-4.5,0.3-8.3-0.1-10.8c-0.4-2.7-1-4.3-1.4-5.5
			s-0.6-1.8-0.6-2.9c0-0.9,0.3-1.9,0.6-3c0.2-0.5,0.3-1,0.4-1.5c0.7-2.9-0.6-4.9-2-5.8c-2.1-1.3-5-0.9-7.5,1.2
			c-0.9,0.8-1.8,1.7-2.5,2.8c-1.3,2-1.6,3.6-2,6c-0.2,1-0.4,2.3-0.8,3.9c-1,4.8-2.5,8.5-3.9,9.9c-0.8,0.7-1.5,1.2-2.4,1.7
			c-2.2,1.1-4.2,1-6.5,0.9h-1.1c-1.6,0-3.3,0-4.9,0.1l-1.1,0.1c-2.6,0.2-5.7,0.4-8.5,1.7c-0.1,0.1-0.3,0.1-0.4,0.2
			c-1.6,0.8-3.1,1.8-4.4,2.9l-21.8,17.8L474,646.4c-4.6,3.7-4.8,8.4-4,11.5L369.5,740l-3.7-4.5c-0.8-1-2.1-1.5-3.4-1.3
			c-1.6,0.3-4.7,1.1-7.6,3.5c-1.1,0.9-2.1,1.9-2.9,3.1c-4.1,5.9-2.7,12.2-2.1,14c0.1,0.3,0.2,0.7,0.3,1l-6.2,5
			c-2.1,1.7-2.8,4.5-1.8,7c1.4,3.5,3.3,6.7,5.7,9.6c2.3,2.8,5,5.3,8.1,7.3c2.2,1.5,5.1,1.3,7.2-0.4l17.4-14.2
			c0.2,0.3,0.4,0.6,0.6,0.8c0.9,1.1,1.9,2.1,3.1,3c2.2,1.6,5.2,1.6,7.4-0.2l9.5-7.8c1.3,0.8,3.1,0.8,4.6,0c0.5-0.2,0.9-0.5,1.3-0.8
			l3.5-2.8c0.4-0.3,0.7-0.7,0.9-1c1.1-1.4,1.5-3.2,1-4.7l82.5-67.4l1.6,1.9c2,2.4,4.9,3.8,8.1,3.8c0.4,0,0.8,0,1.2-0.1
			c1.3-0.1,2.5-0.2,4.8,0.9c2.5,1.2,6,4.9,8.4,7.4c1.8,1.9,3,3.2,4.1,3.9c3.2,2.1,7.3,2.3,10.6,0.4l63.7-35c1.9-1,3.5-0.6,5.6-0.2
			c2.2,0.5,5,1.2,8.1-0.1c0.2-0.1,0.4-0.2,0.6-0.3l8.6-5.7c8-5.5,11.2-6.9,12.4-7.3c7-2.3,15-0.9,24,4.3
			c7.4,4.3,11.2,10.7,17.6,21.2c3.5,5.8,6.2,11.1,7.7,14.6c1.1,2.4,3.2,4.2,5.8,4.8s5.3,0,7.4-1.7c2.5-2,5-4,7.4-6.1
			c5.7-4.7,11.4-9.4,17.1-14.1c8-6.6,15.9-13.1,24.1-19.7c2.2-1.8,3.4-4.5,3.1-7.3C746.7,652.3,745.1,649.7,742.7,648.3z"/>
		<g>
			<g>
				<path class="st2" d="M354.8,757.1c-0.5-0.7-1.1-1.9-1.6-3.3c-0.2-0.8-1.7-6.2,1.6-10.9c2.9-4.1,7.3-5,8.2-5.1
					c2.1,2.5,4.2,5.1,6.2,7.6C364.5,749.3,359.6,753.2,354.8,757.1z"/>
			</g>
			<g>
				<path class="st2" d="M370.2,746.4L370.2,746.4l-14.5,11.8c-0.3,0.2-0.7,0.3-1.1,0.3c-0.4-0.1-0.7-0.3-0.9-0.6
					c-0.8-1.2-1.3-2.4-1.7-3.7c-0.5-1.6-1.7-7.1,1.8-12.1c0.7-1,1.5-1.9,2.5-2.7c2.5-2.1,5.2-2.8,6.6-3c0.5-0.1,1,0.1,1.3,0.5
					l6.2,7.6c0.2,0.3,0.3,0.6,0.3,1C370.6,745.8,370.4,746.2,370.2,746.4z M355.2,755l12.2-9.9l-4.8-5.9c-1.1,0.3-2.9,0.9-4.6,2.3
					c-0.8,0.6-1.4,1.3-2,2.1c-2.8,4-1.8,8.5-1.5,9.8C354.7,753.9,354.9,754.5,355.2,755z"/>
			</g>
		</g>
		<g>
			<path class="st0" d="M497.4,670.1L360.9,781.6c-0.9,0.7-2,0.8-3,0.2c-2.1-1.4-4.8-3.5-7.3-6.6c-2.6-3.2-4.2-6.3-5.2-8.7
				c-0.4-1-0.1-2.2,0.7-2.9l136.5-111.5L497.4,670.1z"/>
		</g>
		<g>
			<path class="st2" d="M498.3,671.1L361.8,782.6c-1.3,1.1-3.2,1.2-4.6,0.2c-2.9-1.9-5.4-4.2-7.6-6.8c-2.2-2.7-4.1-5.8-5.4-9
				c-0.6-1.6-0.2-3.4,1.1-4.4L481.9,651c0.6-0.5,1.4-0.4,1.9,0.2l14.7,18C499,669.8,498.9,670.7,498.3,671.1z M347.1,764.7
				c-0.4,0.3-0.5,0.8-0.3,1.3c1.2,3,2.9,5.8,5,8.3c2,2.4,4.4,4.6,7,6.3c0.4,0.3,1,0.2,1.3-0.1l135.5-110.6l-13-15.9L347.1,764.7z"/>
		</g>
		<g>
			<path class="st2" d="M351.9,774.3c-1.6-1.1-3.4-2.6-5.3-4.5c0.8,1.3,1.8,2.6,2.9,3.9c2.9,3.5,5.9,6.1,8.3,7.8
				c1,0.7,2.3,0.8,3.1,0.1l136.5-111.5l-5.9-7.2L355.1,774.4C354.2,775.1,353,775.1,351.9,774.3z"/>
		</g>
		<g>
			<path class="st2" d="M499.1,681.5L389.4,771c-0.8,0.7-2.1,0.7-2.9,0.1c-0.8-0.6-1.6-1.3-2.4-2.4c-0.7-0.9-1.2-1.7-1.5-2.5
				c-0.5-1-0.2-2.2,0.6-2.9l109.6-89.6L499.1,681.5z"/>
		</g>
		<g>
			<path class="st2" d="M500,682.5l-109.6,89.6c-1.3,1.1-3.2,1.1-4.6,0.1c-1-0.7-1.9-1.6-2.7-2.6c-0.7-0.8-1.2-1.8-1.7-2.7
				c-0.7-1.6-0.3-3.4,1-4.5L492,672.8c0.6-0.5,1.4-0.4,1.9,0.2l6.2,7.6C500.6,681.2,500.5,682,500,682.5z M384.1,764.4
				c-0.4,0.3-0.5,0.8-0.3,1.2c0.4,0.8,0.8,1.5,1.4,2.2c0.6,0.8,1.4,1.5,2.2,2.1c0.4,0.3,0.9,0.3,1.3,0l108.6-88.7l-4.5-5.5
				L384.1,764.4z"/>
		</g>
		<g>
			<path class="st0" d="M487.9,676.7L360,781.1c-0.4,0.3-1,0.3-1.3-0.1c-0.3-0.4-0.3-1,0.1-1.3l127.9-104.5c0.4-0.3,1-0.3,1.3,0.1
				C488.4,675.8,488.3,676.3,487.9,676.7z"/>
		</g>
		<g>
			<g>
				<path class="st2" d="M617,700.6c-0.9,0.7-1.8,1.3-2.8,1.9l-12.4,6.9c-4.4,2.4-9.5,3-14.4,1.6s-8.9-4.6-11.3-9l-1.5-2.8
					c-4.4-8-2.5-18,4.6-23.8c0.9-0.7,1.8-1.3,2.8-1.9l12.4-6.9c4.4-2.4,9.5-3,14.4-1.6s8.9,4.6,11.3,9l1.5,2.8
					C626,684.7,624.1,694.8,617,700.6z M582,679c-5.4,4.4-6.8,12-3.5,18.1l1.5,2.8c1.9,3.3,4.9,5.7,8.6,6.8
					c3.7,1.1,7.6,0.6,10.9-1.2l12.4-6.9c0.7-0.4,1.4-0.9,2.1-1.4c5.4-4.4,6.8-12,3.5-18.1l-1.5-2.8c-1.9-3.3-4.9-5.7-8.6-6.8
					c-3.7-1.1-7.6-0.6-10.9,1.2l-12.4,6.9C583.4,678,582.7,678.4,582,679z"/>
			</g>
		</g>
		<g>
			<g>
				<path class="st2" d="M575.6,696c-4.5-8.6-18.2-6.3-18.2-6.3l24.4-13.4C581.7,676.3,570.2,685.6,575.6,696z"/>
			</g>
			<g>
				<path class="st2" d="M577,697.7c-0.1,0.1-0.3,0.2-0.4,0.3c-1.1,0.6-2.5,0.1-3.1-1c-3.7-7.1-15.7-5.1-15.8-5.1
					c-1.1,0.2-2.2-0.4-2.5-1.5c-0.4-1,0.1-2.2,1-2.7l24.4-13.4c1-0.6,2.3-0.3,3,0.7s0.5,2.3-0.4,3c-0.4,0.3-10,8.3-5.6,16.9
					C578.1,695.9,577.8,697.1,577,697.7z M566.1,687.5c1.9,0.3,4,0.9,5.9,1.9c0.1-2.1,0.7-4.1,1.5-5.9L566.1,687.5z"/>
			</g>
		</g>
		<g>
			<g>
				<path class="st2" d="M619.5,677.9c-4.5-8.6-18.6-10.4-18.6-10.4l24-9.5C624.9,657.9,614.2,667.5,619.5,677.9z"/>
			</g>
			<g>
				<path class="st2" d="M621,679.6c-0.1,0.1-0.3,0.2-0.4,0.3c-1.1,0.6-2.5,0.1-3.1-1c-3.9-7.5-16.7-9.2-16.9-9.2
					c-1-0.1-1.8-0.9-2-2c-0.1-1,0.5-2,1.4-2.4l24-9.5c1-0.4,2.2,0,2.8,0.9s0.4,2.2-0.4,2.9c-0.4,0.3-9.3,8.6-4.9,17.2
					C622.1,677.8,621.8,679,621,679.6z M608.4,666.9c2.4,0.8,5,2,7.4,3.6c0.2-2.8,1.2-5.3,2.3-7.5L608.4,666.9z"/>
			</g>
		</g>
		<g>
			<g>
				<g>
					<path class="st2" d="M594.4,668.8c4,4.5,8.8,8.8,10,14.9c0.7,3.2,0.6,6.6,0.3,9.8c-0.1,0.8-0.1,2.9-1.5,2.3
						c-0.9-0.4-0.9-2.4-1.1-3.2c-0.7-3.1-1.7-6-3.3-8.7v0.1c-0.1-0.3-0.5-0.6-0.7-0.8c-0.5-0.5-1-0.9-1.5-1.4
						c-1.1-0.9-2.3-1.6-3.5-2.3c-1.9-1.1-3.9-2.1-5.7-3.5c-3.6-2.7-2.8-8.5,1.2-9.5C590.9,666,592.9,667.1,594.4,668.8z"/>
				</g>
			</g>
		</g>
		<g>
			<path class="st2" d="M570.5,574c-1.3,2.1-1.1,3.3-2.3,8.7c-1.8,8.5-4.2,11-5,11.7c-1.3,1.2-2.6,2-3.4,2.4
				c-3.4,1.7-6.4,1.3-9.2,1.2c-1.3,0-2.8,0-4.6,0.1c-2.8,0.2-6.1,0.3-8.6,1.6c6.6-2.1,12.8,3.4,16.5,7.8l8.9,12.2l19.2,5.9
				c0,0,2.6-1.9,6.6-3.5c-1.4-3.9-4.3-8.5-6.2-10.5c-3.7-3.9-6.9-5.1-7.4-8.6c-0.3-2.1,1.1-2.3,1.9-6.3c0.8-3.8,0.3-7.1-0.1-9.5
				c-0.8-5-2.1-5.7-2.1-9.1c0-2,0.8-3.8,1.2-5.3C576.7,569.9,572.9,570.2,570.5,574z"/>
		</g>
		<g>
			<path class="st2" d="M589.5,623.3c-0.1,0.1-0.2,0.2-0.4,0.2c-3.8,1.5-6.3,3.3-6.3,3.3c-0.3,0.2-0.8,0.3-1.2,0.2l-19.2-5.9
				c-0.3-0.1-0.5-0.3-0.7-0.5l-8.9-12.2c-2.9-3.6-8.8-9.3-15-7.3c-0.7,0.2-1.4-0.1-1.7-0.8s0-1.4,0.6-1.7c2.4-1.2,5.4-1.5,8.1-1.7
				l1.1-0.1c1.6-0.1,3.2-0.2,4.7-0.1c0.3,0,0.7,0,1,0c2.4,0.1,4.9,0.2,7.5-1.1c1.1-0.5,2.1-1.2,3-2.1c1.8-1.7,3.4-5.6,4.6-11
				c0.4-1.7,0.6-3,0.8-4c0.4-2.3,0.6-3.5,1.7-5.2c0.6-0.9,1.3-1.7,2-2.3c1.7-1.4,3.6-1.8,4.9-1c0.5,0.3,1.6,1.2,1,3.4
				c-0.1,0.5-0.3,1-0.4,1.5c-0.3,1.1-0.7,2.3-0.7,3.6c0,1.5,0.3,2.4,0.7,3.7c0.4,1.2,0.9,2.7,1.4,5.2c0.4,2.5,1,5.9,0.1,10
				c-0.4,2.1-1,3.2-1.5,4.1c-0.4,0.8-0.5,1.1-0.5,1.7c0.2,1.7,1.3,2.7,3.5,4.5c1.1,0.9,2.3,1.9,3.6,3.3c2.1,2.2,5.1,6.9,6.5,11
				C590.2,622.3,590,622.9,589.5,623.3z M581.9,624.2c0.9-0.6,2.7-1.6,5.1-2.7c-1.4-3.4-3.8-7.1-5.5-8.8c-1.2-1.3-2.3-2.2-3.4-3.1
				c-2.2-1.8-4-3.4-4.4-6.2c-0.2-1.5,0.2-2.4,0.7-3.3c0.4-0.8,0.9-1.7,1.2-3.4c0.8-3.6,0.3-6.6-0.1-9c-0.4-2.2-0.8-3.5-1.2-4.7
				c-0.5-1.4-0.9-2.6-0.9-4.6c0-1.7,0.4-3.1,0.8-4.3c0.1-0.4,0.3-0.9,0.4-1.3c0-0.2,0.1-0.3,0.1-0.4c-0.3,0-0.8,0.2-1.6,0.8
				c-0.5,0.4-1,1-1.5,1.7c-0.8,1.2-0.9,2-1.3,4.2c-0.2,1-0.4,2.4-0.8,4.1c-1.3,6.1-3.1,10.2-5.3,12.4c-0.3,0.3-0.6,0.6-0.9,0.8
				c-0.9,0.7-1.8,1.3-2.8,1.8c-3.3,1.6-6.2,1.5-8.8,1.4c-0.3,0-0.7,0-1,0c-1.3,0-2.7,0-4.1,0.1c3.6,1.8,6.6,4.9,8.5,7.3l8.6,11.9
				L581.9,624.2z"/>
		</g>
		<g>
			<path class="st0" d="M492.8,681.1l-105.9,86.5c-0.4,0.3-1,0.3-1.3-0.1c-0.3-0.4-0.3-1,0.1-1.3l105.9-86.5c0.4-0.3,1-0.3,1.3,0.1
				C493.2,680.2,493.2,680.8,492.8,681.1z"/>
		</g>
		<g>
			<path class="st0" d="M573.6,630.4L554,607.6c-3.7-4.5-9.9-10-16.5-7.8c-1.3,0.7-2.6,1.5-3.8,2.5c-26.3,21.5-49.8,40.7-57.5,47
				c-5,4.1-2.3,8.9-2.3,8.9l25.3,31c1.3,1.6,3.2,2.4,5.3,2.4c1.6,0,3.7-0.6,7.5,1.2c4.7,2.2,10.9,10.1,12.9,11.5
				c2.1,1.4,4.7,1.5,6.9,0.3l63.8-35c5.7-3,9.4,1.5,13.9-0.4l8.6-5.7c-22.2-6.6-24.4-29.6-12.6-39.2c-1.4-0.9-4-2.3-7.5-2.9
				c-4.3-0.7-7.8,0.3-9.5,0.9c-4,1.6-6.6,3.5-6.6,3.5L573.6,630.4z"/>
		</g>
		<g>
			<path class="st2" d="M619.1,664.5L619.1,664.5l-8.7,5.8c-0.1,0-0.1,0.1-0.2,0.1c-2.4,1-4.6,0.5-6.7,0c-2.3-0.5-4.4-1-7.1,0.3
				l-63.8,35c-2.6,1.4-5.8,1.3-8.3-0.3c-0.9-0.6-2.1-1.8-3.7-3.5c-2.6-2.8-6.2-6.5-9.1-7.9c-2.8-1.3-4.5-1.2-5.9-1.1
				c-0.4,0-0.7,0-1,0c-2.5,0-4.8-1.1-6.3-2.9L473,659c-0.1-0.1-0.1-0.1-0.1-0.2c-1.1-2-2-6.9,2.6-10.7l8.9-7.3
				c11.1-9.1,29.1-23.8,48.6-39.7c1.2-1,2.6-1.9,4-2.6c0.1,0,0.1-0.1,0.2-0.1c7.7-2.5,14.6,4.1,18,8.3l18.8,21.9l7.4-4.1
				c0.4-0.3,3-2.1,6.8-3.6c2.3-0.8,5.9-1.6,10.2-1c2.8,0.5,5.6,1.5,8,3.1c0.4,0.2,0.6,0.6,0.6,1.1c0,0.4-0.2,0.9-0.5,1.1
				c-5.2,4.3-7.6,11.4-6.1,18.6c1.7,8.6,8.4,15.3,18.3,18.2c0.5,0.2,0.9,0.6,1,1.1C619.7,663.7,619.5,664.2,619.1,664.5z
				 M609.1,667.9l6.1-4c-9.4-3.6-15.7-10.5-17.5-19.3c-1.5-7.5,0.6-15,5.6-20c-1.7-0.9-3.5-1.5-5.4-1.8c-3.7-0.6-6.8,0.1-8.8,0.8
				c-3.7,1.5-6.2,3.3-6.3,3.3l-0.1,0.1l-8.5,4.7c-0.6,0.3-1.3,0.2-1.7-0.3L553,608.5c-3-3.6-8.8-9.4-14.9-7.5
				c-1.2,0.6-2.4,1.4-3.4,2.3c-19.5,15.9-37.5,30.6-48.6,39.7l-8.9,7.3c-3.7,3.1-2.3,6.5-2,7.1l25.2,30.9c1,1.2,2.5,1.9,4.2,1.9
				c0.3,0,0.6,0,0.9,0c1.6-0.1,3.8-0.2,7.3,1.4c3.3,1.6,7,5.4,9.9,8.5c1.3,1.4,2.6,2.7,3.2,3.1c1.7,1.1,3.8,1.2,5.5,0.2l63.8-35
				c3.6-1.9,6.5-1.2,9-0.6C605.9,668.1,607.5,668.5,609.1,667.9z"/>
		</g>
		<g>
			<path class="st2" d="M605.6,624.2c-1.4-0.9-4-2.3-7.5-2.9c-4.3-0.7-7.8,0.3-9.5,0.9c-4,1.6-6.6,3.5-6.6,3.5l-8.5,4.7l-9.3-10.9
				l-8.6,7l18.2,22.3c1,1.3,0.8,3.1-0.4,4.2l-43.7,35.7c-1.3,1-3.1,0.8-4.2-0.4L507.3,666L491,679.3l8.1,9.9
				c1.3,1.6,3.2,2.4,5.3,2.4c1.6,0,3.7-0.6,7.5,1.2c4.7,2.2,10.9,10.1,12.9,11.5c2.1,1.4,4.7,1.5,6.9,0.3l63.8-35
				c5.7-3,9.4,1.5,13.9-0.4l8.6-5.7C596,656.8,593.9,633.8,605.6,624.2z"/>
		</g>
		<g>
			
				<rect x="478.9" y="657.3" transform="matrix(0.7744 -0.6326 0.6326 0.7744 -307.49 458.6548)" class="st2" width="21.1" height="6.5"/>
		</g>
		<g>
			
				<rect x="483.5" y="664.8" transform="matrix(0.7745 -0.6326 0.6326 0.7745 -309.9263 462.7426)" class="st2" width="21.1" height="2.5"/>
		</g>
		<g>
			
				<rect x="468.7" y="629.7" transform="matrix(0.7745 -0.6326 0.6326 0.7745 -285.2497 462.7666)" class="st2" width="75.5" height="3.6"/>
		</g>
		<g>
			
				<rect x="501.3" y="681.1" transform="matrix(0.7744 -0.6326 0.6326 0.7744 -316.8304 476.5773)" class="st0" width="17.2" height="3"/>
		</g>
		<g>
			<path class="st0" d="M615.1,663.9l-6.2,4.1c-1.5,0.5-3,0.2-4.8-0.2c-2.4-0.6-5.4-1.3-9,0.6l-63.8,35.1c-1.7,1-3.9,0.9-5.5-0.2
				c-0.6-0.4-1.6-1.5-3.2-3.1c-2.9-3.1-6.6-6.9-9.9-8.5c-3.4-1.6-5.6-1.5-7.3-1.4c-0.4,0-0.6,0-0.9,0c-1.7,0-3.2-0.7-4.2-1.9
				l-25.2-30.9l-0.1-0.2c-0.4-0.9-1.3-4.2,2.1-6.9l9.5-7.8c11.2-9.1,28.8-23.6,48-39.2c1-0.8,2.1-1.6,3.3-2.2l0.3-0.1
				c6.3-1.8,12.5,4.6,14.8,7.5l20.3,23.7l9.6-5.3c0,0,2.5-1.8,6.3-3.3c2-0.7,5.1-1.4,8.8-0.8c1.2,0.2,2.4,0.5,3.6,1l1.8,0.7
				l-1.2,1.5c-4.2,5-5.8,11.8-4.4,18.7c1.6,8,7,14.6,15.2,18.4L615.1,663.9z M607.8,665.4l1.7-1.1c-7.8-4.3-12.9-11-14.6-19.2
				c-1.4-7,0-13.9,3.8-19.4c-0.4-0.1-0.9-0.2-1.3-0.3c-3.1-0.5-5.7,0.1-7.4,0.7c-3.3,1.3-5.6,2.9-5.7,3l-0.2,0.2l-11.5,6.4
				l-21.8-25.4c-1.6-1.9-6.9-7.9-11.8-6.6c-1,0.5-1.9,1.2-2.7,1.8c-19.1,15.6-36.8,30.1-48,39.2l-9.5,7.8c-1.7,1.4-1.6,2.8-1.3,3.6
				l25,30.6c0.5,0.6,1.3,0.9,2.1,0.9c0.2,0,0.4,0,0.6,0h0.1c1.7-0.1,4.5-0.3,8.6,1.6c3.8,1.8,7.6,5.8,10.7,9
				c0.8,0.9,2.4,2.5,2.8,2.8c0.8,0.5,1.8,0.6,2.7,0.1l63.8-35.1c4.5-2.3,8.4-1.4,10.9-0.8C606.3,665.4,607.2,665.6,607.8,665.4z"/>
		</g>
		<g>
			<path class="st0" d="M540,608.2l34,41.6c10.3-8.4,11-24.5,1.6-36C566.2,602.3,550.2,599.8,540,608.2z"/>
		</g>
		<g>
			<path class="st2" d="M574.8,650.8c-0.6,0.5-1.4,0.4-1.9-0.2l-34-41.6c-0.5-0.6-0.4-1.4,0.2-1.9c10.8-8.8,27.6-6.2,37.5,5.8
				C586.5,625,585.7,642,574.8,650.8z M541.9,608.4l32.2,39.4c8.7-8.1,8.9-22.7,0.4-33.2C565.9,604.2,551.6,601.5,541.9,608.4z"/>
		</g>
		<g>
			<path class="st2" d="M543,611.8c0,0,0.4-0.2,1-0.7c0.2-0.1,0.3-0.2,0.5-0.3s0.4-0.3,0.7-0.4c0.5-0.3,1.1-0.6,1.7-0.9
				c0.6-0.3,1.3-0.6,2-0.8c0.7-0.3,1.5-0.4,2.3-0.6c0.4-0.1,0.8-0.1,1.3-0.2c0.4-0.1,0.9-0.1,1.3-0.1c0.4,0,0.9,0,1.3-0.1l1.3,0.1
				c0.4,0,0.9,0.1,1.3,0.2c0.4,0.1,0.9,0.1,1.3,0.2c0.4,0.1,0.8,0.2,1.2,0.3s0.8,0.3,1.2,0.4c0.4,0.1,0.7,0.3,1.1,0.5
				c0.4,0.2,0.7,0.3,1,0.5c0.6,0.4,1.2,0.7,1.7,1.2c0.3,0.2,0.5,0.4,0.7,0.6c0.2,0.2,0.4,0.4,0.6,0.6c0.4,0.4,0.7,0.7,0.9,1
				c0.5,0.6,0.7,0.9,0.7,0.9s-0.3-0.3-0.8-0.8c-0.3-0.3-0.6-0.6-1-0.9c-0.2-0.2-0.4-0.3-0.6-0.5c-0.2-0.2-0.5-0.3-0.8-0.5
				c-0.5-0.4-1.1-0.6-1.8-1c-0.3-0.2-0.7-0.3-1-0.4c-0.4-0.1-0.7-0.3-1.1-0.4c-0.4-0.1-0.8-0.2-1.1-0.3c-0.4-0.1-0.8-0.1-1.2-0.2
				c-0.4-0.1-0.8-0.1-1.2-0.1s-0.8-0.1-1.2,0l-1.2,0.1c-0.4,0.1-0.8,0.1-1.2,0.2c-0.4,0-0.8,0.2-1.2,0.2c-0.4,0.1-0.8,0.2-1.1,0.3
				c-0.7,0.2-1.4,0.5-2,0.8s-1.2,0.6-1.7,0.9c-0.5,0.3-1,0.6-1.4,0.9c-0.2,0.1-0.4,0.2-0.5,0.4c-0.2,0.1-0.3,0.3-0.5,0.4
				c-0.6,0.5-0.9,0.7-0.9,0.7L543,611.8z"/>
		</g>
		<g>
			<path class="st2" d="M566.9,641.1l4.2,5.1c8.7-7.1,9.2-20.9,1.1-30.8c-0.7-0.9-1.5-1.7-2.3-2.4
				C575.9,622.6,574.9,634.7,566.9,641.1z"/>
		</g>
		<g>
			<g>
				
					<rect x="329.2" y="715.1" transform="matrix(0.7745 -0.6326 0.6326 0.7745 -360.7391 423.3786)" class="st2" width="168.5" height="5"/>
			</g>
		</g>
		<g>
			<path class="st0" d="M409.1,759.1l-4.9,4c-0.3,0.3-0.8,0.2-1.1-0.1l-10-12.2c-0.3-0.3-0.2-0.8,0.1-1.1l4.9-4
				c0.3-0.3,0.8-0.2,1.1,0.1l10,12.2C409.4,758.4,409.4,758.9,409.1,759.1z"/>
		</g>
		<g>
			<path class="st2" d="M409.2,760.8l-3.5,2.8c-1.3,1.1-3.3,0.9-4.3-0.4l-8.8-10.8c-1.1-1.3-0.9-3.3,0.4-4.3l3.5-2.8
				c1.3-1.1,3.3-0.9,4.3,0.4l8.8,10.8C410.7,757.8,410.5,759.7,409.2,760.8z M394.8,750.2c-0.1,0.1-0.2,0.3,0,0.5l8.8,10.8
				c0.1,0.1,0.3,0.2,0.5,0l3.5-2.8c0.1-0.1,0.2-0.3,0-0.5l-8.8-10.8c-0.1-0.1-0.3-0.2-0.5,0L394.8,750.2z"/>
		</g>
		<g>
			<g>
				<path class="st2" d="M405.6,756.3l-3.5,2.8c-0.7,0.6-1.6,0.7-2,0.2l2.8,3.4c0.4,0.5,1.3,0.4,2-0.2l3.5-2.8
					c0.7-0.6,1-1.5,0.6-1.9l-2.8-3.4C406.6,754.9,406.3,755.7,405.6,756.3z"/>
			</g>
			<g>
				<path class="st2" d="M409.2,760.8l-3.5,2.8c-1.3,1.1-3.1,1.1-3.9,0l-2.8-3.4c-0.5-0.6-0.4-1.4,0.2-1.9c0.5-0.4,1.2-0.4,1.7,0
					c0.1,0,0.2-0.1,0.3-0.2l3.5-2.8c0.1-0.1,0.2-0.2,0.3-0.3c-0.3-0.6-0.1-1.2,0.4-1.6c0.6-0.5,1.4-0.4,1.9,0.2l2.8,3.4
					C410.9,758,410.5,759.7,409.2,760.8z M403.7,761.7c0.1,0,0.2-0.1,0.3-0.2l3.5-2.8c0.1-0.1,0.2-0.2,0.2-0.3l-1-1.3
					c-0.1,0.1-0.2,0.2-0.3,0.2l-3.5,2.8c-0.1,0.1-0.2,0.1-0.3,0.2L403.7,761.7z"/>
			</g>
		</g>
		<g>
			
				<rect x="520.1" y="655.5" transform="matrix(0.7745 -0.6326 0.6326 0.7745 -295.9711 496.552)" class="st2" width="56.7" height="15.7"/>
		</g>
		<g>
			
				<rect x="501" y="634.1" transform="matrix(0.7745 -0.6326 0.6326 0.7745 -285.4931 479.1834)" class="st2" width="56.7" height="11.9"/>
		</g>
		<g>
			
				<rect x="506.9" y="646.9" transform="matrix(0.7745 -0.6326 0.6326 0.7745 -289.6526 485.2722)" class="st2" width="57.8" height="4"/>
		</g>
		<g>
			
				<rect x="491.5" y="627.8" transform="matrix(0.7745 -0.6326 0.6326 0.7745 -280.9077 471.1793)" class="st2" width="57.8" height="3.6"/>
		</g>
		<g>
			<path class="st0" d="M495,646.5l3,3.7l22.5-18.4c3.1-2.6,3.6-7.2,1-10.4l-0.1-0.1l-26.1,21.3C494.2,643.5,494,645.3,495,646.5z"
				/>
		</g>
		<g>
			<path class="st0" d="M519.1,618.4L493,639.7c-2.8,2.3-3.2,6.3-0.9,9.1l3,3.7c1.3,1.6,3.6,1.8,5.1,0.5l22.5-18.4
				c4.7-3.8,5.4-10.8,1.5-15.5c-0.1-0.1-0.1-0.2-0.2-0.2C522.9,617.4,520.7,617.2,519.1,618.4L519.1,618.4z"/>
		</g>
		<g>
			<path class="st0" d="M493.5,647.7l3,3.7l23.7-19.4c3.3-2.7,3.9-7.5,1.3-10.6l-0.1-0.1L494,643.7
				C492.7,644.7,492.5,646.5,493.5,647.7z"/>
		</g>
		<g>
			<path class="st2" d="M521.1,633.1l-23.7,19.4c-0.6,0.5-1.4,0.4-1.9-0.2l-3-3.7c-1.5-1.8-1.2-4.5,0.7-6l27.4-22.4
				c0.6-0.5,1.4-0.4,1.9,0.2l0.1,0.1C525.7,624.2,525,629.9,521.1,633.1z M496.7,649.5l22.7-18.5c2.4-1.9,3.1-5.2,1.8-7.7
				l-26.3,21.5c-0.7,0.6-0.8,1.5-0.3,2.1L496.7,649.5z"/>
		</g>
		<g>
			<path class="st2" d="M546.3,663.7l-23.4,19.1l2.9,3.6c1,1.2,2.8,1.4,4.1,0.4l27-22.1C554.3,661.5,549.5,661.1,546.3,663.7z"/>
		</g>
		<g>
			<path class="st0" d="M546.3,663.7c3.2-2.7,8-2.2,10.6,0.9l-27,22.1c-1.2,1-3.1,0.9-4.1-0.4l-2.9-3.6L546.3,663.7L546.3,663.7z
				 M545.1,662.3l-23.4,19.1c-0.8,0.6-0.9,1.8-0.3,2.6l2.9,3.6c1.6,2,4.6,2.3,6.6,0.6l27-22.1c0.8-0.6,0.9-1.8,0.3-2.6
				C555.1,659.5,549.2,659,545.1,662.3L545.1,662.3z"/>
		</g>
		<g>
			<path class="st0" d="M528.9,642.3l-23.3,19l9.4,11.5l23.3-19c3.2-2.6,3.8-7.4,1.2-10.6C536.9,640.1,532.1,639.7,528.9,642.3z"/>
		</g>
		<g>
			<path class="st0" d="M526.9,639.9l-23.3,19c-1.4,1.1-1.6,3.1-0.5,4.5l9.4,11.5c1.1,1.4,3.1,1.6,4.5,0.5l23.3-19
				c4.6-3.8,5.3-10.5,1.6-15C538.2,636.7,531.5,636.1,526.9,639.9L526.9,639.9z"/>
		</g>
		<g>
			<path class="st0" d="M528.8,642.4L505,661.8l9.4,11.5l23.7-19.4c3.3-2.7,3.9-7.5,1.3-10.6C536.9,640.1,532.1,639.7,528.8,642.4z"
				/>
		</g>
		<g>
			<path class="st2" d="M539,655l-23.7,19.4c-0.6,0.5-1.4,0.4-1.9-0.2l-9.4-11.5c-0.5-0.6-0.4-1.4,0.2-1.9l23.7-19.4
				c3.9-3.2,9.5-2.7,12.6,1C543.6,646.2,542.9,651.8,539,655z M514.6,671.4l22.7-18.5c2.7-2.2,3.2-6.1,1.1-8.7
				c-2.1-2.6-6-2.9-8.8-0.7L506.9,662L514.6,671.4z"/>
		</g>
		<g>
			<path class="st2" d="M540.8,646c-0.3-1-0.7-1.9-1.4-2.7c-2.6-3.2-7.4-3.5-10.7-0.9L505,661.8l3.8,4.6l23.7-19.4
				C535,645,538.2,644.7,540.8,646z"/>
		</g>
		<g>
			<path class="st2" d="M541.7,647.1L541.7,647.1c-0.4,0.3-1,0.4-1.5,0.2c-2.2-1.1-4.9-0.7-6.8,0.9l-23.7,19.4
				c-0.6,0.5-1.4,0.4-1.9-0.2l-3.8-4.6c-0.5-0.6-0.4-1.4,0.2-1.9l23.7-19.4c3.9-3.2,9.5-2.7,12.6,1c0.8,0.9,1.3,2,1.6,3.2
				C542.3,646.2,542.1,646.7,541.7,647.1z M509,664.5l22.7-18.5c1.9-1.5,4.2-2.2,6.5-2.1c-2.2-2.3-5.9-2.5-8.5-0.4L506.9,662
				L509,664.5z"/>
		</g>
		<g>
			<path class="st0" d="M537.1,643.2c0,0-0.1,0-0.4-0.1c-0.3,0-0.7-0.1-1.2-0.1c-1,0-2.5,0.2-3.9,1c-0.4,0.2-0.7,0.4-1.1,0.7
				c-0.3,0.3-0.7,0.6-1.1,0.9c-0.8,0.7-1.6,1.4-2.4,2.1c-0.8,0.7-1.7,1.5-2.6,2.2c-0.9,0.7-1.8,1.5-2.7,2.3c-3.7,3-7.4,6-10.1,8.2
				c-1.4,1.1-2.5,2-3.4,2.7c-0.8,0.6-1.3,1-1.3,1l-1.2-1.4c0,0,0.5-0.4,1.3-1c0.8-0.7,1.9-1.6,3.3-2.7c2.8-2.3,6.4-5.3,10.1-8.3
				c0.9-0.7,1.8-1.5,2.8-2.2c0.9-0.7,1.8-1.4,2.7-2.1c0.9-0.7,1.7-1.3,2.6-1.9c0.4-0.3,0.8-0.6,1.3-0.9c0.4-0.3,0.9-0.5,1.3-0.7
				c1.8-0.7,3.4-0.6,4.5-0.3c0.5,0.1,0.9,0.3,1.2,0.4C537,643.2,537.1,643.2,537.1,643.2z"/>
		</g>
		<g>
			<path class="st2" d="M575,654.7l-43.7,35.7c-2.2,1.8-5.5,1.5-7.4-0.7l-33-40.4c-1.8-2.2-1.5-5.5,0.7-7.4l43.7-35.7
				c2.2-1.8,5.5-1.5,7.4,0.7l33,40.4C577.6,649.6,577.3,652.9,575,654.7z M494.6,645.4c-0.3,0.2-0.3,0.7-0.1,1l33,40.4
				c0.2,0.3,0.7,0.3,1,0.1l43.7-35.7c0.3-0.2,0.3-0.7,0.1-1l-33-40.4c-0.2-0.3-0.7-0.3-1-0.1L494.6,645.4z"/>
		</g>
		<g>
			<path class="st2" d="M740.9,651.4c-19.2-11.3-35.7-20.2-48.8-26.9c-8.1-4.2-17.8-9-31.5-11.7c-7.9-1.6-17.9-3.4-30.1-0.7
				c-11.8,2.7-20.2,8.4-24.8,12.1c-11.8,9.6-9.6,32.6,12.6,39.2c4.7-3.2,10.3-6.8,13.2-7.8c12.4-4.1,24,2.9,26.9,4.7
				c8.1,4.8,12.3,11.7,18.9,22.4c3.3,5.3,5.9,10.6,7.9,14.9c1.4,3,5.1,3.8,7.7,1.8c16.3-13.1,32.3-26.7,48.6-39.8
				C744.2,657.4,743.9,653.2,740.9,651.4z"/>
		</g>
		<g>
			<path class="st2" d="M701.2,694.4c-2.5,2-5,4-7.4,6c-1.5,1.2-3.5,1.7-5.4,1.2s-3.5-1.7-4.3-3.5c-1.6-3.5-4.3-8.9-7.9-14.8
				c-6.6-10.8-10.6-17.3-18.4-21.9l-0.2-0.1c-9.3-5.5-17.9-7-25.6-4.4c-1.6,0.5-5,2.3-12.9,7.6c-0.3,0.2-0.8,0.3-1.2,0.2
				c-10.9-3.2-18.2-10.6-20.2-20.3c-1.7-8.2,1.1-16.4,7.1-21.3c7.6-6.1,16.2-10.3,25.4-12.3c12.8-2.9,23.2-0.8,30.7,0.7
				c13.3,2.6,22.6,7.1,31.9,11.8c16.2,8.3,32.6,17.3,48.8,26.9c1.8,1.1,3,2.9,3.1,5c0.2,2.1-0.7,4.1-2.3,5.4l0,0
				c-8.1,6.6-16.1,13.1-24.1,19.7C712.6,685.1,706.9,689.8,701.2,694.4z M618,661.9c6.2-4.2,10.6-6.8,13-7.6
				c8.5-2.8,17.8-1.3,27.9,4.7l0.2,0.1c8.4,5,12.8,12.1,19.4,22.9c3.7,6,6.4,11.5,8,15.1c0.5,1,1.4,1.7,2.5,2s2.2,0,3.1-0.7
				c8.2-6.6,16.4-13.4,24.5-20.1c8-6.6,16-13.2,24.1-19.7l0,0c1-0.8,1.4-1.9,1.3-3.1c-0.1-1.2-0.7-2.2-1.8-2.8
				c-16.2-9.5-32.6-18.6-48.7-26.8c-7.2-3.7-17.2-8.8-31.2-11.6c-7.3-1.5-17.3-3.4-29.6-0.7c-8.8,2-17,6-24.3,11.8
				c-5.2,4.3-7.6,11.4-6.1,18.6C602.1,652.4,608.5,658.9,618,661.9z"/>
		</g>
		<g>
			<path class="st0" d="M687.9,696.4c0,0-1.5-2.6-3.8-6.5c-1.1-1.9-2.5-4.2-4-6.6c-1.5-2.4-3.1-4.9-4.7-7.5
				c-0.8-1.3-1.6-2.5-2.4-3.8c-0.8-1.2-1.6-2.4-2.5-3.5c-1.6-2.3-3.3-4.2-4.9-5.8c-0.8-0.8-1.5-1.5-2.2-2.1s-1.3-1.1-1.8-1.5
				c-1.1-0.8-1.7-1.3-1.7-1.3s0.2,0.1,0.5,0.2c0.3,0.2,0.8,0.4,1.4,0.7c0.6,0.3,1.3,0.7,2,1.3c0.8,0.5,1.6,1.1,2.5,1.9
				c0.9,0.7,1.8,1.6,2.7,2.5s1.9,2,2.7,3.1c0.9,1.1,1.8,2.3,2.6,3.5c0.9,1.2,1.7,2.5,2.5,3.8c1.6,2.6,3.2,5.1,4.5,7.6
				c1.4,2.5,2.6,4.9,3.5,6.9c1,2.1,1.7,3.8,2.1,5.1C687.6,695.7,687.9,696.4,687.9,696.4z"/>
		</g>
		<g>
			<path class="st0" d="M621.4,617.5c0,0,0.4-0.2,1.2-0.5s1.9-0.8,3.4-1.3s3.3-1.1,5.5-1.6c2.1-0.5,4.6-1,7.3-1.2s5.7-0.3,8.8-0.1
				s6.4,0.7,9.7,1.3c1.7,0.3,3.4,0.6,5.1,1c1.7,0.4,3.4,0.8,5.2,1.3c3.4,1,6.9,2.2,10.2,3.5c6.7,2.8,13.1,6.2,19,9.4
				c6,3.2,11.5,6.3,16.1,9c4.7,2.7,8.5,5,11.2,6.7c2.7,1.6,4.2,2.6,4.2,2.6s-6.4-3.3-15.9-8.3c-4.8-2.5-10.4-5.4-16.4-8.5
				c-3-1.5-6.1-3.1-9.3-4.7c-3.2-1.6-6.4-3.1-9.7-4.4c-3.3-1.4-6.7-2.5-10-3.5c-1.7-0.5-3.4-0.9-5-1.3c-1.7-0.4-3.4-0.8-5-1.1
				c-3.3-0.7-6.5-1.2-9.5-1.5s-5.9-0.4-8.6-0.2c-2.7,0.1-5.1,0.4-7.3,0.8c-2.2,0.4-4,0.8-5.5,1.2C623,616.9,621.4,617.5,621.4,617.5
				z"/>
		</g>
		<g>
			<g>
				<path class="st0" d="M688.8,631c-6.9-3.6-16.4-8.4-29.6-11c-7.2-1.4-16.1-3.2-27.1-0.7c-6.7,1.5-13,4.3-18.8,8.3
					c-1.2,0.8-1.5,2.5-0.5,3.7l13.6,16.6c0.7,0.8,1.8,1.1,2.8,0.8l0,0c10.2-3.4,21.2-1.6,32.8,5.2l0.2,0.1
					c9.7,5.7,14.6,13.7,21.4,24.9c2.2,3.7,4.1,7.2,5.7,10.2c0.7,1.4,2.6,1.8,3.9,0.8c0.9-0.7,1.8-1.5,2.7-2.2
					c5.7-4.7,11.5-9.4,17.1-14s11.4-9.4,17.1-14.1c0.5-0.4,1.1-0.9,1.6-1.3c1.4-1.1,1.2-3.3-0.3-4.2C717,646,702.8,638.2,688.8,631z
					"/>
			</g>
		</g>
		<g>
			<g>
				<path class="st0" d="M607.3,626.4c0,0-0.1,0.1-0.3,0.3s-0.5,0.5-0.8,1c-0.2,0.2-0.4,0.4-0.5,0.7c-0.2,0.3-0.4,0.5-0.6,0.9
					c-0.2,0.3-0.4,0.7-0.6,1c-0.2,0.4-0.4,0.8-0.6,1.2c-0.4,0.8-0.7,1.8-0.9,2.8c-0.3,1-0.4,2.1-0.5,3.2c-0.1,1.1-0.1,2.3,0,3.4
					c0,0.6,0.2,1.2,0.2,1.7c0.1,0.6,0.3,1.2,0.5,1.8c0.3,1.1,0.8,2.2,1.3,3.3s1.1,2,1.8,2.9s1.4,1.7,2.1,2.5c0.7,0.7,1.5,1.4,2.2,2
					s1.4,1.1,2,1.5s1.2,0.8,1.6,1.1c0.9,0.6,1.5,0.9,1.5,0.9s-0.1,0-0.4-0.1c-0.3-0.1-0.7-0.2-1.2-0.4s-1.1-0.4-1.8-0.8
					c-0.7-0.3-1.5-0.7-2.3-1.2s-1.7-1.1-2.5-1.8c-0.9-0.7-1.7-1.5-2.5-2.5c-0.7-1-1.5-2-2.1-3.1s-1.1-2.3-1.5-3.6
					c-0.2-0.7-0.3-1.2-0.4-1.9c-0.1-0.7-0.2-1.3-0.2-2c-0.1-1.3-0.1-2.6,0.1-3.8c0.2-1.2,0.4-2.4,0.8-3.4c0.3-1.1,0.8-2,1.3-2.8
					s1-1.6,1.5-2.1c0.2-0.3,0.5-0.6,0.7-0.8s0.5-0.5,0.7-0.6c0.4-0.4,0.8-0.6,1-0.8C607.2,626.5,607.3,626.4,607.3,626.4z"/>
			</g>
		</g>
		<g>
			<path class="st0" d="M614.4,641.3c1,1.2,0.8,3.1-0.4,4.1s-3.1,0.8-4.1-0.4s-0.8-3.1,0.4-4.1C611.6,639.9,613.4,640.1,614.4,641.3
				z"/>
		</g>
		<g>
			<path class="st2" d="M694.7,678.7c1,1.2,0.8,3.1-0.4,4.1s-3.1,0.8-4.1-0.4s-0.8-3.1,0.4-4.1C691.9,677.2,693.7,677.4,694.7,678.7
				z"/>
		</g>
		<g>
			<path class="st2" d="M724.3,654.5c1,1.2,0.8,3.1-0.4,4.1s-3.1,0.8-4.1-0.4s-0.8-3.1,0.4-4.1S723.3,653.3,724.3,654.5z"/>
		</g>
		<g>
			<path class="st0" d="M590.5,650.7c1.5,1.9,1.3,4.7-0.6,6.2c-1.9,1.5-4.7,1.3-6.2-0.6c-1.5-1.9-1.3-4.7,0.6-6.2
				C586.2,648.5,589,648.8,590.5,650.7z"/>
		</g>
		<g>
			<path class="st0" d="M562.7,673.1c1.1,1.4,0.9,3.4-0.5,4.5s-3.4,0.9-4.5-0.5s-0.9-3.4,0.5-4.5
				C559.6,671.5,561.6,671.7,562.7,673.1z"/>
		</g>
		<g>
			<path class="st0" d="M548.5,599.3c0,0,0.6-0.1,1.8-0.1c1.1,0,2.7,0,4.6-0.1c1.9-0.1,4.1-0.2,6.1-1.1c0.5-0.2,1-0.5,1.4-0.9
				c0.2-0.1,0.4-0.4,0.7-0.6c0.2-0.2,0.4-0.4,0.6-0.6c0.8-0.8,1.5-1.8,2.1-2.9c0.6-1,1.1-2.2,1.6-3.3c0.4-1.1,0.8-2.3,1.1-3.4
				c0.6-2.3,1-4.5,1.4-6.4s0.7-3.5,1.1-4.6c0.2-0.5,0.4-0.9,0.6-1.2c0.2-0.3,0.3-0.4,0.3-0.4s-0.1,0.1-0.2,0.4
				c-0.1,0.3-0.2,0.7-0.3,1.3c-0.2,1.1-0.3,2.7-0.4,4.6c-0.1,1.9-0.4,4.2-0.8,6.6c-0.3,1.2-0.5,2.4-1,3.7c-0.4,1.2-1,2.5-1.6,3.6
				c-0.7,1.2-1.5,2.2-2.4,3.2c-0.2,0.2-0.5,0.5-0.7,0.7c-0.3,0.2-0.4,0.4-0.8,0.6c-0.6,0.4-1.2,0.7-1.8,1c-1.2,0.5-2.5,0.7-3.6,0.8
				s-2.2,0-3.2-0.1c-1.9-0.2-3.5-0.5-4.6-0.6C549.2,599.4,548.5,599.3,548.5,599.3z"/>
		</g>
		<g>
			<path class="st0" d="M575,608.5c0,0,0.2,0.1,0.7,0.2c0.4,0.2,1,0.5,1.6,0.9s1.4,0.9,2.1,1.6c0.7,0.6,1.4,1.3,2.1,2.1
				c1.3,1.5,2.4,3.3,3.1,4.6c0.7,1.4,0.9,2.4,0.9,2.4s-0.2-0.2-0.5-0.5s-0.8-0.8-1.3-1.3c-0.3-0.3-0.5-0.6-0.8-0.9
				c-0.3-0.3-0.6-0.6-0.9-1c-0.6-0.7-1.3-1.4-1.9-2.2c-0.6-0.7-1.3-1.5-1.9-2.2c-0.6-0.7-1.2-1.4-1.6-1.9
				C575.7,609.3,575,608.5,575,608.5z"/>
		</g>
		<g>
			<g>
				<path class="st0" d="M355,753.5c0,0-0.1-0.2-0.4-0.6c-0.1-0.2-0.2-0.5-0.3-0.8c-0.1-0.3-0.2-0.7-0.3-1.1
					c-0.1-0.4-0.1-0.8-0.2-1.3c0-0.5,0-1,0-1.5c0.1-0.5,0.1-1,0.3-1.6c0.1-0.5,0.3-1,0.5-1.5s0.5-1,0.7-1.5c0.3-0.5,0.6-0.9,0.9-1.3
					c0.3-0.4,0.7-0.8,1-1.1s0.7-0.6,1-0.8s0.6-0.4,0.9-0.6c0.3-0.2,0.5-0.3,0.8-0.3c0.4-0.2,0.7-0.2,0.7-0.2s-0.2,0.2-0.5,0.5
					s-0.7,0.8-1.2,1.4c-0.2,0.3-0.5,0.6-0.7,1c-0.3,0.3-0.5,0.7-0.7,1.1c-0.4,0.8-0.9,1.6-1.3,2.5c-0.2,0.4-0.4,0.9-0.5,1.3
					c-0.1,0.2-0.1,0.4-0.2,0.7c-0.1,0.2-0.1,0.4-0.2,0.7c-0.1,0.4-0.2,0.9-0.3,1.3c0,0.4-0.1,0.8-0.1,1.2s-0.1,0.7-0.1,1
					s0,0.6,0,0.8C355,753.2,355,753.5,355,753.5z"/>
			</g>
		</g>
		<g>
			<g>
				
					<rect x="394.4" y="749.9" transform="matrix(0.7744 -0.6326 0.6326 0.7744 -385.3641 421.4525)" class="st2" width="7.9" height="2.5"/>
			</g>
		</g>
		<g>
			
				<rect x="581.9" y="652.6" transform="matrix(0.1497 -0.9887 0.9887 0.1497 -146.9451 1136.1962)" class="st2" width="10.4" height="1.8"/>
		</g>
		<g>
			<g>
				<path class="st2" d="M624.1,624.2c0,0,0.1,0.9,0.2,2.2c0,0.7,0,1.4,0,2.2s-0.1,1.7-0.2,2.5c-0.1,0.9-0.2,1.7-0.3,2.5
					s-0.3,1.6-0.4,2.2c-0.3,1.3-0.6,2.1-0.6,2.1s-0.1-0.9-0.2-2.2c0-0.7,0-1.4,0-2.2s0.1-1.7,0.2-2.5c0.1-0.9,0.2-1.7,0.3-2.5
					s0.3-1.6,0.4-2.2C623.8,625.1,624.1,624.2,624.1,624.2z"/>
			</g>
		</g>
		<g>
			<g>
				<path class="st2" d="M631.5,622.3c0,0,0.1,1.5,0,3.6c0,1.1-0.1,2.4-0.2,3.7c-0.1,1.4-0.3,2.8-0.4,4.2c-0.2,1.4-0.4,2.9-0.6,4.2
					c-0.2,1.3-0.4,2.6-0.6,3.7c-0.4,2.1-0.8,3.6-0.8,3.6s-0.1-1.5,0-3.6c0-1.1,0.1-2.4,0.2-3.7c0.1-1.4,0.3-2.8,0.4-4.2
					c0.2-1.4,0.4-2.9,0.6-4.2c0.2-1.3,0.4-2.6,0.6-3.7C631.1,623.7,631.5,622.3,631.5,622.3z"/>
			</g>
		</g>
		<g>
			<g>
				<path class="st2" d="M639,620.4c0,0,0,1.5-0.1,3.8c0,1.1-0.1,2.4-0.3,3.8c-0.1,1.4-0.3,2.9-0.4,4.4c-0.2,1.5-0.4,3-0.6,4.4
					c-0.2,1.4-0.4,2.7-0.7,3.8c-0.4,2.2-0.8,3.7-0.8,3.7s0-1.5,0.1-3.8c0-1.1,0.1-2.4,0.3-3.8c0.1-1.4,0.3-2.9,0.4-4.4
					c0.2-1.5,0.4-3,0.6-4.4c0.2-1.4,0.4-2.7,0.7-3.8C638.6,621.8,639,620.4,639,620.4z"/>
			</g>
		</g>
		<g>
			<g>
				<path class="st2" d="M645.5,620.6c0,0,0,1.5-0.1,3.6c0,1.1-0.1,2.3-0.2,3.7c-0.1,1.3-0.3,2.8-0.4,4.2c-0.2,1.4-0.4,2.9-0.6,4.2
					c-0.2,1.3-0.4,2.6-0.7,3.6c-0.4,2.1-0.8,3.5-0.8,3.5s-0.1-1.5,0.1-3.6c0-1.1,0.1-2.3,0.2-3.7c0.1-1.4,0.3-2.8,0.4-4.2
					c0.2-1.4,0.4-2.9,0.6-4.2c0.2-1.3,0.4-2.6,0.7-3.6C645.1,622,645.5,620.6,645.5,620.6z"/>
			</g>
		</g>
		<g>
			<g>
				<path class="st2" d="M652.6,620.5c0,0,0.1,1.5,0,3.8c0,1.2-0.1,2.5-0.2,3.9c-0.1,1.4-0.2,3-0.4,4.5s-0.3,3-0.5,4.5
					c-0.2,1.4-0.4,2.7-0.6,3.9c-0.4,2.3-0.8,3.8-0.8,3.8s-0.1-1.5,0-3.8c0-1.2,0.1-2.5,0.2-3.9c0.1-1.4,0.2-3,0.4-4.5s0.3-3,0.6-4.5
					c0.2-1.4,0.4-2.7,0.6-3.9C652.2,622,652.6,620.5,652.6,620.5z"/>
			</g>
		</g>
		<g>
			<g>
				<path class="st2" d="M659.2,622.2c0,0,0.1,1.6,0,4.1c0,1.2-0.1,2.7-0.2,4.2c-0.1,1.5-0.2,3.2-0.4,4.8s-0.4,3.2-0.6,4.8
					c-0.2,1.5-0.4,2.9-0.6,4.1c-0.4,2.4-0.8,4-0.8,4s-0.1-1.6,0-4.1c0-1.2,0.1-2.7,0.2-4.2c0.1-1.5,0.3-3.2,0.4-4.8
					c0.2-1.6,0.4-3.2,0.6-4.8c0.2-1.5,0.4-2.9,0.6-4.1C658.8,623.8,659.2,622.2,659.2,622.2z"/>
			</g>
		</g>
		<g>
			<g>
				<path class="st2" d="M666.1,624.8c0,0,0,1.7-0.1,4.2c0,1.2-0.1,2.7-0.3,4.3c-0.1,1.6-0.3,3.2-0.4,4.9c-0.2,1.7-0.4,3.3-0.6,4.8
					c-0.2,1.5-0.4,3-0.7,4.2c-0.4,2.5-0.8,4.1-0.8,4.1s0-1.7,0.1-4.2c0-1.2,0.1-2.7,0.3-4.3c0.1-1.6,0.3-3.2,0.4-4.9
					c0.2-1.7,0.4-3.3,0.6-4.8c0.2-1.5,0.4-3,0.7-4.2C665.7,626.4,666.1,624.8,666.1,624.8z"/>
			</g>
		</g>
		<g>
			<g>
				<path class="st2" d="M671.9,626c0,0,0,1.9-0.2,4.6c-0.1,1.4-0.2,3-0.4,4.7c-0.1,1.7-0.4,3.5-0.5,5.4c-0.2,1.8-0.4,3.6-0.7,5.4
					c-0.2,1.7-0.5,3.3-0.7,4.7c-0.4,2.7-0.8,4.5-0.8,4.5s-0.1-1.9,0-4.6c0-1.4,0.1-3,0.3-4.7c0.1-0.9,0.1-1.8,0.2-2.7
					c0.1-0.9,0.2-1.8,0.3-2.7c0.2-1.8,0.4-3.7,0.7-5.4s0.5-3.3,0.8-4.7C671.4,627.7,671.9,626,671.9,626z"/>
			</g>
		</g>
		<g>
			<g>
				<path class="st2" d="M679.8,629.2c0,0,0,0.5,0,1.4c-0.1,0.9-0.1,2.2-0.2,3.8c-0.1,1.5-0.3,3.4-0.5,5.3c-0.2,1.9-0.4,4-0.7,6
					c-0.3,2.1-0.5,4.1-0.8,6s-0.6,3.7-0.9,5.2c-0.3,1.5-0.6,2.8-0.7,3.7c-0.2,0.9-0.3,1.4-0.3,1.4s0-0.5,0-1.4
					c0.1-0.9,0.1-2.2,0.2-3.8c0.1-1.5,0.3-3.4,0.5-5.3c0.2-1.9,0.4-4,0.7-6c0.3-2.1,0.5-4.1,0.8-6s0.6-3.7,0.9-5.2
					c0.3-1.5,0.6-2.8,0.7-3.7C679.6,629.7,679.8,629.2,679.8,629.2z"/>
			</g>
		</g>
		<g>
			<g>
				<path class="st2" d="M686.1,632c0,0,0,0.6-0.1,1.6s-0.1,2.5-0.3,4.3c-0.1,1.8-0.3,3.8-0.6,6c-0.2,2.2-0.5,4.6-0.8,6.9
					c-0.3,2.3-0.6,4.7-1,6.9c-0.3,2.2-0.7,4.2-1,6s-0.6,3.2-0.8,4.2s-0.3,1.6-0.3,1.6s0-0.6,0.1-1.6s0.1-2.5,0.3-4.3
					c0.1-1.8,0.3-3.8,0.6-6c0.2-2.2,0.5-4.6,0.8-6.9c0.3-2.3,0.6-4.7,1-6.9c0.3-2.2,0.7-4.2,1-6s0.6-3.2,0.8-4.2
					S686.1,632,686.1,632z"/>
			</g>
		</g>
		<g>
			<g>
				<path class="st2" d="M692.6,635.5c0,0,0,0.7-0.1,1.8c-0.1,1.2-0.1,2.8-0.3,4.8c-0.1,2-0.3,4.3-0.6,6.8c-0.2,2.5-0.5,5.1-0.8,7.8
					c-0.3,2.6-0.6,5.3-1,7.8c-0.3,2.5-0.7,4.8-1,6.8s-0.6,3.6-0.8,4.8c-0.2,1.1-0.3,1.8-0.3,1.8s0-0.7,0.1-1.8
					c0.1-1.2,0.1-2.8,0.3-4.8c0.1-2,0.3-4.3,0.6-6.8c0.2-2.5,0.5-5.1,0.8-7.8c0.3-2.6,0.6-5.3,1-7.8c0.3-2.5,0.7-4.8,1-6.8
					s0.6-3.6,0.8-4.8C692.4,636.2,692.6,635.5,692.6,635.5z"/>
			</g>
		</g>
		<g>
			<g>
				<path class="st2" d="M699.8,638.7c0,0,0,0.6-0.1,1.7c-0.1,1.1-0.1,2.6-0.3,4.4c-0.1,1.8-0.3,4-0.5,6.3s-0.5,4.7-0.8,7.2
					c-0.3,2.4-0.6,4.9-0.9,7.1c-0.3,2.3-0.6,4.4-0.9,6.2c-0.3,1.8-0.6,3.3-0.8,4.4c-0.2,1.1-0.3,1.7-0.3,1.7s0-0.6,0.1-1.7
					c0.1-1.1,0.1-2.6,0.3-4.4c0.1-1.8,0.3-4,0.5-6.3s0.5-4.7,0.8-7.2c0.3-2.4,0.6-4.9,0.9-7.1c0.3-2.3,0.6-4.4,0.9-6.2
					c0.3-1.8,0.6-3.3,0.8-4.4C699.6,639.3,699.8,638.7,699.8,638.7z"/>
			</g>
		</g>
		<g>
			<g>
				<path class="st2" d="M705.8,642.4c0,0,0,0.6,0,1.6s-0.1,2.4-0.2,4.2c-0.1,1.7-0.2,3.7-0.4,5.9c-0.2,2.1-0.4,4.4-0.6,6.7
					c-0.2,2.3-0.5,4.6-0.8,6.7c-0.3,2.1-0.5,4.1-0.8,5.8c-0.2,1.7-0.5,3.1-0.7,4.1S702,679,702,679s0-0.6,0-1.6s0.1-2.4,0.2-4.2
					c0.1-1.7,0.2-3.7,0.4-5.9c0.2-2.1,0.4-4.4,0.6-6.7c0.2-2.3,0.5-4.6,0.8-6.7c0.3-2.1,0.5-4.1,0.8-5.8s0.5-3.1,0.7-4.1
					C705.7,642.9,705.8,642.4,705.8,642.4z"/>
			</g>
		</g>
		<g>
			<g>
				<path class="st2" d="M712.7,646.7c0,0,0.1,1.5,0,3.7c0,1.1-0.1,2.4-0.2,3.7c-0.1,1.4-0.3,2.8-0.4,4.3c-0.2,1.4-0.4,2.9-0.6,4.2
					c-0.2,1.4-0.4,2.6-0.6,3.7c-0.4,2.2-0.8,3.6-0.8,3.6s-0.1-1.5,0-3.7c0-1.1,0.1-2.4,0.2-3.7c0.1-1.4,0.3-2.8,0.4-4.3
					c0.2-1.4,0.4-2.9,0.6-4.2c0.2-1.4,0.4-2.6,0.6-3.7C712.3,648.2,712.7,646.7,712.7,646.7z"/>
			</g>
		</g>
		<g>
			<g>
				<path class="st2" d="M635.8,622.6c0,0,1.8,0,4.4,0.1c1.3,0.1,2.9,0.1,4.5,0.3c1.6,0.1,3.4,0.3,5.1,0.5c1.7,0.2,3.5,0.4,5.1,0.7
					c1.6,0.2,3.1,0.5,4.4,0.7c2.6,0.5,4.3,0.9,4.3,0.9s-1.8,0-4.4-0.1c-1.3-0.1-2.9-0.2-4.5-0.3s-3.4-0.3-5.1-0.5
					c-1.7-0.2-3.5-0.4-5.1-0.7c-1.6-0.2-3.1-0.5-4.4-0.7C637.5,623,635.8,622.6,635.8,622.6z"/>
			</g>
		</g>
		<g>
			<g>
				<path class="st2" d="M620.2,627.7c0,0,1.1,0,3.1,0.1c1,0,2.2,0.1,3.6,0.2c1.4,0.1,3,0.1,4.7,0.3c3.4,0.3,7.4,0.6,11.6,1
					c2.1,0.2,4.3,0.5,6.5,0.7c2.2,0.3,4.5,0.6,6.8,0.8c4.5,0.6,9,1.2,13.3,1.7c2.1,0.3,4.2,0.5,6.1,0.8c1.9,0.2,3.8,0.5,5.5,0.7
					c3.4,0.4,6.2,0.8,8.2,0.9c2,0.2,3.1,0.4,3.1,0.4s-1.1,0-3.1-0.1c-1,0-2.2-0.1-3.6-0.2c-1.4-0.1-3-0.1-4.7-0.3
					c-3.4-0.3-7.4-0.6-11.6-1c-2.1-0.2-4.3-0.5-6.6-0.7c-2.2-0.3-4.5-0.6-6.8-0.8c-4.5-0.6-9-1.2-13.3-1.7c-2.1-0.3-4.2-0.5-6.1-0.8
					c-1.9-0.3-3.8-0.5-5.5-0.7c-3.4-0.4-6.2-0.8-8.2-1C621.4,627.8,620.2,627.7,620.2,627.7z"/>
			</g>
		</g>
		<g>
			<g>
				<path class="st2" d="M619.2,634.4c0,0,1.4,0.1,3.8,0.2c2.4,0.2,5.9,0.3,10.1,0.7c2.1,0.2,4.3,0.4,6.7,0.6
					c2.4,0.2,4.9,0.4,7.5,0.7c5.2,0.5,10.7,1.1,16.3,1.7c5.5,0.6,11.1,1.3,16.3,1.9c2.6,0.3,5.1,0.6,7.5,0.9
					c2.4,0.3,4.6,0.5,6.7,0.7c4.2,0.4,7.6,0.9,10,1.2s3.8,0.5,3.8,0.5s-1.4-0.1-3.8-0.2c-2.4-0.2-5.9-0.4-10.1-0.7
					c-2.1-0.2-4.3-0.3-6.7-0.5s-4.9-0.4-7.5-0.7c-5.2-0.5-10.7-1.1-16.3-1.7C641.3,636.9,619.2,634.4,619.2,634.4z"/>
			</g>
		</g>
		<g>
			<g>
				<path class="st2" d="M648.7,643.9c0,0,1.1,0.1,3,0.2c1.9,0.2,4.7,0.4,8,0.8c3.3,0.4,7.1,0.8,11.2,1.3c4.1,0.5,8.5,1.1,12.8,1.6
					c4.4,0.6,8.7,1.1,12.8,1.6c2.1,0.2,4,0.5,5.9,0.7s3.7,0.4,5.3,0.5c3.3,0.3,6,0.6,8,0.7c1.9,0.2,3,0.2,3,0.2s-1.1,0-3,0
					c-1,0-2.1,0-3.5,0c-1.3,0-2.9-0.1-4.5-0.2c-3.3-0.2-7.2-0.4-11.3-0.8c-2.1-0.2-4.2-0.4-6.4-0.7s-4.4-0.5-6.5-0.8
					c-4.4-0.6-8.7-1.2-12.8-1.8s-7.9-1.2-11.2-1.7s-6-1-7.9-1.3C649.8,644.1,648.7,643.9,648.7,643.9z"/>
			</g>
		</g>
		<g>
			<g>
				<path class="st2" d="M625.7,641.9c0,0,0.9-0.2,2.1-0.2c1.3-0.1,3-0.1,4.7,0s3.4,0.4,4.6,0.6c1.3,0.3,2.1,0.5,2.1,0.5
					s-0.9,0.2-2.1,0.2c-1.3,0.1-3,0.1-4.7,0s-3.4-0.4-4.6-0.6C626.6,642.2,625.7,641.9,625.7,641.9z"/>
			</g>
		</g>
		<g>
			<g>
				<path class="st2" d="M666.4,653.2c0,0,0.8,0,2.2,0.1s3.4,0.1,5.8,0.2c2.4,0.1,5.2,0.3,8.1,0.5c3,0.2,6.1,0.5,9.3,0.8
					c1.6,0.2,3.2,0.3,4.7,0.5c1.6,0.1,3.1,0.3,4.6,0.5c3,0.3,5.7,0.7,8.1,1c2.4,0.3,4.3,0.7,5.7,0.9s2.2,0.4,2.2,0.4s-0.8,0-2.2-0.1
					s-3.4-0.2-5.7-0.4c-2.4-0.2-5.1-0.4-8.1-0.6c-3-0.2-6.1-0.5-9.3-0.8s-6.3-0.6-9.3-0.9c-3-0.3-5.7-0.6-8.1-0.9
					c-2.4-0.3-4.3-0.6-5.7-0.8C667.2,653.3,666.4,653.2,666.4,653.2z"/>
			</g>
		</g>
		<g>
			<g>
				<path class="st2" d="M674.7,661.2c0,0,0.7,0,1.9,0.1s2.9,0.1,5,0.2c2.1,0.1,4.5,0.3,7,0.5c2.6,0.2,5.3,0.4,8.1,0.7
					c2.7,0.3,5.5,0.6,8,0.9c2.6,0.3,5,0.6,7,0.9c2,0.3,3.7,0.6,4.9,0.7c1.2,0.2,1.9,0.3,1.9,0.3s-0.7,0-1.9,0
					c-1.2-0.1-2.9-0.1-5-0.2c-2.1-0.1-4.5-0.3-7-0.5c-2.6-0.2-5.3-0.4-8.1-0.7c-2.7-0.3-5.5-0.6-8-0.9c-2.6-0.3-5-0.6-7-0.9
					c-2-0.3-3.7-0.6-4.9-0.7C675.4,661.3,674.7,661.2,674.7,661.2z"/>
			</g>
		</g>
		<g>
			<g>
				<path class="st2" d="M680.6,668.4c0,0,1.8,0,4.5,0.1c1.3,0.1,2.9,0.1,4.6,0.3c1.7,0.1,3.4,0.3,5.2,0.5s3.5,0.4,5.2,0.6
					c1.7,0.2,3.2,0.5,4.5,0.7c2.6,0.4,4.4,0.9,4.4,0.9s-1.8,0-4.5-0.1c-1.3-0.1-2.9-0.1-4.6-0.3c-1.7-0.1-3.4-0.3-5.2-0.5
					s-3.5-0.4-5.2-0.6c-1.7-0.2-3.2-0.5-4.5-0.7C682.4,668.8,680.6,668.4,680.6,668.4z"/>
			</g>
		</g>
	</g>
	<g>
		<path class="st2" d="M125.1,648.3c16.3-9.6,32.7-18.7,48.9-27c9.4-4.8,18.9-9.3,32.4-12c7.7-1.5,18.4-3.6,31.6-0.6
			c8.7,2,16.9,5.8,24.3,11.3c2.1-1.1,4.4-1.8,6.6-2.2c2.6-0.4,5.3-0.4,8,0.1c1.7-3.6,4-6.9,5.7-8.7c1.4-1.5,2.7-2.6,3.7-3.5
			c2.2-1.8,2.6-2.3,2.7-3c-0.1-0.1-0.1-0.3-0.3-0.5c-0.5-0.9-1.1-2.3-1.6-4.6c-1-4.5-0.3-8.3,0.1-10.8c0.4-2.7,1-4.3,1.4-5.5
			s0.6-1.8,0.6-2.9c0-0.9-0.3-1.9-0.6-3c-0.2-0.5-0.3-1-0.4-1.5c-0.7-2.9,0.6-4.9,2-5.8c2.1-1.3,5-0.9,7.5,1.2
			c0.9,0.8,1.8,1.7,2.5,2.8c1.3,2,1.6,3.6,2,6c0.2,1,0.4,2.3,0.8,3.9c1,4.8,2.5,8.5,3.9,9.9c0.8,0.7,1.5,1.2,2.4,1.7
			c2.2,1.1,4.2,1,6.5,0.9h1.1c1.6,0,3.3,0,4.9,0.1l1.1,0.1c2.6,0.2,5.7,0.4,8.5,1.7c0.1,0.1,0.3,0.1,0.4,0.2
			c1.6,0.8,3.1,1.8,4.4,2.9l21.8,17.8l35.7,29.2c4.6,3.7,4.8,8.4,4,11.5l100.5,82.1l3.7-4.5c0.8-1,2.1-1.5,3.4-1.3
			c1.6,0.3,4.7,1.1,7.6,3.5c1.1,0.9,2.1,1.9,2.9,3.1c4.1,5.9,2.7,12.2,2.1,14c-0.1,0.3-0.2,0.7-0.3,1l6.2,5c2.1,1.7,2.8,4.5,1.8,7
			c-1.4,3.5-3.3,6.7-5.7,9.6c-2.3,2.8-5,5.3-8.1,7.3c-2.2,1.5-5.1,1.3-7.2-0.4l-17.4-14.2c-0.2,0.3-0.4,0.6-0.6,0.8
			c-0.9,1.1-1.9,2.1-3.1,3c-2.2,1.6-5.2,1.6-7.4-0.2l-9.5-7.8c-1.3,0.8-3.1,0.8-4.6,0c-0.5-0.2-0.9-0.5-1.3-0.8l-3.5-2.8
			c-0.4-0.3-0.7-0.7-0.9-1c-1.1-1.4-1.5-3.2-1-4.7l-82.5-67.4l-1.6,1.9c-2,2.4-4.9,3.8-8.1,3.8c-0.4,0-0.8,0-1.2-0.1
			c-1.3-0.1-2.5-0.2-4.8,0.9c-2.5,1.2-6,4.9-8.4,7.4c-1.8,1.9-3,3.2-4.1,3.9c-3.2,2.1-7.3,2.3-10.6,0.4l-63.7-35
			c-1.9-1-3.5-0.6-5.6-0.2c-2.2,0.5-5,1.2-8.1-0.1c-0.2-0.1-0.4-0.2-0.6-0.3l-8.6-5.7c-8-5.5-11.2-6.9-12.4-7.3
			c-7-2.3-15-0.9-24,4.3c-7.4,4.3-11.2,10.7-17.6,21.2c-3.5,5.8-6.2,11.1-7.7,14.6c-1.1,2.4-3.2,4.2-5.8,4.8s-5.3,0-7.4-1.7
			c-2.5-2-5-4-7.4-6.1c-5.7-4.7-11.4-9.4-17.1-14.1c-8-6.6-15.9-13.1-24.1-19.7c-2.2-1.8-3.4-4.5-3.1-7.3
			C121.1,652.3,122.7,649.7,125.1,648.3z"/>
		<g>
			<g>
				<path class="st2" d="M513,757.1c0.5-0.7,1.1-1.9,1.6-3.3c0.2-0.8,1.7-6.2-1.6-10.9c-2.9-4.1-7.3-5-8.2-5.1
					c-2.1,2.5-4.2,5.1-6.2,7.6C503.3,749.3,508.2,753.2,513,757.1z"/>
			</g>
			<g>
				<path class="st2" d="M497.1,745.5c0-0.4,0.1-0.7,0.3-1l6.2-7.6c0.3-0.4,0.8-0.6,1.3-0.5c1.4,0.2,4.1,0.9,6.6,3
					c0.9,0.8,1.8,1.7,2.5,2.7c3.5,5,2.3,10.5,1.8,12.1c-0.4,1.3-1,2.5-1.7,3.7c-0.2,0.3-0.6,0.5-0.9,0.6c-0.4,0.1-0.8,0-1.1-0.3
					l-14.5-11.8l0,0C497.4,746.2,497.2,745.8,497.1,745.5z M513.2,753.4c0.4-1.3,1.4-5.7-1.5-9.8c-0.6-0.8-1.2-1.5-2-2.1
					c-1.7-1.4-3.4-2-4.6-2.3l-4.8,5.9l12.2,9.9C512.9,754.5,513.1,753.9,513.2,753.4z"/>
			</g>
		</g>
		<g>
			<path class="st0" d="M370.4,670.1l136.5,111.5c0.9,0.7,2,0.8,3,0.2c2.1-1.4,4.8-3.5,7.3-6.6c2.6-3.2,4.2-6.3,5.2-8.7
				c0.4-1,0.1-2.2-0.7-2.9L385,652.1L370.4,670.1z"/>
		</g>
		<g>
			<path class="st2" d="M369.3,669.2l14.7-18c0.5-0.6,1.3-0.7,1.9-0.2l136.5,111.5c1.3,1.1,1.8,2.9,1.1,4.4c-1.3,3.3-3.1,6.3-5.4,9
				c-2.2,2.6-4.7,4.9-7.6,6.8c-1.4,0.9-3.3,0.8-4.6-0.2L369.5,671.1C368.9,670.7,368.8,669.8,369.3,669.2z M385.2,654l-13,15.9
				l135.5,110.6c0.4,0.3,0.9,0.3,1.3,0.1c2.6-1.7,5-3.9,7-6.3c2.1-2.5,3.7-5.3,5-8.3c0.2-0.5,0.1-1-0.3-1.3L385.2,654z"/>
		</g>
		<g>
			<path class="st2" d="M515.9,774.3c1.6-1.1,3.4-2.6,5.3-4.5c-0.8,1.3-1.8,2.6-2.9,3.9c-2.9,3.5-5.9,6.1-8.3,7.8
				c-1,0.7-2.3,0.8-3.1,0.1L370.4,670.1l5.9-7.2l136.5,111.5C513.6,775.1,514.8,775.1,515.9,774.3z"/>
		</g>
		<g>
			<path class="st2" d="M368.7,681.5L478.3,771c0.8,0.7,2.1,0.7,2.9,0.1c0.8-0.6,1.6-1.3,2.4-2.4c0.7-0.9,1.2-1.7,1.5-2.5
				c0.5-1,0.2-2.2-0.6-2.9l-109.6-89.6L368.7,681.5z"/>
		</g>
		<g>
			<path class="st2" d="M367.6,680.6l6.2-7.6c0.5-0.6,1.3-0.7,1.9-0.2l109.6,89.6c1.3,1.1,1.8,3,1,4.5c-0.5,1-1,1.9-1.7,2.7
				c-0.8,1-1.7,1.9-2.7,2.6c-1.4,1-3.3,1-4.6-0.1l-109.6-89.6C367.2,682,367.2,681.2,367.6,680.6z M375.1,675.7l-4.5,5.5L479.2,770
				c0.4,0.3,0.9,0.3,1.3,0c0.8-0.6,1.5-1.3,2.2-2.1c0.5-0.7,1-1.4,1.4-2.2c0.2-0.4,0.1-0.9-0.3-1.2L375.1,675.7z"/>
		</g>
		<g>
			<path class="st0" d="M379.9,676.7l127.9,104.5c0.4,0.3,1,0.3,1.3-0.1c0.3-0.4,0.3-1-0.1-1.3L381,675.3c-0.4-0.3-1-0.3-1.3,0.1
				C379.4,675.8,379.5,676.3,379.9,676.7z"/>
		</g>
		<g>
			<g>
				<path class="st2" d="M246.3,676.7l1.5-2.8c2.4-4.4,6.5-7.6,11.3-9c4.9-1.4,10-0.8,14.4,1.6l12.4,6.9c1,0.5,1.9,1.2,2.8,1.9
					c7.1,5.8,9,15.8,4.6,23.8l-1.5,2.8c-2.4,4.4-6.5,7.6-11.3,9c-4.9,1.4-10,0.8-14.4-1.6l-12.4-6.9c-1-0.5-1.9-1.2-2.8-1.9
					C243.7,694.8,241.8,684.7,246.3,676.7z M283.7,677.5l-12.4-6.9c-3.3-1.9-7.2-2.3-10.9-1.2c-3.7,1.1-6.7,3.5-8.6,6.8l-1.5,2.8
					c-3.4,6.1-1.9,13.7,3.5,18.1c0.7,0.5,1.4,1,2.1,1.4l12.4,6.9c3.3,1.9,7.2,2.3,10.9,1.2c3.7-1.1,6.7-3.5,8.6-6.8l1.5-2.8
					c3.4-6.1,1.9-13.7-3.5-18.1C285.1,678.4,284.4,678,283.7,677.5z"/>
			</g>
		</g>
		<g>
			<g>
				<path class="st2" d="M292.2,696c4.5-8.6,18.2-6.3,18.2-6.3L286,676.3C286.1,676.3,297.6,685.6,292.2,696z"/>
			</g>
			<g>
				<path class="st2" d="M290.2,694.9c4.4-8.5-5.2-16.5-5.6-16.9c-0.9-0.7-1.1-2.1-0.4-3c0.7-1,2-1.3,3-0.7l24.4,13.4
					c1,0.5,1.4,1.7,1,2.7s-1.4,1.7-2.5,1.5c-0.1,0-12.1-2-15.8,5.1c-0.6,1.1-2,1.5-3.1,1c-0.1-0.1-0.3-0.2-0.4-0.3
					C290,697.1,289.7,695.9,290.2,694.9z M294.3,683.4c0.8,1.8,1.4,3.9,1.5,5.9c1.9-1,3.9-1.6,5.9-1.9L294.3,683.4z"/>
			</g>
		</g>
		<g>
			<g>
				<path class="st2" d="M248.3,677.9c4.5-8.6,18.6-10.4,18.6-10.4l-24-9.5C242.8,657.9,253.6,667.5,248.3,677.9z"/>
			</g>
			<g>
				<path class="st2" d="M246.2,676.8c4.4-8.6-4.5-16.8-4.9-17.2c-0.8-0.7-1-2-0.4-2.9s1.7-1.3,2.8-0.9l24,9.5
					c1,0.4,1.5,1.4,1.4,2.4s-0.9,1.8-2,2c-0.1,0-12.9,1.7-16.9,9.2c-0.6,1.1-2,1.5-3.1,1c-0.1-0.1-0.3-0.2-0.4-0.3
					C246,679,245.7,677.8,246.2,676.8z M249.6,663.1c1.2,2.2,2.1,4.7,2.3,7.5c2.4-1.6,5-2.8,7.4-3.6L249.6,663.1z"/>
			</g>
		</g>
		<g>
			<g>
				<g>
					<path class="st2" d="M273.4,668.8c-4,4.5-8.8,8.8-10,14.9c-0.7,3.2-0.6,6.6-0.3,9.8c0.1,0.8,0.1,2.9,1.5,2.3
						c0.9-0.4,0.9-2.4,1.1-3.2c0.7-3.1,1.7-6,3.3-8.7v0.1c0.1-0.3,0.5-0.6,0.7-0.8c0.5-0.5,1-0.9,1.5-1.4c1.1-0.9,2.3-1.6,3.5-2.3
						c1.9-1.1,3.9-2.1,5.7-3.5c3.6-2.7,2.8-8.5-1.2-9.5C276.9,666,274.9,667.1,273.4,668.8z"/>
				</g>
			</g>
		</g>
		<g>
			<path class="st2" d="M297.3,574c1.3,2.1,1.1,3.3,2.3,8.7c1.8,8.5,4.2,11,5,11.7c1.3,1.2,2.6,2,3.4,2.4c3.4,1.7,6.4,1.3,9.2,1.2
				c1.3,0,2.8,0,4.6,0.1c2.8,0.2,6.1,0.3,8.6,1.6c-6.6-2.1-12.8,3.4-16.5,7.8l-8.9,12.2l-19.2,5.9c0,0-2.6-1.9-6.6-3.5
				c1.4-3.9,4.3-8.5,6.2-10.5c3.7-3.9,6.9-5.1,7.4-8.6c0.3-2.1-1.1-2.3-1.9-6.3c-0.8-3.8-0.3-7.1,0.1-9.5c0.8-5,2.1-5.7,2.1-9.1
				c0-2-0.8-3.8-1.2-5.3C291.1,569.9,294.9,570.2,297.3,574z"/>
		</g>
		<g>
			<path class="st2" d="M277.8,621.7c1.4-4.1,4.4-8.8,6.5-11c1.3-1.4,2.5-2.4,3.6-3.3c2.2-1.8,3.2-2.8,3.5-4.5
				c0.1-0.7,0-0.9-0.5-1.7c-0.4-0.8-1-2-1.5-4.1c-0.9-4.1-0.3-7.5,0.1-10s0.9-4,1.4-5.2c0.5-1.3,0.7-2.1,0.7-3.7
				c0-1.3-0.4-2.4-0.7-3.6c-0.2-0.5-0.3-1-0.4-1.5c-0.5-2.1,0.6-3.1,1-3.4c1.3-0.8,3.1-0.4,4.9,1c0.8,0.6,1.4,1.4,2,2.3
				c1.1,1.7,1.3,2.9,1.7,5.2c0.2,1,0.4,2.3,0.8,4c1.2,5.4,2.8,9.3,4.6,11c1,0.9,1.9,1.6,3,2.1c2.7,1.3,5.1,1.2,7.5,1.1
				c0.3,0,0.7,0,1,0c1.5,0,3.1,0,4.7,0.1l1.1,0.1c2.6,0.2,5.6,0.4,8.1,1.7c0.6,0.3,0.9,1.1,0.6,1.7c-0.3,0.7-1,1-1.7,0.8
				c-6.2-2-12.1,3.8-15,7.3l-8.9,12.2c-0.2,0.2-0.4,0.4-0.7,0.5l-19.2,5.9c-0.4,0.1-0.8,0.1-1.2-0.2c0,0-2.5-1.8-6.3-3.3
				c-0.1-0.1-0.3-0.1-0.4-0.2C277.8,622.9,277.6,622.3,277.8,621.7z M304.1,618.6l8.6-11.9c1.9-2.3,4.9-5.4,8.5-7.3
				c-1.4-0.1-2.7-0.1-4.1-0.1c-0.3,0-0.7,0-1,0c-2.6,0.1-5.5,0.2-8.8-1.4c-1-0.5-2-1.1-2.8-1.8c-0.3-0.2-0.6-0.5-0.9-0.8
				c-2.2-2.2-4-6.3-5.3-12.4c-0.4-1.7-0.6-3-0.8-4.1c-0.4-2.2-0.5-3-1.3-4.2c-0.4-0.7-0.9-1.2-1.5-1.7c-0.8-0.6-1.3-0.8-1.6-0.8
				c0,0.1,0,0.2,0.1,0.4c0.1,0.4,0.2,0.9,0.4,1.3c0.4,1.3,0.8,2.7,0.8,4.3c0,2-0.4,3.2-0.9,4.6c-0.4,1.2-0.9,2.5-1.2,4.7
				c-0.4,2.4-0.9,5.4-0.1,9c0.4,1.7,0.8,2.7,1.2,3.4c0.5,0.9,0.9,1.8,0.7,3.3c-0.4,2.8-2.2,4.4-4.4,6.2c-1,0.9-2.2,1.8-3.4,3.1
				c-1.7,1.7-4.1,5.4-5.5,8.8c2.4,1.1,4.2,2.2,5.1,2.7L304.1,618.6z"/>
		</g>
		<g>
			<path class="st0" d="M375,681.1l105.9,86.5c0.4,0.3,1,0.3,1.3-0.1c0.3-0.4,0.3-1-0.1-1.3l-105.9-86.5c-0.4-0.3-1-0.3-1.3,0.1
				C374.6,680.2,374.6,680.8,375,681.1z"/>
		</g>
		<g>
			<path class="st0" d="M294.2,630.4l19.6-22.8c3.7-4.5,9.9-10,16.5-7.8c1.3,0.7,2.6,1.5,3.8,2.5c26.3,21.5,49.8,40.7,57.5,47
				c5,4.1,2.3,8.9,2.3,8.9l-25.3,31c-1.3,1.6-3.2,2.4-5.3,2.4c-1.6,0-3.7-0.6-7.5,1.2c-4.7,2.2-10.9,10.1-12.9,11.5
				c-2.1,1.4-4.7,1.5-6.9,0.3l-63.8-35c-5.7-3-9.4,1.5-13.9-0.4l-8.6-5.7c22.2-6.6,24.4-29.6,12.6-39.2c1.4-0.9,4-2.3,7.5-2.9
				c4.3-0.7,7.8,0.3,9.5,0.9c4,1.6,6.6,3.5,6.6,3.5L294.2,630.4z"/>
		</g>
		<g>
			<path class="st2" d="M248.2,663.2c0.1-0.5,0.5-1,1-1.1c9.9-2.9,16.5-9.5,18.3-18.2c1.5-7.2-0.9-14.4-6.1-18.6
				c-0.3-0.3-0.5-0.7-0.5-1.1c0-0.4,0.3-0.8,0.6-1.1c2.4-1.6,5.2-2.7,8-3.1c4.3-0.7,7.9,0.1,10.2,1c3.8,1.5,6.4,3.3,6.8,3.6l7.4,4.1
				l18.8-21.9c3.4-4.2,10.3-10.8,18-8.3c0.1,0,0.1,0.1,0.2,0.1c1.5,0.7,2.8,1.6,4,2.6c19.5,15.9,37.5,30.6,48.6,39.7l8.9,7.3
				c4.6,3.8,3.7,8.6,2.6,10.7c0,0.1-0.1,0.1-0.1,0.2l-25.3,31c-1.5,1.9-3.8,2.9-6.3,2.9c-0.3,0-0.7,0-1,0c-1.5-0.1-3.1-0.2-5.9,1.1
				s-6.4,5.1-9.1,7.9c-1.6,1.7-2.8,3-3.7,3.5c-2.5,1.6-5.7,1.8-8.3,0.3l-63.8-35c-2.7-1.4-4.8-0.9-7.1-0.3c-2.1,0.5-4.3,1-6.7,0
				c-0.1,0-0.2-0.1-0.2-0.1l-8.6-5.7l-0.1-0.1C248.3,664.2,248.1,663.7,248.2,663.2z M263.7,667.7c2.5-0.6,5.4-1.3,9,0.6l63.8,35
				c1.7,1,3.9,0.9,5.5-0.2c0.6-0.4,1.9-1.7,3.2-3.1c2.9-3.1,6.6-6.9,9.9-8.5c3.4-1.6,5.6-1.5,7.3-1.4c0.3,0,0.6,0,0.9,0
				c1.7,0,3.2-0.7,4.2-1.9l25.2-30.9c0.3-0.6,1.7-4.1-2-7.1l-8.9-7.3c-11.1-9.1-29.1-23.8-48.6-39.7c-1-0.9-2.2-1.6-3.4-2.3
				c-6.1-1.9-12,3.8-14.9,7.5l-19.6,22.8c-0.4,0.5-1.1,0.6-1.7,0.3l-8.5-4.7l-0.1-0.1c0,0-2.6-1.8-6.3-3.3c-2-0.7-5.1-1.4-8.8-0.8
				c-1.9,0.3-3.7,0.9-5.4,1.8c5,5,7.2,12.5,5.6,20c-1.8,8.8-8.1,15.8-17.5,19.3l6.1,4C260.3,668.5,261.9,668.1,263.7,667.7z"/>
		</g>
		<g>
			<path class="st2" d="M262.2,624.2c1.4-0.9,4-2.3,7.5-2.9c4.3-0.7,7.8,0.3,9.5,0.9c4,1.6,6.6,3.5,6.6,3.5l8.5,4.7l9.3-10.9l8.6,7
				L294,648.8c-1,1.3-0.8,3.1,0.4,4.2l43.7,35.7c1.3,1,3.1,0.8,4.2-0.4l18.2-22.3l16.3,13.3l-8.1,9.9c-1.3,1.6-3.2,2.4-5.3,2.4
				c-1.6,0-3.7-0.6-7.5,1.2c-4.7,2.2-10.9,10.1-12.9,11.5c-2.1,1.4-4.7,1.5-6.9,0.3l-63.8-35c-5.7-3-9.4,1.5-13.9-0.4l-8.6-5.7
				C271.8,656.8,273.9,633.8,262.2,624.2z"/>
		</g>
		<g>
			
				<rect x="374.9" y="650.1" transform="matrix(0.6326 -0.7744 0.7744 0.6326 -372.7122 535.5749)" class="st2" width="6.5" height="21.1"/>
		</g>
		<g>
			
				<rect x="372.5" y="655.4" transform="matrix(0.6326 -0.7745 0.7745 0.6326 -378.4542 534.1166)" class="st2" width="2.5" height="21.1"/>
		</g>
		<g>
			
				<rect x="359.5" y="593.7" transform="matrix(0.6326 -0.7745 0.7745 0.6326 -356.2759 511.8492)" class="st2" width="3.6" height="75.5"/>
		</g>
		<g>
			
				<rect x="356.3" y="674.1" transform="matrix(0.6326 -0.7744 0.7744 0.6326 -397.2953 527.8815)" class="st0" width="3" height="17.2"/>
		</g>
		<g>
			<path class="st0" d="M254.9,662.8c8.2-3.8,13.6-10.3,15.2-18.4c1.4-6.9-0.2-13.7-4.4-18.7l-1.2-1.5l1.8-0.7
				c1.2-0.5,2.4-0.8,3.6-1c3.7-0.6,6.8,0.1,8.8,0.8c3.8,1.5,6.3,3.3,6.3,3.3l9.6,5.3l20.3-23.7c2.3-2.9,8.5-9.3,14.8-7.5l0.3,0.1
				c1.2,0.6,2.3,1.4,3.3,2.2c19.1,15.6,36.8,30.1,48,39.2l9.5,7.8c3.4,2.8,2.5,6,2.1,6.9l-0.1,0.2L367.6,688c-1,1.2-2.5,1.9-4.2,1.9
				c-0.2,0-0.5,0-0.9,0c-1.6-0.1-3.8-0.2-7.3,1.4c-3.3,1.6-7,5.4-9.9,8.5c-1.6,1.7-2.7,2.8-3.2,3.1c-1.7,1.1-3.8,1.2-5.5,0.2
				L272.8,668c-3.6-1.9-6.6-1.2-9-0.6c-1.7,0.4-3.2,0.8-4.8,0.2l-6.2-4.1L254.9,662.8z M263.1,665c2.5-0.6,6.4-1.5,10.9,0.8
				l63.8,35.1c0.9,0.5,1.9,0.4,2.7-0.1c0.4-0.3,1.9-1.9,2.8-2.8c3.1-3.2,6.9-7.3,10.7-9c4.1-1.9,6.9-1.7,8.6-1.6h0.1
				c0.2,0,0.4,0,0.6,0c0.9,0,1.6-0.3,2.1-0.9l25-30.6c0.3-0.8,0.4-2.2-1.3-3.6l-9.5-7.8c-11.2-9.1-28.8-23.6-48-39.2
				c-0.8-0.7-1.8-1.3-2.7-1.8c-4.9-1.3-10.2,4.7-11.8,6.6l-21.8,25.4l-11.5-6.4l-0.2-0.2c0,0-2.3-1.6-5.7-3
				c-1.7-0.6-4.3-1.2-7.4-0.7c-0.4,0.1-0.9,0.2-1.3,0.3c3.8,5.4,5.2,12.4,3.8,19.4c-1.6,8.2-6.8,14.9-14.6,19.2l1.7,1.1
				C260.6,665.6,261.5,665.4,263.1,665z"/>
		</g>
		<g>
			<path class="st0" d="M327.8,608.2l-34,41.6c-10.3-8.4-11-24.5-1.6-36C301.6,602.3,317.6,599.8,327.8,608.2z"/>
		</g>
		<g>
			<path class="st2" d="M291.2,612.9c9.8-12.1,26.7-14.7,37.5-5.8c0.6,0.5,0.7,1.3,0.2,1.9l-34,41.6c-0.5,0.6-1.3,0.7-1.9,0.2
				C282.1,642,281.3,625,291.2,612.9z M293.3,614.7c-8.6,10.5-8.3,25.1,0.4,33.2l32.2-39.4C316.2,601.5,301.9,604.2,293.3,614.7z"/>
		</g>
		<g>
			<path class="st2" d="M324.8,611.8c0,0-0.4-0.2-1-0.7c-0.2-0.1-0.3-0.2-0.5-0.3s-0.4-0.3-0.7-0.4c-0.5-0.3-1.1-0.6-1.7-0.9
				c-0.6-0.3-1.3-0.6-2-0.8c-0.7-0.3-1.5-0.4-2.3-0.6c-0.4-0.1-0.8-0.1-1.3-0.2c-0.4-0.1-0.9-0.1-1.3-0.1s-0.9,0-1.3-0.1l-1.3,0.1
				c-0.4,0-0.9,0.1-1.3,0.2c-0.4,0.1-0.9,0.1-1.3,0.2c-0.4,0.1-0.8,0.2-1.2,0.3c-0.4,0.1-0.8,0.3-1.2,0.4c-0.4,0.1-0.7,0.3-1.1,0.5
				s-0.7,0.3-1,0.5c-0.6,0.4-1.2,0.7-1.7,1.2c-0.3,0.2-0.5,0.4-0.7,0.6c-0.2,0.2-0.4,0.4-0.6,0.6c-0.4,0.4-0.7,0.7-0.9,1
				c-0.5,0.6-0.7,0.9-0.7,0.9s0.3-0.3,0.8-0.8c0.3-0.3,0.6-0.6,1-0.9c0.2-0.2,0.4-0.3,0.6-0.5s0.5-0.3,0.8-0.5
				c0.5-0.4,1.1-0.6,1.8-1c0.3-0.2,0.7-0.3,1-0.4c0.4-0.1,0.7-0.3,1.1-0.4c0.4-0.1,0.8-0.2,1.1-0.3c0.4-0.1,0.8-0.1,1.2-0.2
				c0.4-0.1,0.8-0.1,1.2-0.1c0.4,0,0.8-0.1,1.2,0l1.2,0.1c0.4,0.1,0.8,0.1,1.2,0.2c0.4,0,0.8,0.2,1.2,0.2c0.4,0.1,0.8,0.2,1.1,0.3
				c0.7,0.2,1.4,0.5,2,0.8s1.2,0.6,1.7,0.9c0.5,0.3,1,0.6,1.4,0.9c0.2,0.1,0.4,0.2,0.5,0.4c0.2,0.1,0.3,0.3,0.5,0.4
				c0.6,0.5,0.9,0.7,0.9,0.7L324.8,611.8z"/>
		</g>
		<g>
			<path class="st2" d="M300.9,641.1l-4.2,5.1c-8.7-7.1-9.2-20.9-1.1-30.8c0.7-0.9,1.5-1.7,2.3-2.4
				C291.9,622.6,292.9,634.7,300.9,641.1z"/>
		</g>
		<g>
			<g>
				
					<rect x="451.9" y="633.4" transform="matrix(0.6326 -0.7745 0.7745 0.6326 -388.8483 615.5695)" class="st2" width="5" height="168.5"/>
			</g>
		</g>
		<g>
			<path class="st0" d="M458.7,759.1l4.9,4c0.3,0.3,0.8,0.2,1.1-0.1l10-12.2c0.3-0.3,0.2-0.8-0.1-1.1l-4.9-4
				c-0.3-0.3-0.8-0.2-1.1,0.1l-10,12.2C458.4,758.4,458.4,758.9,458.7,759.1z"/>
		</g>
		<g>
			<path class="st2" d="M458.2,756.5l8.8-10.8c1.1-1.3,3-1.5,4.3-0.4l3.5,2.8c1.3,1.1,1.5,3,0.4,4.3l-8.8,10.8
				c-1.1,1.3-3,1.5-4.3,0.4l-3.5-2.8C457.3,759.7,457.1,757.8,458.2,756.5z M469.6,747.4c-0.1-0.1-0.4-0.1-0.5,0l-8.8,10.8
				c-0.1,0.1-0.1,0.4,0,0.5l3.5,2.8c0.1,0.1,0.4,0.1,0.5,0l8.8-10.8c0.1-0.1,0.1-0.4,0-0.5L469.6,747.4z"/>
		</g>
		<g>
			<g>
				<path class="st2" d="M462.2,756.3l3.5,2.8c0.7,0.6,1.6,0.7,2,0.2l-2.8,3.4c-0.4,0.5-1.3,0.4-2-0.2l-3.5-2.8
					c-0.7-0.6-1-1.5-0.6-1.9l2.8-3.4C461.2,754.9,461.5,755.7,462.2,756.3z"/>
			</g>
			<g>
				<path class="st2" d="M457.8,756.9l2.8-3.4c0.5-0.6,1.3-0.7,1.9-0.2c0.5,0.4,0.6,1.1,0.4,1.6c0,0.1,0.1,0.2,0.3,0.3l3.5,2.8
					c0.1,0.1,0.3,0.2,0.3,0.2c0.5-0.4,1.2-0.4,1.7,0c0.6,0.5,0.7,1.3,0.2,1.9l-2.8,3.4c-0.9,1.1-2.6,1.1-3.9,0l-3.5-2.8
					C457.3,759.7,456.9,758,457.8,756.9z M465.1,760.4c-0.1-0.1-0.2-0.1-0.3-0.2l-3.5-2.8c-0.1-0.1-0.2-0.1-0.3-0.2l-1,1.3
					c0,0.1,0.1,0.2,0.2,0.3l3.5,2.8c0.1,0.1,0.2,0.1,0.3,0.2L465.1,760.4z"/>
			</g>
		</g>
		<g>
			
				<rect x="311.5" y="635" transform="matrix(0.6326 -0.7745 0.7745 0.6326 -396.4099 491.0189)" class="st2" width="15.7" height="56.7"/>
		</g>
		<g>
			
				<rect x="332.4" y="611.6" transform="matrix(0.6326 -0.7745 0.7745 0.6326 -371.3365 497.1924)" class="st2" width="11.9" height="56.7"/>
		</g>
		<g>
			
				<rect x="329.9" y="620" transform="matrix(0.6326 -0.7745 0.7745 0.6326 -380.587 495.4607)" class="st2" width="4" height="57.8"/>
		</g>
		<g>
			
				<rect x="345.5" y="600.6" transform="matrix(0.6326 -0.7745 0.7745 0.6326 -359.9609 500.3105)" class="st2" width="3.6" height="57.8"/>
		</g>
		<g>
			<path class="st0" d="M372.8,646.5l-3,3.7l-22.5-18.4c-3.1-2.6-3.6-7.2-1-10.4l0.1-0.1l26.1,21.3
				C373.6,643.5,373.8,645.3,372.8,646.5z"/>
		</g>
		<g>
			<path class="st0" d="M348.7,618.4c-1.5-1.2-3.7-1.1-5,0.4c-0.1,0.1-0.1,0.1-0.2,0.2c-3.9,4.7-3.2,11.7,1.5,15.5l22.5,18.4
				c1.6,1.3,3.9,1,5.1-0.5l3-3.7c2.3-2.8,1.9-6.9-0.9-9.1L348.7,618.4L348.7,618.4z"/>
		</g>
		<g>
			<path class="st0" d="M374.3,647.7l-3,3.7L347.6,632c-3.3-2.7-3.9-7.5-1.3-10.6l0.1-0.1l27.4,22.4
				C375.1,644.7,375.3,646.5,374.3,647.7z"/>
		</g>
		<g>
			<path class="st2" d="M345.2,620.5l0.1-0.1c0.5-0.6,1.3-0.6,1.9-0.2l27.4,22.4c1.8,1.5,2.2,4.2,0.7,6l-3,3.7
				c-0.5,0.6-1.3,0.7-1.9,0.2l-23.7-19.4C342.8,629.9,342.1,624.2,345.2,620.5z M373.2,646.9c0.5-0.6,0.4-1.6-0.3-2.1l-26.3-21.5
				c-1.3,2.5-0.6,5.7,1.8,7.7l22.7,18.5L373.2,646.9z"/>
		</g>
		<g>
			<path class="st2" d="M321.5,663.7l23.4,19.1l-2.9,3.6c-1,1.2-2.8,1.4-4.1,0.4l-27-22.1C313.5,661.5,318.3,661.1,321.5,663.7z"/>
		</g>
		<g>
			<path class="st0" d="M321.5,663.7l23.4,19.1l-2.9,3.6c-1,1.2-2.8,1.4-4.1,0.4l-27-22.1C313.5,661.5,318.3,661.1,321.5,663.7
				L321.5,663.7z M322.7,662.3c-4-3.3-9.9-2.8-13.2,1.2c-0.6,0.8-0.5,1.9,0.3,2.6l27,22.1c2,1.7,5,1.4,6.6-0.6l2.9-3.6
				c0.6-0.8,0.5-1.9-0.3-2.6L322.7,662.3L322.7,662.3z"/>
		</g>
		<g>
			<path class="st0" d="M338.9,642.3l23.3,19l-9.4,11.5l-23.3-19c-3.2-2.6-3.8-7.4-1.2-10.6C330.9,640.1,335.7,639.7,338.9,642.3z"
				/>
		</g>
		<g>
			<path class="st0" d="M340.9,639.9c-4.6-3.8-11.4-3.1-15.1,1.4s-3,11.3,1.6,15l23.3,19c1.4,1.1,3.4,0.9,4.5-0.5l9.4-11.5
				c1.1-1.4,0.9-3.4-0.5-4.5L340.9,639.9L340.9,639.9z"/>
		</g>
		<g>
			<path class="st0" d="M339,642.4l23.7,19.4l-9.4,11.5l-23.7-19.4c-3.3-2.7-3.9-7.5-1.3-10.6C330.9,640.1,335.7,639.7,339,642.4z"
				/>
		</g>
		<g>
			<path class="st2" d="M327.3,642.4c3.1-3.8,8.7-4.2,12.6-1l23.7,19.4c0.6,0.5,0.7,1.3,0.2,1.9l-9.4,11.5c-0.5,0.6-1.3,0.7-1.9,0.2
				L328.8,655C324.9,651.8,324.2,646.2,327.3,642.4z M360.9,662l-22.7-18.5c-2.7-2.2-6.7-1.9-8.8,0.7c-2.1,2.6-1.6,6.5,1.1,8.7
				l22.7,18.5L360.9,662z"/>
		</g>
		<g>
			<path class="st2" d="M327,646c0.3-1,0.7-1.9,1.4-2.7c2.6-3.2,7.4-3.5,10.7-0.9l23.7,19.4l-3.8,4.6L335.3,647
				C332.8,645,329.6,644.7,327,646z"/>
		</g>
		<g>
			<path class="st2" d="M325.6,645.7c0.3-1.2,0.9-2.3,1.6-3.2c3.1-3.8,8.7-4.2,12.6-1l23.7,19.4c0.6,0.5,0.7,1.3,0.2,1.9l-3.8,4.6
				c-0.5,0.6-1.3,0.7-1.9,0.2l-23.7-19.4c-2-1.6-4.6-1.9-6.8-0.9c-0.5,0.2-1.1,0.2-1.5-0.2l0,0C325.7,646.7,325.5,646.2,325.6,645.7
				z M360.9,662l-22.7-18.5c-2.6-2.1-6.4-1.9-8.5,0.4c2.3-0.2,4.6,0.5,6.5,2.1l22.7,18.5L360.9,662z"/>
		</g>
		<g>
			<path class="st0" d="M330.7,643.2c0,0,0.1,0,0.4-0.1c0.3,0,0.7-0.1,1.2-0.1c1,0,2.5,0.2,3.9,1c0.4,0.2,0.7,0.4,1.1,0.7
				c0.3,0.3,0.7,0.6,1.1,0.9c0.8,0.7,1.6,1.4,2.4,2.1c0.8,0.7,1.7,1.5,2.6,2.2s1.8,1.5,2.7,2.3c3.7,3,7.4,6,10.1,8.2
				c1.4,1.1,2.5,2,3.4,2.7c0.8,0.6,1.3,1,1.3,1l1.2-1.4c0,0-0.5-0.4-1.3-1c-0.8-0.7-1.9-1.6-3.3-2.7c-2.8-2.3-6.4-5.3-10.1-8.3
				c-0.9-0.7-1.8-1.5-2.8-2.2c-0.9-0.7-1.8-1.4-2.7-2.1c-0.9-0.7-1.7-1.3-2.6-1.9c-0.4-0.3-0.8-0.6-1.3-0.9
				c-0.4-0.3-0.9-0.5-1.3-0.7c-1.8-0.7-3.4-0.6-4.5-0.3c-0.5,0.1-0.9,0.3-1.2,0.4C330.8,643.2,330.7,643.2,330.7,643.2z"/>
		</g>
		<g>
			<path class="st2" d="M292,647.3l33-40.4c1.8-2.2,5.1-2.6,7.4-0.7l43.7,35.7c2.2,1.8,2.6,5.1,0.7,7.4l-33,40.4
				c-1.8,2.2-5.1,2.6-7.4,0.7l-43.7-35.7C290.5,652.9,290.2,649.6,292,647.3z M329.6,609.7c-0.3-0.2-0.7-0.2-1,0.1l-33,40.4
				c-0.2,0.3-0.2,0.7,0.1,1l43.7,35.7c0.3,0.2,0.7,0.2,1-0.1l33-40.4c0.2-0.3,0.2-0.7-0.1-1L329.6,609.7z"/>
		</g>
		<g>
			<path class="st2" d="M126.9,651.4c19.2-11.3,35.7-20.2,48.8-26.9c8.1-4.2,17.8-9,31.5-11.7c7.9-1.6,17.9-3.4,30.1-0.7
				c11.8,2.7,20.2,8.4,24.8,12.1c11.8,9.6,9.6,32.6-12.6,39.2c-4.7-3.2-10.3-6.8-13.2-7.8c-12.4-4.1-24,2.9-26.9,4.7
				c-8.1,4.8-12.3,11.7-18.9,22.4c-3.3,5.3-5.9,10.6-7.9,14.9c-1.4,3-5.1,3.8-7.7,1.8c-16.3-13.1-32.3-26.7-48.6-39.8
				C123.6,657.4,123.9,653.2,126.9,651.4z"/>
		</g>
		<g>
			<path class="st2" d="M149.5,680.4c-8-6.6-15.9-13.1-24.1-19.7l0,0c-1.6-1.3-2.5-3.3-2.3-5.4c0.2-2.1,1.3-3.9,3.1-5
				c16.2-9.6,32.7-18.6,48.8-26.9c9.2-4.7,18.6-9.2,31.9-11.8c7.6-1.5,17.9-3.5,30.7-0.7c9.2,2.1,17.8,6.2,25.4,12.3
				c6,4.9,8.7,13.1,7.1,21.3c-1.9,9.7-9.3,17-20.2,20.3c-0.4,0.1-0.8,0-1.2-0.2c-7.8-5.3-11.3-7.1-12.9-7.6
				c-7.7-2.6-16.3-1.1-25.6,4.4l-0.2,0.1c-7.8,4.6-11.8,11.1-18.4,21.9c-3.6,5.9-6.3,11.3-7.9,14.8c-0.8,1.8-2.4,3.1-4.3,3.5
				c-1.9,0.5-3.9,0-5.4-1.2c-2.5-2-5-4-7.4-6C160.9,689.8,155.2,685.1,149.5,680.4z M267.4,643.9c1.5-7.2-0.9-14.4-6.1-18.6
				c-7.3-5.8-15.5-9.8-24.3-11.8c-12.2-2.8-22.3-0.8-29.6,0.7c-14,2.8-23.9,7.9-31.2,11.6c-16.1,8.3-32.5,17.3-48.7,26.8
				c-1,0.6-1.7,1.6-1.8,2.8c-0.1,1.2,0.4,2.3,1.3,3.1l0,0c8.1,6.5,16.1,13.1,24.1,19.7c8.1,6.7,16.3,13.5,24.5,20.1
				c0.9,0.7,2,1,3.1,0.7s2-1,2.5-2c1.6-3.6,4.4-9.1,8-15.1c6.6-10.8,10.9-17.9,19.4-22.9l0.2-0.1c10-5.9,19.4-7.5,27.9-4.7
				c2.4,0.8,6.8,3.4,13,7.6C259.3,658.9,265.7,652.4,267.4,643.9z"/>
		</g>
		<g>
			<path class="st0" d="M179.9,696.4c0,0,1.5-2.6,3.8-6.5c1.1-1.9,2.5-4.2,4-6.6c1.5-2.4,3.1-4.9,4.7-7.5c0.8-1.3,1.6-2.5,2.4-3.8
				c0.8-1.2,1.6-2.4,2.5-3.5c1.6-2.3,3.3-4.2,4.9-5.8c0.8-0.8,1.5-1.5,2.2-2.1s1.3-1.1,1.8-1.5c1.1-0.8,1.7-1.3,1.7-1.3
				s-0.2,0.1-0.5,0.2c-0.3,0.2-0.8,0.4-1.4,0.7c-0.6,0.3-1.3,0.7-2,1.3c-0.8,0.5-1.6,1.1-2.5,1.9c-0.9,0.7-1.8,1.6-2.7,2.5
				s-1.9,2-2.7,3.1c-0.9,1.1-1.8,2.3-2.6,3.5c-0.9,1.2-1.7,2.5-2.5,3.8c-1.6,2.6-3.2,5.1-4.5,7.6c-1.4,2.5-2.6,4.9-3.5,6.9
				c-1,2.1-1.7,3.8-2.1,5.1C180.2,695.7,179.9,696.4,179.9,696.4z"/>
		</g>
		<g>
			<path class="st0" d="M246.4,617.5c0,0-0.4-0.2-1.2-0.5s-1.9-0.8-3.4-1.3s-3.3-1.1-5.5-1.6c-2.1-0.5-4.6-1-7.3-1.2
				s-5.7-0.3-8.8-0.1s-6.4,0.7-9.7,1.3c-1.7,0.3-3.4,0.6-5.1,1c-1.7,0.4-3.4,0.8-5.2,1.3c-3.4,1-6.9,2.2-10.2,3.5
				c-6.7,2.8-13.1,6.2-19,9.4c-6,3.2-11.5,6.3-16.1,9c-4.7,2.7-8.5,5-11.2,6.7c-2.7,1.6-4.2,2.6-4.2,2.6s6.4-3.3,15.9-8.3
				c4.8-2.5,10.4-5.4,16.4-8.5c3-1.5,6.1-3.1,9.3-4.7c3.2-1.6,6.4-3.1,9.7-4.4c3.3-1.4,6.7-2.5,10-3.5c1.7-0.5,3.4-0.9,5-1.3
				c1.7-0.4,3.4-0.8,5-1.1c3.3-0.7,6.5-1.2,9.5-1.5s5.9-0.4,8.6-0.2c2.7,0.1,5.1,0.4,7.3,0.8c2.2,0.4,4,0.8,5.5,1.2
				C244.7,616.9,246.4,617.5,246.4,617.5z"/>
		</g>
		<g>
			<g>
				<path class="st0" d="M179,631c6.9-3.6,16.4-8.4,29.6-11c7.2-1.4,16.1-3.2,27.1-0.7c6.7,1.5,13,4.3,18.8,8.3
					c1.2,0.8,1.5,2.5,0.5,3.7l-13.6,16.6c-0.7,0.8-1.8,1.1-2.8,0.8l0,0c-10.2-3.4-21.2-1.6-32.8,5.2l-0.2,0.1
					c-9.7,5.7-14.6,13.7-21.4,24.9c-2.2,3.7-4.1,7.2-5.7,10.2c-0.7,1.4-2.6,1.8-3.9,0.8c-0.9-0.7-1.8-1.5-2.7-2.2
					c-5.7-4.7-11.5-9.4-17.1-14s-11.4-9.4-17.1-14.1c-0.5-0.4-1.1-0.9-1.6-1.3c-1.4-1.1-1.2-3.3,0.3-4.2
					C150.8,646,165,638.2,179,631z"/>
			</g>
		</g>
		<g>
			<g>
				<path class="st0" d="M260.5,626.4c0,0,0.1,0.1,0.3,0.3c0.2,0.2,0.5,0.5,0.8,1c0.2,0.2,0.4,0.4,0.5,0.7c0.2,0.3,0.4,0.5,0.6,0.9
					c0.2,0.3,0.4,0.7,0.6,1c0.2,0.4,0.4,0.8,0.6,1.2c0.4,0.8,0.7,1.8,0.9,2.8c0.3,1,0.4,2.1,0.5,3.2c0.1,1.1,0.1,2.3,0,3.4
					c0,0.6-0.2,1.2-0.2,1.7c-0.1,0.6-0.3,1.2-0.5,1.8c-0.3,1.1-0.8,2.2-1.3,3.3s-1.1,2-1.8,2.9c-0.7,0.9-1.4,1.7-2.1,2.5
					c-0.7,0.7-1.5,1.4-2.2,2s-1.4,1.1-2,1.5s-1.2,0.8-1.6,1.1c-0.9,0.6-1.5,0.9-1.5,0.9s0.1,0,0.4-0.1c0.3-0.1,0.7-0.2,1.2-0.4
					s1.1-0.4,1.8-0.8c0.7-0.3,1.5-0.7,2.3-1.2s1.7-1.1,2.5-1.8c0.9-0.7,1.7-1.5,2.5-2.5c0.7-1,1.5-2,2.1-3.1s1.1-2.3,1.5-3.6
					c0.2-0.7,0.3-1.2,0.4-1.9s0.2-1.3,0.2-2c0.1-1.3,0.1-2.6-0.1-3.8s-0.4-2.4-0.8-3.4c-0.3-1.1-0.8-2-1.3-2.8s-1-1.6-1.5-2.1
					c-0.2-0.3-0.5-0.6-0.7-0.8s-0.5-0.5-0.7-0.6c-0.4-0.4-0.8-0.6-1-0.8C260.6,626.5,260.5,626.4,260.5,626.4z"/>
			</g>
		</g>
		<g>
			<path class="st0" d="M253.4,641.3c-1,1.2-0.8,3.1,0.4,4.1s3.1,0.8,4.1-0.4s0.8-3.1-0.4-4.1C256.2,639.9,254.4,640.1,253.4,641.3z
				"/>
		</g>
		<g>
			<path class="st2" d="M173.1,678.7c-1,1.2-0.8,3.1,0.4,4.1s3.1,0.8,4.1-0.4s0.8-3.1-0.4-4.1C175.9,677.2,174.1,677.4,173.1,678.7z
				"/>
		</g>
		<g>
			<path class="st2" d="M143.5,654.5c-1,1.2-0.8,3.1,0.4,4.1s3.1,0.8,4.1-0.4s0.8-3.1-0.4-4.1C146.4,653.1,144.5,653.3,143.5,654.5z
				"/>
		</g>
		<g>
			<path class="st0" d="M277.3,650.7c-1.5,1.9-1.3,4.7,0.6,6.2s4.7,1.3,6.2-0.6c1.5-1.9,1.3-4.7-0.6-6.2
				C281.6,648.5,278.8,648.8,277.3,650.7z"/>
		</g>
		<g>
			<path class="st0" d="M305.1,673.1c-1.1,1.4-0.9,3.4,0.5,4.5s3.4,0.9,4.5-0.5s0.9-3.4-0.5-4.5S306.2,671.7,305.1,673.1z"/>
		</g>
		<g>
			<path class="st0" d="M319.3,599.3c0,0-0.6-0.1-1.8-0.1c-1.1,0-2.7,0-4.6-0.1s-4.1-0.2-6.1-1.1c-0.5-0.2-1-0.5-1.4-0.9
				c-0.2-0.1-0.4-0.4-0.7-0.6c-0.2-0.2-0.4-0.4-0.6-0.6c-0.8-0.8-1.5-1.8-2.1-2.9c-0.6-1-1.1-2.2-1.6-3.3c-0.4-1.1-0.8-2.3-1.1-3.4
				c-0.6-2.3-1-4.5-1.4-6.4s-0.7-3.5-1.1-4.6c-0.2-0.5-0.4-0.9-0.6-1.2s-0.3-0.4-0.3-0.4s0.1,0.1,0.2,0.4c0.1,0.3,0.2,0.7,0.3,1.3
				c0.2,1.1,0.3,2.7,0.4,4.6c0.1,1.9,0.4,4.2,0.8,6.6c0.3,1.2,0.5,2.4,1,3.7c0.4,1.2,1,2.5,1.6,3.6c0.7,1.2,1.5,2.2,2.4,3.2
				c0.2,0.2,0.5,0.5,0.7,0.7c0.3,0.2,0.4,0.4,0.8,0.6c0.6,0.4,1.2,0.7,1.8,1c1.2,0.5,2.5,0.7,3.6,0.8s2.2,0,3.2-0.1
				c1.9-0.2,3.5-0.5,4.6-0.6C318.6,599.4,319.3,599.3,319.3,599.3z"/>
		</g>
		<g>
			<path class="st0" d="M292.7,608.5c0,0-0.2,0.1-0.7,0.2c-0.4,0.2-1,0.5-1.6,0.9s-1.4,0.9-2.1,1.6c-0.7,0.6-1.4,1.3-2.1,2.1
				c-1.3,1.5-2.4,3.3-3.1,4.6c-0.7,1.4-0.9,2.4-0.9,2.4s0.2-0.2,0.5-0.5s0.8-0.8,1.3-1.3c0.3-0.3,0.5-0.6,0.8-0.9
				c0.3-0.3,0.6-0.6,0.9-1c0.6-0.7,1.3-1.4,1.9-2.2c0.6-0.7,1.3-1.5,1.9-2.2s1.2-1.4,1.6-1.9C292.1,609.3,292.7,608.5,292.7,608.5z"
				/>
		</g>
		<g>
			<g>
				<path class="st0" d="M512.8,753.5c0,0,0.1-0.2,0.4-0.6c0.1-0.2,0.2-0.5,0.3-0.8s0.2-0.7,0.3-1.1c0.1-0.4,0.1-0.8,0.2-1.3
					c0-0.5,0-1,0-1.5c-0.1-0.5-0.1-1-0.3-1.6c-0.1-0.5-0.3-1-0.5-1.5s-0.5-1-0.7-1.5c-0.3-0.5-0.6-0.9-0.9-1.3
					c-0.3-0.4-0.7-0.8-1-1.1s-0.7-0.6-1-0.8s-0.6-0.4-0.9-0.6c-0.3-0.2-0.5-0.3-0.8-0.3c-0.4-0.2-0.7-0.2-0.7-0.2s0.2,0.2,0.5,0.5
					s0.7,0.8,1.2,1.4c0.2,0.3,0.5,0.6,0.7,1c0.3,0.3,0.5,0.7,0.7,1.1c0.4,0.8,0.9,1.6,1.3,2.5c0.2,0.4,0.4,0.9,0.5,1.3
					c0.1,0.2,0.1,0.4,0.2,0.7c0.1,0.2,0.1,0.4,0.2,0.7c0.1,0.4,0.2,0.9,0.3,1.3c0,0.4,0.1,0.8,0.1,1.2s0.1,0.7,0.1,1s0,0.6,0,0.8
					C512.8,753.2,512.8,753.5,512.8,753.5z"/>
			</g>
		</g>
		<g>
			<g>
				
					<rect x="468" y="747.3" transform="matrix(0.6326 -0.7744 0.7744 0.6326 -409.4626 639.3834)" class="st2" width="2.5" height="7.9"/>
			</g>
		</g>
		<g>
			
				<rect x="279.8" y="648.3" transform="matrix(0.9887 -0.1497 0.1497 0.9887 -94.6646 49.3859)" class="st2" width="1.8" height="10.4"/>
		</g>
		<g>
			<g>
				<path class="st2" d="M243.7,624.2c0,0-0.1,0.9-0.2,2.2c0,0.7,0,1.4,0,2.2s0.1,1.7,0.2,2.5c0.1,0.9,0.2,1.7,0.3,2.5
					s0.3,1.6,0.4,2.2c0.3,1.3,0.6,2.1,0.6,2.1s0.1-0.9,0.2-2.2c0-0.7,0-1.4,0-2.2s-0.1-1.7-0.2-2.5c-0.1-0.9-0.2-1.7-0.3-2.5
					s-0.3-1.6-0.4-2.2C244,625.1,243.7,624.2,243.7,624.2z"/>
			</g>
		</g>
		<g>
			<g>
				<path class="st2" d="M236.3,622.3c0,0-0.1,1.5,0,3.6c0,1.1,0.1,2.4,0.2,3.7c0.1,1.4,0.3,2.8,0.4,4.2c0.2,1.4,0.4,2.9,0.6,4.2
					c0.2,1.3,0.4,2.6,0.6,3.7c0.4,2.1,0.8,3.6,0.8,3.6s0.1-1.5,0-3.6c0-1.1-0.1-2.4-0.2-3.7c-0.1-1.4-0.3-2.8-0.4-4.2
					c-0.2-1.4-0.4-2.9-0.6-4.2c-0.2-1.3-0.4-2.6-0.6-3.7C236.7,623.7,236.3,622.3,236.3,622.3z"/>
			</g>
		</g>
		<g>
			<g>
				<path class="st2" d="M228.8,620.4c0,0,0,1.5,0.1,3.8c0,1.1,0.1,2.4,0.3,3.8c0.1,1.4,0.3,2.9,0.4,4.4c0.2,1.5,0.4,3,0.6,4.4
					c0.2,1.4,0.4,2.7,0.7,3.8c0.4,2.2,0.8,3.7,0.8,3.7s0-1.5-0.1-3.8c0-1.1-0.1-2.4-0.3-3.8c-0.1-1.4-0.3-2.9-0.4-4.4
					c-0.2-1.5-0.4-3-0.6-4.4c-0.2-1.4-0.4-2.7-0.7-3.8C229.2,621.8,228.8,620.4,228.8,620.4z"/>
			</g>
		</g>
		<g>
			<g>
				<path class="st2" d="M222.3,620.6c0,0,0,1.5,0.1,3.6c0,1.1,0.1,2.3,0.2,3.7c0.1,1.3,0.3,2.8,0.4,4.2c0.2,1.4,0.4,2.9,0.6,4.2
					c0.2,1.3,0.4,2.6,0.7,3.6c0.4,2.1,0.8,3.5,0.8,3.5s0.1-1.5-0.1-3.6c0-1.1-0.1-2.3-0.2-3.7c-0.1-1.4-0.3-2.8-0.4-4.2
					c-0.2-1.4-0.4-2.9-0.6-4.2c-0.2-1.3-0.4-2.6-0.7-3.6C222.7,622,222.3,620.6,222.3,620.6z"/>
			</g>
		</g>
		<g>
			<g>
				<path class="st2" d="M215.2,620.5c0,0-0.1,1.5,0,3.8c0,1.2,0.1,2.5,0.2,3.9c0.1,1.4,0.2,3,0.4,4.5s0.3,3,0.5,4.5
					c0.2,1.4,0.4,2.7,0.6,3.9c0.4,2.3,0.8,3.8,0.8,3.8s0.1-1.5,0-3.8c0-1.2-0.1-2.5-0.2-3.9c-0.1-1.4-0.2-3-0.4-4.5s-0.3-3-0.6-4.5
					c-0.2-1.4-0.4-2.7-0.6-3.9C215.6,622,215.2,620.5,215.2,620.5z"/>
			</g>
		</g>
		<g>
			<g>
				<path class="st2" d="M208.6,622.2c0,0-0.1,1.6,0,4.1c0,1.2,0.1,2.7,0.2,4.2c0.1,1.5,0.2,3.2,0.4,4.8s0.4,3.2,0.6,4.8
					c0.2,1.5,0.4,2.9,0.6,4.1c0.4,2.4,0.8,4,0.8,4s0.1-1.6,0-4.1c0-1.2-0.1-2.7-0.2-4.2c-0.1-1.5-0.3-3.2-0.4-4.8
					c-0.2-1.6-0.4-3.2-0.6-4.8c-0.2-1.5-0.4-2.9-0.6-4.1C209,623.8,208.6,622.2,208.6,622.2z"/>
			</g>
		</g>
		<g>
			<g>
				<path class="st2" d="M201.7,624.8c0,0,0,1.7,0.1,4.2c0,1.2,0.1,2.7,0.3,4.3c0.1,1.6,0.3,3.2,0.4,4.9c0.2,1.7,0.4,3.3,0.6,4.8
					c0.2,1.5,0.4,3,0.7,4.2c0.4,2.5,0.8,4.1,0.8,4.1s0-1.7-0.1-4.2c0-1.2-0.1-2.7-0.3-4.3c-0.1-1.6-0.3-3.2-0.4-4.9
					c-0.2-1.7-0.4-3.3-0.6-4.8c-0.2-1.5-0.4-3-0.7-4.2C202.1,626.4,201.7,624.8,201.7,624.8z"/>
			</g>
		</g>
		<g>
			<g>
				<path class="st2" d="M195.9,626c0,0,0,1.9,0.2,4.6c0.1,1.4,0.2,3,0.4,4.7c0.1,1.7,0.4,3.5,0.5,5.4c0.2,1.8,0.4,3.6,0.7,5.4
					c0.2,1.7,0.5,3.3,0.7,4.7c0.4,2.7,0.8,4.5,0.8,4.5s0.1-1.9,0-4.6c0-1.4-0.1-3-0.3-4.7c-0.1-0.9-0.1-1.8-0.2-2.7
					c-0.1-0.9-0.2-1.8-0.3-2.7c-0.2-1.8-0.4-3.7-0.7-5.4s-0.5-3.3-0.8-4.7C196.4,627.7,195.9,626,195.9,626z"/>
			</g>
		</g>
		<g>
			<g>
				<path class="st2" d="M188,629.2c0,0,0,0.5,0,1.4c0.1,0.9,0.1,2.2,0.2,3.8c0.1,1.5,0.3,3.4,0.5,5.3c0.2,1.9,0.4,4,0.7,6
					c0.3,2.1,0.5,4.1,0.8,6s0.6,3.7,0.9,5.2c0.3,1.5,0.6,2.8,0.7,3.7c0.2,0.9,0.3,1.4,0.3,1.4s0-0.5,0-1.4c-0.1-0.9-0.1-2.2-0.2-3.8
					c-0.1-1.5-0.3-3.4-0.5-5.3c-0.2-1.9-0.4-4-0.7-6c-0.3-2.1-0.5-4.1-0.8-6s-0.6-3.7-0.9-5.2c-0.3-1.5-0.6-2.8-0.7-3.7
					C188.2,629.7,188,629.2,188,629.2z"/>
			</g>
		</g>
		<g>
			<g>
				<path class="st2" d="M181.7,632c0,0,0,0.6,0.1,1.6s0.1,2.5,0.3,4.3c0.1,1.8,0.3,3.8,0.6,6c0.2,2.2,0.5,4.6,0.8,6.9
					c0.3,2.3,0.6,4.7,1,6.9c0.3,2.2,0.7,4.2,1,6s0.6,3.2,0.8,4.2s0.3,1.6,0.3,1.6s0-0.6-0.1-1.6s-0.1-2.5-0.3-4.3
					c-0.1-1.8-0.3-3.8-0.6-6c-0.2-2.2-0.5-4.6-0.8-6.9c-0.3-2.3-0.6-4.7-1-6.9c-0.3-2.2-0.7-4.2-1-6s-0.6-3.2-0.8-4.2
					S181.7,632,181.7,632z"/>
			</g>
		</g>
		<g>
			<g>
				<path class="st2" d="M175.2,635.5c0,0,0,0.7,0.1,1.8c0.1,1.2,0.1,2.8,0.3,4.8c0.1,2,0.3,4.3,0.6,6.8c0.2,2.5,0.5,5.1,0.8,7.8
					c0.3,2.6,0.6,5.3,1,7.8c0.3,2.5,0.7,4.8,1,6.8s0.6,3.6,0.8,4.8c0.2,1.1,0.3,1.8,0.3,1.8s0-0.7-0.1-1.8c-0.1-1.2-0.1-2.8-0.3-4.8
					c-0.1-2-0.3-4.3-0.6-6.8c-0.2-2.5-0.5-5.1-0.8-7.8c-0.3-2.6-0.6-5.3-1-7.8c-0.3-2.5-0.7-4.8-1-6.8s-0.6-3.6-0.8-4.8
					C175.4,636.2,175.2,635.5,175.2,635.5z"/>
			</g>
		</g>
		<g>
			<g>
				<path class="st2" d="M168,638.7c0,0,0,0.6,0.1,1.7c0.1,1.1,0.1,2.6,0.3,4.4c0.1,1.8,0.3,4,0.5,6.3s0.5,4.7,0.8,7.2
					c0.3,2.4,0.6,4.9,0.9,7.1c0.3,2.3,0.6,4.4,0.9,6.2c0.3,1.8,0.6,3.3,0.8,4.4c0.2,1.1,0.3,1.7,0.3,1.7s0-0.6-0.1-1.7
					c-0.1-1.1-0.1-2.6-0.3-4.4c-0.1-1.8-0.3-4-0.5-6.3s-0.5-4.7-0.8-7.2c-0.3-2.4-0.6-4.9-0.9-7.1c-0.3-2.3-0.6-4.4-0.9-6.2
					c-0.3-1.8-0.6-3.3-0.8-4.4C168.2,639.3,168,638.7,168,638.7z"/>
			</g>
		</g>
		<g>
			<g>
				<path class="st2" d="M162,642.4c0,0,0,0.6,0,1.6s0.1,2.4,0.2,4.2c0.1,1.7,0.2,3.7,0.4,5.9c0.2,2.1,0.4,4.4,0.6,6.7
					c0.2,2.3,0.5,4.6,0.8,6.7c0.3,2.1,0.5,4.1,0.8,5.8c0.2,1.7,0.5,3.1,0.7,4.1s0.3,1.6,0.3,1.6s0-0.6,0-1.6s-0.1-2.4-0.2-4.2
					c-0.1-1.7-0.2-3.7-0.4-5.9c-0.2-2.1-0.4-4.4-0.6-6.7c-0.2-2.3-0.5-4.6-0.8-6.7c-0.3-2.1-0.5-4.1-0.8-5.8s-0.5-3.1-0.7-4.1
					C162.1,642.9,162,642.4,162,642.4z"/>
			</g>
		</g>
		<g>
			<g>
				<path class="st2" d="M155.1,646.7c0,0-0.1,1.5,0,3.7c0,1.1,0.1,2.4,0.2,3.7c0.1,1.4,0.3,2.8,0.4,4.3c0.2,1.4,0.4,2.9,0.6,4.2
					c0.2,1.4,0.4,2.6,0.6,3.7c0.4,2.2,0.8,3.6,0.8,3.6s0.1-1.5,0-3.7c0-1.1-0.1-2.4-0.2-3.7c-0.1-1.4-0.3-2.8-0.4-4.3
					c-0.2-1.4-0.4-2.9-0.6-4.2c-0.2-1.4-0.4-2.6-0.6-3.7C155.5,648.2,155.1,646.7,155.1,646.7z"/>
			</g>
		</g>
		<g>
			<g>
				<path class="st2" d="M232,622.6c0,0-1.8,0-4.4,0.1c-1.3,0.1-2.9,0.1-4.5,0.3c-1.6,0.1-3.4,0.3-5.1,0.5c-1.7,0.2-3.5,0.4-5.1,0.7
					c-1.6,0.2-3.1,0.5-4.4,0.7c-2.6,0.5-4.3,0.9-4.3,0.9s1.8,0,4.4-0.1c1.3-0.1,2.9-0.2,4.5-0.3s3.4-0.3,5.1-0.5
					c1.7-0.2,3.5-0.4,5.1-0.7c1.6-0.2,3.1-0.5,4.4-0.7C230.3,623,232,622.6,232,622.6z"/>
			</g>
		</g>
		<g>
			<g>
				<path class="st2" d="M247.6,627.7c0,0-1.1,0-3.1,0.1c-1,0-2.2,0.1-3.6,0.2c-1.4,0.1-3,0.1-4.7,0.3c-3.4,0.3-7.4,0.6-11.6,1
					c-2.1,0.2-4.3,0.5-6.5,0.7c-2.2,0.3-4.5,0.6-6.8,0.8c-4.5,0.6-9,1.2-13.3,1.7c-2.1,0.3-4.2,0.5-6.1,0.8
					c-1.9,0.2-3.8,0.5-5.5,0.7c-3.4,0.4-6.2,0.8-8.2,0.9c-2,0.2-3.1,0.4-3.1,0.4s1.1,0,3.1-0.1c1,0,2.2-0.1,3.6-0.2
					c1.4-0.1,3-0.1,4.7-0.3c3.4-0.3,7.4-0.6,11.6-1c2.1-0.2,4.3-0.5,6.6-0.7c2.2-0.3,4.5-0.6,6.8-0.8c4.5-0.6,9-1.2,13.3-1.7
					c2.1-0.3,4.2-0.5,6.1-0.8c1.9-0.3,3.8-0.5,5.5-0.7c3.4-0.4,6.2-0.8,8.2-1C246.4,627.8,247.6,627.7,247.6,627.7z"/>
			</g>
		</g>
		<g>
			<g>
				<path class="st2" d="M248.6,634.4c0,0-1.4,0.1-3.8,0.2c-2.4,0.2-5.9,0.3-10.1,0.7c-2.1,0.2-4.3,0.4-6.7,0.6
					c-2.4,0.2-4.9,0.4-7.5,0.7c-5.2,0.5-10.7,1.1-16.3,1.7c-5.5,0.6-11.1,1.3-16.3,1.9c-2.6,0.3-5.1,0.6-7.5,0.9
					c-2.4,0.3-4.6,0.5-6.7,0.7c-4.2,0.4-7.6,0.9-10,1.2s-3.8,0.5-3.8,0.5s1.4-0.1,3.8-0.2c2.4-0.2,5.9-0.4,10.1-0.7
					c2.1-0.2,4.3-0.3,6.7-0.5s4.9-0.4,7.5-0.7c5.2-0.5,10.7-1.1,16.3-1.7C226.5,636.9,248.6,634.4,248.6,634.4z"/>
			</g>
		</g>
		<g>
			<g>
				<path class="st2" d="M219.1,643.9c0,0-1.1,0.1-3,0.2c-1.9,0.2-4.7,0.4-8,0.8c-3.3,0.4-7.1,0.8-11.2,1.3
					c-4.1,0.5-8.5,1.1-12.8,1.6c-4.4,0.6-8.7,1.1-12.8,1.6c-2.1,0.2-4,0.5-5.9,0.7s-3.7,0.4-5.3,0.5c-3.3,0.3-6,0.6-8,0.7
					c-1.9,0.2-3,0.2-3,0.2s1.1,0,3,0c1,0,2.1,0,3.5,0c1.3,0,2.9-0.1,4.5-0.2c3.3-0.2,7.2-0.4,11.3-0.8c2.1-0.2,4.2-0.4,6.4-0.7
					s4.4-0.5,6.5-0.8c4.4-0.6,8.7-1.2,12.8-1.8s7.9-1.2,11.2-1.7s6-1,7.9-1.3C218,644.1,219.1,643.9,219.1,643.9z"/>
			</g>
		</g>
		<g>
			<g>
				<path class="st2" d="M242.1,641.9c0,0-0.9-0.2-2.1-0.2c-1.3-0.1-3-0.1-4.7,0s-3.4,0.4-4.6,0.6c-1.3,0.3-2.1,0.5-2.1,0.5
					s0.9,0.2,2.1,0.2c1.3,0.1,3,0.1,4.7,0s3.4-0.4,4.6-0.6C241.2,642.2,242.1,641.9,242.1,641.9z"/>
			</g>
		</g>
		<g>
			<g>
				<path class="st2" d="M201.4,653.2c0,0-0.8,0-2.2,0.1s-3.4,0.1-5.8,0.2c-2.4,0.1-5.2,0.3-8.1,0.5c-3,0.2-6.1,0.5-9.3,0.8
					c-1.6,0.2-3.2,0.3-4.7,0.5c-1.6,0.1-3.1,0.3-4.6,0.5c-3,0.3-5.7,0.7-8.1,1c-2.4,0.3-4.3,0.7-5.7,0.9s-2.2,0.4-2.2,0.4
					s0.8,0,2.2-0.1s3.4-0.2,5.7-0.4c2.4-0.2,5.1-0.4,8.1-0.6c3-0.2,6.1-0.5,9.3-0.8s6.3-0.6,9.3-0.9c3-0.3,5.7-0.6,8.1-0.9
					c2.4-0.3,4.3-0.6,5.7-0.8C200.6,653.3,201.4,653.2,201.4,653.2z"/>
			</g>
		</g>
		<g>
			<g>
				<path class="st2" d="M193.1,661.2c0,0-0.7,0-1.9,0.1s-2.9,0.1-5,0.2c-2.1,0.1-4.5,0.3-7,0.5c-2.6,0.2-5.3,0.4-8.1,0.7
					c-2.7,0.3-5.5,0.6-8,0.9c-2.6,0.3-5,0.6-7,0.9c-2,0.3-3.7,0.6-4.9,0.7c-1.2,0.2-1.9,0.3-1.9,0.3s0.7,0,1.9,0
					c1.2-0.1,2.9-0.1,5-0.2c2.1-0.1,4.5-0.3,7-0.5c2.6-0.2,5.3-0.4,8.1-0.7c2.7-0.3,5.5-0.6,8-0.9c2.6-0.3,5-0.6,7-0.9
					c2-0.3,3.7-0.6,4.9-0.7C192.4,661.3,193.1,661.2,193.1,661.2z"/>
			</g>
		</g>
		<g>
			<g>
				<path class="st2" d="M187.2,668.4c0,0-1.8,0-4.5,0.1c-1.3,0.1-2.9,0.1-4.6,0.3c-1.7,0.1-3.4,0.3-5.2,0.5s-3.5,0.4-5.2,0.6
					c-1.7,0.2-3.2,0.5-4.5,0.7c-2.6,0.4-4.4,0.9-4.4,0.9s1.8,0,4.5-0.1c1.3-0.1,2.9-0.1,4.6-0.3c1.7-0.1,3.4-0.3,5.2-0.5
					s3.5-0.4,5.2-0.6c1.7-0.2,3.2-0.5,4.5-0.7C185.4,668.8,187.2,668.4,187.2,668.4z"/>
			</g>
		</g>
	</g>
</g>
<g>
	<path class="st4" d="M745.3,190.1c0,64.8-100.7,200.1-301.8,200.1S141.6,254.9,141.6,190.1s84.2,44.1,299,44.1
		C655.6,234.3,745.3,125.3,745.3,190.1z"/>
	<path class="st2" d="M443.5,397.4c-114.1,0-188.5-42.1-230.9-77.4c-53.9-44.9-78.1-97.6-78.1-129.9c0-18.4,7.1-27.7,21-27.7
		c11,0,25.6,5.9,47.7,14.8c46.2,18.7,123.6,49.9,237.5,49.9c113.1,0,192.3-31,239.6-49.5c22.6-8.8,38.9-15.2,50.5-15.2
		c14.4,0,21.7,9.3,21.7,27.7c0,32.3-24.1,84.9-78.1,129.9C632,355.3,557.6,397.4,443.5,397.4z M155.5,176.7c-3.1,0-6.7,0-6.7,13.4
		c0,28.9,22.5,76.9,72.9,118.9c40.6,33.8,112,74.1,221.8,74.1s181.2-40.3,221.8-74.1c50.4-42,72.9-90,72.9-118.9
		c0-13.4-3.8-13.4-7.4-13.4c-8.9,0-25,6.3-45.3,14.2c-48.3,18.9-129,50.5-244.8,50.5c-116.7,0-195.6-31.9-242.8-50.9
		C178.8,182.8,163.7,176.7,155.5,176.7z"/>
	<path class="st4" d="M500.5,36.6c-12.9,0-29.6,24.8-59.1,24.8s-47.5-24.8-62.9-24.8c-21.7,0-47.8,65.2-66.1,114
		c-18.3,48.8-23.8,89.6-23.8,104.6c0,28,48.7,67.3,152.8,67.3s152.8-40.7,152.8-67.3c0-14.6-6.3-54.5-26.3-104.2
		C551.2,109.3,524.7,36.6,500.5,36.6z"/>
	<path class="st2" d="M441.4,329.6c-60.7,0-98.1-13.1-118.8-24c-25.8-13.7-41.2-32.5-41.2-50.5c0-14.6,5.1-55.9,24.3-107.1
		C332.4,76.9,355,29.5,378.5,29.5c8.5,0,16.2,4.9,25.2,10.5c10.6,6.7,22.6,14.3,37.7,14.3c15.5,0,27.1-7.9,37.3-14.9
		c7.8-5.3,14.5-9.9,21.8-9.9c25,0,45.4,46.5,69.5,107.2c1.6,4.1,3.2,8,4.6,11.6c21.2,52.8,26.8,93,26.8,106.9
		c0,17.5-15.4,36.2-41.1,50C539.4,316.3,501.8,329.6,441.4,329.6z M378.5,43.7c-2.4,0-11.3,2.5-28,34.8
		c-11.4,22.1-22.3,50.1-31.5,74.5c-17.2,45.7-23.4,86.1-23.4,102.1c0,9.7,8.8,24.7,33.6,37.9c19.3,10.2,54.4,22.4,112.1,22.4
		c57.5,0,92.7-12.4,112.1-22.8c24.8-13.3,33.6-28.5,33.6-37.4c0-15-6.9-54.4-25.8-101.5c-1.5-3.7-3-7.6-4.7-11.7
		c-8.2-20.7-18.4-46.4-29.1-66.5c-15.2-28.6-24-31.7-27.1-31.7c-2.9,0-8.4,3.8-13.8,7.4c-10.7,7.3-25.4,17.4-45.3,17.4
		c-19.2,0-33.7-9.1-45.3-16.5C389.3,47.8,382.9,43.7,378.5,43.7z"/>
	<g>
		<path class="st2" d="M441.4,285.3c-90.5,0-139.1-29.8-150.3-55.9c-1.8,11.4-2.5,20.3-2.5,25.7c0,28,48.7,67.3,152.8,67.3
			s152.8-40.7,152.8-67.3c0-5.3-0.9-14-2.9-25.3C579.6,255.2,531,285.3,441.4,285.3z"/>
		<path class="st2" d="M441.4,329.6c-60.7,0-98.1-13.1-118.8-24c-25.8-13.7-41.2-32.5-41.2-50.5c0-6.6,0.9-16.1,2.6-26.8
			c0.5-3.1,3-5.6,6.2-6s6.2,1.4,7.4,4.3c10.6,24.8,60.1,51.6,143.7,51.6c82.2,0,132-26.6,143.5-51.4c1.3-2.8,4.3-4.4,7.4-4.1
			c3.1,0.4,5.6,2.7,6.1,5.8c1.9,10.7,3,20.2,3,26.6c0,17.5-15.4,36.2-41.1,50C539.4,316.3,501.8,329.6,441.4,329.6z M295.9,249
			c-0.2,2.3-0.2,4.4-0.2,6.2c0,9.7,8.8,24.7,33.6,37.9c19.3,10.2,54.4,22.4,112.1,22.4c57.5,0,92.7-12.4,112.1-22.8
			c24.8-13.3,33.6-28.5,33.6-37.4c0-1.9-0.1-4.2-0.3-6.7c-22.9,23.7-72.2,44-145.4,44C363.8,292.5,317.4,271.6,295.9,249z"/>
	</g>
	<g>
		<path class="st2" d="M591.4,237.9c-1.8,3.7-3.7,7.4-6.3,10.7c-3.4,4.1-7,7.9-11.1,11.3c-8.5,7.1-18,12.7-28,17.3
			c-20.7,9.5-43.3,14.4-65.8,17.1c-23.3,2.8-47.1,2.8-70.5,0.8c-22.5-1.9-45.8-6.3-66.7-15c-11.1-4.6-22.4-10-31.7-17.7
			c-4.6-3.8-9-7.8-12.8-12.5c-3.1-3.8-5.3-8-7.3-12.4c4.5,7.8,10.1,14.7,17.4,20c8.6,6.3,17.7,11.2,27.5,15.4
			c20.5,8.7,43.2,13.1,65.3,15.4c23.2,2.4,46.5,2.6,69.8,1c11.5-0.8,23-2.3,34.2-4.5c10.7-2.2,21.5-4.7,31.8-8.5
			c11.3-4.2,22.8-8.9,32.7-16c4.8-3.4,9.3-7.1,13.4-11.4C586.5,245.5,589,241.8,591.4,237.9z"/>
	</g>
	<g>
		<path class="st2" d="M538.9,126.6c-11.6,0.5-21.7-6.1-29-14.7c-8.6-10.1-13.5-23.4-14.1-36.6c-0.3-6.1,0.5-12.3,2.8-17.9
			c4.8,9.9,8.5,20.2,13.3,30.1c4.6,9.6,9.7,18.8,16,27.4C531.2,119.3,535.2,122.8,538.9,126.6z"/>
	</g>
	<g>
		<path class="st2" d="M339.9,126.6c1.9-1.9,3.9-3.7,5.7-5.7c2.4-2.7,4.7-5.6,6.7-8.6c3.9-5.7,7.4-11.9,10.4-18.1
			c3.2-6.6,6.3-13.4,9.2-20.1c2.4-5.5,4.5-11.3,7.1-16.7c4.5,10.7,3.6,23.9-0.1,34.7c-4.1,12.1-11.3,23.1-22.3,30
			C351.5,125.3,345.8,126.8,339.9,126.6z"/>
	</g>
	<g>
		<path class="st2" d="M164.6,208.7c12,30.7,35.5,54.9,60,76.2c26.1,22.7,55.4,41.4,85.8,57.8c14,7.6,28.6,14.1,43.1,20.6
			c-32.4-5.8-63.3-18.4-91.4-35.6C232,309.3,204,285.6,184,256.3C174.3,241.9,166.9,226,164.6,208.7z"/>
	</g>
	<g>
		<path class="st2" d="M719.4,208.7c-4.2,32.4-26.3,60.5-49.4,82.3c-25.9,24.4-56.5,44.1-89.4,57.6c-16.2,6.6-32.9,11.6-50.1,14.6
			c28.6-12.6,56.4-26.7,82.6-43.8c28.8-18.8,56.3-40.5,78.8-66.6C703.4,239.5,713,225.1,719.4,208.7z"/>
	</g>
	<g>
		<path class="st2" d="M404.1,92c11.9,5.7,23.7,11.5,37.2,11.5c13.6,0,25.5-5.8,37.4-11.5c-6,11.2-18.4,19.3-30.8,21.2
			c-10.6,1.6-21.5-0.9-30.4-6.9C412.2,102.7,407.1,97.8,404.1,92z"/>
	</g>
	<g>
		<path class="st5" d="M484.4,223.9c-0.9,0-1.7,0.3-2.4,0.7l-11.4-19.8L482,185c0.7,0.4,1.5,0.7,2.4,0.7c2.7,0,4.9-2.2,4.9-4.9
			s-2.2-4.9-4.9-4.9c-2.7,0-4.9,2.2-4.9,4.9h-22.9l-12.1-21c1.5-0.8,2.5-2.4,2.5-4.2c0-2.7-2.2-4.9-4.9-4.9c-2.7,0-4.9,2.2-4.9,4.9
			c0,1.8,1,3.4,2.5,4.2l-12.1,21h-22.9c0-2.7-2.2-4.9-4.9-4.9c-2.7,0-4.9,2.2-4.9,4.9s2.2,4.9,4.9,4.9c0.9,0,1.7-0.3,2.4-0.7
			l11.4,19.8l-11.4,19.8c-0.7-0.4-1.5-0.7-2.4-0.7c-2.7,0-4.9,2.2-4.9,4.9s2.2,4.9,4.9,4.9c2.7,0,4.9-2.2,4.9-4.9h22.9l12.1,21
			c-1.5,0.8-2.5,2.4-2.5,4.2c0,2.7,2.2,4.9,4.9,4.9c2.7,0,4.9-2.2,4.9-4.9c0-1.8-1-3.4-2.5-4.2l12.1-21h22.9c0,2.7,2.2,4.9,4.9,4.9
			c2.7,0,4.9-2.2,4.9-4.9S487.1,223.9,484.4,223.9z"/>
	</g>
	<g>
		<g>
			<path class="st2" d="M591.6,219.3c-9,8.4-18.4,16-29.1,22.2c-11.8,6.8-24.6,11.9-37.7,15.5c-5.7,1.5-11.5,2.9-17.3,3.5
				c11.1-3,21.9-8.2,31.9-13.9c11.1-6.4,21.4-14.3,30.4-23.4c4.1-4.2,7.7-8.9,11.3-13.5C584.5,212.9,588.1,216.1,591.6,219.3z"/>
		</g>
		<g>
			<path class="st2" d="M587.4,203.3c-8.5,7.8-17.4,14.5-27.6,20c-9.1,4.9-18.9,8.7-28.9,11.4c-4.4,1.2-9,2.3-13.6,2.9
				c12-3.9,23.5-10.4,33.7-17.8c4.8-3.5,9.4-7.3,13.6-11.5c4.5-4.6,8.5-9.4,12.3-14.6C580.3,196.9,583.9,200.1,587.4,203.3z"/>
		</g>
		<g>
			<path class="st2" d="M583.2,187.3c-15.8,13.7-35.1,24-56,27.2c8.8-3.6,17.2-8.8,24.7-14.7c8.1-6.4,14.8-13.8,20.8-22.2
				C576.2,180.9,579.7,184.1,583.2,187.3z"/>
		</g>
		<g>
			<path class="st2" d="M579,171.3c-12.2,9.8-26.5,17.2-42,20.2c12.8-7.1,23.5-17.6,31.4-29.8C572,165,575.5,168.1,579,171.3z"/>
		</g>
		<g>
			<path class="st2" d="M574.9,155.3c-8.6,5.9-17.9,10.5-28,13.2c7.1-6.5,12.8-14.2,17.3-22.7C567.7,149,571.3,152.1,574.9,155.3z"
				/>
		</g>
	</g>
	<g>
		<g>
			<path class="st2" d="M300.9,209.7c7,9,14.5,17.2,23.4,24.4c10.3,8.3,21.8,15,33.8,20.4c5.3,2.4,10.8,4.6,16.4,6.1
				c-11.5-1.3-22.9-4.8-33.7-8.9c-12.9-4.9-25.1-11.7-36.1-19.9c-5.1-3.8-9.7-8.1-14.3-12.5C293.9,216.1,297.4,212.9,300.9,209.7z"
				/>
		</g>
		<g>
			<path class="st2" d="M305.1,193.7c3.9,5.1,7.8,10,12.3,14.6c4.2,4.2,8.8,8,13.6,11.5c10.1,7.4,21.7,13.9,33.7,17.8
				c-20.1-2.6-39.9-11.4-56.5-22.9c-4.9-3.4-9.2-7.3-13.6-11.3C298.1,200.1,301.6,196.9,305.1,193.7z"/>
		</g>
		<g>
			<path class="st2" d="M309.3,177.7c6,8.4,12.7,15.8,20.8,22.2c7.5,5.9,15.9,11.1,24.7,14.7c-20.9-3.2-40.2-13.5-56-27.2
				C302.3,184.1,305.8,180.9,309.3,177.7z"/>
		</g>
		<g>
			<path class="st2" d="M313.5,161.8c8,12.2,18.6,22.7,31.4,29.8c-15.5-3-29.8-10.4-42-20.2C306.4,168.1,310,165,313.5,161.8z"/>
		</g>
		<g>
			<path class="st2" d="M317.7,145.8c4.5,8.5,10.2,16.2,17.3,22.7c-10.1-2.7-19.4-7.4-28-13.2C310.6,152.1,314.2,149,317.7,145.8z"
				/>
		</g>
	</g>
	<g>
		<g>
			<polygon class="st2" points="289.8,246.1 227.4,215.8 294.7,232.7 			"/>
		</g>
		<g>
			<polygon class="st2" points="286.2,265.7 252,241.2 292.5,252.9 			"/>
		</g>
		<g>
			<polygon class="st2" points="587.3,232.7 654.6,215.8 592.2,246.1 			"/>
		</g>
		<g>
			<polygon class="st2" points="589.5,252.9 630,241.2 595.7,265.7 			"/>
		</g>
	</g>
</g>
</svg>
