<?xml version="1.0" encoding="UTF-8"?>
<svg id="Capa_1" data-name="Capa 1" xmlns="http://www.w3.org/2000/svg" viewBox="0 0 144 53">
  <defs>
    <style>
      .cls-1 {
        fill: #241816;
      }

      .cls-1, .cls-2 {
        stroke-width: 0px;
      }

      .cls-2 {
        fill: #fff;
      }
    </style>
  </defs>
  <g>
    <path class="cls-1" d="m142.8,20.53c-3.73-2.2-7.48-4.28-11.19-6.18-2.15-1.1-4.33-2.13-7.42-2.75-1.76-.34-4.21-.82-7.23-.14-1.99.46-3.87,1.33-5.56,2.59-.48-.25-1.01-.41-1.51-.5-.6-.09-1.21-.09-1.83.02-.39-.82-.92-1.58-1.3-1.99-.32-.34-.62-.6-.85-.8-.5-.41-.6-.53-.62-.69.02-.02.02-.07.07-.11.11-.21.25-.53.37-1.05.23-1.03.07-1.9-.02-2.47-.09-.62-.23-.98-.32-1.26s-.14-.41-.14-.66c0-.21.07-.43.14-.69.05-.11.07-.23.09-.34.16-.66-.14-1.12-.46-1.33-.48-.3-1.14-.21-1.72.27-.21.18-.41.39-.57.64-.3.46-.37.82-.46,1.37-.05.23-.09.53-.18.89-.23,1.1-.57,1.95-.89,2.27-.18.16-.34.27-.55.39-.5.25-.96.23-1.49.21h-.25c-.37,0-.76,0-1.12.02l-.25.02c-.6.05-1.3.09-1.95.39-.02.02-.07.02-.09.05-.37.18-.71.41-1.01.66l-4.99,4.07-8.19,6.66c-1.05.85-1.1,1.92-.92,2.63l-23,18.79-.85-1.03c-.18-.23-.48-.34-.78-.3-.37.07-1.08.25-1.74.8-.25.21-.48.43-.66.71-.94,1.35-.62,2.79-.48,3.2.02.07.05.16.07.23l-1.42,1.14c-.48.39-.64,1.03-.41,1.6.32.8.76,1.53,1.3,2.2.53.64,1.14,1.21,1.85,1.67.5.34,1.17.3,1.65-.09l3.98-3.25c.05.07.09.14.14.18.21.25.43.48.71.69.5.37,1.19.37,1.69-.05l2.17-1.79c.3.18.71.18,1.05,0,.11-.05.21-.11.3-.18l.8-.64c.09-.07.16-.16.21-.23.25-.32.34-.73.23-1.08l18.88-15.43.37.43c.46.55,1.12.87,1.85.87.09,0,.18,0,.27-.02.3-.02.57-.05,1.1.21.57.27,1.37,1.12,1.92,1.69.41.43.69.73.94.89.73.48,1.67.53,2.43.09l14.58-8.01c.43-.23.8-.14,1.28-.05.5.11,1.14.27,1.85-.02.05-.02.09-.05.14-.07l1.97-1.3c1.83-1.26,2.56-1.58,2.84-1.67,1.6-.53,3.43-.21,5.49.98,1.69.98,2.56,2.45,4.03,4.85.8,1.33,1.42,2.54,1.76,3.34.25.55.73.96,1.33,1.1s1.21,0,1.69-.39c.57-.46,1.14-.92,1.69-1.4,1.3-1.08,2.61-2.15,3.91-3.23,1.83-1.51,3.64-3,5.52-4.51.5-.41.78-1.03.71-1.67-.05-.57-.41-1.17-.96-1.49Z"/>
    <g>
      <path class="cls-1" d="m54.02,45.43c-.11-.16-.25-.43-.37-.76-.05-.18-.39-1.42.37-2.49.66-.94,1.67-1.14,1.88-1.17.48.57.96,1.17,1.42,1.74-1.08.89-2.2,1.79-3.3,2.68Z"/>
      <path class="cls-1" d="m57.54,42.98h0l-3.32,2.7c-.07.05-.16.07-.25.07-.09-.02-.16-.07-.21-.14-.18-.27-.3-.55-.39-.85-.11-.37-.39-1.63.41-2.77.16-.23.34-.43.57-.62.57-.48,1.19-.64,1.51-.69.11-.02.23.02.3.11l1.42,1.74c.05.07.07.14.07.23-.02.07-.07.16-.11.21Zm-3.43,1.97l2.79-2.27-1.1-1.35c-.25.07-.66.21-1.05.53-.18.14-.32.3-.46.48-.64.92-.41,1.95-.34,2.24.05.11.09.25.16.37Z"/>
    </g>
    <path class="cls-2" d="m86.66,25.52l-31.24,25.52c-.21.16-.46.18-.69.05-.48-.32-1.1-.8-1.67-1.51-.6-.73-.96-1.44-1.19-1.99-.09-.23-.02-.5.16-.66l31.24-25.52,3.39,4.12Z"/>
    <path class="cls-1" d="m86.86,25.75l-31.24,25.52c-.3.25-.73.27-1.05.05-.66-.43-1.24-.96-1.74-1.56-.5-.62-.94-1.33-1.24-2.06-.14-.37-.05-.78.25-1.01l31.26-25.54c.14-.11.32-.09.43.05l3.36,4.12c.11.14.09.34-.05.43Zm-34.61,21.42c-.09.07-.11.18-.07.3.27.69.66,1.33,1.14,1.9.46.55,1.01,1.05,1.6,1.44.09.07.23.05.3-.02l31.01-25.31-2.98-3.64-31.01,25.34Z"/>
    <path class="cls-1" d="m53.35,49.37c-.37-.25-.78-.6-1.21-1.03.18.3.41.6.66.89.66.8,1.35,1.4,1.9,1.79.23.16.53.18.71.02l31.24-25.52-1.35-1.65-31.22,25.52c-.21.16-.48.16-.73-.02Z"/>
    <path class="cls-1" d="m87.05,28.13l-25.11,20.48c-.18.16-.48.16-.66.02-.18-.14-.37-.3-.55-.55-.16-.21-.27-.39-.34-.57-.11-.23-.05-.5.14-.66l25.09-20.51,1.44,1.79Z"/>
    <path class="cls-1" d="m87.25,28.35l-25.09,20.51c-.3.25-.73.25-1.05.02-.23-.16-.43-.37-.62-.6-.16-.18-.27-.41-.39-.62-.16-.37-.07-.78.23-1.03l25.09-20.51c.14-.11.32-.09.43.05l1.42,1.74c.11.14.09.32-.02.43Zm-26.53,18.75c-.09.07-.11.18-.07.27.09.18.18.34.32.5.14.18.32.34.5.48.09.07.21.07.3,0l24.86-20.3-1.03-1.26-24.88,20.3Z"/>
    <path class="cls-2" d="m84.48,27.03l-29.27,23.89c-.09.07-.23.07-.3-.02-.07-.09-.07-.23.02-.3l29.27-23.92c.09-.07.23-.07.3.02.09.11.07.23-.02.32Z"/>
    <path class="cls-1" d="m114.03,32.5c-.21.16-.41.3-.64.43l-2.84,1.58c-1.01.55-2.17.69-3.3.37s-2.04-1.05-2.59-2.06l-.34-.64c-1.01-1.83-.57-4.12,1.05-5.45.21-.16.41-.3.64-.43l2.84-1.58c1.01-.55,2.17-.69,3.3-.37s2.04,1.05,2.59,2.06l.34.64c1.01,1.81.57,4.12-1.05,5.45Zm-8.01-4.94c-1.24,1.01-1.56,2.75-.8,4.14l.34.64c.43.76,1.12,1.3,1.97,1.56.85.25,1.74.14,2.49-.27l2.84-1.58c.16-.09.32-.21.48-.32,1.24-1.01,1.56-2.75.8-4.14l-.34-.64c-.43-.76-1.12-1.3-1.97-1.56-.85-.25-1.74-.14-2.49.27l-2.84,1.58c-.16.09-.32.18-.48.32Z"/>
    <g>
      <path class="cls-1" d="m104.55,31.44c-1.03-1.97-4.17-1.44-4.17-1.44l5.58-3.07s-2.65,2.13-1.42,4.51Z"/>
      <path class="cls-1" d="m104.88,31.83s-.07.05-.09.07c-.25.14-.57.02-.71-.23-.85-1.63-3.59-1.17-3.62-1.17-.25.05-.5-.09-.57-.34-.09-.23.02-.5.23-.62l5.58-3.07c.23-.14.53-.07.69.16s.11.53-.09.69c-.09.07-2.29,1.9-1.28,3.87.11.23.05.5-.14.64Zm-2.49-2.33c.43.07.92.21,1.35.43.02-.48.16-.94.34-1.35l-1.69.92Z"/>
    </g>
    <g>
      <path class="cls-1" d="m114.6,27.3c-1.03-1.97-4.26-2.38-4.26-2.38l5.49-2.17s-2.45,2.17-1.24,4.55Z"/>
      <path class="cls-1" d="m114.95,27.69s-.07.05-.09.07c-.25.14-.57.02-.71-.23-.89-1.72-3.82-2.11-3.87-2.11-.23-.02-.41-.21-.46-.46-.02-.23.11-.46.32-.55l5.49-2.17c.23-.09.5,0,.64.21s.09.5-.09.66c-.09.07-2.13,1.97-1.12,3.94.14.23.07.5-.11.64Zm-2.88-2.91c.55.18,1.14.46,1.69.82.05-.64.27-1.21.53-1.72l-2.22.89Z"/>
    </g>
    <path class="cls-1" d="m108.86,25.22c.92,1.03,2.01,2.01,2.29,3.41.16.73.14,1.51.07,2.24-.02.18-.02.66-.34.53-.21-.09-.21-.55-.25-.73-.16-.71-.39-1.37-.76-1.99v.02c-.02-.07-.11-.14-.16-.18-.11-.11-.23-.21-.34-.32-.25-.21-.53-.37-.8-.53-.43-.25-.89-.48-1.3-.8-.82-.62-.64-1.95.27-2.17.53-.11.98.14,1.33.53Z"/>
    <path class="cls-1" d="m103.39,3.52c-.3.48-.25.76-.53,1.99-.41,1.95-.96,2.52-1.14,2.68-.3.27-.6.46-.78.55-.78.39-1.46.3-2.11.27-.3,0-.64,0-1.05.02-.64.05-1.4.07-1.97.37,1.51-.48,2.93.78,3.78,1.79l2.04,2.79,4.39,1.35s.6-.43,1.51-.8c-.32-.89-.98-1.95-1.42-2.4-.85-.89-1.58-1.17-1.69-1.97-.07-.48.25-.53.43-1.44.18-.87.07-1.63-.02-2.17-.18-1.14-.48-1.3-.48-2.08,0-.46.18-.87.27-1.21.18-.66-.69-.6-1.24.27Z"/>
    <path class="cls-1" d="m107.74,14.8s-.05.05-.09.05c-.87.34-1.44.76-1.44.76-.07.05-.18.07-.27.05l-4.39-1.35c-.07-.02-.11-.07-.16-.11l-2.04-2.79c-.66-.82-2.01-2.13-3.43-1.67-.16.05-.32-.02-.39-.18s0-.32.14-.39c.55-.27,1.24-.34,1.85-.39l.25-.02c.37-.02.73-.05,1.08-.02h.23c.55.02,1.12.05,1.72-.25.25-.11.48-.27.69-.48.41-.39.78-1.28,1.05-2.52.09-.39.14-.69.18-.92.09-.53.14-.8.39-1.19.14-.21.3-.39.46-.53.39-.32.82-.41,1.12-.23.11.07.37.27.23.78-.02.11-.07.23-.09.34-.07.25-.16.53-.16.82,0,.34.07.55.16.85.09.27.21.62.32,1.19.09.57.23,1.35.02,2.29-.09.48-.23.73-.34.94-.09.18-.11.25-.11.39.05.39.3.62.8,1.03.25.21.53.43.82.76.48.5,1.17,1.58,1.49,2.52.09.07.05.21-.07.3Zm-1.74.21c.21-.14.62-.37,1.17-.62-.32-.78-.87-1.63-1.26-2.01-.27-.3-.53-.5-.78-.71-.5-.41-.92-.78-1.01-1.42-.05-.34.05-.55.16-.76.09-.18.21-.39.27-.78.18-.82.07-1.51-.02-2.06-.09-.5-.18-.8-.27-1.08-.11-.32-.21-.6-.21-1.05,0-.39.09-.71.18-.98.02-.09.07-.21.09-.3,0-.05.02-.07.02-.09-.07,0-.18.05-.37.18-.11.09-.23.23-.34.39-.18.27-.21.46-.3.96-.05.23-.09.55-.18.94-.3,1.4-.71,2.33-1.21,2.84-.07.07-.14.14-.21.18-.21.16-.41.3-.64.41-.76.37-1.42.34-2.01.32h-.23c-.3,0-.62,0-.94.02.82.41,1.51,1.12,1.95,1.67l1.97,2.72,4.17,1.21Z"/>
    <path class="cls-2" d="m85.6,28.03l-24.24,19.8c-.09.07-.23.07-.3-.02-.07-.09-.07-.23.02-.3l24.24-19.8c.09-.07.23-.07.3.02.07.09.07.23-.02.3Z"/>
    <path class="cls-2" d="m104.1,16.43l-4.49-5.22c-.85-1.03-2.27-2.29-3.78-1.79-.3.16-.6.34-.87.57-6.02,4.92-11.4,9.32-13.16,10.76-1.14.94-.53,2.04-.53,2.04l5.79,7.1c.3.37.73.55,1.21.55.37,0,.85-.14,1.72.27,1.08.5,2.49,2.31,2.95,2.63.48.32,1.08.34,1.58.07l14.6-8.01c1.3-.69,2.15.34,3.18-.09l1.97-1.3c-5.08-1.51-5.58-6.77-2.88-8.97-.32-.21-.92-.53-1.72-.66-.98-.16-1.79.07-2.17.21-.92.37-1.51.8-1.51.8l-1.9,1.05Z"/>
    <path class="cls-1" d="m114.51,24.23l-.02.02-1.97,1.3s-.02.02-.05.02c-.55.23-1.05.11-1.53,0-.53-.11-1.01-.23-1.63.07l-14.6,8.01c-.6.32-1.33.3-1.9-.07-.21-.14-.48-.41-.85-.8-.6-.64-1.42-1.49-2.08-1.81-.64-.3-1.03-.27-1.35-.25h-.23c-.57,0-1.1-.25-1.44-.66l-5.79-7.1s-.02-.02-.02-.05c-.25-.46-.46-1.58.6-2.45l2.04-1.67c2.54-2.08,6.66-5.45,11.12-9.09.27-.23.6-.43.92-.6.02,0,.02-.02.05-.02,1.76-.57,3.34.94,4.12,1.9l4.3,5.01,1.69-.94c.09-.07.69-.48,1.56-.82.53-.18,1.35-.37,2.33-.23.64.11,1.28.34,1.83.71.09.05.14.14.14.25,0,.09-.05.21-.11.25-1.19.98-1.74,2.61-1.4,4.26.39,1.97,1.92,3.5,4.19,4.17.11.05.21.14.23.25,0,.14-.05.25-.14.32Zm-2.29.78l1.4-.92c-2.15-.82-3.59-2.4-4.01-4.42-.34-1.72.14-3.43,1.28-4.58-.39-.21-.8-.34-1.24-.41-.85-.14-1.56.02-2.01.18-.85.34-1.42.76-1.44.76l-.02.02-1.95,1.08c-.14.07-.3.05-.39-.07l-4.46-5.24c-.69-.82-2.01-2.15-3.41-1.72-.27.14-.55.32-.78.53-4.46,3.64-8.58,7-11.12,9.09l-2.04,1.67c-.85.71-.53,1.49-.46,1.63l5.77,7.07c.23.27.57.43.96.43h.21c.37-.02.87-.05,1.67.32.76.37,1.6,1.24,2.27,1.95.3.32.6.62.73.71.39.25.87.27,1.26.05l14.6-8.01c.82-.43,1.49-.27,2.06-.14.39.07.76.16,1.12.02Z"/>
    <path class="cls-1" d="m111.42,15.01c-.32-.21-.92-.53-1.72-.66-.98-.16-1.79.07-2.17.21-.92.37-1.51.8-1.51.8l-1.95,1.08-2.13-2.49-1.97,1.6,4.17,5.1c.23.3.18.71-.09.96l-10,8.17c-.3.23-.71.18-.96-.09l-4.17-5.1-3.73,3.04,1.85,2.27c.3.37.73.55,1.21.55.37,0,.85-.14,1.72.27,1.08.5,2.49,2.31,2.95,2.63.48.32,1.08.34,1.58.07l14.6-8.01c1.3-.69,2.15.34,3.18-.09l1.97-1.3c-5.04-1.53-5.52-6.8-2.84-8.99Z"/>
    <rect class="cls-1" x="82.43" y="22.59" width="4.83" height="1.49" transform="translate(4.38 58.94) rotate(-39.25)"/>
    <rect class="cls-1" x="83.48" y="24.31" width="4.83" height=".57" transform="translate(3.81 59.88) rotate(-39.24)"/>
    <rect class="cls-1" x="80.08" y="16.26" width="17.28" height=".82" transform="translate(9.46 59.89) rotate(-39.24)"/>
    <rect class="cls-2" x="87.56" y="28.04" width="3.94" height=".69" transform="translate(2.24 63.04) rotate(-39.25)"/>
    <path class="cls-2" d="m113.6,24.1l-1.42.94c-.34.11-.69.05-1.1-.05-.55-.14-1.24-.3-2.06.14l-14.6,8.03c-.39.23-.89.21-1.26-.05-.14-.09-.37-.34-.73-.71-.66-.71-1.51-1.58-2.27-1.95-.78-.37-1.28-.34-1.67-.32h-.21c-.39,0-.73-.16-.96-.43l-5.77-7.07-.02-.05c-.09-.21-.3-.96.48-1.58l2.17-1.79c2.56-2.08,6.59-5.4,10.99-8.97.23-.18.48-.37.76-.5l.07-.02c1.44-.41,2.86,1.05,3.39,1.72l4.65,5.42,2.2-1.21s.57-.41,1.44-.76c.46-.16,1.17-.32,2.01-.18.27.05.55.11.82.23l.41.16-.27.34c-.96,1.14-1.33,2.7-1.01,4.28.37,1.83,1.6,3.34,3.48,4.21l.48.16Zm-1.67.34l.39-.25c-1.79-.98-2.95-2.52-3.34-4.39-.32-1.6,0-3.18.87-4.44-.09-.02-.21-.05-.3-.07-.71-.11-1.3.02-1.69.16-.76.3-1.28.66-1.3.69l-.05.05-2.63,1.46-4.99-5.81c-.37-.43-1.58-1.81-2.7-1.51-.23.11-.43.27-.62.41-4.37,3.57-8.42,6.89-10.99,8.97l-2.17,1.79c-.39.32-.37.64-.3.82l5.72,7c.11.14.3.21.48.21h.16c.39-.02,1.03-.07,1.97.37.87.41,1.74,1.33,2.45,2.06.18.21.55.57.64.64.18.11.41.14.62.02l14.6-8.03c1.03-.53,1.92-.32,2.49-.18.34.05.55.09.69.05Z"/>
    <path class="cls-2" d="m96.41,11.35l7.78,9.52c2.36-1.92,2.52-5.61.37-8.24-2.15-2.63-5.81-3.2-8.15-1.28Z"/>
    <path class="cls-1" d="m104.37,21.1c-.14.11-.32.09-.43-.05l-7.78-9.52c-.11-.14-.09-.32.05-.43,2.47-2.01,6.32-1.42,8.58,1.33,2.27,2.77,2.08,6.66-.41,8.67Zm-7.53-9.7l7.37,9.02c1.99-1.85,2.04-5.2.09-7.6-1.97-2.38-5.24-3-7.46-1.42Z"/>
    <path class="cls-1" d="m97.09,12.17s.09-.05.23-.16c.05-.02.07-.05.11-.07s.09-.07.16-.09c.11-.07.25-.14.39-.21.14-.07.3-.14.46-.18.16-.07.34-.09.53-.14.09-.02.18-.02.3-.05.09-.02.21-.02.3-.02s.21,0,.3-.02l.3.02c.09,0,.21.02.3.05.09.02.21.02.3.05.09.02.18.05.27.07s.18.07.27.09c.09.02.16.07.25.11.09.05.16.07.23.11.14.09.27.16.39.27.07.05.11.09.16.14l.14.14c.09.09.16.16.21.23.11.14.16.21.16.21l-.18-.18c-.07-.07-.14-.14-.23-.21-.05-.05-.09-.07-.14-.11-.05-.05-.11-.07-.18-.11-.11-.09-.25-.14-.41-.23-.07-.05-.16-.07-.23-.09-.09-.02-.16-.07-.25-.09-.09-.02-.18-.05-.25-.07-.09-.02-.18-.02-.27-.05-.09-.02-.18-.02-.27-.02s-.18-.02-.27,0l-.27.02c-.09.02-.18.02-.27.05-.09,0-.18.05-.27.05-.09.02-.18.05-.25.07-.16.05-.32.11-.46.18s-.27.14-.39.21c-.11.07-.23.14-.32.21-.05.02-.09.05-.11.09-.05.02-.07.07-.11.09-.14.11-.21.16-.21.16l-.37-.5Z"/>
    <path class="cls-1" d="m102.56,18.88l.96,1.17c1.99-1.63,2.11-4.78.25-7.05-.16-.21-.34-.39-.53-.55,1.37,2.2,1.14,4.97-.69,6.43Z"/>
    <rect class="cls-1" x="48.16" y="35.83" width="38.57" height="1.14" transform="translate(-7.82 50.87) rotate(-39.24)"/>
    <path class="cls-2" d="m66.45,45.89l-1.12.92c-.07.07-.18.05-.25-.02l-2.29-2.79c-.07-.07-.05-.18.02-.25l1.12-.92c.07-.07.18-.05.25.02l2.29,2.79c.05.09.05.21-.02.25Z"/>
    <path class="cls-1" d="m66.47,46.28l-.8.64c-.3.25-.76.21-.98-.09l-2.01-2.47c-.25-.3-.21-.76.09-.98l.8-.64c.3-.25.76-.21.98.09l2.01,2.47c.25.3.21.73-.09.98Zm-3.3-2.43s-.05.07,0,.11l2.01,2.47s.07.05.11,0l.8-.64s.05-.07,0-.11l-2.01-2.47s-.07-.05-.11,0l-.8.64Z"/>
    <g>
      <path class="cls-1" d="m65.65,45.25l-.8.64c-.16.14-.37.16-.46.05l.64.78c.09.11.3.09.46-.05l.8-.64c.16-.14.23-.34.14-.43l-.64-.78c.09.11.02.3-.14.43Z"/>
      <path class="cls-1" d="m66.47,46.28l-.8.64c-.3.25-.71.25-.89,0l-.64-.78c-.11-.14-.09-.32.05-.43.11-.09.27-.09.39,0,.02,0,.05-.02.07-.05l.8-.64s.05-.05.07-.07c-.07-.14-.02-.27.09-.37.14-.11.32-.09.43.05l.64.78c.18.23.09.62-.21.87Zm-1.26.21s.05-.02.07-.05l.8-.64s.05-.05.05-.07l-.23-.3s-.05.05-.07.05l-.8.64s-.05.02-.07.05l.25.32Z"/>
    </g>
    <rect class="cls-1" x="91.85" y="22.18" width="12.98" height="3.59" transform="translate(7.01 67.62) rotate(-39.24)"/>
    <rect class="cls-1" x="87.48" y="17.27" width="12.98" height="2.72" transform="translate(9.41 63.64) rotate(-39.24)"/>
    <rect class="cls-1" x="88.83" y="20.2" width="13.23" height=".92" transform="translate(8.45 65.04) rotate(-39.24)"/>
    <rect class="cls-1" x="85.31" y="15.83" width="13.23" height=".82" transform="translate(10.45 61.81) rotate(-39.24)"/>
    <path class="cls-2" d="m86.11,20.11l.69.85,5.15-4.21c.71-.6.82-1.65.23-2.38l-.02-.02-5.97,4.88c-.25.21-.3.62-.07.89Z"/>
    <path class="cls-2" d="m91.62,13.68l-5.97,4.88c-.64.53-.73,1.44-.21,2.08l.69.85c.3.37.82.41,1.17.11l5.15-4.21c1.08-.87,1.24-2.47.34-3.55-.02-.02-.02-.05-.05-.05-.25-.34-.76-.39-1.12-.11h0Z"/>
    <path class="cls-2" d="m85.76,20.39l.69.85,5.42-4.44c.76-.62.89-1.72.3-2.43l-.02-.02-6.27,5.13c-.3.23-.34.64-.11.92Z"/>
    <path class="cls-1" d="m92.08,17.05l-5.42,4.44c-.14.11-.32.09-.43-.05l-.69-.85c-.34-.41-.27-1.03.16-1.37l6.27-5.13c.14-.11.32-.09.43.05l.02.02c.71.85.55,2.15-.34,2.88Zm-5.58,3.75l5.2-4.23c.55-.43.71-1.19.41-1.76l-6.02,4.92c-.16.14-.18.34-.07.48l.48.6Z"/>
    <path class="cls-1" d="m97.85,24.05l-5.36,4.37.66.82c.23.27.64.32.94.09l6.18-5.06c-.6-.73-1.69-.82-2.43-.23Z"/>
    <path class="cls-2" d="m97.85,24.05c.73-.62,1.83-.5,2.43.21l-6.18,5.06c-.27.23-.71.21-.94-.09l-.66-.82,5.36-4.35h0Zm-.27-.32l-5.36,4.37c-.18.14-.21.41-.07.6l.66.82c.37.46,1.05.53,1.51.14l6.18-5.06c.18-.14.21-.41.07-.6-.71-.92-2.06-1.03-3-.27h0Z"/>
    <path class="cls-2" d="m93.87,19.15l-5.33,4.35,2.15,2.63,5.33-4.35c.73-.6.87-1.69.27-2.43-.6-.71-1.69-.8-2.43-.21Z"/>
    <path class="cls-2" d="m93.41,18.6l-5.33,4.35c-.32.25-.37.71-.11,1.03l2.15,2.63c.25.32.71.37,1.03.11l5.33-4.35c1.05-.87,1.21-2.4.37-3.43-.85-1.08-2.38-1.21-3.43-.34h0Z"/>
    <path class="cls-2" d="m93.84,19.18l-5.45,4.44,2.15,2.63,5.42-4.44c.76-.62.89-1.72.3-2.43-.57-.73-1.67-.82-2.43-.21Z"/>
    <path class="cls-1" d="m96.18,22.06l-5.42,4.44c-.14.11-.32.09-.43-.05l-2.15-2.63c-.11-.14-.09-.32.05-.43l5.42-4.44c.89-.73,2.17-.62,2.88.23.71.87.55,2.15-.34,2.88Zm-5.58,3.75l5.2-4.23c.62-.5.73-1.4.25-1.99-.48-.6-1.37-.66-2.01-.16l-5.2,4.23,1.76,2.15Z"/>
    <path class="cls-1" d="m96.59,20c-.07-.23-.16-.43-.32-.62-.6-.73-1.69-.8-2.45-.21l-5.42,4.44.87,1.05,5.42-4.44c.57-.46,1.3-.53,1.9-.23Z"/>
    <path class="cls-1" d="m96.8,20.25h0c-.09.07-.23.09-.34.05-.5-.25-1.12-.16-1.56.21l-5.42,4.44c-.14.11-.32.09-.43-.05l-.87-1.05c-.11-.14-.09-.32.05-.43l5.42-4.44c.89-.73,2.17-.62,2.88.23.18.21.3.46.37.73.05.11,0,.23-.09.32Zm-7.48,3.98l5.2-4.23c.43-.34.96-.5,1.49-.48-.5-.53-1.35-.57-1.95-.09l-5.22,4.23.48.57Z"/>
    <path class="cls-2" d="m95.74,19.36s-.02,0-.09-.02c-.07,0-.16-.02-.27-.02-.23,0-.57.05-.89.23-.09.05-.16.09-.25.16-.07.07-.16.14-.25.21-.18.16-.37.32-.55.48-.18.16-.39.34-.6.5-.21.16-.41.34-.62.53-.85.69-1.69,1.37-2.31,1.88-.32.25-.57.46-.78.62-.18.14-.3.23-.3.23l-.27-.32s.11-.09.3-.23c.18-.16.43-.37.76-.62.64-.53,1.46-1.21,2.31-1.9.21-.16.41-.34.64-.5.21-.16.41-.32.62-.48.21-.16.39-.3.6-.43.09-.07.18-.14.3-.21.09-.07.21-.11.3-.16.41-.16.78-.14,1.03-.07.11.02.21.07.27.09.05.05.07.05.07.05Z"/>
    <path class="cls-1" d="m104.42,21.99l-10,8.17c-.5.41-1.26.34-1.69-.16l-7.55-9.25c-.41-.5-.34-1.26.16-1.69l10-8.17c.5-.41,1.26-.34,1.69.16l7.55,9.25c.43.53.37,1.28-.16,1.69Zm-18.4-2.13c-.07.05-.07.16-.02.23l7.55,9.25c.05.07.16.07.23.02l10-8.17c.07-.05.07-.16.02-.23l-7.55-9.25c-.05-.07-.16-.07-.23-.02l-10,8.17Z"/>
    <path class="cls-1" d="m142.39,21.24c-4.39-2.59-8.17-4.62-11.17-6.16-1.85-.96-4.07-2.06-7.21-2.68-1.81-.37-4.1-.78-6.89-.16-2.7.62-4.62,1.92-5.68,2.77-2.7,2.2-2.2,7.46,2.88,8.97,1.08-.73,2.36-1.56,3.02-1.79,2.84-.94,5.49.66,6.16,1.08,1.85,1.1,2.82,2.68,4.33,5.13.76,1.21,1.35,2.43,1.81,3.41.32.69,1.17.87,1.76.41,3.73-3,7.39-6.11,11.12-9.11.62-.5.55-1.46-.14-1.88Z"/>
    <path class="cls-1" d="m133.3,31.08c-.57.46-1.14.92-1.69,1.37-.34.27-.8.39-1.24.27s-.8-.39-.98-.8c-.37-.8-.98-2.04-1.81-3.39-1.51-2.47-2.43-3.96-4.21-5.01l-.05-.02c-2.13-1.26-4.1-1.6-5.86-1.01-.37.11-1.14.53-2.95,1.74-.07.05-.18.07-.27.05-2.49-.73-4.17-2.43-4.62-4.65-.39-1.88.25-3.75,1.63-4.88,1.74-1.4,3.71-2.36,5.81-2.82,2.93-.66,5.31-.18,7.03.16,3.04.6,5.17,1.63,7.3,2.7,3.71,1.9,7.46,3.96,11.17,6.16.41.25.69.66.71,1.14.05.48-.16.94-.53,1.24h0c-1.85,1.51-3.68,3-5.52,4.51-1.3,1.1-2.61,2.17-3.91,3.23Zm-19.04-7.44c1.42-.96,2.43-1.56,2.98-1.74,1.95-.64,4.07-.3,6.39,1.08l.05.02c1.92,1.14,2.93,2.77,4.44,5.24.85,1.37,1.46,2.63,1.83,3.46.11.23.32.39.57.46s.5,0,.71-.16c1.88-1.51,3.75-3.07,5.61-4.6,1.83-1.51,3.66-3.02,5.52-4.51h0c.23-.18.32-.43.3-.71-.02-.27-.16-.5-.41-.64-3.71-2.17-7.46-4.26-11.15-6.13-1.65-.85-3.94-2.01-7.14-2.65-1.67-.34-3.96-.78-6.77-.16-2.01.46-3.89,1.37-5.56,2.7-1.19.98-1.74,2.61-1.4,4.26.41,1.92,1.88,3.41,4.05,4.1Z"/>
    <path class="cls-2" d="m130.26,31.54s-.34-.6-.87-1.49c-.25-.43-.57-.96-.92-1.51-.34-.55-.71-1.12-1.08-1.72-.18-.3-.37-.57-.55-.87-.18-.27-.37-.55-.57-.8-.37-.53-.76-.96-1.12-1.33-.18-.18-.34-.34-.5-.48s-.3-.25-.41-.34c-.25-.18-.39-.3-.39-.3,0,0,.05.02.11.05.07.05.18.09.32.16.14.07.3.16.46.3.18.11.37.25.57.43.21.16.41.37.62.57s.43.46.62.71c.21.25.41.53.6.8.21.27.39.57.57.87.37.6.73,1.17,1.03,1.74.32.57.6,1.12.8,1.58.23.48.39.87.48,1.17.16.3.23.46.23.46Z"/>
    <path class="cls-2" d="m115.04,13.48s.09-.05.27-.11.43-.18.78-.3.76-.25,1.26-.37c.48-.11,1.05-.23,1.67-.27s1.3-.07,2.01-.02,1.46.16,2.22.3c.39.07.78.14,1.17.23.39.09.78.18,1.19.3.78.23,1.58.5,2.33.8,1.53.64,3,1.42,4.35,2.15,1.37.73,2.63,1.44,3.68,2.06,1.08.62,1.95,1.14,2.56,1.53.62.37.96.6.96.6,0,0-1.46-.76-3.64-1.9-1.1-.57-2.38-1.24-3.75-1.95-.69-.34-1.4-.71-2.13-1.08-.73-.37-1.46-.71-2.22-1.01-.76-.32-1.53-.57-2.29-.8-.39-.11-.78-.21-1.14-.3-.39-.09-.78-.18-1.14-.25-.76-.16-1.49-.27-2.17-.34s-1.35-.09-1.97-.05c-.62.02-1.17.09-1.67.18-.5.09-.92.18-1.26.27-.71.18-1.08.32-1.08.32Z"/>
    <path class="cls-2" d="m130.46,16.57c-1.58-.82-3.75-1.92-6.77-2.52-1.65-.32-3.68-.73-6.2-.16-1.53.34-2.98.98-4.3,1.9-.27.18-.34.57-.11.85l3.11,3.8c.16.18.41.25.64.18h0c2.33-.78,4.85-.37,7.51,1.19l.05.02c2.22,1.3,3.34,3.14,4.9,5.7.5.85.94,1.65,1.3,2.33.16.32.6.41.89.18.21-.16.41-.34.62-.5,1.3-1.08,2.63-2.15,3.91-3.2s2.61-2.15,3.91-3.23c.11-.09.25-.21.37-.3.32-.25.27-.76-.07-.96-3.3-1.85-6.55-3.64-9.75-5.29Z"/>
    <path class="cls-2" d="m111.81,15.51l-.07.07s-.11.11-.18.23c-.05.05-.09.09-.11.16-.05.07-.09.11-.14.21-.05.07-.09.16-.14.23-.05.09-.09.18-.14.27-.09.18-.16.41-.21.64-.07.23-.09.48-.11.73-.02.25-.02.53,0,.78,0,.14.05.27.05.39.02.14.07.27.11.41.07.25.18.5.3.76s.25.46.41.66.32.39.48.57c.16.16.34.32.5.46s.32.25.46.34.27.18.37.25c.21.14.34.21.34.21,0,0-.02,0-.09-.02-.07-.02-.16-.05-.27-.09s-.25-.09-.41-.18c-.16-.07-.34-.16-.53-.27s-.39-.25-.57-.41c-.21-.16-.39-.34-.57-.57-.16-.23-.34-.46-.48-.71s-.25-.53-.34-.82c-.05-.16-.07-.27-.09-.43-.02-.16-.05-.3-.05-.46-.02-.3-.02-.6.02-.87.05-.27.09-.55.18-.78.07-.25.18-.46.3-.64s.23-.37.34-.48c.05-.07.11-.14.16-.18s.11-.11.16-.14c.09-.09.18-.14.23-.18.07-.09.09-.11.09-.11Z"/>
    <path class="cls-2" d="m113.44,18.92c.23.27.18.71-.09.94s-.71.18-.94-.09-.18-.71.09-.94c.3-.23.71-.18.94.09Z"/>
    <path class="cls-1" d="m131.81,27.48c.23.27.18.71-.09.94s-.71.18-.94-.09-.18-.71.09-.94c.3-.25.71-.21.94.09Z"/>
    <path class="cls-1" d="m138.59,21.95c.23.27.18.71-.09.94s-.71.18-.94-.09-.18-.71.09-.94.71-.18.94.09Z"/>
    <path class="cls-2" d="m107.96,21.08c.34.43.3,1.08-.14,1.42-.43.34-1.08.3-1.42-.14-.34-.43-.3-1.08.14-1.42.43-.37,1.08-.3,1.42.14Z"/>
    <path class="cls-2" d="m101.6,26.2c.25.32.21.78-.11,1.03s-.78.21-1.03-.11-.21-.78.11-1.03c.32-.25.78-.21,1.03.11Z"/>
    <path class="cls-2" d="m98.35,9.31s.14-.02.41-.02c.25,0,.62,0,1.05-.02.43-.02.94-.05,1.4-.25.11-.05.23-.11.32-.21.05-.02.09-.09.16-.14l.14-.14c.18-.18.34-.41.48-.66.14-.23.25-.5.37-.76.09-.25.18-.53.25-.78.14-.53.23-1.03.32-1.46s.16-.8.25-1.05c.05-.11.09-.21.14-.27.05-.07.07-.09.07-.09,0,0-.02.02-.05.09-.02.07-.05.16-.07.3-.05.25-.07.62-.09,1.05-.02.43-.09.96-.18,1.51-.07.27-.11.55-.23.85-.09.27-.23.57-.37.82-.16.27-.34.5-.55.73l-.16.16c-.07.05-.09.09-.18.14-.14.09-.27.16-.41.23-.27.11-.57.16-.82.18s-.5,0-.73-.02c-.43-.05-.8-.11-1.05-.14-.3-.02-.46-.05-.46-.05Z"/>
    <path class="cls-2" d="m104.42,11.42s.05.02.16.05c.09.05.23.11.37.21s.32.21.48.37c.16.14.32.3.48.48.3.34.55.76.71,1.05.16.32.21.55.21.55l-.11-.11-.3-.3c-.07-.07-.11-.14-.18-.21-.07-.07-.14-.14-.21-.23-.14-.16-.3-.32-.43-.5-.14-.16-.3-.34-.43-.5-.14-.16-.27-.32-.37-.43-.21-.23-.37-.41-.37-.41Z"/>
    <path class="cls-2" d="m54.06,44.6s-.02-.05-.09-.14c-.02-.05-.05-.11-.07-.18-.02-.07-.05-.16-.07-.25-.02-.09-.02-.18-.05-.3v-.34c.02-.11.02-.23.07-.37.02-.11.07-.23.11-.34s.11-.23.16-.34c.07-.11.14-.21.21-.3.07-.09.16-.18.23-.25s.16-.14.23-.18.14-.09.21-.14c.07-.05.11-.07.18-.07.09-.05.16-.05.16-.05l-.11.11c-.07.07-.16.18-.27.32-.05.07-.11.14-.16.23-.07.07-.11.16-.16.25-.09.18-.21.37-.3.57-.05.09-.09.21-.11.3-.02.05-.02.09-.05.16-.02.05-.02.09-.05.16-.02.09-.05.21-.07.3,0,.09-.02.18-.02.27s-.02.16-.02.23v.18c.05.09.05.16.05.16Z"/>
    <rect class="cls-1" x="63.09" y="43.78" width="1.81" height=".57" transform="translate(-13.45 50.42) rotate(-39.25)"/>
    <rect class="cls-1" x="106" y="21.52" width="2.38" height=".41" transform="translate(69.66 124.45) rotate(-81.39)"/>
    <path class="cls-1" d="m115.66,15.01s.02.21.05.5v.5c0,.18-.02.39-.05.57-.02.21-.05.39-.07.57s-.07.37-.09.5c-.07.3-.14.48-.14.48,0,0-.02-.21-.05-.5v-.5c0-.18.02-.39.05-.57.02-.21.05-.39.07-.57s.07-.37.09-.5c.07-.27.14-.48.14-.48Z"/>
    <path class="cls-1" d="m117.35,14.58s.02.34,0,.82c0,.25-.02.55-.05.85-.02.32-.07.64-.09.96-.05.32-.09.66-.14.96-.05.3-.09.6-.14.85-.09.48-.18.82-.18.82,0,0-.02-.34,0-.82,0-.25.02-.55.05-.85.02-.32.07-.64.09-.96.05-.32.09-.66.14-.96.05-.3.09-.6.14-.85.09-.5.18-.82.18-.82Z"/>
    <path class="cls-1" d="m119.07,14.14s0,.34-.02.87c0,.25-.02.55-.07.87-.02.32-.07.66-.09,1.01-.05.34-.09.69-.14,1.01-.05.32-.09.62-.16.87-.09.5-.18.85-.18.85,0,0,0-.34.02-.87,0-.25.02-.55.07-.87.02-.32.07-.66.09-1.01.05-.34.09-.69.14-1.01.05-.32.09-.62.16-.87.09-.53.18-.85.18-.85Z"/>
    <path class="cls-1" d="m120.55,14.19s0,.34-.02.82c0,.25-.02.53-.05.85-.02.3-.07.64-.09.96-.05.32-.09.66-.14.96-.05.3-.09.6-.16.82-.09.48-.18.8-.18.8,0,0-.02-.34.02-.82,0-.25.02-.53.05-.85.02-.32.07-.64.09-.96.05-.32.09-.66.14-.96.05-.3.09-.6.16-.82.09-.48.18-.8.18-.8Z"/>
    <path class="cls-1" d="m122.18,14.16s.02.34,0,.87c0,.27-.02.57-.05.89-.02.32-.05.69-.09,1.03s-.07.69-.11,1.03c-.05.32-.09.62-.14.89-.09.53-.18.87-.18.87,0,0-.02-.34,0-.87,0-.27.02-.57.05-.89.02-.32.05-.69.09-1.03s.07-.69.14-1.03c.05-.32.09-.62.14-.89.07-.53.16-.87.16-.87Z"/>
    <path class="cls-1" d="m123.69,14.55s.02.37,0,.94c0,.27-.02.62-.05.96-.02.34-.05.73-.09,1.1s-.09.73-.14,1.1c-.05.34-.09.66-.14.94-.09.55-.18.92-.18.92,0,0-.02-.37,0-.94,0-.27.02-.62.05-.96.02-.34.07-.73.09-1.1.05-.37.09-.73.14-1.1.05-.34.09-.66.14-.94.09-.55.18-.92.18-.92Z"/>
    <path class="cls-1" d="m125.27,15.15s0,.39-.02.96c0,.27-.02.62-.07.98-.02.37-.07.73-.09,1.12-.05.39-.09.76-.14,1.1-.05.34-.09.69-.16.96-.09.57-.18.94-.18.94,0,0,0-.39.02-.96,0-.27.02-.62.07-.98.02-.37.07-.73.09-1.12.05-.39.09-.76.14-1.1.05-.34.09-.69.16-.96.09-.57.18-.94.18-.94Z"/>
    <path class="cls-1" d="m126.6,15.42s0,.43-.05,1.05c-.02.32-.05.69-.09,1.08-.02.39-.09.8-.11,1.24-.05.41-.09.82-.16,1.24-.05.39-.11.76-.16,1.08-.09.62-.18,1.03-.18,1.03,0,0-.02-.43,0-1.05,0-.32.02-.69.07-1.08.02-.21.02-.41.05-.62.02-.21.05-.41.07-.62.05-.41.09-.85.16-1.24s.11-.76.18-1.08c.11-.64.23-1.03.23-1.03Z"/>
    <path class="cls-1" d="m128.4,16.16v.32c-.02.21-.02.5-.05.87-.02.34-.07.78-.11,1.21-.05.43-.09.92-.16,1.37-.07.48-.11.94-.18,1.37s-.14.85-.21,1.19c-.07.34-.14.64-.16.85-.05.21-.07.32-.07.32v-.32c.02-.21.02-.5.05-.87.02-.34.07-.78.11-1.21.05-.43.09-.92.16-1.37.07-.48.11-.94.18-1.37s.14-.85.21-1.19c.07-.34.14-.64.16-.85.02-.21.07-.32.07-.32Z"/>
    <path class="cls-1" d="m129.85,16.8s0,.14-.02.37-.02.57-.07.98c-.02.41-.07.87-.14,1.37-.05.5-.11,1.05-.18,1.58-.07.53-.14,1.08-.23,1.58-.07.5-.16.96-.23,1.37s-.14.73-.18.96-.07.37-.07.37c0,0,0-.14.02-.37s.02-.57.07-.98c.02-.41.07-.87.14-1.37.05-.5.11-1.05.18-1.58.07-.53.14-1.08.23-1.58.07-.5.16-.96.23-1.37s.14-.73.18-.96.07-.37.07-.37Z"/>
    <path class="cls-1" d="m131.33,17.6s0,.16-.02.41c-.02.27-.02.64-.07,1.1-.02.46-.07.98-.14,1.56-.05.57-.11,1.17-.18,1.79-.07.6-.14,1.21-.23,1.79-.07.57-.16,1.1-.23,1.56s-.14.82-.18,1.1c-.05.25-.07.41-.07.41,0,0,0-.16.02-.41.02-.27.02-.64.07-1.1.02-.46.07-.98.14-1.56.05-.57.11-1.17.18-1.79.07-.6.14-1.21.23-1.79.07-.57.16-1.1.23-1.56s.14-.82.18-1.1c.02-.25.07-.41.07-.41Z"/>
    <path class="cls-1" d="m132.98,18.33s0,.14-.02.39c-.02.25-.02.6-.07,1.01-.02.41-.07.92-.11,1.44s-.11,1.08-.18,1.65c-.07.55-.14,1.12-.21,1.63-.07.53-.14,1.01-.21,1.42-.07.41-.14.76-.18,1.01-.05.25-.07.39-.07.39,0,0,0-.14.02-.39.02-.25.02-.6.07-1.01.02-.41.07-.92.11-1.44s.11-1.08.18-1.65c.07-.55.14-1.12.21-1.63.07-.53.14-1.01.21-1.42.07-.41.14-.76.18-1.01.02-.25.07-.39.07-.39Z"/>
    <path class="cls-1" d="m134.35,19.18v.37c0,.23-.02.55-.05.96-.02.39-.05.85-.09,1.35-.05.48-.09,1.01-.14,1.53-.05.53-.11,1.05-.18,1.53-.07.48-.11.94-.18,1.33-.05.39-.11.71-.16.94s-.07.37-.07.37v-.37c0-.23.02-.55.05-.96.02-.39.05-.85.09-1.35.05-.48.09-1.01.14-1.53.05-.53.11-1.05.18-1.53.07-.48.11-.94.18-1.33s.11-.71.16-.94c.05-.25.07-.37.07-.37Z"/>
    <path class="cls-1" d="m135.93,20.16s.02.34,0,.85c0,.25-.02.55-.05.85-.02.32-.07.64-.09.98-.05.32-.09.66-.14.96-.05.32-.09.6-.14.85-.09.5-.18.82-.18.82,0,0-.02-.34,0-.85,0-.25.02-.55.05-.85.02-.32.07-.64.09-.98.05-.32.09-.66.14-.96.05-.32.09-.6.14-.85.09-.48.18-.82.18-.82Z"/>
    <path class="cls-1" d="m118.33,14.64s.41,0,1.01.02c.3.02.66.02,1.03.07.37.02.78.07,1.17.11.39.05.8.09,1.17.16.37.05.71.11,1.01.16.6.11.98.21.98.21,0,0-.41,0-1.01-.02-.3-.02-.66-.05-1.03-.07s-.78-.07-1.17-.11c-.39-.05-.8-.09-1.17-.16-.37-.05-.71-.11-1.01-.16-.6-.11-.98-.21-.98-.21Z"/>
    <path class="cls-1" d="m114.76,15.81s.25,0,.71.02c.23,0,.5.02.82.05.32.02.69.02,1.08.07.78.07,1.69.14,2.65.23.48.05.98.11,1.49.16.5.07,1.03.14,1.56.18,1.03.14,2.06.27,3.04.39.48.07.96.11,1.4.18.43.05.87.11,1.26.16.78.09,1.42.18,1.88.21.46.05.71.09.71.09,0,0-.25,0-.71-.02-.23,0-.5-.02-.82-.05-.32-.02-.69-.02-1.08-.07-.78-.07-1.69-.14-2.65-.23-.48-.05-.98-.11-1.51-.16-.5-.07-1.03-.14-1.56-.18-1.03-.14-2.06-.27-3.04-.39-.48-.07-.96-.11-1.4-.18-.43-.07-.87-.11-1.26-.16-.78-.09-1.42-.18-1.88-.23-.41-.05-.69-.07-.69-.07Z"/>
    <path class="cls-1" d="m114.53,17.35s.32.02.87.05c.55.05,1.35.07,2.31.16.48.05.98.09,1.53.14.55.05,1.12.09,1.72.16,1.19.11,2.45.25,3.73.39,1.26.14,2.54.3,3.73.43.6.07,1.17.14,1.72.21.55.07,1.05.11,1.53.16.96.09,1.74.21,2.29.27s.87.11.87.11c0,0-.32-.02-.87-.05-.55-.05-1.35-.09-2.31-.16-.48-.05-.98-.07-1.53-.11s-1.12-.09-1.72-.16c-1.19-.11-2.45-.25-3.73-.39-5.08-.64-10.14-1.21-10.14-1.21Z"/>
    <path class="cls-1" d="m121.29,19.52s.25.02.69.05c.43.05,1.08.09,1.83.18.76.09,1.63.18,2.56.3.94.11,1.95.25,2.93.37,1.01.14,1.99.25,2.93.37.48.05.92.11,1.35.16s.85.09,1.21.11c.76.07,1.37.14,1.83.16.43.05.69.05.69.05h-1.49c-.3,0-.66-.02-1.03-.05-.76-.05-1.65-.09-2.59-.18-.48-.05-.96-.09-1.46-.16s-1.01-.11-1.49-.18c-1.01-.14-1.99-.27-2.93-.41s-1.81-.27-2.56-.39-1.37-.23-1.81-.3c-.41-.02-.66-.07-.66-.07Z"/>
    <path class="cls-1" d="m116.02,19.06s.21-.05.48-.05c.3-.02.69-.02,1.08,0s.78.09,1.05.14c.3.07.48.11.48.11,0,0-.21.05-.48.05-.3.02-.69.02-1.08,0s-.78-.09-1.05-.14c-.27-.05-.48-.11-.48-.11Z"/>
    <path class="cls-1" d="m125.34,21.65s.18,0,.5.02.78.02,1.33.05c.55.02,1.19.07,1.85.11.69.05,1.4.11,2.13.18.37.05.73.07,1.08.11.37.02.71.07,1.05.11.69.07,1.3.16,1.85.23.55.07.98.16,1.3.21s.5.09.5.09c0,0-.18,0-.5-.02s-.78-.05-1.3-.09c-.55-.05-1.17-.09-1.85-.14-.69-.05-1.4-.11-2.13-.18s-1.44-.14-2.13-.21c-.69-.07-1.3-.14-1.85-.21-.55-.07-.98-.14-1.3-.18-.34-.07-.53-.09-.53-.09Z"/>
    <path class="cls-1" d="m127.24,23.48s.16,0,.43.02.66.02,1.14.05c.48.02,1.03.07,1.6.11.6.05,1.21.09,1.85.16.62.07,1.26.14,1.83.21.6.07,1.14.14,1.6.21.46.07.85.14,1.12.16.27.05.43.07.43.07h-.43c-.27-.02-.66-.02-1.14-.05-.48-.02-1.03-.07-1.6-.11-.6-.05-1.21-.09-1.85-.16-.62-.07-1.26-.14-1.83-.21-.6-.07-1.14-.14-1.6-.21-.46-.07-.85-.14-1.12-.16-.27-.07-.43-.09-.43-.09Z"/>
    <path class="cls-1" d="m128.59,25.13s.41,0,1.03.02c.3.02.66.02,1.05.07.39.02.78.07,1.19.11s.8.09,1.19.14c.39.05.73.11,1.03.16.6.09,1.01.21,1.01.21,0,0-.41,0-1.03-.02-.3-.02-.66-.02-1.05-.07-.39-.02-.78-.07-1.19-.11s-.8-.09-1.19-.14c-.39-.05-.73-.11-1.03-.16-.6-.11-1.01-.21-1.01-.21Z"/>
  </g>
  <g>
    <path class="cls-1" d="m1.44,20.53c3.73-2.2,7.48-4.28,11.19-6.18,2.15-1.1,4.33-2.13,7.42-2.75,1.76-.34,4.21-.82,7.23-.14,1.99.46,3.87,1.33,5.56,2.59.48-.25,1.01-.41,1.51-.5.6-.09,1.21-.09,1.83.02.39-.82.92-1.58,1.3-1.99.32-.34.62-.6.85-.8.5-.41.6-.53.62-.69-.02-.02-.02-.07-.07-.11-.11-.21-.25-.53-.37-1.05-.23-1.03-.07-1.9.02-2.47.09-.62.23-.98.32-1.26s.14-.41.14-.66c0-.21-.07-.43-.14-.69-.05-.11-.07-.23-.09-.34-.16-.66.14-1.12.46-1.33.48-.3,1.14-.21,1.72.27.21.18.41.39.57.64.3.46.37.82.46,1.37.05.23.09.53.18.89.23,1.1.57,1.95.89,2.27.18.16.34.27.55.39.5.25.96.23,1.49.21h.25c.37,0,.76,0,1.12.02l.25.02c.6.05,1.3.09,1.95.39.02.02.07.02.09.05.37.18.71.41,1.01.66l4.99,4.07,8.17,6.68c1.05.85,1.1,1.92.92,2.63l23,18.79.85-1.03c.18-.23.48-.34.78-.3.37.07,1.08.25,1.74.8.25.21.48.43.66.71.94,1.35.62,2.79.48,3.2-.02.07-.05.16-.07.23l1.42,1.14c.48.39.64,1.03.41,1.6-.32.8-.76,1.53-1.3,2.2-.53.64-1.14,1.21-1.85,1.67-.5.34-1.17.3-1.65-.09l-3.98-3.25c-.05.07-.09.14-.14.18-.21.25-.43.48-.71.69-.5.37-1.19.37-1.69-.05l-2.17-1.79c-.3.18-.71.18-1.05,0-.11-.05-.21-.11-.3-.18l-.8-.64c-.09-.07-.16-.16-.21-.23-.25-.32-.34-.73-.23-1.08l-18.88-15.43-.37.43c-.46.55-1.12.87-1.85.87-.09,0-.18,0-.27-.02-.3-.02-.57-.05-1.1.21-.57.27-1.37,1.12-1.92,1.69-.41.43-.69.73-.94.89-.73.48-1.67.53-2.43.09l-14.58-8.01c-.43-.23-.8-.14-1.28-.05-.5.11-1.14.27-1.85-.02-.05-.02-.09-.05-.14-.07l-1.97-1.3c-1.83-1.26-2.56-1.58-2.84-1.67-1.6-.53-3.43-.21-5.49.98-1.69.98-2.56,2.45-4.03,4.85-.8,1.33-1.42,2.54-1.76,3.34-.25.55-.73.96-1.33,1.1s-1.21,0-1.69-.39c-.57-.46-1.14-.92-1.69-1.4-1.3-1.08-2.61-2.15-3.91-3.23-1.83-1.51-3.64-3-5.52-4.51-.5-.41-.78-1.03-.71-1.67.07-.6.43-1.19.98-1.51Z"/>
    <g>
      <path class="cls-1" d="m90.23,45.43c.11-.16.25-.43.37-.76.05-.18.39-1.42-.37-2.49-.66-.94-1.67-1.14-1.88-1.17-.48.57-.96,1.17-1.42,1.74,1.08.89,2.2,1.79,3.3,2.68Z"/>
      <path class="cls-1" d="m86.59,42.77c0-.09.02-.16.07-.23l1.42-1.74c.07-.09.18-.14.3-.11.32.05.94.21,1.51.69.21.18.41.39.57.62.8,1.14.53,2.4.41,2.77-.09.3-.23.57-.39.85-.05.07-.14.11-.21.14-.09.02-.18,0-.25-.07l-3.32-2.7h0s-.09-.14-.11-.21Zm3.68,1.81c.09-.3.32-1.3-.34-2.24-.14-.18-.27-.34-.46-.48-.39-.32-.78-.46-1.05-.53l-1.1,1.35,2.79,2.27c.09-.11.14-.25.16-.37Z"/>
    </g>
    <path class="cls-2" d="m57.59,25.52l31.24,25.52c.21.16.46.18.69.05.48-.32,1.1-.8,1.67-1.51.6-.73.96-1.44,1.19-1.99.09-.23.02-.5-.16-.66l-31.29-25.52-3.34,4.12Z"/>
    <path class="cls-1" d="m57.34,25.31l3.36-4.12c.11-.14.3-.16.43-.05l31.24,25.52c.3.25.41.66.25,1.01-.3.76-.71,1.44-1.24,2.06-.5.6-1.08,1.12-1.74,1.56-.32.21-.76.18-1.05-.05l-31.22-25.5c-.14-.09-.16-.3-.05-.43Zm3.64-3.48l-2.98,3.64,31.01,25.31c.09.07.21.07.3.02.6-.39,1.14-.89,1.6-1.44.48-.57.85-1.21,1.14-1.9.05-.11.02-.23-.07-.3l-31.01-25.34Z"/>
    <path class="cls-1" d="m90.89,49.37c.37-.25.78-.6,1.21-1.03-.18.3-.41.6-.66.89-.66.8-1.35,1.4-1.9,1.79-.23.16-.53.18-.71.02l-31.24-25.52,1.35-1.65,31.24,25.52c.18.16.46.16.71-.02Z"/>
    <path class="cls-1" d="m57.2,28.13l25.09,20.48c.18.16.48.16.66.02.18-.14.37-.3.55-.55.16-.21.27-.39.34-.57.11-.23.05-.5-.14-.66l-25.09-20.51-1.42,1.79Z"/>
    <path class="cls-1" d="m56.95,27.92l1.42-1.74c.11-.14.3-.16.43-.05l25.09,20.51c.3.25.41.69.23,1.03-.11.23-.23.43-.39.62-.18.23-.39.43-.62.6-.32.23-.76.23-1.05-.02l-25.09-20.51c-.11-.11-.11-.3-.02-.43Zm1.72-1.12l-1.03,1.26,24.86,20.32c.09.07.21.07.3,0,.18-.14.34-.3.5-.48.11-.16.23-.32.32-.5.05-.09.02-.21-.07-.27l-24.88-20.32Z"/>
    <path class="cls-2" d="m59.76,27.03l29.27,23.92c.09.07.23.07.3-.02.07-.09.07-.23-.02-.3l-29.3-23.92c-.09-.07-.23-.07-.3.02-.07.09-.05.21.05.3Z"/>
    <path class="cls-1" d="m29.18,27.03l.34-.64c.55-1.01,1.49-1.74,2.59-2.06,1.12-.32,2.29-.18,3.3.37l2.84,1.58c.23.11.43.27.64.43,1.63,1.33,2.06,3.62,1.05,5.45l-.34.64c-.55,1.01-1.49,1.74-2.59,2.06-1.12.32-2.29.18-3.3-.37l-2.84-1.58c-.23-.11-.43-.27-.64-.43-1.65-1.3-2.08-3.62-1.05-5.45Zm8.56.18l-2.84-1.58c-.76-.43-1.65-.53-2.49-.27-.85.25-1.53.8-1.97,1.56l-.34.64c-.78,1.4-.43,3.14.8,4.14.16.11.32.23.48.32l2.84,1.58c.76.43,1.65.53,2.49.27.85-.25,1.53-.8,1.97-1.56l.34-.64c.78-1.4.43-3.14-.8-4.14-.16-.11-.32-.21-.48-.32Z"/>
    <g>
      <path class="cls-1" d="m39.69,31.44c1.03-1.97,4.17-1.44,4.17-1.44l-5.58-3.07s2.65,2.13,1.42,4.51Z"/>
      <path class="cls-1" d="m39.23,31.19c1.01-1.95-1.19-3.78-1.28-3.87-.21-.16-.25-.48-.09-.69.16-.23.46-.3.69-.16l5.58,3.07c.23.11.32.39.23.62s-.32.39-.57.34c-.02,0-2.77-.46-3.62,1.17-.14.25-.46.34-.71.23-.02-.02-.07-.05-.09-.07-.18-.14-.25-.41-.14-.64Zm.94-2.63c.18.41.32.89.34,1.35.43-.23.89-.37,1.35-.43l-1.69-.92Z"/>
    </g>
    <g>
      <path class="cls-1" d="m29.64,27.3c1.03-1.97,4.26-2.38,4.26-2.38l-5.49-2.17s2.45,2.17,1.24,4.55Z"/>
      <path class="cls-1" d="m29.16,27.05c1.01-1.97-1.03-3.85-1.12-3.94-.18-.16-.23-.46-.09-.66s.39-.3.64-.21l5.49,2.17c.23.09.34.32.32.55s-.21.41-.46.46c-.02,0-2.95.39-3.87,2.11-.14.25-.46.34-.71.23-.02-.02-.07-.05-.09-.07-.16-.14-.23-.41-.11-.64Zm.78-3.14c.27.5.48,1.08.53,1.72.55-.37,1.14-.64,1.69-.82l-2.22-.89Z"/>
    </g>
    <path class="cls-1" d="m35.39,25.22c-.92,1.03-2.01,2.01-2.29,3.41-.16.73-.14,1.51-.07,2.24.02.18.02.66.34.53.21-.09.21-.55.25-.73.16-.71.39-1.37.76-1.99v.02c.02-.07.11-.14.16-.18.11-.11.23-.21.34-.32.25-.21.53-.37.8-.53.43-.25.89-.48,1.3-.8.82-.62.64-1.95-.27-2.17-.53-.11-.98.14-1.33.53Z"/>
    <path class="cls-1" d="m40.86,3.52c.3.48.25.76.53,1.99.41,1.95.96,2.52,1.14,2.68.3.27.6.46.78.55.78.39,1.46.3,2.11.27.3,0,.64,0,1.05.02.64.05,1.4.07,1.97.37-1.51-.48-2.93.78-3.78,1.79l-2.04,2.79-4.39,1.35s-.6-.43-1.51-.8c.32-.89.98-1.95,1.42-2.4.85-.89,1.58-1.17,1.69-1.97.07-.48-.25-.53-.43-1.44-.18-.87-.07-1.63.02-2.17.18-1.14.48-1.3.48-2.08,0-.46-.18-.87-.27-1.21-.18-.66.69-.6,1.24.27Z"/>
    <path class="cls-1" d="m36.39,14.44c.32-.94,1.01-2.01,1.49-2.52.3-.32.57-.55.82-.76.5-.41.73-.64.8-1.03.02-.16,0-.21-.11-.39-.09-.18-.23-.46-.34-.94-.21-.94-.07-1.72.02-2.29s.21-.92.32-1.19c.11-.3.16-.48.16-.85,0-.3-.09-.55-.16-.82-.05-.11-.07-.23-.09-.34-.11-.48.14-.71.23-.78.3-.18.71-.09,1.12.23.18.14.32.32.46.53.25.39.3.66.39,1.19.05.23.09.53.18.92.27,1.24.64,2.13,1.05,2.52.23.21.43.37.69.48.62.3,1.17.27,1.72.25h.23c.34,0,.71,0,1.08.02l.25.02c.6.05,1.28.09,1.85.39.14.07.21.25.14.39-.07.16-.23.23-.39.18-1.42-.46-2.77.87-3.43,1.67l-2.04,2.79s-.09.09-.16.11l-4.39,1.35c-.09.02-.18.02-.27-.05,0,0-.57-.41-1.44-.76-.02-.02-.07-.02-.09-.05-.07-.02-.11-.16-.07-.3Zm6.02-.71l1.97-2.72c.43-.53,1.12-1.24,1.95-1.67-.32-.02-.62-.02-.94-.02h-.23c-.6.02-1.26.05-2.01-.32-.23-.11-.46-.25-.64-.41-.07-.05-.14-.11-.21-.18-.5-.5-.92-1.44-1.21-2.84-.09-.39-.14-.69-.18-.94-.09-.5-.11-.69-.3-.96-.09-.16-.21-.27-.34-.39-.18-.14-.3-.18-.37-.18,0,.02,0,.05.02.09.02.09.05.21.09.3.09.3.18.62.18.98,0,.46-.09.73-.21,1.05-.09.27-.21.57-.27,1.08-.09.55-.21,1.24-.02,2.06.09.39.18.62.27.78.11.21.21.41.16.76-.09.64-.5,1.01-1.01,1.42-.23.21-.5.41-.78.71-.39.39-.94,1.24-1.26,2.01.55.25.96.5,1.17.62l4.17-1.21Z"/>
    <path class="cls-2" d="m58.64,28.03l24.24,19.8c.09.07.23.07.3-.02.07-.09.07-.23-.02-.3l-24.24-19.8c-.09-.07-.23-.07-.3.02-.07.09-.07.23.02.3Z"/>
    <path class="cls-2" d="m40.15,16.43l4.49-5.22c.85-1.03,2.27-2.29,3.78-1.79.3.16.6.34.87.57,6.02,4.92,11.4,9.32,13.16,10.76,1.14.94.53,2.04.53,2.04l-5.79,7.1c-.3.37-.73.55-1.21.55-.37,0-.85-.14-1.72.27-1.08.5-2.49,2.31-2.95,2.63-.48.32-1.08.34-1.58.07l-14.6-8.01c-1.3-.69-2.15.34-3.18-.09l-1.97-1.3c5.08-1.51,5.58-6.77,2.88-8.97.32-.21.92-.53,1.72-.66.98-.16,1.79.07,2.17.21.92.37,1.51.8,1.51.8l1.9,1.05Z"/>
    <path class="cls-1" d="m29.62,23.94c.02-.11.11-.23.23-.25,2.27-.66,3.78-2.17,4.19-4.17.34-1.65-.21-3.3-1.4-4.26-.07-.07-.11-.16-.11-.25s.07-.18.14-.25c.55-.37,1.19-.62,1.83-.71.98-.16,1.81.02,2.33.23.87.34,1.46.76,1.56.82l1.69.94,4.3-5.01c.78-.96,2.36-2.47,4.12-1.9.02,0,.02.02.05.02.34.16.64.37.92.6,4.46,3.64,8.58,7,11.12,9.09l2.04,1.67c1.05.87.85,1.97.6,2.45,0,.02-.02.02-.02.05l-5.79,7.1c-.34.43-.87.66-1.44.66h-.23c-.34-.02-.71-.05-1.35.25s-1.46,1.17-2.08,1.81c-.37.39-.64.69-.85.8-.57.37-1.3.41-1.9.07l-14.6-8.01c-.62-.32-1.1-.21-1.63-.07-.48.11-.98.23-1.53,0-.02,0-.05-.02-.05-.02l-1.97-1.3-.02-.02c-.11-.09-.16-.21-.14-.32Zm3.55,1.03c.57-.14,1.24-.3,2.06.14l14.6,8.01c.39.23.89.21,1.26-.05.14-.09.43-.39.73-.71.66-.71,1.51-1.58,2.27-1.95.78-.37,1.28-.34,1.67-.32h.21c.39,0,.73-.16.96-.43l5.77-7.07c.07-.14.39-.94-.46-1.63l-2.04-1.67c-2.54-2.08-6.66-5.45-11.12-9.09-.23-.21-.5-.37-.78-.53-1.4-.43-2.75.87-3.41,1.72l-4.49,5.22c-.09.11-.25.14-.39.07l-1.95-1.08-.02-.02s-.6-.41-1.44-.76c-.46-.16-1.17-.32-2.01-.18-.43.07-.85.21-1.24.41,1.14,1.14,1.65,2.86,1.28,4.58-.41,2.01-1.85,3.62-4.01,4.42l1.4.92c.37.18.73.09,1.14,0Z"/>
    <path class="cls-1" d="m32.82,15.01c.32-.21.92-.53,1.72-.66.98-.16,1.79.07,2.17.21.92.37,1.51.8,1.51.8l1.95,1.08,2.13-2.49,1.97,1.6-4.17,5.1c-.23.3-.18.71.09.96l10,8.17c.3.23.71.18.96-.09l4.17-5.1,3.73,3.04-1.85,2.27c-.3.37-.73.55-1.21.55-.37,0-.85-.14-1.72.27-1.08.5-2.49,2.31-2.95,2.63-.48.32-1.08.34-1.58.07l-14.6-8.01c-1.3-.69-2.15.34-3.18-.09l-1.97-1.3c5.04-1.53,5.52-6.8,2.84-8.99Z"/>
    <rect class="cls-1" x="58.62" y="20.94" width="1.49" height="4.83" transform="translate(3.72 54.56) rotate(-50.75)"/>
    <rect class="cls-1" x="58.06" y="22.15" width=".57" height="4.83" transform="translate(2.41 54.22) rotate(-50.76)"/>
    <rect class="cls-1" x="55.1" y="8.03" width=".82" height="17.28" transform="translate(7.49 49.12) rotate(-50.76)"/>
    <rect class="cls-2" x="54.36" y="26.44" width=".69" height="3.94" transform="translate(-1.9 52.8) rotate(-50.75)"/>
    <path class="cls-2" d="m31.15,23.85c1.88-.87,3.11-2.36,3.48-4.21.32-1.58-.05-3.14-1.01-4.28l-.27-.34.41-.16c.27-.11.55-.18.82-.23.85-.14,1.56.02,2.01.18.87.34,1.44.76,1.44.76l2.2,1.21,4.65-5.42c.53-.66,1.95-2.13,3.39-1.72l.07.02c.27.14.53.32.76.5,4.37,3.57,8.42,6.89,10.99,8.97l2.17,1.79c.78.64.57,1.37.48,1.58l-.02.05-5.77,7.07c-.23.27-.57.43-.96.43h-.21c-.37-.02-.87-.05-1.67.32-.76.37-1.6,1.24-2.27,1.95-.37.39-.62.64-.73.71-.39.25-.87.27-1.26.05l-14.6-8.03c-.82-.43-1.51-.27-2.06-.14-.39.09-.73.18-1.1.05l-1.42-.94.48-.16Zm1.88.5c.57-.14,1.46-.34,2.49.18l14.6,8.03c.21.11.43.09.62-.02.09-.07.43-.43.64-.64.71-.73,1.58-1.67,2.45-2.06.94-.43,1.58-.39,1.97-.37h.16c.21,0,.37-.07.48-.21l5.72-7c.07-.18.09-.5-.3-.82l-2.17-1.79c-2.56-2.08-6.59-5.4-10.99-8.97-.18-.16-.41-.3-.62-.41-1.12-.3-2.33,1.08-2.7,1.51l-4.99,5.81-2.63-1.46-.05-.05s-.53-.37-1.3-.69c-.39-.14-.98-.27-1.69-.16-.09.02-.21.05-.3.07.87,1.24,1.19,2.84.87,4.44-.37,1.88-1.56,3.41-3.34,4.39l.39.25c.11.09.32.05.69-.05Z"/>
    <path class="cls-2" d="m47.84,11.35l-7.78,9.52c-2.36-1.92-2.52-5.61-.37-8.24,2.15-2.63,5.81-3.2,8.15-1.28Z"/>
    <path class="cls-1" d="m39.46,12.42c2.24-2.77,6.11-3.36,8.58-1.33.14.11.16.3.05.43l-7.78,9.52c-.11.14-.3.16-.43.05-2.49-2.01-2.68-5.91-.41-8.67Zm.48.41c-1.97,2.4-1.9,5.74.09,7.6l7.37-9.02c-2.22-1.6-5.49-.98-7.46,1.42Z"/>
    <path class="cls-1" d="m47.15,12.17s-.09-.05-.23-.16c-.05-.02-.07-.05-.11-.07s-.09-.07-.16-.09c-.11-.07-.25-.14-.39-.21-.14-.07-.3-.14-.46-.18-.16-.07-.34-.09-.53-.14-.09-.02-.18-.02-.3-.05-.09-.02-.21-.02-.3-.02s-.21,0-.3-.02l-.3.02c-.09,0-.21.02-.3.05-.09.02-.21.02-.3.05-.09.02-.18.05-.27.07-.09.02-.18.07-.27.09-.09.02-.16.07-.25.11s-.16.07-.23.11c-.14.09-.27.16-.39.27-.07.05-.11.09-.16.14-.05.05-.09.09-.14.14-.09.09-.16.16-.21.23-.11.14-.16.21-.16.21l.18-.18c.07-.07.14-.14.23-.21.05-.05.09-.07.14-.11s.11-.07.18-.11c.11-.09.25-.14.41-.23.07-.05.16-.07.23-.09.09-.02.16-.07.25-.09.09-.02.18-.05.25-.07.09-.02.18-.02.27-.05.09-.02.18-.02.27-.02s.18-.02.27,0l.27.02c.09.02.18.02.27.05.09,0,.18.05.27.05.09.02.18.05.25.07.16.05.32.11.46.18s.27.14.39.21c.11.07.23.14.32.21.05.02.09.05.11.09.05.02.07.07.11.09.14.11.21.16.21.16l.37-.5Z"/>
    <path class="cls-1" d="m41.68,18.88l-.96,1.17c-1.99-1.63-2.11-4.78-.25-7.05.16-.21.34-.39.53-.55-1.37,2.2-1.14,4.97.69,6.43Z"/>
    <rect class="cls-1" x="76.24" y="17.11" width="1.14" height="38.57" transform="translate(.03 72.86) rotate(-50.76)"/>
    <path class="cls-2" d="m77.8,45.89l1.12.92c.07.07.18.05.25-.02l2.29-2.79c.07-.07.05-.18-.02-.25l-1.12-.92c-.07-.07-.18-.05-.25.02l-2.29,2.79c-.05.09-.05.21.02.25Z"/>
    <path class="cls-1" d="m77.68,45.29l2.01-2.47c.25-.3.69-.34.98-.09l.8.64c.3.25.34.69.09.98l-2.01,2.47c-.25.3-.69.34-.98.09l-.8-.64c-.3-.25-.34-.69-.09-.98Zm2.61-2.08s-.09-.02-.11,0l-2.01,2.47s-.02.09,0,.11l.8.64s.09.02.11,0l2.01-2.47s.02-.09,0-.11l-.8-.64Z"/>
    <g>
      <path class="cls-1" d="m78.6,45.25l.8.64c.16.14.37.16.46.05l-.64.78c-.09.11-.3.09-.46-.05l-.8-.64c-.16-.14-.23-.34-.14-.43l.64-.78c-.09.11-.02.3.14.43Z"/>
      <path class="cls-1" d="m77.59,45.38l.64-.78c.11-.14.3-.16.43-.05.11.09.14.25.09.37,0,.02.02.05.07.07l.8.64s.07.05.07.05c.11-.09.27-.09.39,0,.14.11.16.3.05.43l-.64.78c-.21.25-.6.25-.89,0l-.8-.64c-.32-.23-.41-.62-.21-.87Zm1.67.8s-.05-.02-.07-.05l-.8-.64s-.05-.02-.07-.05l-.23.3s.02.05.05.07l.8.64s.05.02.07.05l.25-.32Z"/>
    </g>
    <rect class="cls-1" x="44.1" y="17.48" width="3.59" height="12.98" transform="translate(-1.7 44.35) rotate(-50.76)"/>
    <rect class="cls-1" x="48.89" y="12.13" width="2.72" height="12.98" transform="translate(4.04 45.76) rotate(-50.76)"/>
    <rect class="cls-1" x="48.32" y="14.04" width=".92" height="13.23" transform="translate(1.92 45.37) rotate(-50.76)"/>
    <rect class="cls-1" x="51.9" y="9.62" width=".82" height="13.23" transform="translate(6.65 46.48) rotate(-50.76)"/>
    <path class="cls-2" d="m58.14,20.11l-.69.85-5.15-4.21c-.71-.6-.82-1.65-.23-2.38l.02-.02,5.97,4.88c.25.21.3.62.07.89Z"/>
    <path class="cls-2" d="m52.62,13.68c-.34-.27-.85-.25-1.14.09t-.05.05c-.89,1.08-.73,2.68.34,3.55l5.15,4.21c.37.3.89.23,1.17-.11l.69-.85c.53-.64.43-1.58-.21-2.08l-5.95-4.85h0Z"/>
    <path class="cls-2" d="m58.48,20.39l-.69.85-5.42-4.44c-.76-.62-.89-1.72-.3-2.43l.02-.02,6.27,5.13c.3.23.34.64.11.92Z"/>
    <path class="cls-1" d="m51.82,14.16l.02-.02c.11-.14.3-.14.43-.05l6.27,5.13c.41.34.5.96.16,1.37l-.69.85c-.11.14-.3.16-.43.05l-5.42-4.44c-.89-.73-1.05-2.04-.34-2.88Zm6.41,6.04c.11-.14.09-.37-.07-.48l-6.02-4.92c-.3.57-.14,1.3.41,1.76l5.2,4.23.48-.6Z"/>
    <path class="cls-1" d="m46.4,24.05l5.36,4.37-.66.82c-.23.27-.64.32-.94.09l-6.18-5.06c.6-.73,1.69-.82,2.43-.23Z"/>
    <path class="cls-2" d="m46.4,24.05l5.36,4.37-.66.82c-.23.27-.64.32-.94.09l-6.18-5.06c.6-.73,1.69-.82,2.43-.23h0Zm.27-.32c-.92-.76-2.27-.64-3.02.27-.14.18-.11.43.07.6l6.18,5.06c.46.39,1.14.32,1.51-.14l.66-.82c.14-.18.11-.43-.07-.6l-5.33-4.37h0Z"/>
    <path class="cls-2" d="m50.38,19.15l5.33,4.35-2.15,2.63-5.33-4.35c-.73-.6-.87-1.69-.27-2.43.6-.71,1.69-.8,2.43-.21Z"/>
    <path class="cls-2" d="m50.84,18.6c-1.05-.87-2.61-.71-3.46.32s-.69,2.59.37,3.43l5.33,4.35c.32.25.78.21,1.03-.11l2.15-2.63c.25-.32.21-.78-.11-1.03l-5.31-4.33h0Z"/>
    <path class="cls-2" d="m50.4,19.18l5.42,4.44-2.15,2.63-5.42-4.44c-.76-.62-.89-1.72-.3-2.43.6-.73,1.69-.82,2.45-.21Z"/>
    <path class="cls-1" d="m47.72,19.18c.71-.87,1.99-.96,2.88-.23l5.42,4.44c.14.11.16.3.05.43l-2.15,2.63c-.11.14-.3.16-.43.05l-5.42-4.44c-.89-.73-1.05-2.01-.34-2.88Zm7.69,4.49l-5.2-4.23c-.62-.5-1.53-.43-2.01.16-.48.6-.37,1.49.25,1.99l5.2,4.23,1.76-2.15Z"/>
    <path class="cls-1" d="m47.66,20c.07-.23.16-.43.32-.62.6-.73,1.69-.8,2.45-.21l5.42,4.44-.87,1.05-5.42-4.44c-.57-.46-1.3-.53-1.9-.23Z"/>
    <path class="cls-1" d="m47.33,19.93c.07-.27.21-.53.37-.73.71-.87,1.99-.96,2.88-.23l5.42,4.44c.14.11.16.3.05.43l-.87,1.05c-.11.14-.3.16-.43.05l-5.42-4.44c-.46-.37-1.05-.43-1.56-.21-.11.05-.25.05-.34-.05h0c-.07-.09-.11-.21-.09-.32Zm8.08,3.73l-5.2-4.23c-.6-.48-1.46-.43-1.95.09.53-.05,1.05.11,1.49.48l5.2,4.23.46-.57Z"/>
    <path class="cls-2" d="m48.5,19.36s.02,0,.09-.02c.07,0,.16-.02.27-.02.23,0,.57.05.89.23.09.05.16.09.25.16.07.07.16.14.25.21.18.16.37.32.55.48.18.16.39.34.6.5s.41.34.62.53c.85.69,1.69,1.37,2.31,1.88.32.25.57.46.78.62.18.14.3.23.3.23l.27-.32s-.11-.09-.3-.23c-.18-.16-.43-.37-.76-.62-.64-.53-1.46-1.21-2.31-1.9-.21-.16-.41-.34-.64-.5-.21-.16-.41-.32-.62-.48-.21-.16-.39-.3-.6-.43-.09-.07-.18-.14-.3-.21-.09-.07-.21-.11-.3-.16-.41-.16-.78-.14-1.03-.07-.11.02-.21.07-.27.09-.05.05-.07.05-.07.05Z"/>
    <path class="cls-1" d="m39.64,20.3l7.55-9.25c.41-.5,1.17-.6,1.69-.16l10,8.17c.5.41.6,1.17.16,1.69l-7.55,9.25c-.41.5-1.17.6-1.69.16l-10-8.17c-.5-.41-.57-1.17-.16-1.69Zm8.61-8.61c-.07-.05-.16-.05-.23.02l-7.55,9.25c-.05.07-.05.16.02.23l10,8.17c.07.05.16.05.23-.02l7.55-9.25c.05-.07.05-.16-.02-.23l-10-8.17Z"/>
    <path class="cls-1" d="m1.86,21.24c4.39-2.59,8.17-4.62,11.17-6.16,1.85-.96,4.07-2.06,7.21-2.68,1.81-.37,4.1-.78,6.89-.16,2.7.62,4.62,1.92,5.68,2.77,2.7,2.2,2.2,7.46-2.88,8.97-1.08-.73-2.36-1.56-3.02-1.79-2.84-.94-5.49.66-6.16,1.08-1.85,1.1-2.82,2.68-4.33,5.13-.76,1.21-1.35,2.43-1.81,3.41-.32.69-1.17.87-1.76.41-3.73-3-7.39-6.11-11.12-9.11-.62-.5-.55-1.46.14-1.88Z"/>
    <path class="cls-1" d="m7.03,27.87c-1.83-1.51-3.64-3-5.52-4.51h0c-.37-.3-.57-.76-.53-1.24.05-.48.3-.89.71-1.14,3.71-2.2,7.48-4.26,11.17-6.16,2.11-1.08,4.26-2.11,7.3-2.7,1.74-.34,4.1-.8,7.03-.16,2.11.48,4.07,1.42,5.81,2.82,1.37,1.12,1.99,3,1.63,4.88-.43,2.22-2.13,3.89-4.62,4.65-.09.02-.18,0-.27-.05-1.79-1.21-2.59-1.63-2.95-1.74-1.76-.6-3.73-.25-5.86,1.01l-.05.02c-1.79,1.05-2.7,2.54-4.21,5.01-.82,1.35-1.44,2.59-1.81,3.39-.18.41-.55.71-.98.8-.43.11-.89,0-1.24-.27-.57-.46-1.14-.92-1.69-1.37-1.3-1.08-2.61-2.15-3.91-3.23Zm26.98-8.35c.34-1.65-.21-3.3-1.4-4.26-1.67-1.33-3.55-2.24-5.56-2.7-2.79-.64-5.1-.18-6.77.16-3.2.64-5.47,1.81-7.14,2.65-3.68,1.9-7.44,3.96-11.15,6.13-.23.14-.39.37-.41.64-.02.27.09.53.3.71h0c1.85,1.49,3.68,3,5.52,4.51,1.85,1.53,3.73,3.09,5.61,4.6.21.16.46.23.71.16s.46-.23.57-.46c.37-.82,1.01-2.08,1.83-3.46,1.51-2.47,2.49-4.1,4.44-5.24l.05-.02c2.29-1.35,4.44-1.72,6.39-1.08.55.18,1.56.78,2.98,1.74,2.2-.66,3.66-2.15,4.05-4.1Z"/>
    <path class="cls-2" d="m13.99,31.54s.34-.6.87-1.49c.25-.43.57-.96.92-1.51.34-.55.71-1.12,1.08-1.72.18-.3.37-.57.55-.87.18-.27.37-.55.57-.8.37-.53.76-.96,1.12-1.33.18-.18.34-.34.5-.48s.3-.25.41-.34c.25-.18.39-.3.39-.3,0,0-.05.02-.11.05-.07.05-.18.09-.32.16-.14.07-.3.16-.46.3-.18.11-.37.25-.57.43-.21.16-.41.37-.62.57s-.43.46-.62.71c-.21.25-.41.53-.6.8-.21.27-.39.57-.57.87-.37.6-.73,1.17-1.03,1.74-.32.57-.6,1.12-.8,1.58-.23.48-.39.87-.48,1.17-.16.3-.23.46-.23.46Z"/>
    <path class="cls-2" d="m29.21,13.48s-.09-.05-.27-.11-.43-.18-.78-.3-.76-.25-1.26-.37c-.48-.11-1.05-.23-1.67-.27s-1.3-.07-2.01-.02-1.46.16-2.22.3c-.39.07-.78.14-1.17.23-.39.09-.78.18-1.19.3-.78.23-1.58.5-2.33.8-1.53.64-3,1.42-4.35,2.15-1.37.73-2.63,1.44-3.68,2.06-1.08.62-1.95,1.14-2.56,1.53-.62.37-.96.6-.96.6,0,0,1.46-.76,3.64-1.9,1.1-.57,2.38-1.24,3.75-1.95.69-.34,1.4-.71,2.13-1.08.73-.37,1.46-.71,2.22-1.01.76-.32,1.53-.57,2.29-.8.39-.11.78-.21,1.14-.3.39-.09.78-.18,1.14-.25.76-.16,1.49-.27,2.17-.34s1.35-.09,1.97-.05c.62.02,1.17.09,1.67.18.5.09.92.18,1.26.27.69.18,1.08.32,1.08.32Z"/>
    <path class="cls-2" d="m13.78,16.57c1.58-.82,3.75-1.92,6.77-2.52,1.65-.32,3.68-.73,6.2-.16,1.53.34,2.98.98,4.3,1.9.27.18.34.57.11.85l-3.11,3.8c-.16.18-.41.25-.64.18h0c-2.33-.78-4.85-.37-7.51,1.19l-.05.02c-2.22,1.3-3.34,3.14-4.9,5.7-.5.85-.94,1.65-1.3,2.33-.16.32-.6.41-.89.18-.21-.16-.41-.34-.62-.5-1.3-1.08-2.63-2.15-3.91-3.2s-2.61-2.15-3.91-3.23c-.11-.09-.25-.21-.37-.3-.32-.25-.27-.76.07-.96,3.3-1.85,6.55-3.64,9.75-5.29Z"/>
    <path class="cls-2" d="m32.43,15.51s.02.02.07.07c.05.05.11.11.18.23.05.05.09.09.11.16.05.07.09.11.14.21.05.07.09.16.14.23l.14.27c.09.18.16.41.21.64.07.23.09.48.11.73.02.25.02.53,0,.78,0,.14-.05.27-.05.39-.02.14-.07.27-.11.41-.07.25-.18.5-.3.76s-.25.46-.41.66c-.16.21-.32.39-.48.57-.16.16-.34.32-.5.46s-.32.25-.46.34-.27.18-.37.25c-.21.14-.34.21-.34.21,0,0,.02,0,.09-.02.07-.02.16-.05.27-.09s.25-.09.41-.18c.16-.07.34-.16.53-.27s.39-.25.57-.41c.21-.16.39-.34.57-.57.16-.23.34-.46.48-.71s.25-.53.34-.82c.05-.16.07-.27.09-.43s.05-.3.05-.46c.02-.3.02-.6-.02-.87s-.09-.55-.18-.78c-.07-.25-.18-.46-.3-.64s-.23-.37-.34-.48c-.05-.07-.11-.14-.16-.18s-.11-.11-.16-.14c-.09-.09-.18-.14-.23-.18-.07-.09-.09-.11-.09-.11Z"/>
    <path class="cls-2" d="m30.81,18.92c-.23.27-.18.71.09.94s.71.18.94-.09.18-.71-.09-.94c-.3-.23-.71-.18-.94.09Z"/>
    <path class="cls-1" d="m12.43,27.48c-.23.27-.18.71.09.94s.71.18.94-.09.18-.71-.09-.94c-.3-.25-.71-.21-.94.09Z"/>
    <path class="cls-1" d="m5.66,21.95c-.23.27-.18.71.09.94s.71.18.94-.09.18-.71-.09-.94c-.27-.23-.71-.18-.94.09Z"/>
    <path class="cls-2" d="m36.28,21.08c-.34.43-.3,1.08.14,1.42s1.08.3,1.42-.14c.34-.43.3-1.08-.14-1.42-.43-.37-1.08-.3-1.42.14Z"/>
    <path class="cls-2" d="m42.64,26.2c-.25.32-.21.78.11,1.03s.78.21,1.03-.11.21-.78-.11-1.03-.78-.21-1.03.11Z"/>
    <path class="cls-2" d="m45.89,9.31s-.14-.02-.41-.02c-.25,0-.62,0-1.05-.02s-.94-.05-1.4-.25c-.11-.05-.23-.11-.32-.21-.05-.02-.09-.09-.16-.14-.05-.05-.09-.09-.14-.14-.18-.18-.34-.41-.48-.66-.14-.23-.25-.5-.37-.76-.09-.25-.18-.53-.25-.78-.14-.53-.23-1.03-.32-1.46s-.16-.8-.25-1.05c-.05-.11-.09-.21-.14-.27s-.07-.09-.07-.09c0,0,.02.02.05.09.02.07.05.16.07.3.05.25.07.62.09,1.05.02.43.09.96.18,1.51.07.27.11.55.23.85.09.27.23.57.37.82.16.27.34.5.55.73l.16.16c.07.05.09.09.18.14.14.09.27.16.41.23.27.11.57.16.82.18s.5,0,.73-.02c.43-.05.8-.11,1.05-.14.3-.02.46-.05.46-.05Z"/>
    <path class="cls-2" d="m39.8,11.42s-.05.02-.16.05c-.09.05-.23.11-.37.21s-.32.21-.48.37c-.16.14-.32.3-.48.48-.3.34-.55.76-.71,1.05-.16.32-.21.55-.21.55l.11-.11.3-.3c.07-.07.11-.14.18-.21.07-.07.14-.14.21-.23.14-.16.3-.32.43-.5.14-.16.3-.34.43-.5s.27-.32.37-.43c.23-.23.37-.41.37-.41Z"/>
    <path class="cls-2" d="m90.18,44.6s.02-.05.09-.14c.02-.05.05-.11.07-.18s.05-.16.07-.25c.02-.09.02-.18.05-.3v-.34c-.02-.11-.02-.23-.07-.37-.02-.11-.07-.23-.11-.34s-.11-.23-.16-.34c-.07-.11-.14-.21-.21-.3-.07-.09-.16-.18-.23-.25s-.16-.14-.23-.18-.14-.09-.21-.14c-.07-.05-.11-.07-.18-.07-.09-.05-.16-.05-.16-.05l.11.11c.07.07.16.18.27.32.05.07.11.14.16.23.07.07.11.16.16.25.09.18.21.37.3.57.05.09.09.21.11.3.02.05.02.09.05.16.02.05.02.09.05.16.02.09.05.21.07.3,0,.09.02.18.02.27s.02.16.02.23v.18c-.05.09-.05.16-.05.16Z"/>
    <rect class="cls-1" x="79.92" y="43.2" width=".57" height="1.81" transform="translate(-4.69 78.32) rotate(-50.75)"/>
    <rect class="cls-1" x="36.85" y="20.52" width=".41" height="2.38" transform="translate(-2.83 5.79) rotate(-8.61)"/>
    <path class="cls-1" d="m28.59,15.01s-.02.21-.05.5v.5c0,.18.02.39.05.57.02.21.05.39.07.57s.07.37.09.5c.07.3.14.48.14.48,0,0,.02-.21.05-.5v-.5c0-.18-.02-.39-.05-.57-.02-.21-.05-.39-.07-.57s-.07-.37-.09-.5c-.07-.27-.14-.48-.14-.48Z"/>
    <path class="cls-1" d="m26.9,14.58s-.02.34,0,.82c0,.25.02.55.05.85.02.32.07.64.09.96.05.32.09.66.14.96.05.3.09.6.14.85.09.48.18.82.18.82,0,0,.02-.34,0-.82,0-.25-.02-.55-.05-.85-.02-.32-.07-.64-.09-.96-.05-.32-.09-.66-.14-.96-.05-.3-.09-.6-.14-.85-.09-.5-.18-.82-.18-.82Z"/>
    <path class="cls-1" d="m25.18,14.14s0,.34.02.87c0,.25.02.55.07.87.02.32.07.66.09,1.01.05.34.09.69.14,1.01.05.32.09.62.16.87.09.5.18.85.18.85,0,0,0-.34-.02-.87,0-.25-.02-.55-.07-.87-.02-.32-.07-.66-.09-1.01-.05-.34-.09-.69-.14-1.01-.05-.32-.09-.62-.16-.87-.09-.53-.18-.85-.18-.85Z"/>
    <path class="cls-1" d="m23.69,14.19s0,.34.02.82c0,.25.02.53.05.85.02.3.07.64.09.96.05.32.09.66.14.96.05.3.09.6.16.82.09.48.18.8.18.8,0,0,.02-.34-.02-.82,0-.25-.02-.53-.05-.85-.02-.32-.07-.64-.09-.96-.05-.32-.09-.66-.14-.96-.05-.3-.09-.6-.16-.82-.09-.48-.18-.8-.18-.8Z"/>
    <path class="cls-1" d="m22.07,14.16s-.02.34,0,.87c0,.27.02.57.05.89.02.32.05.69.09,1.03s.07.69.11,1.03c.05.32.09.62.14.89.09.53.18.87.18.87,0,0,.02-.34,0-.87,0-.27-.02-.57-.05-.89-.02-.32-.05-.69-.09-1.03s-.07-.69-.14-1.03c-.05-.32-.09-.62-.14-.89-.07-.53-.16-.87-.16-.87Z"/>
    <path class="cls-1" d="m20.56,14.55s-.02.37,0,.94c0,.27.02.62.05.96.02.34.05.73.09,1.1s.09.73.14,1.1c.05.34.09.66.14.94.09.55.18.92.18.92,0,0,.02-.37,0-.94,0-.27-.02-.62-.05-.96-.02-.34-.07-.73-.09-1.1-.05-.37-.09-.73-.14-1.1-.05-.34-.09-.66-.14-.94-.09-.55-.18-.92-.18-.92Z"/>
    <path class="cls-1" d="m18.98,15.15s0,.39.02.96c0,.27.02.62.07.98.02.37.07.73.09,1.12.05.39.09.76.14,1.1.05.34.09.69.16.96.09.57.18.94.18.94,0,0,0-.39-.02-.96,0-.27-.02-.62-.07-.98-.02-.37-.07-.73-.09-1.12-.05-.39-.09-.76-.14-1.1-.05-.34-.09-.69-.16-.96-.09-.57-.18-.94-.18-.94Z"/>
    <path class="cls-1" d="m17.65,15.42s0,.43.05,1.05c.02.32.05.69.09,1.08.02.39.09.8.11,1.24.05.41.09.82.16,1.24.05.39.11.76.16,1.08.09.62.18,1.03.18,1.03,0,0,.02-.43,0-1.05,0-.32-.02-.69-.07-1.08-.02-.21-.02-.41-.05-.62-.02-.21-.05-.41-.07-.62-.05-.41-.09-.85-.16-1.24s-.11-.76-.18-1.08c-.11-.64-.23-1.03-.23-1.03Z"/>
    <path class="cls-1" d="m15.84,16.16v.32c.02.21.02.5.05.87.02.34.07.78.11,1.21.05.43.09.92.16,1.37.07.48.11.94.18,1.37s.14.85.21,1.19c.07.34.14.64.16.85.05.21.07.32.07.32v-.32c-.02-.21-.02-.5-.05-.87-.02-.34-.07-.78-.11-1.21-.05-.43-.09-.92-.16-1.37-.07-.48-.11-.94-.18-1.37s-.14-.85-.21-1.19c-.07-.34-.14-.64-.16-.85-.02-.21-.07-.32-.07-.32Z"/>
    <path class="cls-1" d="m14.4,16.8s0,.14.02.37.02.57.07.98c.02.41.07.87.14,1.37.05.5.11,1.05.18,1.58.07.53.14,1.08.23,1.58.07.5.16.96.23,1.37s.14.73.18.96.07.37.07.37c0,0,0-.14-.02-.37s-.02-.57-.07-.98c-.02-.41-.07-.87-.14-1.37-.05-.5-.11-1.05-.18-1.58-.07-.53-.14-1.08-.23-1.58-.07-.5-.16-.96-.23-1.37s-.14-.73-.18-.96-.07-.37-.07-.37Z"/>
    <path class="cls-1" d="m12.91,17.6s0,.16.02.41c.02.27.02.64.07,1.1.02.46.07.98.14,1.56.05.57.11,1.17.18,1.79.07.6.14,1.21.23,1.79.07.57.16,1.1.23,1.56s.14.82.18,1.1c.05.25.07.41.07.41,0,0,0-.16-.02-.41-.02-.27-.02-.64-.07-1.1-.02-.46-.07-.98-.14-1.56-.05-.57-.11-1.17-.18-1.79-.07-.6-.14-1.21-.23-1.79-.07-.57-.16-1.1-.23-1.56s-.14-.82-.18-1.1c-.02-.25-.07-.41-.07-.41Z"/>
    <path class="cls-1" d="m11.26,18.33s0,.14.02.39c.02.25.02.6.07,1.01.02.41.07.92.11,1.44s.11,1.08.18,1.65c.07.55.14,1.12.21,1.63.07.53.14,1.01.21,1.42.07.41.14.76.18,1.01.05.25.07.39.07.39,0,0,0-.14-.02-.39-.02-.25-.02-.6-.07-1.01-.02-.41-.07-.92-.11-1.44s-.11-1.08-.18-1.65c-.07-.55-.14-1.12-.21-1.63-.07-.53-.14-1.01-.21-1.42-.07-.41-.14-.76-.18-1.01-.02-.25-.07-.39-.07-.39Z"/>
    <path class="cls-1" d="m9.89,19.18v.37c0,.23.02.55.05.96.02.39.05.85.09,1.35.05.48.09,1.01.14,1.53.05.53.11,1.05.18,1.53.07.48.11.94.18,1.33.05.39.11.71.16.94s.07.37.07.37v-.37c0-.23-.02-.55-.05-.96-.02-.39-.05-.85-.09-1.35-.05-.48-.09-1.01-.14-1.53-.05-.53-.11-1.05-.18-1.53-.07-.48-.11-.94-.18-1.33s-.11-.71-.16-.94c-.05-.25-.07-.37-.07-.37Z"/>
    <path class="cls-1" d="m8.31,20.16s-.02.34,0,.85c0,.25.02.55.05.85.02.32.07.64.09.98.05.32.09.66.14.96.05.32.09.6.14.85.09.5.18.82.18.82,0,0,.02-.34,0-.85,0-.25-.02-.55-.05-.85-.02-.32-.07-.64-.09-.98-.05-.32-.09-.66-.14-.96-.05-.32-.09-.6-.14-.85-.09-.48-.18-.82-.18-.82Z"/>
    <path class="cls-1" d="m25.91,14.64s-.41,0-1.01.02c-.3.02-.66.02-1.03.07-.37.02-.78.07-1.17.11-.39.05-.8.09-1.17.16-.37.05-.71.11-1.01.16-.6.11-.98.21-.98.21,0,0,.41,0,1.01-.02.3-.02.66-.05,1.03-.07s.78-.07,1.17-.11c.39-.05.8-.09,1.17-.16.37-.05.71-.11,1.01-.16.6-.11.98-.21.98-.21Z"/>
    <path class="cls-1" d="m29.48,15.81s-.25,0-.71.02c-.23,0-.5.02-.82.05-.32.02-.69.02-1.08.07-.78.07-1.69.14-2.65.23-.48.05-.98.11-1.49.16-.5.07-1.03.14-1.56.18-1.03.14-2.06.27-3.04.39-.48.07-.96.11-1.4.18-.43.05-.87.11-1.26.16-.78.09-1.42.18-1.88.21-.46.05-.71.09-.71.09,0,0,.25,0,.71-.02.23,0,.5-.02.82-.05.32-.02.69-.02,1.08-.07.78-.07,1.69-.14,2.65-.23.48-.05.98-.11,1.51-.16.5-.07,1.03-.14,1.56-.18,1.03-.14,2.06-.27,3.04-.39.48-.07.96-.11,1.4-.18.43-.07.87-.11,1.26-.16.78-.09,1.42-.18,1.88-.23.41-.05.69-.07.69-.07Z"/>
    <path class="cls-1" d="m29.71,17.35s-.32.02-.87.05c-.55.05-1.35.07-2.31.16-.48.05-.98.09-1.53.14-.55.05-1.12.09-1.72.16-1.19.11-2.45.25-3.73.39-1.26.14-2.54.3-3.73.43-.6.07-1.17.14-1.72.21-.55.07-1.05.11-1.53.16-.96.09-1.74.21-2.29.27s-.87.11-.87.11c0,0,.32-.02.87-.05.55-.05,1.35-.09,2.31-.16.48-.05.98-.07,1.53-.11s1.12-.09,1.72-.16c1.19-.11,2.45-.25,3.73-.39,5.08-.64,10.14-1.21,10.14-1.21Z"/>
    <path class="cls-1" d="m22.96,19.52s-.25.02-.69.05c-.43.05-1.08.09-1.83.18-.76.09-1.63.18-2.56.3-.94.11-1.95.25-2.93.37-1.01.14-1.99.25-2.93.37-.48.05-.92.11-1.35.16s-.85.09-1.21.11c-.76.07-1.37.14-1.83.16-.43.05-.69.05-.69.05h1.49c.3,0,.66-.02,1.03-.05.76-.05,1.65-.09,2.59-.18.48-.05.96-.09,1.46-.16s1.01-.11,1.49-.18c1.01-.14,1.99-.27,2.93-.41s1.81-.27,2.56-.39,1.37-.23,1.81-.3c.41-.02.66-.07.66-.07Z"/>
    <path class="cls-1" d="m28.22,19.06s-.21-.05-.48-.05c-.3-.02-.69-.02-1.08,0s-.78.09-1.05.14c-.3.07-.48.11-.48.11,0,0,.21.05.48.05.3.02.69.02,1.08,0s.78-.09,1.05-.14c.27-.05.48-.11.48-.11Z"/>
    <path class="cls-1" d="m18.91,21.65s-.18,0-.5.02-.78.02-1.33.05c-.55.02-1.19.07-1.85.11-.69.05-1.4.11-2.13.18-.37.05-.73.07-1.08.11-.37.02-.71.07-1.05.11-.69.07-1.3.16-1.85.23-.55.07-.98.16-1.3.21s-.5.09-.5.09c0,0,.18,0,.5-.02s.78-.05,1.3-.09c.55-.05,1.17-.09,1.85-.14.69-.05,1.4-.11,2.13-.18s1.44-.14,2.13-.21c.69-.07,1.3-.14,1.85-.21.55-.07.98-.14,1.3-.18.34-.07.53-.09.53-.09Z"/>
    <path class="cls-1" d="m17.01,23.48s-.16,0-.43.02-.66.02-1.14.05c-.48.02-1.03.07-1.6.11-.6.05-1.21.09-1.85.16-.62.07-1.26.14-1.83.21-.6.07-1.14.14-1.6.21-.46.07-.85.14-1.12.16-.27.05-.43.07-.43.07h.43c.27-.02.66-.02,1.14-.05.48-.02,1.03-.07,1.6-.11.6-.05,1.21-.09,1.85-.16.62-.07,1.26-.14,1.83-.21.6-.07,1.14-.14,1.6-.21.46-.07.85-.14,1.12-.16.27-.07.43-.09.43-.09Z"/>
    <path class="cls-1" d="m15.66,25.13s-.41,0-1.03.02c-.3.02-.66.02-1.05.07-.39.02-.78.07-1.19.11s-.8.09-1.19.14c-.39.05-.73.11-1.03.16-.6.09-1.01.21-1.01.21,0,0,.41,0,1.03-.02.3-.02.66-.02,1.05-.07.39-.02.78-.07,1.19-.11s.8-.09,1.19-.14c.39-.05.73-.11,1.03-.16.6-.11,1.01-.21,1.01-.21Z"/>
  </g>
</svg>