<?xml version="1.0" encoding="UTF-8"?>
<svg xmlns="http://www.w3.org/2000/svg" viewBox="0 0 100 100">
  <defs>
    <style>
      .cls-1 {
        fill: #4d4d4d;
      }

      .cls-1, .cls-2, .cls-3, .cls-4, .cls-5, .cls-6, .cls-7, .cls-8, .cls-9 {
        stroke-width: 0px;
      }

      .cls-2 {
        fill: #e384b0;
      }

      .cls-3 {
        fill: #dee3d7;
        mix-blend-mode: multiply;
      }

      .cls-4 {
        fill: #ffb5e9;
      }

      .cls-5 {
        fill: #4ce0c8;
      }

      .cls-10 {
        isolation: isolate;
      }

      .cls-6 {
        fill: #416b80;
      }

      .cls-7 {
        fill: #fff;
      }

      .cls-8 {
        fill: #e2e6eb;
      }

      .cls-9 {
        fill: #f2f1eb;
      }
    </style>
  </defs>
  <g class="cls-10">
    <g id="Capa_1" data-name="Capa 1">
      <g>
        <path class="cls-1" d="m49.97,45.91c8.97,0,16.55,4.19,18.98,9.94.53-1.26.82-2.59.82-3.97,0-7.68-8.87-13.91-19.81-13.91s-19.81,6.23-19.81,13.91c0,1.38.29,2.71.82,3.97,2.43-5.75,10.01-9.94,18.98-9.94Z"/>
        <g>
          <g>
            <path class="cls-4" d="m61.35,3.11s-.36.23-.91.71c-.55.48-1.28,1.22-2.01,2.28-.73,1.05-1.45,2.39-2.01,4.04-.56,1.64-.94,3.58-1.08,5.83-.13,2.25,0,4.7.2,7.1.2,2.4.46,4.75.68,6.81.22,2.05.39,3.85.5,5.13.11,1.27.17,2.03.17,2.03,0,0,.26-.72.69-1.92.44-1.21,1.07-2.88,1.81-4.82.74-1.94,1.6-4.15,2.42-6.41.81-2.27,1.57-4.57,2.03-6.79.45-2.21.59-4.21.47-5.93-.11-1.73-.47-3.21-.9-4.41-.43-1.21-.95-2.13-1.36-2.73-.41-.61-.7-.92-.7-.92Z"/>
            <path class="cls-2" d="m64.24,14.53c-1.28,1.12-2.39,2.13-3.23,2.9-.85.78-1.45,1.38-1.75,1.65-.21-.35-.66-1.06-1.26-2.05-.62-.96-1.42-2.2-2.37-3.63-.03.23-.07.46-.1.69,1.07,1.62,1.94,2.95,2.54,3.9.6.96.95,1.53.95,1.54l.14.23.2-.19s.5-.47,1.32-1.24c.83-.75,2.02-1.84,3.47-3.11.03-.24.06-.47.08-.7Z"/>
            <path class="cls-8" d="m56.55,39.65s.2-.61.51-1.86c.31-1.25.73-3.14,1.13-5.72.39-2.58.67-5.57.8-7.93.13-2.36.14-4.08.14-4.08,0,0-.44,1.66-.92,3.98-.49,2.31-1,5.28-1.28,7.87-.28,2.59-.36,4.53-.39,5.81-.02,1.29.01,1.92.01,1.92Z"/>
            <path class="cls-6" d="m55.84,12.25c1.06,1.64,1.95,2.99,2.58,3.99.63.99,1,1.58,1,1.58,0,0,.51-.47,1.38-1.27.88-.79,2.11-1.9,3.53-3.18.17-3.27-.53-5.84-1.32-7.61-.39-.89-.81-1.53-1.12-1.98-.31-.44-.53-.67-.53-.67,0,0-.26.16-.68.51-.42.35-.99.87-1.59,1.61-1.22,1.5-2.55,3.82-3.24,7.02Z"/>
            <path class="cls-3" d="m63.84,17.09c.45-2.21.59-4.21.47-5.93-.11-1.73-.47-3.21-.9-4.41-.43-1.21-.95-2.13-1.36-2.73-.41-.61-.7-.92-.7-.92l-4.46,33.92s.26-.72.69-1.92c.44-1.21,1.07-2.88,1.81-4.82.74-1.94,1.6-4.15,2.42-6.41.81-2.27,1.57-4.57,2.03-6.79Z"/>
          </g>
          <g>
            <path class="cls-5" d="m73.51,9.23s-.4.13-1.05.45c-.65.33-1.53.85-2.49,1.66-.96.82-1.99,1.92-2.93,3.35-.94,1.43-1.8,3.18-2.48,5.29-.69,2.11-1.17,4.47-1.58,6.81-.41,2.33-.75,4.63-1.06,6.65-.31,2.02-.6,3.78-.81,5.02-.21,1.23-.34,1.97-.34,1.97,0,0,.43-.62,1.14-1.66.71-1.02,1.73-2.46,2.93-4.13,1.19-1.66,2.57-3.57,3.91-5.5,1.33-1.94,2.64-3.96,3.63-5.95.99-1.99,1.61-3.85,1.94-5.53.33-1.69.36-3.17.25-4.42-.12-1.25-.37-2.26-.61-2.95-.24-.68-.44-1.05-.44-1.05Z"/>
            <path class="cls-7" d="m73.39,20.85c-.75.36-1.44.71-2.09,1.05-.63.33-1.21.63-1.72.9-1,.52-1.72.93-2.07,1.12-.12-.38-.36-1.17-.69-2.26-.34-1.1-.81-2.45-1.35-4.05-.09.21-.18.42-.27.63.3.89.58,1.71.83,2.45.12.36.23.7.34,1.02.1.32.19.62.28.89.33,1.06.52,1.69.53,1.7l.08.25.24-.13s.15-.08.42-.23c.27-.15.65-.35,1.14-.61.5-.26,1.09-.57,1.77-.93.35-.18.71-.37,1.1-.57.39-.19.79-.39,1.21-.59.09-.22.17-.43.25-.64Z"/>
            <path class="cls-8" d="m59.78,42.83s.34-.53.95-1.65c.61-1.12,1.48-2.81,2.5-5.16,1.02-2.35,2.04-5.15,2.75-7.36.72-2.21,1.15-3.84,1.15-3.84,0,0-.84,1.47-1.87,3.56-1.04,2.08-2.27,4.78-3.19,7.18-.92,2.4-1.48,4.22-1.82,5.44-.34,1.22-.47,1.83-.47,1.83Z"/>
            <path class="cls-1" d="m65.96,16.56c.6,1.82,1.12,3.32,1.47,4.44.35,1.09.56,1.74.56,1.74,0,0,.15-.08.43-.23.28-.15.69-.37,1.19-.63.51-.27,1.13-.59,1.82-.95.7-.37,1.49-.78,2.33-1.2.99-3.1.97-5.71.65-7.58-.31-1.88-.91-2.94-.91-2.94,0,0-1.18.36-2.7,1.46-1.53,1.1-3.4,3-4.85,5.87Z"/>
            <path class="cls-3" d="m72.37,23.18c.99-1.99,1.61-3.85,1.94-5.53.33-1.69.36-3.17.25-4.42-.12-1.25-.37-2.26-.61-2.95-.24-.68-.44-1.05-.44-1.05l-12.74,31.19s.43-.62,1.14-1.66c.71-1.02,1.73-2.46,2.93-4.13,1.19-1.66,2.57-3.57,3.91-5.5,1.33-1.94,2.64-3.96,3.63-5.95Z"/>
          </g>
          <g>
            <path class="cls-4" d="m83.64,17.79s-.39.02-1.04.16c-.65.14-1.57.4-2.61.89-1.03.48-2.22,1.23-3.39,2.27-1.18,1.04-2.35,2.4-3.47,4.11-1.11,1.71-2.1,3.69-3.02,5.66-.92,1.98-1.75,3.91-2.52,5.65-1.52,3.46-2.67,5.92-2.67,5.92,0,0,.52-.44,1.4-1.18.88-.74,2.13-1.78,3.59-2.98,1.46-1.21,3.11-2.53,4.76-3.95,1.65-1.41,3.29-2.9,4.63-4.43,1.35-1.53,2.34-3.03,3.03-4.45.69-1.41,1.09-2.75,1.28-3.87.19-1.13.2-2.08.16-2.75-.04-.67-.13-1.05-.13-1.05Z"/>
            <path class="cls-2" d="m80.76,28.07c-.75.15-1.45.3-2.09.43-.64.15-1.23.28-1.74.4-1.01.24-1.74.41-2.1.49-.02-.37-.05-1.12-.09-2.15-.02-.52-.04-1.13-.09-1.78-.05-.66-.1-1.37-.15-2.14-.13.16-.26.33-.39.5.06.86.12,1.65.17,2.36.03.71.06,1.33.09,1.85.04,1.01.07,1.61.07,1.62v.24s.25-.05.25-.05c.01,0,.59-.14,1.58-.37.5-.12,1.11-.26,1.8-.41.69-.14,1.47-.3,2.31-.48.13-.17.25-.34.38-.51Z"/>
            <path class="cls-8" d="m63.48,44.35s.43-.38,1.23-1.22c.8-.84,1.98-2.13,3.45-3.98,1.46-1.85,3.03-4.08,4.19-5.88,1.17-1.8,1.94-3.15,1.94-3.15,0,0-1.09,1.11-2.51,2.72-1.42,1.6-3.15,3.71-4.54,5.62-1.38,1.91-2.31,3.39-2.91,4.39-.59,1-.85,1.51-.85,1.51Z"/>
            <path class="cls-6" d="m75.19,22.51c.05.86.11,1.67.15,2.39.04.72.07,1.36.09,1.9.06,1.05.09,1.67.09,1.67,0,0,.61-.14,1.63-.36.52-.12,1.15-.26,1.85-.42.71-.15,1.5-.32,2.34-.5.8-1.25,1.36-2.46,1.74-3.58.38-1.12.56-2.12.64-2.99.08-.86.05-1.57.01-2.06-.04-.49-.11-.77-.11-.77,0,0-1.13.05-2.75.67-1.61.6-3.72,1.85-5.69,4.06Z"/>
            <path class="cls-3" d="m79.31,29.9c1.35-1.53,2.34-3.03,3.03-4.45.69-1.41,1.09-2.75,1.28-3.87.19-1.13.2-2.08.16-2.75-.04-.67-.13-1.05-.13-1.05l-18.71,24.66s.52-.44,1.4-1.18c.88-.74,2.13-1.78,3.59-2.98,1.46-1.21,3.11-2.53,4.76-3.95,1.65-1.41,3.29-2.9,4.63-4.43Z"/>
          </g>
          <g>
            <path class="cls-5" d="m90.37,27.22s-.35-.08-.96-.11c-.62-.02-1.5,0-2.55.21-1.05.21-2.25.58-3.55,1.25-1.3.67-2.67,1.61-4.07,2.89-1.4,1.28-2.74,2.82-4.02,4.37-1.27,1.54-2.5,3.12-3.57,4.49-1.08,1.37-2.01,2.54-2.68,3.37-.68.83-1.08,1.33-1.08,1.33,0,0,.57-.28,1.53-.74.96-.46,2.34-1.11,3.91-1.84,1.57-.73,3.37-1.55,5.18-2.44,1.81-.89,3.62-1.85,5.18-2.92,1.56-1.07,2.79-2.18,3.73-3.29.94-1.11,1.6-2.2,2.05-3.18.44-.97.66-1.81.77-2.42.11-.6.12-.96.12-.96Z"/>
            <path class="cls-7" d="m85.42,35.76c-1.44-.06-2.65-.12-3.63-.13-.96-.01-1.67-.03-2.01-.03.04-.17.1-.42.17-.75.07-.33.16-.73.25-1.2.19-.94.46-2.18.7-3.56-.15.12-.31.24-.47.36-.27,1.57-.57,2.91-.75,3.82-.1.46-.17.82-.23,1.08-.06.25-.09.39-.09.4l-.05.22h.23s.57.02,1.51.03c.24,0,.5,0,.79.01.28.01.59.02.91.03.66.03,1.4.06,2.2.09.15-.12.31-.25.45-.37Z"/>
            <path class="cls-8" d="m66.16,46.39s.47-.25,1.39-.81c.91-.57,2.27-1.46,4.01-2.77,1.74-1.32,3.65-2.96,5.11-4.31,1.46-1.34,2.46-2.37,2.46-2.37,0,0-1.23.74-2.87,1.85-1.64,1.1-3.69,2.59-5.37,3.98-1.68,1.39-2.85,2.5-3.62,3.27-.77.76-1.12,1.17-1.12,1.17Z"/>
            <path class="cls-1" d="m81.72,29.51c-.07.39-.15.77-.22,1.14-.07.37-.15.72-.21,1.05-.13.65-.25,1.23-.35,1.71-.09.48-.17.85-.23,1.12-.06.26-.08.41-.08.41,0,0,.58.02,1.56.05,1,.01,2.35.08,3.97.13,2-1.87,3.11-3.83,3.65-5.34.54-1.5.56-2.54.56-2.54,0,0-.25-.05-.7-.09-.45-.04-1.11-.04-1.91.05-1.6.18-3.74.78-6.04,2.32Z"/>
            <path class="cls-3" d="m83.7,37.07c1.56-1.07,2.79-2.18,3.73-3.29.94-1.11,1.6-2.2,2.05-3.18.44-.97.66-1.81.77-2.42.11-.6.12-.96.12-.96l-22.48,17.79s.57-.28,1.53-.74c.96-.46,2.34-1.11,3.91-1.84,1.57-.73,3.37-1.55,5.18-2.44,1.81-.89,3.62-1.85,5.18-2.92Z"/>
          </g>
          <g>
            <path class="cls-4" d="m95.34,36.89s-.3-.16-.86-.34c-.28-.09-.62-.19-1.02-.27-.4-.08-.87-.15-1.38-.19-1.03-.08-2.25-.03-3.61.25-1.36.28-2.88.8-4.5,1.62-1.62.82-3.25,1.9-4.85,3.01-1.59,1.11-3.11,2.25-4.46,3.24-.67.49-1.3.95-1.86,1.36-.57.41-1.07.77-1.49,1.08-.83.6-1.33.95-1.33.95,0,0,.6-.11,1.61-.29,1.02-.19,2.44-.43,4.09-.7,1.65-.27,3.53-.58,5.43-.94,1.9-.37,3.81-.79,5.53-1.38,1.71-.59,3.15-1.32,4.3-2.1,1.15-.78,2.03-1.62,2.69-2.41.66-.79,1.1-1.52,1.35-2.04.26-.53.36-.85.36-.85Z"/>
            <path class="cls-2" d="m88.58,43.52c-1.3-.42-2.45-.77-3.33-1.04-.88-.27-1.55-.45-1.85-.54.15-.29.47-.89.91-1.71.42-.82.96-1.88,1.57-3.12-.17.07-.35.14-.52.21-.68,1.39-1.27,2.54-1.68,3.34-.43.81-.68,1.28-.68,1.29l-.1.19.21.06s.53.15,1.4.41c.86.27,2.1.64,3.57,1.12.17-.08.35-.15.52-.23Z"/>
            <path class="cls-8" d="m68.02,48.45s.5-.11,1.5-.4c.99-.29,2.48-.77,4.43-1.54,1.95-.78,4.14-1.81,5.83-2.68,1.69-.87,2.89-1.57,2.89-1.57,0,0-1.33.37-3.13.98-1.8.6-4.07,1.46-5.98,2.31-1.91.86-3.29,1.59-4.19,2.1-.9.51-1.33.8-1.33.8Z"/>
            <path class="cls-6" d="m86.76,36.8c-.7,1.37-1.3,2.56-1.73,3.41-.43.84-.69,1.33-.69,1.33,0,0,.54.16,1.44.43.9.28,2.17.67,3.64,1.13,2.34-1.22,3.84-2.75,4.74-4.01.46-.63.74-1.18.92-1.57.18-.4.25-.63.25-.63,0,0-.22-.11-.63-.26-.41-.14-1-.33-1.77-.44-1.53-.23-3.68-.22-6.18.61Z"/>
            <path class="cls-3" d="m86.64,44.3c1.71-.59,3.15-1.32,4.3-2.1,1.15-.78,2.03-1.62,2.69-2.41.66-.79,1.1-1.52,1.35-2.04.26-.53.36-.85.36-.85l-25.36,10.72s.6-.11,1.61-.29c1.02-.19,2.44-.43,4.09-.7,1.65-.27,3.53-.58,5.43-.94,1.9-.37,3.81-.79,5.53-1.38Z"/>
          </g>
          <g>
            <path class="cls-5" d="m94.57,45.7s-.26-.17-.74-.4c-.48-.22-1.19-.5-2.08-.69-.91-.19-2.01-.29-3.27-.19-1.26.09-2.67.38-4.21.92-1.55.55-3.14,1.32-4.69,2.13-1.55.81-3.04,1.65-4.36,2.37-2.66,1.47-4.59,2.5-4.59,2.5,0,0,.55-.03,1.48-.07.93-.04,2.23-.09,3.73-.15,1.51-.06,3.24-.11,4.97-.21,1.74-.11,3.5-.27,5.11-.6,1.6-.33,2.97-.81,4.1-1.38,1.14-.57,2.01-1.22,2.69-1.84.68-.63,1.15-1.23,1.45-1.67.3-.44.42-.72.42-.72Z"/>
            <path class="cls-7" d="m87.74,50.85c-1.1-.53-2.09-.97-2.86-1.31-.76-.34-1.31-.58-1.59-.7.33-.48,1.42-1.96,2.77-4.02-.16.04-.33.08-.49.13-.78,1.17-1.41,2.12-1.9,2.79-.47.67-.75,1.06-.75,1.07l-.11.16.18.08s.12.05.33.14c.2.09.5.22.87.39.74.34,1.83.81,3.06,1.41.16-.05.33-.1.49-.14Z"/>
            <path class="cls-8" d="m68.78,52.87s.47-.04,1.39-.18c.92-.15,2.3-.4,4.13-.87,1.83-.47,3.92-1.14,5.53-1.73,1.61-.58,2.76-1.07,2.76-1.07,0,0-1.24.18-2.92.51-1.68.33-3.82.83-5.63,1.37-1.81.54-3.13,1.04-3.99,1.39-.87.35-1.28.56-1.28.56Z"/>
            <path class="cls-1" d="m86.9,44.64c-.79,1.16-1.45,2.14-1.94,2.84-.48.7-.76,1.11-.76,1.11,0,0,.46.21,1.23.56.39.18.85.39,1.38.63.27.12.55.25.84.38.29.14.59.28.91.42,1.12-.41,2.07-.92,2.85-1.44.78-.53,1.39-1.08,1.86-1.59.47-.51.81-.97,1.02-1.3.2-.33.29-.53.29-.53,0,0-.74-.51-2.06-.9-1.32-.39-3.27-.62-5.6-.17Z"/>
            <path class="cls-3" d="m85.92,51.32c1.6-.33,2.97-.81,4.1-1.38,1.14-.57,2.01-1.22,2.69-1.84.68-.63,1.15-1.23,1.45-1.67.3-.44.42-.72.42-.72l-23.94,6.65s.55-.03,1.48-.07c.93-.04,2.23-.09,3.73-.15,1.51-.06,3.24-.11,4.97-.21,1.74-.11,3.5-.27,5.11-.6Z"/>
          </g>
          <g>
            <path class="cls-4" d="m92.54,54.41s-.04-.05-.14-.14c-.09-.09-.23-.21-.42-.36-.37-.29-.93-.67-1.67-1.02-.74-.35-1.68-.66-2.79-.84-1.11-.18-2.4-.22-3.85-.07-1.45.15-3,.49-4.5.87-1.51.38-2.97.8-4.27,1.16-1.29.36-2.42.66-3.22.88-.79.21-1.27.34-1.27.34,0,0,1.91.35,4.57.89,1.33.26,2.81.57,4.35.84,1.53.26,3.1.49,4.56.53,1.46.04,2.74-.09,3.83-.36,1.09-.26,2.02-.64,2.72-1.04.71-.4,1.24-.82,1.59-1.14.35-.32.52-.54.52-.54Z"/>
            <path class="cls-2" d="m85.56,57.46c-.43-.34-.83-.66-1.19-.95-.36-.29-.71-.55-1.01-.78-.59-.45-1.02-.77-1.23-.93.2-.17.6-.53,1.15-1.02.28-.25.6-.54.95-.85.34-.32.72-.67,1.12-1.04-.15,0-.3,0-.45,0-.45.42-.86.81-1.24,1.15-.38.34-.71.63-.98.88-.54.48-.86.77-.87.77l-.13.12.14.11s.35.26.92.71c.29.22.65.49,1.05.8.4.32.84.67,1.32,1.05.15,0,.3-.02.45-.02Z"/>
            <path class="cls-8" d="m68.7,55.3s.41.07,1.23.13c.83.06,2.08.13,3.77.1,1.69-.03,3.63-.18,5.15-.36,1.52-.17,2.62-.35,2.62-.35,0,0-.28-.02-.74-.06-.47-.03-1.13-.07-1.9-.1-1.53-.06-3.48-.07-5.17.03-1.68.1-2.92.26-3.75.38-.82.13-1.22.22-1.22.22Z"/>
            <path class="cls-6" d="m86.11,51.9c-.9.84-1.71,1.55-2.27,2.06-.56.5-.89.8-.89.8,0,0,.35.27.94.74.3.23.66.51,1.08.83.41.32.86.68,1.34,1.06,2.11-.26,3.7-.97,4.71-1.66,1.02-.69,1.52-1.32,1.52-1.32,0,0-.13-.15-.4-.37-.27-.22-.67-.53-1.21-.83-.54-.3-1.2-.61-2.01-.85-.81-.24-1.75-.41-2.81-.46Z"/>
            <path class="cls-3" d="m83.88,57.49c1.46.04,2.74-.09,3.83-.36,1.09-.26,2.02-.64,2.72-1.04.71-.4,1.24-.82,1.59-1.14.35-.32.52-.54.52-.54l-22.13.83s1.91.35,4.57.89c1.33.26,2.81.57,4.35.84,1.53.26,3.1.49,4.56.53Z"/>
          </g>
          <g>
            <path class="cls-4" d="m38.59,3.11s.36.23.91.71c.55.48,1.28,1.22,2.01,2.28.73,1.05,1.45,2.39,2.01,4.04.56,1.64.94,3.58,1.08,5.83.13,2.25,0,4.7-.2,7.1-.2,2.4-.46,4.75-.68,6.81-.22,2.05-.39,3.85-.5,5.13-.11,1.27-.17,2.03-.17,2.03,0,0-.26-.72-.69-1.92-.44-1.21-1.07-2.88-1.81-4.82-.74-1.94-1.6-4.15-2.42-6.41-.81-2.27-1.57-4.57-2.03-6.79-.45-2.21-.59-4.21-.47-5.93.11-1.73.47-3.21.9-4.41.43-1.21.95-2.13,1.36-2.73.41-.61.7-.92.7-.92Z"/>
            <path class="cls-2" d="m35.71,14.53c1.28,1.12,2.39,2.13,3.23,2.9.85.78,1.45,1.38,1.75,1.65.21-.35.66-1.06,1.26-2.05.62-.96,1.42-2.2,2.37-3.63.03.23.07.46.1.69-1.07,1.62-1.94,2.95-2.54,3.9-.6.96-.95,1.53-.95,1.54l-.14.23-.2-.19s-.5-.47-1.32-1.24c-.83-.75-2.02-1.84-3.47-3.11-.03-.24-.06-.47-.08-.7Z"/>
            <path class="cls-8" d="m43.4,39.65s-.2-.61-.51-1.86c-.31-1.25-.73-3.14-1.13-5.72-.39-2.58-.67-5.57-.8-7.93-.13-2.36-.14-4.08-.14-4.08,0,0,.44,1.66.92,3.98.49,2.31,1,5.28,1.28,7.87.29,2.59.36,4.53.39,5.81.02,1.29-.01,1.92-.01,1.92Z"/>
            <path class="cls-6" d="m44.11,12.25c-1.06,1.64-1.95,2.99-2.58,3.99-.63.99-1,1.58-1,1.58,0,0-.51-.47-1.37-1.27-.88-.79-2.11-1.9-3.53-3.18-.17-3.27.53-5.84,1.32-7.61.39-.89.81-1.53,1.12-1.98.31-.44.53-.67.53-.67,0,0,.26.16.68.51.42.35.99.87,1.59,1.61,1.22,1.5,2.55,3.82,3.24,7.02Z"/>
            <path class="cls-3" d="m36.11,17.09c-.45-2.21-.59-4.21-.47-5.93.11-1.73.47-3.21.9-4.41.43-1.21.95-2.13,1.36-2.73.41-.61.7-.92.7-.92l4.46,33.92s-.26-.72-.69-1.92c-.44-1.21-1.07-2.88-1.81-4.82-.74-1.94-1.6-4.15-2.42-6.41-.81-2.27-1.57-4.57-2.03-6.79Z"/>
          </g>
          <g>
            <path class="cls-5" d="m26.44,9.23s.4.13,1.05.45c.65.33,1.53.85,2.49,1.66.96.82,1.99,1.92,2.93,3.35.94,1.43,1.8,3.18,2.48,5.29.69,2.11,1.17,4.47,1.58,6.81.41,2.33.75,4.63,1.06,6.65.31,2.02.6,3.78.81,5.02.21,1.23.34,1.97.34,1.97,0,0-.43-.62-1.14-1.66-.71-1.02-1.73-2.46-2.93-4.13-1.19-1.66-2.57-3.57-3.91-5.5-1.33-1.94-2.64-3.96-3.63-5.95-.99-1.99-1.61-3.85-1.94-5.53-.33-1.69-.36-3.17-.25-4.42.12-1.25.37-2.26.61-2.95.24-.68.44-1.05.44-1.05Z"/>
            <path class="cls-7" d="m26.56,20.85c.75.36,1.44.71,2.09,1.05.63.33,1.21.63,1.72.9,1,.52,1.72.93,2.07,1.12.12-.38.36-1.17.69-2.26.34-1.1.81-2.45,1.35-4.05.09.21.18.42.27.63-.3.89-.58,1.71-.83,2.45-.12.36-.23.7-.34,1.02-.1.32-.19.62-.28.89-.33,1.06-.52,1.69-.53,1.7l-.08.25-.24-.13s-.15-.08-.42-.23c-.27-.15-.65-.35-1.14-.61-.5-.26-1.09-.57-1.77-.93-.35-.18-.71-.37-1.1-.57-.39-.19-.79-.39-1.21-.59-.09-.22-.17-.43-.25-.64Z"/>
            <path class="cls-8" d="m40.17,42.83s-.34-.53-.95-1.65c-.61-1.12-1.48-2.81-2.5-5.16-1.02-2.35-2.04-5.15-2.75-7.36-.72-2.21-1.15-3.84-1.15-3.84,0,0,.84,1.47,1.87,3.56,1.04,2.08,2.27,4.78,3.19,7.18.92,2.4,1.48,4.22,1.82,5.44.34,1.22.47,1.83.47,1.83Z"/>
            <path class="cls-1" d="m33.99,16.56c-.6,1.82-1.12,3.32-1.47,4.44-.35,1.09-.56,1.74-.56,1.74,0,0-.15-.08-.43-.23-.28-.15-.69-.37-1.19-.63-.51-.27-1.13-.59-1.82-.95-.7-.37-1.49-.78-2.33-1.2-.99-3.1-.97-5.71-.65-7.58.31-1.88.91-2.94.91-2.94,0,0,1.18.36,2.7,1.46,1.53,1.1,3.4,3,4.85,5.87Z"/>
            <path class="cls-3" d="m27.58,23.18c-.99-1.99-1.61-3.85-1.94-5.53-.33-1.69-.36-3.17-.25-4.42.12-1.25.37-2.26.61-2.95.24-.68.44-1.05.44-1.05l12.74,31.19s-.43-.62-1.14-1.66c-.71-1.02-1.73-2.46-2.93-4.13-1.19-1.66-2.57-3.57-3.91-5.5-1.33-1.94-2.64-3.96-3.63-5.95Z"/>
          </g>
          <g>
            <path class="cls-4" d="m16.31,17.79s.39.02,1.04.16c.65.14,1.57.4,2.61.89,1.03.48,2.22,1.23,3.39,2.27,1.18,1.04,2.35,2.4,3.47,4.11,1.11,1.71,2.1,3.69,3.02,5.66.92,1.98,1.75,3.91,2.52,5.65,1.52,3.46,2.67,5.92,2.67,5.92,0,0-.52-.44-1.4-1.18-.88-.74-2.13-1.78-3.59-2.98-1.46-1.21-3.11-2.53-4.76-3.95-1.65-1.41-3.29-2.9-4.63-4.43-1.35-1.53-2.34-3.03-3.03-4.45-.69-1.41-1.09-2.75-1.28-3.87-.19-1.13-.2-2.08-.16-2.75.04-.67.13-1.05.13-1.05Z"/>
            <path class="cls-2" d="m19.18,28.07c.75.15,1.45.3,2.09.43.64.15,1.23.28,1.74.4,1.01.24,1.74.41,2.1.49.02-.37.05-1.12.09-2.15.02-.52.04-1.13.09-1.78.05-.66.1-1.37.15-2.14.13.16.26.33.39.5-.06.86-.12,1.65-.17,2.36-.03.71-.06,1.33-.09,1.85-.04,1.01-.07,1.61-.07,1.62v.24s-.25-.05-.25-.05c-.01,0-.59-.14-1.58-.37-.5-.12-1.11-.26-1.8-.41-.69-.14-1.47-.3-2.31-.48-.13-.17-.25-.34-.38-.51Z"/>
            <path class="cls-8" d="m36.47,44.35s-.43-.38-1.23-1.22c-.8-.84-1.98-2.13-3.45-3.98-1.46-1.85-3.03-4.08-4.19-5.88-1.17-1.8-1.94-3.15-1.94-3.15,0,0,1.09,1.11,2.51,2.72,1.42,1.6,3.15,3.71,4.54,5.62,1.38,1.91,2.31,3.39,2.91,4.39.59,1,.85,1.51.85,1.51Z"/>
            <path class="cls-6" d="m24.75,22.51c-.05.86-.11,1.67-.15,2.39-.04.72-.07,1.36-.09,1.9-.06,1.05-.09,1.67-.09,1.67,0,0-.61-.14-1.63-.36-.52-.12-1.15-.26-1.85-.42-.71-.15-1.5-.32-2.34-.5-.8-1.25-1.36-2.46-1.74-3.58-.38-1.12-.56-2.12-.64-2.99-.08-.86-.05-1.57-.01-2.06.04-.49.11-.77.11-.77,0,0,1.13.05,2.75.67,1.61.6,3.72,1.85,5.69,4.06Z"/>
            <path class="cls-3" d="m20.64,29.9c-1.35-1.53-2.34-3.03-3.03-4.45-.69-1.41-1.09-2.75-1.28-3.87-.19-1.13-.2-2.08-.16-2.75.04-.67.13-1.05.13-1.05l18.71,24.66s-.52-.44-1.4-1.18c-.88-.74-2.13-1.78-3.59-2.98-1.46-1.21-3.11-2.53-4.76-3.95-1.65-1.41-3.29-2.9-4.63-4.43Z"/>
          </g>
          <g>
            <path class="cls-5" d="m9.58,27.22s.35-.08.96-.11c.62-.02,1.5,0,2.55.21,1.05.21,2.25.58,3.55,1.25,1.3.67,2.67,1.61,4.07,2.89,1.4,1.28,2.74,2.82,4.02,4.37,1.27,1.54,2.5,3.12,3.57,4.49,1.08,1.37,2.01,2.54,2.68,3.37.68.83,1.08,1.33,1.08,1.33,0,0-.57-.28-1.53-.74-.96-.46-2.34-1.11-3.91-1.84-1.57-.73-3.37-1.55-5.18-2.44-1.81-.89-3.62-1.85-5.18-2.92-1.56-1.07-2.79-2.18-3.73-3.29-.94-1.11-1.6-2.2-2.05-3.18-.44-.97-.66-1.81-.77-2.42-.11-.6-.12-.96-.12-.96Z"/>
            <path class="cls-7" d="m14.53,35.76c1.44-.06,2.65-.12,3.63-.13.96-.01,1.67-.03,2.01-.03-.04-.17-.1-.42-.17-.75-.07-.33-.16-.73-.25-1.2-.19-.94-.46-2.18-.7-3.56.15.12.31.24.47.36.27,1.57.57,2.91.75,3.82.1.46.17.82.23,1.08.06.25.09.39.09.4l.05.22h-.23s-.57.02-1.51.03c-.24,0-.5,0-.79.01-.28.01-.59.02-.91.03-.66.03-1.4.06-2.2.09-.15-.12-.31-.25-.45-.37Z"/>
            <path class="cls-8" d="m33.79,46.39s-.47-.25-1.39-.81c-.91-.57-2.27-1.46-4.01-2.77-1.74-1.32-3.65-2.96-5.11-4.31-1.46-1.34-2.46-2.37-2.46-2.37,0,0,1.23.74,2.87,1.85,1.64,1.1,3.69,2.59,5.37,3.98,1.68,1.39,2.85,2.5,3.62,3.27.77.76,1.12,1.17,1.12,1.17Z"/>
            <path class="cls-1" d="m18.23,29.51c.07.39.15.77.22,1.14.07.37.15.72.21,1.05.13.65.25,1.23.35,1.71.09.48.17.85.23,1.12.06.26.08.41.08.41,0,0-.58.02-1.56.05-1,.01-2.35.08-3.97.13-2-1.87-3.11-3.83-3.65-5.34-.54-1.5-.56-2.54-.56-2.54,0,0,.25-.05.7-.09.45-.04,1.11-.04,1.91.05,1.6.18,3.74.78,6.04,2.32Z"/>
            <path class="cls-3" d="m16.25,37.07c-1.56-1.07-2.79-2.18-3.73-3.29-.94-1.11-1.6-2.2-2.05-3.18-.44-.97-.66-1.81-.77-2.42-.11-.6-.12-.96-.12-.96l22.48,17.79s-.57-.28-1.53-.74c-.96-.46-2.34-1.11-3.91-1.84-1.57-.73-3.37-1.55-5.18-2.44-1.81-.89-3.62-1.85-5.18-2.92Z"/>
          </g>
          <g>
            <path class="cls-4" d="m4.61,36.89s.3-.16.86-.34c.28-.09.62-.19,1.02-.27.4-.08.87-.15,1.38-.19,1.03-.08,2.25-.03,3.61.25,1.36.28,2.88.8,4.5,1.62,1.62.82,3.25,1.9,4.85,3.01,1.59,1.11,3.11,2.25,4.46,3.24.67.49,1.3.95,1.86,1.36.57.41,1.07.77,1.49,1.08.84.6,1.33.95,1.33.95,0,0-.6-.11-1.61-.29-1.02-.19-2.44-.43-4.09-.7-1.65-.27-3.53-.58-5.43-.94-1.9-.37-3.81-.79-5.53-1.38-1.71-.59-3.15-1.32-4.3-2.1-1.15-.78-2.03-1.62-2.69-2.41-.66-.79-1.1-1.52-1.35-2.04-.26-.53-.36-.85-.36-.85Z"/>
            <path class="cls-2" d="m11.37,43.52c1.3-.42,2.45-.77,3.33-1.04.88-.27,1.55-.45,1.85-.54-.15-.29-.47-.89-.91-1.71-.42-.82-.96-1.88-1.57-3.12.17.07.35.14.52.21.68,1.39,1.27,2.54,1.68,3.34.43.81.68,1.28.68,1.29l.1.19-.21.06s-.53.15-1.4.41c-.86.27-2.1.64-3.57,1.12-.17-.08-.35-.15-.52-.23Z"/>
            <path class="cls-8" d="m31.93,48.45s-.5-.11-1.5-.4c-.99-.29-2.48-.77-4.43-1.54-1.95-.78-4.14-1.81-5.83-2.68-1.69-.87-2.89-1.57-2.89-1.57,0,0,1.33.37,3.13.98,1.8.6,4.07,1.46,5.98,2.31,1.91.86,3.29,1.59,4.19,2.1.9.51,1.33.8,1.33.8Z"/>
            <path class="cls-6" d="m13.19,36.8c.7,1.37,1.3,2.56,1.73,3.41.43.84.69,1.33.69,1.33,0,0-.54.16-1.44.43-.9.28-2.17.67-3.64,1.13-2.34-1.22-3.84-2.75-4.74-4.01-.46-.63-.74-1.18-.92-1.57-.18-.4-.25-.63-.25-.63,0,0,.22-.11.63-.26.41-.14,1-.33,1.77-.44,1.53-.23,3.68-.22,6.18.61Z"/>
            <path class="cls-3" d="m13.31,44.3c-1.71-.59-3.15-1.32-4.3-2.1-1.15-.78-2.03-1.62-2.69-2.41-.66-.79-1.1-1.52-1.35-2.04-.26-.53-.36-.85-.36-.85l25.36,10.72s-.6-.11-1.61-.29c-1.02-.19-2.44-.43-4.09-.7-1.65-.27-3.53-.58-5.43-.94-1.9-.37-3.81-.79-5.53-1.38Z"/>
          </g>
          <g>
            <path class="cls-5" d="m5.38,45.7s.26-.17.74-.4c.48-.22,1.19-.5,2.08-.69.91-.19,2.01-.29,3.27-.19,1.26.09,2.67.38,4.21.92,1.55.55,3.14,1.32,4.69,2.13,1.55.81,3.04,1.65,4.36,2.37,2.66,1.47,4.59,2.5,4.59,2.5,0,0-.55-.03-1.48-.07-.93-.04-2.23-.09-3.73-.15-1.51-.06-3.24-.11-4.97-.21-1.74-.11-3.5-.27-5.11-.6-1.6-.33-2.97-.81-4.1-1.38-1.14-.57-2.01-1.22-2.69-1.84-.68-.63-1.15-1.23-1.45-1.67-.3-.44-.42-.72-.42-.72Z"/>
            <path class="cls-7" d="m12.21,50.85c1.1-.53,2.09-.97,2.86-1.31.76-.34,1.31-.58,1.59-.7-.33-.48-1.42-1.96-2.77-4.02.16.04.33.08.49.13.78,1.17,1.41,2.12,1.9,2.79.47.67.75,1.06.75,1.07l.11.16-.18.08s-.12.05-.33.14c-.2.09-.5.22-.87.39-.74.34-1.83.81-3.06,1.41-.16-.05-.33-.1-.49-.14Z"/>
            <path class="cls-8" d="m31.17,52.87s-.47-.04-1.39-.18c-.92-.15-2.3-.4-4.13-.87-1.83-.47-3.92-1.14-5.53-1.73-1.61-.58-2.76-1.07-2.76-1.07,0,0,1.24.18,2.92.51,1.68.33,3.82.83,5.63,1.37,1.81.54,3.13,1.04,3.99,1.39.87.35,1.28.56,1.28.56Z"/>
            <path class="cls-1" d="m13.05,44.64c.79,1.16,1.45,2.14,1.94,2.84.48.7.76,1.11.76,1.11,0,0-.46.21-1.23.56-.39.18-.85.39-1.38.63-.27.12-.55.25-.84.38-.29.14-.59.28-.91.42-1.12-.41-2.07-.92-2.85-1.44-.78-.53-1.39-1.08-1.86-1.59-.47-.51-.81-.97-1.02-1.3-.2-.33-.29-.53-.29-.53,0,0,.74-.51,2.06-.9,1.32-.39,3.27-.62,5.6-.17Z"/>
            <path class="cls-3" d="m14.03,51.32c-1.6-.33-2.97-.81-4.1-1.38-1.14-.57-2.01-1.22-2.69-1.84-.68-.63-1.15-1.23-1.45-1.67-.3-.44-.42-.72-.42-.72l23.94,6.65s-.55-.03-1.48-.07c-.93-.04-2.23-.09-3.73-.15-1.51-.06-3.24-.11-4.97-.21-1.74-.11-3.5-.27-5.11-.6Z"/>
          </g>
          <g>
            <path class="cls-4" d="m7.41,54.41s.04-.05.14-.14c.09-.09.23-.21.42-.36.37-.29.93-.67,1.67-1.02.74-.35,1.67-.66,2.79-.84,1.11-.18,2.4-.22,3.85-.07,1.45.15,3,.49,4.5.87,1.51.38,2.97.8,4.27,1.16,1.29.36,2.42.66,3.22.88.79.21,1.27.34,1.27.34,0,0-1.91.35-4.57.89-1.33.26-2.81.57-4.35.84-1.53.26-3.1.49-4.56.53-1.46.04-2.74-.09-3.83-.36-1.09-.26-2.02-.64-2.72-1.04-.71-.4-1.24-.82-1.59-1.14-.35-.32-.52-.54-.52-.54Z"/>
            <path class="cls-2" d="m14.39,57.46c.43-.34.83-.66,1.19-.95.36-.29.71-.55,1.01-.78.59-.45,1.02-.77,1.23-.93-.2-.17-.6-.53-1.15-1.02-.28-.25-.6-.54-.95-.85-.34-.32-.72-.67-1.12-1.04.15,0,.3,0,.45,0,.45.42.86.81,1.24,1.15.38.34.71.63.98.88.54.48.86.77.87.77l.13.12-.14.11s-.35.26-.92.71c-.29.22-.65.49-1.05.8-.4.32-.84.67-1.32,1.05-.15,0-.3-.02-.45-.02Z"/>
            <path class="cls-8" d="m31.25,55.3s-.41.07-1.23.13c-.83.06-2.08.13-3.77.1-1.69-.03-3.63-.18-5.15-.36-1.52-.17-2.62-.35-2.62-.35,0,0,.28-.02.74-.06.47-.03,1.13-.07,1.9-.1,1.53-.06,3.48-.07,5.17.03,1.68.1,2.92.26,3.75.38.82.13,1.22.22,1.22.22Z"/>
            <path class="cls-6" d="m13.84,51.9c.9.84,1.71,1.55,2.27,2.06.56.5.89.8.89.8,0,0-.35.27-.94.74-.3.23-.66.51-1.08.83-.41.32-.86.68-1.34,1.06-2.11-.26-3.7-.97-4.71-1.66-1.02-.69-1.52-1.32-1.52-1.32,0,0,.13-.15.4-.37.27-.22.67-.53,1.21-.83.54-.3,1.2-.61,2.01-.85.81-.24,1.75-.41,2.81-.46Z"/>
            <path class="cls-3" d="m16.07,57.49c-1.46.04-2.74-.09-3.83-.36-1.09-.26-2.02-.64-2.72-1.04-.71-.4-1.24-.82-1.59-1.14-.35-.32-.52-.54-.52-.54l22.13.83s-1.91.35-4.57.89c-1.33.26-2.81.57-4.35.84-1.53.26-3.1.49-4.56.53Z"/>
          </g>
        </g>
        <g>
          <path class="cls-5" d="m49.97,0s-3.9,4.48-3.99,13.79c-.09,9.31,3.99,21.48,3.99,21.48,0,0,4.08-12.18,3.99-21.48-.09-9.31-3.99-13.79-3.99-13.79Z"/>
          <path class="cls-7" d="m53.83,11.13c-1.81,2.8-3.35,4.83-3.85,5.48-.5-.65-2.04-2.68-3.85-5.48-.02.24-.04.48-.06.72,2.07,3.16,3.72,5.23,3.74,5.26l.17.22.17-.22s1.67-2.1,3.74-5.26c-.02-.24-.04-.48-.06-.72Z"/>
          <path class="cls-8" d="m49.97,38s.83-2.59.85-7.96c.02-5.37-.85-12.4-.85-12.4,0,0-.87,7.03-.85,12.4.02,5.37.85,7.96.85,7.96Z"/>
          <path class="cls-1" d="m46.26,9.93c1.99,3.2,3.71,5.36,3.71,5.36,0,0,1.73-2.17,3.72-5.36-.9-6.68-3.72-9.93-3.72-9.93,0,0-2.81,3.24-3.71,9.93Z"/>
          <path class="cls-3" d="m53.96,13.79c-.09-9.31-3.99-13.79-3.99-13.79v35.27s4.08-12.18,3.99-21.48Z"/>
        </g>
        <g>
          <path class="cls-9" d="m72.96,53.92c0-.21,0-.43-.02-.66-.02-.23-.04-.46-.06-.7-.03-.49-.13-.99-.21-1.52-.11-.52-.21-1.07-.37-1.61-.14-.55-.33-1.09-.51-1.63-.21-.53-.41-1.07-.66-1.58-.12-.26-.24-.51-.37-.76-.13-.25-.25-.49-.39-.73-.28-.47-.54-.92-.82-1.33-.27-.42-.55-.79-.82-1.14-.26-.35-.52-.65-.75-.92-.22-.27-.44-.49-.61-.68-.34-.38-.55-.58-.55-.58,0,0-.21-.2-.57-.56-.19-.17-.42-.37-.69-.61-.26-.24-.58-.48-.92-.75-.35-.27-.73-.54-1.14-.83-.42-.27-.86-.57-1.34-.84-.47-.28-.97-.54-1.49-.8-.26-.13-.52-.24-.79-.36-.26-.12-.53-.24-.81-.34-.54-.22-1.09-.41-1.64-.58-.55-.17-1.09-.32-1.63-.44-.53-.12-1.05-.23-1.55-.3-.49-.09-.96-.14-1.4-.18-.43-.05-.83-.06-1.19-.08-.35-.02-.66-.02-.92-.02-.51,0-.8.01-.8.01,0,0-.29,0-.8-.01-.25,0-.56,0-.92.02-.35.02-.75.03-1.19.08-.43.04-.9.09-1.4.18-.5.07-1.01.18-1.55.3-.53.12-1.08.27-1.63.44-.55.18-1.1.36-1.64.58-.27.1-.54.22-.81.34-.26.12-.53.23-.79.36-.51.26-1.02.51-1.49.8-.48.27-.91.57-1.34.84-.41.29-.8.56-1.14.83-.34.27-.66.51-.92.75-.26.24-.5.44-.69.61-.36.36-.57.56-.57.56,0,0-.21.2-.55.58-.17.19-.39.41-.61.68-.22.27-.49.57-.75.92-.26.35-.55.72-.82,1.14-.28.41-.55.86-.82,1.33-.14.23-.26.48-.39.73-.13.25-.26.5-.37.76-.25.51-.45,1.05-.66,1.58-.19.54-.38,1.08-.51,1.63-.16.54-.26,1.09-.37,1.61-.08.53-.17,1.03-.21,1.52-.02.24-.04.48-.06.7-.01.23-.02.45-.02.66-.02.42,0,.81,0,1.15,0,.34.02.64.05.88.05.48.08.76.08.76h3.89s.04-.22.12-.61c.03-.19.08-.43.15-.69.06-.27.13-.56.22-.88.08-.32.19-.66.31-1.02.11-.36.27-.72.41-1.1.16-.37.32-.76.52-1.13.17-.38.4-.75.6-1.13.22-.37.44-.73.68-1.07.22-.35.49-.67.72-.99.25-.31.48-.61.73-.87.23-.28.47-.52.69-.74.21-.23.44-.42.62-.59.18-.18.36-.31.49-.44.27-.24.44-.37.44-.37,0,0,.16-.13.45-.36.15-.11.33-.24.53-.39.2-.15.45-.3.71-.48.26-.17.55-.34.86-.52.32-.17.64-.36.99-.52.34-.18.71-.34,1.09-.5.38-.15.76-.32,1.15-.45.2-.06.39-.14.59-.2.2-.06.39-.12.59-.18.39-.11.78-.21,1.16-.3.38-.08.74-.17,1.1-.22.35-.07.68-.11.99-.15.31-.05.59-.07.85-.1.25-.03.47-.05.66-.06.37-.03.57-.04.57-.04,0,0,.21.02.57.04.18,0,.4.02.66.06.25.03.54.04.85.1.31.04.64.08.99.15.35.06.72.14,1.1.22.38.08.77.19,1.16.3.2.06.39.12.59.18.2.06.39.14.59.2.39.13.77.3,1.15.45.37.16.74.33,1.09.5.35.16.67.36.99.52.31.18.6.35.86.52.26.18.5.33.71.48.21.15.38.28.53.39.28.23.45.36.45.36,0,0,.17.12.44.37.14.12.31.26.49.44.18.18.4.37.62.59.22.23.46.47.69.74.25.26.48.56.73.87.23.32.5.64.72.99.24.34.46.71.68,1.07.2.37.42.74.6,1.13.2.38.35.76.52,1.13.14.38.3.74.41,1.1.12.36.23.7.31,1.02.1.32.17.61.22.88.06.26.11.5.15.69.07.39.12.61.12.61h3.89s.03-.28.08-.76c.03-.24.05-.54.05-.88.01-.34.03-.73,0-1.15Z"/>
          <path class="cls-4" d="m55.87,39.33s.47-.29.97-.58c.5-.28,1.02-.52,1.02-.52,0,0,.23.53.41,1.07.09.26.18.53.25.72.06.2.1.33.1.33,0,0-.16-.08-.42-.18-.26-.1-.59-.26-.94-.37-.34-.13-.69-.25-.95-.33-.26-.08-.44-.14-.44-.14Z"/>
          <path class="cls-5" d="m63.53,39.77s-.14.01-.36.05c-.22.03-.5.08-.78.14-.56.1-1.11.25-1.11.25,0,0-.03-.14-.08-.35-.05-.21-.12-.49-.2-.77-.15-.55-.34-1.13-.34-1.13,0,0,.18.1.46.26.14.08.3.17.47.27.17.1.35.22.53.33.36.22.71.47.97.65.26.18.43.31.43.31Z"/>
          <path class="cls-5" d="m55.93,36.12s-.52.29-1,.63c-.24.16-.48.33-.66.45-.18.13-.29.22-.29.22,0,0-.31-.48-.65-.97-.34-.47-.72-.93-.72-.93,0,0,.21.02.52.06.32.03.73.11,1.15.18.42.07.83.17,1.14.24.16.03.28.07.37.09.09.02.14.04.14.04Z"/>
          <path class="cls-4" d="m67.46,48.14s.49.15.96.34c.47.19.93.42.93.42,0,0-.03.12-.09.31-.05.18-.12.42-.19.66-.07.23-.14.47-.2.64-.06.17-.1.28-.1.28,0,0-.07-.17-.17-.43-.12-.25-.27-.59-.43-.92-.18-.33-.34-.66-.48-.9-.14-.24-.23-.4-.23-.4Z"/>
          <path class="cls-5" d="m71.71,54.13s-.07-.09-.18-.24c-.11-.14-.26-.32-.43-.5-.33-.35-.68-.68-.68-.68,0,0,.19-.45.37-.91.1-.24.18-.47.25-.65.07-.18.11-.31.11-.31,0,0,.05.2.13.51.07.3.15.72.23,1.12.06.41.12.82.16,1.13.03.31.04.52.04.52Z"/>
          <path class="cls-5" d="m69.23,46.17s-.13-.04-.31-.11c-.19-.07-.44-.15-.7-.22-.26-.07-.52-.14-.71-.18-.19-.05-.33-.07-.33-.07,0,0,.05-.54.1-1.08.03-.54.05-1.11.05-1.11,0,0,.13.17.33.41.2.24.44.59.68.93.24.35.46.71.63.97.16.27.26.46.26.46Z"/>
          <path class="cls-4" d="m44.08,39.33s-.47-.29-.97-.58c-.5-.28-1.02-.52-1.02-.52,0,0-.23.53-.41,1.07-.09.26-.18.53-.25.72-.06.2-.1.33-.1.33,0,0,.16-.08.42-.18.26-.1.59-.26.94-.37.34-.13.69-.25.95-.33.26-.08.44-.14.44-.14Z"/>
          <path class="cls-5" d="m36.42,39.77s.14.01.36.05c.22.03.5.08.78.14.56.1,1.11.25,1.11.25,0,0,.03-.14.08-.35.05-.21.12-.49.2-.77.15-.55.34-1.13.34-1.13,0,0-.18.1-.46.26-.14.08-.3.17-.47.27-.17.1-.35.22-.53.33-.36.22-.71.47-.97.65-.26.18-.43.31-.43.31Z"/>
          <path class="cls-5" d="m44.02,36.12s.51.29,1,.63c.24.16.48.33.66.45.18.13.29.22.29.22,0,0,.31-.48.65-.97.34-.47.72-.93.72-.93,0,0-.21.02-.52.06-.32.03-.73.11-1.15.18-.42.07-.83.17-1.14.24-.16.03-.28.07-.37.09-.09.02-.14.04-.14.04Z"/>
          <g>
            <path class="cls-6" d="m73.42,53.18c-.02-.23-.03-.47-.05-.72-.03-.5-.12-1.02-.19-1.56-.1-.54-.2-1.1-.35-1.66-.14-.56-.32-1.12-.51-1.68-.21-.55-.41-1.11-.66-1.64-.12-.27-.24-.53-.37-.78-.13-.25-.25-.51-.39-.75-.28-.48-.55-.95-.83-1.38-.28-.43-.56-.82-.83-1.18-.26-.37-.53-.67-.76-.96-.23-.29-.45-.51-.62-.71-.35-.39-.56-.6-.56-.6,0,0-.21-.21-.59-.58-.19-.18-.43-.39-.7-.63-.27-.25-.6-.5-.95-.78-.35-.28-.75-.56-1.17-.86-.43-.28-.88-.59-1.37-.87-.48-.29-1-.56-1.53-.83-.26-.14-.54-.25-.81-.38-.27-.13-.55-.24-.83-.35-.56-.23-1.13-.42-1.69-.6-.57-.17-1.13-.33-1.68-.46-.55-.12-1.08-.24-1.59-.31-.51-.09-.99-.14-1.44-.18-.45-.05-.86-.06-1.22-.08-.36-.02-.68-.02-.94-.02-.52.01-.82.02-.82.02,0,0-.3,0-.82-.02-.26,0-.58,0-.94.02-.36.02-.77.03-1.22.08-.45.04-.93.09-1.44.18-.51.07-1.04.19-1.59.31-.55.13-1.11.28-1.68.46-.56.18-1.13.37-1.69.6-.28.11-.56.23-.83.35-.27.12-.55.24-.81.38-.53.27-1.05.53-1.53.83-.49.28-.94.59-1.37.87-.42.3-.82.58-1.17.86-.35.28-.68.53-.95.78-.27.24-.51.46-.7.63-.37.37-.59.58-.59.58,0,0-.22.21-.56.6-.17.2-.39.42-.62.71-.23.28-.5.59-.76.96-.27.36-.55.75-.83,1.18-.29.42-.55.9-.83,1.38-.14.24-.26.5-.39.75-.13.25-.26.52-.37.78-.25.53-.45,1.09-.66,1.64-.19.56-.37,1.12-.51,1.68-.15.56-.25,1.12-.35,1.66-.07.54-.16,1.06-.19,1.56-.02.25-.03.49-.05.72-.01.23,0,.46-.01.68-.01.43.01.83.03,1.18.01.35.04.65.08.9.06.49.1.77.1.77h.82s-.02-.27-.06-.74c-.02-.24-.03-.53-.03-.86,0-.33-.01-.71.02-1.12.01-.21.02-.42.04-.64.02-.22.05-.45.07-.68.04-.47.14-.96.23-1.48.11-.51.22-1.03.38-1.56.14-.53.33-1.05.52-1.58.21-.52.42-1.04.66-1.53.12-.25.24-.5.37-.73.13-.24.25-.48.39-.7.27-.45.53-.89.81-1.28.27-.4.55-.76.8-1.1.25-.34.51-.62.73-.89.22-.26.43-.47.6-.66.33-.36.54-.55.54-.55,0,0,.2-.2.56-.54.19-.16.41-.36.67-.59.26-.23.57-.46.9-.72.34-.26.71-.52,1.11-.8.41-.26.84-.55,1.3-.8.46-.27.95-.52,1.44-.77.25-.13.51-.23.76-.35.26-.12.52-.23.78-.33.52-.21,1.06-.39,1.59-.56.53-.16,1.06-.31,1.58-.43.52-.11,1.02-.23,1.5-.29.48-.09.93-.13,1.35-.18.42-.05.81-.06,1.15-.08.34-.02.64-.03.89-.02.49,0,.77,0,.77,0,0,0,.28,0,.77,0,.25,0,.55,0,.89.02.34.02.73.03,1.15.08.42.04.88.09,1.35.18.48.07.98.18,1.5.29.52.12,1.04.27,1.58.43.53.17,1.07.35,1.59.56.26.1.53.21.78.33.26.12.52.22.76.35.5.25.99.49,1.44.77.46.26.89.54,1.3.8.4.28.77.54,1.11.8.33.26.64.49.9.72.26.23.48.42.67.59.36.34.56.54.56.54,0,0,.21.19.54.55.17.18.38.39.6.66.22.26.48.55.73.89.26.33.54.69.8,1.1.28.39.54.83.81,1.28.14.23.26.47.39.7.13.24.25.48.37.73.25.49.45,1.01.66,1.53.19.53.38,1.05.52,1.58.16.52.27,1.05.38,1.56.09.51.19,1,.23,1.48.02.24.05.46.07.68.02.22.02.44.04.64.03.41.02.79.02,1.12,0,.33,0,.62-.03.86-.04.47-.06.74-.06.74h.82s.04-.28.1-.77c.04-.25.06-.55.08-.9.02-.35.04-.74.03-1.18,0-.22,0-.44-.01-.68Z"/>
            <path class="cls-6" d="m69.12,55.37c-.05-.27-.11-.58-.2-.91-.07-.33-.17-.68-.29-1.05-.1-.37-.25-.75-.39-1.15-.16-.39-.31-.79-.5-1.18-.17-.4-.39-.79-.59-1.18-.22-.38-.44-.76-.68-1.13-.22-.37-.49-.71-.72-1.04-.5-.65-.99-1.23-1.45-1.7-.22-.24-.45-.44-.63-.63-.18-.19-.37-.33-.51-.46-.28-.26-.45-.39-.45-.39,0,0-.17-.14-.46-.38-.15-.11-.34-.25-.55-.41-.21-.16-.46-.32-.73-.5-.27-.18-.57-.36-.89-.55-.33-.18-.66-.38-1.03-.56-.36-.19-.74-.36-1.13-.53-.39-.16-.79-.34-1.2-.47-.2-.07-.41-.15-.61-.21-.2-.06-.41-.13-.61-.19-.41-.12-.81-.23-1.21-.31-.39-.09-.78-.17-1.14-.23-.36-.07-.71-.11-1.04-.16-.32-.05-.62-.07-.88-.09-.26-.03-.49-.04-.68-.05-.38-.02-.6-.04-.6-.04,0,0-.22.01-.6.04-.19,0-.42.02-.68.05-.26.03-.56.04-.88.09-.32.04-.67.08-1.04.16-.37.06-.75.14-1.14.23-.39.09-.8.2-1.21.31-.2.06-.41.12-.61.19-.2.07-.41.14-.61.21-.41.13-.8.31-1.2.47-.39.17-.77.34-1.13.53-.37.17-.7.38-1.03.56-.32.19-.62.37-.89.55-.26.19-.52.34-.73.5-.21.16-.4.29-.55.41-.29.24-.46.38-.46.38,0,0-.17.13-.45.39-.14.13-.32.27-.51.46-.18.19-.41.39-.63.63-.45.47-.95,1.05-1.45,1.7-.23.33-.5.67-.72,1.04-.24.36-.46.74-.68,1.13-.2.39-.42.78-.59,1.18-.19.39-.34.8-.5,1.18-.14.39-.28.77-.39,1.15-.11.37-.21.72-.29,1.05-.09.33-.15.64-.2.91-.06.27-.1.51-.12.71-.06.4-.1.63-.1.63h.82s.05-.22.14-.6c.04-.19.1-.42.17-.67.06-.26.14-.54.25-.85.09-.31.21-.64.33-.98.12-.34.28-.7.43-1.06.17-.36.33-.73.53-1.09.18-.37.4-.72.61-1.07.22-.35.44-.69.68-1.02.22-.33.48-.63.71-.94.25-.29.48-.57.72-.82.23-.26.47-.49.68-.7.21-.22.43-.39.6-.56.18-.17.35-.3.48-.41.26-.23.43-.34.43-.34,0,0,.16-.12.43-.34.14-.1.32-.22.52-.36.2-.14.44-.28.68-.45.25-.16.54-.32.83-.49.3-.16.61-.34.95-.49.33-.17.68-.32,1.04-.47.37-.14.73-.3,1.1-.42l.56-.19c.19-.06.38-.11.56-.17.37-.1.75-.2,1.11-.28.36-.08.71-.16,1.05-.21.33-.07.66-.11.95-.15.29-.05.57-.07.81-.1.24-.03.45-.05.63-.06.35-.03.55-.05.55-.05,0,0,.2.02.55.05.17.01.39.03.63.06.24.03.52.05.81.1.3.04.62.08.95.15.34.05.69.13,1.05.21.36.08.73.18,1.11.28.19.06.38.11.56.17l.56.19c.38.12.74.28,1.1.42.36.15.71.31,1.04.47.34.15.65.33.95.49.3.17.58.33.83.49.25.17.49.3.68.45.2.14.37.26.52.36.28.21.43.34.43.34,0,0,.17.12.43.34.13.12.31.24.48.41.17.17.39.34.6.56.21.21.45.44.68.7.25.25.47.53.72.82.23.3.49.6.71.94.24.33.46.67.68,1.02.2.36.43.71.61,1.07.2.36.36.73.53,1.09.15.36.31.71.43,1.06.13.34.25.67.33.98.1.31.18.6.25.85.07.26.13.48.17.67.09.38.14.6.14.6h.82s-.04-.23-.1-.63c-.02-.2-.07-.44-.12-.71Z"/>
          </g>
          <g>
            <path class="cls-5" d="m66.05,40.92s-.35-.02-.87-.02c-.53.01-1.21.04-1.9.13-.34.04-.68.1-.99.15-.32.06-.61.13-.85.18-.49.11-.81.22-.81.22,0,0-.07-.35-.18-.87-.13-.51-.31-1.23-.55-1.94-.12-.35-.24-.72-.37-1.05-.13-.33-.26-.64-.38-.92-.12-.27-.22-.5-.29-.65-.07-.16-.12-.24-.12-.24,0,0-.37.15-.9.38-.54.26-1.21.58-1.87.98-.65.38-1.27.8-1.71,1.13-.22.16-.4.3-.53.4-.12.1-.19.16-.19.16,0,0-.17-.29-.46-.73-.29-.42-.69-1-1.14-1.54-.45-.54-.93-1.08-1.31-1.45-.38-.38-.65-.63-.65-.63v1.05s.26.25.62.63c.36.37.83.92,1.25,1.46.42.55.81,1.12,1.07,1.54.27.44.43.72.43.72,0,0,.07-.06.19-.16.12-.1.29-.24.5-.4.42-.33,1.01-.76,1.64-1.14.63-.41,1.28-.74,1.8-1.01.51-.24.87-.39.87-.39,0,0,.04.09.11.24.07.15.17.37.27.64.11.27.23.57.35.9.12.33.23.69.34,1.03.22.69.38,1.39.49,1.89.1.51.16.85.16.85,0,0,.31-.11.79-.24.24-.06.52-.14.83-.21.3-.06.63-.12.97-.18.67-.11,1.34-.16,1.86-.18.51-.02.86,0,.86,0l.66-.72Z"/>
            <path class="cls-5" d="m71.86,56.07c-.18-.38-.5-.86-.84-1.32-.36-.46-.73-.88-1.06-1.18-.32-.3-.54-.48-.54-.48,0,0,.03-.07.08-.19.05-.12.12-.29.2-.5.18-.43.39-1.01.61-1.63.2-.62.42-1.28.55-1.79.07-.26.13-.47.17-.63.04-.15.06-.24.06-.24,0,0-.3-.18-.75-.42-.45-.24-1.08-.53-1.72-.76-.32-.11-.65-.22-.95-.31-.31-.08-.6-.15-.85-.2-.49-.11-.83-.15-.83-.15,0,0,.03-.31.08-.78.03-.46.08-1.12.09-1.79,0-.33,0-.68,0-1-.02-.33-.03-.63-.04-.89-.03-.54-.07-.89-.07-.89l-.66.72s.04.34.05.86c0,.25.02.55.03.86,0,.31,0,.65-.01.97-.01.64-.07,1.28-.11,1.72-.05.45-.09.75-.09.75,0,0,.34.03.83.12.25.04.53.1.84.17.3.08.62.17.95.27.64.21,1.27.46,1.72.69.45.22.75.39.75.39,0,0-.02.08-.06.23-.04.15-.1.35-.17.6-.13.49-.34,1.13-.53,1.72-.22.6-.42,1.16-.59,1.57-.08.2-.14.37-.19.48-.05.11-.08.18-.08.18,0,0,.23.17.55.46.33.28.72.69,1.1,1.13.35.44.69.91.89,1.27.21.36.33.62.33.62h.56s-.11-.26-.31-.64Z"/>
            <path class="cls-5" d="m48.01,36.68c-.45.55-.85,1.12-1.14,1.54-.28.44-.46.73-.46.73,0,0-.07-.06-.19-.16-.13-.1-.31-.24-.53-.4-.44-.32-1.06-.75-1.71-1.13-.65-.4-1.33-.72-1.87-.98-.53-.23-.9-.38-.9-.38,0,0-.04.09-.12.24-.08.15-.18.38-.29.65-.12.27-.25.58-.38.92-.13.34-.25.7-.37,1.05-.24.71-.42,1.42-.55,1.94-.11.52-.18.87-.18.87,0,0-.32-.1-.81-.22-.25-.06-.54-.12-.85-.18-.31-.05-.65-.1-.99-.15-.69-.09-1.37-.12-1.9-.13-.52,0-.87.02-.87.02l.66.72s.35,0,.86,0c.52.03,1.19.07,1.86.18.33.05.66.11.97.18.31.07.59.14.83.21.48.13.79.24.79.24,0,0,.06-.34.16-.85.11-.5.28-1.2.49-1.89.11-.35.22-.7.34-1.03.12-.33.24-.63.35-.9.11-.27.2-.49.27-.64.07-.15.11-.24.11-.24,0,0,.36.15.87.39.52.27,1.17.6,1.8,1.01.63.39,1.22.82,1.64,1.14.21.16.38.3.5.4.12.1.19.16.19.16,0,0,.16-.29.43-.72.27-.42.65-.99,1.07-1.54.42-.54.88-1.09,1.25-1.46.36-.38.62-.63.62-.63v-1.05s-.27.25-.65.63c-.38.37-.87.91-1.31,1.45Z"/>
            <path class="cls-5" d="m34.49,44.34c0-.32-.01-.66-.01-.97,0-.32.02-.61.03-.86.02-.52.05-.86.05-.86l-.66-.72s-.04.35-.07.89c-.01.26-.03.56-.04.89,0,.32,0,.67,0,1,0,.67.05,1.32.09,1.79.05.47.08.78.08.78,0,0-.34.04-.83.15-.25.05-.54.12-.85.2-.3.09-.63.19-.95.31-.64.23-1.27.51-1.72.76-.45.24-.75.42-.75.42,0,0,.02.09.06.24.04.15.1.37.17.63.13.51.35,1.17.55,1.79.23.63.43,1.21.61,1.63.08.21.15.38.2.5.05.12.08.19.08.19,0,0-.22.18-.54.48-.32.3-.7.72-1.06,1.18-.34.46-.66.94-.84,1.32-.2.38-.31.64-.31.64h.56s.12-.25.33-.62c.2-.37.54-.83.89-1.27.38-.44.76-.85,1.1-1.13.33-.28.55-.46.55-.46,0,0-.03-.07-.08-.18-.05-.12-.11-.28-.19-.48-.17-.41-.37-.97-.59-1.57-.19-.59-.41-1.23-.53-1.72-.07-.25-.13-.46-.17-.6-.04-.15-.06-.23-.06-.23,0,0,.3-.17.75-.39.45-.23,1.08-.48,1.72-.69.32-.1.65-.19.95-.27.31-.07.6-.13.84-.17.49-.09.83-.12.83-.12,0,0-.04-.3-.09-.75-.04-.45-.1-1.08-.11-1.72Z"/>
          </g>
          <path class="cls-4" d="m32.49,48.14s-.49.15-.96.34c-.47.19-.93.42-.93.42,0,0,.03.12.09.31.05.18.12.42.19.66.07.23.14.47.2.64.06.17.1.28.1.28,0,0,.07-.17.17-.43.12-.25.27-.59.43-.92.18-.33.34-.66.48-.9.14-.24.23-.4.23-.4Z"/>
          <path class="cls-5" d="m28.24,54.13s.07-.09.18-.24c.11-.14.26-.32.43-.5.33-.35.68-.68.68-.68,0,0-.19-.45-.37-.91-.1-.24-.18-.47-.25-.65-.07-.18-.11-.31-.11-.31,0,0-.05.2-.13.51-.07.3-.15.72-.23,1.12-.06.41-.12.82-.16,1.13-.03.31-.04.52-.04.52Z"/>
          <path class="cls-5" d="m30.72,46.17s.13-.04.31-.11c.19-.07.44-.15.7-.22.26-.07.52-.14.71-.18.19-.05.33-.07.33-.07,0,0-.05-.54-.1-1.08-.03-.54-.05-1.11-.05-1.11,0,0-.13.17-.33.41-.2.24-.44.59-.68.93-.24.35-.46.71-.63.97-.16.27-.26.46-.26.46Z"/>
          <g>
            <path class="cls-2" d="m63.57,42.49c-.55.06-1.08.14-1.08.14,0,0,.29.23.58.45.28.23.56.48.56.48l1.04-1.14s-.55.01-1.1.07Z"/>
            <path class="cls-2" d="m50.74,37.64c-.37-.43-.76-.85-.76-.85v1.65s.37.02.74.03c.18,0,.37.01.5.03.14.01.23.02.23.02,0,0-.09-.11-.21-.28-.13-.17-.31-.39-.49-.6Z"/>
            <path class="cls-2" d="m70.51,55.93c-.12-.19-.27-.37-.38-.5-.11-.13-.18-.22-.18-.22,0,0,.01.09.03.23.02.14.05.33.06.51.03.38.07.75.07.75h.89s-.23-.4-.48-.77Z"/>
            <path class="cls-2" d="m64.69,42.77c-.01-.21-.02-.34-.02-.34l-1.04,1.14s.07.06.17.15c.1.09.23.22.37.34.13.13.27.25.37.35.1.1.16.17.16.17,0,0,0-.13.01-.33,0-.2,0-.46,0-.73,0-.27,0-.54-.02-.75Z"/>
            <path class="cls-2" d="m35.28,42.43l1.04,1.14s.28-.24.56-.48c.29-.23.58-.45.58-.45,0,0-.53-.09-1.08-.14-.54-.05-1.1-.07-1.1-.07Z"/>
            <path class="cls-2" d="m48.72,38.24c-.13.17-.21.28-.21.28,0,0,.09,0,.23-.02.14-.01.32-.03.5-.03.37-.02.74-.03.74-.03v-1.65s-.4.42-.76.85c-.18.21-.36.43-.49.6Z"/>
            <path class="cls-2" d="m29.44,55.93c-.26.37-.48.77-.48.77h.89s.03-.38.07-.75c.01-.19.04-.37.06-.51.02-.14.03-.23.03-.23,0,0-.07.09-.18.22-.11.13-.25.32-.38.5Z"/>
            <path class="cls-2" d="m35.26,42.77c0,.21-.01.48-.02.75,0,.27,0,.53,0,.73,0,.2.01.33.01.33,0,0,.06-.07.16-.17.1-.1.23-.22.37-.35.13-.13.27-.25.37-.34.1-.09.17-.15.17-.15l-1.04-1.14s0,.14-.02.34Z"/>
          </g>
        </g>
        <g>
          <g>
            <path class="cls-1" d="m29.53,60.61c0,.29-.24.53-.53.53h0c-.29,0-.53-.24-.53-.53v-3.37c0-.29.24-.53.53-.53h0c.29,0,.53.24.53.53v3.37Z"/>
            <g>
              <path class="cls-4" d="m29,100s3.9-4.48,3.99-13.79c.09-9.3-3.99-21.48-3.99-21.48,0,0-4.08,12.18-3.99,21.48.09,9.31,3.99,13.79,3.99,13.79Z"/>
              <path class="cls-2" d="m25.15,88.87c1.81-2.8,3.35-4.83,3.85-5.48.5.65,2.04,2.68,3.85,5.48.02-.24.04-.48.06-.72-2.07-3.16-3.72-5.23-3.74-5.26l-.17-.22-.17.22s-1.67,2.1-3.74,5.26c.02.24.04.48.06.72Z"/>
              <path class="cls-8" d="m29,62s-.83,2.59-.85,7.96c-.02,5.37.85,12.4.85,12.4,0,0,.87-7.03.85-12.4-.02-5.37-.85-7.96-.85-7.96Z"/>
              <path class="cls-6" d="m32.72,90.07c-1.99-3.2-3.71-5.36-3.71-5.36,0,0-1.73,2.17-3.72,5.36.9,6.68,3.72,9.93,3.72,9.93,0,0,2.81-3.24,3.71-9.93Z"/>
              <path class="cls-3" d="m25.01,86.21c.09,9.31,3.99,13.79,3.99,13.79v-35.27s-4.08,12.18-3.99,21.48Z"/>
            </g>
            <path class="cls-6" d="m30.59,64.79c0,.55-.45,1-1,1h-1.18c-.55,0-1-.45-1-1h0c0-.55.45-1,1-1h1.18c.55,0,1,.45,1,1h0Z"/>
            <path class="cls-1" d="m31.72,62.79c0,.55-.45,1-1,1h-3.44c-.55,0-1-.45-1-1h0c0-.55.45-1,1-1h3.44c.55,0,1,.45,1,1h0Z"/>
            <path class="cls-6" d="m30.59,60.78c0,.55-.45,1-1,1h-1.18c-.55,0-1-.45-1-1h0c0-.55.45-1,1-1h1.18c.55,0,1,.45,1,1h0Z"/>
          </g>
          <g>
            <path class="cls-1" d="m26.79,59.9c-.09.23-.35.34-.57.25h0c-.23-.09-.34-.35-.25-.57l1.03-2.6c.09-.23.35-.34.57-.25h0c.23.09.33.34.25.57l-1.03,2.6Z"/>
            <g>
              <path class="cls-5" d="m14.31,90.08s4.38-2.26,7.3-9.4c2.92-7.14,3.52-17.77,3.52-17.77,0,0-6.87,8.13-9.66,15.32-2.78,7.19-1.16,11.84-1.16,11.84Z"/>
              <path class="cls-7" d="m14.75,80.33c2.25-1.6,4.06-2.7,4.65-3.04.19.65.75,2.69,1.28,5.4.09-.17.18-.35.26-.54-.62-3.07-1.26-5.17-1.27-5.19l-.07-.22-.2.11s-1.93,1.1-4.49,2.9c-.06.19-.12.38-.18.57Z"/>
              <path class="cls-8" d="m25.96,60.81s-1.43,1.74-3.09,5.87c-1.66,4.13-3.15,9.81-3.15,9.81,0,0,2.82-5.15,4.46-9.29,1.63-4.14,1.79-6.39,1.79-6.39Z"/>
              <path class="cls-1" d="m20.21,83.57c-.55-3.07-1.22-5.27-1.22-5.27,0,0-2,1.14-4.51,2.99-1.36,5.42-.18,8.78-.18,8.78,0,0,3.16-1.63,5.9-6.5Z"/>
              <path class="cls-3" d="m15.46,78.23c-2.78,7.19-1.16,11.84-1.16,11.84l10.81-27.16s-6.87,8.13-9.66,15.32Z"/>
            </g>
            <path class="cls-6" d="m26.33,63.45c-.17.43-.65.63-1.08.46l-.91-.36c-.43-.17-.63-.65-.46-1.08h0c.17-.43.65-.63,1.08-.46l.91.36c.43.17.63.65.46,1.08h0Z"/>
            <path class="cls-1" d="m27.81,62.25c-.17.43-.65.63-1.08.46l-2.65-1.05c-.43-.17-.63-.65-.46-1.08h0c.17-.43.65-.63,1.08-.46l2.65,1.05c.43.17.63.65.46,1.08h0Z"/>
            <path class="cls-6" d="m27.56,60.36c-.17.43-.65.63-1.08.46l-.91-.36c-.43-.17-.63-.65-.46-1.08h0c.17-.43.65-.63,1.08-.46l.91.36c.43.17.63.65.46,1.08h0Z"/>
          </g>
          <path class="cls-1" d="m32.13,56.82c0,.31-.25.56-.56.56h-5.14c-.31,0-.56-.25-.56-.56h0c0-.31.25-.56.56-.56h5.14c.31,0,.56.25.56.56h0Z"/>
          <g>
            <path class="cls-1" d="m70.42,60.61c0,.29.24.53.53.53h0c.29,0,.53-.24.53-.53v-3.37c0-.29-.24-.53-.53-.53h0c-.29,0-.53.24-.53.53v3.37Z"/>
            <g>
              <path class="cls-4" d="m70.95,100s-3.9-4.48-3.99-13.79c-.09-9.3,3.99-21.48,3.99-21.48,0,0,4.08,12.18,3.99,21.48-.09,9.31-3.99,13.79-3.99,13.79Z"/>
              <path class="cls-2" d="m74.8,88.87c-1.81-2.8-3.35-4.83-3.85-5.48-.5.65-2.04,2.68-3.85,5.48-.02-.24-.04-.48-.06-.72,2.07-3.16,3.72-5.23,3.74-5.26l.17-.22.17.22s1.67,2.1,3.74,5.26c-.02.24-.04.48-.06.72Z"/>
              <path class="cls-8" d="m70.95,62s.83,2.59.85,7.96c.02,5.37-.85,12.4-.85,12.4,0,0-.87-7.03-.85-12.4.02-5.37.85-7.96.85-7.96Z"/>
              <path class="cls-6" d="m67.23,90.07c1.99-3.2,3.71-5.36,3.71-5.36,0,0,1.73,2.17,3.72,5.36-.9,6.68-3.72,9.93-3.72,9.93,0,0-2.81-3.24-3.71-9.93Z"/>
              <path class="cls-3" d="m74.94,86.21c-.09,9.31-3.99,13.79-3.99,13.79v-35.27s4.08,12.18,3.99,21.48Z"/>
            </g>
            <path class="cls-6" d="m69.36,64.79c0,.55.45,1,1,1h1.18c.55,0,1-.45,1-1h0c0-.55-.45-1-1-1h-1.18c-.55,0-1,.45-1,1h0Z"/>
            <path class="cls-1" d="m68.23,62.79c0,.55.45,1,1,1h3.44c.55,0,1-.45,1-1h0c0-.55-.45-1-1-1h-3.44c-.55,0-1,.45-1,1h0Z"/>
            <path class="cls-6" d="m69.36,60.78c0,.55.45,1,1,1h1.18c.55,0,1-.45,1-1h0c0-.55-.45-1-1-1h-1.18c-.55,0-1,.45-1,1h0Z"/>
          </g>
          <g>
            <path class="cls-1" d="m73.15,59.9c.09.23.35.34.57.25h0c.23-.09.34-.35.25-.57l-1.03-2.6c-.09-.23-.35-.34-.57-.25h0c-.23.09-.33.34-.25.57l1.03,2.6Z"/>
            <g>
              <path class="cls-5" d="m85.64,90.08s-4.38-2.26-7.3-9.4c-2.92-7.14-3.52-17.77-3.52-17.77,0,0,6.87,8.13,9.66,15.32,2.78,7.19,1.16,11.84,1.16,11.84Z"/>
              <path class="cls-7" d="m85.19,80.33c-2.25-1.6-4.06-2.7-4.65-3.04-.19.65-.75,2.69-1.28,5.4-.09-.17-.18-.35-.26-.54.62-3.07,1.26-5.17,1.27-5.19l.07-.22.2.11s1.93,1.1,4.49,2.9c.06.19.12.38.18.57Z"/>
              <path class="cls-8" d="m73.99,60.81s1.43,1.74,3.09,5.87c1.66,4.13,3.15,9.81,3.15,9.81,0,0-2.82-5.15-4.46-9.29-1.63-4.14-1.79-6.39-1.79-6.39Z"/>
              <path class="cls-1" d="m79.74,83.57c.55-3.07,1.22-5.27,1.22-5.27,0,0,2,1.14,4.51,2.99,1.36,5.42.18,8.78.18,8.78,0,0-3.16-1.63-5.9-6.5Z"/>
              <path class="cls-3" d="m84.48,78.23c2.78,7.19,1.16,11.84,1.16,11.84l-10.81-27.16s6.87,8.13,9.66,15.32Z"/>
            </g>
            <path class="cls-6" d="m73.62,63.45c.17.43.65.63,1.08.46l.91-.36c.43-.17.63-.65.46-1.08h0c-.17-.43-.65-.63-1.08-.46l-.91.36c-.43.17-.63.65-.46,1.08h0Z"/>
            <path class="cls-1" d="m72.14,62.25c.17.43.65.63,1.08.46l2.65-1.05c.43-.17.63-.65.46-1.08h0c-.17-.43-.65-.63-1.08-.46l-2.65,1.05c-.43.17-.63.65-.46,1.08h0Z"/>
            <path class="cls-6" d="m72.39,60.36c.17.43.65.63,1.08.46l.91-.36c.43-.17.63-.65.46-1.08h0c-.17-.43-.65-.63-1.08-.46l-.91.36c-.43.17-.63.65-.46,1.08h0Z"/>
          </g>
          <path class="cls-1" d="m67.82,56.82c0,.31.25.56.56.56h5.14c.31,0,.56-.25.56-.56h0c0-.31-.25-.56-.56-.56h-5.14c-.31,0-.56.25-.56.56h0Z"/>
        </g>
      </g>
    </g>
  </g>
</svg>