<?xml version="1.0" encoding="utf-8"?>
<!-- Generator: Adobe Illustrator 28.0.0, SVG Export Plug-In . SVG Version: 6.00 Build 0)  -->
<svg version="1.1" id="Capa_1" xmlns="http://www.w3.org/2000/svg" xmlns:xlink="http://www.w3.org/1999/xlink" x="0px" y="0px"
	 viewBox="0 0 332 262" style="enable-background:new 0 0 332 262;" xml:space="preserve">
<style type="text/css">
	.st0{fill:#7E4E38;}
	.st1{fill:#935942;}
	.st2{fill:#E7D8B4;}
	.st3{fill:#BFB090;}
</style>
<path class="st0" d="M62.4,61C30.1,90.7,17.5,48.8,17.5,48.8H0V262l32.8-41.5c0,0,27.2,16.5,57.9,6.1c23.8-8,49.8-5.5,71.8,6.5
	l0.1,0.1V0C100.1,0.1,94.6,31.3,62.4,61z"/>
<path class="st1" d="M17.5,48.8c0,0,12.6,42,44.9,12.2C94.6,31.3,100.1,0.1,162.5,0v5.5c-62.4,0.2-67.9,31.3-100.1,61
	C30.1,96.2,17.5,54.3,17.5,54.3H0v-5.5H17.5z"/>
<path class="st2" d="M147.5,15.4v101.9H14.9V74c6.3,6.9,14.9,12.3,26,12.3c10.5,0,21.1-4.9,31.7-14.6c8.8-8.1,15.7-16.3,21.9-23.5
	C109.2,30.8,119.6,18.6,147.5,15.4z M14.9,219.2l14.2-18l11.5,6.9c0,0,12.7,7.4,29,7.4c5.6,0,11-0.9,16.2-2.6
	c10.7-3.6,21.9-5.4,33.2-5.4c9.7,0,19.3,1.3,28.6,4v-80.3H14.9V219.2z"/>
<path class="st3" d="M51.8,84.5c2-0.7,4.1-1.5,6.1-2.5v35.3h-6.1V84.5L51.8,84.5z M51.8,212.7c1.9,0.6,3.9,1.1,6.1,1.6v-83.1h-6.1
	V212.7L51.8,212.7z M24.7,117.3h6.1V84.6c-2.1-0.7-4.2-1.6-6.1-2.7V117.3L24.7,117.3z M78.9,214.6c2.1-0.4,4.1-0.9,6.1-1.5v-82h-6.1
	V214.6z M24.7,206.8l4.4-5.6l1.7,1v-71.1h-6.1L24.7,206.8L24.7,206.8z M78.9,117.3H85V59.1c-1.9,2.1-4,4.3-6.1,6.5V117.3L78.9,117.3
	z M133,18.3v99h6.1V16.8C137,17.2,135,17.7,133,18.3z M106,35.2v82.1h6.1V29.5C110,31.3,108,33.2,106,35.2z M106,208.2
	c2-0.3,4.1-0.4,6.1-0.6v-76.5H106V208.2L106,208.2z M133,208.4c2,0.3,4.1,0.6,6.1,1v-78.3H133V208.4z"/>
<path class="st0" d="M270.2,61c31.7,29.8,44-12.2,44-12.2h17.2V262l-32.2-41.5c0,0-26.7,16.5-56.8,6.1c-23.3-8-48.9-5.5-70.4,6.5
	l-0.1,0.1V0C233.2,0.1,238.6,31.3,270.2,61L270.2,61z"/>
<path class="st1" d="M314.3,48.8c0,0-12.3,42-44,12.2c-31.6-29.7-37-60.8-98.2-61v5.5c61.2,0.2,66.6,31.3,98.2,61
	c31.7,29.8,44-12.2,44-12.2h17.2v-5.5H314.3z"/>
<path class="st2" d="M316.8,117.3V73.9c-6.1,6.9-14.6,12.3-25.5,12.3c-10.3,0-20.8-4.9-31.1-14.6c-8.6-8.1-15.4-16.3-21.4-23.5
	c-14.4-17.3-24.6-29.6-52-32.7v101.9H316.8z"/>
<path class="st2" d="M186.7,131.1v80.3c9.1-2.6,18.6-4,28-4c11.1,0,22.1,1.8,32.6,5.4c5.1,1.7,10.4,2.6,15.9,2.6
	c16,0,28.4-7.3,28.4-7.4l11.3-6.9l13.9,18v-88.1L186.7,131.1L186.7,131.1z"/>
<path class="st3" d="M280.5,117.2h-6V81.9c2,1,4,1.8,6,2.5V117.2L280.5,117.2z M280.5,131h-6v83.2c2.2-0.4,4.2-1,6-1.6V131z
	 M307.2,81.8c-1.9,1.1-3.9,2-6,2.7v32.7h6V81.8z M253.8,131h-6v82c2,0.6,4,1.1,6,1.5V131L253.8,131z M307.2,131h-6v71.1l1.7-1
	l4.4,5.6V131L307.2,131z M253.8,65.5c-2.1-2.2-4.1-4.4-6-6.5v58.2h6V65.5z M194.3,16.6v100.6h6V18.2
	C198.4,17.6,196.4,17.1,194.3,16.6L194.3,16.6z M221,29.4v87.8h6V35.1C225.1,33.1,223.1,31.2,221,29.4L221,29.4z M227,131h-6v76.6
	c2,0.1,4,0.3,6,0.6V131L227,131z M200.3,131h-6v78.4c2-0.4,4-0.8,6-1V131z"/>
</svg>
