<?xml version="1.0" encoding="UTF-8"?>
<svg id="Capa_1" data-name="Capa 1" xmlns="http://www.w3.org/2000/svg" viewBox="0 0 100 66">
  <defs>
    <style>
      .cls-1 {
        fill: #241816;
      }

      .cls-1, .cls-2 {
        stroke-width: 0px;
      }

      .cls-2 {
        fill: #cf9e76;
      }

      .cls-3 {
        fill: #fcd770;
        stroke: #000;
        stroke-miterlimit: 10;
      }
    </style>
  </defs>
  <path class="cls-2" d="m98.12,31.76c0,10.39-16.15,32.09-48.4,32.09S1.31,42.15,1.31,31.76s13.5,7.07,47.95,7.07c34.48.02,48.86-17.46,48.86-7.07Z"/>
  <path class="cls-1" d="m49.72,65c-18.3,0-30.23-6.75-37.03-12.41C4.05,45.39.17,36.94.17,31.76c0-2.95,1.14-4.44,3.37-4.44,1.76,0,4.11.95,7.65,2.37,7.41,3,19.82,8,38.09,8s30.84-4.97,38.42-7.94c3.62-1.41,6.24-2.44,8.1-2.44,2.31,0,3.48,1.49,3.48,4.44,0,5.18-3.86,13.62-12.52,20.83-6.8,5.66-18.73,12.41-37.03,12.41ZM3.54,29.61c-.5,0-1.07,0-1.07,2.15,0,4.63,3.61,12.33,11.69,19.07,6.51,5.42,17.96,11.88,35.57,11.88s29.06-6.46,35.57-11.88c8.08-6.74,11.69-14.43,11.69-19.07,0-2.15-.61-2.15-1.19-2.15-1.43,0-4.01,1.01-7.26,2.28-7.75,3.03-20.69,8.1-39.26,8.1s-31.37-5.12-38.94-8.16c-3.06-1.23-5.48-2.21-6.8-2.21Z"/>
  <path class="cls-2" d="m58.86,7.14c-2.07,0-4.75,3.98-9.48,3.98s-7.62-3.98-10.09-3.98c-3.48,0-7.67,10.46-10.6,18.28-2.93,7.83-3.82,14.37-3.82,16.77,0,4.49,7.81,10.79,24.5,10.79s24.5-6.53,24.5-10.79c0-2.34-1.01-8.74-4.22-16.71-2.68-6.69-6.93-18.35-10.81-18.35Z"/>
  <path class="cls-1" d="m49.39,54.13c-9.73,0-15.73-2.1-19.05-3.85-4.14-2.2-6.61-5.21-6.61-8.1,0-2.34.82-8.96,3.9-17.18,4.28-11.4,7.91-19,11.67-19,1.36,0,2.6.79,4.04,1.68,1.7,1.07,3.62,2.29,6.05,2.29s4.35-1.27,5.98-2.39c1.25-.85,2.33-1.59,3.5-1.59,4.01,0,7.28,7.46,11.15,17.19.26.66.51,1.28.74,1.86,3.4,8.47,4.3,14.91,4.3,17.14,0,2.81-2.47,5.81-6.59,8.02-3.35,1.78-9.38,3.91-19.07,3.91Zm-10.09-45.85c-.38,0-1.81.4-4.49,5.58-1.83,3.54-3.58,8.03-5.05,11.95-2.76,7.33-3.75,13.81-3.75,16.37,0,1.56,1.41,3.96,5.39,6.08,3.1,1.64,8.72,3.59,17.98,3.59s14.87-1.99,17.98-3.66c3.98-2.13,5.39-4.57,5.39-6,0-2.41-1.11-8.72-4.14-16.28-.24-.59-.48-1.22-.75-1.88-1.32-3.32-2.95-7.44-4.67-10.66-2.44-4.59-3.85-5.08-4.35-5.08-.47,0-1.35.61-2.21,1.19-1.72,1.17-4.07,2.79-7.26,2.79s-5.4-1.46-7.26-2.65c-1.06-.69-2.08-1.35-2.79-1.35Z"/>
  <g>
    <path class="cls-1" d="m49.39,47.02c-14.51,0-22.31-4.78-24.1-8.96-.29,1.83-.4,3.26-.4,4.12,0,4.49,7.81,10.79,24.5,10.79s24.5-6.53,24.5-10.79c0-.85-.14-2.25-.47-4.06-1.88,4.07-9.67,8.9-24.04,8.9Z"/>
    <path class="cls-1" d="m49.39,54.13c-9.73,0-15.73-2.1-19.05-3.85-4.14-2.2-6.61-5.21-6.61-8.1,0-1.06.14-2.58.42-4.3.08-.5.48-.9.99-.96s.99.22,1.19.69c1.7,3.98,9.64,8.28,23.05,8.28s21.17-4.27,23.01-8.24c.21-.45.69-.71,1.19-.66.5.06.9.43.98.93.3,1.72.48,3.24.48,4.27,0,2.81-2.47,5.81-6.59,8.02-3.34,1.8-9.37,3.93-19.05,3.93Zm-23.33-12.93c-.03.37-.03.71-.03.99,0,1.56,1.41,3.96,5.39,6.08,3.1,1.64,8.72,3.59,17.98,3.59s14.87-1.99,17.98-3.66c3.98-2.13,5.39-4.57,5.39-6,0-.3-.02-.67-.05-1.07-3.67,3.8-11.58,7.06-23.32,7.06-12.44-.02-19.89-3.37-23.33-6.99Z"/>
  </g>
  <path class="cls-1" d="m73.44,39.42c-.29.59-.59,1.19-1.01,1.72-.55.66-1.12,1.27-1.78,1.81-1.36,1.14-2.89,2.04-4.49,2.77-3.32,1.52-6.94,2.31-10.55,2.74-3.74.45-7.55.45-11.31.13-3.61-.3-7.34-1.01-10.7-2.41-1.78-.74-3.59-1.6-5.08-2.84-.74-.61-1.44-1.25-2.05-2-.5-.61-.85-1.28-1.17-1.99.72,1.25,1.62,2.36,2.79,3.21,1.38,1.01,2.84,1.8,4.41,2.47,3.29,1.4,6.93,2.1,10.47,2.47,3.72.38,7.46.42,11.19.16,1.84-.13,3.69-.37,5.48-.72,1.72-.35,3.45-.75,5.1-1.36,1.81-.67,3.66-1.43,5.24-2.57.77-.55,1.49-1.14,2.15-1.83.51-.55.91-1.14,1.3-1.76Z"/>
  <path class="cls-1" d="m65.02,21.57c-1.86.08-3.48-.98-4.65-2.36-1.38-1.62-2.16-3.75-2.26-5.87-.05-.98.08-1.97.45-2.87.77,1.59,1.36,3.24,2.13,4.83.74,1.54,1.56,3.01,2.57,4.39.53.71,1.17,1.27,1.76,1.88Z"/>
  <path class="cls-1" d="m33.11,21.57c.3-.3.63-.59.91-.91.38-.43.75-.9,1.07-1.38.63-.91,1.19-1.91,1.67-2.9.51-1.06,1.01-2.15,1.48-3.22.38-.88.72-1.81,1.14-2.68.72,1.72.58,3.83-.02,5.56-.66,1.94-1.81,3.7-3.58,4.81-.82.51-1.73.75-2.68.72Z"/>
  <path class="cls-1" d="m5,34.74c1.92,4.92,5.69,8.8,9.62,12.22,4.19,3.64,8.88,6.64,13.76,9.27,2.25,1.22,4.59,2.26,6.91,3.3-5.2-.93-10.15-2.95-14.66-5.71-4.83-2.95-9.32-6.75-12.52-11.45-1.56-2.31-2.74-4.86-3.11-7.63Z"/>
  <path class="cls-1" d="m93.97,34.74c-.67,5.2-4.22,9.7-7.92,13.2-4.15,3.91-9.06,7.07-14.34,9.24-2.6,1.06-5.28,1.86-8.03,2.34,4.59-2.02,9.04-4.28,13.25-7.02,4.62-3.01,9.03-6.49,12.64-10.68,1.84-2.13,3.38-4.44,4.41-7.07Z"/>
  <path class="cls-1" d="m43.4,16.02c1.91.91,3.8,1.84,5.97,1.84s4.09-.93,6-1.84c-.96,1.8-2.95,3.1-4.94,3.4-1.7.26-3.45-.14-4.88-1.11-.85-.58-1.67-1.36-2.15-2.29Z"/>
  <path class="cls-3" d="m56.28,37.18c-.14,0-.27.05-.38.11l-1.83-3.18,1.83-3.18c.11.06.24.11.38.11.43,0,.79-.35.79-.79s-.35-.79-.79-.79-.79.35-.79.79h-3.67l-1.94-3.37c.24-.13.4-.38.4-.67,0-.43-.35-.79-.79-.79s-.79.35-.79.79c0,.29.16.55.4.67l-1.94,3.37h-3.67c0-.43-.35-.79-.79-.79s-.79.35-.79.79.35.79.79.79c.14,0,.27-.05.38-.11l1.83,3.18-1.83,3.18c-.11-.06-.24-.11-.38-.11-.43,0-.79.35-.79.79s.35.79.79.79.79-.35.79-.79h3.67l1.94,3.37c-.24.13-.4.38-.4.67,0,.43.35.79.79.79s.79-.35.79-.79c0-.29-.16-.55-.4-.67l1.94-3.37h3.67c0,.43.35.79.79.79s.79-.35.79-.79-.35-.79-.79-.79Z"/>
  <g>
    <path class="cls-1" d="m73.47,36.44c-1.44,1.35-2.95,2.57-4.67,3.56-1.89,1.09-3.95,1.91-6.05,2.49-.91.24-1.84.47-2.77.56,1.78-.48,3.51-1.32,5.12-2.23,1.78-1.03,3.43-2.29,4.88-3.75.66-.67,1.23-1.43,1.81-2.16.55.51,1.12,1.03,1.68,1.54Z"/>
    <path class="cls-1" d="m72.8,33.87c-1.36,1.25-2.79,2.33-4.43,3.21-1.46.79-3.03,1.4-4.63,1.83-.71.19-1.44.37-2.18.47,1.92-.63,3.77-1.67,5.4-2.85.77-.56,1.51-1.17,2.18-1.84.72-.74,1.36-1.51,1.97-2.34.55.51,1.12,1.03,1.68,1.54Z"/>
    <path class="cls-1" d="m72.13,31.31c-2.53,2.2-5.63,3.85-8.98,4.36,1.41-.58,2.76-1.41,3.96-2.36,1.3-1.03,2.37-2.21,3.34-3.56.56.53,1.12,1.04,1.68,1.56Z"/>
    <path class="cls-1" d="m71.45,28.74c-1.96,1.57-4.25,2.76-6.74,3.24,2.05-1.14,3.77-2.82,5.04-4.78.58.53,1.14,1.03,1.7,1.54Z"/>
    <path class="cls-1" d="m70.79,26.17c-1.38.95-2.87,1.68-4.49,2.12,1.14-1.04,2.05-2.28,2.77-3.64.56.51,1.14,1.01,1.72,1.52Z"/>
  </g>
  <g>
    <path class="cls-1" d="m26.85,34.9c1.12,1.44,2.33,2.76,3.75,3.91,1.65,1.33,3.5,2.41,5.42,3.27.85.38,1.73.74,2.63.98-1.84-.21-3.67-.77-5.4-1.43-2.07-.79-4.03-1.88-5.79-3.19-.82-.61-1.56-1.3-2.29-2,.56-.51,1.12-1.03,1.68-1.54Z"/>
    <path class="cls-1" d="m27.53,32.33c.63.82,1.25,1.6,1.97,2.34.67.67,1.41,1.28,2.18,1.84,1.62,1.19,3.48,2.23,5.4,2.85-3.22-.42-6.4-1.83-9.06-3.67-.79-.55-1.48-1.17-2.18-1.81.56-.53,1.12-1.04,1.68-1.56Z"/>
    <path class="cls-1" d="m28.2,29.77c.96,1.35,2.04,2.53,3.34,3.56,1.2.95,2.55,1.78,3.96,2.36-3.35-.51-6.45-2.16-8.98-4.36.56-.53,1.12-1.04,1.68-1.56Z"/>
    <path class="cls-1" d="m28.87,27.22c1.28,1.96,2.98,3.64,5.04,4.78-2.49-.48-4.78-1.67-6.74-3.24.56-.53,1.14-1.03,1.7-1.54Z"/>
    <path class="cls-1" d="m29.55,24.65c.72,1.36,1.64,2.6,2.77,3.64-1.62-.43-3.11-1.19-4.49-2.12.58-.51,1.15-1.01,1.72-1.52Z"/>
  </g>
  <g>
    <polygon class="cls-1" points="25.07 40.74 15.07 35.88 25.86 38.59 25.07 40.74"/>
    <polygon class="cls-1" points="24.5 43.88 19.01 39.95 25.51 41.83 24.5 43.88"/>
    <polygon class="cls-1" points="72.78 38.59 83.58 35.88 73.57 40.74 72.78 38.59"/>
    <polygon class="cls-1" points="73.14 41.83 79.63 39.95 74.13 43.88 73.14 41.83"/>
  </g>
</svg>