<?xml version="1.0" encoding="UTF-8"?>
<svg xmlns="http://www.w3.org/2000/svg" viewBox="0 0 500 575">
  <defs>
    <style>
      .cls-1 {
        fill: #262626;
      }

      .cls-1, .cls-2, .cls-3, .cls-4, .cls-5, .cls-6, .cls-7, .cls-8, .cls-9 {
        stroke-width: 0px;
      }

      .cls-2 {
        fill: #241816;
      }

      .cls-3 {
        fill: #b55f82;
      }

      .cls-4 {
        fill: #fff;
      }

      .cls-5 {
        fill: #5da0ff;
      }

      .cls-6 {
        fill: #f4d075;
      }

      .cls-7 {
        fill: #d17397;
      }

      .cls-8 {
        fill: #e7d8b4;
      }

      .cls-9 {
        fill: #cf9e76;
      }

      .cls-10 {
        fill: #fcd770;
        stroke: #000;
        stroke-miterlimit: 10;
      }
    </style>
  </defs>
  <g id="Capa_1" data-name="Capa 1">
    <g>
      <path class="cls-8" d="m250,573c-66.51,0-129.04-25.9-176.07-72.93C26.9,453.04,1,390.51,1,324s25.9-129.04,72.93-176.07c47.03-47.03,109.56-72.93,176.07-72.93s129.04,25.9,176.07,72.93c47.03,47.03,72.93,109.56,72.93,176.07s-25.9,129.04-72.93,176.07c-47.03,47.03-109.56,72.93-176.07,72.93Z"/>
      <path class="cls-2" d="m250,76c33.48,0,65.96,6.56,96.53,19.49,29.53,12.49,56.05,30.37,78.83,53.15,22.78,22.78,40.66,49.3,53.15,78.83,12.93,30.57,19.49,63.05,19.49,96.53s-6.56,65.96-19.49,96.53c-12.49,29.53-30.37,56.05-53.15,78.83-22.78,22.78-49.3,40.66-78.83,53.15-30.57,12.93-63.05,19.49-96.53,19.49s-65.96-6.56-96.53-19.49c-29.53-12.49-56.05-30.37-78.83-53.15-22.78-22.78-40.66-49.3-53.15-78.83-12.93-30.57-19.49-63.05-19.49-96.53s6.56-65.96,19.49-96.53c12.49-29.53,30.37-56.05,53.15-78.83s49.3-40.66,78.83-53.15c30.57-12.93,63.05-19.49,96.53-19.49m0-2C111.93,74,0,185.93,0,324s111.93,250,250,250,250-111.93,250-250-111.93-250-250-250h0Z"/>
    </g>
  </g>
  <g id="Capa_2" data-name="Capa 2">
    <g>
      <path class="cls-3" d="m299.24,554.77c-1.92,0-3.49-1.56-3.49-3.48,0-.88.33-1.73.94-2.38l15.42-16.59-25.86,14.94c-1.67.96-3.8.39-4.76-1.28-.83-1.43-.53-3.24.7-4.34l7.69-6.87-5.67,3.26c-1.67.95-3.8.36-4.75-1.31-.82-1.44-.51-3.26.74-4.35l6.2-5.27-3,1.72c-1.67.95-3.8.37-4.75-1.3-.78-1.37-.54-3.09.57-4.19l14.84-14.54-12.27,7.08c-1.68.93-3.8.33-4.74-1.35-.75-1.35-.52-3.03.56-4.13l15.14-15.09-13.2,7.62c-1.67.95-3.8.36-4.75-1.31-.74-1.31-.56-2.95.46-4.07l13.23-14.34-12.03,6.93c-1.14.66-2.55.62-3.65-.1-1.1-.72-1.71-2.01-1.55-3.32l.7-5.98c-1.39.18-2.75-.49-3.44-1.71-.97-1.66-.4-3.8,1.26-4.76,0,0,0,0,0,0l4.65-2.68c1.67-.96,3.8-.39,4.76,1.27.37.65.53,1.4.45,2.14l-.66,5.64,26.02-15.01c1.67-.95,3.8-.36,4.75,1.31.74,1.31.56,2.95-.46,4.07l-13.28,14.33,16.3-9.41c1.68-.93,3.8-.33,4.74,1.35.75,1.35.52,3.03-.56,4.13l-15.15,15.1,12.98-7.49c1.67-.95,3.8-.37,4.75,1.3.78,1.37.54,3.09-.57,4.19l-14.83,14.55,11.79-6.8c1.67-.95,3.8-.36,4.75,1.31.82,1.44.51,3.26-.74,4.35l-6.16,5.28,2.59-1.49c1.67-.95,3.8-.37,4.75,1.31.81,1.42.52,3.22-.7,4.31l-7.67,6.86,16.45-9.49c1.67-.96,3.8-.38,4.76,1.29.76,1.32.57,2.98-.46,4.1l-15.42,16.59,22.76-13.14c1.66-.97,3.8-.4,4.76,1.26.71,1.23.61,2.76-.26,3.89l-8.29,10.74,7.07-4.08c1.62-1.03,3.78-.55,4.81,1.07,1.03,1.62.55,3.78-1.07,4.81-.08.05-.17.1-.25.15l-22.4,12.91c-1.67.95-3.8.37-4.75-1.3-.69-1.22-.59-2.73.26-3.84l8.31-10.74-27.56,15.88c-.53.32-1.13.48-1.74.49h0Z"/>
      <path class="cls-3" d="m175.95,554.77c-1.92,0-3.48-1.56-3.48-3.49,0-.99.42-1.92,1.15-2.58l15.14-13.64-29.77,17.19c-1.67.96-3.8.38-4.76-1.29-.86-1.49-.49-3.39.85-4.46l22.93-18.08-25.32,14.64c-1.67.95-3.8.37-4.75-1.3-.7-1.23-.59-2.76.29-3.88l7.23-9.12c-1.9.33-3.7-.94-4.03-2.84-.25-1.43.42-2.86,1.67-3.6l14.37-8.3c1.67-.96,3.8-.39,4.76,1.28.71,1.23.6,2.78-.28,3.9l-6.88,8.66,51.28-29.61c1.66-.98,3.79-.42,4.77,1.24.89,1.51.52,3.44-.87,4.52l-22.93,18.08,16.66-9.62c1.69-.92,3.81-.29,4.73,1.4.75,1.38.48,3.09-.65,4.18l-15.16,13.66,9.49-5.47c1.68-.95,3.8-.35,4.75,1.32.63,1.11.6,2.47-.08,3.56l-6.54,10.13c1.86-.48,3.76.64,4.25,2.5.39,1.51-.27,3.1-1.62,3.88l-11.49,6.63c-1.68.95-3.8.35-4.75-1.32-.63-1.11-.6-2.47.08-3.56l6.39-9.91-25.72,14.82c-.52.31-1.11.48-1.72.49h0Z"/>
      <path class="cls-3" d="m178.78,511.08c-1.92,0-3.49-1.55-3.5-3.47,0-1.02.44-1.98,1.2-2.65l11.31-9.81-6.43,3.7c-1.67.95-3.8.37-4.75-1.31-.73-1.28-.57-2.88.39-4l7.88-9.01-1.71.98c-1.67.95-3.8.37-4.75-1.3-.53-.93-.61-2.05-.2-3.04l3.43-8.36c-.26-.23-.48-.51-.66-.82-.96-1.67-.39-3.8,1.28-4.76l3.22-1.86c1.67-.96,3.8-.39,4.76,1.28.54.93.61,2.06.2,3.06l-1.9,4.63,11.05-6.38c1.67-.95,3.8-.37,4.75,1.31.73,1.28.57,2.88-.39,4l-7.87,9,19.64-11.34c1.66-.97,3.8-.41,4.77,1.25.85,1.45.54,3.3-.74,4.4l-11.31,9.81,12.73-7.35c1.67-.95,3.8-.37,4.75,1.31.94,1.66.38,3.77-1.27,4.73l-44.14,25.48c-.53.32-1.13.49-1.74.5h0Z"/>
      <g>
        <path class="cls-7" d="m360.75,452.09c-1.92,0-3.48-1.56-3.48-3.49,0-.94.38-1.84,1.05-2.49l8.56-8.31-14.33,8.27c-1.68.94-3.8.34-4.74-1.33-.81-1.44-.49-3.26.76-4.34l12.59-10.65-12.94,7.46c-1.66.97-3.8.42-4.77-1.24-.97-1.66-.42-3.8,1.24-4.77.01,0,.03-.02.04-.02l46.76-27c1.67-.95,3.8-.37,4.75,1.3.83,1.46.51,3.3-.77,4.38l-12.59,10.65,4.78-2.79c1.66-.97,3.8-.41,4.77,1.25.81,1.39.57,3.15-.59,4.26l-12.14,11.79c.78.27,1.43.82,1.84,1.54.96,1.66.39,3.79-1.27,4.75l-17.79,10.27c-.53.33-1.13.5-1.75.51h0Z"/>
        <path class="cls-7" d="m411.77,408.31c-1.92,0-3.48-1.57-3.47-3.49,0-.8.28-1.57.78-2.19l.7-.84-3.1,1.78c-1.66.98-3.79.44-4.78-1.22-.8-1.34-.6-3.04.47-4.18l5.76-6.19-5.75,3.32c-1.64,1.01-3.78.51-4.8-1.13-.89-1.44-.62-3.32.66-4.45l4.61-4.37-5.58,3.21c-1.62,1.03-3.78.55-4.81-1.07-1.03-1.62-.55-3.78,1.07-4.81.08-.05.17-.1.25-.15l31.19-18c1.64-1,3.79-.48,4.79,1.17.87,1.44.6,3.29-.66,4.41l-4.61,4.36.24-.14c1.66-.97,3.8-.42,4.77,1.24.78,1.33.59,3.02-.47,4.15l-5.84,6.27c1.79-.7,3.81.19,4.51,1.98.46,1.17.25,2.49-.54,3.47l-4.24,5.19c.42.3.77.68,1.03,1.13.96,1.66.4,3.8-1.27,4.76l-9.21,5.32c-.52.31-1.12.47-1.72.47h0Z"/>
        <path class="cls-7" d="m424.88,331.72c-1.92,0-3.48-1.56-3.48-3.48,0-.54.12-1.07.36-1.55l5.21-10.52-12.21,7.05c-1.62,1.03-3.78.55-4.81-1.07s-.55-3.78,1.07-4.81c.08-.05.17-.1.25-.15l22.18-12.81c1.33-.76,3-.57,4.12.47,1.12,1.05,1.42,2.71.75,4.08l-5.21,10.52h.06c1.71-.89,3.81-.23,4.7,1.47.84,1.6.31,3.58-1.22,4.56l-10.04,5.79c-.53.3-1.12.45-1.73.45h0Z"/>
        <path class="cls-7" d="m246.24,491.99c-1.92,0-3.49-1.56-3.49-3.48,0-1.15.57-2.23,1.52-2.88l72.87-49.82-81.17,46.84c-1.69.93-3.81.31-4.73-1.37-.88-1.6-.38-3.61,1.15-4.6l3.6-2.24-7.39,4.27c-1.67.95-3.8.37-4.75-1.3-.91-1.6-.42-3.63,1.12-4.64l77.36-49.89-93.39,53.94c-1.69.93-3.81.31-4.73-1.37-.87-1.59-.38-3.58,1.13-4.58l59.04-37.13-69.48,40.11c-1.65.99-3.79.44-4.78-1.21-.99-1.65-.44-3.79,1.21-4.78h0l12.54-7.72-17.86,10.29c-1.69.92-3.81.29-4.73-1.4-.85-1.57-.38-3.53,1.09-4.54l107.73-69.42-117.09,67.6c-1.69.92-3.81.29-4.72-1.4-.86-1.59-.37-3.56,1.13-4.56l103.15-64.82-108.51,62.63c-1.69.92-3.81.29-4.72-1.4-.86-1.59-.36-3.59,1.16-4.58l42.99-26.37-44.67,25.79c-1.68.94-3.8.34-4.74-1.34-.9-1.6-.4-3.63,1.15-4.63l115.98-73.18-118.4,68.35c-1.62,1.03-3.78.55-4.81-1.07-1.03-1.62-.55-3.78,1.07-4.81.08-.05.17-.1.25-.15l271.81-156.94c1.68-.94,3.8-.34,4.74,1.34.9,1.6.4,3.63-1.15,4.63l-115.9,73.16,118.25-68.3c1.69-.92,3.81-.29,4.72,1.4.86,1.59.36,3.58-1.16,4.58l-43.11,26.48,42.79-24.71c1.65-.99,3.79-.46,4.78,1.19.99,1.65.46,3.79-1.19,4.78l-103.15,64.82,79.58-45.95c1.69-.92,3.81-.29,4.72,1.4.85,1.57.38,3.53-1.09,4.54l-107.67,69.37,110.07-63.55c1.69-.92,3.81-.29,4.72,1.4.86,1.59.36,3.58-1.16,4.58l-12.54,7.74,11.79-6.8c1.68-.94,3.8-.34,4.74,1.34.9,1.6.4,3.63-1.15,4.63l-59.06,37.17,58.41-33.72c1.7-.9,3.81-.25,4.71,1.45.82,1.56.36,3.48-1.09,4.49l-77.44,49.91,76.09-43.91c1.7-.91,3.81-.27,4.72,1.43.84,1.58.35,3.55-1.14,4.54l-32.57,20.21c1.85.54,2.91,2.47,2.38,4.32-.23.78-.71,1.45-1.38,1.91l-72.87,49.81,68.53-39.58c1.67-.96,3.8-.39,4.76,1.28.9,1.56.46,3.54-1,4.58l-58.54,41.5c.24.23.45.5.62.79.96,1.67.39,3.8-1.28,4.76l-38.77,22.36c-1.68.94-3.8.33-4.74-1.35-.85-1.54-.43-3.47.98-4.51l36.67-26-82.82,47.88c-.53.29-1.13.44-1.74.43h0Z"/>
        <path class="cls-7" d="m417.77,262.01c-1.92,0-3.49-1.55-3.49-3.48,0-.74.23-1.45.66-2.05l1.02-1.39-5.88,3.39c-1.62,1.03-3.78.55-4.81-1.07s-.55-3.78,1.07-4.81c.08-.05.17-.1.25-.15l20.04-11.57c1.67-.96,3.8-.38,4.76,1.29.68,1.18.6,2.65-.19,3.76l-2.4,3.32c.92.22,1.71.81,2.18,1.64.96,1.66.4,3.8-1.27,4.76l-10.19,5.91c-.53.3-1.13.45-1.74.44h0Z"/>
        <path class="cls-7" d="m133.63,452.09c-1.92,0-3.48-1.57-3.48-3.49,0-1.2.62-2.31,1.64-2.95l105.93-65.93-113.97,65.85c-1.68.93-3.8.32-4.74-1.36-.89-1.61-.38-3.63,1.17-4.62l45.52-27.77-47.98,27.68c-1.66.98-3.8.43-4.78-1.22s-.43-3.8,1.22-4.78l17.49-10.62-18.36,10.6c-1.66.98-3.79.43-4.77-1.23-.98-1.66-.43-3.79,1.23-4.77l10.28-6.2-10.18,5.87c-1.68.94-3.8.35-4.75-1.33-.91-1.62-.4-3.66,1.17-4.65l106.02-65.31-106.08,61.26c-1.67.95-3.8.37-4.75-1.3-.93-1.63-.4-3.71,1.2-4.69l64.59-39.38-62.99,36.37c-1.69.92-3.81.29-4.73-1.4-.87-1.6-.36-3.61,1.18-4.6l15.51-9.37-12.82,7.39c-1.65.99-3.79.44-4.78-1.21-.99-1.65-.44-3.79,1.21-4.78h0l78.89-48.35-75.28,43.47c-1.67.95-3.8.37-4.75-1.31-.94-1.66-.38-3.77,1.27-4.73l305.61-176.42c1.68-.93,3.8-.32,4.74,1.36.89,1.61.38,3.63-1.17,4.62l-78.83,48.3,81.47-47.04c1.69-.92,3.81-.29,4.73,1.4.87,1.6.36,3.61-1.18,4.6l-15.79,9.53,16.5-9.51c1.67-.95,3.8-.37,4.75,1.3.93,1.63.4,3.71-1.2,4.69l-64.4,39.26,65.3-37.7c1.65-.99,3.79-.45,4.78,1.21.99,1.65.45,3.79-1.21,4.78l-106.01,65.3,107.04-61.78c1.7-.9,3.81-.25,4.71,1.46.84,1.59.33,3.55-1.17,4.54l-19.83,11.97c1.9-.33,3.7.93,4.03,2.83.25,1.42-.4,2.85-1.64,3.59l-17.47,10.59,18.63-10.75c1.66-.98,3.79-.44,4.78,1.22s.44,3.79-1.22,4.78l-45.63,27.83,46.96-27.11c1.69-.93,3.81-.31,4.73,1.37.88,1.6.38,3.61-1.15,4.6l-271.32,168.8c-.31.59-.78,1.07-1.35,1.39l-12.78,7.38c-.53.31-1.13.48-1.74.48h0Z"/>
        <path class="cls-7" d="m82.62,408.31c-1.92,0-3.49-1.55-3.5-3.47,0-1.22.63-2.35,1.67-2.99l71.53-43.59-75.72,43.71c-1.69.92-3.81.29-4.72-1.4-.86-1.59-.36-3.59,1.16-4.58l114.99-70.85-114.87,66.31c-1.69.92-3.81.29-4.72-1.4-.86-1.59-.36-3.59,1.16-4.58l114.38-70.64-112.67,65.05c-1.68.93-3.8.32-4.74-1.36-.89-1.61-.38-3.63,1.17-4.62l93.47-57.22-90,51.96c-1.65.99-3.79.45-4.78-1.21-.99-1.65-.45-3.79,1.21-4.78l118.26-73.07-112.63,65.02c-1.69.92-3.81.29-4.72-1.4-.86-1.59-.37-3.56,1.13-4.56l127.99-79.81-118.85,68.62c-1.69.93-3.81.31-4.73-1.37-.87-1.59-.38-3.58,1.13-4.58l128.64-81-137.1,79.15c-1.69.92-3.81.29-4.72-1.4-.86-1.59-.37-3.56,1.13-4.56l118.61-74.43-119.87,69.21c-1.65.99-3.79.46-4.78-1.2-.99-1.65-.46-3.79,1.2-4.78l89.91-55.96-84.43,48.74c-1.69.93-3.81.31-4.73-1.37-.88-1.6-.38-3.61,1.15-4.6l67.91-42.23-59.17,34.15c-1.69.93-3.81.31-4.73-1.37-.87-1.57-.4-3.55,1.09-4.56l103.8-67.6-84.66,48.87c-1.7.91-3.81.27-4.72-1.42-.82-1.54-.38-3.45,1.03-4.47l75.21-50.72-84.02,48.51c-1.68.93-3.8.32-4.74-1.36-.86-1.56-.41-3.52,1.05-4.54l54.08-35.42-53.09,30.67c-1.66.97-3.8.4-4.76-1.26-.92-1.58-.46-3.6,1.06-4.63l63.46-43.21-49.64,28.62c-1.68.94-3.8.34-4.74-1.34-.89-1.59-.41-3.59,1.1-4.6l14.52-9.45c-1.92-.02-3.47-1.6-3.45-3.52.01-1.05.5-2.04,1.32-2.69l37.57-29.64-21.35,12.36c-1.66.97-3.8.41-4.77-1.26-.86-1.47-.53-3.34.78-4.43l4.5-3.79c-1.78.73-3.82-.12-4.55-1.9-.67-1.64-.01-3.52,1.54-4.37l33.45-19.3c1.65-.98,3.79-.44,4.78,1.22.88,1.48.55,3.38-.78,4.47l-4.33,3.64,29-16.8c1.68-.94,3.8-.35,4.75,1.33.83,1.48.48,3.35-.85,4.42l-37.57,29.65,63.38-36.59c1.69-.93,3.81-.31,4.73,1.37.87,1.57.4,3.55-1.09,4.56l-6.85,4.45,16.27-9.39c1.66-.97,3.8-.4,4.76,1.26.92,1.58.46,3.6-1.06,4.63l-63.48,43.21,79.03-45.63c1.67-.95,3.8-.37,4.75,1.31.9,1.59.42,3.61-1.1,4.62l-54.02,35.39,63.42-36.62c1.67-.97,3.8-.4,4.76,1.27.92,1.59.45,3.62-1.08,4.64l-75.22,50.74,110.4-63.73c1.69-.93,3.81-.31,4.73,1.37.87,1.57.4,3.55-1.09,4.56l-103.78,67.6,131.39-75.84c1.7-.91,3.81-.27,4.72,1.43.84,1.58.35,3.55-1.14,4.54l-67.92,42.23,81.57-47.11c1.67-.96,3.8-.39,4.76,1.28.94,1.62.42,3.7-1.17,4.69l-89.97,56.01,102.22-59.01c1.69-.92,3.81-.29,4.72,1.4.86,1.59.37,3.56-1.13,4.56l-118.66,74.45,130.71-75.42c1.68-.94,3.8-.34,4.74,1.34.9,1.6.4,3.63-1.15,4.63l-128.59,80.94,139.33-80.43c1.69-.93,3.81-.31,4.73,1.37.88,1.6.38,3.61-1.15,4.6l-127.98,79.79,136.35-78.72c1.68-.94,3.8-.35,4.75,1.33.91,1.62.4,3.66-1.17,4.65l-118.28,73.09,122.62-70.8c1.66-.98,3.79-.44,4.78,1.22.98,1.66.44,3.79-1.22,4.78l-93.45,57.24,81.79-47.25c1.65-.99,3.79-.45,4.78,1.21.99,1.65.45,3.79-1.21,4.78l-114.39,70.63,121.75-70.28c1.68-.94,3.8-.35,4.75,1.33.91,1.62.4,3.66-1.17,4.65l-115.04,70.9,120.33-69.47c1.7-.91,3.81-.27,4.72,1.43.85,1.59.35,3.57-1.16,4.56L94.53,401.66c-.28.38-.64.7-1.05.93l-9.11,5.26c-.53.31-1.13.47-1.74.47h0Z"/>
      </g>
      <path class="cls-6" d="m295.59,422.28c-1.92,0-3.48-1.56-3.48-3.48,0-.9.35-1.77.98-2.42l11.85-12.33-22.02,12.72c-1.68.95-3.8.36-4.75-1.32-.84-1.49-.48-3.37.86-4.44l3.89-3.08-5.85,3.38c-1.68.94-3.8.34-4.74-1.34-.83-1.48-.47-3.34.84-4.41l11.19-8.88-11.72,6.77c-1.66.97-3.8.4-4.76-1.26-.85-1.46-.53-3.33.77-4.42l21.84-18.49-19.6,11.31c-1.67.96-3.8.39-4.76-1.27-.83-1.43-.53-3.25.71-4.35l24.89-22.1-21.4,12.37c-1.67.96-3.8.39-4.76-1.28-.47-.82-.59-1.8-.33-2.71l2.98-10.28c-1.83.6-3.8-.39-4.4-2.21-.52-1.56.13-3.27,1.55-4.1l6.85-3.96c1.67-.96,3.8-.39,4.76,1.28.48.82.59,1.81.33,2.72l-2.95,10.18,43.58-25.17c1.67-.96,3.8-.39,4.76,1.27.83,1.43.53,3.25-.71,4.35l-24.89,22.11,23.52-13.58c1.67-.95,3.8-.37,4.75,1.3.83,1.45.51,3.28-.76,4.37l-21.83,18.49,19.24-11.1c1.67-.95,3.8-.37,4.75,1.3.85,1.49.49,3.37-.84,4.44l-11.22,8.89,7.88-4.54c1.68-.95,3.8-.36,4.75,1.32.84,1.49.48,3.37-.86,4.44l-3.9,3.05.2-.11c1.67-.95,3.8-.37,4.75,1.3.76,1.34.56,3.02-.5,4.13l-11.85,12.34,4.53-2.61c1.62-1.03,3.78-.55,4.81,1.07,1.03,1.62.55,3.78-1.07,4.81-.08.05-.17.1-.25.15l-25.83,14.91c-.53.31-1.13.47-1.75.47h0Z"/>
      <path class="cls-4" d="m204.96,290.21c-1.92,0-3.48-1.56-3.48-3.48,0-1.1.52-2.13,1.39-2.79l43.52-32.87-46.98,27.12c-1.67.96-3.8.38-4.76-1.29-.89-1.54-.47-3.51.97-4.55l33.45-24.21-33.35,19.24c-1.67.96-3.8.38-4.76-1.29-.87-1.52-.48-3.45.92-4.51l35.2-26.48-32.8,18.93c-1.69.92-3.81.3-4.73-1.39-.83-1.52-.41-3.43.98-4.46l11.1-7.84-6.27,3.62c-1.68.95-3.8.36-4.75-1.32-.87-1.54-.45-3.49.98-4.53l5.74-4.1c-1.3.2-2.6-.34-3.38-1.39-1.04-1.45-.82-3.46.52-4.64l14.05-12.47c-.96-.2-1.78-.8-2.27-1.64-.96-1.67-.39-3.8,1.28-4.76l23.83-13.76c1.67-.95,3.8-.37,4.75,1.31.81,1.42.52,3.22-.7,4.31l-10.61,9.42,28.85-16.63c1.68-.95,3.8-.36,4.75,1.32.87,1.54.45,3.49-.98,4.53l-3.81,2.73,10.55-6.09c1.68-.94,3.8-.35,4.74,1.33.87,1.54.44,3.49-1,4.53l-11.15,7.86,16.62-9.59c1.67-.96,3.8-.38,4.76,1.29.87,1.52.48,3.45-.92,4.51l-35.2,26.48,42.19-24.36c1.67-.96,3.8-.38,4.76,1.29.89,1.54.47,3.51-.97,4.55l-33.45,24.22,37.22-21.48c1.67-.96,3.8-.38,4.76,1.29.87,1.52.48,3.45-.92,4.51l-43.54,32.87,46.12-26.62c1.67-.95,3.8-.37,4.75,1.3.84,1.47.5,3.34-.81,4.42l-25.09,20.41,24.32-14.04c1.66-.97,3.8-.4,4.76,1.26.86,1.48.52,3.37-.81,4.45l-11.43,9.39,7.92-4.57c1.67-.96,3.8-.39,4.76,1.28.79,1.38.56,3.12-.58,4.23l-8.76,8.57,2.53-1.46c1.67-.96,3.8-.38,4.76,1.29.73,1.27.58,2.86-.36,3.98l-5.88,6.93c.47.29.86.7,1.14,1.19.96,1.66.39,3.79-1.27,4.75l-10.17,5.88c-1.67.96-3.8.38-4.76-1.29-.73-1.27-.58-2.86.36-3.98l2.27-2.68-9.11,5.25c-1.67.96-3.8.39-4.76-1.28-.79-1.38-.56-3.12.58-4.23l8.76-8.56-20.59,11.88c-1.66.98-3.79.44-4.77-1.22-.88-1.49-.54-3.41.82-4.49l11.44-9.39-25.7,14.82c-1.67.96-3.8.38-4.76-1.29-.85-1.48-.5-3.35.82-4.43l25.09-20.4-56.95,32.87c-.52.31-1.12.47-1.73.47h0Z"/>
      <path class="cls-5" d="m252.78,282.52c-1.92,0-3.49-1.56-3.49-3.48,0-.82.29-1.62.82-2.25l10.16-12.06-24.3,14.02c-1.64,1-3.79.48-4.79-1.17-.87-1.44-.6-3.29.66-4.41l15.51-14.64-20.39,11.77c-1.66.97-3.8.4-4.76-1.26-.87-1.5-.51-3.41.85-4.48l4.01-3.19-3.48,2.02c-1.68.94-3.8.33-4.74-1.35-.78-1.39-.51-3.13.65-4.23l12.54-11.45-9.76,5.58c-1.67.96-3.8.4-4.76-1.27-.77-1.33-.58-3,.47-4.13l8.4-8.98c-1.91-.2-3.31-1.91-3.11-3.82.11-1.11.75-2.1,1.72-2.66l16.56-9.56c1.67-.96,3.8-.4,4.76,1.27.77,1.33.58,3.01-.48,4.13l-6.82,7.3,17.43-9.95c1.68-.94,3.8-.33,4.74,1.35.78,1.39.51,3.13-.65,4.23l-12.54,11.44,16.12-9.31c1.66-.97,3.8-.41,4.77,1.25.88,1.5.51,3.42-.86,4.5l-4.01,3.19,5.72-3.3c1.64-1,3.79-.48,4.79,1.17.87,1.44.6,3.29-.66,4.41l-15.51,14.64,15.64-9.03c1.67-.96,3.8-.39,4.76,1.28.73,1.27.59,2.85-.35,3.97l-10.25,12.15c1.82-.63,3.8.33,4.43,2.15.54,1.55-.08,3.27-1.49,4.12l-16.56,9.56c-.53.32-1.13.49-1.74.49h0Z"/>
      <path class="cls-4" d="m258.32,254.55c-1.92,0-3.49-1.55-3.49-3.48,0-.84.3-1.64.84-2.28l2.9-3.38-5.99,3.45c-1.66.98-3.79.43-4.77-1.22-.61-1.03-.65-2.3-.1-3.37l5.7-11.26-1.43.82c-1.71.89-3.81.23-4.7-1.47-.84-1.6-.31-3.58,1.22-4.56l11.56-6.66c1.66-.98,3.79-.43,4.77,1.22.61,1.03.65,2.3.1,3.37l-5.71,11.25,13.49-7.78c1.67-.96,3.8-.39,4.76,1.27.74,1.28.59,2.89-.37,4.01l-3.02,3.52c1.84-.57,3.79.45,4.36,2.29.47,1.51-.13,3.14-1.47,3.98l-16.94,9.76c-.51.32-1.11.5-1.71.52h0Z"/>
      <path class="cls-1" d="m430.31,256.6c9.32-19.91-22.55-55.06-39.43-63.87,24.68-21.86-24.67-39.47-40.46-43.58-27.08-8.15-78.22-13.31-102.92,7.3-11.85-9.06-29.97-11.21-43.91-12.49-21.88-5.98-129.55,13.89-99.63,48.88-17.68,7.69-63.58,63.67-25.5,69.43-14.18,14.98-40.17,70.27-4.29,69.69-9.81,22-10.45,47.01-1.78,69.48,7.75,13.58,21.44,7.46,25.65-5.28-1.81,23.91,30.58,81.75,52.54,44.76,6.9,12.47,17.39,22.58,30.1,29.02-3.33,14-5.16,28.31-5.46,42.7-25.26-3.73-41.75,38.55-11.67,42.89,12.54,0,32.3,4.11,43.81-2.2,8.69-4.77,9.37-13.77,10.12-22.55,1.17-16.97,4.38-33.73,9.57-49.92,8.67,1.98,11.76,11.79,21.02,12.08,9.39.6,12.64-9.39,21.05-11.57,4.97,15.38,8.15,31.28,9.47,47.39.91,9.13.43,19.58,9.63,24.72,11.19,6.27,30.97,2.2,43.29,2.2,30.53-4.02,15.9-47.59-10.75-43.21-.26-14.18-1.99-28.29-5.17-42.12,13.16-6.38,23.92-16.81,30.71-29.75,22.61,34.37,54.93-19.79,51.8-45.68,4.12,11.93,17.42,21.26,25.86,7.38,8.67-23.04,7.66-48.61-2.79-70.91,37.32,6.41,9.18-56.33-4.47-69.3,5.26,1.43,10.83-.83,13.6-5.53Zm-216.48,251.5c-1.74,10.45-.43,35.86-13.48,39.38-10.13,2.75-24.48,0-35.01,0-6.37-.03-11.5-5.22-11.47-11.59,0-1.61.35-3.2,1.01-4.67,3.48-9.35,13.77-11.3,22.62-10.55,2.46-.26,4.3-2.36,4.24-4.83.05-14.54,1.69-29.03,4.88-43.21,10.13,4.53,23,4,34.35,6.46-3.15,9.46-5.54,19.16-7.14,29h0Zm100.8,8.41c-.31,5.83,6.06,4.13,9.91,4.32,6.38.08,12.29,3.4,15.67,8.81,8.96,18.65-11.79,18.52-24.51,17.68-6.3.86-12.68.86-18.98,0-14.82-5.22-12.21-25.24-14.17-37.68-1.55-10.24-3.91-20.34-7.07-30.2,11.37-2.47,23.7-1.69,34.15-6.43,3.26,14.27,4.94,28.86,5,43.5h0Zm118.31-199.32c-3.06,13.03-13.69,4.28-19.58-.95-.68-.87-1.81-1.25-2.88-.98-1.97.95-2.8,3.31-1.85,5.28.12.24.26.47.42.69,14.68,22.41,18.11,50.36,9.29,75.65-10.45,13.28-15.06-9.63-22-15.07-1.51-1.59-2.86-1.44-3.78-.54-2.98,5.58.28,16.03-2.18,22.96-1.78,10.52-25.05,64.21-41.74,27.72-1.14-2.48-4.72-4.7-6.03-1.02-11.44,32.02-43.51,35.36-71.53,40.42-.52,0-1.02.17-1.44.47-12.54,2.16-19.57,22.59-31.36,7.05-2.98-2.7-6.48-4.77-10.29-6.07-.76-1.18-2.29-1.59-3.53-.95-11.74-1.64-26.15-1.94-37.51-7.32-.37-.31-.82-.5-1.3-.56-16.34-5.78-26.66-20.75-34.65-34.62-.7-.78-1.91-.85-2.7-.14-.27.24-.46.55-.56.89-2.5,5.27-4.1,12.09-10.45,14.11-7.35,2.34-13.7-3.96-18.12-8.8-14.25-14.17-13.7-35.15-15.44-53.05-1.04-1.74-2.73-2.72-4.18-1.17-7.01,5.07-11.29,27.93-21.88,16.61-8.67-25.39-5.11-53.37,9.65-75.78,1.29-2.54-.49-6.8-3.02-7.01-7.88,3.79-15.47,16.45-21.12.54-.13-21.33,15.65-41.12,28.5-57.05,1.36-1.49,1.43-3.75.17-5.32-.62-1.52-2.27-2.36-3.86-1.96-5.35,1.77-15.8,7.89-17.37-5.29,7.26-21.18,22.55-38.66,42.59-48.66,2.88-1.03,1.34-7.92-1.69-8.66-3.72-.19-6.58-3.36-6.39-7.08.12-2.26,1.36-4.31,3.3-5.46,36.84-25.09,98.22-36.03,137.78-11.93,1.16,1.15,2.52,1.99,3.97.64,19.25-23.47,153.08-18.89,131.27,27.81-.29,1.83.62,3.65,2.27,4.51,9.51,4.48,17.97,10.89,24.87,18.82,10.73,12.22,31.74,48.87-2.74,35.27-2.84.22-2.53,4.93-.94,6.97,13.71,16.36,29.12,36.62,28.03,59.07v-.03Z"/>
      <path class="cls-1" d="m194.51,295.87c2.56-2.04,5.33-3.81,8.27-5.26,1.48.78,3.32-.36,4.43-2.06,10.08-3.96,20.74-6.24,31.56-6.75,5.48,1.45,11.24,1.47,16.73.05,11.25.63,22.32,3.12,32.76,7.37.62.87,1.66,1.33,2.72,1.2,3.51,1.65,6.81,3.71,9.83,6.15,3.23,2.67,9.14-3.24,5.97-5.87-3.11-2.51-6.49-4.66-10.07-6.44,24.05-39.41-.48-94.78-51.06-91.93-47.39,2.67-69.49,55.26-46.49,93.16-3.19,1.68-6.21,3.66-9.03,5.91-4.07,3.35.44,7.75,4.4,4.47h0Zm36.12-27.88c-13.83-14.22-3.62-42,17.14-40.42-9.06,14.42,7.49,37.08,24.16,25.09.08,9.57-5.7,18.21-14.57,21.8-5.6-.33-11.21-.31-16.81.07-3.78-1.35-7.18-3.6-9.91-6.54h0Zm31.06-20.36c-5.39-.17-9.62-4.68-9.45-10.07.17-5.39,4.68-9.62,10.07-9.45,5.39.17,9.62,4.68,9.45,10.07-.17,5.39-4.68,9.62-10.07,9.45h0Zm-6.06-46.93c28.74,4.86,48.11,32.11,43.24,60.85-1.21,7.17-3.89,14-7.87,20.09-7.4-2.93-15.12-4.96-23-6.06,9.9-8.36,13.97-21.76,10.41-34.22,2.14-9.43-3.77-18.8-13.19-20.94-3.85-.87-7.88-.42-11.44,1.29-30.09-7.3-51.57,35.43-26.2,54.42-7.25,1.19-14.34,3.17-21.17,5.9-24.56-36.94,2.06-88.89,49.21-81.31h0Z"/>
      <path class="cls-1" d="m329.22,326.39c-2.23,3.91-5.23,7.33-8.81,10.06-1.46.32-2.72,1.24-3.48,2.52-6.52,4.01-13.64,6.95-21.1,8.7-1.15-.2-2.34.06-3.29.74-37.39,5.67-102.21,10.45-125.41-22.82-2.3-4.18-7.31,2.29-5.42,5.73,18.75,31.1,71.36,29.63,101.75,28.53,1.61,17.14-2.09,38.97,9.66,52.54,8.93,10.16,23.45,13.31,35.79,7.77,27.77-12.43,20.8-52.5,14.73-77.51,4.29-3.27,7.87-7.38,10.53-12.07,2.27-4.15-2.29-8.98-4.95-4.18h0Zm-27.68,88.51c-31.66,4.93-29.27-33.36-30.99-55.55,6.71-.58,13.38-1.54,19.97-2.89,1.63,9.48,2.46,19.08,2.49,28.7,0,4.83,7.67,2.09,7.67-1.83-.04-9.63-.85-19.23-2.43-28.73,6.56-1.75,12.88-4.32,18.82-7.62,5.3,22.13,12.29,63.55-15.53,67.91Z"/>
    </g>
  </g>
  <g id="Capa_3" data-name="Capa 3">
    <g>
      <path class="cls-9" d="m462,115.11c0,45.6-70.88,140.85-212.43,140.85S37.1,160.71,37.1,115.11s59.25,31.03,210.46,31.03c151.34.09,214.45-76.63,214.45-31.03Z"/>
      <path class="cls-2" d="m249.57,261c-80.32,0-132.68-29.63-162.53-54.47-37.92-31.6-54.95-68.69-54.95-91.42,0-12.95,5-19.49,14.79-19.49,7.72,0,18.04,4.17,33.58,10.4,32.52,13.17,86.99,35.11,167.18,35.11s135.36-21.81,168.63-34.85c15.89-6.19,27.39-10.71,35.55-10.71,10.14,0,15.27,6.54,15.27,19.49,0,22.74-16.94,59.78-54.95,91.42-29.85,24.84-82.21,54.47-162.53,54.47l-.04.04ZM46.89,105.67c-2.19,0-4.7,0-4.7,9.44,0,20.32,15.84,54.12,51.31,83.7,28.57,23.79,78.83,52.14,156.12,52.14s127.55-28.35,156.12-52.14c35.46-29.58,51.31-63.33,51.31-83.7,0-9.44-2.68-9.44-5.22-9.44-6.28,0-17.6,4.43-31.86,10.01-34.02,13.3-90.81,35.55-172.32,35.55s-137.69-22.47-170.91-35.81c-13.43-5.4-24.05-9.7-29.85-9.7v-.04Z"/>
      <path class="cls-9" d="m289.69,7.05c-9.09,0-20.85,17.47-41.61,17.47s-33.44-17.47-44.29-17.47c-15.27,0-33.66,45.91-46.52,80.23-12.86,34.37-16.77,63.07-16.77,73.6,0,19.71,34.28,47.36,107.53,47.36s107.53-28.66,107.53-47.36c0-10.27-4.43-38.36-18.52-73.34-11.76-29.36-30.42-80.54-47.45-80.54l.09.04Z"/>
      <path class="cls-2" d="m248.12,213.29c-42.71,0-69.04-9.22-83.61-16.9-18.17-9.66-29.01-22.87-29.01-35.55,0-10.27,3.6-39.33,17.12-75.4C171.4,35.4,187.34,2.04,203.84,2.04c5.97,0,11.41,3.47,17.73,7.37,7.46,4.7,15.89,10.05,26.55,10.05s19.09-5.57,26.25-10.49c5.49-3.73,10.23-6.98,15.36-6.98,17.6,0,31.95,32.74,48.94,75.45,1.14,2.9,2.24,5.62,3.25,8.16,14.92,37.18,18.87,65.44,18.87,75.23,0,12.33-10.84,25.5-28.92,35.2-14.7,7.81-41.17,17.16-83.7,17.16l-.04.09ZM203.84,12.05c-1.67,0-7.94,1.76-19.71,24.49-8.03,15.54-15.71,35.24-22.16,52.45-12.11,32.17-16.46,60.61-16.46,71.85,0,6.85,6.19,17.38,23.66,26.69,13.61,7.2,38.27,15.76,78.92,15.76s65.27-8.73,78.92-16.06c17.47-9.35,23.66-20.06,23.66-26.33,0-10.58-4.87-38.27-18.17-71.45-1.05-2.59-2.11-5.35-3.29-8.25-5.79-14.57-12.95-32.65-20.5-46.79-10.71-20.15-16.9-22.3-19.09-22.3-2.06,0-5.93,2.68-9.7,5.22-7.55,5.14-17.86,12.25-31.86,12.25s-23.7-6.41-31.86-11.63c-4.65-3.03-9.13-5.93-12.25-5.93l-.09.04Z"/>
      <g>
        <path class="cls-2" d="m248.12,182.08c-63.69,0-97.92-20.98-105.78-39.33-1.27,8.03-1.76,14.31-1.76,18.08,0,19.71,34.28,47.36,107.53,47.36s107.53-28.66,107.53-47.36c0-3.73-.61-9.88-2.06-17.82-8.25,17.86-42.44,39.06-105.51,39.06h.04Z"/>
        <path class="cls-2" d="m248.12,213.29c-42.71,0-69.04-9.22-83.61-16.9-18.17-9.66-29.01-22.87-29.01-35.55,0-4.65.61-11.32,1.84-18.87.35-2.19,2.11-3.95,4.35-4.21s4.35.97,5.22,3.03c7.46,17.47,42.31,36.34,101.17,36.34s92.92-18.74,100.99-36.17c.92-1.98,3.03-3.12,5.22-2.9,2.19.26,3.95,1.89,4.3,4.08,1.32,7.55,2.11,14.22,2.11,18.74,0,12.33-10.84,25.5-28.92,35.2-14.66,7.9-41.13,17.25-83.61,17.25l-.04-.04Zm-102.4-56.75c-.13,1.62-.13,3.12-.13,4.35,0,6.85,6.19,17.38,23.66,26.69,13.61,7.2,38.27,15.76,78.92,15.76s65.27-8.73,78.92-16.06c17.47-9.35,23.66-20.06,23.66-26.33,0-1.32-.09-2.94-.22-4.7-16.11,16.68-50.83,30.99-102.35,30.99-54.6-.09-87.3-14.79-102.4-30.68h-.04Z"/>
      </g>
      <path class="cls-2" d="m353.68,148.73c-1.27,2.59-2.59,5.22-4.43,7.55-2.41,2.9-4.92,5.57-7.81,7.94-5.97,5-12.68,8.95-19.71,12.16-14.57,6.67-30.46,10.14-46.3,12.03-16.42,1.98-33.14,1.98-49.64.57-15.84-1.32-32.22-4.43-46.96-10.58-7.81-3.25-15.76-7.02-22.3-12.47-3.25-2.68-6.32-5.49-9-8.78-2.19-2.68-3.73-5.62-5.14-8.73,3.16,5.49,7.11,10.36,12.25,14.09,6.06,4.43,12.47,7.9,19.36,10.84,14.44,6.14,30.42,9.22,45.95,10.84,16.33,1.67,32.74,1.84,49.11.7,8.08-.57,16.2-1.62,24.05-3.16,7.55-1.54,15.14-3.29,22.38-5.97,7.94-2.94,16.06-6.28,23-11.28,3.38-2.41,6.54-5,9.44-8.03,2.24-2.41,3.99-5,5.71-7.72h.04Z"/>
      <path class="cls-2" d="m316.73,70.38c-8.16.35-15.27-4.3-20.41-10.36-6.06-7.11-9.48-16.46-9.92-25.76-.22-4.3.35-8.65,1.98-12.6,3.38,6.98,5.97,14.22,9.35,21.2,3.25,6.76,6.85,13.21,11.28,19.27,2.33,3.12,5.14,5.57,7.72,8.25Z"/>
      <path class="cls-2" d="m176.67,70.38c1.32-1.32,2.77-2.59,3.99-3.99,1.67-1.89,3.29-3.95,4.7-6.06,2.77-3.99,5.22-8.38,7.33-12.73,2.24-4.65,4.43-9.44,6.5-14.13,1.67-3.86,3.16-7.94,5-11.76,3.16,7.55,2.55,16.81-.09,24.4-2.9,8.51-7.94,16.24-15.71,21.11-3.6,2.24-7.59,3.29-11.76,3.16h.04Z"/>
      <path class="cls-2" d="m53.29,128.19c8.43,21.59,24.97,38.62,42.22,53.63,18.39,15.98,38.98,29.14,60.39,40.69,9.88,5.35,20.15,9.92,30.33,14.48-22.82-4.08-44.55-12.95-64.34-25.06-21.2-12.95-40.91-29.63-54.95-50.26-6.85-10.14-12.03-21.33-13.65-33.49Z"/>
      <path class="cls-2" d="m443.79,128.19c-2.94,22.82-18.52,42.57-34.76,57.94-18.21,17.16-39.77,31.03-62.94,40.56-11.41,4.65-23.17,8.16-35.24,10.27,20.15-8.87,39.68-18.79,58.16-30.81,20.28-13.21,39.63-28.49,55.48-46.88,8.08-9.35,14.84-19.49,19.36-31.03l-.04-.04Z"/>
      <path class="cls-2" d="m221.83,46.02c8.38,3.99,16.68,8.08,26.2,8.08s17.95-4.08,26.33-8.08c-4.21,7.9-12.95,13.61-21.68,14.92-7.46,1.14-15.14-.61-21.42-4.87-3.73-2.55-7.33-5.97-9.44-10.05Z"/>
      <path class="cls-10" d="m278.37,138.9c-.61,0-1.19.22-1.67.48l-8.03-13.96,8.03-13.96c.48.26,1.05.48,1.67.48,1.89,0,3.47-1.54,3.47-3.47s-1.54-3.47-3.47-3.47-3.47,1.54-3.47,3.47h-16.11l-8.51-14.79c1.05-.57,1.76-1.67,1.76-2.94,0-1.89-1.54-3.47-3.47-3.47s-3.47,1.54-3.47,3.47c0,1.27.7,2.41,1.76,2.94l-8.51,14.79h-16.11c0-1.89-1.54-3.47-3.47-3.47s-3.47,1.54-3.47,3.47,1.54,3.47,3.47,3.47c.61,0,1.19-.22,1.67-.48l8.03,13.96-8.03,13.96c-.48-.26-1.05-.48-1.67-.48-1.89,0-3.47,1.54-3.47,3.47s1.54,3.47,3.47,3.47,3.47-1.54,3.47-3.47h16.11l8.51,14.79c-1.05.57-1.76,1.67-1.76,2.94,0,1.89,1.54,3.47,3.47,3.47s3.47-1.54,3.47-3.47c0-1.27-.7-2.41-1.76-2.94l8.51-14.79h16.11c0,1.89,1.54,3.47,3.47,3.47s3.47-1.54,3.47-3.47-1.54-3.47-3.47-3.47Z"/>
      <g>
        <path class="cls-2" d="m353.81,135.65c-6.32,5.93-12.95,11.28-20.5,15.63-8.3,4.78-17.34,8.38-26.55,10.93-3.99,1.05-8.08,2.06-12.16,2.46,7.81-2.11,15.41-5.79,22.47-9.79,7.81-4.52,15.05-10.05,21.42-16.46,2.9-2.94,5.4-6.28,7.94-9.48,2.41,2.24,4.92,4.52,7.37,6.76v-.04Z"/>
        <path class="cls-2" d="m350.87,124.37c-5.97,5.49-12.25,10.23-19.44,14.09-6.41,3.47-13.3,6.14-20.32,8.03-3.12.83-6.32,1.62-9.57,2.06,8.43-2.77,16.55-7.33,23.7-12.51,3.38-2.46,6.63-5.14,9.57-8.08,3.16-3.25,5.97-6.63,8.65-10.27,2.41,2.24,4.92,4.52,7.37,6.76l.04-.09Z"/>
        <path class="cls-2" d="m347.93,113.13c-11.1,9.66-24.71,16.9-39.41,19.14,6.19-2.55,12.11-6.19,17.38-10.36,5.71-4.52,10.4-9.7,14.66-15.63,2.46,2.33,4.92,4.56,7.37,6.85Z"/>
        <path class="cls-2" d="m344.95,101.85c-8.6,6.89-18.65,12.11-29.58,14.22,9-5,16.55-12.38,22.12-20.98,2.55,2.33,5,4.52,7.46,6.76Z"/>
        <path class="cls-2" d="m342.05,90.57c-6.06,4.17-12.6,7.37-19.71,9.3,5-4.56,9-10.01,12.16-15.98,2.46,2.24,5,4.43,7.55,6.67Z"/>
      </g>
      <g>
        <path class="cls-2" d="m149.19,128.89c4.92,6.32,10.23,12.11,16.46,17.16,7.24,5.84,15.36,10.58,23.79,14.35,3.73,1.67,7.59,3.25,11.54,4.3-8.08-.92-16.11-3.38-23.7-6.28-9.09-3.47-17.69-8.25-25.41-14-3.6-2.68-6.85-5.71-10.05-8.78,2.46-2.24,4.92-4.52,7.37-6.76Z"/>
        <path class="cls-2" d="m152.18,117.61c2.77,3.6,5.49,7.02,8.65,10.27,2.94,2.94,6.19,5.62,9.57,8.08,7.11,5.22,15.27,9.79,23.7,12.51-14.13-1.84-28.09-8.03-39.77-16.11-3.47-2.41-6.5-5.14-9.57-7.94,2.46-2.33,4.92-4.56,7.37-6.85l.04.04Z"/>
        <path class="cls-2" d="m155.12,106.37c4.21,5.93,8.95,11.1,14.66,15.63,5.27,4.17,11.19,7.81,17.38,10.36-14.7-2.24-28.31-9.48-39.41-19.14,2.46-2.33,4.92-4.56,7.37-6.85Z"/>
        <path class="cls-2" d="m158.06,95.18c5.62,8.6,13.08,15.98,22.12,20.98-10.93-2.11-20.98-7.33-29.58-14.22,2.46-2.33,5-4.52,7.46-6.76Z"/>
        <path class="cls-2" d="m161.05,83.9c3.16,5.97,7.2,11.41,12.16,15.98-7.11-1.89-13.65-5.22-19.71-9.3,2.55-2.24,5.05-4.43,7.55-6.67Z"/>
      </g>
      <g>
        <polygon class="cls-2" points="141.38 154.52 97.49 133.19 144.85 145.08 141.38 154.52"/>
        <polygon class="cls-2" points="138.88 168.3 114.78 151.05 143.31 159.3 138.88 168.3"/>
        <polygon class="cls-2" points="350.79 145.08 398.19 133.19 354.25 154.52 350.79 145.08"/>
        <polygon class="cls-2" points="352.37 159.3 380.85 151.05 356.71 168.3 352.37 159.3"/>
      </g>
    </g>
  </g>
</svg>