<?xml version="1.0" encoding="UTF-8"?>
<svg xmlns="http://www.w3.org/2000/svg" viewBox="0 0 500 575">
  <defs>
    <style>
      .cls-1 {
        fill: #3e748a;
      }

      .cls-1, .cls-2, .cls-3, .cls-4, .cls-5, .cls-6, .cls-7, .cls-8, .cls-9, .cls-10 {
        stroke-width: 0px;
      }

      .cls-2 {
        fill: #262626;
      }

      .cls-3 {
        fill: #316170;
      }

      .cls-4 {
        fill: #241816;
      }

      .cls-5 {
        fill: #fff;
      }

      .cls-6 {
        fill: #5da0ff;
      }

      .cls-7 {
        fill: #f4d075;
      }

      .cls-8 {
        fill: #e7d8b4;
      }

      .cls-9 {
        fill: #cf9e76;
      }

      .cls-10 {
        fill: #73c6c2;
      }

      .cls-11 {
        fill: #fcd770;
        stroke: #000;
        stroke-miterlimit: 10;
      }
    </style>
  </defs>
  <g id="Capa_1" data-name="Capa 1">
    <g>
      <path class="cls-8" d="m250,573c-66.51,0-129.04-25.9-176.07-72.93C26.9,453.04,1,390.51,1,324s25.9-129.04,72.93-176.07c47.03-47.03,109.56-72.93,176.07-72.93s129.04,25.9,176.07,72.93c47.03,47.03,72.93,109.56,72.93,176.07s-25.9,129.04-72.93,176.07c-47.03,47.03-109.56,72.93-176.07,72.93Z"/>
      <path class="cls-4" d="m250,76c33.48,0,65.96,6.56,96.53,19.49,29.53,12.49,56.05,30.37,78.83,53.15,22.78,22.78,40.66,49.3,53.15,78.83,12.93,30.57,19.49,63.05,19.49,96.53s-6.56,65.96-19.49,96.53c-12.49,29.53-30.37,56.05-53.15,78.83-22.78,22.78-49.3,40.66-78.83,53.15-30.57,12.93-63.05,19.49-96.53,19.49s-65.96-6.56-96.53-19.49c-29.53-12.49-56.05-30.37-78.83-53.15-22.78-22.78-40.66-49.3-53.15-78.83-12.93-30.57-19.49-63.05-19.49-96.53s6.56-65.96,19.49-96.53c12.49-29.53,30.37-56.05,53.15-78.83s49.3-40.66,78.83-53.15c30.57-12.93,63.05-19.49,96.53-19.49m0-2C111.93,74,0,185.93,0,324s111.93,250,250,250,250-111.93,250-250-111.93-250-250-250h0Z"/>
    </g>
  </g>
  <g id="Capa_2" data-name="Capa 2">
    <g>
      <path class="cls-3" d="m165.91,552.08c-2.18,0-3.94-1.77-3.95-3.94,0-1.15.5-2.25,1.38-3l20.95-17.98-34.18,19.72c-1.9,1.07-4.3.4-5.37-1.5-.97-1.72-.52-3.88,1.04-5.08l20.73-15.46-20.7,11.94c-1.88,1.09-4.3.46-5.39-1.43-.85-1.46-.67-3.3.44-4.58l7.1-8.14c-2.16-.28-3.68-2.26-3.4-4.42.16-1.21.87-2.29,1.93-2.9l16.28-9.4c1.89-1.09,4.3-.44,5.39,1.45.84,1.46.66,3.28-.44,4.55l-5.44,6.31,58.51-33.78c1.9-1.07,4.3-.4,5.37,1.5.97,1.72.52,3.88-1.04,5.08l-20.73,15.47,12.68-7.32c1.89-1.09,4.3-.44,5.39,1.45.95,1.64.59,3.72-.84,4.96l-20.97,18,13.59-7.84c1.89-1.09,4.3-.45,5.39,1.44.94,1.62.61,3.68-.8,4.93l-4.47,3.94c1.4-.24,2.82.28,3.73,1.36,1.23,1.48,1.21,3.63-.05,5.09l-3.82,4.45c1.98.91,2.84,3.26,1.93,5.24-.34.74-.9,1.36-1.61,1.76l-13.18,7.61c-1.89,1.08-4.3.42-5.38-1.47-.82-1.44-.66-3.25.42-4.51l.54-.63-11.46,6.61c-1.89,1.08-4.3.42-5.38-1.48-.92-1.61-.59-3.64.79-4.88l3.61-3.21-16.57,9.57c-.61.35-1.3.54-2,.53Z"/>
      <path class="cls-3" d="m175.4,504.62c-2.18,0-3.94-1.77-3.94-3.95,0-1.03.4-2.02,1.12-2.75l9.29-9.55-3.64,2.09c-1.89,1.08-4.3.42-5.38-1.47-.79-1.39-.67-3.13.32-4.39l5.33-6.73c-1.06.11-2.11-.26-2.86-1.02-1.27-1.16-1.64-3.01-.92-4.57l3.65-7.93c-.09-.12-.17-.24-.24-.37-1.09-1.88-.45-4.3,1.44-5.39l3.05-1.77c1.9-1.06,4.3-.39,5.37,1.51.61,1.09.67,2.41.15,3.55l-1.11,2.43,4.71-2.74c1.89-1.09,4.3-.44,5.39,1.45.8,1.4.68,3.14-.32,4.41l-4.61,5.81,10.37-5.98c1.89-1.09,4.3-.44,5.39,1.44.88,1.53.64,3.45-.58,4.72l-9.29,9.55,16.42-9.44c1.84-1.17,4.28-.63,5.45,1.21,1.17,1.84.63,4.28-1.21,5.45-.09.06-.19.11-.29.17l-41.07,23.72c-.6.35-1.29.54-1.99.53Z"/>
      <path class="cls-3" d="m310.53,552.08c-2.18,0-3.95-1.76-3.95-3.94,0-1.16.51-2.27,1.4-3.02l8.49-7.18-16.31,9.4c-1.9,1.07-4.3.41-5.38-1.49-.93-1.63-.57-3.69.84-4.92l8.14-6.97-8.32,4.8c-1.88,1.11-4.29.49-5.4-1.39-.92-1.55-.67-3.52.61-4.8l18.7-19.09-15.6,9.01c-1.7.98-3.85.56-5.07-.97-1.21-1.57-1.07-3.8.33-5.2l17.9-17.94-15.69,9.06c-1.92,1.03-4.31.31-5.34-1.61-.83-1.55-.53-3.47.73-4.7l11.15-10.02-9.14,5.27c-1.9,1.07-4.3.4-5.37-1.5-.92-1.62-.57-3.66.82-4.9l7.32-6.31-5.58,3.21c-1.93,1.01-4.31.26-5.32-1.67-.95-1.82-.35-4.06,1.38-5.16l41.65-24.05c1.88-1.1,4.3-.46,5.4,1.42.96,1.64.61,3.74-.84,4.98l-7.35,6.31,5.75-3.31c1.92-1.02,4.31-.29,5.33,1.64.82,1.55.52,3.45-.73,4.67l-11.12,10,8.83-5.1c1.88-1.1,4.3-.46,5.4,1.42.91,1.55.65,3.52-.62,4.78l-17.91,17.95,14.75-8.51c1.89-1.08,4.3-.42,5.38,1.47.87,1.52.63,3.44-.59,4.7l-18.71,19.09,20.44-11.83c1.9-1.07,4.3-.41,5.38,1.49.93,1.63.57,3.69-.84,4.92l-8.13,6.95,17.36-10.02c1.88-1.09,4.3-.45,5.39,1.43.96,1.66.6,3.77-.87,5l-8.5,7.19,11.4-6.58c1.89-1.09,4.3-.45,5.39,1.44.81,1.39.69,3.13-.3,4.4l-9.85,12.62,8.8-5.09c1.89-1.08,4.3-.42,5.38,1.48,1.07,1.88.43,4.26-1.43,5.35l-26.35,15.23c-1.63.95-3.7.62-4.95-.79-1.24-1.42-1.3-3.53-.14-5.02l9.85-12.62-32.02,18.43c-.6.36-1.28.55-1.97.55Z"/>
      <path class="cls-3" d="m363.8,305.15c-2.18,0-3.94-1.77-3.94-3.94,0-1.24.58-2.41,1.58-3.16l37.52-28.31-37.59,21.7c-1.9,1.07-4.3.39-5.37-1.5-1-1.77-.48-4.01,1.18-5.17l17.47-11.91-15.41,8.89c-1.89,1.08-4.3.41-5.38-1.48-1-1.76-.5-3.99,1.14-5.16l45.32-31.85-36.48,21.09c-1.89,1.08-4.3.42-5.38-1.47-1.02-1.78-.5-4.05,1.2-5.21l36.71-24.88c-2.17-.2-3.77-2.12-3.57-4.29.11-1.17.73-2.23,1.69-2.89l12.12-8.31c-2.12-.48-3.45-2.6-2.97-4.72.2-.87.69-1.65,1.39-2.21l27.76-21.98-12.78,7.38c-1.88,1.09-4.3.46-5.39-1.43-.98-1.69-.58-3.86.96-5.07l10.17-8.1c-1.93,1.02-4.31.28-5.33-1.64-.74-1.4-.57-3.1.42-4.33l12.47-15.44c-2.17.24-4.12-1.32-4.36-3.48-.17-1.55.59-3.06,1.94-3.85l16.27-9.41c1.89-1.09,4.3-.44,5.39,1.45.81,1.41.68,3.18-.35,4.45l-11.9,14.74,27.24-15.72c1.89-1.08,4.3-.41,5.38,1.48.95,1.68.55,3.8-.94,5.01l-10.17,8.11,13.71-7.89c1.89-1.08,4.3-.42,5.38,1.47.96,1.68.56,3.81-.95,5.03l-27.76,21.96,28.24-16.29c1.92-1.03,4.31-.32,5.34,1.6.94,1.74.45,3.9-1.15,5.06l-3.86,2.64c1.56-.22,3.1.49,3.94,1.81,1.13,1.8.63,4.17-1.13,5.36l-28.4,19.24,18-10.39c1.89-1.08,4.3-.41,5.38,1.48,1,1.76.5,3.99-1.14,5.16l-45.36,31.83,30.22-17.43c1.9-1.06,4.31-.37,5.36,1.53.98,1.76.48,3.97-1.17,5.14l-17.46,11.91,1.58-.89c1.89-1.08,4.3-.43,5.38,1.46.99,1.72.54,3.9-1.04,5.1l-37.63,28.35.51-.29c1.93-1.01,4.31-.26,5.32,1.67.95,1.82.35,4.06-1.38,5.16l-56.02,32.35c-.59.33-1.25.51-1.93.5Z"/>
      <path class="cls-3" d="m458.73,487.86c-2.18,0-3.94-1.77-3.94-3.95,0-.97.36-1.91,1.01-2.63l7.1-7.89-20.75,11.98c-1.89,1.09-4.3.45-5.39-1.44-.91-1.58-.62-3.57.7-4.83l14.85-14.15-19.24,11.11c-1.92,1.03-4.31.31-5.34-1.61-.83-1.55-.53-3.47.73-4.7l14.99-13.41-14.73,8.4c-1.89,1.08-4.3.42-5.38-1.47-.87-1.53-.63-3.44.6-4.7l20.29-20.65-21.05,12.16c-1.91,1.05-4.31.35-5.36-1.55-.86-1.57-.56-3.52.73-4.76l13.07-11.83-12.95,7.47c-1.89,1.09-4.3.44-5.39-1.45-.88-1.53-.64-3.47.6-4.73l16.67-17.07-18.09,10.45c-1.91,1.05-4.31.35-5.36-1.55-.86-1.57-.56-3.52.73-4.76l9.09-8.23-9.71,5.61c-1.87,1.12-4.29.52-5.41-1.34-.96-1.59-.68-3.64.68-4.91l10.98-10.59-12.84,7.42c-1.89,1.09-4.3.45-5.39-1.44-.94-1.62-.61-3.68.8-4.93l5.23-4.65-6.88,3.94c-1.89,1.08-4.3.43-5.38-1.47-.86-1.5-.64-3.39.55-4.66l12.1-12.8-17.26,9.9c-1.87,1.12-4.29.51-5.41-1.36-.97-1.62-.66-3.69.74-4.95l7.66-7.21-12.4,7.16c-1.85,1.15-4.28.57-5.43-1.28-1.01-1.63-.7-3.76.74-5.03l8.36-7.89-12.88,7.42c-1.9,1.06-4.31.37-5.36-1.53-.85-1.53-.59-3.43.63-4.68l9.99-9.95-8.47,4.89c-1.88,1.09-4.3.45-5.39-1.43-.8-1.38-.69-3.1.27-4.37l9.36-12.29-7.89,4.58c-1.89,1.09-4.3.44-5.39-1.45-.63-1.09-.7-2.42-.18-3.57l7.23-16.17c-.12-.15-.22-.31-.32-.47-1.09-1.89-.44-4.3,1.44-5.39l3.16-1.8c1.89-1.09,4.3-.44,5.39,1.44.63,1.1.7,2.43.18,3.59l-4.87,10.9,14.35-8.28c1.62-.94,3.68-.61,4.93.79,1.24,1.41,1.32,3.49.19,4.99l-9.45,12.32,17.66-10.19c1.9-1.06,4.31-.37,5.36,1.53.85,1.53.59,3.43-.63,4.68l-9.98,9.94,15.78-9.1c1.85-1.15,4.28-.57,5.43,1.28,1.01,1.63.7,3.76-.74,5.03l-8.37,7.89,12.76-7.35c1.86-1.13,4.29-.54,5.42,1.32.99,1.62.68,3.72-.74,4.99l-7.64,7.19,11.27-6.52c1.89-1.09,4.3-.45,5.39,1.44.88,1.51.65,3.42-.55,4.69l-12.1,12.8,17.02-9.82c1.89-1.08,4.3-.42,5.38,1.48.92,1.61.59,3.64-.79,4.88l-5.25,4.66,7.23-4.17c1.87-1.12,4.29-.52,5.41,1.34.96,1.59.68,3.64-.68,4.91l-10.97,10.57,13.89-8.02c1.91-1.05,4.31-.35,5.36,1.55.86,1.57.56,3.52-.73,4.76l-9.09,8.22,10.85-6.26c1.89-1.09,4.3-.44,5.39,1.45.88,1.53.64,3.46-.59,4.72l-16.73,17.15,19.91-11.48c1.91-1.05,4.31-.35,5.36,1.55.86,1.57.56,3.52-.73,4.76l-13.03,11.83,14.26-8.24c1.89-1.09,4.3-.44,5.39,1.45.88,1.53.64,3.47-.6,4.73l-20.32,20.71,22.54-13c1.92-1.03,4.31-.31,5.34,1.61.83,1.55.53,3.47-.73,4.7l-14.95,13.41,14.99-8.68c1.85-1.15,4.28-.57,5.43,1.28,1.01,1.63.7,3.76-.74,5.03l-14.84,14.14,13.69-7.89c1.89-1.08,4.3-.42,5.38,1.47.84,1.47.65,3.31-.47,4.57l-8.02,8.92c1.5-.13,2.94.64,3.66,1.96,1.09,1.88.45,4.3-1.44,5.39l-18.94,10.91c-.59.34-1.26.53-1.94.53Z"/>
      <path class="cls-3" d="m141.45,306.5c-2.18,0-3.94-1.77-3.94-3.95,0-.61.14-1.21.41-1.76l1.15-2.31-5.02,2.9c-1.89,1.08-4.3.43-5.38-1.46-.73-1.27-.69-2.83.08-4.06l8.14-12.78-17.53,10.11c-1.87,1.11-4.29.49-5.41-1.38-.94-1.58-.66-3.6.67-4.87l5.88-5.68-10.45,6.03c-1.89,1.09-4.3.44-5.39-1.45-.82-1.43-.67-3.22.39-4.49l14.26-17.06-22.88,13.19c-1.91,1.05-4.31.35-5.36-1.56-.83-1.52-.58-3.4.62-4.64l10.2-10.26-14.86,8.62c-1.89,1.09-4.3.44-5.39-1.44-.85-1.47-.66-3.33.47-4.6l13.41-15.09-19.21,11.11c-1.89,1.08-4.3.42-5.38-1.47-.86-1.51-.63-3.41.57-4.68l12.81-13.35-16.99,9.81c-1.89,1.09-4.3.44-5.39-1.44-.93-1.62-.61-3.67.79-4.92l7.31-6.54-9.07,5.23c-1.9,1.06-4.31.37-5.36-1.53-.85-1.53-.59-3.43.63-4.68l14.49-14.45-17.55,10.12c-1.89,1.09-4.3.45-5.39-1.44-.91-1.58-.62-3.57.7-4.83l14.45-13.74-16.48,9.53c-1.89,1.09-4.3.44-5.39-1.45-.9-1.56-.63-3.53.65-4.79l17.73-17.36-19.83,11.39c-1.9,1.07-4.3.4-5.38-1.49-.93-1.65-.56-3.73.89-4.95l7.38-6.11-7.05,4.06c-1.89,1.09-4.3.45-5.39-1.44-.96-1.65-.59-3.75.86-4.99l10.31-8.69-9.78,5.6c-1.9,1.07-4.3.41-5.38-1.49-.84-1.49-.63-3.35.53-4.61l18.56-19.9-17.77,10.26c-1.89,1.08-4.3.42-5.38-1.47-.87-1.52-.63-3.42.58-4.68l6.81-7.05c-2.12-.48-3.46-2.59-2.98-4.72.24-1.07.92-2,1.88-2.55l18.94-10.93c1.89-1.09,4.3-.44,5.39,1.44.88,1.53.64,3.45-.58,4.72l-4.2,4.34,16.27-9.4c1.89-1.08,4.3-.43,5.38,1.46.86,1.49.64,3.37-.52,4.64l-18.58,19.9,25.11-14.49c1.89-1.08,4.3-.42,5.38,1.47.94,1.64.58,3.72-.86,4.95l-10.26,8.68,9.37-5.41c1.89-1.09,4.3-.44,5.39,1.45.96,1.67.58,3.78-.9,5.01l-7.4,6.13,6.22-3.59c1.89-1.09,4.3-.44,5.39,1.45.9,1.56.63,3.53-.65,4.79l-17.77,17.42,18.25-10.53c1.84-1.16,4.28-.61,5.44,1.24,1.04,1.64.72,3.8-.75,5.08l-14.45,13.69,14.99-8.68c1.9-1.06,4.31-.37,5.36,1.53.85,1.53.59,3.43-.63,4.68l-14.49,14.5,15.96-9.22c1.92-1.02,4.31-.29,5.33,1.64.82,1.55.52,3.45-.73,4.67l-7.31,6.54,8.07-4.65c1.89-1.08,4.3-.42,5.38,1.47.86,1.51.63,3.41-.57,4.68l-12.82,13.38,16.36-9.47c1.89-1.09,4.3-.44,5.39,1.44.85,1.47.66,3.33-.47,4.6l-13.41,15.09,19.51-11.27c1.91-1.05,4.31-.35,5.36,1.56.83,1.52.58,3.4-.62,4.64l-10.21,10.26,16.29-9.4c1.89-1.09,4.3-.44,5.39,1.45.82,1.43.67,3.22-.39,4.49l-14.26,17.06,18.88-10.9c1.87-1.11,4.29-.49,5.41,1.38.94,1.58.66,3.6-.67,4.87l-5.85,5.67,3.76-2.18c1.89-1.08,4.3-.42,5.38,1.48.72,1.26.68,2.81-.09,4.04l-8.13,12.77,2.37-1.39c1.88-1.1,4.3-.47,5.4,1.41.67,1.15.72,2.57.12,3.76l-4.16,8.36.11.18c1.09,1.89.44,4.3-1.44,5.39l-3.07,1.77c-.6.36-1.28.55-1.98.55Z"/>
      <path class="cls-3" d="m46.84,487.08c-2.18,0-3.95-1.76-3.95-3.94,0-1.1.46-2.16,1.27-2.91l13.73-12.62-22,12.7c-1.9,1.07-4.3.4-5.37-1.5-.97-1.72-.52-3.88,1.04-5.08l5.41-4.06-6.58,3.8c-1.9,1.06-4.31.38-5.37-1.52-.93-1.67-.53-3.76.94-4.97l38.09-30.38-36.24,20.92c-1.89,1.08-4.3.42-5.38-1.48-.99-1.74-.52-3.94,1.09-5.13l60.02-43.61-46.39,26.82c-1.87,1.11-4.29.5-5.41-1.38-1.08-1.82-.53-4.17,1.24-5.32l13.27-8.84-1.29.74c-1.9,1.07-4.3.39-5.37-1.51-.98-1.75-.5-3.95,1.13-5.13l34.36-24.26-15.15,8.71c-1.84,1.17-4.28.64-5.45-1.2-1.14-1.79-.66-4.17,1.09-5.37l40.34-30.71c-2.17-.13-3.83-2.01-3.69-4.18.08-1.31.81-2.5,1.95-3.16l47.49-27.43c1.9-1.06,4.31-.37,5.36,1.53.94,1.69.51,3.82-1.01,5.01l-36.29,27.61,36.29-20.97c1.9-1.07,4.3-.39,5.37,1.51.98,1.75.5,3.95-1.13,5.13l-34.36,24.26,32.43-18.72c1.89-1.08,4.3-.42,5.38,1.48,1.02,1.79.49,4.07-1.22,5.22l-13.27,8.84,5.63-3.24c1.91-1.05,4.31-.36,5.36,1.54.95,1.72.49,3.87-1.07,5.05l-59.99,43.65,16.57-9.55c1.89-1.08,4.3-.41,5.38,1.48.95,1.68.55,3.8-.94,5.01l-38.13,30.38,18.54-10.7c1.89-1.09,4.3-.44,5.39,1.44,1,1.73.55,3.93-1.05,5.13l-8.28,6.19c1.34-.13,2.64.47,3.4,1.58,1.19,1.62.97,3.88-.51,5.24l-13.75,12.62,2.57-1.48c1.84-1.17,4.28-.63,5.45,1.21,1.17,1.84.63,4.28-1.21,5.45-.09.06-.19.11-.29.17l-33.45,19.37c-.6.35-1.3.54-2,.53Z"/>
      <path class="cls-1" d="m251.14,488.87c-2.18,0-3.95-1.76-3.95-3.94,0-1.28.61-2.47,1.65-3.22l41.67-29.77-58.59,33.82c-1.91,1.04-4.31.33-5.35-1.58-.95-1.74-.45-3.92,1.16-5.08l44.37-30.19-55.72,32.17c-1.89,1.08-4.3.42-5.38-1.48-1.03-1.81-.48-4.11,1.27-5.25l16.21-10.47-22.14,12.79c-1.91,1.05-4.31.35-5.36-1.56-.98-1.79-.44-4.03,1.25-5.17l12.27-7.83-16.77,9.67c-1.87,1.12-4.29.51-5.41-1.36-1.1-1.83-.54-4.21,1.27-5.36l57-37.56-63.56,36.69c-1.92,1.04-4.31.33-5.35-1.59-.97-1.79-.42-4.01,1.26-5.15l22.71-14.44-25.8,14.89c-1.91,1.05-4.31.36-5.36-1.55-.98-1.77-.46-4,1.21-5.15l79.8-52.86-85.19,49.17c-1.87,1.12-4.29.52-5.42-1.35-1.12-1.87-.52-4.29,1.35-5.42l13.24-8.35-14.34,8.27c-1.91,1.05-4.31.35-5.36-1.56-.98-1.79-.44-4.03,1.25-5.17l64.06-41.25-66,38.13c-1.88,1.09-4.3.45-5.39-1.43-1.05-1.81-.5-4.12,1.24-5.27l100.14-66.34-102.37,59.09c-1.91,1.05-4.31.36-5.36-1.55-1-1.81-.43-4.08,1.3-5.21l8.41-5.23-7.01,4.04c-1.91,1.05-4.31.35-5.36-1.56-.99-1.8-.43-4.06,1.28-5.19l46.55-29.4-44.97,25.94c-1.96.95-4.32.13-5.27-1.83-.82-1.7-.33-3.74,1.18-4.88l105.52-69.48-103.15,59.57c-1.86,1.13-4.29.54-5.42-1.33-1.13-1.86-.54-4.29,1.33-5.42l62.48-39.74-58.54,33.78c-1.92,1.03-4.31.3-5.34-1.62-.95-1.78-.4-3.99,1.27-5.13l47.79-30.2-43.72,25.25c-1.9,1.06-4.31.38-5.37-1.52-1-1.79-.47-4.04,1.23-5.19l100.99-66.78-96.85,55.87c-1.9,1.06-4.31.38-5.37-1.52-1.01-1.8-.45-4.08,1.27-5.22l59.65-38.21-55.55,32.08c-1.86,1.14-4.29.55-5.42-1.31-1.14-1.86-.55-4.29,1.31-5.42h0l66.09-42.84-61.97,35.77c-1.89,1.09-4.3.44-5.39-1.45-1.06-1.84-.48-4.19,1.32-5.31l6.88-4.32-2.82,1.62c-1.91,1.05-4.31.35-5.36-1.56-.98-1.79-.44-4.03,1.25-5.17l39.76-25.54-35.66,20.58c-1.88,1.09-4.3.45-5.39-1.43-1.04-1.8-.51-4.1,1.22-5.26l73.78-49.7-69.6,40.18c-1.91,1.04-4.31.34-5.35-1.57-.96-1.76-.45-3.96,1.19-5.12l55.98-37.3-51.66,29.82c-1.85,1.16-4.28.6-5.44-1.24-1.16-1.85-.6-4.28,1.24-5.44h0l55.48-37.65-49.28,28.45c-1.87,1.11-4.29.49-5.4-1.38-1.07-1.81-.54-4.14,1.22-5.3l36.9-24.96-28.4,16.39c-1.88,1.09-4.3.45-5.39-1.43-1.02-1.76-.54-4,1.12-5.19l37.32-26.82-23.67,13.65c-1.89,1.09-4.3.44-5.39-1.45-.98-1.7-.56-3.85.98-5.07l41.86-32.84c-.87-1.85-.19-4.06,1.58-5.09l18.77-10.84c1.89-1.09,4.3-.44,5.39,1.45.98,1.7.56,3.85-.98,5.07l-18.06,14.2,44.34-25.6c1.88-1.09,4.3-.45,5.39,1.43,1.02,1.76.54,4-1.12,5.19l-37.35,26.82,54.85-31.66c1.89-1.08,4.3-.42,5.38,1.47,1.02,1.78.5,4.05-1.2,5.21l-36.82,24.95,47.97-27.69c1.87-1.11,4.29-.49,5.4,1.38,1.07,1.81.54,4.14-1.22,5.3l-55.48,37.65,64.25-37.08c1.89-1.08,4.3-.42,5.38,1.48,1.02,1.79.49,4.07-1.22,5.22l-55.92,37.25,61.63-35.57c1.88-1.09,4.3-.45,5.39,1.44,1.04,1.8.51,4.1-1.22,5.26l-73.78,49.7,80.92-46.72c1.86-1.14,4.29-.55,5.42,1.31s.55,4.29-1.31,5.42l-39.88,25.61,43.91-25.35c1.9-1.06,4.3-.39,5.37,1.51,1.02,1.82.45,4.11-1.3,5.24l-6.76,4.24,9.28-5.36c1.88-1.1,4.3-.46,5.39,1.43,1.06,1.82.5,4.15-1.27,5.29l-66.15,42.9,71.5-41.3c1.88-1.1,4.3-.47,5.4,1.41,1.08,1.84.5,4.19-1.3,5.33l-59.48,38.12,60.75-35.09c1.91-1.05,4.31-.36,5.36,1.55.98,1.77.46,4-1.21,5.15l-100.99,66.8,102.63-59.26c1.86-1.13,4.29-.53,5.42,1.34,1.13,1.86.53,4.29-1.34,5.42l-47.89,30.26,46.64-26.93c1.92-1.04,4.31-.33,5.35,1.59.97,1.79.42,4.01-1.26,5.15l-62.48,39.73,60.31-34.81c1.87-1.12,4.29-.51,5.41,1.36,1.1,1.83.54,4.21-1.27,5.36l-105.51,69.43,102.18-58.92c1.92-1.03,4.31-.3,5.34,1.62.95,1.78.4,3.99-1.27,5.13l-46.48,29.34,42.41-24.46c1.9-1.07,4.3-.4,5.37,1.5,1.03,1.83.45,4.15-1.33,5.27l-8.64,5.38,4.59-2.65c1.91-1.05,4.31-.36,5.36,1.55.98,1.77.46,4-1.21,5.15l-100.09,66.24,95.94-55.39c1.91-1.05,4.31-.35,5.36,1.56.98,1.79.44,4.03-1.25,5.17l-64.01,41.22,59.91-34.59c1.89-1.09,4.3-.44,5.39,1.45,1.06,1.84.48,4.19-1.32,5.31l-13.41,8.42,9.36-5.4c1.91-1.05,4.31-.36,5.36,1.55.98,1.77.46,4-1.21,5.15l-79.84,52.94,75.68-43.69c1.89-1.08,4.3-.42,5.38,1.47,1.04,1.82.47,4.14-1.3,5.28l-22.66,14.4,18.57-10.72c1.87-1.12,4.29-.51,5.41,1.36,1.1,1.83.54,4.21-1.27,5.36l-57.01,37.57,52.86-30.52c1.92-1.03,4.31-.3,5.34,1.62.95,1.77.41,3.98-1.24,5.11l-12.31,7.89,8-4.62c1.86-1.14,4.29-.55,5.42,1.31s.55,4.29-1.31,5.42l-16.13,10.4,10.85-6.26c1.9-1.07,4.3-.39,5.37,1.5,1,1.77.48,4.01-1.18,5.17l-44.41,30.21,36.52-21.08c1.88-1.1,4.3-.47,5.4,1.41,1.04,1.77.55,4.04-1.13,5.22l-41.68,29.78,29.1-16.8c1.89-1.08,4.3-.43,5.38,1.46,1.02,1.77.51,4.02-1.16,5.19l-12.36,8.62c2.17.18,3.78,2.09,3.6,4.26-.11,1.28-.84,2.43-1.96,3.08l-70.41,40.65c-1.89,1.08-4.3.43-5.38-1.46-1.02-1.77-.51-4.02,1.16-5.19l5.61-3.94-20.18,11.65c-.6.36-1.28.55-1.97.56Z"/>
      <path class="cls-7" d="m161.49,209.28c-2.18,0-3.94-1.77-3.94-3.95,0-1.06.43-2.07,1.18-2.81l22.6-22.09-30.11,17.36c-1.91,1.05-4.31.35-5.36-1.56-.83-1.52-.58-3.4.62-4.64l20.76-20.78-25.25,14.58c-1.89,1.08-4.3.42-5.38-1.47-.96-1.68-.56-3.81.95-5.03l1.89-1.49-1.46.84c-1.9,1.07-4.3.41-5.38-1.49-.84-1.49-.63-3.35.53-4.61l18.56-19.92-19.1,11.05c-1.87,1.12-4.29.51-5.41-1.36-.97-1.62-.66-3.69.74-4.95l9.85-9.19-7.2,4.15c-1.89,1.08-4.3.42-5.38-1.47-.81-1.43-.66-3.2.39-4.47l14.32-17.19-9.69,5.59c-1.89,1.08-4.3.42-5.38-1.47-.82-1.45-.65-3.26.43-4.52l7.89-9.04-1.38.79c-1.89,1.08-4.3.43-5.38-1.46-.66-1.16-.7-2.57-.09-3.75l7.68-14.99c-2.15-.34-3.62-2.36-3.28-4.51.19-1.18.89-2.21,1.93-2.8l8.28-4.78c1.89-1.08,4.3-.43,5.38,1.46.66,1.16.7,2.57.09,3.75l-7.03,13.52,10.26-5.91c1.89-1.09,4.3-.44,5.39,1.45.84,1.46.66,3.28-.44,4.55l-7.89,9.03,8.4-4.84c1.88-1.1,4.3-.47,5.4,1.41.85,1.45.68,3.28-.41,4.56l-14.3,17.19,17.88-10.32c1.87-1.12,4.29-.51,5.41,1.36.97,1.62.66,3.69-.74,4.95l-9.82,9.17,12.11-6.98c1.9-1.07,4.3-.41,5.38,1.49.84,1.49.63,3.35-.53,4.61l-18.59,19.91,25.29-14.61c1.88-1.1,4.3-.47,5.4,1.42.99,1.7.58,3.88-.97,5.09l-1.9,1.5,4.44-2.56c1.91-1.05,4.31-.35,5.36,1.56.83,1.52.58,3.4-.62,4.64l-20.76,20.8,31.34-18.09c1.72-.99,3.91-.55,5.11,1.03,1.2,1.58,1.03,3.81-.39,5.2l-22.6,22.09,14.84-8.56c1.93-1.01,4.31-.26,5.32,1.67.95,1.82.35,4.06-1.38,5.16l-41.94,24.21c-.58.35-1.25.54-1.93.54Z"/>
      <path class="cls-7" d="m335.84,207.22c-2.18,0-3.95-1.76-3.95-3.94,0-1.07.43-2.1,1.2-2.84l17.67-17.18-28.44,16.39c-1.9,1.06-4.3.39-5.37-1.51-.94-1.67-.54-3.78.95-4.99l16.94-13.41-21.7,12.53c-1.9,1.07-4.3.4-5.37-1.5-.94-1.66-.55-3.76.92-4.98l29.7-24.08-34.07,19.66c-1.89,1.08-4.3.41-5.38-1.48-.96-1.69-.54-3.83.98-5.04l30.68-23.83-31.09,17.94c-1.89,1.08-4.3.41-5.38-1.48-.95-1.68-.55-3.8.94-5.01l50.26-40.24c-.17-.13-.33-.28-.47-.44-1.23-1.41-1.3-3.48-.17-4.97l12.99-17.53c-.43-.31-.78-.71-1.04-1.18-1.09-1.88-.45-4.3,1.44-5.39l8.47-4.89c1.89-1.09,4.3-.44,5.39,1.45.78,1.36.69,3.05-.24,4.31l-9.4,12.68,11.18-6.45c1.89-1.09,4.3-.45,5.39,1.44.98,1.69.57,3.83-.95,5.05l-37.18,29.75,35.8-20.67c1.89-1.08,4.3-.41,5.38,1.48.96,1.69.54,3.83-.98,5.04l-30.73,23.86,27.61-15.96c1.88-1.1,4.3-.47,5.4,1.41.99,1.69.59,3.86-.94,5.08l-29.7,24.07,24.69-14.25c1.9-1.06,4.3-.39,5.37,1.51.94,1.67.54,3.78-.95,4.99l-16.94,13.41,9.47-5.45c1.72-1,3.92-.56,5.12,1.03,1.21,1.59,1.04,3.83-.39,5.22l-17.69,17.2,1.77-1.02c1.89-1.08,4.3-.41,5.38,1.48,1.07,1.88.43,4.26-1.43,5.35l-29.19,16.84c-.59.35-1.26.53-1.95.54Z"/>
      <path class="cls-10" d="m250.44,433.56c-2.18-.03-3.92-1.81-3.9-3.99.01-1.01.41-1.97,1.11-2.7l11.83-11.94-23.78,13.72c-1.89,1.08-4.3.42-5.38-1.47-.84-1.47-.64-3.32.49-4.58l13.59-14.99-21.3,12.3c-1.88,1.11-4.29.48-5.4-1.39-.69-1.16-.73-2.59-.12-3.79l5.39-10.75-8.46,4.89c-1.88,1.1-4.3.47-5.4-1.41-1.1-1.88-.47-4.3,1.41-5.4.01,0,.03-.02.04-.03l19.87-11.48c1.88-1.11,4.29-.48,5.4,1.39.69,1.16.73,2.59.12,3.79l-5.4,10.75,31.71-18.31c1.89-1.09,4.3-.44,5.39,1.45.85,1.48.65,3.35-.5,4.62l-13.6,14.99,27.61-15.91c1.91-1.04,4.31-.33,5.35,1.58.82,1.51.57,3.37-.62,4.61l-11.83,11.91,19.67-11.37c1.84-1.17,4.28-.63,5.45,1.21,1.17,1.84.63,4.28-1.21,5.45-.09.06-.19.11-.29.17l-45.31,26.16c-.59.35-1.26.53-1.95.53Z"/>
      <path class="cls-3" d="m211.11,406.11c-2.18,0-3.94-1.77-3.94-3.95,0-1.1.46-2.15,1.27-2.89l24.46-22.52-23.8,13.74c-1.89,1.09-4.3.44-5.39-1.45-.78-1.36-.69-3.05.24-4.31l11.99-16.13-7.06,4.06c-1.89,1.08-4.3.43-5.38-1.46-.53-.93-.67-2.03-.37-3.06l1.95-6.67c-1.93-1.01-2.68-3.39-1.66-5.32.35-.66.88-1.21,1.52-1.59l3.94-2.28c1.89-1.09,4.3-.45,5.39,1.44.54.94.67,2.05.37,3.09l-1.2,4.1,15.05-8.68c1.89-1.08,4.3-.42,5.38,1.47.77,1.35.68,3.03-.25,4.29l-12,16.14,38.08-21.98c1.9-1.07,4.3-.4,5.37,1.49.89,1.58.59,3.57-.74,4.82l-24.41,22.51,50.05-28.9c1.87-1.11,4.29-.49,5.41,1.38.94,1.58.66,3.6-.67,4.87l-13.06,12.62,17.47-10.08c1.9-1.07,4.3-.41,5.38,1.49.8,1.42.65,3.18-.37,4.44l-10.41,12.62,5.41-3.12c1.89-1.09,4.3-.45,5.39,1.44.73,1.27.7,2.84-.08,4.08l-4.3,6.82c2.18.06,3.9,1.87,3.84,4.04-.04,1.37-.78,2.63-1.97,3.32l-11.08,6.4c-1.89,1.09-4.3.45-5.39-1.44-.73-1.27-.7-2.84.08-4.08l3.64-5.77-10.6,6.11c-1.89,1.08-4.3.43-5.38-1.46-.81-1.42-.66-3.2.37-4.46l10.43-12.62-26.28,15.16c-1.87,1.11-4.29.49-5.41-1.38-.94-1.58-.66-3.6.67-4.87l13.05-12.62-53.03,30.6c-.6.35-1.28.54-1.97.54Z"/>
      <path class="cls-5" d="m246.37,316.78c-2.18,0-3.94-1.77-3.94-3.95,0-1.12.48-2.19,1.31-2.93l25.85-23.2-37.7,21.75c-1.88,1.09-4.3.45-5.39-1.43-1.02-1.76-.54-4,1.12-5.19l3.68-2.64-6.81,3.94c-1.89,1.09-4.3.44-5.39-1.45-.97-1.68-.57-3.82.94-5.03l29.56-23.84-35.91,20.73c-1.9,1.07-4.3.4-5.37-1.5-.98-1.73-.52-3.91,1.07-5.1l14.35-10.51-14.02,8.09c-1.89,1.08-4.3.43-5.38-1.46-1-1.75-.53-3.97,1.1-5.15l7.3-5.29-3.84,2.22c-1.89,1.08-4.3.41-5.38-1.48-.98-1.72-.53-3.91,1.06-5.1l5-3.71c-1.6.53-3.36-.01-4.38-1.35-1.2-1.58-1.05-3.8.36-5.2l14.36-14.2c-2.18.04-3.98-1.69-4.02-3.87-.03-1.44.73-2.77,1.97-3.49l23.16-13.41c1.9-1.07,4.3-.39,5.37,1.5.86,1.54.6,3.46-.64,4.71l-12.99,12.86,32.17-18.57c1.9-1.06,4.31-.38,5.37,1.53.95,1.71.51,3.86-1.05,5.05l-4.4,3.27,9.98-5.76c1.89-1.08,4.3-.43,5.38,1.46,1,1.75.53,3.97-1.1,5.15l-7.3,5.28,10.95-6.31c1.9-1.07,4.3-.4,5.37,1.5.98,1.73.52,3.91-1.07,5.1l-14.39,10.54,16.95-9.78c1.89-1.09,4.3-.45,5.39,1.44.98,1.69.57,3.83-.95,5.05l-29.56,23.83,31.67-18.27c1.9-1.07,4.3-.39,5.37,1.51.97,1.73.5,3.92-1.09,5.1l-3.65,2.63,1.58-.92c1.92-1.03,4.31-.31,5.34,1.61.83,1.55.53,3.47-.73,4.7l-25.85,23.21,20.94-12.09c1.93-1.01,4.31-.26,5.32,1.67.95,1.82.35,4.06-1.38,5.16l-53.65,30.99c-.6.38-1.28.59-1.99.6Z"/>
      <path class="cls-6" d="m254.19,291.71c-2.18,0-3.94-1.77-3.94-3.94,0-.85.28-1.68.79-2.37l3.38-4.57-9.66,5.57c-1.89,1.08-4.3.42-5.38-1.47-.86-1.51-.63-3.41.57-4.68l2.13-2.22-1.32.79c-1.89,1.08-4.3.43-5.38-1.46-.8-1.4-.67-3.15.33-4.42l3.94-4.88c-2.1-.59-3.32-2.77-2.73-4.87.28-.99.93-1.83,1.82-2.34l13.07-7.54c1.89-1.08,4.3-.43,5.38,1.46.8,1.4.67,3.15-.33,4.42l-1.85,2.32,7.35-4.24c1.89-1.08,4.3-.42,5.38,1.47.86,1.51.63,3.41-.57,4.68l-2.12,2.2,1.89-1.09c1.89-1.09,4.3-.43,5.39,1.45.78,1.36.68,3.05-.25,4.31l-4.44,6.01c2.17.19,3.77,2.11,3.58,4.28-.11,1.27-.84,2.41-1.94,3.06l-13.07,7.53c-.61.35-1.31.53-2.01.52Z"/>
      <path class="cls-3" d="m243.2,322.01c-2.18,0-3.95-1.76-3.95-3.94,0-1.17.52-2.28,1.42-3.04l.88-.73-6.27,3.62c-1.89,1.09-4.3.44-5.39-1.44-.72-1.24-.7-2.77.03-4l8.02-13.31-15.87,9.15c-1.89,1.09-4.3.44-5.39-1.44-.74-1.29-.7-2.88.11-4.13l1.9-2.9-2.28,1.31c-1.89,1.09-4.3.44-5.39-1.45-.29-.51-.47-1.07-.51-1.66l-.32-4.02c-2.17-.16-3.81-2.05-3.65-4.22.1-1.31.83-2.48,1.97-3.13l3.21-1.85c1.17-.67,2.61-.7,3.81-.08,1.19.63,1.98,1.81,2.1,3.16l.25,3.27,11.16-6.44c1.89-1.09,4.3-.44,5.39,1.44.74,1.29.7,2.88-.11,4.13l-1.9,2.91,14.8-8.54c1.88-1.09,4.3-.45,5.39,1.43.72,1.25.71,2.79-.04,4.02l-8.02,13.33,32.68-18.86c1.89-1.09,4.3-.44,5.39,1.45.95,1.66.58,3.76-.89,4.99l-.86.73,12.52-7.23c1.71-1.01,3.91-.57,5.1,1.03,1.2,1.57,1.05,3.8-.36,5.19l-10.08,9.96h0c2.18,0,3.94,1.77,3.94,3.94,0,1.41-.75,2.71-1.97,3.42l-23.12,13.34c-1.9,1.07-4.3.39-5.37-1.5-.86-1.54-.6-3.46.64-4.71l8.61-8.51-25.63,14.8c-.6.35-1.28.54-1.97.54Z"/>
      <path class="cls-2" d="m205.12,287.94c-.5,1.14-.03,2.47,1.07,3.05,15.16,44.18,80.38,42.13,95.71-1.42.77-.8,1.15-1.89,1.03-2.99,8.39-26.67-6.43-55.1-33.1-63.49-4.95-1.56-10.11-2.35-15.3-2.33-29.07.65-52.1,24.75-51.45,53.82.1,4.53.79,9.02,2.04,13.37Zm40.85,26.25c-12.8-2.63-23.69-10.97-29.56-22.64h31.24c4.14,1.55,8.7,1.55,12.84,0h32.13c-8.43,17.44-27.73,26.81-46.65,22.64h0Zm7.72-53.01c6.09-.65,11.55,3.77,12.19,9.85.65,6.09-3.77,11.55-9.85,12.19-.59.06-1.19.08-1.78.04-6.09.67-11.56-3.72-12.23-9.8-.67-6.09,3.72-11.56,9.8-12.23.62-.07,1.25-.08,1.88-.05h0Zm43.2,12.18c-.06,3.76-.61,7.5-1.63,11.12h-25.89c7.46-11.69,2.55-31.8-15.13-32.75-11.44.67-20.16,10.48-19.5,21.92.23,3.9,1.55,7.65,3.82,10.83h-25.12c-18.65-62.24,84.28-75.36,83.44-11.12Z"/>
      <path class="cls-2" d="m369.39,324.72c.21-6.43.38-12.89.43-19.37,50.08-25.07,110.7-75.53,116.89-134.5-2.52-31.95-49.7-40.54-61.2-9.22-19.91,33.83-20.67,66-59.82,86.16-2.48-14.33-7.02-28.22-13.48-41.25,29.6-24.54,37.87-63.91,28.97-100.56-1.77-8.11-3.35-18.46-13.54-18.88-11.66-.47-15.18,15.36-19.28,22.81-10.76,19.52-28.48,40.92-50.45,48.71-27.78-10.73-58.56-10.73-86.34,0-19.72-6.77-36.13-24.82-47.04-41.63-5.52-8.45-9.74-29.52-22.51-29.98-8.56-.29-11.55,7.2-13.73,13.89-12.44,36.4-3.54,82.38,27.2,106.14-6.33,12.86-10.82,26.55-13.33,40.66-33.58-17.1-47.21-53.73-59.17-87.48-14.04-32.93-71.31-14.49-61.23,20.54,20.62,55.21,62.3,99.99,115.89,124.5,0,7,.17,13.98.41,20.91-53.49,24.65-95.16,69.31-116.04,124.37-10.44,36.29,46.64,53.17,60.93,19.55,11.96-33.65,25.25-68.74,57.96-86.31,3.22,28.58,16.11,55.19,36.54,75.44-4.72,15-7.09,30.65-7.02,46.38-33.93-1.58-46.7,44.97-6.86,46.37,65.65,8,53.16-13.65,64.7-65.03,17.26,3.97,35.21,3.87,52.42-.29,10.85,20.31-1.22,60.58,26.53,66.22,13.89,1.02,27.84,1.09,41.74.2,34.46-4.43,16.57-53.24-12.62-48.74.03-14.97-2.24-29.85-6.75-44.12,20.61-20.03,33.71-46.55,37.08-75.09,28.4,15.85,42.53,42.71,53.77,72.64,4.73,12.67,7.94,26.35,22.52,30.77,17.96,4.21,36.25-5.64,42.6-22.97,6.46-56.66-69.37-119.28-116.16-140.83Zm40.79-109.22c6.79-11.2,10.19-23.72,16.34-35.09,10.79-19.94,36.96-43.67,47.6-11.65,9.1,51.98-62.1,107.21-104.3,128.08,0-13.82-.96-27.61-2.83-41.3,17.94-8.93,32.93-22.83,43.2-40.04Zm-67.55-82.9c3.81-4.69,14.85-28.68,19.02-30.48,16.09-6.95,14.42,33.75,13.72,43.27-2.23,21.14-11.95,40.78-27.42,55.37-.64.04-1.24.32-1.68.79-9.75,2.58-25.02-9.47-31.15-14.77-5.01-6.67-9.55-16.77-13.6-22.4,16.3-6.73,30.49-17.71,41.11-31.79Zm-208.18,23.46c-1.58-7.1-5.79-51.49,2.76-54.68,9.81-3.67,18.26,19.24,22.88,25.74,11.42,16.8,27.36,30.02,45.98,38.14-1.22,16-24.17,35.56-39.83,36.01-6.56-.65-4.5-.21-9.66-5.39-11.04-10.87-18.72-24.7-22.12-39.82Zm-103.35,23.22c-6.91-25.75,32.05-41.85,42.98-16.13,13.32,37.48,28.61,75.06,66.7,92.58-1.95,13.53-2.99,27.18-3.11,40.84-49.09-24.21-87.18-66.12-106.6-117.3h.02Zm42.98,289.79c-10.64,25.03-50.36,7.36-43.2-17.53,19.43-51.51,57.89-93.59,107.45-117.56.73,14.59,1.07,28.3,1.96,42.01-37.72,17.82-53.01,55.91-66.22,93.07Zm137.04,54.24c-1.74,15.71-8.68,21.53-23.1,21.53-8.4.76-16.85.76-25.25,0-8.62-1.55-14.35-9.8-12.79-18.42.77-4.27,3.25-8.04,6.88-10.42,5.48-3.13,11.83-4.36,18.08-3.5,1.93,0,4.88-.92,4.88-3.35-.2-14.55,1.61-29.05,5.4-43.1,10.13,8.17,21.66,14.42,34.04,18.44-3.88,12.67-6.6,25.66-8.13,38.83Zm118.11-14.64c.24,6.47,7.42,4.73,11.88,4.92,7.47,0,14.33,4.13,17.85,10.72,3.6,6.16,1.54,14.07-4.62,17.67-1.84,1.08-3.92,1.68-6.05,1.76-14.61-.47-29.59,2.16-43.83-1.26-8.55-3.46-7.93-11.97-8.88-20.05-1.55-12.8-4.22-25.44-7.98-37.78,13.18-4.06,25.45-10.63,36.14-19.35,3.93,14.11,5.78,28.72,5.49,43.37Zm-80.29-28.4c-82.05-3.47-105.93-81.89-101.89-150.8,1.15-.83,1.41-2.43.58-3.58-.16-.22-.36-.42-.58-.58v-19.92c1.51-1.24,1.93-2.9,0-4.11.05-16.62-.27-25.16,1.08-46.9.51-.8.59-1.81.2-2.67,2.04-24.14,4.07-40.4,14.67-42.95,24.9-2.18,45.78-19.71,52.22-43.87,25.01-9.35,52.59-9.15,77.46.55,3.64,23.67,28.91,42.22,52.07,43.39,15.34,27.61,17.56,60.1,17.23,92.42-1.78,1.76-1.82,4.62-.09,6.42-.12,6-.29,11.99-.47,17.92-1.13,1.53-1.19,3.59-.15,5.18,4.3,72.35-26.35,153.64-112.35,149.52v-.02Zm212.56-1.22c-27.83,10.19-35.25-35.72-44.75-52.98-10.12-22.14-27.43-40.19-49.12-51.24.69-13.16.73-26.15,1.4-39.84,39.03,18.05,143.06,98.12,92.47,144.08v-.02Z"/>
      <path class="cls-2" d="m313.85,348.05c-3.87,1.73-7.9,3.07-12.03,4-1.49-.35-3.06,0-4.28.93-29.18,3.64-58.7,3.65-87.89.05-1.44-.94-3.19-1.3-4.89-1-4.37-.98-8.62-2.4-12.7-4.24-5.38-2.52-7.69,4.21-2.41,6.67,3.94,1.78,8.03,3.19,12.23,4.21-14.18,99.18,118.5,100.14,104.17.34,4.9-1.12,9.68-2.73,14.26-4.8,4.84-2.3-2.43-8.02-6.45-6.16Zm-55.62,78.16c-16.66,1.79-32.73-6.74-40.58-21.54,22.36-12.77,49.87-12.5,71.98.71-5.81,12.21-17.88,20.23-31.39,20.83Zm34.71-29.71c-24.51-13.57-54.4-13.05-78.42,1.37-3.37-12.1-4.46-24.72-3.23-37.22,28.35,3.1,56.95,3.17,85.31.21.35,11.99-.88,23.97-3.66,35.64h0Z"/>
    </g>
  </g>
  <g id="Capa_3" data-name="Capa 3">
    <g>
      <path class="cls-9" d="m467,115.11c0,45.6-70.88,140.85-212.43,140.85S42.1,160.71,42.1,115.11s59.25,31.03,210.46,31.03c151.34.09,214.45-76.63,214.45-31.03Z"/>
      <path class="cls-4" d="m254.57,261c-80.32,0-132.68-29.63-162.53-54.47-37.92-31.6-54.95-68.69-54.95-91.42,0-12.95,5-19.49,14.79-19.49,7.72,0,18.04,4.17,33.58,10.4,32.52,13.17,86.99,35.11,167.18,35.11s135.36-21.81,168.63-34.85c15.89-6.19,27.39-10.71,35.55-10.71,10.14,0,15.27,6.54,15.27,19.49,0,22.74-16.94,59.78-54.95,91.42-29.85,24.84-82.21,54.47-162.53,54.47l-.04.04ZM51.89,105.67c-2.19,0-4.7,0-4.7,9.44,0,20.32,15.84,54.12,51.31,83.7,28.57,23.79,78.83,52.14,156.12,52.14s127.55-28.35,156.12-52.14c35.46-29.58,51.31-63.33,51.31-83.7,0-9.44-2.68-9.44-5.22-9.44-6.28,0-17.6,4.43-31.86,10.01-34.02,13.3-90.81,35.55-172.32,35.55s-137.69-22.47-170.91-35.81c-13.43-5.4-24.05-9.7-29.85-9.7v-.04Z"/>
      <path class="cls-9" d="m294.69,7.05c-9.09,0-20.85,17.47-41.61,17.47s-33.44-17.47-44.29-17.47c-15.27,0-33.66,45.91-46.52,80.23-12.86,34.37-16.77,63.07-16.77,73.6,0,19.71,34.28,47.36,107.53,47.36s107.53-28.66,107.53-47.36c0-10.27-4.43-38.36-18.52-73.34-11.76-29.36-30.42-80.54-47.45-80.54l.09.04Z"/>
      <path class="cls-4" d="m253.12,213.29c-42.71,0-69.04-9.22-83.61-16.9-18.17-9.66-29.01-22.87-29.01-35.55,0-10.27,3.6-39.33,17.12-75.4C176.4,35.4,192.34,2.04,208.84,2.04c5.97,0,11.41,3.47,17.73,7.37,7.46,4.7,15.89,10.05,26.55,10.05s19.09-5.57,26.25-10.49c5.49-3.73,10.23-6.98,15.36-6.98,17.6,0,31.95,32.74,48.94,75.45,1.14,2.9,2.24,5.62,3.25,8.16,14.92,37.18,18.87,65.44,18.87,75.23,0,12.33-10.84,25.5-28.92,35.2-14.7,7.81-41.17,17.16-83.7,17.16l-.04.09ZM208.84,12.05c-1.67,0-7.94,1.76-19.71,24.49-8.03,15.54-15.71,35.24-22.16,52.45-12.11,32.17-16.46,60.61-16.46,71.85,0,6.85,6.19,17.38,23.66,26.69,13.61,7.2,38.27,15.76,78.92,15.76s65.27-8.73,78.92-16.06c17.47-9.35,23.66-20.06,23.66-26.33,0-10.58-4.87-38.27-18.17-71.45-1.05-2.59-2.11-5.35-3.29-8.25-5.79-14.57-12.95-32.65-20.5-46.79-10.71-20.15-16.9-22.3-19.09-22.3-2.06,0-5.93,2.68-9.7,5.22-7.55,5.14-17.86,12.25-31.86,12.25s-23.7-6.41-31.86-11.63c-4.65-3.03-9.13-5.93-12.25-5.93l-.09.04Z"/>
      <g>
        <path class="cls-4" d="m253.12,182.08c-63.69,0-97.92-20.98-105.78-39.33-1.27,8.03-1.76,14.31-1.76,18.08,0,19.71,34.28,47.36,107.53,47.36s107.53-28.66,107.53-47.36c0-3.73-.61-9.88-2.06-17.82-8.25,17.86-42.44,39.06-105.51,39.06h.04Z"/>
        <path class="cls-4" d="m253.12,213.29c-42.71,0-69.04-9.22-83.61-16.9-18.17-9.66-29.01-22.87-29.01-35.55,0-4.65.61-11.32,1.84-18.87.35-2.19,2.11-3.95,4.35-4.21s4.35.97,5.22,3.03c7.46,17.47,42.31,36.34,101.17,36.34s92.92-18.74,100.99-36.17c.92-1.98,3.03-3.12,5.22-2.9,2.19.26,3.95,1.89,4.3,4.08,1.32,7.55,2.11,14.22,2.11,18.74,0,12.33-10.84,25.5-28.92,35.2-14.66,7.9-41.13,17.25-83.61,17.25l-.04-.04Zm-102.4-56.75c-.13,1.62-.13,3.12-.13,4.35,0,6.85,6.19,17.38,23.66,26.69,13.61,7.2,38.27,15.76,78.92,15.76s65.27-8.73,78.92-16.06c17.47-9.35,23.66-20.06,23.66-26.33,0-1.32-.09-2.94-.22-4.7-16.11,16.68-50.83,30.99-102.35,30.99-54.6-.09-87.3-14.79-102.4-30.68h-.04Z"/>
      </g>
      <path class="cls-4" d="m358.68,148.73c-1.27,2.59-2.59,5.22-4.43,7.55-2.41,2.9-4.92,5.57-7.81,7.94-5.97,5-12.68,8.95-19.71,12.16-14.57,6.67-30.46,10.14-46.3,12.03-16.42,1.98-33.14,1.98-49.64.57-15.84-1.32-32.22-4.43-46.96-10.58-7.81-3.25-15.76-7.02-22.3-12.47-3.25-2.68-6.32-5.49-9-8.78-2.19-2.68-3.73-5.62-5.14-8.73,3.16,5.49,7.11,10.36,12.25,14.09,6.06,4.43,12.47,7.9,19.36,10.84,14.44,6.14,30.42,9.22,45.95,10.84,16.33,1.67,32.74,1.84,49.11.7,8.08-.57,16.2-1.62,24.05-3.16,7.55-1.54,15.14-3.29,22.38-5.97,7.94-2.94,16.06-6.28,23-11.28,3.38-2.41,6.54-5,9.44-8.03,2.24-2.41,3.99-5,5.71-7.72h.04Z"/>
      <path class="cls-4" d="m321.73,70.38c-8.16.35-15.27-4.3-20.41-10.36-6.06-7.11-9.48-16.46-9.92-25.76-.22-4.3.35-8.65,1.98-12.6,3.38,6.98,5.97,14.22,9.35,21.2,3.25,6.76,6.85,13.21,11.28,19.27,2.33,3.12,5.14,5.57,7.72,8.25Z"/>
      <path class="cls-4" d="m181.67,70.38c1.32-1.32,2.77-2.59,3.99-3.99,1.67-1.89,3.29-3.95,4.7-6.06,2.77-3.99,5.22-8.38,7.33-12.73,2.24-4.65,4.43-9.44,6.5-14.13,1.67-3.86,3.16-7.94,5-11.76,3.16,7.55,2.55,16.81-.09,24.4-2.9,8.51-7.94,16.24-15.71,21.11-3.6,2.24-7.59,3.29-11.76,3.16h.04Z"/>
      <path class="cls-4" d="m58.29,128.19c8.43,21.59,24.97,38.62,42.22,53.63,18.39,15.98,38.98,29.14,60.39,40.69,9.88,5.35,20.15,9.92,30.33,14.48-22.82-4.08-44.55-12.95-64.34-25.06-21.2-12.95-40.91-29.63-54.95-50.26-6.85-10.14-12.03-21.33-13.65-33.49Z"/>
      <path class="cls-4" d="m448.79,128.19c-2.94,22.82-18.52,42.57-34.76,57.94-18.21,17.16-39.77,31.03-62.94,40.56-11.41,4.65-23.17,8.16-35.24,10.27,20.15-8.87,39.68-18.79,58.16-30.81,20.28-13.21,39.63-28.49,55.48-46.88,8.08-9.35,14.84-19.49,19.36-31.03l-.04-.04Z"/>
      <path class="cls-4" d="m226.83,46.02c8.38,3.99,16.68,8.08,26.2,8.08s17.95-4.08,26.33-8.08c-4.21,7.9-12.95,13.61-21.68,14.92-7.46,1.14-15.14-.61-21.42-4.87-3.73-2.55-7.33-5.97-9.44-10.05Z"/>
      <path class="cls-11" d="m283.37,138.9c-.61,0-1.19.22-1.67.48l-8.03-13.96,8.03-13.96c.48.26,1.05.48,1.67.48,1.89,0,3.47-1.54,3.47-3.47s-1.54-3.47-3.47-3.47-3.47,1.54-3.47,3.47h-16.11l-8.51-14.79c1.05-.57,1.76-1.67,1.76-2.94,0-1.89-1.54-3.47-3.47-3.47s-3.47,1.54-3.47,3.47c0,1.27.7,2.41,1.76,2.94l-8.51,14.79h-16.11c0-1.89-1.54-3.47-3.47-3.47s-3.47,1.54-3.47,3.47,1.54,3.47,3.47,3.47c.61,0,1.19-.22,1.67-.48l8.03,13.96-8.03,13.96c-.48-.26-1.05-.48-1.67-.48-1.89,0-3.47,1.54-3.47,3.47s1.54,3.47,3.47,3.47,3.47-1.54,3.47-3.47h16.11l8.51,14.79c-1.05.57-1.76,1.67-1.76,2.94,0,1.89,1.54,3.47,3.47,3.47s3.47-1.54,3.47-3.47c0-1.27-.7-2.41-1.76-2.94l8.51-14.79h16.11c0,1.89,1.54,3.47,3.47,3.47s3.47-1.54,3.47-3.47-1.54-3.47-3.47-3.47Z"/>
      <g>
        <path class="cls-4" d="m358.81,135.65c-6.32,5.93-12.95,11.28-20.5,15.63-8.3,4.78-17.34,8.38-26.55,10.93-3.99,1.05-8.08,2.06-12.16,2.46,7.81-2.11,15.41-5.79,22.47-9.79,7.81-4.52,15.05-10.05,21.42-16.46,2.9-2.94,5.4-6.28,7.94-9.48,2.41,2.24,4.92,4.52,7.37,6.76v-.04Z"/>
        <path class="cls-4" d="m355.87,124.37c-5.97,5.49-12.25,10.23-19.44,14.09-6.41,3.47-13.3,6.14-20.32,8.03-3.12.83-6.32,1.62-9.57,2.06,8.43-2.77,16.55-7.33,23.7-12.51,3.38-2.46,6.63-5.14,9.57-8.08,3.16-3.25,5.97-6.63,8.65-10.27,2.41,2.24,4.92,4.52,7.37,6.76l.04-.09Z"/>
        <path class="cls-4" d="m352.93,113.13c-11.1,9.66-24.71,16.9-39.41,19.14,6.19-2.55,12.11-6.19,17.38-10.36,5.71-4.52,10.4-9.7,14.66-15.63,2.46,2.33,4.92,4.56,7.37,6.85Z"/>
        <path class="cls-4" d="m349.95,101.85c-8.6,6.89-18.65,12.11-29.58,14.22,9-5,16.55-12.38,22.12-20.98,2.55,2.33,5,4.52,7.46,6.76Z"/>
        <path class="cls-4" d="m347.05,90.57c-6.06,4.17-12.6,7.37-19.71,9.3,5-4.56,9-10.01,12.16-15.98,2.46,2.24,5,4.43,7.55,6.67Z"/>
      </g>
      <g>
        <path class="cls-4" d="m154.19,128.89c4.92,6.32,10.23,12.11,16.46,17.16,7.24,5.84,15.36,10.58,23.79,14.35,3.73,1.67,7.59,3.25,11.54,4.3-8.08-.92-16.11-3.38-23.7-6.28-9.09-3.47-17.69-8.25-25.41-14-3.6-2.68-6.85-5.71-10.05-8.78,2.46-2.24,4.92-4.52,7.37-6.76Z"/>
        <path class="cls-4" d="m157.18,117.61c2.77,3.6,5.49,7.02,8.65,10.27,2.94,2.94,6.19,5.62,9.57,8.08,7.11,5.22,15.27,9.79,23.7,12.51-14.13-1.84-28.09-8.03-39.77-16.11-3.47-2.41-6.5-5.14-9.57-7.94,2.46-2.33,4.92-4.56,7.37-6.85l.04.04Z"/>
        <path class="cls-4" d="m160.12,106.37c4.21,5.93,8.95,11.1,14.66,15.63,5.27,4.17,11.19,7.81,17.38,10.36-14.7-2.24-28.31-9.48-39.41-19.14,2.46-2.33,4.92-4.56,7.37-6.85Z"/>
        <path class="cls-4" d="m163.06,95.18c5.62,8.6,13.08,15.98,22.12,20.98-10.93-2.11-20.98-7.33-29.58-14.22,2.46-2.33,5-4.52,7.46-6.76Z"/>
        <path class="cls-4" d="m166.05,83.9c3.16,5.97,7.2,11.41,12.16,15.98-7.11-1.89-13.65-5.22-19.71-9.3,2.55-2.24,5.05-4.43,7.55-6.67Z"/>
      </g>
      <g>
        <polygon class="cls-4" points="146.38 154.52 102.49 133.19 149.85 145.08 146.38 154.52"/>
        <polygon class="cls-4" points="143.88 168.3 119.78 151.05 148.31 159.3 143.88 168.3"/>
        <polygon class="cls-4" points="355.79 145.08 403.19 133.19 359.25 154.52 355.79 145.08"/>
        <polygon class="cls-4" points="357.37 159.3 385.85 151.05 361.71 168.3 357.37 159.3"/>
      </g>
    </g>
  </g>
</svg>