<?xml version="1.0" encoding="UTF-8"?>
<svg xmlns="http://www.w3.org/2000/svg" viewBox="0 0 500 575">
  <defs>
    <style>
      .cls-1 {
        fill: #6468a0;
      }

      .cls-1, .cls-2, .cls-3, .cls-4, .cls-5, .cls-6, .cls-7, .cls-8, .cls-9, .cls-10, .cls-11, .cls-12, .cls-13, .cls-14, .cls-15, .cls-16, .cls-17, .cls-18, .cls-19 {
        stroke-width: 0px;
      }

      .cls-2 {
        fill: #4d4d4d;
      }

      .cls-3 {
        fill: #262626;
      }

      .cls-4 {
        fill: #e384b0;
      }

      .cls-5 {
        fill: #ffb5e9;
      }

      .cls-6 {
        fill: #8486d0;
      }

      .cls-7 {
        fill: #4ce0c8;
      }

      .cls-8 {
        fill: #241816;
      }

      .cls-9 {
        fill: #416b80;
      }

      .cls-10 {
        fill: #9e9ceb;
      }

      .cls-11 {
        fill: #fff;
      }

      .cls-12 {
        fill: #5da0ff;
      }

      .cls-13 {
        fill: #f4d075;
      }

      .cls-14 {
        fill: #dee3d7;
      }

      .cls-15 {
        fill: #e2e6eb;
      }

      .cls-16 {
        fill: #eac2aa;
      }

      .cls-17 {
        fill: #d8d8ff;
      }

      .cls-18 {
        fill: #f2f1eb;
      }

      .cls-19 {
        fill: #e7d8b4;
      }
    </style>
  </defs>
  <g id="Capa_1" data-name="Capa 1">
    <g>
      <path class="cls-19" d="m250,573c-66.51,0-129.04-25.9-176.07-72.93C26.9,453.04,1,390.51,1,324s25.9-129.04,72.93-176.07c47.03-47.03,109.56-72.93,176.07-72.93s129.04,25.9,176.07,72.93c47.03,47.03,72.93,109.56,72.93,176.07s-25.9,129.04-72.93,176.07c-47.03,47.03-109.56,72.93-176.07,72.93Z"/>
      <path class="cls-8" d="m250,76c33.48,0,65.96,6.56,96.53,19.49,29.53,12.49,56.05,30.37,78.83,53.15,22.78,22.78,40.66,49.3,53.15,78.83,12.93,30.57,19.49,63.05,19.49,96.53s-6.56,65.96-19.49,96.53c-12.49,29.53-30.37,56.05-53.15,78.83-22.78,22.78-49.3,40.66-78.83,53.15-30.57,12.93-63.05,19.49-96.53,19.49s-65.96-6.56-96.53-19.49c-29.53-12.49-56.05-30.37-78.83-53.15-22.78-22.78-40.66-49.3-53.15-78.83-12.93-30.57-19.49-63.05-19.49-96.53s6.56-65.96,19.49-96.53c12.49-29.53,30.37-56.05,53.15-78.83s49.3-40.66,78.83-53.15c30.57-12.93,63.05-19.49,96.53-19.49m0-2C111.93,74,0,185.93,0,324s111.93,250,250,250,250-111.93,250-250-111.93-250-250-250h0Z"/>
    </g>
  </g>
  <g id="Capa_2" data-name="Capa 2">
    <path class="cls-13" d="m113.41,306.25c-1.88,0-3.41-1.51-3.42-3.4,0-.79.27-1.55.77-2.16l12.19-14.99-31.26,18.03c-1.62.95-3.71.41-4.66-1.22-.83-1.42-.53-3.24.73-4.31l27.86-23.95-30.58,17.66c-1.64.93-3.72.36-4.64-1.28-.82-1.45-.48-3.28.82-4.33l35.26-28.22-34.56,19.97c-1.64.93-3.72.35-4.64-1.28-.86-1.52-.44-3.44.99-4.45l5.53-3.88-9.12,5.26c-1.65.9-3.72.28-4.62-1.37-.8-1.48-.4-3.33.95-4.34l8.32-5.92-7.84,4.52c-1.63.94-3.71.37-4.65-1.26-.85-1.48-.47-3.37.9-4.41l12.34-9.31c-1.81.52-3.7-.51-4.22-2.32-.33-1.14-.05-2.37.75-3.25l9.7-10.65-22.84,13.16c-1.62.95-3.71.4-4.66-1.22-.83-1.42-.53-3.23.72-4.3l1.04-.89-1.7.97c-1.64.92-3.72.34-4.64-1.3-.61-1.09-.58-2.42.08-3.48l4.56-6.98c-1.47.34-2.98-.32-3.75-1.61-.94-1.63-.38-3.7,1.24-4.65l11.29-6.52c1.63-.94,3.71-.38,4.65,1.25.64,1.11.61,2.49-.1,3.56l-4.39,6.73,20.02-11.54c1.63-.94,3.71-.37,4.65,1.26.81,1.41.51,3.19-.71,4.26l-1.03.89,11.12-6.41c1.63-.94,3.71-.38,4.65,1.25.74,1.28.56,2.89-.43,3.99l-9.7,10.63,27.53-15.87c1.63-.94,3.71-.37,4.65,1.26.85,1.48.47,3.37-.9,4.41l-11.68,8.8,22.65-13.07c1.64-.92,3.72-.33,4.63,1.32.84,1.5.42,3.39-.96,4.4l-8.3,5.91,13.31-7.68c1.64-.93,3.72-.35,4.64,1.28.86,1.52.44,3.44-.99,4.45l-5.5,3.86,6.64-3.83c1.63-.95,3.71-.39,4.66,1.23.85,1.46.5,3.33-.83,4.38l-35.26,28.19,23.13-13.35c1.63-.94,3.71-.38,4.65,1.25.82,1.42.51,3.21-.73,4.28l-27.84,23.95,15.67-9.03c1.63-.95,3.71-.39,4.66,1.23.71,1.23.59,2.76-.3,3.86l-12.23,15.07c1.74-.72,3.73.1,4.45,1.83.66,1.57.05,3.39-1.42,4.25l-15.59,8.95c-.51.31-1.09.47-1.69.48h0Z"/>
    <path class="cls-13" d="m413.49,279c-1.88,0-3.41-1.53-3.41-3.41,0-1.22.65-2.34,1.7-2.95l23.58-13.63c1.59-1.01,3.69-.54,4.7,1.05s.54,3.69-1.05,4.7c-.08.05-.16.1-.25.14l-23.58,13.63c-.52.3-1.1.46-1.7.46Z"/>
    <path class="cls-13" d="m427.12,251.75c-1.88,0-3.41-1.53-3.41-3.41,0-1.22.65-2.34,1.7-2.95l23.58-13.63c1.59-1.01,3.69-.54,4.7,1.05s.54,3.69-1.05,4.7c-.08.05-.16.1-.25.14l-23.58,13.63c-.52.3-1.1.46-1.7.46Z"/>
    <path class="cls-13" d="m397.36,306.32c-1.88,0-3.41-1.52-3.41-3.4,0-.8.28-1.57.78-2.18l8.18-9.89-20.75,12c-1.63.94-3.71.39-4.65-1.24-.84-1.46-.49-3.31.82-4.36l20.1-16.12-20.36,11.75c-1.64.93-3.72.36-4.64-1.28-.82-1.45-.48-3.28.82-4.33l15.3-12.19-15.17,8.75c-1.62.95-3.71.4-4.66-1.22-.86-1.47-.5-3.35.84-4.4l35.45-28.09-36.79,21.24c-1.63.94-3.71.38-4.65-1.25-.87-1.5-.47-3.42.93-4.45l13.63-9.99-13.22,7.63c-1.66.89-3.72.27-4.61-1.39-.72-1.34-.46-3,.63-4.06l19.03-17.12-19.66,11.35c-1.63.94-3.71.39-4.65-1.24-.81-1.4-.52-3.18.69-4.26l5.95-5.27-5.17,2.98c-1.63.94-3.71.38-4.65-1.25-.65-1.12-.6-2.51.11-3.58l4.65-7.02-4.01,2.32c-1.62.95-3.71.41-4.66-1.22-.95-1.62-.41-3.71,1.22-4.66.01,0,.03-.02.04-.02l16.55-9.54c1.37-.81,3.11-.55,4.19.61,1.08,1.15,1.23,2.9.35,4.22l-4.65,7.02,21.8-12.57c1.64-.93,3.71-.36,4.65,1.28.79,1.39.51,3.14-.68,4.21l-5.93,5.26,18.63-10.78c1.66-.89,3.72-.27,4.61,1.39.72,1.34.46,3-.63,4.06l-19.08,17.13,39.23-22.58c1.64-.92,3.72-.35,4.64,1.29.84,1.49.44,3.38-.93,4.4l-13.63,9.99,23.16-13.36c1.62-.95,3.71-.41,4.66,1.21.87,1.48.51,3.37-.85,4.42l-35.48,28.07,14.24-8.22c1.64-.93,3.72-.36,4.64,1.28.82,1.45.48,3.28-.82,4.33l-15.31,12.21,19.57-11.3c1.64-.91,3.72-.32,4.63,1.32.8,1.43.46,3.23-.8,4.28l-20.82,16.62c1.83-.44,3.67.68,4.11,2.51.25,1.03,0,2.12-.66,2.94l-8.18,9.89,9.63-5.55c1.59-1.01,3.69-.54,4.7,1.05s.54,3.69-1.05,4.7c-.08.05-.16.1-.25.14l-26,14.99c-.51.33-1.1.51-1.71.52h0Z"/>
    <path class="cls-16" d="m167.49,217.53c-1.88,0-3.41-1.52-3.41-3.41,0-1.05.48-2.04,1.31-2.69l5.2-4.09-5.9,3.41c-1.63.94-3.71.39-4.66-1.24-.82-1.41-.52-3.19.7-4.27l14.44-12.72-14.99,8.65c-1.64.93-3.72.36-4.64-1.28-.83-1.46-.47-3.31.85-4.35l1.12-.87c-1.75.69-3.73-.16-4.42-1.91-.5-1.27-.2-2.71.77-3.67l14.93-14.87-13.5,7.82c-1.63.94-3.71.38-4.65-1.26-.72-1.26-.57-2.83.38-3.93l13.97-16-11.36,6.55c-1.62.95-3.71.41-4.66-1.21-.76-1.3-.58-2.95.45-4.05l7.63-8.25-3.86,2.23c-1.63.94-3.71.38-4.65-1.25-.66-1.15-.6-2.59.18-3.67l7.06-9.95-2.44,1.4c-1.63.94-3.71.39-4.66-1.24-.67-1.16-.6-2.6.18-3.69l2.4-3.35c-1.73-.75-2.52-2.76-1.77-4.48.29-.67.78-1.22,1.41-1.59l8.68-5.01c1.63-.94,3.71-.39,4.66,1.24.67,1.16.6,2.6-.18,3.69l-.46.65,2.3-1.36c1.63-.94,3.71-.38,4.65,1.25.66,1.15.6,2.59-.18,3.67l-7.07,9.99,9.8-5.65c1.63-.94,3.71-.37,4.65,1.26.74,1.29.56,2.91-.45,4l-7.64,8.26,9.63-5.55c1.63-.94,3.71-.38,4.65,1.26.72,1.26.57,2.83-.38,3.93l-13.96,15.99,18.39-10.6c1.64-.92,3.72-.34,4.64,1.3.75,1.33.52,2.99-.55,4.07l-14.95,14.88,19.14-11.05c1.63-.94,3.71-.39,4.65,1.24.85,1.47.49,3.35-.85,4.39l-.89.68,2.13-1.23c1.62-.95,3.71-.41,4.66,1.21.83,1.41.54,3.22-.7,4.3l-14.44,12.72,18.65-10.76c1.64-.93,3.72-.36,4.64,1.28.83,1.46.47,3.31-.85,4.35l-5.21,4.09,8.09-4.67c1.59-1.01,3.69-.54,4.7,1.05,1.01,1.59.54,3.69-1.05,4.7-.08.05-.16.1-.25.14l-50.38,29.09c-.52.3-1.11.45-1.7.44Z"/>
    <path class="cls-16" d="m332.73,215.43c-1.88,0-3.4-1.53-3.4-3.41,0-.83.3-1.62.85-2.24l4.09-4.67-8.36,4.82c-1.63.94-3.71.39-4.66-1.23-.8-1.38-.54-3.13.64-4.22l6.74-6.26-11.4,6.58c-1.64.92-3.72.34-4.64-1.29-.8-1.42-.48-3.21.76-4.27l8.5-7.09-13.18,7.6c-1.63.93-3.71.37-4.65-1.27-.81-1.42-.5-3.22.75-4.28l18.91-15.94-26,14.99c-1.63.94-3.71.37-4.65-1.26-.83-1.45-.49-3.28.8-4.33l26.38-21.47-12.7,7.32c-1.64.92-3.72.35-4.64-1.29-.84-1.48-.45-3.35.9-4.38l15.83-11.86c-.31-.2-.59-.46-.81-.76-1.04-1.34-.94-3.25.25-4.47l16.55-16.97c-.1-.12-.19-.25-.27-.39-.94-1.63-.38-3.71,1.25-4.65l9.44-5.45c1.63-.94,3.71-.38,4.65,1.25.76,1.32.55,2.99-.52,4.09l-8.97,9.2,12-6.93c1.64-.92,3.72-.35,4.64,1.29.84,1.48.45,3.35-.9,4.38l-3.47,2.6.12-.06c1.63-.93,3.71-.37,4.65,1.27.82,1.44.49,3.26-.79,4.32l-26.42,21.49,22.56-13c1.63-.93,3.71-.37,4.65,1.27.81,1.42.5,3.22-.75,4.28l-18.92,15.9,14.19-8.18c1.63-.94,3.71-.38,4.65,1.26.82,1.43.5,3.25-.77,4.31l-8.47,7.04,3.19-1.84c1.63-.94,3.71-.39,4.66,1.23.8,1.38.54,3.13-.64,4.22l-6.76,6.29.16-.08c1.63-.94,3.71-.39,4.66,1.24.73,1.27.58,2.86-.39,3.96l-6.39,7.27c1.79.57,2.79,2.48,2.22,4.28-.26.81-.8,1.49-1.54,1.92l-12.86,7.43c-.52.31-1.12.47-1.73.46h0Z"/>
    <path class="cls-1" d="m383.3,510.67c-1.88,0-3.4-1.53-3.4-3.41,0-.8.28-1.58.8-2.19l10.06-12-19.99,11.53c-1.63.94-3.71.38-4.65-1.25-.74-1.28-.57-2.88.42-3.98l14.04-15.67-20.91,12.07c-1.63.93-3.71.36-4.65-1.27-.76-1.34-.53-3.02.56-4.1l12.63-12.07-17.71,10.22c-1.65.91-3.72.31-4.63-1.34-.8-1.45-.44-3.26.85-4.3l.23-.18-2.18,1.26c-1.63.94-3.71.38-4.65-1.25-.83-1.44-.5-3.26.78-4.32l9.01-7.45-.32.18c-1.64.92-3.72.34-4.64-1.3-.75-1.33-.52-2.99.55-4.07l11.89-11.77c-1.75.7-3.73-.15-4.43-1.89-.46-1.16-.26-2.47.53-3.43l9.01-10.99c-1.73-.74-2.53-2.75-1.78-4.47.05-.12.11-.23.17-.34l5.79-10.14c-.46-1.52.18-3.15,1.55-3.94l1.85-1.06c1.33-.76,3-.54,4.09.53,1.09,1.08,1.32,2.75.57,4.09l-1.7,2.96c1.7-.8,3.73-.07,4.53,1.63.56,1.19.39,2.59-.45,3.61l-6.55,7.98,6.13-3.54c1.64-.92,3.72-.34,4.64,1.3.75,1.33.52,2.99-.55,4.07l-11.77,11.66,12.47-7.19c1.64-.93,3.72-.35,4.64,1.29.81,1.42.48,3.22-.77,4.28l-9.01,7.46,9.39-5.42c1.64-.91,3.72-.32,4.63,1.33.8,1.45.45,3.26-.84,4.3l-.25.2h.05c1.6-.98,3.7-.48,4.68,1.13.85,1.39.6,3.18-.6,4.28l-12.64,12.04,14.82-8.56c1.63-.94,3.71-.38,4.65,1.25.74,1.28.57,2.88-.42,3.98l-14.04,15.67,18.23-10.53c1.63-.94,3.71-.38,4.65,1.25.71,1.24.58,2.79-.34,3.88l-10.06,12,14.24-8.22c1.63-.94,3.71-.38,4.65,1.26.72,1.26.57,2.83-.38,3.93l-2.17,2.49,3.84-2.21c1.63-.94,3.71-.37,4.65,1.26.61,1.06.6,2.37-.02,3.42l-.76,1.29c1.78-.6,3.71.36,4.31,2.14.52,1.53-.12,3.22-1.51,4.03l-10.6,6.13c-1.63.93-3.71.36-4.65-1.27-.6-1.06-.59-2.36.02-3.41l.68-1.19-10.22,5.88c-1.63.93-3.71.36-4.65-1.27-.71-1.25-.56-2.81.37-3.9l2.16-2.49-13.33,7.69c-.5.29-1.06.45-1.64.46h0Z"/>
    <path class="cls-10" d="m262.33,510.5c-1.88,0-3.41-1.53-3.4-3.41,0-1.12.55-2.17,1.48-2.8l31.97-21.94-47.88,27.65c-1.63.95-3.71.4-4.66-1.23-.9-1.54-.45-3.51,1.01-4.52l60.77-42.14-80.16,46.27c-1.62.95-3.71.41-4.66-1.22-.93-1.58-.43-3.62,1.12-4.6l34.96-22.48-43.14,24.9c-1.62.95-3.71.41-4.66-1.22-.93-1.58-.43-3.62,1.12-4.6l43.6-27.93-49.51,28.57c-1.64.92-3.72.33-4.64-1.31-.86-1.54-.4-3.49,1.06-4.48l84.48-55.71-94.05,54.3c-1.64.92-3.72.33-4.64-1.31-.87-1.55-.4-3.5,1.08-4.49l84.33-54.68-93.14,53.78c-1.62.97-3.71.44-4.67-1.18s-.44-3.71,1.18-4.67l12-7.41-15.95,9.2c-1.66.89-3.72.26-4.61-1.4-.82-1.54-.35-3.45,1.09-4.43l65.4-41.17-71.93,41.56c-1.64.92-3.72.33-4.64-1.31-.87-1.56-.39-3.52,1.1-4.51l92.53-58.83-95.27,54.96c-1.65.9-3.72.28-4.62-1.37-.85-1.56-.35-3.5,1.13-4.47l17.76-10.9-16.81,9.68c-1.65.91-3.72.31-4.63-1.34-.85-1.55-.37-3.5,1.1-4.48l92.14-58.27-92.16,53.23c-1.64.92-3.72.33-4.64-1.31-.88-1.57-.39-3.55,1.12-4.52l83.44-52.46-83.01,47.93c-1.65.9-3.72.28-4.62-1.37-.84-1.54-.36-3.47,1.09-4.45l98.43-62.4-97.99,56.58c-1.65.9-3.72.28-4.62-1.37-.84-1.55-.36-3.48,1.11-4.46l72.21-45.12-71.07,41.03c-1.65.9-3.72.28-4.62-1.37-.84-1.55-.36-3.48,1.11-4.46l77.75-48.72-76.46,44.13c-1.61.97-3.7.46-4.68-1.15s-.46-3.7,1.15-4.68l86.93-54.82-85.54,49.38c-1.66.88-3.72.24-4.6-1.42-.81-1.54-.34-3.43,1.1-4.41l66.76-41.73-64.91,37.47c-1.65.9-3.72.28-4.62-1.37-.84-1.55-.36-3.48,1.11-4.46l69.05-43.27-66.97,38.66c-1.63.93-3.71.36-4.65-1.28-.89-1.56-.41-3.55,1.1-4.54l109.53-70.85-107.52,62.06c-1.63.93-3.71.36-4.65-1.28-.89-1.56-.41-3.55,1.1-4.54l94.89-60.98-92.34,53.32c-1.62.95-3.71.41-4.66-1.22-.93-1.58-.43-3.62,1.12-4.6l88.87-57.23-85.79,49.55c-1.65.9-3.72.28-4.62-1.37-.83-1.53-.37-3.45,1.07-4.44l81.44-52.52-77.81,44.92c-1.65.91-3.72.31-4.63-1.34-.85-1.55-.38-3.48,1.08-4.47l63.41-40.62-58.84,33.97c-1.66.89-3.72.27-4.61-1.38-.82-1.52-.37-3.41,1.04-4.4l79.03-52.21-72.64,41.93c-1.63.93-3.71.36-4.65-1.27-.88-1.54-.43-3.5,1.04-4.5l74.09-50.07-65.07,37.56c-1.65.9-3.72.29-4.62-1.36-.83-1.52-.39-3.42,1.03-4.42l44.34-29.53-33.99,19.61c-1.64.93-3.71.36-4.64-1.28-.85-1.5-.45-3.4.94-4.43l47.9-34.85-29.24,16.88c-1.64.92-3.72.35-4.64-1.29-.84-1.48-.45-3.35.9-4.38l21.66-16.17c-.55-.3-1-.74-1.31-1.28-.94-1.63-.38-3.71,1.25-4.65l35.61-20.57c1.64-.92,3.72-.35,4.64,1.29.84,1.48.45,3.35-.9,4.38l-10.52,7.85,35.07-20.25c1.64-.91,3.72-.32,4.63,1.32.83,1.49.43,3.36-.93,4.38l-47.91,34.86,70.24-40.54c1.64-.93,3.71-.36,4.64,1.28.88,1.55.42,3.51-1.05,4.51l-44.32,29.52,56.33-32.52c1.63-.93,3.71-.36,4.65,1.27.88,1.54.43,3.5-1.04,4.5l-74.07,50.05,87.12-50.29c1.65-.91,3.72-.31,4.63,1.34.85,1.53.39,3.45-1.04,4.45l-79.03,52.2,88.98-51.39c1.64-.92,3.72-.33,4.64,1.31.87,1.56.39,3.52-1.1,4.51l-63.45,40.67,69.78-40.28c1.66-.88,3.72-.25,4.6,1.42.81,1.52.35,3.4-1.06,4.39l-81.39,52.46,87.73-50.64c1.65-.91,3.72-.31,4.63,1.34.85,1.55.38,3.48-1.08,4.47l-88.89,57.23,94.46-54.5c1.65-.91,3.72-.31,4.63,1.34.85,1.55.38,3.48-1.08,4.47l-94.86,60.95,99.62-57.51c1.63-.93,3.71-.36,4.65,1.28.89,1.56.41,3.55-1.1,4.54l-109.52,70.9,113.97-65.8c1.64-.92,3.72-.33,4.64,1.31.88,1.57.39,3.55-1.12,4.52l-69.04,43.26,70.69-40.81c1.65-.9,3.72-.28,4.62,1.37.84,1.55.36,3.48-1.11,4.46l-66.86,41.78,67.81-39.15c1.66-.89,3.72-.26,4.61,1.4.82,1.54.35,3.45-1.09,4.43l-86.87,54.75,87.77-50.67c1.64-.92,3.72-.33,4.64,1.31.88,1.57.39,3.55-1.12,4.52l-77.78,48.76,77.83-44.96c1.65-.9,3.72-.28,4.62,1.37.84,1.55.36,3.48-1.11,4.46l-72.18,45.1,71.44-41.18c1.66-.88,3.72-.24,4.6,1.42.81,1.53.34,3.42-1.08,4.4l-98.46,62.38,97.47-56.27c1.65-.9,3.72-.28,4.62,1.37.84,1.55.36,3.48-1.11,4.46l-83.42,52.41,81.42-47.01c1.63-.93,3.71-.37,4.65,1.27.9,1.57.41,3.58-1.12,4.56l-92.19,58.32,89.36-51.58c1.65-.9,3.72-.28,4.62,1.37.85,1.56.35,3.5-1.13,4.47l-17.71,10.9,14.19-8.18c1.64-.92,3.72-.33,4.64,1.31.87,1.56.39,3.52-1.1,4.51l-92.49,58.78,88.52-51.09c1.66-.89,3.72-.26,4.61,1.4.82,1.54.35,3.45-1.09,4.43l-65.5,41.22,61.2-35.35c1.64-.92,3.72-.34,4.64,1.3.89,1.58.39,3.58-1.14,4.55l-11.83,7.34,7.49-4.33c1.6-.98,3.7-.48,4.69,1.12s.48,3.7-1.12,4.69h0l-84.35,54.66,78.98-45.59c1.64-.92,3.72-.33,4.64,1.31.86,1.54.4,3.49-1.06,4.48l-84.48,55.7,78.3-45.19c1.66-.89,3.72-.26,4.61,1.4.82,1.53.36,3.43-1.07,4.42l-43.52,27.88,37.65-21.74c1.61-.98,3.7-.47,4.68,1.13s.47,3.7-1.13,4.68l-34.97,22.54,28.86-16.67c1.63-.95,3.71-.4,4.66,1.23.9,1.54.45,3.51-1.01,4.52l-60.76,42.14,52.59-30.36c1.65-.91,3.72-.31,4.63,1.34.83,1.51.4,3.4-1,4.41l-31.99,21.94,24.18-13.96c1.63-.93,3.71-.36,4.65,1.27.88,1.54.43,3.5-1.04,4.5l-6.72,4.56c1.57-.63,3.38-.01,4.22,1.46.94,1.63.38,3.71-1.25,4.65l-80.39,46.43c-1.62.96-3.71.42-4.67-1.19-.92-1.56-.46-3.57,1.05-4.58l6.37-4.32-18.91,10.9c-.53.31-1.14.48-1.75.47h0Z"/>
    <path class="cls-17" d="m249.83,510.6c-1.88,0-3.41-1.51-3.42-3.39,0-1.13.55-2.18,1.48-2.82l.28-.19-9.64,5.57c-1.63.94-3.71.37-4.65-1.26-.87-1.51-.46-3.43.95-4.45l28.1-20.35-42.54,24.53c-1.63.93-3.71.36-4.65-1.27-.88-1.54-.43-3.5,1.04-4.5l18.53-12.54-25.83,14.91c-1.62.96-3.71.42-4.67-1.19-.93-1.56-.46-3.57,1.05-4.58l26.93-18.2-32.74,18.88c-1.64.92-3.72.34-4.64-1.31-.86-1.54-.41-3.47,1.04-4.47l25.48-17.03-31,17.9c-1.64.92-3.72.33-4.64-1.31-.87-1.55-.4-3.5,1.08-4.49l7.38-4.77-7.49,4.33c-1.63.94-3.71.37-4.65-1.26-.88-1.53-.44-3.47,1-4.48l47.59-33.32-43.95,25.4c-1.64.92-3.72.34-4.64-1.3-.86-1.53-.42-3.46,1.02-4.46l29.19-19.85-24.93,14.39c-1.64.93-3.71.36-4.64-1.28-.85-1.49-.46-3.37.91-4.4l45.3-33.58-38.27,22.09c-1.64.92-3.72.33-4.64-1.31-.81-1.44-.46-3.26.82-4.31l36.5-28.87-24.68,14.25c-1.63.93-3.71.37-4.65-1.27-.8-1.4-.51-3.18.7-4.25l18.21-15.93c-1.86-.3-3.12-2.06-2.81-3.91.16-1.01.77-1.89,1.65-2.4l24.92-14.42c1.63-.93,3.71-.37,4.65,1.27.8,1.4.51,3.18-.7,4.25l-15.24,13.34,34.85-20.12c1.63-.93,3.71-.36,4.65,1.27.83,1.45.48,3.29-.82,4.34l-36.52,28.92,49.57-28.61c1.64-.92,3.72-.32,4.63,1.32.82,1.48.44,3.34-.91,4.36l-45.3,33.58,53.5-30.88c1.65-.9,3.72-.29,4.62,1.37.82,1.51.39,3.39-1,4.39l-29.19,19.85,32.43-18.72c1.62-.96,3.71-.43,4.67,1.19.92,1.55.48,3.54-1.01,4.55l-47.58,33.21,51.09-29.48c1.65-.91,3.72-.31,4.63,1.34.85,1.54.39,3.47-1.06,4.46l-7.49,4.85,7.62-4.39c1.65-.89,3.72-.28,4.62,1.38.82,1.51.38,3.4-1.02,4.39l-25.45,17.03,25.72-14.85c1.65-.9,3.72-.3,4.62,1.35.83,1.52.4,3.41-1.01,4.41l-26.92,18.26,26.52-15.31c1.62-.96,3.71-.42,4.67,1.19.92,1.56.46,3.57-1.05,4.58l-18.52,12.54,17.24-9.95c1.63-.94,3.71-.37,4.65,1.26.87,1.51.46,3.43-.95,4.45l-28.1,20.36,26.33-15.2c1.62-.96,3.71-.42,4.67,1.19.92,1.55.47,3.56-1.03,4.56l-1.95,1.36c1.83-.42,3.66.72,4.09,2.55.29,1.26-.15,2.57-1.14,3.39l-18.71,15.74,15.05-8.69c1.63-.93,3.71-.36,4.65,1.27.79,1.39.51,3.15-.69,4.22l-4.14,3.64.22-.12c1.67-.87,3.73-.23,4.6,1.44.82,1.57.3,3.5-1.19,4.45l-29.69,17.15c-1.63.94-3.71.39-4.66-1.24-.82-1.41-.52-3.19.7-4.27l4.15-3.66-19.03,10.94c-1.63.95-3.71.39-4.66-1.23-.83-1.43-.51-3.25.75-4.32l18.73-15.76-37.82,21.8c-.51.31-1.09.48-1.68.5h0Z"/>
    <path class="cls-11" d="m225.31,353.93c-1.88.01-3.42-1.5-3.43-3.38,0-.76.24-1.5.71-2.1l10.38-13.48-16.58,9.57c-1.63.93-3.71.37-4.65-1.27-.7-1.23-.57-2.76.33-3.86l4.85-5.85-2.46,1.42c-1.63.94-3.71.39-4.65-1.24-.53-.91-.6-2.01-.21-2.98l2.83-7.02c-.38-.28-.69-.64-.93-1.04-.94-1.63-.39-3.71,1.24-4.66,0,0,0,0,0,0l3.6-2.04c1.26-.72,2.84-.57,3.94.39,1.09.95,1.46,2.5.92,3.84l-1.59,3.95,10.37-5.98c1.63-.93,3.71-.37,4.65,1.27.7,1.23.57,2.76-.33,3.86l-4.84,5.84,14.99-8.64c1.63-.93,3.71-.37,4.65,1.27.68,1.19.58,2.67-.25,3.76l-10.9,14.14c1.32-.1,2.58.55,3.25,1.69.94,1.63.38,3.71-1.25,4.65l-12.94,7.49c-.52.28-1.1.42-1.68.4h0Z"/>
    <path class="cls-11" d="m272.88,350.74c-1.04,0-2.02-.48-2.66-1.29-1.05-1.32-.98-3.21.18-4.45l4.91-5.24-6.74,3.89c-1.63.94-3.71.39-4.66-1.23-.8-1.38-.54-3.13.64-4.22l1.8-1.68-1.08.63c-1.14.66-2.57.6-3.65-.16-1.1-.76-1.65-2.09-1.41-3.41l.83-4.77c-1.19-.09-2.28-.72-2.96-1.7-.94-1.63-.38-3.7,1.24-4.65l4.51-2.61c1.63-.94,3.71-.38,4.65,1.25.4.69.54,1.49.41,2.28l-.73,4.23,21.04-12.15c1.63-.94,3.71-.39,4.66,1.23.8,1.38.54,3.13-.64,4.22l-1.8,1.67.37-.21c1.63-.94,3.71-.37,4.65,1.26.74,1.29.55,2.92-.46,4.01l-4.93,5.26,1.01-.58c1.67-.87,3.73-.23,4.6,1.44.82,1.57.3,3.5-1.19,4.45l-20.89,12.06c-.52.3-1.1.46-1.7.46h0Z"/>
    <path class="cls-11" d="m205.21,284.77c-1.88,0-3.4-1.53-3.4-3.41,0-1.01.45-1.96,1.22-2.61l2.97-2.47-7.24,4.18c-1.64.92-3.72.34-4.64-1.3-.75-1.33-.52-2.99.55-4.07l19.13-19.02-23.95,13.84c-1.63.94-3.71.38-4.65-1.25-.84-1.47-.48-3.33.84-4.38l3.68-2.88-2.15,1.23c-1.63.94-3.71.39-4.65-1.24-.84-1.46-.49-3.31.82-4.36l2.66-2.12c-1.25.22-2.52-.27-3.3-1.26-1.05-1.34-.94-3.25.25-4.47l7.56-7.79c-1.82-.47-2.92-2.32-2.46-4.14.23-.89.8-1.64,1.59-2.1l16.19-9.34c1.63-.94,3.71-.38,4.65,1.25.76,1.32.55,2.98-.5,4.07l-5.08,5.23,15.67-9.03c1.63-.94,3.71-.39,4.65,1.24.84,1.46.49,3.31-.82,4.36l-1.64,1.31,4.77-2.73c1.64-.93,3.72-.35,4.64,1.29.82,1.46.47,3.29-.84,4.34l-3.67,2.88,5.05-2.92c1.64-.91,3.72-.32,4.63,1.32.73,1.32.51,2.96-.54,4.04l-19.16,19.01,19.69-11.38c1.63-.94,3.71-.38,4.65,1.25.83,1.44.5,3.26-.78,4.32l-3.65,3.02c1.83-.43,3.66.71,4.09,2.55.34,1.46-.31,2.96-1.6,3.71l-33.52,19.35c-.52.3-1.11.46-1.71.46h0Z"/>
    <path class="cls-11" d="m298.89,285.37c-1.88,0-3.41-1.53-3.41-3.41,0-.91.37-1.79,1.02-2.43l2.65-2.59-11.98,6.91c-1.63.94-3.71.38-4.65-1.25-.76-1.32-.55-2.98.5-4.07l17.09-17.64-25.1,14.48c-1.63.93-3.71.36-4.65-1.27-.84-1.47-.47-3.33.86-4.37l2.73-2.04-2.67,1.53c-1.63.94-3.71.39-4.66-1.23-.8-1.38-.54-3.13.64-4.22l15.23-14.1-13.5,7.73c-1.63.94-3.71.38-4.65-1.26-.72-1.26-.57-2.83.38-3.93l9.42-10.81c-1.86.31-3.61-.95-3.92-2.81-.23-1.4.43-2.79,1.65-3.5l16.13-9.31c1.63-.94,3.71-.38,4.65,1.26.72,1.26.57,2.83-.38,3.93l-9,10.33,22.03-12.72c1.63-.94,3.71-.39,4.66,1.23.8,1.38.54,3.13-.64,4.22l-15.22,14.1,20.25-11.68c1.63-.93,3.71-.36,4.65,1.27.84,1.47.47,3.33-.86,4.37l-2.66,2.04,2.32-1.36c1.63-.94,3.71-.38,4.65,1.25.76,1.32.55,2.98-.5,4.07l-17.09,17.65,14.22-8.18c1.63-.94,3.71-.38,4.65,1.25.78,1.35.54,3.05-.56,4.13l-6.7,6.57c.65.29,1.19.78,1.54,1.4.94,1.63.39,3.71-1.24,4.65l-16.17,9.34c-.52.3-1.11.46-1.71.46h0Z"/>
    <path class="cls-6" d="m159.99,524.26c-1.88,0-3.41-1.52-3.41-3.4,0-1.05.48-2.04,1.3-2.68l10.12-7.96-23.33,13.48c-1.64.92-3.72.33-4.64-1.31-.83-1.48-.44-3.36.92-4.38l6.05-4.46-10.57,6.13c-1.64.93-3.71.36-4.64-1.28-.85-1.5-.45-3.4.94-4.43l6.75-4.92-6.56,3.79c-1.64.93-3.72.35-4.64-1.29-.82-1.46-.47-3.29.84-4.34l14.99-11.75-11.42,6.52c-1.64.92-3.72.34-4.64-1.3-.75-1.33-.52-2.99.55-4.07l16.67-16.43c-.69-.29-1.27-.79-1.64-1.44-.94-1.63-.39-3.71,1.24-4.65l16.22-9.37c1.63-.93,3.71-.36,4.65,1.27.76,1.34.53,3.02-.56,4.1l-12.91,12.73,29.9-17.26c1.63-.94,3.71-.39,4.65,1.24.85,1.47.49,3.35-.85,4.39l-14.99,11.74,20.92-12.08c1.64-.93,3.71-.36,4.65,1.28.85,1.5.45,3.4-.94,4.43l-6.81,4.95,7.99-4.61c1.64-.92,3.72-.33,4.64,1.31.83,1.48.44,3.36-.92,4.38l-5.95,4.41,11.15-6.42c1.64-.92,3.72-.34,4.64,1.3.82,1.45.46,3.28-.83,4.32l-10.14,7.98,10.85-6.25c1.64-.92,3.72-.33,4.63,1.31.78,1.4.48,3.16-.72,4.22l-6.89,5.89,3.34-1.93c1.64-.92,3.72-.35,4.64,1.29.61,1.09.58,2.42-.08,3.48l-5.71,8.86c1.82-.49,3.68.59,4.17,2.41.4,1.48-.25,3.05-1.58,3.82l-11.3,6.52c-1.36.79-3.08.54-4.17-.6-1.07-1.13-1.24-2.85-.4-4.17l5.58-8.61-23.23,13.38c-1.64.92-3.72.33-4.63-1.31-.78-1.4-.48-3.16.72-4.22l6.9-5.9-19.81,11.43c-.51.31-1.1.47-1.7.48h0Z"/>
    <path class="cls-6" d="m309,524.26c-1.88.02-3.42-1.48-3.45-3.36-.01-1.09.49-2.11,1.36-2.77l13.02-10.01-20,11.54c-1.64.93-3.72.36-4.64-1.28-.83-1.46-.47-3.31.85-4.35l17.68-13.73-17.63,10.18c-1.64.92-3.72.35-4.64-1.29-.79-1.4-.49-3.16.71-4.23l19.61-17-15.67,9.05c-1.63.94-3.71.38-4.65-1.25-.83-1.44-.5-3.26.78-4.32l14.99-12.41c-.05-.09-.11-.17-.16-.26-.94-1.63-.39-3.71,1.24-4.65l16.22-9.37c1.62-.95,3.71-.41,4.66,1.21.85,1.45.52,3.3-.78,4.36l-.76.63,11.58-6.69c1.62-.95,3.71-.4,4.66,1.22.83,1.42.53,3.23-.72,4.3l-19.59,16.98,29.98-17.3c1.64-.93,3.72-.36,4.64,1.28.83,1.46.47,3.31-.85,4.35l-17.71,13.73,20.64-11.92c1.63-.93,3.71-.36,4.65,1.27.84,1.47.47,3.33-.86,4.37l-13.04,10.08,19.19-11.08c1.64-.92,3.72-.34,4.64,1.3.75,1.33.52,2.99-.55,4.07l-17.99,17.79,17.71-10.22c1.63-.93,3.71-.36,4.65,1.27.72,1.27.56,2.86-.42,3.95l-6.66,7.38,2.32-1.36c1.59-1.01,3.69-.54,4.7,1.05,1.01,1.59.54,3.69-1.05,4.7-.08.05-.16.1-.25.14l-21,12.16c-1.63.93-3.71.36-4.65-1.27-.72-1.27-.56-2.86.42-3.95l6.66-7.38-21.85,12.61c-1.64.92-3.72.34-4.64-1.3-.75-1.33-.52-2.99.55-4.07l17.99-17.79-40.19,23.2c-.52.3-1.11.45-1.7.44h0Z"/>
    <path class="cls-12" d="m221.83,278.28c-1.88,0-3.41-1.53-3.4-3.41,0-.82.29-1.61.83-2.23l3.06-3.54-5.71,3.28c-1.32.77-2.99.57-4.09-.5-1.09-1.06-1.36-2.71-.64-4.05l5.45-10.22-.97.56c-1.67.87-3.73.23-4.6-1.44-.82-1.57-.3-3.5,1.19-4.45l11.3-6.52c1.63-.94,3.71-.38,4.65,1.25.59,1.02.61,2.26.06,3.3l-5.45,10.22,12.9-7.44c1.63-.94,3.71-.38,4.65,1.25.72,1.25.57,2.83-.37,3.93l-3.63,4.2c1.33-.12,2.62.53,3.31,1.68.94,1.63.38,3.71-1.25,4.65l-15.57,9.03c-.52.3-1.11.45-1.7.44h0Z"/>
    <path class="cls-12" d="m275.95,278.13c-1.88,0-3.41-1.52-3.41-3.4,0-.7.21-1.38.61-1.95l6.13-8.72-8.18,4.77c-1.64.92-3.72.35-4.64-1.29-.61-1.09-.58-2.42.08-3.48l3.54-5.5c-1.51.45-3.12-.2-3.89-1.57-.94-1.63-.38-3.71,1.25-4.65h0s11.3-6.52,11.3-6.52c1.64-.92,3.72-.35,4.64,1.29.61,1.09.58,2.42-.08,3.48l-3.41,5.3,9.28-5.35c1.63-.94,3.71-.38,4.65,1.25.66,1.14.6,2.57-.16,3.65l-6.08,8.71,4.65-2.68c1.59-1.01,3.69-.54,4.7,1.05s.54,3.69-1.05,4.7c-.08.05-.16.1-.25.14l-17.93,10.36c-.54.3-1.15.45-1.77.44h0Z"/>
    <g>
      <path class="cls-3" d="m232.02,277.91c1.05-.38,1.92-1.13,2.46-2.11,37.93-43.51-49.31-75.98-53.23-20.2-.23,29.29,32.58,36.14,50.77,22.3h0Zm-2.52-6.24c-25.36.78-9.54-34.91,5.72-12.33-.83,4.53-2.8,8.78-5.72,12.33Zm-18.7-40.15c10.09-.53,19.36,5.56,22.88,15.03-21.16-8.54-35.75,23.74-13.41,31.72-32.81,9.74-44.09-43.21-9.47-46.75Z"/>
      <path class="cls-3" d="m263.72,256.85c2.87,40.88,60.38,37.51,61.1-2.49-1.75-41.72-60.83-37.94-61.1,2.49Zm13.72,14.26c-3.25-3.5-5.49-7.81-6.47-12.48,14.44-19.82,33.8,14.25,6.47,12.48Zm40.61-14.74c-.35,12.69-10.93,22.69-23.62,22.34-2.16-.06-4.3-.42-6.36-1.08,19.76-11.04,3.97-43.14-16.3-29.98,8.03-23.02,46.75-18.66,46.27,8.72h0Z"/>
      <path class="cls-3" d="m437.23,217.27c-27.86,2.59-59.82-7.11-84.58,8.38-2.99-3.66-6.13-7.2-9.43-10.53,13.47-19.41,22.1-64.95,13.05-87.2-7.73-12.11-17.45-3.13-23.53,4.65-13.13,18.12-28.42,34.57-45.52,49-21.91-6.38-45.19-6.3-67.06.24-16.42-13.84-31.11-29.61-43.74-46.97-5.97-7.72-14.4-17.89-24.39-8.6-13.18,16.02-1.73,74.94,11.87,89.93-3.15,3.2-6.13,6.57-8.97,10.05-24.91-15.12-56.96-5.76-84.86-8.24-23.03,1.93-24.53,33.7.22,33.87-11.05,11.07-.95,28.24,14.14,27.28-18.2,27.15,17.03,30.17,37.03,27.25-7.17,54.73,8.18,115.21,26.16,164.26-6.13,6.24-15.37,8.55-18.8,17.18-2.53,8.57-2.55,17.69-.05,26.27,6.81,18.2,42.55,10.98,56.95,10.98,12.32,1.23,28.34-.72,29.68-15.99,25.13,3.15,50.56,3.15,75.69,0,.57,15.35,17.28,17.3,29.5,15.81,17.52-1.71,51.93,7.45,57.1-14.39h30.23c6.35,0,14.99,1.21,18.63-5.51,5.45-10.14-11.51-19.99-17.03-26.21-15.46-17.83-27.12-38.63-34.27-61.12,10.25-35.9,13.83-73.38,10.57-110.57,9.72.53,19.46.27,29.13-.79,8.95-2.88,13.87-12.48,10.99-21.43-.6-1.85-1.51-3.59-2.69-5.14,9.52-.07,17.19-7.84,17.12-17.36-.03-3.55-1.14-7-3.2-9.89,22.62-.52,21.74-33.69.09-35.21h0Zm-115.85-58.65c42.01-72.27,36.43,27.17,16.58,51.58-12.29-11.22-26.61-19.99-42.18-25.83,9.27-7.82,17.83-16.44,25.6-25.75Zm-161.83-25.89c7.73-2.3,18.09,16.98,23.16,23.16,8.58,10.52,18.16,20.19,28.61,28.86-15.35,5.95-29.46,14.71-41.6,25.83-10.74-10.92-22.77-69.69-10.17-77.86Zm-53.29,167.01c-2.7.15-5.4.15-8.1,0-11.74-1.31-16.42-19.35-2.04-20.64,4.2.12,6.63-6.97,1.2-6.61-4.48.25-8.97.25-13.45,0-11.87-1.36-14.71-19.86-1.36-20.61,2.4-.04,4.31-2.02,4.27-4.42,0-.05,0-.09,0-.14-2.16-4.63-12.02-.51-16.51-2.08-11.89-1.36-14.72-19.87-1.36-20.6,26.73,2.67,57.56-7.26,81.25,7.85-3.08,4.16-5.95,8.48-8.58,12.94h-30.84c-4.67,0-6.13,6.25-.75,6.25h28.16c-3.49,6.55-6.42,13.39-8.75,20.44-8.75-2.1-13.79,8.86-2.36,7.44-1.96,6.64-3.52,13.4-4.68,20.23l-16.09-.05Zm92.65,217.28c-17.03-2.11-62.83,9.46-65.03-14.07-1.56-10.51,4.37-12.26,12.02-19.5,10.5-9.95,18.46-15.73,34.36-11.89,6.13,1.47,27.69,17.27,29.15,23.47.14,8.92,2.04,18.39-10.5,22Zm16.87-16.1c.55-10.37-1.61-18.58-10.99-23.73-4.81-4.08-9.93-7.79-15.31-11.08,8.6-104.72,121.47-102.31,127.9,1.36-12.36,8.39-28.48,15.83-26.65,33.52-24.88,3.12-50.05,3.1-74.92-.07h-.03Zm147.1,16.3c-15.35.28-31.11-.18-46.59,0-8.48,1.02-16.47-4.18-18.99-12.34.01-.84-.18-1.68-.57-2.43-.78-7.72,5.74-13.63,10.63-18.46,4-4.81,8.92-8.77,14.48-11.64,13.08-4.85,30.45-1.74,37.79,10.77.45.92,1.55,1.32,2.48.9,11.27.61,11.25,13.43,10.53,21.8-.41.63-.52,1.41-.31,2.13-1,4.7-4.71,8.36-9.44,9.28h-.03Zm26.15-52.54c7.2,10.74,18.39,19.01,25.29,29.49,8.63,13.11-5.17,10.22-14.74,10.22h-20.78c2.18-11.21-.14-26.67-14.16-27.81-1.59-2.56-3.59-4.83-5.93-6.72,4.54-12.32,8.9-25.36,12.81-38.83,4.62,11.82,10.49,23.1,17.53,33.65h-.03Zm-19.99-48.71c-1.6.74-2.3,2.63-1.56,4.23.09.19.19.37.32.54-4.26,15.9-9.27,31.28-14.55,45.73-8.76-4.08-18.68-4.9-27.99-2.32-9.96-108.32-133.36-109.3-143.75-.72-9.19-2.08-18.82-1.01-27.34,3.02-18.01-49.23-33.14-108.79-25.75-162.35.5-.79.65-1.76.4-2.66,43.05-203.46,311.81-127.84,240.26,114.53h-.03Zm67.44-171.46c-4.77,1.48-15.67-3.47-15.85,3.89.08,2.04,1.23,4.16,3.22,4.16,5.29-.18,9.82,3.77,10.35,9.03-.82,12.13-15.54,10.31-24.23,10.16-2.19-.19-3.09,1.75-2.96,3.78s1.19,4.27,3.21,4.27c14.16,1.27,11.47,18.11-1.12,19.2-8.13.18-16.3-.1-24.44,0-1.02-6.58-2.42-13.1-4.2-19.52,4.22,1.31,8.86-6.25,3.45-7.4h-5.8c-2.18-7.01-5-13.81-8.43-20.3h25.94c4.22,0,7.04-6.5,1.69-6.5h-31.11c-2.65-4.62-5.55-9.08-8.69-13.38,23.84-12.86,53.71-4.24,79.97-6.6,14.65.84,12.72,18.62-1,19.2h0Z"/>
      <path class="cls-3" d="m169.12,326.08c8.43,11.96,27.07,37.84,17.86,53.66-5.06,7.86-15.54,10.13-23.4,5.07-1.16-.75-2.23-1.63-3.17-2.64-4.4-6.55-6.56-14.35-6.17-22.23-.12-5.37-6.24-3.2-6.13,1.41.22,10.18,2.24,22.76,10.61,29.49,7.83,6.17,18.82,6.34,26.84.42,23.04-17.24.14-53.96-11.43-70.36-2.92-4.17-7.32,1.91-5.02,5.18h0Z"/>
      <path class="cls-3" d="m352.1,361.64c-.5,49.68-64,24.39-14.52-36.28,2.92-4.14-1.92-7.91-4.88-3.72-11.24,15.95-37.26,57.32-9.37,71.35,22.89,11.52,35.34-14.87,35.73-33.31.1-5.1-6.88-1.99-6.96,1.96Z"/>
      <path class="cls-3" d="m304.69,307.73c-3.28,2.9-7,5.26-11.02,7-1.36-.9-3.34.2-4.5,1.91-8.23,2.86-16.8,4.64-25.49,5.29-.82-3.58-4.63-2.21-6.08.37-2.73.1-5.45.12-8.18.06-.44-3.26-4.46-3.6-5.78-.26-8.66-.51-17.22-2.14-25.45-4.86-.5-2.45-3.09-3.88-4.86-1.96-4.11-1.72-7.91-4.1-11.25-7.06-2.84-2.66-10.14-.18-6.44,3.27,4.54,4.03,9.84,7.12,15.59,9.09-9.8,43.06,30.31,45.68,37.63,5.87,2.8.1,5.54.12,8.54.12,6.76,39.8,47.07,36.22,38.71-5.77,5.52-1.93,10.62-4.92,14.99-8.81,3.44-3.22-3.6-6.9-6.42-4.26h0Zm-77.57,38.83c-12.06,1.89-12.17-15.22-9.95-24.07,8.34,2.14,16.89,3.39,25.5,3.73-2,8.35-6.47,18.9-15.55,20.33h0Zm52.59,0c-8.52-2.27-12.86-11.85-14.99-20.14,8.27-.26,16.49-1.39,24.53-3.37,2.22,8.66,2.71,26.76-9.54,23.49v.02Z"/>
    </g>
  </g>
  <g id="Capa_3" data-name="Capa 3">
    <g id="Capa_1-2" data-name="Capa 1">
      <g>
        <g>
          <g>
            <path class="cls-5" d="m311.27,20.77s-1.83,1.17-4.61,3.6c-2.79,2.43-6.49,6.19-10.19,11.56-3.7,5.32-7.35,12.12-10.19,20.48-2.84,8.31-4.77,18.15-5.48,29.56-.66,11.41,0,23.83,1.01,36,1.01,12.17,2.33,24.08,3.45,34.53,1.12,10.39,1.98,19.52,2.53,26.01.56,6.44.86,10.29.86,10.29,0,0,1.32-3.65,3.5-9.73,2.23-6.13,5.42-14.6,9.18-24.44,3.75-9.84,8.11-21.04,12.27-32.5,4.11-11.51,7.96-23.17,10.29-34.43,2.28-11.2,2.99-21.34,2.38-30.07-.56-8.77-2.38-16.27-4.56-22.36-2.18-6.13-4.82-10.8-6.9-13.84-2.08-3.09-3.55-4.66-3.55-4.66Z"/>
            <path class="cls-4" d="m325.92,78.67c-6.49,5.68-12.12,10.8-16.38,14.7-4.31,3.95-7.35,7-8.87,8.37-1.06-1.77-3.35-5.37-6.39-10.39-3.14-4.87-7.2-11.15-12.02-18.4-.15,1.17-.35,2.33-.51,3.5,5.42,8.21,9.84,14.96,12.88,19.77,3.04,4.87,4.82,7.76,4.82,7.81l.71,1.17,1.01-.96s2.54-2.38,6.69-6.29c4.21-3.8,10.24-9.33,17.59-15.77.15-1.22.3-2.38.41-3.55l.05.05Z"/>
            <path class="cls-15" d="m286.93,206.03s1.01-3.09,2.59-9.43c1.57-6.34,3.7-15.92,5.73-29,1.98-13.08,3.4-28.24,4.06-40.21.66-11.97.71-20.69.71-20.69,0,0-2.23,8.42-4.66,20.18-2.48,11.71-5.07,26.77-6.49,39.9s-1.83,22.97-1.98,29.46c-.1,6.54.05,9.73.05,9.73v.05Z"/>
            <path class="cls-9" d="m283.33,67.11c5.37,8.31,9.89,15.16,13.08,20.23,3.19,5.02,5.07,8.01,5.07,8.01,0,0,2.59-2.38,7-6.44,4.46-4.01,10.7-9.63,17.9-16.12.86-16.58-2.69-29.61-6.69-38.58-1.98-4.51-4.11-7.76-5.68-10.04-1.57-2.23-2.69-3.4-2.69-3.4,0,0-1.32.81-3.45,2.59-2.13,1.77-5.02,4.41-8.06,8.16-6.19,7.61-12.93,19.37-16.43,35.59h-.05Z"/>
            <path class="cls-14" d="m323.89,91.65c2.28-11.2,2.99-21.34,2.38-30.07-.56-8.77-2.38-16.27-4.56-22.36-2.18-6.13-4.82-10.8-6.9-13.84-2.08-3.09-3.55-4.66-3.55-4.66l-22.61,171.97s1.32-3.65,3.5-9.73c2.23-6.13,5.42-14.6,9.18-24.44,3.75-9.84,8.11-21.04,12.27-32.5,4.11-11.51,7.96-23.17,10.29-34.43v.05Z"/>
          </g>
          <g>
            <path class="cls-7" d="m372.92,51.8s-2.03.66-5.32,2.28c-3.3,1.67-7.76,4.31-12.62,8.42-4.87,4.16-10.09,9.73-14.86,16.98-4.77,7.25-9.13,16.12-12.57,26.82-3.5,10.7-5.93,22.66-8.01,34.53-2.08,11.81-3.8,23.47-5.37,33.72-1.57,10.24-3.04,19.16-4.11,25.45-1.06,6.24-1.72,9.99-1.72,9.99,0,0,2.18-3.14,5.78-8.42,3.6-5.17,8.77-12.47,14.86-20.94,6.03-8.42,13.03-18.1,19.82-27.89,6.74-9.84,13.38-20.08,18.4-30.17,5.02-10.09,8.16-19.52,9.84-28.04,1.67-8.57,1.83-16.07,1.27-22.41-.61-6.34-1.88-11.46-3.09-14.96-1.22-3.45-2.23-5.32-2.23-5.32l-.05-.05Z"/>
            <path class="cls-11" d="m372.31,110.71c-3.8,1.83-7.3,3.6-10.6,5.32-3.19,1.67-6.13,3.19-8.72,4.56-5.07,2.64-8.72,4.72-10.49,5.68-.61-1.93-1.83-5.93-3.5-11.46-1.72-5.58-4.11-12.42-6.84-20.53-.46,1.06-.91,2.13-1.37,3.19,1.52,4.51,2.94,8.67,4.21,12.42.61,1.83,1.17,3.55,1.72,5.17.51,1.62.96,3.14,1.42,4.51,1.67,5.37,2.64,8.57,2.69,8.62l.41,1.27,1.22-.66s.76-.41,2.13-1.17,3.3-1.77,5.78-3.09c2.54-1.32,5.53-2.89,8.97-4.72,1.77-.91,3.6-1.88,5.58-2.89,1.98-.96,4.01-1.98,6.13-2.99.46-1.12.86-2.18,1.27-3.24Z"/>
            <path class="cls-15" d="m303.31,222.15s1.72-2.69,4.82-8.37c3.09-5.68,7.5-14.25,12.67-26.16s10.34-26.11,13.94-37.32c3.65-11.2,5.83-19.47,5.83-19.47,0,0-4.26,7.45-9.48,18.05-5.27,10.55-11.51,24.23-16.17,36.4-4.66,12.17-7.5,21.4-9.23,27.58-1.72,6.19-2.38,9.28-2.38,9.28Z"/>
            <path class="cls-2" d="m334.64,88.96c3.04,9.23,5.68,16.83,7.45,22.51,1.77,5.53,2.84,8.82,2.84,8.82,0,0,.76-.41,2.18-1.17s3.5-1.88,6.03-3.19c2.59-1.37,5.73-2.99,9.23-4.82,3.55-1.88,7.55-3.95,11.81-6.08,5.02-15.72,4.92-28.95,3.3-38.43-1.57-9.53-4.61-14.91-4.61-14.91,0,0-5.98,1.83-13.69,7.4-7.76,5.58-17.24,15.21-24.59,29.76l.05.1Z"/>
            <path class="cls-14" d="m367.14,122.52c5.02-10.09,8.16-19.52,9.84-28.04,1.67-8.57,1.83-16.07,1.27-22.41-.61-6.34-1.88-11.46-3.09-14.96-1.22-3.45-2.23-5.32-2.23-5.32l-64.59,158.13s2.18-3.14,5.78-8.42c3.6-5.17,8.77-12.47,14.86-20.94,6.03-8.42,13.03-18.1,19.82-27.89,6.74-9.84,13.38-20.08,18.4-30.17h-.05Z"/>
          </g>
          <g>
            <path class="cls-5" d="m424.28,95.2s-1.98.1-5.27.81-7.96,2.03-13.23,4.51c-5.22,2.43-11.26,6.24-17.19,11.51-5.98,5.27-11.91,12.17-17.59,20.84-5.63,8.67-10.65,18.71-15.31,28.7-4.66,10.04-8.87,19.82-12.78,28.65-7.71,17.54-13.54,30.01-13.54,30.01,0,0,2.64-2.23,7.1-5.98,4.46-3.75,10.8-9.02,18.2-15.11,7.4-6.13,15.77-12.83,24.13-20.03,8.37-7.15,16.68-14.7,23.47-22.46,6.84-7.76,11.86-15.36,15.36-22.56,3.5-7.15,5.53-13.94,6.49-19.62.96-5.73,1.01-10.55.81-13.94-.2-3.4-.66-5.32-.66-5.32Z"/>
            <path class="cls-4" d="m409.67,147.31c-3.8.76-7.35,1.52-10.6,2.18-3.24.76-6.24,1.42-8.82,2.03-5.12,1.22-8.82,2.08-10.65,2.48-.1-1.88-.25-5.68-.46-10.9-.1-2.64-.2-5.73-.46-9.02-.25-3.35-.51-6.95-.76-10.85-.66.81-1.32,1.67-1.98,2.54.3,4.36.61,8.37.86,11.97.15,3.6.3,6.74.46,9.38.2,5.12.35,8.16.35,8.21v1.22l1.27-.25c.05,0,2.99-.71,8.01-1.88,2.53-.61,5.63-1.32,9.13-2.08,3.5-.71,7.45-1.52,11.71-2.43.66-.86,1.27-1.72,1.93-2.59Z"/>
            <path class="cls-15" d="m322.07,229.85s2.18-1.93,6.24-6.19c4.06-4.26,10.04-10.8,17.49-20.18,7.4-9.38,15.36-20.69,21.24-29.81,5.93-9.13,9.84-15.97,9.84-15.97,0,0-5.53,5.63-12.73,13.79-7.2,8.11-15.97,18.81-23.02,28.49-7,9.68-11.71,17.19-14.75,22.26-2.99,5.07-4.31,7.66-4.31,7.66v-.05Z"/>
            <path class="cls-9" d="m381.44,119.13c.25,4.36.56,8.47.76,12.12.2,3.65.35,6.9.46,9.63.3,5.32.46,8.47.46,8.47,0,0,3.09-.71,8.26-1.83,2.64-.61,5.83-1.32,9.38-2.13,3.6-.76,7.6-1.62,11.86-2.53,4.06-6.34,6.9-12.47,8.82-18.15s2.84-10.75,3.24-15.16c.41-4.36.25-7.96.05-10.44-.2-2.48-.56-3.9-.56-3.9,0,0-5.73.25-13.94,3.4-8.16,3.04-18.86,9.38-28.85,20.58l.05-.05Z"/>
            <path class="cls-14" d="m402.32,156.59c6.84-7.76,11.86-15.36,15.36-22.56,3.5-7.15,5.53-13.94,6.49-19.62.96-5.73,1.01-10.55.81-13.94-.2-3.4-.66-5.32-.66-5.32l-94.86,125.03s2.64-2.23,7.1-5.98c4.46-3.75,10.8-9.02,18.2-15.11,7.4-6.13,15.77-12.83,24.13-20.03,8.37-7.15,16.68-14.7,23.47-22.46h-.05Z"/>
          </g>
          <g>
            <path class="cls-7" d="m458.4,143.01s-1.77-.41-4.87-.56c-3.14-.1-7.6,0-12.93,1.06s-11.41,2.94-18,6.34-13.54,8.16-20.63,14.65c-7.1,6.49-13.89,14.3-20.38,22.16-6.44,7.81-12.67,15.82-18.1,22.76-5.48,6.95-10.19,12.88-13.59,17.09-3.45,4.21-5.48,6.74-5.48,6.74,0,0,2.89-1.42,7.76-3.75,4.87-2.33,11.86-5.63,19.82-9.33,7.96-3.7,17.09-7.86,26.26-12.37s18.35-9.38,26.26-14.8,14.15-11.05,18.91-16.68c4.77-5.63,8.11-11.15,10.39-16.12,2.23-4.92,3.35-9.18,3.9-12.27.56-3.04.61-4.87.61-4.87l.05-.05Z"/>
            <path class="cls-11" d="m433.3,186.3c-7.3-.3-13.44-.61-18.4-.66-4.87-.05-8.47-.15-10.19-.15.2-.86.51-2.13.86-3.8s.81-3.7,1.27-6.08c.96-4.77,2.33-11.05,3.55-18.05-.76.61-1.57,1.22-2.38,1.83-1.37,7.96-2.89,14.75-3.8,19.37-.51,2.33-.86,4.16-1.17,5.48-.3,1.27-.46,1.98-.46,2.03l-.25,1.12h1.17s2.89.1,7.66.15c1.22,0,2.53,0,4.01.05,1.42.05,2.99.1,4.61.15,3.35.15,7.1.3,11.15.46.76-.61,1.57-1.27,2.28-1.88h.1Z"/>
            <path class="cls-15" d="m335.65,240.2s2.38-1.27,7.05-4.11c4.61-2.89,11.51-7.4,20.33-14.04,8.82-6.69,18.51-15.01,25.91-21.85,7.4-6.79,12.47-12.02,12.47-12.02,0,0-6.24,3.75-14.55,9.38-8.31,5.58-18.71,13.13-27.23,20.18-8.52,7.05-14.45,12.67-18.35,16.58-3.9,3.85-5.68,5.93-5.68,5.93l.05-.05Z"/>
            <path class="cls-2" d="m414.54,154.62c-.35,1.98-.76,3.9-1.12,5.78-.35,1.88-.76,3.65-1.06,5.32-.66,3.3-1.27,6.24-1.77,8.67-.46,2.43-.86,4.31-1.17,5.68-.3,1.32-.41,2.08-.41,2.08,0,0,2.94.1,7.91.25,5.07.05,11.91.41,20.13.66,10.14-9.48,15.77-19.42,18.51-27.07,2.74-7.6,2.84-12.88,2.84-12.88,0,0-1.27-.25-3.55-.46s-5.63-.2-9.68.25c-8.11.91-18.96,3.95-30.62,11.76v-.05Z"/>
            <path class="cls-14" d="m424.58,192.94c7.91-5.42,14.15-11.05,18.91-16.68s8.11-11.15,10.39-16.12c2.23-4.92,3.35-9.18,3.9-12.27.56-3.04.61-4.87.61-4.87l-113.97,90.2s2.89-1.42,7.76-3.75c4.87-2.33,11.86-5.63,19.82-9.33,7.96-3.7,17.09-7.86,26.26-12.37,9.18-4.51,18.35-9.38,26.26-14.8h.05Z"/>
          </g>
          <g>
            <path class="cls-5" d="m483.6,192.03s-1.52-.81-4.36-1.72c-1.42-.46-3.14-.96-5.17-1.37-2.03-.41-4.41-.76-7-.96-5.22-.41-11.41-.15-18.3,1.27s-14.6,4.06-22.81,8.21c-8.21,4.16-16.48,9.63-24.59,15.26-8.06,5.63-15.77,11.41-22.61,16.43-3.4,2.48-6.59,4.82-9.43,6.9-2.89,2.08-5.42,3.9-7.55,5.48-4.21,3.04-6.74,4.82-6.74,4.82,0,0,3.04-.56,8.16-1.47,5.17-.96,12.37-2.18,20.74-3.55,8.37-1.37,17.9-2.94,27.53-4.77,9.63-1.88,19.32-4.01,28.04-7,8.67-2.99,15.97-6.69,21.8-10.65s10.29-8.21,13.64-12.22,5.58-7.71,6.84-10.34c1.32-2.69,1.83-4.31,1.83-4.31h0Z"/>
            <path class="cls-4" d="m449.32,225.65c-6.59-2.13-12.42-3.9-16.88-5.27-4.46-1.37-7.86-2.28-9.38-2.74.76-1.47,2.38-4.51,4.61-8.67,2.13-4.16,4.87-9.53,7.96-15.82-.86.35-1.77.71-2.64,1.06-3.45,7.05-6.44,12.88-8.52,16.93-2.18,4.11-3.45,6.49-3.45,6.54l-.51.96,1.06.3s2.69.76,7.1,2.08c4.36,1.37,10.65,3.24,18.1,5.68.86-.41,1.77-.76,2.64-1.17l-.1.1Z"/>
            <path class="cls-15" d="m345.08,250.64s2.53-.56,7.61-2.03c5.02-1.47,12.57-3.9,22.46-7.81,9.89-3.95,20.99-9.18,29.56-13.59s14.65-7.96,14.65-7.96c0,0-6.74,1.88-15.87,4.97-9.13,3.04-20.63,7.4-30.32,11.71-9.68,4.36-16.68,8.06-21.24,10.65s-6.74,4.06-6.74,4.06h-.1Z"/>
            <path class="cls-9" d="m440.09,191.58c-3.55,6.95-6.59,12.98-8.77,17.29-2.18,4.26-3.5,6.74-3.5,6.74,0,0,2.74.81,7.3,2.18,4.56,1.42,11,3.4,18.45,5.73,11.86-6.19,19.47-13.94,24.03-20.33,2.33-3.19,3.75-5.98,4.66-7.96.91-2.03,1.27-3.19,1.27-3.19,0,0-1.12-.56-3.19-1.32-2.08-.71-5.07-1.67-8.97-2.23-7.76-1.17-18.66-1.12-31.33,3.09h.05Z"/>
            <path class="cls-14" d="m439.49,229.6c8.67-2.99,15.97-6.69,21.8-10.65,5.83-3.95,10.29-8.21,13.64-12.22,3.35-4.01,5.58-7.71,6.84-10.34,1.32-2.69,1.83-4.31,1.83-4.31l-128.58,54.35s3.04-.56,8.16-1.47c5.17-.96,12.37-2.18,20.74-3.55,8.37-1.37,17.9-2.94,27.53-4.77,9.63-1.88,19.32-4.01,28.04-7v-.05Z"/>
          </g>
          <g>
            <path class="cls-7" d="m479.69,236.7s-1.32-.86-3.75-2.03c-2.43-1.12-6.03-2.53-10.55-3.5-4.61-.96-10.19-1.47-16.58-.96-6.39.46-13.54,1.93-21.34,4.66-7.86,2.79-15.92,6.69-23.78,10.8-7.86,4.11-15.41,8.37-22.11,12.02-13.49,7.45-23.27,12.67-23.27,12.67,0,0,2.79-.15,7.5-.35,4.72-.2,11.31-.46,18.91-.76,7.66-.3,16.43-.56,25.2-1.06,8.82-.56,17.75-1.37,25.91-3.04,8.11-1.67,15.06-4.11,20.79-7,5.78-2.89,10.19-6.19,13.64-9.33,3.45-3.19,5.83-6.24,7.35-8.47,1.52-2.23,2.13-3.65,2.13-3.65h-.05Z"/>
            <path class="cls-11" d="m445.06,262.81c-5.58-2.69-10.6-4.92-14.5-6.64-3.85-1.72-6.64-2.94-8.06-3.55,1.67-2.43,7.2-9.94,14.04-20.38-.81.2-1.67.41-2.48.66-3.95,5.93-7.15,10.75-9.63,14.15-2.38,3.4-3.8,5.37-3.8,5.42l-.56.81.91.41s.61.25,1.67.71c1.01.46,2.53,1.12,4.41,1.98,3.75,1.72,9.28,4.11,15.51,7.15.81-.25,1.67-.51,2.48-.71Z"/>
            <path class="cls-15" d="m348.94,273.05s2.38-.2,7.05-.91c4.66-.76,11.66-2.03,20.94-4.41,9.28-2.38,19.87-5.78,28.04-8.77,8.16-2.94,13.99-5.42,13.99-5.42,0,0-6.29.91-14.8,2.59-8.52,1.67-19.37,4.21-28.54,6.95-9.18,2.74-15.87,5.27-20.23,7.05-4.41,1.77-6.49,2.84-6.49,2.84l.05.1Z"/>
            <path class="cls-2" d="m440.8,231.32c-4.01,5.88-7.35,10.85-9.84,14.4-2.43,3.55-3.85,5.63-3.85,5.63,0,0,2.33,1.06,6.24,2.84,1.98.91,4.31,1.98,7,3.19,1.37.61,2.79,1.27,4.26,1.93,1.47.71,2.99,1.42,4.61,2.13,5.68-2.08,10.49-4.66,14.45-7.3,3.95-2.69,7.05-5.48,9.43-8.06s4.11-4.92,5.17-6.59c1.01-1.67,1.47-2.69,1.47-2.69,0,0-3.75-2.59-10.44-4.56-6.69-1.98-16.58-3.14-28.39-.86l-.1-.05Z"/>
            <path class="cls-14" d="m435.84,265.19c8.11-1.67,15.06-4.11,20.79-7,5.78-2.89,10.19-6.19,13.64-9.33,3.45-3.19,5.83-6.24,7.35-8.47,1.52-2.23,2.13-3.65,2.13-3.65l-121.38,33.72s2.79-.15,7.5-.35c4.72-.2,11.31-.46,18.91-.76,7.66-.3,16.43-.56,25.2-1.06,8.82-.56,17.75-1.37,25.91-3.04l-.05-.05Z"/>
          </g>
          <g>
            <path class="cls-5" d="m469.4,280.86s-.2-.25-.71-.71c-.46-.46-1.17-1.06-2.13-1.83-1.88-1.47-4.72-3.4-8.47-5.17-3.75-1.77-8.52-3.35-14.15-4.26-5.63-.91-12.17-1.12-19.52-.35-7.35.76-15.21,2.48-22.82,4.41-7.66,1.93-15.06,4.06-21.65,5.88-6.54,1.83-12.27,3.35-16.33,4.46-4.01,1.06-6.44,1.72-6.44,1.72,0,0,9.68,1.77,23.17,4.51,6.74,1.32,14.25,2.89,22.05,4.26,7.76,1.32,15.72,2.48,23.12,2.69,7.4.2,13.89-.46,19.42-1.83,5.53-1.32,10.24-3.24,13.79-5.27,3.6-2.03,6.29-4.16,8.06-5.78s2.64-2.74,2.64-2.74h-.05Z"/>
            <path class="cls-4" d="m434.01,296.32c-2.18-1.72-4.21-3.35-6.03-4.82s-3.6-2.79-5.12-3.95c-2.99-2.28-5.17-3.9-6.24-4.72,1.01-.86,3.04-2.69,5.83-5.17,1.42-1.27,3.04-2.74,4.82-4.31,1.72-1.62,3.65-3.4,5.68-5.27h-2.28c-2.28,2.13-4.36,4.11-6.29,5.83s-3.6,3.19-4.97,4.46c-2.74,2.43-4.36,3.9-4.41,3.9l-.66.61.71.56s1.77,1.32,4.66,3.6c1.47,1.12,3.3,2.48,5.32,4.06,2.03,1.62,4.26,3.4,6.69,5.32.76,0,1.52-.1,2.28-.1Z"/>
            <path class="cls-15" d="m348.53,285.37s2.08.35,6.24.66c4.21.3,10.55.66,19.11.51,8.57-.15,18.4-.91,26.11-1.83,7.71-.86,13.28-1.77,13.28-1.77,0,0-1.42-.1-3.75-.3-2.38-.15-5.73-.35-9.63-.51-7.76-.3-17.64-.35-26.21.15-8.52.51-14.8,1.32-19.01,1.93-4.16.66-6.19,1.12-6.19,1.12l.05.05Z"/>
            <path class="cls-9" d="m436.8,268.13c-4.56,4.26-8.67,7.86-11.51,10.44-2.84,2.54-4.51,4.06-4.51,4.06,0,0,1.77,1.37,4.77,3.75,1.52,1.17,3.35,2.59,5.48,4.21,2.08,1.62,4.36,3.45,6.79,5.37,10.7-1.32,18.76-4.92,23.88-8.42,5.17-3.5,7.71-6.69,7.71-6.69,0,0-.66-.76-2.03-1.88-1.37-1.12-3.4-2.69-6.13-4.21-2.74-1.52-6.08-3.09-10.19-4.31-4.11-1.22-8.87-2.08-14.25-2.33Z"/>
            <path class="cls-14" d="m425.49,296.47c7.4.2,13.89-.46,19.42-1.83,5.53-1.32,10.24-3.24,13.79-5.27,3.6-2.03,6.29-4.16,8.06-5.78,1.77-1.62,2.64-2.74,2.64-2.74l-112.2,4.21s9.68,1.77,23.17,4.51c6.74,1.32,14.25,2.89,22.05,4.26,7.76,1.32,15.72,2.48,23.12,2.69l-.05-.05Z"/>
          </g>
          <g>
            <path class="cls-5" d="m195.87,20.77s1.83,1.17,4.61,3.6c2.79,2.43,6.49,6.19,10.19,11.56,3.7,5.32,7.35,12.12,10.19,20.48,2.84,8.31,4.77,18.15,5.48,29.56.66,11.41,0,23.83-1.01,36-1.01,12.17-2.33,24.08-3.45,34.53-1.12,10.39-1.98,19.52-2.53,26.01-.56,6.44-.86,10.29-.86,10.29,0,0-1.32-3.65-3.5-9.73-2.23-6.13-5.42-14.6-9.18-24.44-3.75-9.84-8.11-21.04-12.27-32.5-4.11-11.51-7.96-23.17-10.29-34.43-2.28-11.2-2.99-21.34-2.38-30.07.56-8.77,2.38-16.27,4.56-22.36,2.18-6.13,4.82-10.8,6.9-13.84,2.08-3.09,3.55-4.66,3.55-4.66Z"/>
            <path class="cls-4" d="m181.27,78.67c6.49,5.68,12.12,10.8,16.38,14.7,4.31,3.95,7.35,7,8.87,8.37,1.06-1.77,3.35-5.37,6.39-10.39,3.14-4.87,7.2-11.15,12.02-18.4.15,1.17.35,2.33.51,3.5-5.42,8.21-9.84,14.96-12.88,19.77-3.04,4.87-4.82,7.76-4.82,7.81l-.71,1.17-1.01-.96s-2.54-2.38-6.69-6.29c-4.21-3.8-10.24-9.33-17.59-15.77-.15-1.22-.3-2.38-.41-3.55l-.05.05Z"/>
            <path class="cls-15" d="m220.26,206.03s-1.01-3.09-2.59-9.43c-1.57-6.34-3.7-15.92-5.73-29-1.98-13.08-3.4-28.24-4.06-40.21-.66-11.97-.71-20.69-.71-20.69,0,0,2.23,8.42,4.66,20.18,2.48,11.71,5.07,26.77,6.49,39.9,1.47,13.13,1.83,22.97,1.98,29.46.1,6.54-.05,9.73-.05,9.73v.05Z"/>
            <path class="cls-9" d="m223.86,67.11c-5.37,8.31-9.89,15.16-13.08,20.23-3.19,5.02-5.07,8.01-5.07,8.01,0,0-2.59-2.38-6.95-6.44-4.46-4.01-10.7-9.63-17.9-16.12-.86-16.58,2.69-29.61,6.69-38.58,1.98-4.51,4.11-7.76,5.68-10.04,1.57-2.23,2.69-3.4,2.69-3.4,0,0,1.32.81,3.45,2.59,2.13,1.77,5.02,4.41,8.06,8.16,6.19,7.61,12.93,19.37,16.43,35.59Z"/>
            <path class="cls-14" d="m183.3,91.65c-2.28-11.2-2.99-21.34-2.38-30.07.56-8.77,2.38-16.27,4.56-22.36,2.18-6.13,4.82-10.8,6.9-13.84,2.08-3.09,3.55-4.66,3.55-4.66l22.61,171.97s-1.32-3.65-3.5-9.73c-2.23-6.13-5.42-14.6-9.18-24.44-3.75-9.84-8.11-21.04-12.27-32.5-4.11-11.51-7.96-23.17-10.29-34.43v.05Z"/>
          </g>
          <g>
            <path class="cls-7" d="m134.27,51.8s2.03.66,5.32,2.28c3.3,1.67,7.76,4.31,12.62,8.42,4.87,4.16,10.09,9.73,14.86,16.98,4.77,7.25,9.13,16.12,12.57,26.82,3.5,10.7,5.93,22.66,8.01,34.53,2.08,11.81,3.8,23.47,5.37,33.72s3.04,19.16,4.11,25.45c1.06,6.24,1.72,9.99,1.72,9.99,0,0-2.18-3.14-5.78-8.42-3.6-5.17-8.77-12.47-14.86-20.94-6.03-8.42-13.03-18.1-19.82-27.89-6.74-9.84-13.38-20.08-18.4-30.17-5.02-10.09-8.16-19.52-9.84-28.04-1.67-8.57-1.83-16.07-1.27-22.41.61-6.34,1.88-11.46,3.09-14.96,1.22-3.45,2.23-5.32,2.23-5.32l.05-.05Z"/>
            <path class="cls-11" d="m134.88,110.71c3.8,1.83,7.3,3.6,10.6,5.32,3.19,1.67,6.13,3.19,8.72,4.56,5.07,2.64,8.72,4.72,10.49,5.68.61-1.93,1.83-5.93,3.5-11.46,1.72-5.58,4.11-12.42,6.84-20.53.46,1.06.91,2.13,1.37,3.19-1.52,4.51-2.94,8.67-4.21,12.42-.61,1.83-1.17,3.55-1.72,5.17-.51,1.62-.96,3.14-1.42,4.51-1.67,5.37-2.64,8.57-2.69,8.62l-.41,1.27-1.22-.66s-.76-.41-2.13-1.17c-1.37-.76-3.3-1.77-5.78-3.09-2.53-1.32-5.53-2.89-8.97-4.72-1.77-.91-3.6-1.88-5.58-2.89-1.98-.96-4.01-1.98-6.13-2.99-.46-1.12-.86-2.18-1.27-3.24Z"/>
            <path class="cls-15" d="m203.88,222.15s-1.72-2.69-4.82-8.37c-3.09-5.68-7.5-14.25-12.68-26.16-5.17-11.91-10.34-26.11-13.94-37.32-3.65-11.2-5.83-19.47-5.83-19.47,0,0,4.26,7.45,9.48,18.05,5.27,10.55,11.51,24.23,16.17,36.4,4.66,12.17,7.5,21.4,9.23,27.58,1.72,6.19,2.38,9.28,2.38,9.28Z"/>
            <path class="cls-2" d="m172.55,88.96c-3.04,9.23-5.68,16.83-7.45,22.51-1.77,5.53-2.84,8.82-2.84,8.82,0,0-.76-.41-2.18-1.17s-3.5-1.88-6.03-3.19c-2.59-1.37-5.73-2.99-9.23-4.82-3.55-1.88-7.55-3.95-11.81-6.08-5.02-15.72-4.92-28.95-3.3-38.43,1.57-9.53,4.61-14.91,4.61-14.91,0,0,5.98,1.83,13.69,7.4,7.76,5.58,17.24,15.21,24.59,29.76l-.05.1Z"/>
            <path class="cls-14" d="m140.05,122.52c-5.02-10.09-8.16-19.52-9.84-28.04-1.67-8.57-1.83-16.07-1.27-22.41.61-6.34,1.88-11.46,3.09-14.96,1.22-3.45,2.23-5.32,2.23-5.32l64.59,158.13s-2.18-3.14-5.78-8.42c-3.6-5.17-8.77-12.47-14.86-20.94-6.03-8.42-13.03-18.1-19.82-27.89-6.74-9.84-13.38-20.08-18.4-30.17h.05Z"/>
          </g>
          <g>
            <path class="cls-5" d="m82.91,95.2s1.98.1,5.27.81,7.96,2.03,13.23,4.51c5.22,2.43,11.26,6.24,17.19,11.51,5.98,5.27,11.91,12.17,17.59,20.84,5.63,8.67,10.65,18.71,15.31,28.7,4.66,10.04,8.87,19.82,12.78,28.65,7.71,17.54,13.54,30.01,13.54,30.01,0,0-2.64-2.23-7.1-5.98-4.46-3.75-10.8-9.02-18.2-15.11-7.4-6.13-15.77-12.83-24.13-20.03-8.37-7.15-16.68-14.7-23.47-22.46-6.84-7.76-11.86-15.36-15.36-22.56-3.5-7.15-5.53-13.94-6.49-19.62-.96-5.73-1.01-10.55-.81-13.94s.66-5.32.66-5.32Z"/>
            <path class="cls-4" d="m97.46,147.31c3.8.76,7.35,1.52,10.6,2.18,3.24.76,6.24,1.42,8.82,2.03,5.12,1.22,8.82,2.08,10.65,2.48.1-1.88.25-5.68.46-10.9.1-2.64.2-5.73.46-9.02.25-3.35.51-6.95.76-10.85.66.81,1.32,1.67,1.98,2.54-.3,4.36-.61,8.37-.86,11.97-.15,3.6-.3,6.74-.46,9.38-.2,5.12-.35,8.16-.35,8.21v1.22l-1.27-.25c-.05,0-2.99-.71-8.01-1.88-2.54-.61-5.63-1.32-9.13-2.08-3.5-.71-7.45-1.52-11.71-2.43-.66-.86-1.27-1.72-1.93-2.59Z"/>
            <path class="cls-15" d="m185.12,229.85s-2.18-1.93-6.24-6.19c-4.06-4.26-10.04-10.8-17.49-20.18-7.4-9.38-15.36-20.69-21.24-29.81-5.93-9.13-9.84-15.97-9.84-15.97,0,0,5.53,5.63,12.73,13.79,7.2,8.11,15.97,18.81,23.02,28.49,7,9.68,11.71,17.19,14.75,22.26,2.99,5.07,4.31,7.66,4.31,7.66v-.05Z"/>
            <path class="cls-9" d="m125.7,119.13c-.25,4.36-.56,8.47-.76,12.12-.2,3.65-.35,6.9-.46,9.63-.3,5.32-.46,8.47-.46,8.47,0,0-3.09-.71-8.26-1.83-2.64-.61-5.83-1.32-9.38-2.13-3.6-.76-7.6-1.62-11.86-2.53-4.06-6.34-6.9-12.47-8.82-18.15s-2.84-10.75-3.24-15.16c-.41-4.36-.25-7.96-.05-10.44.2-2.48.56-3.9.56-3.9,0,0,5.73.25,13.94,3.4,8.16,3.04,18.86,9.38,28.85,20.58l-.05-.05Z"/>
            <path class="cls-14" d="m104.87,156.59c-6.84-7.76-11.86-15.36-15.36-22.56-3.5-7.15-5.53-13.94-6.49-19.62-.96-5.73-1.01-10.55-.81-13.94.2-3.4.66-5.32.66-5.32l94.86,125.03s-2.64-2.23-7.1-5.98c-4.46-3.75-10.8-9.02-18.2-15.11-7.4-6.13-15.77-12.83-24.13-20.03-8.37-7.15-16.68-14.7-23.47-22.46h.05Z"/>
          </g>
          <g>
            <path class="cls-7" d="m48.79,143.01s1.77-.41,4.87-.56c3.14-.1,7.6,0,12.93,1.06s11.41,2.94,18,6.34c6.59,3.4,13.54,8.16,20.63,14.65,7.1,6.49,13.89,14.3,20.38,22.16,6.44,7.81,12.68,15.82,18.1,22.76,5.48,6.95,10.19,12.88,13.59,17.09,3.45,4.21,5.48,6.74,5.48,6.74,0,0-2.89-1.42-7.76-3.75-4.87-2.33-11.86-5.63-19.82-9.33-7.96-3.7-17.09-7.86-26.26-12.37-9.18-4.51-18.35-9.38-26.26-14.8-7.91-5.42-14.15-11.05-18.91-16.68-4.77-5.63-8.11-11.15-10.39-16.12-2.23-4.92-3.35-9.18-3.9-12.27-.56-3.04-.61-4.87-.61-4.87l-.05-.05Z"/>
            <path class="cls-11" d="m73.89,186.3c7.3-.3,13.44-.61,18.4-.66,4.87-.05,8.47-.15,10.19-.15-.2-.86-.51-2.13-.86-3.8s-.81-3.7-1.27-6.08c-.96-4.77-2.33-11.05-3.55-18.05.76.61,1.57,1.22,2.38,1.83,1.37,7.96,2.89,14.75,3.8,19.37.51,2.33.86,4.16,1.17,5.48.3,1.27.46,1.98.46,2.03l.25,1.12h-1.17s-2.89.1-7.66.15c-1.22,0-2.53,0-4.01.05-1.42.05-2.99.1-4.61.15-3.35.15-7.1.3-11.15.46-.76-.61-1.57-1.27-2.28-1.88h-.1Z"/>
            <path class="cls-15" d="m171.54,240.2s-2.38-1.27-7.05-4.11c-4.61-2.89-11.51-7.4-20.33-14.04-8.82-6.69-18.51-15.01-25.91-21.85-7.4-6.79-12.47-12.02-12.47-12.02,0,0,6.24,3.75,14.55,9.38,8.31,5.58,18.71,13.13,27.23,20.18,8.52,7.05,14.45,12.67,18.35,16.58,3.9,3.85,5.68,5.93,5.68,5.93l-.05-.05Z"/>
            <path class="cls-2" d="m92.65,154.62c.35,1.98.76,3.9,1.12,5.78.35,1.88.76,3.65,1.06,5.32.66,3.3,1.27,6.24,1.77,8.67.46,2.43.86,4.31,1.17,5.68.3,1.32.41,2.08.41,2.08,0,0-2.94.1-7.91.25-5.07.05-11.91.41-20.13.66-10.14-9.48-15.77-19.42-18.51-27.07-2.74-7.6-2.84-12.88-2.84-12.88,0,0,1.27-.25,3.55-.46s5.63-.2,9.68.25c8.11.91,18.96,3.95,30.62,11.76v-.05Z"/>
            <path class="cls-14" d="m82.61,192.94c-7.91-5.42-14.15-11.05-18.91-16.68-4.77-5.63-8.11-11.15-10.39-16.12-2.23-4.92-3.35-9.18-3.9-12.27-.56-3.04-.61-4.87-.61-4.87l113.97,90.2s-2.89-1.42-7.76-3.75c-4.87-2.33-11.86-5.63-19.82-9.33-7.96-3.7-17.09-7.86-26.26-12.37-9.18-4.51-18.35-9.38-26.26-14.8h-.05Z"/>
          </g>
          <g>
            <path class="cls-5" d="m23.59,192.03s1.52-.81,4.36-1.72c1.42-.46,3.14-.96,5.17-1.37s4.41-.76,7-.96c5.22-.41,11.41-.15,18.3,1.27s14.6,4.06,22.82,8.21,16.48,9.63,24.59,15.26c8.06,5.63,15.77,11.41,22.61,16.43,3.4,2.48,6.59,4.82,9.43,6.9,2.89,2.08,5.42,3.9,7.55,5.48,4.26,3.04,6.74,4.82,6.74,4.82,0,0-3.04-.56-8.16-1.47-5.17-.96-12.37-2.18-20.74-3.55-8.37-1.37-17.9-2.94-27.53-4.77-9.63-1.88-19.32-4.01-28.04-7-8.67-2.99-15.97-6.69-21.8-10.65-5.83-3.95-10.29-8.21-13.64-12.22-3.35-4.01-5.58-7.71-6.84-10.34-1.32-2.69-1.83-4.31-1.83-4.31Z"/>
            <path class="cls-4" d="m57.87,225.65c6.59-2.13,12.42-3.9,16.88-5.27,4.46-1.37,7.86-2.28,9.38-2.74-.76-1.47-2.38-4.51-4.61-8.67-2.13-4.16-4.87-9.53-7.96-15.82.86.35,1.77.71,2.64,1.06,3.45,7.05,6.44,12.88,8.52,16.93,2.18,4.11,3.45,6.49,3.45,6.54l.51.96-1.06.3s-2.69.76-7.1,2.08c-4.36,1.37-10.65,3.24-18.1,5.68-.86-.41-1.77-.76-2.64-1.17l.1.1Z"/>
            <path class="cls-15" d="m162.11,250.64s-2.53-.56-7.6-2.03c-5.02-1.47-12.57-3.9-22.46-7.81-9.89-3.95-20.99-9.18-29.56-13.59s-14.65-7.96-14.65-7.96c0,0,6.74,1.88,15.87,4.97,9.13,3.04,20.63,7.4,30.32,11.71,9.68,4.36,16.68,8.06,21.24,10.65s6.74,4.06,6.74,4.06h.1Z"/>
            <path class="cls-9" d="m67.1,191.58c3.55,6.95,6.59,12.98,8.77,17.29,2.18,4.26,3.5,6.74,3.5,6.74,0,0-2.74.81-7.3,2.18-4.56,1.42-11,3.4-18.45,5.73-11.86-6.19-19.47-13.94-24.03-20.33-2.33-3.19-3.75-5.98-4.66-7.96-.91-2.03-1.27-3.19-1.27-3.19,0,0,1.12-.56,3.19-1.32,2.08-.71,5.07-1.67,8.97-2.23,7.76-1.17,18.66-1.12,31.33,3.09h-.05Z"/>
            <path class="cls-14" d="m67.7,229.6c-8.67-2.99-15.97-6.69-21.8-10.65-5.83-3.95-10.29-8.21-13.64-12.22-3.35-4.01-5.58-7.71-6.84-10.34-1.32-2.69-1.83-4.31-1.83-4.31l128.58,54.35s-3.04-.56-8.16-1.47c-5.17-.96-12.37-2.18-20.74-3.55-8.37-1.37-17.9-2.94-27.53-4.77-9.63-1.88-19.32-4.01-28.04-7v-.05Z"/>
          </g>
          <g>
            <path class="cls-7" d="m27.5,236.7s1.32-.86,3.75-2.03c2.43-1.12,6.03-2.53,10.55-3.5,4.61-.96,10.19-1.47,16.58-.96,6.39.46,13.54,1.93,21.34,4.66,7.86,2.79,15.92,6.69,23.78,10.8,7.86,4.11,15.41,8.37,22.11,12.02,13.49,7.45,23.27,12.67,23.27,12.67,0,0-2.79-.15-7.5-.35-4.72-.2-11.31-.46-18.91-.76-7.66-.3-16.43-.56-25.2-1.06-8.82-.56-17.75-1.37-25.91-3.04-8.11-1.67-15.06-4.11-20.79-7-5.78-2.89-10.19-6.19-13.64-9.33-3.45-3.19-5.83-6.24-7.35-8.47s-2.13-3.65-2.13-3.65h.05Z"/>
            <path class="cls-11" d="m62.13,262.81c5.58-2.69,10.6-4.92,14.5-6.64,3.85-1.72,6.64-2.94,8.06-3.55-1.67-2.43-7.2-9.94-14.04-20.38.81.2,1.67.41,2.48.66,3.95,5.93,7.15,10.75,9.63,14.15,2.38,3.4,3.8,5.37,3.8,5.42l.56.81-.91.41s-.61.25-1.67.71c-1.01.46-2.54,1.12-4.41,1.98-3.75,1.72-9.28,4.11-15.51,7.15-.81-.25-1.67-.51-2.48-.71Z"/>
            <path class="cls-15" d="m158.25,273.05s-2.38-.2-7.05-.91c-4.66-.76-11.66-2.03-20.94-4.41-9.28-2.38-19.87-5.78-28.04-8.77-8.16-2.94-13.99-5.42-13.99-5.42,0,0,6.29.91,14.8,2.59,8.52,1.67,19.37,4.21,28.54,6.95,9.18,2.74,15.87,5.27,20.23,7.05,4.41,1.77,6.49,2.84,6.49,2.84l-.05.1Z"/>
            <path class="cls-2" d="m66.39,231.32c4.01,5.88,7.35,10.85,9.84,14.4,2.43,3.55,3.85,5.63,3.85,5.63,0,0-2.33,1.06-6.24,2.84-1.98.91-4.31,1.98-7,3.19-1.37.61-2.79,1.27-4.26,1.93-1.47.71-2.99,1.42-4.61,2.13-5.68-2.08-10.49-4.66-14.45-7.3-3.95-2.69-7.05-5.48-9.43-8.06-2.38-2.59-4.11-4.92-5.17-6.59-1.01-1.67-1.47-2.69-1.47-2.69,0,0,3.75-2.59,10.44-4.56,6.69-1.98,16.58-3.14,28.39-.86l.1-.05Z"/>
            <path class="cls-14" d="m71.35,265.19c-8.11-1.67-15.06-4.11-20.79-7-5.78-2.89-10.19-6.19-13.64-9.33-3.45-3.19-5.83-6.24-7.35-8.47s-2.13-3.65-2.13-3.65l121.38,33.72s-2.79-.15-7.5-.35c-4.72-.2-11.31-.46-18.91-.76-7.66-.3-16.43-.56-25.2-1.06-8.82-.56-17.74-1.37-25.91-3.04l.05-.05Z"/>
          </g>
          <g>
            <path class="cls-5" d="m37.79,280.86s.2-.25.71-.71c.46-.46,1.17-1.06,2.13-1.83,1.88-1.47,4.72-3.4,8.47-5.17,3.75-1.77,8.47-3.35,14.15-4.26,5.63-.91,12.17-1.12,19.52-.35,7.35.76,15.21,2.48,22.81,4.41,7.66,1.93,15.06,4.06,21.65,5.88,6.54,1.83,12.27,3.35,16.33,4.46,4.01,1.06,6.44,1.72,6.44,1.72,0,0-9.68,1.77-23.17,4.51-6.74,1.32-14.25,2.89-22.05,4.26-7.76,1.32-15.72,2.48-23.12,2.69-7.4.2-13.89-.46-19.42-1.83-5.53-1.32-10.24-3.24-13.79-5.27-3.6-2.03-6.29-4.16-8.06-5.78-1.77-1.62-2.64-2.74-2.64-2.74h.05Z"/>
            <path class="cls-4" d="m73.18,296.32c2.18-1.72,4.21-3.35,6.03-4.82s3.6-2.79,5.12-3.95c2.99-2.28,5.17-3.9,6.24-4.72-1.01-.86-3.04-2.69-5.83-5.17-1.42-1.27-3.04-2.74-4.82-4.31-1.72-1.62-3.65-3.4-5.68-5.27h2.28c2.28,2.13,4.36,4.11,6.29,5.83,1.93,1.72,3.6,3.19,4.97,4.46,2.74,2.43,4.36,3.9,4.41,3.9l.66.61-.71.56s-1.77,1.32-4.66,3.6c-1.47,1.12-3.3,2.48-5.32,4.06-2.03,1.62-4.26,3.4-6.69,5.32-.76,0-1.52-.1-2.28-.1Z"/>
            <path class="cls-15" d="m158.66,285.37s-2.08.35-6.24.66c-4.21.3-10.55.66-19.11.51-8.57-.15-18.4-.91-26.11-1.83-7.71-.86-13.28-1.77-13.28-1.77,0,0,1.42-.1,3.75-.3,2.38-.15,5.73-.35,9.63-.51,7.76-.3,17.64-.35,26.21.15,8.52.51,14.8,1.32,19.01,1.93,4.16.66,6.19,1.12,6.19,1.12l-.05.05Z"/>
            <path class="cls-9" d="m70.39,268.13c4.56,4.26,8.67,7.86,11.51,10.44,2.84,2.54,4.51,4.06,4.51,4.06,0,0-1.77,1.37-4.77,3.75-1.52,1.17-3.35,2.59-5.48,4.21-2.08,1.62-4.36,3.45-6.79,5.37-10.7-1.32-18.76-4.92-23.88-8.42-5.17-3.5-7.71-6.69-7.71-6.69,0,0,.66-.76,2.03-1.88,1.37-1.12,3.4-2.69,6.13-4.21,2.74-1.52,6.08-3.09,10.19-4.31,4.11-1.22,8.87-2.08,14.25-2.33Z"/>
            <path class="cls-14" d="m81.7,296.47c-7.4.2-13.89-.46-19.42-1.83-5.53-1.32-10.24-3.24-13.79-5.27-3.6-2.03-6.29-4.16-8.06-5.78-1.77-1.62-2.64-2.74-2.64-2.74l112.2,4.21s-9.68,1.77-23.17,4.51c-6.74,1.32-14.25,2.89-22.05,4.26-7.76,1.32-15.72,2.48-23.12,2.69l.05-.05Z"/>
          </g>
        </g>
        <g>
          <path class="cls-7" d="m253.57,5s-19.77,22.71-20.23,69.92c-.46,47.2,20.23,108.9,20.23,108.9,0,0,20.69-61.75,20.23-108.9-.46-47.2-20.23-69.92-20.23-69.92Z"/>
          <path class="cls-11" d="m273.14,61.43c-9.18,14.2-16.98,24.49-19.52,27.78-2.53-3.3-10.34-13.59-19.52-27.78-.1,1.22-.2,2.43-.3,3.65,10.49,16.02,18.86,26.52,18.96,26.67l.86,1.12.86-1.12s8.47-10.65,18.96-26.67c-.1-1.22-.2-2.43-.3-3.65Z"/>
          <path class="cls-15" d="m253.57,197.66s4.21-13.13,4.31-40.36c.1-27.23-4.31-62.87-4.31-62.87,0,0-4.41,35.64-4.31,62.87s4.31,40.36,4.31,40.36Z"/>
          <path class="cls-2" d="m234.76,55.35c10.09,16.22,18.81,27.18,18.81,27.18,0,0,8.77-11,18.86-27.18-4.56-33.87-18.86-50.35-18.86-50.35,0,0-14.25,16.43-18.81,50.35Z"/>
          <path class="cls-14" d="m273.8,74.92c-.46-47.2-20.23-69.92-20.23-69.92v178.82s20.69-61.75,20.23-108.9Z"/>
        </g>
        <g>
          <path class="cls-18" d="m370.13,278.37c0-1.06,0-2.18-.1-3.35s-.2-2.33-.3-3.55c-.15-2.48-.66-5.02-1.06-7.71-.56-2.64-1.06-5.42-1.88-8.16-.71-2.79-1.67-5.53-2.59-8.26-1.06-2.69-2.08-5.42-3.35-8.01-.61-1.32-1.22-2.59-1.88-3.85-.66-1.27-1.27-2.48-1.98-3.7-1.42-2.38-2.74-4.66-4.16-6.74-1.37-2.13-2.79-4.01-4.16-5.78-1.32-1.77-2.64-3.3-3.8-4.66-1.12-1.37-2.23-2.48-3.09-3.45-1.72-1.93-2.79-2.94-2.79-2.94,0,0-1.06-1.01-2.89-2.84-.96-.86-2.13-1.88-3.5-3.09-1.32-1.22-2.94-2.43-4.66-3.8-1.77-1.37-3.7-2.74-5.78-4.21-2.13-1.37-4.36-2.89-6.79-4.26-2.38-1.42-4.92-2.74-7.55-4.06-1.32-.66-2.64-1.22-4.01-1.83-1.32-.61-2.69-1.22-4.11-1.72-2.74-1.12-5.53-2.08-8.31-2.94-2.79-.86-5.53-1.62-8.26-2.23-2.69-.61-5.32-1.17-7.86-1.52-2.48-.46-4.87-.71-7.1-.91-2.18-.25-4.21-.3-6.03-.41-1.77-.1-3.35-.1-4.66-.1-2.59,0-4.06.05-4.06.05,0,0-1.47,0-4.06-.05-1.27,0-2.84,0-4.66.1-1.77.1-3.8.15-6.03.41-2.18.2-4.56.46-7.1.91-2.53.35-5.12.91-7.86,1.52-2.69.61-5.48,1.37-8.26,2.23-2.79.91-5.58,1.83-8.31,2.94-1.37.51-2.74,1.12-4.11,1.72-1.32.61-2.69,1.17-4.01,1.83-2.59,1.32-5.17,2.59-7.55,4.06-2.43,1.37-4.61,2.89-6.79,4.26-2.08,1.47-4.06,2.84-5.78,4.21-1.72,1.37-3.35,2.59-4.66,3.8s-2.53,2.23-3.5,3.09c-1.83,1.83-2.89,2.84-2.89,2.84,0,0-1.06,1.01-2.79,2.94-.86.96-1.98,2.08-3.09,3.45-1.12,1.37-2.48,2.89-3.8,4.66s-2.79,3.65-4.16,5.78c-1.42,2.08-2.79,4.36-4.16,6.74-.71,1.17-1.32,2.43-1.98,3.7s-1.32,2.53-1.88,3.85c-1.27,2.59-2.28,5.32-3.35,8.01-.96,2.74-1.93,5.48-2.59,8.26-.81,2.74-1.32,5.53-1.88,8.16-.41,2.69-.86,5.22-1.06,7.71-.1,1.22-.2,2.43-.3,3.55-.05,1.17-.1,2.28-.1,3.35-.1,2.13,0,4.11,0,5.83s.1,3.24.25,4.46c.25,2.43.41,3.85.41,3.85h19.72s.2-1.12.61-3.09c.15-.96.41-2.18.76-3.5.3-1.37.66-2.84,1.12-4.46.41-1.62.96-3.35,1.57-5.17.56-1.83,1.37-3.65,2.08-5.58.81-1.88,1.62-3.85,2.64-5.73.86-1.93,2.03-3.8,3.04-5.73,1.12-1.88,2.23-3.7,3.45-5.42,1.12-1.77,2.48-3.4,3.65-5.02,1.27-1.57,2.43-3.09,3.7-4.41,1.17-1.42,2.38-2.64,3.5-3.75,1.06-1.17,2.23-2.13,3.14-2.99.91-.91,1.83-1.57,2.48-2.23,1.37-1.22,2.23-1.88,2.23-1.88,0,0,.81-.66,2.28-1.83.76-.56,1.67-1.22,2.69-1.98,1.01-.76,2.28-1.52,3.6-2.43,1.32-.86,2.79-1.72,4.36-2.64,1.62-.86,3.24-1.83,5.02-2.64,1.72-.91,3.6-1.72,5.53-2.53,1.93-.76,3.85-1.62,5.83-2.28,1.01-.3,1.98-.71,2.99-1.01s1.98-.61,2.99-.91c1.98-.56,3.95-1.06,5.88-1.52,1.93-.41,3.75-.86,5.58-1.12,1.77-.35,3.45-.56,5.02-.76,1.57-.25,2.99-.35,4.31-.51,1.27-.15,2.38-.25,3.35-.3,1.88-.15,2.89-.2,2.89-.2,0,0,1.06.1,2.89.2.91,0,2.03.1,3.35.3,1.27.15,2.74.2,4.31.51,1.57.2,3.24.41,5.02.76,1.77.3,3.65.71,5.58,1.12,1.93.41,3.9.96,5.88,1.52,1.01.3,1.98.61,2.99.91s1.98.71,2.99,1.01c1.98.66,3.9,1.52,5.83,2.28,1.88.81,3.75,1.67,5.53,2.53,1.77.81,3.4,1.83,5.02,2.64,1.57.91,3.04,1.77,4.36,2.64,1.32.91,2.53,1.67,3.6,2.43,1.06.76,1.93,1.42,2.69,1.98,1.42,1.17,2.28,1.83,2.28,1.83,0,0,.86.61,2.23,1.88.71.61,1.57,1.32,2.48,2.23s2.03,1.88,3.14,2.99c1.12,1.17,2.33,2.38,3.5,3.75,1.27,1.32,2.43,2.84,3.7,4.41,1.17,1.62,2.53,3.24,3.65,5.02,1.22,1.72,2.33,3.6,3.45,5.42,1.01,1.88,2.13,3.75,3.04,5.73,1.01,1.93,1.77,3.85,2.64,5.73.71,1.93,1.52,3.75,2.08,5.58.61,1.83,1.17,3.55,1.57,5.17.51,1.62.86,3.09,1.12,4.46.3,1.32.56,2.53.76,3.5.35,1.98.61,3.09.61,3.09h19.72s.15-1.42.41-3.85c.15-1.22.25-2.74.25-4.46.05-1.72.15-3.7,0-5.83h.1Z"/>
          <path class="cls-5" d="m283.48,204.4s2.38-1.47,4.92-2.94c2.53-1.42,5.17-2.64,5.17-2.64,0,0,1.17,2.69,2.08,5.42.46,1.32.91,2.69,1.27,3.65.3,1.01.51,1.67.51,1.67,0,0-.81-.41-2.13-.91s-2.99-1.32-4.77-1.88c-1.72-.66-3.5-1.27-4.82-1.67-1.32-.41-2.23-.71-2.23-.71Z"/>
          <path class="cls-7" d="m322.32,206.63s-.71.05-1.83.25c-1.12.15-2.53.41-3.95.71-2.84.51-5.63,1.27-5.63,1.27,0,0-.15-.71-.41-1.77-.25-1.06-.61-2.48-1.01-3.9-.76-2.79-1.72-5.73-1.72-5.73,0,0,.91.51,2.33,1.32.71.41,1.52.86,2.38,1.37.86.51,1.77,1.12,2.69,1.67,1.83,1.12,3.6,2.38,4.92,3.3,1.32.91,2.18,1.57,2.18,1.57l.05-.05Z"/>
          <path class="cls-7" d="m283.79,188.13s-2.64,1.47-5.07,3.19c-1.22.81-2.43,1.67-3.35,2.28-.91.66-1.47,1.12-1.47,1.12,0,0-1.57-2.43-3.3-4.92-1.72-2.38-3.65-4.72-3.65-4.72,0,0,1.06.1,2.64.3,1.62.15,3.7.56,5.83.91,2.13.35,4.21.86,5.78,1.22.81.15,1.42.35,1.88.46s.71.2.71.2v-.05Z"/>
          <path class="cls-5" d="m342.24,249.07s2.48.76,4.87,1.72,4.72,2.13,4.72,2.13c0,0-.15.61-.46,1.57-.25.91-.61,2.13-.96,3.35-.35,1.17-.71,2.38-1.01,3.24s-.51,1.42-.51,1.42c0,0-.35-.86-.86-2.18-.61-1.27-1.37-2.99-2.18-4.66-.91-1.67-1.72-3.35-2.43-4.56-.71-1.22-1.17-2.03-1.17-2.03Z"/>
          <path class="cls-7" d="m363.79,279.44s-.35-.46-.91-1.22c-.56-.71-1.32-1.62-2.18-2.53-1.67-1.77-3.45-3.45-3.45-3.45,0,0,.96-2.28,1.88-4.61.51-1.22.91-2.38,1.27-3.3s.56-1.57.56-1.57c0,0,.25,1.01.66,2.59.35,1.52.76,3.65,1.17,5.68.3,2.08.61,4.16.81,5.73.15,1.57.2,2.64.2,2.64v.05Z"/>
          <path class="cls-7" d="m351.22,239.08s-.66-.2-1.57-.56c-.96-.35-2.23-.76-3.55-1.12-1.32-.35-2.64-.71-3.6-.91-.96-.25-1.67-.35-1.67-.35,0,0,.25-2.74.51-5.48.15-2.74.25-5.63.25-5.63,0,0,.66.86,1.67,2.08,1.01,1.22,2.23,2.99,3.45,4.72,1.22,1.77,2.33,3.6,3.19,4.92.81,1.37,1.32,2.33,1.32,2.33Z"/>
          <path class="cls-5" d="m223.71,204.4s-2.38-1.47-4.92-2.94c-2.53-1.42-5.17-2.64-5.17-2.64,0,0-1.17,2.69-2.08,5.42-.46,1.32-.91,2.69-1.27,3.65-.3,1.01-.51,1.67-.51,1.67,0,0,.81-.41,2.13-.91s2.99-1.32,4.77-1.88c1.72-.66,3.5-1.27,4.82-1.67,1.32-.41,2.23-.71,2.23-.71Z"/>
          <path class="cls-7" d="m184.87,206.63s.71.05,1.83.25c1.12.15,2.53.41,3.95.71,2.84.51,5.63,1.27,5.63,1.27,0,0,.15-.71.41-1.77.25-1.06.61-2.48,1.01-3.9.76-2.79,1.72-5.73,1.72-5.73,0,0-.91.51-2.33,1.32-.71.41-1.52.86-2.38,1.37-.86.51-1.77,1.12-2.69,1.67-1.83,1.12-3.6,2.38-4.92,3.3-1.32.91-2.18,1.57-2.18,1.57l-.05-.05Z"/>
          <path class="cls-7" d="m223.4,188.13s2.59,1.47,5.07,3.19c1.22.81,2.43,1.67,3.35,2.28.91.66,1.47,1.12,1.47,1.12,0,0,1.57-2.43,3.3-4.92,1.72-2.38,3.65-4.72,3.65-4.72,0,0-1.06.1-2.64.3-1.62.15-3.7.56-5.83.91-2.13.35-4.21.86-5.78,1.22-.81.15-1.42.35-1.88.46s-.71.2-.71.2v-.05Z"/>
          <g>
            <path class="cls-9" d="m372.46,274.62c-.1-1.17-.15-2.38-.25-3.65-.15-2.53-.61-5.17-.96-7.91-.51-2.74-1.01-5.58-1.77-8.42-.71-2.84-1.62-5.68-2.59-8.52-1.06-2.79-2.08-5.63-3.35-8.31-.61-1.37-1.22-2.69-1.88-3.95-.66-1.27-1.27-2.59-1.98-3.8-1.42-2.43-2.79-4.82-4.21-7s-2.84-4.16-4.21-5.98c-1.32-1.88-2.69-3.4-3.85-4.87s-2.28-2.59-3.14-3.6c-1.77-1.98-2.84-3.04-2.84-3.04,0,0-1.06-1.06-2.99-2.94-.96-.91-2.18-1.98-3.55-3.19-1.37-1.27-3.04-2.53-4.82-3.95s-3.8-2.84-5.93-4.36c-2.18-1.42-4.46-2.99-6.95-4.41-2.43-1.47-5.07-2.84-7.76-4.21-1.32-.71-2.74-1.27-4.11-1.93s-2.79-1.22-4.21-1.77c-2.84-1.17-5.73-2.13-8.57-3.04-2.89-.86-5.73-1.67-8.52-2.33-2.79-.61-5.48-1.22-8.06-1.57-2.59-.46-5.02-.71-7.3-.91-2.28-.25-4.36-.3-6.19-.41s-3.45-.1-4.77-.1c-2.64.05-4.16.1-4.16.1,0,0-1.52,0-4.16-.1-1.32,0-2.94,0-4.77.1-1.83.1-3.9.15-6.19.41-2.28.2-4.72.46-7.3.91-2.59.35-5.27.96-8.06,1.57-2.79.66-5.63,1.42-8.52,2.33-2.84.91-5.73,1.88-8.57,3.04-1.42.56-2.84,1.17-4.21,1.77s-2.79,1.22-4.11,1.93c-2.69,1.37-5.32,2.69-7.76,4.21-2.48,1.42-4.77,2.99-6.95,4.41-2.13,1.52-4.16,2.94-5.93,4.36s-3.45,2.69-4.82,3.95c-1.37,1.22-2.59,2.33-3.55,3.19-1.88,1.88-2.99,2.94-2.99,2.94,0,0-1.12,1.06-2.84,3.04-.86,1.01-1.98,2.13-3.14,3.6-1.17,1.42-2.53,2.99-3.85,4.87-1.37,1.83-2.79,3.8-4.21,5.98-1.47,2.13-2.79,4.56-4.21,7-.71,1.22-1.32,2.54-1.98,3.8s-1.32,2.64-1.88,3.95c-1.27,2.69-2.28,5.53-3.35,8.31-.96,2.84-1.88,5.68-2.59,8.52-.76,2.84-1.27,5.68-1.77,8.42-.35,2.74-.81,5.37-.96,7.91-.1,1.27-.15,2.48-.25,3.65-.05,1.17,0,2.33-.05,3.45-.05,2.18.05,4.21.15,5.98.05,1.77.2,3.3.41,4.56.3,2.48.51,3.9.51,3.9h4.16s-.1-1.37-.3-3.75c-.1-1.22-.15-2.69-.15-4.36s-.05-3.6.1-5.68c.05-1.06.1-2.13.2-3.24s.25-2.28.35-3.45c.2-2.38.71-4.87,1.17-7.5.56-2.59,1.12-5.22,1.93-7.91.71-2.69,1.67-5.32,2.64-8.01,1.06-2.64,2.13-5.27,3.35-7.76.61-1.27,1.22-2.53,1.88-3.7.66-1.22,1.27-2.43,1.98-3.55,1.37-2.28,2.69-4.51,4.11-6.49,1.37-2.03,2.79-3.85,4.06-5.58s2.59-3.14,3.7-4.51c1.12-1.32,2.18-2.38,3.04-3.35,1.67-1.83,2.74-2.79,2.74-2.79,0,0,1.01-1.01,2.84-2.74.96-.81,2.08-1.83,3.4-2.99s2.89-2.33,4.56-3.65c1.72-1.32,3.6-2.64,5.63-4.06,2.08-1.32,4.26-2.79,6.59-4.06,2.33-1.37,4.82-2.64,7.3-3.9,1.27-.66,2.59-1.17,3.85-1.77,1.32-.61,2.64-1.17,3.95-1.67,2.64-1.06,5.37-1.98,8.06-2.84,2.69-.81,5.37-1.57,8.01-2.18,2.64-.56,5.17-1.17,7.6-1.47,2.43-.46,4.72-.66,6.84-.91s4.11-.3,5.83-.41,3.24-.15,4.51-.1h7.81c1.27,0,2.79,0,4.51.1s3.7.15,5.83.41c2.13.2,4.46.46,6.84.91,2.43.35,4.97.91,7.6,1.47,2.64.61,5.27,1.37,8.01,2.18,2.69.86,5.42,1.77,8.06,2.84,1.32.51,2.69,1.06,3.95,1.67,1.32.61,2.64,1.12,3.85,1.77,2.53,1.27,5.02,2.48,7.3,3.9,2.33,1.32,4.51,2.74,6.59,4.06,2.03,1.42,3.9,2.74,5.63,4.06,1.67,1.32,3.24,2.48,4.56,3.65s2.43,2.13,3.4,2.99c1.83,1.72,2.84,2.74,2.84,2.74,0,0,1.06.96,2.74,2.79.86.91,1.93,1.98,3.04,3.35,1.12,1.32,2.43,2.79,3.7,4.51,1.32,1.67,2.74,3.5,4.06,5.58,1.42,1.98,2.74,4.21,4.11,6.49.71,1.17,1.32,2.38,1.98,3.55.66,1.22,1.27,2.43,1.88,3.7,1.27,2.48,2.28,5.12,3.35,7.76.96,2.69,1.93,5.32,2.64,8.01.81,2.64,1.37,5.32,1.93,7.91.46,2.59.96,5.07,1.17,7.5.1,1.22.25,2.33.35,3.45s.1,2.23.2,3.24c.15,2.08.1,4.01.1,5.68s0,3.14-.15,4.36c-.2,2.38-.3,3.75-.3,3.75h4.16s.2-1.42.51-3.9c.2-1.27.3-2.79.41-4.56.1-1.77.2-3.75.15-5.98,0-1.12,0-2.23-.05-3.45h.1Z"/>
            <path class="cls-9" d="m350.66,285.73c-.25-1.37-.56-2.94-1.01-4.61-.35-1.67-.86-3.45-1.47-5.32-.51-1.88-1.27-3.8-1.98-5.83-.81-1.98-1.57-4.01-2.53-5.98-.86-2.03-1.98-4.01-2.99-5.98-1.12-1.93-2.23-3.85-3.45-5.73-1.12-1.88-2.48-3.6-3.65-5.27-2.53-3.3-5.02-6.24-7.35-8.62-1.12-1.22-2.28-2.23-3.19-3.19-.91-.96-1.88-1.67-2.59-2.33-1.42-1.32-2.28-1.98-2.28-1.98,0,0-.86-.71-2.33-1.93-.76-.56-1.72-1.27-2.79-2.08s-2.33-1.62-3.7-2.54-2.89-1.83-4.51-2.79c-1.67-.91-3.35-1.93-5.22-2.84-1.83-.96-3.75-1.83-5.73-2.69-1.98-.81-4.01-1.72-6.08-2.38-1.01-.35-2.08-.76-3.09-1.06-1.01-.3-2.08-.66-3.09-.96-2.08-.61-4.11-1.17-6.13-1.57-1.98-.46-3.95-.86-5.78-1.17-1.83-.35-3.6-.56-5.27-.81-1.62-.25-3.14-.35-4.46-.46-1.32-.15-2.48-.2-3.45-.25-1.93-.1-3.04-.2-3.04-.2,0,0-1.12.05-3.04.2-.96,0-2.13.1-3.45.25-1.32.15-2.84.2-4.46.46-1.62.2-3.4.41-5.27.81-1.88.3-3.8.71-5.78,1.17s-4.06,1.01-6.13,1.57c-1.01.3-2.08.61-3.09.96s-2.08.71-3.09,1.06c-2.08.66-4.06,1.57-6.08,2.38-1.98.86-3.9,1.72-5.73,2.69-1.88.86-3.55,1.93-5.22,2.84-1.62.96-3.14,1.88-4.51,2.79-1.32.96-2.64,1.72-3.7,2.54s-2.03,1.47-2.79,2.08c-1.47,1.22-2.33,1.93-2.33,1.93,0,0-.86.66-2.28,1.98-.71.66-1.62,1.37-2.59,2.33-.91.96-2.08,1.98-3.19,3.19-2.28,2.38-4.82,5.32-7.35,8.62-1.17,1.67-2.54,3.4-3.65,5.27-1.22,1.83-2.33,3.75-3.45,5.73-1.01,1.98-2.13,3.95-2.99,5.98-.96,1.98-1.72,4.06-2.53,5.98-.71,1.98-1.42,3.9-1.98,5.83-.56,1.88-1.06,3.65-1.47,5.32-.46,1.67-.76,3.24-1.01,4.61-.3,1.37-.51,2.59-.61,3.6-.3,2.03-.51,3.19-.51,3.19h4.16s.25-1.12.71-3.04c.2-.96.51-2.13.86-3.4.3-1.32.71-2.74,1.27-4.31.46-1.57,1.06-3.24,1.67-4.97s1.42-3.55,2.18-5.37c.86-1.83,1.67-3.7,2.69-5.53.91-1.88,2.03-3.65,3.09-5.42,1.12-1.77,2.23-3.5,3.45-5.17,1.12-1.67,2.43-3.19,3.6-4.77,1.27-1.47,2.43-2.89,3.65-4.16,1.17-1.32,2.38-2.48,3.45-3.55,1.06-1.12,2.18-1.98,3.04-2.84.91-.86,1.77-1.52,2.43-2.08,1.32-1.17,2.18-1.72,2.18-1.72,0,0,.81-.61,2.18-1.72.71-.51,1.62-1.12,2.64-1.83s2.23-1.42,3.45-2.28c1.27-.81,2.74-1.62,4.21-2.48,1.52-.81,3.09-1.72,4.82-2.48,1.67-.86,3.45-1.62,5.27-2.38,1.88-.71,3.7-1.52,5.58-2.13l2.84-.96c.96-.3,1.93-.56,2.84-.86,1.88-.51,3.8-1.01,5.63-1.42,1.83-.41,3.6-.81,5.32-1.06,1.67-.35,3.35-.56,4.82-.76,1.47-.25,2.89-.35,4.11-.51s2.28-.25,3.19-.3c1.77-.15,2.79-.25,2.79-.25,0,0,1.01.1,2.79.25.86.05,1.98.15,3.19.3,1.22.15,2.64.25,4.11.51,1.52.2,3.14.41,4.82.76,1.72.25,3.5.66,5.32,1.06,1.83.41,3.7.91,5.63,1.42.96.3,1.93.56,2.84.86l2.84.96c1.93.61,3.75,1.42,5.58,2.13,1.83.76,3.6,1.57,5.27,2.38,1.72.76,3.3,1.67,4.82,2.48,1.52.86,2.94,1.67,4.21,2.48,1.27.86,2.48,1.52,3.45,2.28,1.01.71,1.88,1.32,2.64,1.83,1.42,1.06,2.18,1.72,2.18,1.72,0,0,.86.61,2.18,1.72.66.61,1.57,1.22,2.43,2.08s1.98,1.72,3.04,2.84c1.06,1.06,2.28,2.23,3.45,3.55,1.27,1.27,2.38,2.69,3.65,4.16,1.17,1.52,2.48,3.04,3.6,4.77,1.22,1.67,2.33,3.4,3.45,5.17,1.01,1.83,2.18,3.6,3.09,5.42,1.01,1.83,1.83,3.7,2.69,5.53.76,1.83,1.57,3.6,2.18,5.37.66,1.72,1.27,3.4,1.67,4.97.51,1.57.91,3.04,1.27,4.31.35,1.32.66,2.43.86,3.4.46,1.93.71,3.04.71,3.04h4.16s-.2-1.17-.51-3.19c-.1-1.01-.35-2.23-.61-3.6h.41Z"/>
          </g>
          <g>
            <path class="cls-7" d="m335.1,212.46s-1.77-.1-4.41-.1c-2.69.05-6.13.2-9.63.66-1.72.2-3.45.51-5.02.76-1.62.3-3.09.66-4.31.91-2.48.56-4.11,1.12-4.11,1.12,0,0-.35-1.77-.91-4.41-.66-2.59-1.57-6.24-2.79-9.84-.61-1.77-1.22-3.65-1.88-5.32-.66-1.67-1.32-3.24-1.93-4.66-.61-1.37-1.12-2.53-1.47-3.3-.35-.81-.61-1.22-.61-1.22,0,0-1.88.76-4.56,1.93-2.74,1.32-6.13,2.94-9.48,4.97-3.3,1.93-6.44,4.06-8.67,5.73-1.12.81-2.03,1.52-2.69,2.03-.61.51-.96.81-.96.81,0,0-.86-1.47-2.33-3.7-1.47-2.13-3.5-5.07-5.78-7.81-2.28-2.74-4.72-5.48-6.64-7.35-1.93-1.93-3.3-3.19-3.3-3.19v5.32s1.32,1.27,3.14,3.19c1.83,1.88,4.21,4.66,6.34,7.4,2.13,2.79,4.11,5.68,5.42,7.81,1.37,2.23,2.18,3.65,2.18,3.65,0,0,.35-.3.96-.81s1.47-1.22,2.54-2.03c2.13-1.67,5.12-3.85,8.31-5.78,3.19-2.08,6.49-3.75,9.13-5.12,2.59-1.22,4.41-1.98,4.41-1.98,0,0,.2.46.56,1.22s.86,1.88,1.37,3.24c.56,1.37,1.17,2.89,1.77,4.56s1.17,3.5,1.72,5.22c1.12,3.5,1.93,7.05,2.48,9.58.51,2.59.81,4.31.81,4.31,0,0,1.57-.56,4.01-1.22,1.22-.3,2.64-.71,4.21-1.06,1.52-.3,3.19-.61,4.92-.91,3.4-.56,6.79-.81,9.43-.91,2.59-.1,4.36,0,4.36,0l3.35-3.65.05-.05Z"/>
            <path class="cls-7" d="m364.55,289.27c-.91-1.93-2.54-4.36-4.26-6.69-1.83-2.33-3.7-4.46-5.37-5.98-1.62-1.52-2.74-2.43-2.74-2.43,0,0,.15-.35.41-.96s.61-1.47,1.01-2.53c.91-2.18,1.98-5.12,3.09-8.26,1.01-3.14,2.13-6.49,2.79-9.08.35-1.32.66-2.38.86-3.19.2-.76.3-1.22.3-1.22,0,0-1.52-.91-3.8-2.13-2.28-1.22-5.48-2.69-8.72-3.85-1.62-.56-3.3-1.12-4.82-1.57-1.57-.41-3.04-.76-4.31-1.01-2.48-.56-4.21-.76-4.21-.76,0,0,.15-1.57.41-3.95.15-2.33.41-5.68.46-9.08v-5.07c-.1-1.67-.15-3.19-.2-4.51-.15-2.74-.35-4.51-.35-4.51l-3.35,3.65s.2,1.72.25,4.36c0,1.27.1,2.79.15,4.36,0,1.57,0,3.3-.05,4.92-.05,3.24-.35,6.49-.56,8.72-.25,2.28-.46,3.8-.46,3.8,0,0,1.72.15,4.21.61,1.27.2,2.69.51,4.26.86,1.52.41,3.14.86,4.82,1.37,3.24,1.06,6.44,2.33,8.72,3.5,2.28,1.12,3.8,1.98,3.8,1.98,0,0-.1.41-.3,1.17-.2.76-.51,1.77-.86,3.04-.66,2.48-1.72,5.73-2.69,8.72-1.12,3.04-2.13,5.88-2.99,7.96-.41,1.01-.71,1.88-.96,2.43s-.41.91-.41.91c0,0,1.17.86,2.79,2.33,1.67,1.42,3.65,3.5,5.58,5.73,1.77,2.23,3.5,4.61,4.51,6.44,1.06,1.83,1.67,3.14,1.67,3.14h2.84s-.56-1.32-1.57-3.24l.05.05Z"/>
            <path class="cls-7" d="m243.63,190.97c-2.28,2.79-4.31,5.68-5.78,7.81-1.42,2.23-2.33,3.7-2.33,3.7,0,0-.35-.3-.96-.81-.66-.51-1.57-1.22-2.69-2.03-2.23-1.62-5.37-3.8-8.67-5.73-3.3-2.03-6.74-3.65-9.48-4.97-2.69-1.17-4.56-1.93-4.56-1.93,0,0-.2.46-.61,1.22-.41.76-.91,1.93-1.47,3.3-.61,1.37-1.27,2.94-1.93,4.66-.66,1.72-1.27,3.55-1.88,5.32-1.22,3.6-2.13,7.2-2.79,9.84-.56,2.64-.91,4.41-.91,4.41,0,0-1.62-.51-4.11-1.12-1.27-.3-2.74-.61-4.31-.91-1.57-.25-3.3-.51-5.02-.76-3.5-.46-6.95-.61-9.63-.66-2.64,0-4.41.1-4.41.1l3.35,3.65h4.36c2.64.15,6.03.35,9.43.91,1.67.25,3.35.56,4.92.91s2.99.71,4.21,1.06c2.43.66,4.01,1.22,4.01,1.22,0,0,.3-1.72.81-4.31.56-2.53,1.42-6.08,2.48-9.58.56-1.77,1.12-3.55,1.72-5.22.61-1.67,1.22-3.19,1.77-4.56.56-1.37,1.01-2.48,1.37-3.24.35-.76.56-1.22.56-1.22,0,0,1.83.76,4.41,1.98,2.64,1.37,5.93,3.04,9.13,5.12,3.19,1.98,6.19,4.16,8.31,5.78,1.06.81,1.93,1.52,2.54,2.03.61.51.96.81.96.81,0,0,.81-1.47,2.18-3.65,1.37-2.13,3.3-5.02,5.42-7.81,2.13-2.74,4.46-5.53,6.34-7.4,1.83-1.93,3.14-3.19,3.14-3.19v-5.32s-1.37,1.27-3.3,3.19c-1.93,1.88-4.41,4.61-6.64,7.35l.05.05Z"/>
            <path class="cls-7" d="m175.09,229.8c0-1.62-.05-3.35-.05-4.92s.1-3.09.15-4.36c.1-2.64.25-4.36.25-4.36l-3.35-3.65s-.2,1.77-.35,4.51c-.05,1.32-.15,2.84-.2,4.51v5.07c0,3.4.25,6.69.46,9.08.25,2.38.41,3.95.41,3.95,0,0-1.72.2-4.21.76-1.27.25-2.74.61-4.31,1.01-1.52.46-3.19.96-4.82,1.57-3.24,1.17-6.44,2.59-8.72,3.85-2.28,1.22-3.8,2.13-3.8,2.13,0,0,.1.46.3,1.22.2.76.51,1.88.86,3.19.66,2.59,1.77,5.93,2.79,9.08,1.17,3.19,2.18,6.13,3.09,8.26.41,1.06.76,1.93,1.01,2.53.25.61.41.96.41.96,0,0-1.12.91-2.74,2.43-1.62,1.52-3.55,3.65-5.37,5.98-1.72,2.33-3.35,4.77-4.26,6.69-1.01,1.93-1.57,3.24-1.57,3.24h2.84s.61-1.27,1.67-3.14c1.01-1.88,2.74-4.21,4.51-6.44,1.93-2.23,3.85-4.31,5.58-5.73,1.67-1.42,2.79-2.33,2.79-2.33,0,0-.15-.35-.41-.91-.25-.61-.56-1.42-.96-2.43-.86-2.08-1.88-4.92-2.99-7.96-.96-2.99-2.08-6.24-2.69-8.72-.35-1.27-.66-2.33-.86-3.04-.2-.76-.3-1.17-.3-1.17,0,0,1.52-.86,3.8-1.98,2.28-1.17,5.48-2.43,8.72-3.5,1.62-.51,3.3-.96,4.82-1.37,1.57-.35,3.04-.66,4.26-.86,2.48-.46,4.21-.61,4.21-.61,0,0-.2-1.52-.46-3.8-.2-2.28-.51-5.48-.56-8.72l.05-.05Z"/>
          </g>
          <path class="cls-5" d="m164.95,249.07s-2.48.76-4.87,1.72c-2.38.96-4.72,2.13-4.72,2.13,0,0,.15.61.46,1.57.25.91.61,2.13.96,3.35.35,1.17.71,2.38,1.01,3.24.3.86.51,1.42.51,1.42,0,0,.35-.86.86-2.18.61-1.27,1.37-2.99,2.18-4.66.91-1.67,1.72-3.35,2.43-4.56.71-1.22,1.17-2.03,1.17-2.03Z"/>
          <path class="cls-7" d="m143.4,279.44s.35-.46.91-1.22c.56-.71,1.32-1.62,2.18-2.53,1.67-1.77,3.45-3.45,3.45-3.45,0,0-.96-2.28-1.88-4.61-.51-1.22-.91-2.38-1.27-3.3s-.56-1.57-.56-1.57c0,0-.25,1.01-.66,2.59-.35,1.52-.76,3.65-1.17,5.68-.3,2.08-.61,4.16-.81,5.73-.15,1.57-.2,2.64-.2,2.64v.05Z"/>
          <path class="cls-7" d="m155.97,239.08s.66-.2,1.57-.56c.96-.35,2.23-.76,3.55-1.12s2.64-.71,3.6-.91c.96-.25,1.67-.35,1.67-.35,0,0-.25-2.74-.51-5.48-.15-2.74-.25-5.63-.25-5.63,0,0-.66.86-1.67,2.08s-2.23,2.99-3.45,4.72c-1.22,1.77-2.33,3.6-3.19,4.92-.81,1.37-1.32,2.33-1.32,2.33Z"/>
          <g>
            <path class="cls-4" d="m322.52,220.42c-2.79.3-5.48.71-5.48.71,0,0,1.47,1.17,2.94,2.28,1.42,1.17,2.84,2.43,2.84,2.43l5.27-5.78s-2.79.05-5.58.35Z"/>
            <path class="cls-4" d="m257.47,195.83c-1.88-2.18-3.85-4.31-3.85-4.31v8.37s1.88.1,3.75.15c.91,0,1.88.05,2.53.15.71.05,1.17.1,1.17.1,0,0-.46-.56-1.06-1.42-.66-.86-1.57-1.98-2.48-3.04h-.05Z"/>
            <path class="cls-4" d="m357.71,288.57c-.61-.96-1.37-1.88-1.93-2.53s-.91-1.12-.91-1.12c0,0,.05.46.15,1.17s.25,1.67.3,2.59c.15,1.93.35,3.8.35,3.8h4.51s-1.17-2.03-2.43-3.9h-.05Z"/>
            <path class="cls-4" d="m328.2,221.84c-.05-1.06-.1-1.72-.1-1.72l-5.27,5.78s.35.3.86.76,1.17,1.12,1.88,1.72c.66.66,1.37,1.27,1.88,1.77.51.51.81.86.81.86,0,0,0-.66.05-1.67v-3.7c0-1.37,0-2.74-.1-3.8h0Z"/>
            <path class="cls-4" d="m179.09,220.12l5.27,5.78s1.42-1.22,2.84-2.43c1.47-1.17,2.94-2.28,2.94-2.28,0,0-2.69-.46-5.48-.71-2.74-.25-5.58-.35-5.58-.35Z"/>
            <path class="cls-4" d="m247.23,198.88c-.66.86-1.06,1.42-1.06,1.42,0,0,.46,0,1.17-.1.71-.05,1.62-.15,2.54-.15,1.88-.1,3.75-.15,3.75-.15v-8.37s-2.03,2.13-3.85,4.31c-.91,1.06-1.83,2.18-2.48,3.04h-.05Z"/>
            <path class="cls-4" d="m149.48,288.57c-1.32,1.88-2.43,3.9-2.43,3.9h4.51s.15-1.93.35-3.8c.05-.96.2-1.88.3-2.59.1-.71.15-1.17.15-1.17,0,0-.35.46-.91,1.12s-1.27,1.62-1.93,2.53h-.05Z"/>
            <path class="cls-4" d="m178.99,221.84c0,1.06-.05,2.43-.1,3.8v3.7c0,1.01.05,1.67.05,1.67,0,0,.3-.35.81-.86s1.17-1.12,1.88-1.77c.66-.66,1.37-1.27,1.88-1.72s.86-.76.86-.76l-5.27-5.78s0,.71-.1,1.72Z"/>
          </g>
        </g>
        <g>
          <g>
            <path class="cls-2" d="m149.94,312.29c0,1.47-1.22,2.69-2.69,2.69h0c-1.47,0-2.69-1.22-2.69-2.69v-17.09c0-1.47,1.22-2.69,2.69-2.69h0c1.47,0,2.69,1.22,2.69,2.69v17.09Z"/>
            <g>
              <path class="cls-5" d="m147.25,512s19.77-22.71,20.23-69.92c.46-47.15-20.23-108.9-20.23-108.9,0,0-20.69,61.75-20.23,108.9.46,47.2,20.23,69.92,20.23,69.92Z"/>
              <path class="cls-4" d="m127.73,455.57c9.18-14.2,16.98-24.49,19.52-27.78,2.54,3.3,10.34,13.59,19.52,27.78.1-1.22.2-2.43.3-3.65-10.49-16.02-18.86-26.52-18.96-26.67l-.86-1.12-.86,1.12s-8.47,10.65-18.96,26.67c.1,1.22.2,2.43.3,3.65Z"/>
              <path class="cls-15" d="m147.25,319.34s-4.21,13.13-4.31,40.36c-.1,27.23,4.31,62.87,4.31,62.87,0,0,4.41-35.64,4.31-62.87s-4.31-40.36-4.31-40.36Z"/>
              <path class="cls-9" d="m166.11,461.65c-10.09-16.22-18.81-27.18-18.81-27.18,0,0-8.77,11-18.86,27.18,4.56,33.87,18.86,50.35,18.86,50.35,0,0,14.25-16.43,18.81-50.35Z"/>
              <path class="cls-14" d="m127.02,442.08c.46,47.2,20.23,69.92,20.23,69.92v-178.82s-20.69,61.75-20.23,108.9Z"/>
            </g>
            <path class="cls-9" d="m155.31,333.49c0,2.79-2.28,5.07-5.07,5.07h-5.98c-2.79,0-5.07-2.28-5.07-5.07h0c0-2.79,2.28-5.07,5.07-5.07h5.98c2.79,0,5.07,2.28,5.07,5.07h0Z"/>
            <path class="cls-2" d="m161.04,323.35c0,2.79-2.28,5.07-5.07,5.07h-17.44c-2.79,0-5.07-2.28-5.07-5.07h0c0-2.79,2.28-5.07,5.07-5.07h17.44c2.79,0,5.07,2.28,5.07,5.07h0Z"/>
            <path class="cls-9" d="m155.31,313.15c0,2.79-2.28,5.07-5.07,5.07h-5.98c-2.79,0-5.07-2.28-5.07-5.07h0c0-2.79,2.28-5.07,5.07-5.07h5.98c2.79,0,5.07,2.28,5.07,5.07h0Z"/>
          </g>
          <g>
            <path class="cls-2" d="m136.05,308.69c-.46,1.17-1.77,1.72-2.89,1.27h0c-1.17-.46-1.72-1.77-1.27-2.89l5.22-13.18c.46-1.17,1.77-1.72,2.89-1.27h0c1.17.46,1.67,1.72,1.27,2.89l-5.22,13.18Z"/>
            <g>
              <path class="cls-7" d="m72.77,461.71s22.21-11.46,37.01-47.66c14.8-36.2,17.85-90.09,17.85-90.09,0,0-34.83,41.22-48.98,77.67-14.09,36.45-5.88,60.03-5.88,60.03v.05Z"/>
              <path class="cls-11" d="m75,412.27c11.41-8.11,20.58-13.69,23.58-15.41.96,3.3,3.8,13.64,6.49,27.38.46-.86.91-1.77,1.32-2.74-3.14-15.56-6.39-26.21-6.44-26.31l-.35-1.12-1.01.56s-9.79,5.58-22.76,14.7c-.3.96-.61,1.93-.91,2.89l.1.05Z"/>
              <path class="cls-15" d="m131.84,313.31s-7.25,8.82-15.67,29.76-15.97,49.74-15.97,49.74c0,0,14.3-26.11,22.61-47.1,8.26-20.99,9.08-32.4,9.08-32.4h-.05Z"/>
              <path class="cls-2" d="m102.69,428.7c-2.79-15.56-6.19-26.72-6.19-26.72,0,0-10.14,5.78-22.87,15.16-6.9,27.48-.91,44.51-.91,44.51,0,0,16.02-8.26,29.91-32.96h.05Z"/>
              <path class="cls-14" d="m78.6,401.63c-14.09,36.45-5.88,60.03-5.88,60.03l54.81-137.7s-34.83,41.22-48.98,77.67h.05Z"/>
            </g>
            <path class="cls-9" d="m133.71,326.69c-.86,2.18-3.3,3.19-5.48,2.33l-4.61-1.83c-2.18-.86-3.19-3.3-2.33-5.48h0c.86-2.18,3.3-3.19,5.48-2.33l4.61,1.83c2.18.86,3.19,3.3,2.33,5.48h0Z"/>
            <path class="cls-2" d="m141.22,320.61c-.86,2.18-3.3,3.19-5.48,2.33l-13.44-5.32c-2.18-.86-3.19-3.3-2.33-5.48h0c.86-2.18,3.3-3.19,5.48-2.33l13.44,5.32c2.18.86,3.19,3.3,2.33,5.48h0Z"/>
            <path class="cls-9" d="m139.95,311.03c-.86,2.18-3.3,3.19-5.48,2.33l-4.61-1.83c-2.18-.86-3.19-3.3-2.33-5.48h0c.86-2.18,3.3-3.19,5.48-2.33l4.61,1.83c2.18.86,3.19,3.3,2.33,5.48h0Z"/>
          </g>
          <path class="cls-2" d="m163.12,293.08c0,1.57-1.27,2.84-2.84,2.84h-26.06c-1.57,0-2.84-1.27-2.84-2.84h0c0-1.57,1.27-2.84,2.84-2.84h26.06c1.57,0,2.84,1.27,2.84,2.84h0Z"/>
          <g>
            <path class="cls-2" d="m357.25,312.29c0,1.47,1.22,2.69,2.69,2.69h0c1.47,0,2.69-1.22,2.69-2.69v-17.09c0-1.47-1.22-2.69-2.69-2.69h0c-1.47,0-2.69,1.22-2.69,2.69v17.09Z"/>
            <g>
              <path class="cls-5" d="m359.94,512s-19.77-22.71-20.23-69.92c-.46-47.15,20.23-108.9,20.23-108.9,0,0,20.69,61.75,20.23,108.9-.46,47.2-20.23,69.92-20.23,69.92Z"/>
              <path class="cls-4" d="m379.46,455.57c-9.18-14.2-16.98-24.49-19.52-27.78-2.53,3.3-10.34,13.59-19.52,27.78-.1-1.22-.2-2.43-.3-3.65,10.49-16.02,18.86-26.52,18.96-26.67l.86-1.12.86,1.12s8.47,10.65,18.96,26.67c-.1,1.22-.2,2.43-.3,3.65Z"/>
              <path class="cls-15" d="m359.94,319.34s4.21,13.13,4.31,40.36c.1,27.23-4.31,62.87-4.31,62.87,0,0-4.41-35.64-4.31-62.87.1-27.23,4.31-40.36,4.31-40.36Z"/>
              <path class="cls-9" d="m341.08,461.65c10.09-16.22,18.81-27.18,18.81-27.18,0,0,8.77,11,18.86,27.18-4.56,33.87-18.86,50.35-18.86,50.35,0,0-14.25-16.43-18.81-50.35Z"/>
              <path class="cls-14" d="m380.17,442.08c-.46,47.2-20.23,69.92-20.23,69.92v-178.82s20.69,61.75,20.23,108.9Z"/>
            </g>
            <path class="cls-9" d="m351.88,333.49c0,2.79,2.28,5.07,5.07,5.07h5.98c2.79,0,5.07-2.28,5.07-5.07h0c0-2.79-2.28-5.07-5.07-5.07h-5.98c-2.79,0-5.07,2.28-5.07,5.07h0Z"/>
            <path class="cls-2" d="m346.15,323.35c0,2.79,2.28,5.07,5.07,5.07h17.44c2.79,0,5.07-2.28,5.07-5.07h0c0-2.79-2.28-5.07-5.07-5.07h-17.44c-2.79,0-5.07,2.28-5.07,5.07h0Z"/>
            <path class="cls-9" d="m351.88,313.15c0,2.79,2.28,5.07,5.07,5.07h5.98c2.79,0,5.07-2.28,5.07-5.07h0c0-2.79-2.28-5.07-5.07-5.07h-5.98c-2.79,0-5.07,2.28-5.07,5.07h0Z"/>
          </g>
          <g>
            <path class="cls-2" d="m371.09,308.69c.46,1.17,1.77,1.72,2.89,1.27h0c1.17-.46,1.72-1.77,1.27-2.89l-5.22-13.18c-.46-1.17-1.77-1.72-2.89-1.27h0c-1.17.46-1.67,1.72-1.27,2.89l5.22,13.18Z"/>
            <g>
              <path class="cls-7" d="m434.42,461.71s-22.21-11.46-37.01-47.66c-14.8-36.2-17.85-90.09-17.85-90.09,0,0,34.83,41.22,48.98,77.67,14.09,36.45,5.88,60.03,5.88,60.03v.05Z"/>
              <path class="cls-11" d="m432.14,412.27c-11.41-8.11-20.58-13.69-23.58-15.41-.96,3.3-3.8,13.64-6.49,27.38-.46-.86-.91-1.77-1.32-2.74,3.14-15.56,6.39-26.21,6.44-26.31l.35-1.12,1.01.56s9.79,5.58,22.76,14.7c.3.96.61,1.93.91,2.89l-.1.05Z"/>
              <path class="cls-15" d="m375.35,313.31s7.25,8.82,15.67,29.76c8.42,20.94,15.97,49.74,15.97,49.74,0,0-14.3-26.11-22.61-47.1-8.26-20.99-9.08-32.4-9.08-32.4h.05Z"/>
              <path class="cls-2" d="m404.5,428.7c2.79-15.56,6.19-26.72,6.19-26.72,0,0,10.14,5.78,22.87,15.16,6.9,27.48.91,44.51.91,44.51,0,0-16.02-8.26-29.91-32.96h-.05Z"/>
              <path class="cls-14" d="m428.54,401.63c14.09,36.45,5.88,60.03,5.88,60.03l-54.81-137.7s34.83,41.22,48.98,77.67h-.05Z"/>
            </g>
            <path class="cls-9" d="m373.48,326.69c.86,2.18,3.3,3.19,5.48,2.33l4.61-1.83c2.18-.86,3.19-3.3,2.33-5.48h0c-.86-2.18-3.3-3.19-5.48-2.33l-4.61,1.83c-2.18.86-3.19,3.3-2.33,5.48h0Z"/>
            <path class="cls-2" d="m365.97,320.61c.86,2.18,3.3,3.19,5.48,2.33l13.44-5.32c2.18-.86,3.19-3.3,2.33-5.48h0c-.86-2.18-3.3-3.19-5.48-2.33l-13.44,5.32c-2.18.86-3.19,3.3-2.33,5.48h0Z"/>
            <path class="cls-9" d="m367.24,311.03c.86,2.18,3.3,3.19,5.48,2.33l4.61-1.83c2.18-.86,3.19-3.3,2.33-5.48h0c-.86-2.18-3.3-3.19-5.48-2.33l-4.61,1.83c-2.18.86-3.19,3.3-2.33,5.48h0Z"/>
          </g>
          <path class="cls-2" d="m344.07,293.08c0,1.57,1.27,2.84,2.84,2.84h26.06c1.57,0,2.84-1.27,2.84-2.84h0c0-1.57-1.27-2.84-2.84-2.84h-26.06c-1.57,0-2.84,1.27-2.84,2.84h0Z"/>
        </g>
      </g>
    </g>
  </g>
</svg>