<?xml version="1.0" encoding="UTF-8"?>
<svg xmlns="http://www.w3.org/2000/svg" viewBox="0 0 500 575">
  <defs>
    <style>
      .cls-1 {
        fill: #262626;
      }

      .cls-1, .cls-2, .cls-3, .cls-4, .cls-5, .cls-6, .cls-7, .cls-8 {
        stroke-width: 0px;
      }

      .cls-2 {
        fill: #241816;
      }

      .cls-3 {
        fill: #fff;
      }

      .cls-4 {
        fill: #f4d075;
      }

      .cls-5 {
        fill: #d8b76c;
      }

      .cls-6 {
        fill: #4580c6;
      }

      .cls-7 {
        fill: #e7d8b4;
      }

      .cls-8 {
        fill: #cf9e76;
      }

      .cls-9 {
        fill: #fcd770;
        stroke: #000;
        stroke-miterlimit: 10;
      }
    </style>
  </defs>
  <g id="Capa_1" data-name="Capa 1">
    <g>
      <path class="cls-7" d="m250,573c-66.51,0-129.04-25.9-176.07-72.93C26.9,453.04,1,390.51,1,324s25.9-129.04,72.93-176.07c47.03-47.03,109.56-72.93,176.07-72.93s129.04,25.9,176.07,72.93c47.03,47.03,72.93,109.56,72.93,176.07s-25.9,129.04-72.93,176.07c-47.03,47.03-109.56,72.93-176.07,72.93Z"/>
      <path class="cls-2" d="m250,76c33.48,0,65.96,6.56,96.53,19.49,29.53,12.49,56.05,30.37,78.83,53.15,22.78,22.78,40.66,49.3,53.15,78.83,12.93,30.57,19.49,63.05,19.49,96.53s-6.56,65.96-19.49,96.53c-12.49,29.53-30.37,56.05-53.15,78.83-22.78,22.78-49.3,40.66-78.83,53.15-30.57,12.93-63.05,19.49-96.53,19.49s-65.96-6.56-96.53-19.49c-29.53-12.49-56.05-30.37-78.83-53.15-22.78-22.78-40.66-49.3-53.15-78.83-12.93-30.57-19.49-63.05-19.49-96.53s6.56-65.96,19.49-96.53c12.49-29.53,30.37-56.05,53.15-78.83s49.3-40.66,78.83-53.15c30.57-12.93,63.05-19.49,96.53-19.49m0-2C111.93,74,0,185.93,0,324s111.93,250,250,250,250-111.93,250-250-111.93-250-250-250h0Z"/>
    </g>
  </g>
  <g id="Capa_2" data-name="Capa 2">
    <g>
      <path class="cls-5" d="m429.3,497.18c-2.1,0-3.8-1.7-3.8-3.8,0-1.04.43-2.03,1.18-2.75l14.93-14.25-26.68,15.4c-1.82,1.04-4.14.41-5.18-1.41-.91-1.59-.55-3.59.84-4.78l20.89-17.65-25.56,14.73c-1.83,1.03-4.14.38-5.17-1.45-.92-1.64-.5-3.71.99-4.87l11.77-8.85-11.33,6.54c-1.83,1.03-4.14.38-5.17-1.45-.92-1.63-.51-3.69.96-4.85l17.97-13.8-14.74,8.52c-1.83,1.03-4.14.38-5.17-1.45-.92-1.64-.5-3.71.99-4.87l13.75-10.39-9.64,5.57c-1.83,1.03-4.14.39-5.17-1.44-.93-1.65-.5-3.74,1-4.89l10.59-7.95-6.61,3.8c-1.82,1.04-4.14.41-5.18-1.41-.96-1.67-.51-3.79,1.03-4.93l4.56-3.36-.76.44c-1.83,1.03-4.14.39-5.17-1.44-.9-1.59-.54-3.59.85-4.77l21.73-18.02-18.44,10.63c-1.82,1.04-4.14.4-5.18-1.43-.92-1.61-.53-3.65.91-4.82l14.88-11.91-12.04,6.95c-1.82,1.04-4.14.42-5.18-1.4-.94-1.64-.53-3.73.97-4.89l6.56-5.03-3.99,2.28c-1.82,1.04-4.14.41-5.18-1.42-.93-1.64-.53-3.71.96-4.87l6.45-5-4.34,2.51c-1.82,1.05-4.14.42-5.18-1.4-.92-1.6-.56-3.62.86-4.81l14.09-11.74-13.07,7.55c-1.82,1.05-4.14.42-5.19-1.39-.91-1.58-.57-3.58.81-4.77l15.32-13.14-15.26,8.81c-1.82,1.04-4.14.41-5.18-1.41-.91-1.59-.56-3.61.85-4.79l12.29-10.33-11.34,6.54c-1.82,1.04-4.14.41-5.18-1.42-.93-1.64-.53-3.71.96-4.87l3.04-2.35c-1.23.1-2.41-.49-3.08-1.52-1.16-1.53-.99-3.68.38-5.01l15.05-14.56-9.36,5.4c-1.83,1.03-4.14.39-5.17-1.43-.89-1.57-.55-3.54.8-4.72l2.98-2.57c-2.09-.09-3.72-1.87-3.62-3.96.03-.74.28-1.45.71-2.04l16.71-23.31c-.72-1.76-.03-3.78,1.62-4.73l3.74-2.16c1.82-1.04,4.14-.42,5.18,1.4.74,1.29.66,2.89-.2,4.1l-10.63,14.85,15.23-8.79c1.83-1.03,4.14-.39,5.17,1.43.89,1.57.55,3.54-.8,4.72l-.58.51.87-.5c1.81-1.06,4.14-.45,5.19,1.36.88,1.51.62,3.43-.64,4.64l-15.03,14.6,17.62-10.17c1.82-1.04,4.14-.41,5.18,1.42.93,1.64.53,3.71-.96,4.87l-.2.16h.05c1.83-1.03,4.14-.38,5.17,1.45.89,1.58.54,3.56-.83,4.74l-12.36,10.32,13.12-7.59c1.83-1.03,4.14-.39,5.17,1.43.89,1.57.55,3.54-.8,4.72l-15.29,13.18,16.16-9.33c1.82-1.05,4.14-.42,5.18,1.4.92,1.6.56,3.62-.86,4.81l-14.08,11.72,14.27-8.23c1.81-1.06,4.14-.44,5.19,1.37.96,1.65.55,3.75-.96,4.92l-6.45,5,5.61-3.23c1.83-1.03,4.14-.38,5.17,1.45.92,1.63.51,3.69-.96,4.85l-6.58,5.06,5.48-3.16c1.82-1.04,4.14-.4,5.18,1.43.92,1.61.53,3.65-.91,4.82l-14.88,11.91,13.97-8.06c1.81-1.06,4.13-.46,5.2,1.35.95,1.61.58,3.68-.87,4.86l-21.73,18.01,20.86-12.04c1.82-1.04,4.14-.41,5.18,1.41.96,1.67.51,3.79-1.03,4.93l-4.56,3.34,2.38-1.37c1.74-1,3.96-.48,5.07,1.19,1.11,1.68.72,3.93-.89,5.13l-10.61,7.94,8.41-4.84c1.82-1.04,4.14-.41,5.18,1.41.95,1.66.52,3.76-1,4.91l-13.78,10.4,11.3-6.52c1.82-1.05,4.14-.43,5.19,1.39.95,1.65.53,3.76-.98,4.91l-17.96,13.82,15.19-8.77c1.74-1,3.96-.48,5.07,1.19,1.11,1.67.72,3.92-.88,5.13l-11.7,8.81,8.43-4.87c1.82-1.04,4.14-.41,5.18,1.41.91,1.59.55,3.59-.84,4.78l-20.91,17.67,17.18-9.93c1.79-1.09,4.13-.53,5.22,1.26.95,1.55.67,3.54-.66,4.77l-14.91,14.24,9.45-5.45c1.81-1.06,4.14-.45,5.2,1.36,1.06,1.81.45,4.14-1.36,5.2-.01,0-.03.02-.04.02l-36.84,21.26c-.58.34-1.23.52-1.9.52Z"/>
      <path class="cls-5" d="m53.78,497.06c-2.1,0-3.79-1.71-3.79-3.81,0-1.01.41-1.98,1.13-2.7l20.23-19.94-32.39,18.7c-1.82,1.04-4.14.41-5.18-1.41-.95-1.66-.52-3.76,1-4.91l8.74-6.59-10.36,5.98c-1.81,1.06-4.14.45-5.2-1.35-.98-1.67-.55-3.81,1-4.96l15.95-12.09-15.32,8.85c-1.8,1.08-4.13.49-5.21-1.3-.98-1.64-.59-3.76.91-4.94l31.99-25.96-27.95,16.14c-1.83,1.02-4.14.36-5.16-1.47-.92-1.65-.49-3.72,1.01-4.86l16.87-12.46-12.02,6.94c-1.83,1.03-4.14.38-5.17-1.45-.92-1.64-.5-3.71.99-4.87l23.54-17.69-18.02,10.39c-1.83,1.03-4.14.38-5.17-1.45-.91-1.62-.52-3.65.93-4.82l39.03-30.83-31.81,18.37c-1.82,1.05-4.14.43-5.19-1.39-.95-1.65-.53-3.76.98-4.91l34.99-26.69-26.71,15.42c-1.81,1.06-4.14.46-5.2-1.35-1-1.7-.53-3.89,1.09-5.03l15.64-11.19-7.68,4.43c-1.82,1.04-4.14.41-5.18-1.41-.92-1.61-.55-3.65.89-4.83l38.05-30.7-25.23,14.56c-1.82,1.04-4.14.41-5.18-1.41-.93-1.63-.54-3.69.93-4.86l18.22-14.37-5.6,3.23c-1.79,1.09-4.13.52-5.22-1.27-.95-1.56-.65-3.58.71-4.8l18.34-17.26c-1.55.62-3.33.16-4.4-1.12-1.15-1.45-1.09-3.52.14-4.9l14.75-16.55c-.55-1.7.16-3.56,1.72-4.46l5.16-2.97c1.82-1.05,4.14-.43,5.19,1.39.82,1.42.64,3.2-.46,4.43l-5.03,5.65,7.24-4.17c1.8-1.08,4.13-.49,5.21,1.31.93,1.56.63,3.55-.71,4.77l-18.22,17.16,23.13-13.4c1.82-1.04,4.14-.41,5.18,1.41.93,1.63.54,3.69-.93,4.86l-18.26,14.4,21.7-12.52c1.83-1.03,4.14-.38,5.17,1.44.9,1.6.53,3.62-.89,4.79l-38.04,30.68,33.41-19.27c1.75-1.01,3.99-.47,5.09,1.23,1.1,1.7.67,3.97-.98,5.15l-15.68,11.19,10.15-5.85c1.82-1.05,4.14-.43,5.19,1.39.95,1.65.53,3.76-.98,4.91l-35.01,26.68,25.86-14.89c1.83-1.03,4.14-.38,5.17,1.45.91,1.62.52,3.65-.93,4.82l-39.02,30.79,26.95-15.57c1.83-1.03,4.14-.38,5.17,1.45.92,1.64.5,3.71-.99,4.87l-23.54,17.69,16.11-9.3c1.82-1.04,4.14-.41,5.18,1.41.96,1.67.51,3.79-1.03,4.93l-16.84,12.45,11.05-6.38c1.81-1.06,4.14-.45,5.19,1.36.95,1.62.57,3.69-.9,4.87l-32.02,25.99,26.46-15.28c1.81-1.06,4.14-.45,5.2,1.35.98,1.67.55,3.81-1,4.96l-15.95,12.07,11.39-6.56c1.82-1.04,4.14-.41,5.18,1.41.95,1.66.52,3.76-1,4.91l-8.74,6.59,4.43-2.56c1.82-1.04,4.14-.4,5.18,1.42.85,1.49.59,3.36-.62,4.57l-20.24,19.95,14.91-8.6c1.82-1.04,4.14-.4,5.18,1.42.86,1.51.59,3.41-.66,4.61l-6.98,6.61c.58.34,1.06.82,1.4,1.4,1.05,1.81.43,4.14-1.38,5.19l-18.03,10.41c-1.77,1.12-4.12.59-5.24-1.19-1-1.58-.69-3.66.72-4.89l1.11-1.06-12.91,7.46c-.57.35-1.23.54-1.91.55Z"/>
      <path class="cls-4" d="m311.62,557.94c-2.1,0-3.8-1.7-3.8-3.8,0-1,.4-1.97,1.11-2.68l19.99-20.1-35.94,20.73c-1.83,1.03-4.14.38-5.17-1.45-.88-1.57-.54-3.55.83-4.73l30.72-25.89-33.89,19.57c-1.82,1.05-4.14.42-5.18-1.4-.93-1.62-.55-3.67.9-4.85l35.95-29.05-33.6,19.39c-1.83,1.02-4.14.37-5.17-1.47-.9-1.6-.51-3.62.91-4.78l38.65-30.79-36.31,20.96c-1.82,1.03-4.14.39-5.18-1.43-.96-1.69-.49-3.84,1.1-4.96l11.49-8.06-10.79,6.23c-1.81,1.05-4.14.44-5.19-1.37-1-1.72-.51-3.91,1.13-5.04l12.25-8.47-14.63,8.44c-1.85.99-4.15.3-5.14-1.54-.9-1.67-.43-3.75,1.1-4.87l14.65-10.05-22.02,12.73c-1.82,1.03-4.14.4-5.18-1.43-.96-1.69-.49-3.84,1.1-4.97l39.49-27.71-59.23,34.21c-1.81,1.06-4.14.45-5.2-1.36-1.06-1.81-.45-4.14,1.36-5.2.01,0,.03-.02.04-.02l133.8-77.29c1.84-1.01,4.15-.34,5.16,1.5.92,1.67.46,3.76-1.08,4.89l-39.49,27.72,32.49-18.76c1.83-1.02,4.14-.36,5.16,1.47.94,1.69.46,3.82-1.12,4.94l-14.63,10.04,8.64-4.99c1.81-1.05,4.14-.44,5.19,1.37,1,1.72.51,3.91-1.13,5.04l-12.26,8.5,6.37-3.68c1.82-1.03,4.14-.39,5.18,1.43.96,1.69.49,3.84-1.1,4.96l-11.47,8.03,5.71-3.3c1.82-1.04,4.14-.4,5.18,1.43.92,1.61.53,3.65-.91,4.82l-38.68,30.82,31.61-18.22c1.82-1.04,4.14-.41,5.18,1.41.92,1.61.55,3.65-.89,4.83l-35.91,29.02,28.86-16.65c1.83-1.03,4.14-.38,5.17,1.45.88,1.57.54,3.55-.83,4.73l-30.71,25.92,23.61-13.67c1.84-1,4.15-.32,5.15,1.52.79,1.45.55,3.24-.59,4.44l-20,20.11,12.61-7.27c1.82-1.04,4.14-.41,5.18,1.41.83,1.45.61,3.27-.53,4.48l-5.88,6.23c1.94.8,2.86,3.02,2.06,4.96-.32.77-.88,1.42-1.61,1.84l-15.58,9c-1.83,1.03-4.14.39-5.17-1.43-.81-1.44-.6-3.24.52-4.45l2.35-2.5-14.83,8.57c-.57.34-1.23.53-1.9.53Z"/>
      <path class="cls-4" d="m361.05,198.71c-2.1,0-3.8-1.7-3.8-3.8,0-.99.39-1.95,1.09-2.66l10.18-10.38c-2.02-.57-3.2-2.66-2.63-4.68.27-.95.9-1.76,1.75-2.26l18.13-10.46c1.81-1.06,4.14-.45,5.19,1.36.87,1.48.63,3.36-.58,4.58l-7.19,7.33,19.49-11.25c1.86-.97,4.15-.25,5.12,1.6.91,1.75.34,3.91-1.33,4.96l-43.53,25.16c-.58.33-1.23.5-1.9.49Z"/>
      <path class="cls-4" d="m287.76,168.3c-2.1,0-3.79-1.7-3.79-3.8,0-1.15.53-2.24,1.43-2.96l4.69-3.72c-2.1-.04-3.77-1.77-3.73-3.86.02-1,.43-1.95,1.14-2.64l7.65-7.5c-.74-.33-1.36-.89-1.77-1.59-1.05-1.82-.43-4.14,1.39-5.19l18.22-10.52c1.82-1.05,4.14-.42,5.19,1.39.86,1.5.61,3.39-.63,4.61l-3.26,3.19,13.98-8.06c1.83-1.02,4.14-.37,5.17,1.46.9,1.61.52,3.64-.92,4.8l-1.78,1.41,8.83-5.09c1.77-1.12,4.12-.6,5.24,1.17,1.12,1.77.6,4.12-1.17,5.24-.09.06-.18.11-.28.16l-53.71,31c-.58.34-1.23.51-1.9.51Z"/>
      <path class="cls-4" d="m209.47,176.44c-2.1,0-3.79-1.71-3.79-3.8,0-1.22.59-2.36,1.58-3.08l5.11-3.67-1,.58c-1.84,1-4.15.32-5.15-1.52-.82-1.5-.53-3.37.71-4.55l26.45-23.85-22.02,12.7c-1.82,1.05-4.14.43-5.19-1.39-.78-1.36-.65-3.06.33-4.28l12.42-15.54-.56.32c-1.86.97-4.15.25-5.12-1.6-.91-1.75-.34-3.91,1.33-4.96l18.02-10.43c1.81-1.05,4.14-.43,5.19,1.38.78,1.35.66,3.05-.32,4.27l-12.43,15.54,35.69-20.62c1.84-1,4.15-.32,5.15,1.52.82,1.5.53,3.37-.71,4.55l-26.41,23.88,36.45-21.07c1.83-1.03,4.14-.39,5.17,1.44.95,1.68.49,3.8-1.07,4.93l-5.12,3.68,5.69-3.28c1.86-.97,4.15-.25,5.12,1.6.91,1.75.34,3.91-1.33,4.96l-72.29,41.76c-.58.34-1.23.51-1.9.51Z"/>
      <path class="cls-4" d="m137.15,202.97c-2.1,0-3.8-1.7-3.8-3.8,0-1.2.56-2.32,1.52-3.04l18.6-14.19-16.84,9.72c-1.82,1.04-4.14.42-5.18-1.4-.94-1.64-.53-3.73.97-4.89l17.22-13.24-15.45,8.92c-1.85.99-4.15.3-5.14-1.55-.8-1.5-.51-3.34.71-4.52l24.95-22.37-23.14,13.32c-1.82,1.04-4.14.41-5.18-1.41-.79-1.39-.63-3.13.4-4.34l11.06-12.91c-1.98.7-4.15-.33-4.85-2.31-.61-1.73.1-3.66,1.7-4.57l18.42-10.63c1.82-1.05,4.14-.43,5.19,1.39.8,1.39.64,3.14-.4,4.37l-10.93,12.76,35.52-20.5c1.85-.99,4.15-.3,5.14,1.55.8,1.5.51,3.34-.71,4.52l-24.94,22.4,33.7-19.45c1.82-1.04,4.14-.42,5.18,1.4.94,1.64.53,3.73-.97,4.89l-17.24,13.24,18.29-10.56c1.82-1.05,4.14-.43,5.19,1.39.95,1.65.53,3.75-.98,4.91l-18.6,14.2,17.11-9.87c1.86-.97,4.15-.25,5.12,1.6.91,1.75.34,3.91-1.33,4.96l-68.41,39.49c-.57.34-1.23.52-1.89.52Z"/>
      <path class="cls-4" d="m183.72,557.94c-2.1,0-3.8-1.69-3.8-3.79,0-1.04.42-2.03,1.17-2.75l5.84-5.61-19.8,11.43c-1.82,1.04-4.14.41-5.18-1.42-.93-1.64-.53-3.71.96-4.87l3.16-2.44-8.67,5c-1.81,1.06-4.14.45-5.19-1.36-.94-1.61-.58-3.66.86-4.84l27.16-22.72-31.29,18.07c-1.82,1.04-4.14.4-5.18-1.42-.99-1.73-.46-3.93,1.2-5.04l108.99-71.17-107.83,62.27c-1.8,1.08-4.13.49-5.21-1.31s-.49-4.13,1.31-5.21l32.22-20.02-29.74,17.18c-1.83,1.02-4.14.37-5.17-1.46-.98-1.75-.43-3.96,1.25-5.04l61.13-38.36-58.84,33.97c-1.79,1.08-4.13.51-5.21-1.29s-.51-4.13,1.29-5.21l84.86-53.74-82.77,47.8c-1.84,1-4.15.32-5.15-1.53-.94-1.74-.39-3.91,1.26-4.99l12.78-7.87-10.17,5.82c-1.84,1-4.15.32-5.15-1.53-.94-1.74-.39-3.91,1.26-4.99l16.22-9.94-13.59,7.84c-1.85.99-4.15.29-5.14-1.56-.92-1.72-.38-3.86,1.24-4.95l43.75-27.06-41.3,23.85c-1.8,1.09-4.14.51-5.22-1.28-1.09-1.8-.51-4.14,1.28-5.22l81.47-50.94-79.31,45.79c-1.8,1.07-4.13.48-5.21-1.33-1.07-1.8-.48-4.13,1.33-5.21l16.71-10.2-14.13,8.15c-1.79,1.08-4.13.51-5.21-1.29s-.51-4.13,1.29-5.21l122.52-77.54-120.92,69.82c-1.8,1.08-4.13.5-5.21-1.29-1.08-1.8-.5-4.13,1.29-5.21l108.48-67.84-106.89,61.71c-1.79,1.08-4.13.51-5.21-1.29s-.51-4.13,1.29-5.21l135.03-85.05-133.95,77.33c-1.83,1.03-4.14.38-5.17-1.44-.99-1.76-.43-3.99,1.28-5.07l98.98-61.24-97.6,56.35c-1.8,1.08-4.13.49-5.21-1.31-1.08-1.8-.49-4.13,1.31-5.21h0l96.51-59.61-95.27,55.01c-1.79,1.03-4.07.44-5.14-1.32-1.07-1.77-.53-4.07,1.21-5.18l149.94-94.75-149.76,86.49c-1.82,1.04-4.14.4-5.18-1.42-1.01-1.78-.44-4.04,1.31-5.11l23.12-14.06-21.52,12.39c-1.84,1.01-4.15.34-5.16-1.5-.95-1.72-.42-3.88,1.21-4.98l109.24-70.21-109.23,63.07c-1.79,1.09-4.13.53-5.22-1.26s-.53-4.13,1.26-5.22h0l117.7-75.66-118.07,68.17c-1.8,1.07-4.13.48-5.21-1.33-1.07-1.8-.48-4.13,1.33-5.21l5.27-3.22-3.92,2.28c-1.8,1.07-4.13.48-5.21-1.32-1.07-1.8-.48-4.13,1.32-5.21l14.6-8.94-13.34,7.7c-1.84,1.01-4.15.35-5.16-1.49-.97-1.75-.41-3.96,1.28-5.04l2.7-1.66-1.41.81c-1.84,1-4.15.32-5.15-1.53-.94-1.74-.39-3.91,1.26-4.99l33.76-20.78-32.94,18.98c-1.84,1.01-4.15.34-5.16-1.5-.95-1.73-.42-3.9,1.23-5l93.4-58.97-93.79,54.16c-1.84,1-4.15.31-5.15-1.53-.94-1.73-.4-3.88,1.24-4.97l19.92-12.5-19.19,11.07c-1.85.99-4.15.3-5.14-1.54-.91-1.69-.41-3.8,1.16-4.9l93.15-61.57-94.65,54.67c-1.79,1.11-4.14.55-5.25-1.24-1.11-1.79-.55-4.14,1.24-5.25l87.78-57.42-89.01,51.39c-1.81,1.05-4.14.44-5.19-1.37-1.02-1.75-.48-4,1.22-5.1l16.79-10.97-16.21,9.36c-1.8,1.08-4.13.5-5.21-1.3-1-1.67-.58-3.83.98-5l17.76-13.77-17.66,10.2c-1.81,1.05-4.14.44-5.19-1.37-.94-1.62-.56-3.67.89-4.85l25.2-20.72-25.91,14.97c-1.81,1.05-4.14.44-5.19-1.37-.97-1.67-.53-3.81,1.02-4.96l9.26-6.9-8.57,4.94c-1.81,1.05-4.14.43-5.19-1.38-.91-1.57-.58-3.56.78-4.76l24.06-21.26-22.2,12.85c-1.84,1-4.15.32-5.15-1.52-.79-1.45-.55-3.24.59-4.44l10.68-10.78c-2.01.61-4.13-.51-4.74-2.52-.51-1.68.19-3.49,1.7-4.38l23.77-13.72c1.82-1.05,4.14-.42,5.19,1.39.85,1.48.61,3.35-.59,4.57l-10.54,10.56,30.37-17.53c1.81-1.05,4.14-.43,5.19,1.38.91,1.57.58,3.56-.78,4.76l-24.07,21.26,31.89-18.41c1.81-1.05,4.14-.44,5.19,1.37.97,1.67.53,3.81-1.02,4.96l-9.27,6.9,9.7-5.59c1.82-1.04,4.14-.4,5.18,1.42.91,1.6.54,3.62-.87,4.8l-25.23,20.7,25.99-15c1.82-1.04,4.14-.41,5.18,1.42.93,1.64.53,3.71-.96,4.87l-17.77,13.77,86.38-49.85c1.78-1.02,4.05-.45,5.13,1.3,1.08,1.75.57,4.05-1.15,5.17l-16.73,10.91,88.5-51.08c1.82-1.04,4.14-.4,5.18,1.42.99,1.73.46,3.93-1.2,5.04l-87.8,57.44,85.53-49.36c1.85-.99,4.15-.3,5.14,1.54.91,1.69.41,3.8-1.16,4.9l-93.14,61.55,89.15-51.47c1.82-1.05,4.14-.42,5.19,1.39,1.02,1.77.46,4.03-1.28,5.12l-19.92,12.49,81.7-47.16c1.79-1.08,4.13-.51,5.21,1.29,1.08,1.79.51,4.13-1.29,5.21l-93.31,58.91,98.31-56.73c1.84-1,4.15-.32,5.15,1.53.94,1.74.39,3.91-1.26,4.99l-33.85,20.82,33.78-19.52c1.84-1.01,4.15-.35,5.16,1.49.97,1.75.41,3.96-1.28,5.04l-2.67,1.63.12-.06c1.84-1.01,4.15-.35,5.16,1.49.97,1.75.41,3.96-1.28,5.04l-14.74,9.03,9.58-5.53c1.85-.99,4.15-.29,5.14,1.56.93,1.73.38,3.89-1.27,4.96l-5.87,3.59c1.9-.89,4.16-.07,5.05,1.83.81,1.74.2,3.82-1.44,4.83l-117.7,75.65,109.43-63.18c1.81-1.06,4.14-.45,5.2,1.36,1.04,1.77.48,4.04-1.25,5.13l-109.24,70.23,172.2-99.42c1.82-1.04,4.14-.4,5.18,1.42,1.01,1.78.44,4.04-1.31,5.11l-22.98,13.97,25.45-14.69c1.82-1.04,4.14-.41,5.18,1.41,1,1.76.45,3.99-1.25,5.08l-149.97,94.78,152.28-87.94c1.84-1,4.15-.32,5.15,1.53.94,1.74.39,3.91-1.26,4.99l-96.51,59.61,92.27-53.22c1.86-.97,4.15-.25,5.12,1.61.89,1.71.36,3.81-1.23,4.89l-99.08,61.27,88.64-51.17c1.79-1.08,4.13-.51,5.21,1.29s.51,4.13-1.29,5.21h0l-134.98,85.03,122.26-70.62c1.8-1.08,4.13-.5,5.21,1.29,1.08,1.8.5,4.13-1.29,5.21l-108.51,67.9,96.89-55.94c1.82-1.04,4.14-.41,5.18,1.41,1,1.76.45,3.99-1.25,5.08l-122.51,77.52,110.31-63.67c1.85-.99,4.15-.29,5.14,1.56.93,1.73.38,3.89-1.27,4.96l-16.56,10.13,8.1-4.67c1.84-1,4.15-.31,5.15,1.53.94,1.73.4,3.88-1.24,4.97l-81.47,50.94,71.78-41.44c1.83-1.03,4.14-.38,5.17,1.44.99,1.76.43,3.99-1.28,5.07l-43.72,27.04,35.37-20.42c1.84-1,4.15-.32,5.15,1.53.94,1.74.39,3.91-1.26,4.99l-16.31,10.03,8.85-5.11c1.84-1.01,4.15-.35,5.16,1.49.97,1.75.41,3.96-1.28,5.04l-12.83,7.89,5.54-3.2c1.79-1.08,4.13-.51,5.21,1.29s.51,4.13-1.29,5.21l-84.8,53.7,76.38-44.1c1.82-1.05,4.14-.42,5.19,1.39,1.02,1.77.46,4.03-1.27,5.11l-61.19,38.4,53.79-31.05c1.83-1.03,4.14-.38,5.17,1.44.99,1.76.43,3.99-1.28,5.07l-32.17,19.99,25.47-14.7c1.81-1.05,4.14-.44,5.19,1.37,1.02,1.75.48,4-1.22,5.1l-155.01,101.2c.11.11.2.24.29.36,1.13,1.61.84,3.82-.68,5.09l-27.17,22.73,19.74-11.39c1.83-1.02,4.14-.37,5.17,1.46.91,1.63.51,3.67-.95,4.83l-4.21,3.27c2.05-.44,4.07.86,4.51,2.91.28,1.28-.13,2.61-1.07,3.53l-5.97,5.73c1.91-.86,4.16,0,5.02,1.91.83,1.84.07,4-1.72,4.93l-26.4,15.2c-.57.34-1.23.53-1.9.53Z"/>
      <path class="cls-3" d="m254.98,436.42c-2.1,0-3.8-1.69-3.81-3.78,0-.73.2-1.44.59-2.05l6.43-10.1-23.7,13.67c-1.82,1.04-4.14.41-5.18-1.41-.89-1.56-.57-3.53.78-4.72l8.47-7.45-10.79,6.22c-1.82,1.03-4.14.39-5.18-1.43-.81-1.43-.61-3.23.51-4.44l10.77-11.53-7.34,4.23c-1.82,1.05-4.14.42-5.18-1.4-.48-.83-.62-1.8-.41-2.73l2.33-10.24c-.81-.31-1.49-.89-1.91-1.64-1.04-1.81-.43-4.13,1.38-5.18l3.8-2.21c1.82-1.05,4.14-.42,5.18,1.4.48.83.62,1.8.41,2.73l-1.9,8.35,21.85-12.61c1.81-1.05,4.14-.43,5.19,1.38.84,1.45.63,3.27-.51,4.5l-10.75,11.52,21.86-12.6c1.82-1.04,4.14-.41,5.18,1.41.89,1.56.57,3.53-.78,4.72l-8.45,7.44,4.05-2.34c1.82-1.04,4.14-.42,5.18,1.4.7,1.22.67,2.72-.08,3.91l-6.55,10.26c2.01-.61,4.13.51,4.74,2.52.51,1.68-.19,3.49-1.7,4.38l-12.6,7.27c-.57.34-1.21.53-1.88.54Z"/>
      <path class="cls-3" d="m173.55,345.04c-2.1,0-3.8-1.7-3.8-3.8,0-1.2.56-2.32,1.52-3.04l9.05-6.83-17.74,10.24c-1.84,1.01-4.15.35-5.16-1.49-.92-1.66-.47-3.75,1.06-4.88l6.74-4.81-11.77,6.79c-1.82,1.04-4.14.4-5.18-1.42-.94-1.66-.51-3.76,1.02-4.91l22.45-16.71-27.55,15.95c-1.8,1.07-4.13.47-5.2-1.33-1.03-1.73-.52-3.96,1.15-5.09l1.63-1.12-2.86,1.64c-1.83,1.02-4.14.36-5.16-1.47-.93-1.67-.47-3.78,1.07-4.91l13.47-9.55-14.34,8.28c-1.83,1.02-4.14.37-5.17-1.46-.94-1.69-.47-3.81,1.1-4.94l5.32-3.69-4.46,2.57c-1.83,1.03-4.14.37-5.17-1.46-.93-1.65-.49-3.74,1.02-4.88l19.11-14.06-17.37,10.02c-1.82,1.04-4.14.42-5.18-1.4-.96-1.68-.51-3.82,1.06-4.96l8.46-6.07-4.64,2.67c-1.81,1.06-4.13.46-5.2-1.34-.91-1.55-.62-3.52.71-4.73l25.54-23.87c-2.07-.34-3.47-2.3-3.13-4.37.19-1.12.86-2.1,1.84-2.67l23.63-13.67c1.81-1.05,4.14-.44,5.19,1.38.89,1.54.6,3.49-.71,4.7l-22.78,21.19,40.17-23.15c1.82-1.04,4.14-.42,5.18,1.4.96,1.68.51,3.82-1.06,4.96l-8.46,6.07,12.31-7.11c1.83-1.03,4.14-.37,5.17,1.46.93,1.65.49,3.74-1.02,4.88l-19.13,14.08,22.96-13.19c1.83-1.02,4.14-.37,5.17,1.46.94,1.69.47,3.81-1.1,4.94l-5.25,3.66,6.83-3.92c1.82-1.05,4.14-.42,5.19,1.39.98,1.7.51,3.86-1.09,4.99l-13.53,9.56,15.1-8.72c1.8-1.07,4.13-.47,5.2,1.33,1.03,1.73.52,3.96-1.15,5.09l-1.66,1.14,2.07-1.19c1.82-1.04,4.14-.4,5.18,1.42.94,1.66.51,3.76-1.02,4.91l-22.45,16.68,23.15-13.36c1.82-1.04,4.14-.4,5.18,1.42.96,1.69.5,3.83-1.08,4.96l-6.69,4.77,1.81-1.03c1.82-1.04,4.14-.4,5.18,1.42.94,1.65.52,3.73-.99,4.89l-9.07,6.87.99-.56c1.82-1.04,4.14-.4,5.18,1.42.9,1.58.55,3.58-.83,4.76l-11,9.3c.53.33.96.78,1.27,1.32,1.04,1.81.42,4.13-1.39,5.18l-24.18,13.96c-1.82,1.04-4.14.4-5.18-1.42-.9-1.58-.55-3.58.83-4.76l2.28-1.94-16.71,9.64c-.58.33-1.25.5-1.92.49Z"/>
      <path class="cls-6" d="m179.32,314.91c-2.1,0-3.8-1.69-3.8-3.79,0-.99.38-1.94,1.07-2.65l3.16-3.27-10.49,6.07c-1.83,1.03-4.14.39-5.17-1.44-.88-1.56-.55-3.52.79-4.71l2.28-2-4.31,2.48c-1.82,1.04-4.14.41-5.18-1.41-.83-1.44-.62-3.25.51-4.47l12.84-13.67-12.73,7.35c-1.82,1.05-4.14.42-5.19-1.39-.79-1.38-.65-3.1.37-4.32l7.22-8.67c-2.1-.02-3.78-1.74-3.75-3.84.02-1.34.73-2.57,1.89-3.24l15.57-8.99c1.82-1.05,4.14-.42,5.19,1.39.79,1.38.65,3.1-.37,4.32l-6.25,7.5,16.55-9.57c1.81-1.05,4.14-.43,5.19,1.38.84,1.45.63,3.28-.52,4.5l-12.85,13.67,16.48-9.51c1.83-1.03,4.14-.39,5.17,1.44.88,1.56.55,3.52-.79,4.71l-2.35,2.04c1.92-.85,4.16.02,5.01,1.94.62,1.39.34,3.02-.71,4.13l-5.35,5.52c2.07.34,3.47,2.3,3.13,4.37-.19,1.12-.86,2.1-1.84,2.67l-18.84,10.94c-.58.33-1.23.51-1.9.5Z"/>
      <path class="cls-3" d="m314.3,345.26c-2.1,0-3.8-1.7-3.8-3.79,0-1.14.51-2.23,1.4-2.95l16.86-13.75-29.27,16.89c-1.81,1.05-4.14.44-5.19-1.37-.94-1.62-.56-3.67.89-4.85l32.22-26.27-42.4,24.48c-1.82,1.05-4.14.43-5.19-1.39-.95-1.65-.53-3.75.98-4.91l29.52-22.55-34.39,19.85c-1.82,1.05-4.14.42-5.19-1.39-.98-1.7-.51-3.86,1.09-4.99l13.47-9.55-14.43,8.35c-1.82,1.04-4.14.4-5.18-1.43-.93-1.63-.52-3.69.95-4.85l32.31-25.21-32.86,18.98c-1.81,1.06-4.14.45-5.19-1.36-.95-1.62-.57-3.69.9-4.87l31.45-25.67-28.58,16.46c-1.8,1.08-4.13.49-5.21-1.31-.93-1.56-.63-3.55.71-4.77l25.68-24.04c-2.08-.29-3.52-2.21-3.23-4.29.16-1.15.84-2.16,1.85-2.75l23.63-13.67c1.81-1.06,4.13-.46,5.2,1.34.91,1.55.62,3.52-.71,4.73l-23.1,21.62,40.71-23.5c1.82-1.04,4.14-.41,5.18,1.41.92,1.61.54,3.64-.88,4.81l-31.45,25.67,39.49-22.78c1.82-1.04,4.14-.4,5.18,1.43.93,1.63.52,3.69-.95,4.85l-32.33,25.21,37.44-21.61c1.83-1.02,4.14-.36,5.16,1.47.93,1.67.47,3.78-1.07,4.91l-13.49,9.58,15.1-8.71c1.82-1.05,4.14-.43,5.19,1.39.95,1.65.53,3.75-.98,4.91l-29.52,22.6,32.23-18.61c1.8-1.07,4.13-.48,5.21,1.32.97,1.63.59,3.73-.9,4.92l-32.22,26.28,29.18-16.85c1.81-1.05,4.14-.44,5.19,1.37.94,1.62.56,3.67-.89,4.85l-16.84,13.74,6.83-3.96c1.82-1.04,4.14-.4,5.18,1.42,1.03,1.81.41,4.1-1.38,5.15l-47.66,27.54c-.58.32-1.23.49-1.9.48Z"/>
      <path class="cls-6" d="m307.14,313.3c-2.1,0-3.8-1.7-3.8-3.79,0-.93.34-1.82.95-2.52l12.73-14.43-18.94,10.91c-1.82,1.05-4.14.42-5.18-1.4-.82-1.43-.63-3.23.48-4.45l12.56-13.76-10.97,6.33c-1.82,1.04-4.14.41-5.18-1.42-.83-1.46-.61-3.29.55-4.5l5.42-5.66c-1.89-.9-2.69-3.17-1.79-5.06.33-.69.86-1.27,1.52-1.65l15.57-8.99c1.82-1.04,4.14-.41,5.18,1.42.83,1.46.61,3.29-.55,4.5l-1.33,1.4,9.02-5.22c1.82-1.05,4.14-.42,5.18,1.4.82,1.43.63,3.23-.48,4.45l-12.54,13.78,17.8-10.27c1.81-1.05,4.14-.43,5.19,1.38.82,1.41.64,3.19-.44,4.42l-12.73,14.43,10.63-6.13c1.82-1.04,4.14-.4,5.18,1.42,1.03,1.81.41,4.1-1.38,5.15l-30.74,17.75c-.58.33-1.24.5-1.91.49Z"/>
      <path class="cls-5" d="m225.88,286.38c-2.1,0-3.8-1.7-3.8-3.79,0-.04,0-.09,0-.13l.35-10.21-13.01,7.5c-1.82,1.04-4.14.42-5.18-1.4-.77-1.35-.65-3.03.32-4.25l2.13-2.67-10.37,5.98c-1.82,1.05-4.14.43-5.19-1.39-.76-1.32-.66-2.96.25-4.18l7.94-10.59-26.76,15.45c-1.81,1.05-4.14.44-5.19-1.38-.89-1.54-.6-3.49.71-4.7l8.84-8.17-35,20.2c-1.83,1.02-4.14.36-5.17-1.47-.85-1.52-.55-3.41.71-4.61l21.26-19.38-27.34,15.77c-1.85.99-4.15.3-5.14-1.55-.8-1.5-.51-3.34.71-4.52l13.19-11.85c-2-.62-3.12-2.75-2.49-4.76.28-.91.9-1.69,1.73-2.16l24.23-14c1.85-.99,4.15-.3,5.14,1.55.8,1.5.51,3.34-.71,4.52l-8.83,7.91,26.11-15.07c1.84-1.01,4.15-.34,5.16,1.5.83,1.51.54,3.39-.71,4.58l-21.26,19.39,33.95-19.6c1.81-1.05,4.14-.44,5.19,1.38.89,1.54.6,3.49-.71,4.7l-8.84,8.18,13.54-7.81c1.56-.93,3.55-.61,4.74.76,1.2,1.35,1.28,3.36.2,4.8l-7.95,10.62,11.57-6.67c1.81-1.05,4.14-.43,5.19,1.38.78,1.35.66,3.05-.31,4.27l-2.13,2.67,1.61-.93c1.18-.71,2.66-.71,3.84,0,1.19.71,1.9,2,1.85,3.38l-.36,10.36c2.02-.58,4.12.59,4.69,2.61.48,1.68-.24,3.46-1.76,4.33l-5.07,2.92c-.57.34-1.23.53-1.9.54Z"/>
      <path class="cls-5" d="m365.07,287.5c-.62,0-1.23-.15-1.78-.44-1.16-.61-1.92-1.78-2.01-3.08l-.71-10.37-11.76,6.78c-1.82,1.05-4.14.42-5.19-1.39-.75-1.31-.66-2.93.23-4.15l2.07-2.79-9.97,5.75c-1.82,1.05-4.14.43-5.19-1.39-.73-1.26-.67-2.84.15-4.04l7.7-11.25-26.87,15.49c-1.82,1.05-4.14.42-5.19-1.39-.91-1.58-.57-3.58.81-4.77l3.3-2.84-20.42,11.79c-1.81,1.06-4.13.46-5.2-1.34-.91-1.55-.62-3.52.71-4.73l16.93-15.79-36.45,21.04c-1.84,1.01-4.15.34-5.16-1.5-.8-1.46-.56-3.27.6-4.47l17.63-17.65c-1.96.74-4.15-.25-4.89-2.21-.66-1.74.04-3.69,1.64-4.62l24.23-14c1.84-1.01,4.15-.34,5.16,1.5.8,1.46.56,3.27-.6,4.47l-17.47,17.53,40.37-23.31c1.81-1.06,4.13-.46,5.2,1.34.91,1.55.62,3.52-.71,4.73l-16.93,15.79,26.81-15.48c1.82-1.05,4.14-.42,5.19,1.39.91,1.58.57,3.58-.81,4.77l-3.32,2.86,6.07-3.51c1.81-1.06,4.14-.44,5.19,1.37.74,1.27.68,2.85-.15,4.06l-7.69,11.25,11.28-6.51c1.82-1.05,4.14-.43,5.19,1.39.75,1.3.66,2.93-.23,4.15l-2.08,2.81,1.27-.72c1.82-1.05,4.14-.43,5.19,1.39.29.5.46,1.07.5,1.65l.76,11.27c2.07.31,3.51,2.24,3.2,4.31-.17,1.14-.85,2.15-1.85,2.73l-2.89,1.67c-.57.32-1.22.49-1.88.49Z"/>
      <path class="cls-1" d="m24.38,474.92c13.18,40.19,69.22,23.77,74.98-11.81.32-31.49.57-62.6,12.01-91.82,14.09,54.44,22.22,110.19,31.55,166.71,6.07,29.08,66.31,28.79,71.38-.88,3.21-22.84.38-48.84,31.62-46.54,32.36-2.7,31.69,19.23,33.7,44.8,3.71,19.67,18.94,23.54,36.37,23.54,17.43.26,31.89-4.59,36.13-22.83,8.43-55.96,14.49-112.79,29.84-167.4,13.34,30.6,13.15,63.38,14.01,96.51,4.6,42.52,69.68,44.57,74.56,1.52,1.1-64.51-20.99-127.27-62.27-176.86,9.38-37.83,60.9-96.86,6.44-120.84-18.22-7.87-36.53-8.29-48.34,6.96,14.25-46.92-59.28-71.3-77.75-28.99.16-50.69-82.77-50.64-82.77,0-18.96-43.22-93.31-16.8-77.39,30.54-16.66-17.62-44.45-18.39-62.07-1.73-2.77,2.62-5.19,5.59-7.19,8.84-16.71,34.87,19.58,72.36,27.34,105.55-40.12,48.58-74.05,120.45-62.14,184.73Zm439.63-10.16c-2.23,34.13-59.41,32.02-61.51-1.52-.04-36.45-1.24-72.25-17.47-105.46,5.92-20.14,12.71-39.93,20.06-59.53,38.28,47.03,59.1,105.87,58.92,166.52ZM65.13,218.73c-2.02-46.81,52.46-74.11,70.58-9.64,2.13,5.03,7.11.4,6.2-3.59l-8.43-37.14c-5.54-35.27,57.24-48.42,67.48-14.27l5.01,22.02c10.21,14.99,5.9-26.99,6.69-31.83,2.39-35.52,66.72-35.38,69.1.09v30.53c6.32,16.33,10.13-16.21,11.74-20.9,10.25-34.17,72.96-20.81,67.41,14.43l-8.43,37.13c-.91,4.04,4.16,8.45,6.3,3.42,2.99-7.03,5.97-14.07,8.96-21.11,15.83-31.86,75.94-8.7,63.89,25.17-10.26,24.47-20.44,48.88-29.9,73.53-1.08,1.11-1.65,2.61-1.59,4.15-31.57,77.51-43.5,160.62-54.64,243-3.52,15.63-16.81,16.05-29.62,16.05-58.14,4.3-3.2-70.13-67.36-68.34-14.08,0-28,.6-34.88,15.36-10.02,24.91,5.32,55.99-35.19,52.98-12.91,0-25.99-.36-29.54-16.14-8.78-58.77-15.85-118.02-31.74-175.42.91-2.04.22-3.28-1.1-3.8-6.12-21.57-13.42-42.68-21.39-63.57.8-1.17.5-2.78-.67-3.58-.26-.18-.55-.3-.85-.38-7.56-23.05-20.96-45.1-28.03-68.19Zm24.13,78.97c7.32,20.62,13.67,41.34,19.19,62.19-15.86,32.78-17.16,67.96-17.22,103.93-1.72,7.29-23.49,24.69-29.87,25.86-37.01,6.78-30.28-35.65-28.86-51.87,3.72-51.51,23.58-100.54,56.76-140.11Z"/>
      <path class="cls-1" d="m121.2,288.43c2.62,74.53,110.62,74.9,115.27.71-2.3-73.45-115.2-73.84-115.27-.71Zm52.78,49.61c-24.1-3.19-42.46-23.16-43.61-47.45,7.25-3.71,14.84-6.7,22.67-8.92-8.74,43.63,61.04,43.61,51.68-.23,7.83,2.18,15.42,5.14,22.66,8.84-2.14,27.5-24.16,50.9-53.4,47.75h0Zm20.5-58.68c13.5,37.41-44.67,37.82-31.38.17,10.38-1.8,20.98-1.86,31.38-.17h0Zm-15.95-40.25c24.55.2,45.14,18.59,48.09,42.96-8.2-3.73-16.76-6.59-25.56-8.51-1.78-2.23-4.93-2.81-7.38-1.34-9.98-1.46-20.12-1.47-30.1-.05-1.97-1.64-4.89-1.38-6.54.59-.17.2-.31.41-.44.63-8.95,1.89-17.66,4.76-25.98,8.56,3.26-24.13,23.6-42.29,47.94-42.81l-.03-.03Z"/>
      <path class="cls-1" d="m313.01,345.08c31.64,1.56,58.56-22.82,60.12-54.47.03-.6.05-1.21.06-1.81-3.9-72.33-115.65-74.46-115.27-.43.72,30.4,24.73,55.11,55.09,56.7Zm2.19-6.83c-26.3-.51-47.55-21.61-48.24-47.9,7.22-3.61,14.77-6.48,22.56-8.59-7.97,42.68,60.37,44.33,51.84.57,7.8,2.22,15.37,5.19,22.6,8.88-1.66,25.92-22.79,46.31-48.76,47.04h0Zm16.71-57.99c10.98,36.53-45.63,36.45-32.02-.55,10.63-1.61,21.46-1.43,32.03.52l-.02.02Zm-21.14-40.76c27.43-3.44,48.02,16.62,52.55,41.64-8.5-3.86-17.42-6.73-26.58-8.56-1.52-1.34-3.67-1.69-5.54-.9-10.4-1.46-20.97-1.34-31.33.36-2.28-1.19-5.57-1.14-6.68,1.29-8.9,2.04-17.56,5.04-25.82,8.94,3.24-22.38,20.99-39.87,43.41-42.77h-.02Z"/>
      <path class="cls-1" d="m221.21,390.35c-17.31-3.42-32.34-10.4-40.06-21.15-3.47-4.84-7.29,2.13-4.56,5.92,8.7,12.15,25.26,20.03,44.2,23.88-1.92,19.8,1.12,39.53,25.34,38.35,27.34,1.88,29.57-15.07,27.53-38.09,19.08-3.68,35.8-11.51,44.55-23.72,2.49-3.47-2.28-11.01-5.32-6.76-7.91,11.03-23.54,18.22-41.38,21.63-1.91-1.72-4.48-1.95-4.94.92-13.15,1.95-26.52,1.98-39.68.09-1.64-2.32-4.69-3.36-5.7-1.08Zm45.27,10.11c.41,14.58,1.84,30.49-18.18,28.01-21.98,1.7-21-10.39-20.32-28.18,12.77,1.8,25.72,1.85,38.5.14v.04Z"/>
    </g>
  </g>
  <g id="Capa_3" data-name="Capa 3">
    <g>
      <path class="cls-8" d="m463,115.11c0,45.6-70.88,140.85-212.43,140.85S38.1,160.71,38.1,115.11s59.25,31.03,210.46,31.03c151.34.09,214.45-76.63,214.45-31.03Z"/>
      <path class="cls-2" d="m250.57,261c-80.32,0-132.68-29.63-162.53-54.47-37.92-31.6-54.95-68.69-54.95-91.42,0-12.95,5-19.49,14.79-19.49,7.72,0,18.04,4.17,33.58,10.4,32.52,13.17,86.99,35.11,167.18,35.11s135.36-21.81,168.63-34.85c15.89-6.19,27.39-10.71,35.55-10.71,10.14,0,15.27,6.54,15.27,19.49,0,22.74-16.94,59.78-54.95,91.42-29.85,24.84-82.21,54.47-162.53,54.47l-.04.04ZM47.89,105.67c-2.19,0-4.7,0-4.7,9.44,0,20.32,15.84,54.12,51.31,83.7,28.57,23.79,78.83,52.14,156.12,52.14s127.55-28.35,156.12-52.14c35.46-29.58,51.31-63.33,51.31-83.7,0-9.44-2.68-9.44-5.22-9.44-6.28,0-17.6,4.43-31.86,10.01-34.02,13.3-90.81,35.55-172.32,35.55s-137.69-22.47-170.91-35.81c-13.43-5.4-24.05-9.7-29.85-9.7v-.04Z"/>
      <path class="cls-8" d="m290.69,7.05c-9.09,0-20.85,17.47-41.61,17.47s-33.44-17.47-44.29-17.47c-15.27,0-33.66,45.91-46.52,80.23-12.86,34.37-16.77,63.07-16.77,73.6,0,19.71,34.28,47.36,107.53,47.36s107.53-28.66,107.53-47.36c0-10.27-4.43-38.36-18.52-73.34-11.76-29.36-30.42-80.54-47.45-80.54l.09.04Z"/>
      <path class="cls-2" d="m249.12,213.29c-42.71,0-69.04-9.22-83.61-16.9-18.17-9.66-29.01-22.87-29.01-35.55,0-10.27,3.6-39.33,17.12-75.4C172.4,35.4,188.34,2.04,204.84,2.04c5.97,0,11.41,3.47,17.73,7.37,7.46,4.7,15.89,10.05,26.55,10.05s19.09-5.57,26.25-10.49c5.49-3.73,10.23-6.98,15.36-6.98,17.6,0,31.95,32.74,48.94,75.45,1.14,2.9,2.24,5.62,3.25,8.16,14.92,37.18,18.87,65.44,18.87,75.23,0,12.33-10.84,25.5-28.92,35.2-14.7,7.81-41.17,17.16-83.7,17.16l-.04.09ZM204.84,12.05c-1.67,0-7.94,1.76-19.71,24.49-8.03,15.54-15.71,35.24-22.16,52.45-12.11,32.17-16.46,60.61-16.46,71.85,0,6.85,6.19,17.38,23.66,26.69,13.61,7.2,38.27,15.76,78.92,15.76s65.27-8.73,78.92-16.06c17.47-9.35,23.66-20.06,23.66-26.33,0-10.58-4.87-38.27-18.17-71.45-1.05-2.59-2.11-5.35-3.29-8.25-5.79-14.57-12.95-32.65-20.5-46.79-10.71-20.15-16.9-22.3-19.09-22.3-2.06,0-5.93,2.68-9.7,5.22-7.55,5.14-17.86,12.25-31.86,12.25s-23.7-6.41-31.86-11.63c-4.65-3.03-9.13-5.93-12.25-5.93l-.09.04Z"/>
      <g>
        <path class="cls-2" d="m249.12,182.08c-63.69,0-97.92-20.98-105.78-39.33-1.27,8.03-1.76,14.31-1.76,18.08,0,19.71,34.28,47.36,107.53,47.36s107.53-28.66,107.53-47.36c0-3.73-.61-9.88-2.06-17.82-8.25,17.86-42.44,39.06-105.51,39.06h.04Z"/>
        <path class="cls-2" d="m249.12,213.29c-42.71,0-69.04-9.22-83.61-16.9-18.17-9.66-29.01-22.87-29.01-35.55,0-4.65.61-11.32,1.84-18.87.35-2.19,2.11-3.95,4.35-4.21s4.35.97,5.22,3.03c7.46,17.47,42.31,36.34,101.17,36.34s92.92-18.74,100.99-36.17c.92-1.98,3.03-3.12,5.22-2.9,2.19.26,3.95,1.89,4.3,4.08,1.32,7.55,2.11,14.22,2.11,18.74,0,12.33-10.84,25.5-28.92,35.2-14.66,7.9-41.13,17.25-83.61,17.25l-.04-.04Zm-102.4-56.75c-.13,1.62-.13,3.12-.13,4.35,0,6.85,6.19,17.38,23.66,26.69,13.61,7.2,38.27,15.76,78.92,15.76s65.27-8.73,78.92-16.06c17.47-9.35,23.66-20.06,23.66-26.33,0-1.32-.09-2.94-.22-4.7-16.11,16.68-50.83,30.99-102.35,30.99-54.6-.09-87.3-14.79-102.4-30.68h-.04Z"/>
      </g>
      <path class="cls-2" d="m354.68,148.73c-1.27,2.59-2.59,5.22-4.43,7.55-2.41,2.9-4.92,5.57-7.81,7.94-5.97,5-12.68,8.95-19.71,12.16-14.57,6.67-30.46,10.14-46.3,12.03-16.42,1.98-33.14,1.98-49.64.57-15.84-1.32-32.22-4.43-46.96-10.58-7.81-3.25-15.76-7.02-22.3-12.47-3.25-2.68-6.32-5.49-9-8.78-2.19-2.68-3.73-5.62-5.14-8.73,3.16,5.49,7.11,10.36,12.25,14.09,6.06,4.43,12.47,7.9,19.36,10.84,14.44,6.14,30.42,9.22,45.95,10.84,16.33,1.67,32.74,1.84,49.11.7,8.08-.57,16.2-1.62,24.05-3.16,7.55-1.54,15.14-3.29,22.38-5.97,7.94-2.94,16.06-6.28,23-11.28,3.38-2.41,6.54-5,9.44-8.03,2.24-2.41,3.99-5,5.71-7.72h.04Z"/>
      <path class="cls-2" d="m317.73,70.38c-8.16.35-15.27-4.3-20.41-10.36-6.06-7.11-9.48-16.46-9.92-25.76-.22-4.3.35-8.65,1.98-12.6,3.38,6.98,5.97,14.22,9.35,21.2,3.25,6.76,6.85,13.21,11.28,19.27,2.33,3.12,5.14,5.57,7.72,8.25Z"/>
      <path class="cls-2" d="m177.67,70.38c1.32-1.32,2.77-2.59,3.99-3.99,1.67-1.89,3.29-3.95,4.7-6.06,2.77-3.99,5.22-8.38,7.33-12.73,2.24-4.65,4.43-9.44,6.5-14.13,1.67-3.86,3.16-7.94,5-11.76,3.16,7.55,2.55,16.81-.09,24.4-2.9,8.51-7.94,16.24-15.71,21.11-3.6,2.24-7.59,3.29-11.76,3.16h.04Z"/>
      <path class="cls-2" d="m54.29,128.19c8.43,21.59,24.97,38.62,42.22,53.63,18.39,15.98,38.98,29.14,60.39,40.69,9.88,5.35,20.15,9.92,30.33,14.48-22.82-4.08-44.55-12.95-64.34-25.06-21.2-12.95-40.91-29.63-54.95-50.26-6.85-10.14-12.03-21.33-13.65-33.49Z"/>
      <path class="cls-2" d="m444.79,128.19c-2.94,22.82-18.52,42.57-34.76,57.94-18.21,17.16-39.77,31.03-62.94,40.56-11.41,4.65-23.17,8.16-35.24,10.27,20.15-8.87,39.68-18.79,58.16-30.81,20.28-13.21,39.63-28.49,55.48-46.88,8.08-9.35,14.84-19.49,19.36-31.03l-.04-.04Z"/>
      <path class="cls-2" d="m222.83,46.02c8.38,3.99,16.68,8.08,26.2,8.08s17.95-4.08,26.33-8.08c-4.21,7.9-12.95,13.61-21.68,14.92-7.46,1.14-15.14-.61-21.42-4.87-3.73-2.55-7.33-5.97-9.44-10.05Z"/>
      <path class="cls-9" d="m279.37,138.9c-.61,0-1.19.22-1.67.48l-8.03-13.96,8.03-13.96c.48.26,1.05.48,1.67.48,1.89,0,3.47-1.54,3.47-3.47s-1.54-3.47-3.47-3.47-3.47,1.54-3.47,3.47h-16.11l-8.51-14.79c1.05-.57,1.76-1.67,1.76-2.94,0-1.89-1.54-3.47-3.47-3.47s-3.47,1.54-3.47,3.47c0,1.27.7,2.41,1.76,2.94l-8.51,14.79h-16.11c0-1.89-1.54-3.47-3.47-3.47s-3.47,1.54-3.47,3.47,1.54,3.47,3.47,3.47c.61,0,1.19-.22,1.67-.48l8.03,13.96-8.03,13.96c-.48-.26-1.05-.48-1.67-.48-1.89,0-3.47,1.54-3.47,3.47s1.54,3.47,3.47,3.47,3.47-1.54,3.47-3.47h16.11l8.51,14.79c-1.05.57-1.76,1.67-1.76,2.94,0,1.89,1.54,3.47,3.47,3.47s3.47-1.54,3.47-3.47c0-1.27-.7-2.41-1.76-2.94l8.51-14.79h16.11c0,1.89,1.54,3.47,3.47,3.47s3.47-1.54,3.47-3.47-1.54-3.47-3.47-3.47Z"/>
      <g>
        <path class="cls-2" d="m354.81,135.65c-6.32,5.93-12.95,11.28-20.5,15.63-8.3,4.78-17.34,8.38-26.55,10.93-3.99,1.05-8.08,2.06-12.16,2.46,7.81-2.11,15.41-5.79,22.47-9.79,7.81-4.52,15.05-10.05,21.42-16.46,2.9-2.94,5.4-6.28,7.94-9.48,2.41,2.24,4.92,4.52,7.37,6.76v-.04Z"/>
        <path class="cls-2" d="m351.87,124.37c-5.97,5.49-12.25,10.23-19.44,14.09-6.41,3.47-13.3,6.14-20.32,8.03-3.12.83-6.32,1.62-9.57,2.06,8.43-2.77,16.55-7.33,23.7-12.51,3.38-2.46,6.63-5.14,9.57-8.08,3.16-3.25,5.97-6.63,8.65-10.27,2.41,2.24,4.92,4.52,7.37,6.76l.04-.09Z"/>
        <path class="cls-2" d="m348.93,113.13c-11.1,9.66-24.71,16.9-39.41,19.14,6.19-2.55,12.11-6.19,17.38-10.36,5.71-4.52,10.4-9.7,14.66-15.63,2.46,2.33,4.92,4.56,7.37,6.85Z"/>
        <path class="cls-2" d="m345.95,101.85c-8.6,6.89-18.65,12.11-29.58,14.22,9-5,16.55-12.38,22.12-20.98,2.55,2.33,5,4.52,7.46,6.76Z"/>
        <path class="cls-2" d="m343.05,90.57c-6.06,4.17-12.6,7.37-19.71,9.3,5-4.56,9-10.01,12.16-15.98,2.46,2.24,5,4.43,7.55,6.67Z"/>
      </g>
      <g>
        <path class="cls-2" d="m150.19,128.89c4.92,6.32,10.23,12.11,16.46,17.16,7.24,5.84,15.36,10.58,23.79,14.35,3.73,1.67,7.59,3.25,11.54,4.3-8.08-.92-16.11-3.38-23.7-6.28-9.09-3.47-17.69-8.25-25.41-14-3.6-2.68-6.85-5.71-10.05-8.78,2.46-2.24,4.92-4.52,7.37-6.76Z"/>
        <path class="cls-2" d="m153.18,117.61c2.77,3.6,5.49,7.02,8.65,10.27,2.94,2.94,6.19,5.62,9.57,8.08,7.11,5.22,15.27,9.79,23.7,12.51-14.13-1.84-28.09-8.03-39.77-16.11-3.47-2.41-6.5-5.14-9.57-7.94,2.46-2.33,4.92-4.56,7.37-6.85l.04.04Z"/>
        <path class="cls-2" d="m156.12,106.37c4.21,5.93,8.95,11.1,14.66,15.63,5.27,4.17,11.19,7.81,17.38,10.36-14.7-2.24-28.31-9.48-39.41-19.14,2.46-2.33,4.92-4.56,7.37-6.85Z"/>
        <path class="cls-2" d="m159.06,95.18c5.62,8.6,13.08,15.98,22.12,20.98-10.93-2.11-20.98-7.33-29.58-14.22,2.46-2.33,5-4.52,7.46-6.76Z"/>
        <path class="cls-2" d="m162.05,83.9c3.16,5.97,7.2,11.41,12.16,15.98-7.11-1.89-13.65-5.22-19.71-9.3,2.55-2.24,5.05-4.43,7.55-6.67Z"/>
      </g>
      <g>
        <polygon class="cls-2" points="142.38 154.52 98.49 133.19 145.85 145.08 142.38 154.52"/>
        <polygon class="cls-2" points="139.88 168.3 115.78 151.05 144.31 159.3 139.88 168.3"/>
        <polygon class="cls-2" points="351.79 145.08 399.19 133.19 355.25 154.52 351.79 145.08"/>
        <polygon class="cls-2" points="353.37 159.3 381.85 151.05 357.71 168.3 353.37 159.3"/>
      </g>
    </g>
  </g>
</svg>