<?xml version="1.0" encoding="UTF-8"?>
<svg xmlns="http://www.w3.org/2000/svg" viewBox="0 0 500 575">
  <defs>
    <style>
      .cls-1 {
        fill: #4d4d4d;
      }

      .cls-1, .cls-2, .cls-3, .cls-4, .cls-5, .cls-6, .cls-7, .cls-8, .cls-9, .cls-10, .cls-11, .cls-12, .cls-13, .cls-14, .cls-15 {
        stroke-width: 0px;
      }

      .cls-2 {
        fill: #a54759;
      }

      .cls-3 {
        fill: #262626;
      }

      .cls-4 {
        fill: #e384b0;
      }

      .cls-5 {
        fill: #ffb5e9;
      }

      .cls-6 {
        fill: #4ce0c8;
      }

      .cls-7 {
        fill: #241816;
      }

      .cls-8 {
        fill: #416b80;
      }

      .cls-9 {
        fill: #cd596b;
      }

      .cls-10 {
        fill: #fff;
      }

      .cls-11 {
        fill: #5da0ff;
      }

      .cls-12 {
        fill: #dee3d7;
      }

      .cls-13 {
        fill: #e2e6eb;
      }

      .cls-14 {
        fill: #f2f1eb;
      }

      .cls-15 {
        fill: #e7d8b4;
      }
    </style>
  </defs>
  <g id="Capa_1" data-name="Capa 1">
    <g>
      <path class="cls-15" d="m250,573c-66.51,0-129.04-25.9-176.07-72.93C26.9,453.04,1,390.51,1,324s25.9-129.04,72.93-176.07c47.03-47.03,109.56-72.93,176.07-72.93s129.04,25.9,176.07,72.93c47.03,47.03,72.93,109.56,72.93,176.07s-25.9,129.04-72.93,176.07c-47.03,47.03-109.56,72.93-176.07,72.93Z"/>
      <path class="cls-7" d="m250,76c33.48,0,65.96,6.56,96.53,19.49,29.53,12.49,56.05,30.37,78.83,53.15,22.78,22.78,40.66,49.3,53.15,78.83,12.93,30.57,19.49,63.05,19.49,96.53s-6.56,65.96-19.49,96.53c-12.49,29.53-30.37,56.05-53.15,78.83-22.78,22.78-49.3,40.66-78.83,53.15-30.57,12.93-63.05,19.49-96.53,19.49s-65.96-6.56-96.53-19.49c-29.53-12.49-56.05-30.37-78.83-53.15-22.78-22.78-40.66-49.3-53.15-78.83-12.93-30.57-19.49-63.05-19.49-96.53s6.56-65.96,19.49-96.53c12.49-29.53,30.37-56.05,53.15-78.83s49.3-40.66,78.83-53.15c30.57-12.93,63.05-19.49,96.53-19.49m0-2C111.93,74,0,185.93,0,324s111.93,250,250,250,250-111.93,250-250-111.93-250-250-250h0Z"/>
    </g>
  </g>
  <g id="Capa_2" data-name="Capa 2">
    <g>
      <path class="cls-2" d="m192.77,517.93c-1.74,0-3.14-1.42-3.14-3.15,0-.72.25-1.41.7-1.97l8.77-10.85-16.56,9.56c-1.49.9-3.42.43-4.33-1.05-.79-1.3-.54-2.97.59-3.98l11.84-11.22-8.11,4.68c-1.51.86-3.43.33-4.29-1.18-.74-1.31-.46-2.95.68-3.94l5.13-4.41-1.52.87c-1.51.87-3.43.35-4.3-1.15-.7-1.22-.51-2.75.47-3.76l15.57-16.08-11.74,6.82c-1.51.86-3.43.33-4.29-1.18-.7-1.23-.49-2.79.52-3.79l13.67-13.49-9.9,5.71c-1.51.85-3.43.32-4.29-1.19-.71-1.26-.47-2.85.59-3.84l10.02-9.19-6.3,3.65c-1.51.86-3.43.33-4.29-1.18-.69-1.22-.5-2.75.48-3.75l14.83-15.05-11.01,6.36c-1.53.83-3.44.26-4.27-1.26-.68-1.25-.44-2.79.59-3.77l8.95-8.06-5.26,3.03c-1.49.89-3.42.41-4.32-1.08-.77-1.29-.52-2.94.59-3.95l11.18-10.47-7.45,4.3c-1.5.88-3.43.39-4.31-1.11-.69-1.16-.56-2.63.33-3.66l11.29-13.14-7.33,4.23c-1.51.87-3.43.35-4.3-1.16-.4-.7-.52-1.52-.33-2.3l1.89-7.88c-.65-.26-1.19-.73-1.54-1.34-.87-1.5-.35-3.42,1.15-4.29l3.15-1.84c1.51-.87,3.43-.35,4.3,1.16.4.7.52,1.52.33,2.3l-1.49,6.25,17-9.82c1.51-.87,3.43-.35,4.3,1.15.67,1.16.53,2.61-.34,3.62l-11.29,13.14,15.11-8.72c1.5-.88,3.43-.38,4.31,1.11.76,1.28.51,2.92-.59,3.92l-11.13,10.45,7.45-4.3c1.53-.83,3.44-.26,4.27,1.26.68,1.25.44,2.79-.59,3.77l-8.96,8.08,5.29-3.05c1.51-.86,3.43-.33,4.29,1.18.69,1.22.5,2.75-.48,3.75l-14.83,15.05,11.02-6.36c1.51-.85,3.43-.32,4.29,1.19.71,1.26.47,2.85-.59,3.84l-10.01,9.19,6.3-3.65c1.51-.86,3.43-.33,4.29,1.18.7,1.23.49,2.79-.52,3.79l-13.68,13.49,9.92-5.73c1.5-.88,3.43-.37,4.31,1.13.71,1.22.52,2.77-.47,3.79l-15.56,16.08,11.74-6.78c1.51-.86,3.43-.33,4.29,1.18.74,1.31.46,2.95-.68,3.94l-5.11,4.36,1.5-.87c1.48-.91,3.42-.46,4.33,1.02.81,1.3.56,3-.59,4.02l-11.85,11.23,8.13-4.7c1.51-.87,3.43-.35,4.3,1.15.65,1.13.54,2.54-.28,3.55l-8.78,10.85,4.78-2.76c1.5-.87,3.43-.36,4.3,1.14.43.74.54,1.63.3,2.45l-1.6,5.62c.55.28,1.01.72,1.32,1.26.87,1.51.35,3.43-1.16,4.3h0s-3.15,1.83-3.15,1.83c-1.51.87-3.43.35-4.3-1.15-.43-.74-.54-1.62-.3-2.44l1.05-3.67-12.74,7.35c-.48.27-1.02.4-1.57.38h0Z"/>
      <path class="cls-9" d="m194.87,555.59c-1.74,0-3.15-1.41-3.15-3.15,0-.91.39-1.77,1.07-2.37l8.5-7.47-21.75,12.54c-1.51.86-3.43.33-4.29-1.18-.73-1.29-.47-2.92.64-3.9l19.46-17.22-33.56,19.38c-1.5.87-3.43.36-4.3-1.14-.8-1.38-.45-3.13.82-4.09l14.7-11.22-15.51,8.95c-1.51.86-3.43.34-4.3-1.17-.76-1.32-.46-2.99.7-3.97l18.09-15.11-13.09,7.55c-1.49.9-3.42.43-4.33-1.05-.79-1.3-.54-2.97.59-3.98l10.31-9.77c-1.7-.34-2.81-2.01-2.46-3.71.18-.88.73-1.65,1.51-2.1l18.48-10.7c1.48-.91,3.42-.46,4.33,1.02.81,1.3.56,3-.59,4.02l-7.88,7.5,21.61-12.47c1.51-.85,3.43-.32,4.29,1.2.74,1.31.45,2.96-.7,3.94l-18.07,15.11,26.28-15.18c1.51-.87,3.43-.35,4.3,1.15.79,1.37.44,3.11-.81,4.07l-14.71,11.23,18.23-10.52c1.51-.86,3.43-.33,4.29,1.18.73,1.29.47,2.92-.64,3.9l-19.48,17.23,22.24-12.83c1.51-.86,3.43-.34,4.29,1.17.74,1.29.47,2.93-.64,3.91l-8.49,7.45,7.64-4.41c1.51-.86,3.43-.34,4.29,1.17.59,1.04.55,2.32-.12,3.32l-6.09,8.93,1.95-1.11c1.54-.81,3.44-.21,4.25,1.33.76,1.45.28,3.24-1.1,4.12l-13.89,8c-1.51.87-3.43.35-4.3-1.16-.6-1.04-.55-2.34.12-3.33l6.09-8.93-23.29,13.42c-.47.28-1,.43-1.55.44h0Z"/>
      <path class="cls-2" d="m298.9,517.94c-1.74,0-3.15-1.41-3.15-3.15,0-.86.36-1.69.98-2.29l.96-.91-8.15,4.7c-1.51.87-3.43.35-4.3-1.15-.77-1.33-.46-3.02.72-4l2.95-2.44c-1.66.51-3.42-.42-3.94-2.08-.37-1.21.01-2.52.98-3.34l3.78-3.19-.2.11c-1.49.89-3.42.41-4.32-1.08-.77-1.29-.52-2.94.59-3.95l11.19-10.46-7.44,4.33c-1.53.83-3.44.26-4.27-1.26-.65-1.2-.45-2.69.49-3.68l14.44-14.48-10.63,6.13c-1.52.85-3.43.31-4.29-1.2-.74-1.31-.45-2.95.69-3.93l3.54-2.98c-1.52.84-3.44.28-4.27-1.24-.72-1.31-.42-2.94.71-3.91l4.86-4.14-1.26.72c-1.49.9-3.42.43-4.33-1.05-.79-1.3-.54-2.97.59-3.98l11.48-10.81-7.75,4.47c-1.51.86-3.43.33-4.29-1.18-.74-1.31-.46-2.95.68-3.94l4.84-4.12-1.22.71c-1.52.84-3.44.28-4.27-1.24-.67-1.21-.46-2.71.5-3.71l14.41-14.48-10.61,6.12c-1.51.86-3.43.32-4.29-1.19-.74-1.32-.45-2.98.71-3.95l2.85-2.37c-1.67.48-3.41-.49-3.89-2.16-.28-1-.06-2.07.6-2.87l10.61-13.1-6.6,3.78c-1.51.86-3.43.34-4.3-1.17-.41-.71-.52-1.55-.32-2.35l1.74-6.72c-.6-.26-1.1-.72-1.42-1.29-.87-1.5-.35-3.42,1.15-4.29l3.15-1.84c1.51-.87,3.43-.35,4.3,1.15.41.71.53,1.56.32,2.36l-1.26,4.94,14.82-8.56c1.51-.87,3.43-.35,4.3,1.15.65,1.13.54,2.54-.28,3.55l-10.65,13.11,16.37-9.44c1.51-.87,3.43-.35,4.3,1.15.77,1.33.46,3.02-.72,4l-2.84,2.35c1.67-.47,3.41.51,3.88,2.19.3,1.09,0,2.27-.81,3.07l-14.41,14.48,10.63-6.13c1.51-.86,3.43-.33,4.29,1.18.74,1.31.46,2.95-.68,3.94l-4.85,4.13,1.26-.72c1.49-.9,3.42-.43,4.33,1.05.79,1.3.54,2.97-.59,3.98l-11.48,10.81,7.76-4.48c1.5-.88,3.43-.38,4.31,1.11.78,1.33.49,3.02-.69,4.01l-4.84,4.12,1.26-.71c1.51-.86,3.43-.34,4.29,1.17.75,1.31.46,2.98-.69,3.96l-3.55,2.98c1.51-.86,3.43-.33,4.29,1.18.7,1.23.49,2.79-.52,3.79l-14.48,14.48,10.66-6.15c1.49-.89,3.42-.41,4.32,1.08.77,1.29.52,2.94-.59,3.95l-11.16,10.43,7.44-4.3c1.51-.86,3.43-.34,4.3,1.17.76,1.32.46,2.99-.7,3.97l-3.78,3.2.21-.13c1.51-.86,3.43-.32,4.29,1.19.74,1.32.45,2.98-.71,3.95l-2.95,2.45c1.66-.53,3.43.39,3.95,2.04.37,1.15.04,2.41-.84,3.24l-2.2,2.08c.71,0,1.4.21,1.97.63,1.01.78,1.45,2.09,1.11,3.32l-1.66,6.14c1.57.75,2.24,2.62,1.49,4.19-.27.58-.72,1.06-1.27,1.38l-3.18,1.83c-1.11.63-2.48.53-3.49-.23-1.01-.78-1.45-2.09-1.11-3.32l1.16-4.28-13.74,7.93c-.48.29-1.03.45-1.6.45h0Z"/>
      <g>
        <path class="cls-9" d="m282.28,555.59c-1.74,0-3.15-1.41-3.15-3.15,0-.92.4-1.79,1.1-2.39l22.49-19.26-30.68,17.7c-1.5.87-3.43.36-4.3-1.14-.81-1.39-.44-3.16.85-4.11l9.44-7.04-7.28,4.21c-1.51.86-3.43.32-4.29-1.19-.77-1.36-.43-3.08.81-4.04l5.87-4.47-.63.35c-1.51.86-3.43.34-4.3-1.17-.73-1.27-.48-2.87.59-3.87l9.61-8.81c-1.65-.55-2.54-2.33-1.99-3.98.24-.73.74-1.34,1.41-1.73l18.48-10.7c1.51-.86,3.43-.34,4.3,1.17.73,1.27.48,2.87-.59,3.87l-6.07,5.58,18.89-10.88c1.51-.86,3.43-.32,4.29,1.19.77,1.36.43,3.08-.81,4.04l-5.84,4.44,11.33-6.53c1.5-.87,3.43-.36,4.3,1.14.81,1.39.44,3.16-.85,4.11l-9.5,7.06,13.27-7.66c1.51-.86,3.43-.33,4.29,1.19.74,1.3.46,2.94-.67,3.93l-22.49,19.26,26.73-15.42c1.52-.84,3.44-.3,4.28,1.22.68,1.22.47,2.74-.5,3.73l-15.5,15.45,16.37-9.44c1.49-.89,3.42-.41,4.32,1.08.77,1.29.52,2.94-.59,3.95l-3.03,2.85.38-.21c1.47-.93,3.41-.5,4.35.97.93,1.47.5,3.41-.97,4.35-.07.05-.15.09-.23.13l-23.92,13.85c-1.49.89-3.42.41-4.32-1.08-.77-1.29-.52-2.94.59-3.95l3.03-2.85-13.65,7.81c-1.52.84-3.44.3-4.28-1.22-.68-1.22-.47-2.74.5-3.73l15.5-15.44-35.37,20.4c-.48.28-1.02.44-1.57.44h0Z"/>
        <path class="cls-9" d="m331.07,421.91c-1.74,0-3.15-1.41-3.14-3.15,0-.91.39-1.77,1.07-2.36l7.83-6.85-9.91,5.72c-1.51.86-3.43.33-4.29-1.18-.75-1.31-.46-2.97.69-3.95l11.21-9.51-13.68,7.89c-1.51.86-3.43.32-4.29-1.19-.76-1.35-.43-3.04.78-4.01l8.4-6.57-10.19,5.89c-1.51.85-3.43.32-4.29-1.19-.77-1.37-.42-3.1.83-4.05l6.33-4.73-8.95,5.16c-1.54.81-3.44.21-4.25-1.33-.76-1.45-.28-3.24,1.1-4.12l55.28-31.91c1.51-.85,3.43-.32,4.29,1.19.77,1.37.42,3.1-.83,4.05l-6.3,4.72,2.86-1.65c1.52-.84,3.44-.3,4.28,1.22.74,1.34.42,3.01-.77,3.98l-8.41,6.57,4.91-2.83c1.52-.85,3.44-.31,4.28,1.21.73,1.3.44,2.93-.68,3.91l-11.2,9.51,7.45-4.31c1.51-.86,3.43-.34,4.3,1.17.74,1.3.47,2.94-.65,3.92l-15.45,13.53c.32.25.58.56.78.91.87,1.5.36,3.43-1.15,4.3l-16.63,9.6c-.48.28-1.04.43-1.6.42h0Z"/>
        <path class="cls-9" d="m276.98,423.23c-1.74,0-3.15-1.41-3.14-3.15,0-.88.37-1.71,1.01-2.31l3.99-3.68-6.36,3.67c-1.52.84-3.44.29-4.28-1.23-.78-1.41-.37-3.18.95-4.1l16.24-10.93-18.13,10.46c-1.52.84-3.44.29-4.28-1.23-.78-1.41-.36-3.19.97-4.11l13.57-9.01-15.26,8.81c-1.51.86-3.43.32-4.29-1.19-.79-1.39-.41-3.15.88-4.09l49.55-35.39-55.6,32.11c-1.54.81-3.44.21-4.25-1.33-.76-1.45-.28-3.24,1.1-4.12l111.94-64.66c1.5-.88,3.43-.38,4.31,1.12.83,1.41.44,3.22-.9,4.17l-49.55,35.39,46.15-26.64c1.52-.84,3.44-.29,4.28,1.23.78,1.41.36,3.19-.97,4.11l-13.51,8.95,10.17-5.87c1.52-.84,3.44-.29,4.28,1.23.78,1.41.37,3.18-.95,4.1l-60.29,40.57c.46,1.2.14,2.57-.81,3.44l-15.32,14.16c.7,1.48.15,3.24-1.26,4.07l-8.67,5.04c-.48.27-1.02.4-1.56.39h0Z"/>
        <path class="cls-9" d="m220.32,423.22c-1.74,0-3.15-1.41-3.14-3.15,0-1.05.53-2.04,1.41-2.62l56.42-37.31-61.23,35.35c-1.51.87-3.43.35-4.3-1.15-.85-1.47-.38-3.34,1.06-4.24l2.37-1.48-3.49,2.01c-1.53.82-3.44.24-4.26-1.29-.76-1.42-.32-3.19,1.01-4.09l12.89-8.1-14.33,8.27c-1.52.85-3.44.31-4.28-1.21-.8-1.43-.37-3.22.98-4.14l66.06-43.37-71.3,41.15c-1.54.81-3.44.21-4.25-1.33-.76-1.45-.28-3.24,1.1-4.12l166.36-96.05c1.51-.86,3.43-.33,4.29,1.18.82,1.44.38,3.26-.99,4.18l-66.09,43.37,64.22-37.09c1.53-.82,3.44-.24,4.26,1.29.76,1.42.32,3.19-1.01,4.09l-12.84,8.08,10.12-5.84c1.52-.85,3.44-.31,4.28,1.21.81,1.45.36,3.28-1.04,4.18l-2.75,1.72c1.6-.69,3.45.05,4.14,1.65.6,1.4.12,3.03-1.15,3.87l-132.88,87.93c-.25.69-.74,1.27-1.38,1.63l-8.67,5.04c-.48.27-1.02.4-1.57.39h0Z"/>
        <path class="cls-9" d="m160.54,421.4c-1.74,0-3.15-1.41-3.15-3.15,0-1.08.55-2.09,1.47-2.67l68.5-43.36-71.81,41.46c-1.49.89-3.43.4-4.32-1.09-.89-1.49-.4-3.43,1.09-4.32h0l12.18-7.49-13.53,7.81c-1.52.84-3.44.28-4.28-1.24-.8-1.44-.34-3.26,1.04-4.16l38.83-24.1-40.92,23.61c-1.49.89-3.43.41-4.32-1.08s-.41-3.43,1.08-4.32l46.32-28.8-48.61,28.06c-1.49.9-3.42.42-4.32-1.07s-.42-3.42,1.07-4.32l70-44.02-68.4,39.51c-1.52.85-3.44.31-4.28-1.21-.8-1.44-.36-3.26,1.02-4.16l93.18-59.66-89.91,51.88c-1.49.9-3.42.42-4.32-1.07s-.42-3.42,1.07-4.32l70.94-44.86-67.68,39.08c-1.53.83-3.44.26-4.27-1.27-.78-1.44-.33-3.24,1.04-4.13l20.68-12.77-17.45,10.07c-1.53.83-3.44.26-4.27-1.26-.77-1.42-.34-3.19.99-4.1l86.96-56.2-83.68,48.3c-1.52.84-3.44.28-4.28-1.24-.79-1.44-.35-3.24,1.02-4.14l58.78-37.31-55.52,32.05c-1.53.83-3.44.26-4.27-1.26-.77-1.42-.34-3.19.99-4.1l74.01-47.9-70.34,40.61c-1.49.89-3.42.41-4.32-1.08-.88-1.46-.43-3.36,1.01-4.27l75.04-49.21-70.27,40.56c-1.53.82-3.44.24-4.26-1.29-.76-1.41-.33-3.17.99-4.08l41.82-26.75-36.48,21.06c-1.53.83-3.44.27-4.27-1.26-.77-1.41-.35-3.17.97-4.09l53.15-34.94-46.23,26.69c-1.51.86-3.43.33-4.29-1.18-.82-1.45-.38-3.28,1.01-4.19l24.94-16.09-17.67,10.2c-1.51.87-3.43.34-4.3-1.16-.81-1.41-.41-3.21.92-4.14l49.74-34.7-37.45,21.66c-1.52.85-3.44.31-4.28-1.21-.8-1.43-.37-3.22.98-4.14l9.1-6.01c-1.73-.11-3.05-1.61-2.93-3.35.06-.89.49-1.72,1.2-2.27l23.07-18.07c-1.68-.43-2.7-2.15-2.27-3.83.21-.82.74-1.52,1.47-1.94l31.24-18.04c1.51-.86,3.43-.32,4.29,1.19.76,1.35.43,3.04-.78,4.01l-18.03,14.13,42.96-24.81c1.5-.87,3.43-.36,4.3,1.14.84,1.44.4,3.29-.99,4.21l-1.78,1.16,10.7-6.18c1.51-.87,3.43-.34,4.3,1.16.81,1.41.41,3.21-.92,4.14l-49.75,34.7,63.69-36.77c1.53-.83,3.44-.26,4.27,1.26.77,1.42.34,3.19-.99,4.1l-24.94,16.1,31.3-18.07c1.53-.83,3.44-.27,4.27,1.26.77,1.41.35,3.17-.97,4.09l-53.16,34.89,60.71-35.05c1.52-.84,3.44-.28,4.28,1.24.79,1.43.35,3.22-1,4.13l-41.8,26.76,46.87-27.07c1.51-.86,3.43-.33,4.29,1.18.82,1.44.38,3.26-.99,4.18l-75.02,49.21,81.5-47.05c1.52-.85,3.44-.31,4.28,1.21.8,1.43.37,3.24-1,4.15l-74.03,47.93,78.94-45.58c1.51-.86,3.43-.34,4.29,1.17.83,1.46.38,3.31-1.03,4.21l-58.81,37.31,61.86-35.71c1.52-.85,3.44-.31,4.28,1.21.8,1.43.37,3.24-1,4.15l-86.96,56.2,90.66-52.34c1.51-.85,3.43-.32,4.29,1.2.82,1.46.36,3.31-1.06,4.2l-20.62,12.76,21.29-12.29c1.49-.9,3.42-.42,4.32,1.07.9,1.49.42,3.42-1.07,4.32l-70.95,44.88,72.55-41.89c1.5-.88,3.43-.38,4.31,1.12.86,1.46.4,3.35-1.03,4.25l-93.12,59.65,94.79-54.73c1.49-.9,3.42-.42,4.32,1.07.9,1.49.42,3.42-1.07,4.32l-70.12,44.07,70.4-40.63c1.49-.89,3.43-.41,4.32,1.08s.41,3.43-1.08,4.32h0l-46.2,28.73,45.58-26.31c1.52-.84,3.44-.28,4.28,1.24.8,1.44.34,3.26-1.04,4.16l-38.88,24.13,37.77-21.82c1.52-.84,3.44-.29,4.28,1.23.8,1.45.34,3.28-1.06,4.18l-12.23,7.55,10.56-6.09c1.49-.9,3.42-.42,4.32,1.07.9,1.49.42,3.42-1.07,4.32h0l-179.07,113.33c-.2.83-.74,1.55-1.49,1.98l-18.7,10.79c-.48.28-1.02.42-1.57.42h0Z"/>
      </g>
      <path class="cls-10" d="m228.31,303.8c-1.74,0-3.15-1.41-3.15-3.15,0-.99.47-1.92,1.26-2.52l15.86-11.71-25.26,14.58c-1.51.87-3.43.34-4.3-1.16-.78-1.36-.44-3.09.8-4.06l29.66-22.82-33.23,19.18c-1.51.86-3.43.34-4.3-1.17-.77-1.35-.45-3.06.77-4.03l30.46-24.02-29.11,16.8c-1.51.86-3.43.34-4.3-1.17-.77-1.35-.45-3.06.77-4.03l21.22-16.75-16.33,9.44c-1.52.84-3.44.28-4.27-1.24-.67-1.21-.46-2.71.5-3.71l14.48-14.48c-1.43.49-3.01-.1-3.78-1.4-.86-1.5-.35-3.42,1.15-4.29l20.05-11.58c1.52-.84,3.44-.28,4.27,1.24.67,1.21.46,2.71-.5,3.71l-14.32,14.33,33.33-19.23c1.52-.85,3.43-.31,4.29,1.2.75,1.34.43,3.03-.77,3.99l-21.24,16.75,29.24-16.88c1.51-.87,3.43-.35,4.3,1.16.78,1.35.45,3.08-.78,4.04l-30.46,24.02,36.56-21.1c1.51-.87,3.43-.34,4.3,1.16.78,1.36.44,3.09-.8,4.06l-29.62,22.81,32.49-18.76c1.51-.86,3.43-.34,4.3,1.17.79,1.38.43,3.14-.85,4.09l-15.87,11.68,15.53-8.96c1.52-.85,3.44-.3,4.28,1.21.72,1.3.44,2.92-.67,3.9l-17.11,14.61,15.11-8.73c1.51-.87,3.43-.34,4.3,1.16.63,1.11.54,2.49-.24,3.49l-10.25,13.13,3.66-2.11c1.54-.81,3.44-.21,4.25,1.33.76,1.45.28,3.24-1.1,4.12l-17.65,10.21c-1.5.87-3.43.36-4.3-1.15-.64-1.11-.55-2.5.24-3.51l10.26-13.14-30.85,17.81c-1.52.85-3.44.3-4.28-1.21-.72-1.3-.44-2.92.67-3.9l17.09-14.6-34.19,19.75c-.47.28-1.01.43-1.56.43h0Z"/>
      <path class="cls-11" d="m242.29,295.77c-1.74,0-3.15-1.41-3.14-3.15,0-.88.37-1.71,1.01-2.31l4.68-4.34-7.55,4.36c-1.5.89-3.43.39-4.31-1.1-.75-1.26-.53-2.87.54-3.88l8.43-8.18-8.63,4.98c-1.51.87-3.43.35-4.3-1.15-.62-1.07-.55-2.41.17-3.41l7.55-10.44-.17.09c-1.54.81-3.44.21-4.25-1.33-.76-1.45-.28-3.24,1.1-4.12l12.91-7.45c1.51-.87,3.43-.35,4.3,1.15.62,1.07.55,2.41-.18,3.42l-7.53,10.43,17.95-10.36c1.5-.89,3.43-.39,4.31,1.1.75,1.26.53,2.87-.54,3.88l-8.43,8.18,9.77-5.63c1.5-.87,3.43-.36,4.3,1.14.74,1.28.5,2.9-.59,3.9l-4.69,4.34,2.02-1.17c1.51-.86,3.43-.33,4.29,1.18.85,1.5.34,3.4-1.14,4.27l-26.3,15.19c-.48.28-1.03.43-1.59.42h0Z"/>
      <path class="cls-2" d="m251.13,322.6c-1.74,0-3.15-1.41-3.15-3.15,0-.85.35-1.67.96-2.26l7.2-6.93-17.45,10.05c-1.51.87-3.43.35-4.3-1.15-.67-1.16-.53-2.61.34-3.62l7.59-8.81-14.64,8.45c-1.52.85-3.44.3-4.28-1.22-.48-.86-.53-1.9-.13-2.81l4.02-8.81-8.64,4.98c-1.51.87-3.43.36-4.3-1.15-.1-.17-.19-.36-.25-.55l-2.21-6.45c-1.71.33-3.36-.79-3.68-2.5-.25-1.31.35-2.64,1.51-3.31l2.4-1.39c.82-.47,1.8-.55,2.68-.22.88.31,1.58,1.01,1.89,1.89l2.15,6.3,13.85-7.99c1.51-.87,3.43-.35,4.3,1.15.51.88.56,1.95.14,2.88l-4.01,8.81,22.18-12.79c1.51-.86,3.43-.34,4.29,1.17.66,1.15.52,2.59-.33,3.6l-7.59,8.81,23.53-13.59c1.5-.89,3.43-.39,4.31,1.1.75,1.26.53,2.87-.54,3.88l-7.18,6.93,14.05-8.13c1.47-.93,3.41-.5,4.35.97s.5,3.41-.97,4.35c-.07.05-.15.09-.23.13l-36.28,21c-.48.27-1.02.4-1.57.39h0Z"/>
      <path class="cls-3" d="m335.13,423.33c9.54.08,20.03-15.89,24.62-21.86,14.79-19.23,7.28-51.62,7.28-75.08-8.7-166.99-199.25-200.07-232.27-24.91-1.56,28.26-4.68,59-1.77,87.04,4.12,13.85,31.25,51,44.94,26.03v87.43c-15.38,6.48-25.34,21.57-25.25,38.26.97,20.49,24.79,16.1,38.93,16.1,13.3,0,36.58,4.89,41.69-12.02,4.73-15.74-4.46-29.79-17.29-38.07v-84.75c16.02,7.62,21.76-18.89,34-21.62,11.89,1.15,18.14,29.65,34.58,20.1v86.48c-12.72,6.75-20.27,20.36-19.27,34.72,2.2,19.87,29.51,14.36,43.19,14.36,12.42,0,34.41,4.1,39.03-11.91,5.04-17.44-8.57-33.95-24.52-40.85v-87.91c2.36,4.67,6.9,7.85,12.1,8.46h0Zm-113.57,97.14c17.38,27.59-4.06,32.03-27.91,28.46-8.31.62-16.66.62-24.97,0-15.37-2.43-9.91-20.39-3.58-28.96,11.96-15.48,34.21-18.34,49.69-6.38,2.56,1.98,4.83,4.29,6.76,6.88h0Zm-27.91-21.91c-3.41.02-6.8.51-10.07,1.44,0-31.35.06-62.72,0-94.06,8.59-12.81,18.89-2.08,24.91,8.35v87.94c-4.69-2.08-9.71-3.32-14.83-3.67Zm54.77-106.21c-6.77.71-12.08,9.36-15.9,13.6-14.2,15.78-14.57,6.15-27.61-5.6-11.19-10.07-14.59-8.69-25.12,1.31-12.49,11.87-11.88,17.55-25.31,5.59-8.66-6.38-13.87-16.41-14.11-27.16-2.7-29.97-1.38-60.16,3.95-89.77,41.23-155.98,212.67-116.47,215.31,35.26,1,30.41,10.4,70.02-21,88.47-12.76,4.6-14.66-13.56-24.19-17.91-18.15-9.34-16.5,8.63-30.96,16.17-17.24,9.02-17.77-21.77-35.02-19.96h-.03Zm92.29,148.07c-2.69,13.55-22.36,9.3-31.54,9.3-8.68.84-17.42.84-26.1,0-13.16-2.78-11.71-13.72-8.02-23.07,5.12-12.75,17.39-21.18,31.13-21.41,16.2.37,38.27,16.57,34.57,35.18h-.03Zm-25.18-133.71v93.57c-8.28-1.73-16.89-.74-24.55,2.84v-89.35c6.16-9.29,16.12-19.48,25.14-8.7-.36.47-.56,1.04-.57,1.64h-.01Z"/>
      <path class="cls-3" d="m208.01,297.66c15.29,33.8,68.71,32.85,83.34-.82.96-.94,1.53-2.19,1.62-3.53,14.53-30.96-12.23-69.39-47-64.98-31.27,2.79-52.93,38.96-38.92,67.43-.06.76.31,1.49.96,1.9h0Zm8.03.31h68.11c-15.37,22.95-52.65,22.13-68.14,0h.03Zm34.24-7.23c-8.33.54-15.52-5.77-16.06-14.09-.54-8.33,5.77-15.52,14.09-16.06.47-.03.93-.04,1.4-.03,8.33-.54,15.52,5.77,16.06,14.09.54,8.33-5.77,15.52-14.09,16.06-.47.03-.93.04-1.4.03Zm40.61-14.14c-.24,4.97-1.3,9.86-3.15,14.48h-22.53c11.17-12.74,6.65-37.98-14.9-38.04-21.2-.06-26.88,25.26-16.04,38.04h-22.04c-22.9-61.3,73.09-77.15,78.65-14.47h0Z"/>
      <path class="cls-3" d="m292.89,360.82c3.46.49,6.77-5.83,2.39-6.71-1.8.01-3.58-.41-5.19-1.22-3.53-1.77-5.64-5.51-5.32-9.44-.04-1.89-2.4-2.21-3.78-1.67-4.18,1.74-2.82,7.3-1.45,10.46-18.39,10.32-40.79,10.45-59.3.34,1.26-2.16,1.95-4.61,2-7.11.07-3.78-7.38-4.93-7.45-1.26.33,3.83-1.65,7.49-5.04,9.31-2.15,1.49-7.75.05-7.55,4.05,2.12,5.14,10.07,2.03,13.39,0,20.99,13.08,47.54,13.28,68.72.5,2.51,1.79,5.51,2.75,8.59,2.75h0Z"/>
    </g>
  </g>
  <g id="Capa_3" data-name="Capa 3">
    <g id="Capa_1-2" data-name="Capa 1">
      <g>
        <g>
          <g>
            <path class="cls-5" d="m304.27,15.77s-1.83,1.17-4.61,3.6c-2.79,2.43-6.49,6.19-10.19,11.56-3.7,5.32-7.35,12.12-10.19,20.48-2.84,8.31-4.77,18.15-5.48,29.56-.66,11.41,0,23.83,1.01,36,1.01,12.17,2.33,24.08,3.45,34.53,1.12,10.39,1.98,19.52,2.53,26.01.56,6.44.86,10.29.86,10.29,0,0,1.32-3.65,3.5-9.73,2.23-6.13,5.42-14.6,9.18-24.44,3.75-9.84,8.11-21.04,12.27-32.5,4.11-11.51,7.96-23.17,10.29-34.43,2.28-11.2,2.99-21.34,2.38-30.07-.56-8.77-2.38-16.27-4.56-22.36-2.18-6.13-4.82-10.8-6.9-13.84-2.08-3.09-3.55-4.66-3.55-4.66Z"/>
            <path class="cls-4" d="m318.92,73.67c-6.49,5.68-12.12,10.8-16.38,14.7-4.31,3.95-7.35,7-8.87,8.37-1.06-1.77-3.35-5.37-6.39-10.39-3.14-4.87-7.2-11.15-12.02-18.4-.15,1.17-.35,2.33-.51,3.5,5.42,8.21,9.84,14.96,12.88,19.77,3.04,4.87,4.82,7.76,4.82,7.81l.71,1.17,1.01-.96s2.54-2.38,6.69-6.29c4.21-3.8,10.24-9.33,17.59-15.77.15-1.22.3-2.38.41-3.55l.05.05Z"/>
            <path class="cls-13" d="m279.93,201.03s1.01-3.09,2.59-9.43c1.57-6.34,3.7-15.92,5.73-29,1.98-13.08,3.4-28.24,4.06-40.21.66-11.97.71-20.69.71-20.69,0,0-2.23,8.42-4.66,20.18-2.48,11.71-5.07,26.77-6.49,39.9s-1.83,22.97-1.98,29.46c-.1,6.54.05,9.73.05,9.73v.05Z"/>
            <path class="cls-8" d="m276.33,62.11c5.37,8.31,9.89,15.16,13.08,20.23,3.19,5.02,5.07,8.01,5.07,8.01,0,0,2.59-2.38,7-6.44,4.46-4.01,10.7-9.63,17.9-16.12.86-16.58-2.69-29.61-6.69-38.58-1.98-4.51-4.11-7.76-5.68-10.04-1.57-2.23-2.69-3.4-2.69-3.4,0,0-1.32.81-3.45,2.59-2.13,1.77-5.02,4.41-8.06,8.16-6.19,7.61-12.93,19.37-16.43,35.59h-.05Z"/>
            <path class="cls-12" d="m316.89,86.65c2.28-11.2,2.99-21.34,2.38-30.07-.56-8.77-2.38-16.27-4.56-22.36-2.18-6.13-4.82-10.8-6.9-13.84-2.08-3.09-3.55-4.66-3.55-4.66l-22.61,171.97s1.32-3.65,3.5-9.73c2.23-6.13,5.42-14.6,9.18-24.44,3.75-9.84,8.11-21.04,12.27-32.5,4.11-11.51,7.96-23.17,10.29-34.43v.05Z"/>
          </g>
          <g>
            <path class="cls-6" d="m365.92,46.8s-2.03.66-5.32,2.28c-3.3,1.67-7.76,4.31-12.62,8.42-4.87,4.16-10.09,9.73-14.86,16.98-4.77,7.25-9.13,16.12-12.57,26.82-3.5,10.7-5.93,22.66-8.01,34.53-2.08,11.81-3.8,23.47-5.37,33.72-1.57,10.24-3.04,19.16-4.11,25.45-1.06,6.24-1.72,9.99-1.72,9.99,0,0,2.18-3.14,5.78-8.42,3.6-5.17,8.77-12.47,14.86-20.94,6.03-8.42,13.03-18.1,19.82-27.89,6.74-9.84,13.38-20.08,18.4-30.17,5.02-10.09,8.16-19.52,9.84-28.04,1.67-8.57,1.83-16.07,1.27-22.41-.61-6.34-1.88-11.46-3.09-14.96-1.22-3.45-2.23-5.32-2.23-5.32l-.05-.05Z"/>
            <path class="cls-10" d="m365.31,105.71c-3.8,1.83-7.3,3.6-10.6,5.32-3.19,1.67-6.13,3.19-8.72,4.56-5.07,2.64-8.72,4.72-10.49,5.68-.61-1.93-1.83-5.93-3.5-11.46-1.72-5.58-4.11-12.42-6.84-20.53-.46,1.06-.91,2.13-1.37,3.19,1.52,4.51,2.94,8.67,4.21,12.42.61,1.83,1.17,3.55,1.72,5.17.51,1.62.96,3.14,1.42,4.51,1.67,5.37,2.64,8.57,2.69,8.62l.41,1.27,1.22-.66s.76-.41,2.13-1.17,3.3-1.77,5.78-3.09c2.54-1.32,5.53-2.89,8.97-4.72,1.77-.91,3.6-1.88,5.58-2.89,1.98-.96,4.01-1.98,6.13-2.99.46-1.12.86-2.18,1.27-3.24Z"/>
            <path class="cls-13" d="m296.31,217.15s1.72-2.69,4.82-8.37c3.09-5.68,7.5-14.25,12.67-26.16s10.34-26.11,13.94-37.32c3.65-11.2,5.83-19.47,5.83-19.47,0,0-4.26,7.45-9.48,18.05-5.27,10.55-11.51,24.23-16.17,36.4-4.66,12.17-7.5,21.4-9.23,27.58-1.72,6.19-2.38,9.28-2.38,9.28Z"/>
            <path class="cls-1" d="m327.64,83.96c3.04,9.23,5.68,16.83,7.45,22.51,1.77,5.53,2.84,8.82,2.84,8.82,0,0,.76-.41,2.18-1.17s3.5-1.88,6.03-3.19c2.59-1.37,5.73-2.99,9.23-4.82,3.55-1.88,7.55-3.95,11.81-6.08,5.02-15.72,4.92-28.95,3.3-38.43-1.57-9.53-4.61-14.91-4.61-14.91,0,0-5.98,1.83-13.69,7.4-7.76,5.58-17.24,15.21-24.59,29.76l.05.1Z"/>
            <path class="cls-12" d="m360.14,117.52c5.02-10.09,8.16-19.52,9.84-28.04,1.67-8.57,1.83-16.07,1.27-22.41-.61-6.34-1.88-11.46-3.09-14.96-1.22-3.45-2.23-5.32-2.23-5.32l-64.59,158.13s2.18-3.14,5.78-8.42c3.6-5.17,8.77-12.47,14.86-20.94,6.03-8.42,13.03-18.1,19.82-27.89,6.74-9.84,13.38-20.08,18.4-30.17h-.05Z"/>
          </g>
          <g>
            <path class="cls-5" d="m417.28,90.2s-1.98.1-5.27.81-7.96,2.03-13.23,4.51c-5.22,2.43-11.26,6.24-17.19,11.51-5.98,5.27-11.91,12.17-17.59,20.84-5.63,8.67-10.65,18.71-15.31,28.7-4.66,10.04-8.87,19.82-12.78,28.65-7.71,17.54-13.54,30.01-13.54,30.01,0,0,2.64-2.23,7.1-5.98,4.46-3.75,10.8-9.02,18.2-15.11,7.4-6.13,15.77-12.83,24.13-20.03,8.37-7.15,16.68-14.7,23.47-22.46,6.84-7.76,11.86-15.36,15.36-22.56,3.5-7.15,5.53-13.94,6.49-19.62.96-5.73,1.01-10.55.81-13.94-.2-3.4-.66-5.32-.66-5.32Z"/>
            <path class="cls-4" d="m402.67,142.31c-3.8.76-7.35,1.52-10.6,2.18-3.24.76-6.24,1.42-8.82,2.03-5.12,1.22-8.82,2.08-10.65,2.48-.1-1.88-.25-5.68-.46-10.9-.1-2.64-.2-5.73-.46-9.02-.25-3.35-.51-6.95-.76-10.85-.66.81-1.32,1.67-1.98,2.54.3,4.36.61,8.37.86,11.97.15,3.6.3,6.74.46,9.38.2,5.12.35,8.16.35,8.21v1.22l1.27-.25c.05,0,2.99-.71,8.01-1.88,2.53-.61,5.63-1.32,9.13-2.08,3.5-.71,7.45-1.52,11.71-2.43.66-.86,1.27-1.72,1.93-2.59Z"/>
            <path class="cls-13" d="m315.07,224.85s2.18-1.93,6.24-6.19c4.06-4.26,10.04-10.8,17.49-20.18,7.4-9.38,15.36-20.69,21.24-29.81,5.93-9.13,9.84-15.97,9.84-15.97,0,0-5.53,5.63-12.73,13.79-7.2,8.11-15.97,18.81-23.02,28.49-7,9.68-11.71,17.19-14.75,22.26-2.99,5.07-4.31,7.66-4.31,7.66v-.05Z"/>
            <path class="cls-8" d="m374.44,114.13c.25,4.36.56,8.47.76,12.12.2,3.65.35,6.9.46,9.63.3,5.32.46,8.47.46,8.47,0,0,3.09-.71,8.26-1.83,2.64-.61,5.83-1.32,9.38-2.13,3.6-.76,7.6-1.62,11.86-2.53,4.06-6.34,6.9-12.47,8.82-18.15s2.84-10.75,3.24-15.16c.41-4.36.25-7.96.05-10.44-.2-2.48-.56-3.9-.56-3.9,0,0-5.73.25-13.94,3.4-8.16,3.04-18.86,9.38-28.85,20.58l.05-.05Z"/>
            <path class="cls-12" d="m395.32,151.59c6.84-7.76,11.86-15.36,15.36-22.56,3.5-7.15,5.53-13.94,6.49-19.62.96-5.73,1.01-10.55.81-13.94-.2-3.4-.66-5.32-.66-5.32l-94.86,125.03s2.64-2.23,7.1-5.98c4.46-3.75,10.8-9.02,18.2-15.11,7.4-6.13,15.77-12.83,24.13-20.03,8.37-7.15,16.68-14.7,23.47-22.46h-.05Z"/>
          </g>
          <g>
            <path class="cls-6" d="m451.4,138.01s-1.77-.41-4.87-.56c-3.14-.1-7.6,0-12.93,1.06-5.32,1.06-11.41,2.94-18,6.34s-13.54,8.16-20.63,14.65c-7.1,6.49-13.89,14.3-20.38,22.16-6.44,7.81-12.67,15.82-18.1,22.76-5.48,6.95-10.19,12.88-13.59,17.09-3.45,4.21-5.48,6.74-5.48,6.74,0,0,2.89-1.42,7.76-3.75,4.87-2.33,11.86-5.63,19.82-9.33,7.96-3.7,17.09-7.86,26.26-12.37s18.35-9.38,26.26-14.8,14.15-11.05,18.91-16.68c4.77-5.63,8.11-11.15,10.39-16.12,2.23-4.92,3.35-9.18,3.9-12.27.56-3.04.61-4.87.61-4.87l.05-.05Z"/>
            <path class="cls-10" d="m426.3,181.3c-7.3-.3-13.44-.61-18.4-.66-4.87-.05-8.47-.15-10.19-.15.2-.86.51-2.13.86-3.8s.81-3.7,1.27-6.08c.96-4.77,2.33-11.05,3.55-18.05-.76.61-1.57,1.22-2.38,1.83-1.37,7.96-2.89,14.75-3.8,19.37-.51,2.33-.86,4.16-1.17,5.48-.3,1.27-.46,1.98-.46,2.03l-.25,1.12h1.17s2.89.1,7.66.15c1.22,0,2.53,0,4.01.05,1.42.05,2.99.1,4.61.15,3.35.15,7.1.3,11.15.46.76-.61,1.57-1.27,2.28-1.88h.1Z"/>
            <path class="cls-13" d="m328.65,235.2s2.38-1.27,7.05-4.11c4.61-2.89,11.51-7.4,20.33-14.04,8.82-6.69,18.51-15.01,25.91-21.85,7.4-6.79,12.47-12.02,12.47-12.02,0,0-6.24,3.75-14.55,9.38-8.31,5.58-18.71,13.13-27.23,20.18-8.52,7.05-14.45,12.68-18.35,16.58-3.9,3.85-5.68,5.93-5.68,5.93l.05-.05Z"/>
            <path class="cls-1" d="m407.54,149.62c-.35,1.98-.76,3.9-1.12,5.78-.35,1.88-.76,3.65-1.06,5.32-.66,3.3-1.27,6.24-1.77,8.67-.46,2.43-.86,4.31-1.17,5.68-.3,1.32-.41,2.08-.41,2.08,0,0,2.94.1,7.91.25,5.07.05,11.91.41,20.13.66,10.14-9.48,15.77-19.42,18.51-27.07,2.74-7.6,2.84-12.88,2.84-12.88,0,0-1.27-.25-3.55-.46s-5.63-.2-9.68.25c-8.11.91-18.96,3.95-30.62,11.76v-.05Z"/>
            <path class="cls-12" d="m417.58,187.94c7.91-5.42,14.15-11.05,18.91-16.68s8.11-11.15,10.39-16.12c2.23-4.92,3.35-9.18,3.9-12.27.56-3.04.61-4.87.61-4.87l-113.97,90.2s2.89-1.42,7.76-3.75c4.87-2.33,11.86-5.63,19.82-9.33,7.96-3.7,17.09-7.86,26.26-12.37s18.35-9.38,26.26-14.8h.05Z"/>
          </g>
          <g>
            <path class="cls-5" d="m476.6,187.03s-1.52-.81-4.36-1.72c-1.42-.46-3.14-.96-5.17-1.37-2.03-.41-4.41-.76-7-.96-5.22-.41-11.41-.15-18.3,1.27s-14.6,4.06-22.81,8.21c-8.21,4.16-16.48,9.63-24.59,15.26-8.06,5.63-15.77,11.41-22.61,16.43-3.4,2.48-6.59,4.82-9.43,6.9-2.89,2.08-5.42,3.9-7.55,5.48-4.21,3.04-6.74,4.82-6.74,4.82,0,0,3.04-.56,8.16-1.47,5.17-.96,12.37-2.18,20.74-3.55s17.9-2.94,27.53-4.77c9.63-1.88,19.32-4.01,28.04-7,8.67-2.99,15.97-6.69,21.8-10.65s10.29-8.21,13.64-12.22,5.58-7.71,6.84-10.34c1.32-2.69,1.83-4.31,1.83-4.31h0Z"/>
            <path class="cls-4" d="m442.32,220.65c-6.59-2.13-12.42-3.9-16.88-5.27-4.46-1.37-7.86-2.28-9.38-2.74.76-1.47,2.38-4.51,4.61-8.67,2.13-4.16,4.87-9.53,7.96-15.82-.86.35-1.77.71-2.64,1.06-3.45,7.05-6.44,12.88-8.52,16.93-2.18,4.11-3.45,6.49-3.45,6.54l-.51.96,1.06.3s2.69.76,7.1,2.08c4.36,1.37,10.65,3.24,18.1,5.68.86-.41,1.77-.76,2.64-1.17l-.1.1Z"/>
            <path class="cls-13" d="m338.08,245.64s2.53-.56,7.61-2.03c5.02-1.47,12.57-3.9,22.46-7.81,9.89-3.95,20.99-9.18,29.56-13.59s14.65-7.96,14.65-7.96c0,0-6.74,1.88-15.87,4.97-9.13,3.04-20.63,7.4-30.32,11.71-9.68,4.36-16.68,8.06-21.24,10.65s-6.74,4.06-6.74,4.06h-.1Z"/>
            <path class="cls-8" d="m433.09,186.58c-3.55,6.95-6.59,12.98-8.77,17.29-2.18,4.26-3.5,6.74-3.5,6.74,0,0,2.74.81,7.3,2.18,4.56,1.42,11,3.4,18.45,5.73,11.86-6.19,19.47-13.94,24.03-20.33,2.33-3.19,3.75-5.98,4.66-7.96.91-2.03,1.27-3.19,1.27-3.19,0,0-1.12-.56-3.19-1.32-2.08-.71-5.07-1.67-8.97-2.23-7.76-1.17-18.66-1.12-31.33,3.09h.05Z"/>
            <path class="cls-12" d="m432.49,224.6c8.67-2.99,15.97-6.69,21.8-10.65,5.83-3.95,10.29-8.21,13.64-12.22s5.58-7.71,6.84-10.34c1.32-2.69,1.83-4.31,1.83-4.31l-128.58,54.35s3.04-.56,8.16-1.47c5.17-.96,12.37-2.18,20.74-3.55s17.9-2.94,27.53-4.77c9.63-1.88,19.32-4.01,28.04-7v-.05Z"/>
          </g>
          <g>
            <path class="cls-6" d="m472.69,231.7s-1.32-.86-3.75-2.03c-2.43-1.12-6.03-2.54-10.55-3.5-4.61-.96-10.19-1.47-16.58-.96-6.39.46-13.54,1.93-21.34,4.66-7.86,2.79-15.92,6.69-23.78,10.8-7.86,4.11-15.41,8.37-22.11,12.02-13.49,7.45-23.27,12.67-23.27,12.67,0,0,2.79-.15,7.5-.35s11.31-.46,18.91-.76c7.66-.3,16.43-.56,25.2-1.06,8.82-.56,17.75-1.37,25.91-3.04,8.11-1.67,15.06-4.11,20.79-7,5.78-2.89,10.19-6.19,13.64-9.33,3.45-3.19,5.83-6.24,7.35-8.47,1.52-2.23,2.13-3.65,2.13-3.65h-.05Z"/>
            <path class="cls-10" d="m438.06,257.81c-5.58-2.69-10.6-4.92-14.5-6.64-3.85-1.72-6.64-2.94-8.06-3.55,1.67-2.43,7.2-9.94,14.04-20.38-.81.2-1.67.41-2.48.66-3.95,5.93-7.15,10.75-9.63,14.15-2.38,3.4-3.8,5.37-3.8,5.42l-.56.81.91.41s.61.25,1.67.71c1.01.46,2.53,1.12,4.41,1.98,3.75,1.72,9.28,4.11,15.51,7.15.81-.25,1.67-.51,2.48-.71Z"/>
            <path class="cls-13" d="m341.94,268.05s2.38-.2,7.05-.91c4.66-.76,11.66-2.03,20.94-4.41,9.28-2.38,19.87-5.78,28.04-8.77,8.16-2.94,13.99-5.42,13.99-5.42,0,0-6.29.91-14.8,2.59-8.52,1.67-19.37,4.21-28.54,6.95-9.18,2.74-15.87,5.27-20.23,7.05-4.41,1.77-6.49,2.84-6.49,2.84l.05.1Z"/>
            <path class="cls-1" d="m433.8,226.32c-4.01,5.88-7.35,10.85-9.84,14.4-2.43,3.55-3.85,5.63-3.85,5.63,0,0,2.33,1.06,6.24,2.84,1.98.91,4.31,1.98,7,3.19,1.37.61,2.79,1.27,4.26,1.93,1.47.71,2.99,1.42,4.61,2.13,5.68-2.08,10.49-4.66,14.45-7.3,3.95-2.69,7.05-5.48,9.43-8.06s4.11-4.92,5.17-6.59c1.01-1.67,1.47-2.69,1.47-2.69,0,0-3.75-2.59-10.44-4.56-6.69-1.98-16.58-3.14-28.39-.86l-.1-.05Z"/>
            <path class="cls-12" d="m428.84,260.19c8.11-1.67,15.06-4.11,20.79-7,5.78-2.89,10.19-6.19,13.64-9.33,3.45-3.19,5.83-6.24,7.35-8.47,1.52-2.23,2.13-3.65,2.13-3.65l-121.38,33.72s2.79-.15,7.5-.35,11.31-.46,18.91-.76c7.66-.3,16.43-.56,25.2-1.06,8.82-.56,17.75-1.37,25.91-3.04l-.05-.05Z"/>
          </g>
          <g>
            <path class="cls-5" d="m462.4,275.86s-.2-.25-.71-.71c-.46-.46-1.17-1.06-2.13-1.83-1.88-1.47-4.72-3.4-8.47-5.17-3.75-1.77-8.52-3.35-14.15-4.26s-12.17-1.12-19.52-.35c-7.35.76-15.21,2.48-22.82,4.41-7.66,1.93-15.06,4.06-21.65,5.88-6.54,1.83-12.27,3.35-16.33,4.46-4.01,1.06-6.44,1.72-6.44,1.72,0,0,9.68,1.77,23.17,4.51,6.74,1.32,14.25,2.89,22.05,4.26,7.76,1.32,15.72,2.48,23.12,2.69,7.4.2,13.89-.46,19.42-1.83,5.53-1.32,10.24-3.24,13.79-5.27,3.6-2.03,6.29-4.16,8.06-5.78s2.64-2.74,2.64-2.74h-.05Z"/>
            <path class="cls-4" d="m427.01,291.32c-2.18-1.72-4.21-3.35-6.03-4.82s-3.6-2.79-5.12-3.95c-2.99-2.28-5.17-3.9-6.24-4.72,1.01-.86,3.04-2.69,5.83-5.17,1.42-1.27,3.04-2.74,4.82-4.31,1.72-1.62,3.65-3.4,5.68-5.27h-2.28c-2.28,2.13-4.36,4.11-6.29,5.83s-3.6,3.19-4.97,4.46c-2.74,2.43-4.36,3.9-4.41,3.9l-.66.61.71.56s1.77,1.32,4.66,3.6c1.47,1.12,3.3,2.48,5.32,4.06,2.03,1.62,4.26,3.4,6.69,5.32.76,0,1.52-.1,2.28-.1Z"/>
            <path class="cls-13" d="m341.53,280.37s2.08.35,6.24.66c4.21.3,10.55.66,19.11.51,8.57-.15,18.4-.91,26.11-1.83,7.71-.86,13.28-1.77,13.28-1.77,0,0-1.42-.1-3.75-.3-2.38-.15-5.73-.35-9.63-.51-7.76-.3-17.64-.35-26.21.15-8.52.51-14.8,1.32-19.01,1.93-4.16.66-6.19,1.12-6.19,1.12l.05.05Z"/>
            <path class="cls-8" d="m429.8,263.13c-4.56,4.26-8.67,7.86-11.51,10.44-2.84,2.54-4.51,4.06-4.51,4.06,0,0,1.77,1.37,4.77,3.75,1.52,1.17,3.35,2.59,5.48,4.21,2.08,1.62,4.36,3.45,6.79,5.37,10.7-1.32,18.76-4.92,23.88-8.42,5.17-3.5,7.71-6.69,7.71-6.69,0,0-.66-.76-2.03-1.88-1.37-1.12-3.4-2.69-6.13-4.21-2.74-1.52-6.08-3.09-10.19-4.31-4.11-1.22-8.87-2.08-14.25-2.33Z"/>
            <path class="cls-12" d="m418.49,291.47c7.4.2,13.89-.46,19.42-1.83,5.53-1.32,10.24-3.24,13.79-5.27,3.6-2.03,6.29-4.16,8.06-5.78s2.64-2.74,2.64-2.74l-112.2,4.21s9.68,1.77,23.17,4.51c6.74,1.32,14.25,2.89,22.05,4.26,7.76,1.32,15.72,2.48,23.12,2.69l-.05-.05Z"/>
          </g>
          <g>
            <path class="cls-5" d="m188.87,15.77s1.83,1.17,4.61,3.6c2.79,2.43,6.49,6.19,10.19,11.56,3.7,5.32,7.35,12.12,10.19,20.48,2.84,8.31,4.77,18.15,5.48,29.56.66,11.41,0,23.83-1.01,36-1.01,12.17-2.33,24.08-3.45,34.53-1.12,10.39-1.98,19.52-2.53,26.01-.56,6.44-.86,10.29-.86,10.29,0,0-1.32-3.65-3.5-9.73-2.23-6.13-5.42-14.6-9.18-24.44-3.75-9.84-8.11-21.04-12.27-32.5-4.11-11.51-7.96-23.17-10.29-34.43-2.28-11.2-2.99-21.34-2.38-30.07.56-8.77,2.38-16.27,4.56-22.36,2.18-6.13,4.82-10.8,6.9-13.84,2.08-3.09,3.55-4.66,3.55-4.66Z"/>
            <path class="cls-4" d="m174.27,73.67c6.49,5.68,12.12,10.8,16.38,14.7,4.31,3.95,7.35,7,8.87,8.37,1.06-1.77,3.35-5.37,6.39-10.39,3.14-4.87,7.2-11.15,12.02-18.4.15,1.17.35,2.33.51,3.5-5.42,8.21-9.84,14.96-12.88,19.77-3.04,4.87-4.82,7.76-4.82,7.81l-.71,1.17-1.01-.96s-2.54-2.38-6.69-6.29c-4.21-3.8-10.24-9.33-17.59-15.77-.15-1.22-.3-2.38-.41-3.55l-.05.05Z"/>
            <path class="cls-13" d="m213.26,201.03s-1.01-3.09-2.59-9.43c-1.57-6.34-3.7-15.92-5.73-29-1.98-13.08-3.4-28.24-4.06-40.21-.66-11.97-.71-20.69-.71-20.69,0,0,2.23,8.42,4.66,20.18,2.48,11.71,5.07,26.77,6.49,39.9,1.47,13.13,1.83,22.97,1.98,29.46.1,6.54-.05,9.73-.05,9.73v.05Z"/>
            <path class="cls-8" d="m216.86,62.11c-5.37,8.31-9.89,15.16-13.08,20.23-3.19,5.02-5.07,8.01-5.07,8.01,0,0-2.59-2.38-6.95-6.44-4.46-4.01-10.7-9.63-17.9-16.12-.86-16.58,2.69-29.61,6.69-38.58,1.98-4.51,4.11-7.76,5.68-10.04,1.57-2.23,2.69-3.4,2.69-3.4,0,0,1.32.81,3.45,2.59,2.13,1.77,5.02,4.41,8.06,8.16,6.19,7.61,12.93,19.37,16.43,35.59Z"/>
            <path class="cls-12" d="m176.3,86.65c-2.28-11.2-2.99-21.34-2.38-30.07.56-8.77,2.38-16.27,4.56-22.36,2.18-6.13,4.82-10.8,6.9-13.84,2.08-3.09,3.55-4.66,3.55-4.66l22.61,171.97s-1.32-3.65-3.5-9.73c-2.23-6.13-5.42-14.6-9.18-24.44-3.75-9.84-8.11-21.04-12.27-32.5-4.11-11.51-7.96-23.17-10.29-34.43v.05Z"/>
          </g>
          <g>
            <path class="cls-6" d="m127.27,46.8s2.03.66,5.32,2.28c3.3,1.67,7.76,4.31,12.62,8.42,4.87,4.16,10.09,9.73,14.86,16.98,4.77,7.25,9.13,16.12,12.57,26.82,3.5,10.7,5.93,22.66,8.01,34.53,2.08,11.81,3.8,23.47,5.37,33.72s3.04,19.16,4.11,25.45c1.06,6.24,1.72,9.99,1.72,9.99,0,0-2.18-3.14-5.78-8.42-3.6-5.17-8.77-12.47-14.86-20.94-6.03-8.42-13.03-18.1-19.82-27.89-6.74-9.84-13.38-20.08-18.4-30.17-5.02-10.09-8.16-19.52-9.84-28.04-1.67-8.57-1.83-16.07-1.27-22.41.61-6.34,1.88-11.46,3.09-14.96,1.22-3.45,2.23-5.32,2.23-5.32l.05-.05Z"/>
            <path class="cls-10" d="m127.88,105.71c3.8,1.83,7.3,3.6,10.6,5.32,3.19,1.67,6.13,3.19,8.72,4.56,5.07,2.64,8.72,4.72,10.49,5.68.61-1.93,1.83-5.93,3.5-11.46,1.72-5.58,4.11-12.42,6.84-20.53.46,1.06.91,2.13,1.37,3.19-1.52,4.51-2.94,8.67-4.21,12.42-.61,1.83-1.17,3.55-1.72,5.17-.51,1.62-.96,3.14-1.42,4.51-1.67,5.37-2.64,8.57-2.69,8.62l-.41,1.27-1.22-.66s-.76-.41-2.13-1.17c-1.37-.76-3.3-1.77-5.78-3.09-2.53-1.32-5.53-2.89-8.97-4.72-1.77-.91-3.6-1.88-5.58-2.89-1.98-.96-4.01-1.98-6.13-2.99-.46-1.12-.86-2.18-1.27-3.24Z"/>
            <path class="cls-13" d="m196.88,217.15s-1.72-2.69-4.82-8.37c-3.09-5.68-7.5-14.25-12.68-26.16-5.17-11.91-10.34-26.11-13.94-37.32-3.65-11.2-5.83-19.47-5.83-19.47,0,0,4.26,7.45,9.48,18.05,5.27,10.55,11.51,24.23,16.17,36.4,4.66,12.17,7.5,21.4,9.23,27.58,1.72,6.19,2.38,9.28,2.38,9.28Z"/>
            <path class="cls-1" d="m165.55,83.96c-3.04,9.23-5.68,16.83-7.45,22.51-1.77,5.53-2.84,8.82-2.84,8.82,0,0-.76-.41-2.18-1.17s-3.5-1.88-6.03-3.19c-2.59-1.37-5.73-2.99-9.23-4.82-3.55-1.88-7.55-3.95-11.81-6.08-5.02-15.72-4.92-28.95-3.3-38.43,1.57-9.53,4.61-14.91,4.61-14.91,0,0,5.98,1.83,13.69,7.4,7.76,5.58,17.24,15.21,24.59,29.76l-.05.1Z"/>
            <path class="cls-12" d="m133.05,117.52c-5.02-10.09-8.16-19.52-9.84-28.04-1.67-8.57-1.83-16.07-1.27-22.41.61-6.34,1.88-11.46,3.09-14.96,1.22-3.45,2.23-5.32,2.23-5.32l64.59,158.13s-2.18-3.14-5.78-8.42c-3.6-5.17-8.77-12.47-14.86-20.94-6.03-8.42-13.03-18.1-19.82-27.89-6.74-9.84-13.38-20.08-18.4-30.17h.05Z"/>
          </g>
          <g>
            <path class="cls-5" d="m75.91,90.2s1.98.1,5.27.81,7.96,2.03,13.23,4.51c5.22,2.43,11.26,6.24,17.19,11.51,5.98,5.27,11.91,12.17,17.59,20.84,5.63,8.67,10.65,18.71,15.31,28.7,4.66,10.04,8.87,19.82,12.78,28.65,7.71,17.54,13.54,30.01,13.54,30.01,0,0-2.64-2.23-7.1-5.98-4.46-3.75-10.8-9.02-18.2-15.11-7.4-6.13-15.77-12.83-24.13-20.03-8.37-7.15-16.68-14.7-23.47-22.46-6.84-7.76-11.86-15.36-15.36-22.56-3.5-7.15-5.53-13.94-6.49-19.62-.96-5.73-1.01-10.55-.81-13.94s.66-5.32.66-5.32Z"/>
            <path class="cls-4" d="m90.46,142.31c3.8.76,7.35,1.52,10.6,2.18,3.24.76,6.24,1.42,8.82,2.03,5.12,1.22,8.82,2.08,10.65,2.48.1-1.88.25-5.68.46-10.9.1-2.64.2-5.73.46-9.02.25-3.35.51-6.95.76-10.85.66.81,1.32,1.67,1.98,2.54-.3,4.36-.61,8.37-.86,11.97-.15,3.6-.3,6.74-.46,9.38-.2,5.12-.35,8.16-.35,8.21v1.22l-1.27-.25c-.05,0-2.99-.71-8.01-1.88-2.54-.61-5.63-1.32-9.13-2.08-3.5-.71-7.45-1.52-11.71-2.43-.66-.86-1.27-1.72-1.93-2.59Z"/>
            <path class="cls-13" d="m178.12,224.85s-2.18-1.93-6.24-6.19c-4.06-4.26-10.04-10.8-17.49-20.18-7.4-9.38-15.36-20.69-21.24-29.81-5.93-9.13-9.84-15.97-9.84-15.97,0,0,5.53,5.63,12.73,13.79,7.2,8.11,15.97,18.81,23.02,28.49,7,9.68,11.71,17.19,14.75,22.26,2.99,5.07,4.31,7.66,4.31,7.66v-.05Z"/>
            <path class="cls-8" d="m118.7,114.13c-.25,4.36-.56,8.47-.76,12.12-.2,3.65-.35,6.9-.46,9.63-.3,5.32-.46,8.47-.46,8.47,0,0-3.09-.71-8.26-1.83-2.64-.61-5.83-1.32-9.38-2.13-3.6-.76-7.6-1.62-11.86-2.53-4.06-6.34-6.9-12.47-8.82-18.15s-2.84-10.75-3.24-15.16c-.41-4.36-.25-7.96-.05-10.44.2-2.48.56-3.9.56-3.9,0,0,5.73.25,13.94,3.4,8.16,3.04,18.86,9.38,28.85,20.58l-.05-.05Z"/>
            <path class="cls-12" d="m97.87,151.59c-6.84-7.76-11.86-15.36-15.36-22.56-3.5-7.15-5.53-13.94-6.49-19.62-.96-5.73-1.01-10.55-.81-13.94s.66-5.32.66-5.32l94.86,125.03s-2.64-2.23-7.1-5.98-10.8-9.02-18.2-15.11c-7.4-6.13-15.77-12.83-24.13-20.03-8.37-7.15-16.68-14.7-23.47-22.46h.05Z"/>
          </g>
          <g>
            <path class="cls-6" d="m41.79,138.01s1.77-.41,4.87-.56c3.14-.1,7.6,0,12.93,1.06,5.32,1.06,11.41,2.94,18,6.34s13.54,8.16,20.63,14.65c7.1,6.49,13.89,14.3,20.38,22.16,6.44,7.81,12.68,15.82,18.1,22.76,5.48,6.95,10.19,12.88,13.59,17.09,3.45,4.21,5.48,6.74,5.48,6.74,0,0-2.89-1.42-7.76-3.75-4.87-2.33-11.86-5.63-19.82-9.33s-17.09-7.86-26.26-12.37c-9.18-4.51-18.35-9.38-26.26-14.8s-14.15-11.05-18.91-16.68c-4.77-5.63-8.11-11.15-10.39-16.12-2.23-4.92-3.35-9.18-3.9-12.27-.56-3.04-.61-4.87-.61-4.87l-.05-.05Z"/>
            <path class="cls-10" d="m66.89,181.3c7.3-.3,13.44-.61,18.4-.66,4.87-.05,8.47-.15,10.19-.15-.2-.86-.51-2.13-.86-3.8s-.81-3.7-1.27-6.08c-.96-4.77-2.33-11.05-3.55-18.05.76.61,1.57,1.22,2.38,1.83,1.37,7.96,2.89,14.75,3.8,19.37.51,2.33.86,4.16,1.17,5.48.3,1.27.46,1.98.46,2.03l.25,1.12h-1.17s-2.89.1-7.66.15c-1.22,0-2.54,0-4.01.05-1.42.05-2.99.1-4.61.15-3.35.15-7.1.3-11.15.46-.76-.61-1.57-1.27-2.28-1.88h-.1Z"/>
            <path class="cls-13" d="m164.54,235.2s-2.38-1.27-7.05-4.11c-4.61-2.89-11.51-7.4-20.33-14.04-8.82-6.69-18.51-15.01-25.91-21.85-7.4-6.79-12.47-12.02-12.47-12.02,0,0,6.24,3.75,14.55,9.38,8.31,5.58,18.71,13.13,27.23,20.18,8.52,7.05,14.45,12.68,18.35,16.58,3.9,3.85,5.68,5.93,5.68,5.93l-.05-.05Z"/>
            <path class="cls-1" d="m85.65,149.62c.35,1.98.76,3.9,1.12,5.78.35,1.88.76,3.65,1.06,5.32.66,3.3,1.27,6.24,1.77,8.67.46,2.43.86,4.31,1.17,5.68.3,1.32.41,2.08.41,2.08,0,0-2.94.1-7.91.25-5.07.05-11.91.41-20.13.66-10.14-9.48-15.77-19.42-18.51-27.07-2.74-7.6-2.84-12.88-2.84-12.88,0,0,1.27-.25,3.55-.46s5.63-.2,9.68.25c8.11.91,18.96,3.95,30.62,11.76v-.05Z"/>
            <path class="cls-12" d="m75.61,187.94c-7.91-5.42-14.15-11.05-18.91-16.68-4.77-5.63-8.11-11.15-10.39-16.12-2.23-4.92-3.35-9.18-3.9-12.27-.56-3.04-.61-4.87-.61-4.87l113.97,90.2s-2.89-1.42-7.76-3.75c-4.87-2.33-11.86-5.63-19.82-9.33-7.96-3.7-17.09-7.86-26.26-12.37-9.18-4.51-18.35-9.38-26.26-14.8h-.05Z"/>
          </g>
          <g>
            <path class="cls-5" d="m16.59,187.03s1.52-.81,4.36-1.72c1.42-.46,3.14-.96,5.17-1.37s4.41-.76,7-.96c5.22-.41,11.41-.15,18.3,1.27s14.6,4.06,22.82,8.21c8.21,4.16,16.48,9.63,24.59,15.26,8.06,5.63,15.77,11.41,22.61,16.43,3.4,2.48,6.59,4.82,9.43,6.9,2.89,2.08,5.42,3.9,7.55,5.48,4.26,3.04,6.74,4.82,6.74,4.82,0,0-3.04-.56-8.16-1.47-5.17-.96-12.37-2.18-20.74-3.55-8.37-1.37-17.9-2.94-27.53-4.77-9.63-1.88-19.32-4.01-28.04-7-8.67-2.99-15.97-6.69-21.8-10.65-5.83-3.95-10.29-8.21-13.64-12.22-3.35-4.01-5.58-7.71-6.84-10.34-1.32-2.69-1.83-4.31-1.83-4.31Z"/>
            <path class="cls-4" d="m50.87,220.65c6.59-2.13,12.42-3.9,16.88-5.27,4.46-1.37,7.86-2.28,9.38-2.74-.76-1.47-2.38-4.51-4.61-8.67-2.13-4.16-4.87-9.53-7.96-15.82.86.35,1.77.71,2.64,1.06,3.45,7.05,6.44,12.88,8.52,16.93,2.18,4.11,3.45,6.49,3.45,6.54l.51.96-1.06.3s-2.69.76-7.1,2.08c-4.36,1.37-10.65,3.24-18.1,5.68-.86-.41-1.77-.76-2.64-1.17l.1.1Z"/>
            <path class="cls-13" d="m155.11,245.64s-2.53-.56-7.6-2.03c-5.02-1.47-12.57-3.9-22.46-7.81-9.89-3.95-20.99-9.18-29.56-13.59s-14.65-7.96-14.65-7.96c0,0,6.74,1.88,15.87,4.97,9.13,3.04,20.63,7.4,30.32,11.71,9.68,4.36,16.68,8.06,21.24,10.65,4.56,2.59,6.74,4.06,6.74,4.06h.1Z"/>
            <path class="cls-8" d="m60.1,186.58c3.55,6.95,6.59,12.98,8.77,17.29,2.18,4.26,3.5,6.74,3.5,6.74,0,0-2.74.81-7.3,2.18-4.56,1.42-11,3.4-18.45,5.73-11.86-6.19-19.47-13.94-24.03-20.33-2.33-3.19-3.75-5.98-4.66-7.96-.91-2.03-1.27-3.19-1.27-3.19,0,0,1.12-.56,3.19-1.32,2.08-.71,5.07-1.67,8.97-2.23,7.76-1.17,18.66-1.12,31.33,3.09h-.05Z"/>
            <path class="cls-12" d="m60.7,224.6c-8.67-2.99-15.97-6.69-21.8-10.65-5.83-3.95-10.29-8.21-13.64-12.22-3.35-4.01-5.58-7.71-6.84-10.34-1.32-2.69-1.83-4.31-1.83-4.31l128.58,54.35s-3.04-.56-8.16-1.47c-5.17-.96-12.37-2.18-20.74-3.55s-17.9-2.94-27.53-4.77c-9.63-1.88-19.32-4.01-28.04-7v-.05Z"/>
          </g>
          <g>
            <path class="cls-6" d="m20.5,231.7s1.32-.86,3.75-2.03c2.43-1.12,6.03-2.54,10.55-3.5,4.61-.96,10.19-1.47,16.58-.96,6.39.46,13.54,1.93,21.34,4.66,7.86,2.79,15.92,6.69,23.78,10.8,7.86,4.11,15.41,8.37,22.11,12.02,13.49,7.45,23.27,12.67,23.27,12.67,0,0-2.79-.15-7.5-.35s-11.31-.46-18.91-.76c-7.66-.3-16.43-.56-25.2-1.06-8.82-.56-17.75-1.37-25.91-3.04-8.11-1.67-15.06-4.11-20.79-7-5.78-2.89-10.19-6.19-13.64-9.33-3.45-3.19-5.83-6.24-7.35-8.47s-2.13-3.65-2.13-3.65h.05Z"/>
            <path class="cls-10" d="m55.13,257.81c5.58-2.69,10.6-4.92,14.5-6.64,3.85-1.72,6.64-2.94,8.06-3.55-1.67-2.43-7.2-9.94-14.04-20.38.81.2,1.67.41,2.48.66,3.95,5.93,7.15,10.75,9.63,14.15,2.38,3.4,3.8,5.37,3.8,5.42l.56.81-.91.41s-.61.25-1.67.71c-1.01.46-2.54,1.12-4.41,1.98-3.75,1.72-9.28,4.11-15.51,7.15-.81-.25-1.67-.51-2.48-.71Z"/>
            <path class="cls-13" d="m151.25,268.05s-2.38-.2-7.05-.91c-4.66-.76-11.66-2.03-20.94-4.41-9.28-2.38-19.87-5.78-28.04-8.77-8.16-2.94-13.99-5.42-13.99-5.42,0,0,6.29.91,14.8,2.59,8.52,1.67,19.37,4.21,28.54,6.95,9.18,2.74,15.87,5.27,20.23,7.05,4.41,1.77,6.49,2.84,6.49,2.84l-.05.1Z"/>
            <path class="cls-1" d="m59.39,226.32c4.01,5.88,7.35,10.85,9.84,14.4,2.43,3.55,3.85,5.63,3.85,5.63,0,0-2.33,1.06-6.24,2.84-1.98.91-4.31,1.98-7,3.19-1.37.61-2.79,1.27-4.26,1.93-1.47.71-2.99,1.42-4.61,2.13-5.68-2.08-10.49-4.66-14.45-7.3-3.95-2.69-7.05-5.48-9.43-8.06-2.38-2.59-4.11-4.92-5.17-6.59-1.01-1.67-1.47-2.69-1.47-2.69,0,0,3.75-2.59,10.44-4.56,6.69-1.98,16.58-3.14,28.39-.86l.1-.05Z"/>
            <path class="cls-12" d="m64.35,260.19c-8.11-1.67-15.06-4.11-20.79-7-5.78-2.89-10.19-6.19-13.64-9.33-3.45-3.19-5.83-6.24-7.35-8.47s-2.13-3.65-2.13-3.65l121.38,33.72s-2.79-.15-7.5-.35-11.31-.46-18.91-.76c-7.66-.3-16.43-.56-25.2-1.06-8.82-.56-17.74-1.37-25.91-3.04l.05-.05Z"/>
          </g>
          <g>
            <path class="cls-5" d="m30.79,275.86s.2-.25.71-.71c.46-.46,1.17-1.06,2.13-1.83,1.88-1.47,4.72-3.4,8.47-5.17,3.75-1.77,8.47-3.35,14.15-4.26,5.63-.91,12.17-1.12,19.52-.35,7.35.76,15.21,2.48,22.81,4.41,7.66,1.93,15.06,4.06,21.65,5.88,6.54,1.83,12.27,3.35,16.33,4.46,4.01,1.06,6.44,1.72,6.44,1.72,0,0-9.68,1.77-23.17,4.51-6.74,1.32-14.25,2.89-22.05,4.26-7.76,1.32-15.72,2.48-23.12,2.69-7.4.2-13.89-.46-19.42-1.83-5.53-1.32-10.24-3.24-13.79-5.27-3.6-2.03-6.29-4.16-8.06-5.78-1.77-1.62-2.64-2.74-2.64-2.74h.05Z"/>
            <path class="cls-4" d="m66.18,291.32c2.18-1.72,4.21-3.35,6.03-4.82s3.6-2.79,5.12-3.95c2.99-2.28,5.17-3.9,6.24-4.72-1.01-.86-3.04-2.69-5.83-5.17-1.42-1.27-3.04-2.74-4.82-4.31-1.72-1.62-3.65-3.4-5.68-5.27h2.28c2.28,2.13,4.36,4.11,6.29,5.83,1.93,1.72,3.6,3.19,4.97,4.46,2.74,2.43,4.36,3.9,4.41,3.9l.66.61-.71.56s-1.77,1.32-4.66,3.6c-1.47,1.12-3.3,2.48-5.32,4.06-2.03,1.62-4.26,3.4-6.69,5.32-.76,0-1.52-.1-2.28-.1Z"/>
            <path class="cls-13" d="m151.66,280.37s-2.08.35-6.24.66c-4.21.3-10.55.66-19.11.51-8.57-.15-18.4-.91-26.11-1.83-7.71-.86-13.28-1.77-13.28-1.77,0,0,1.42-.1,3.75-.3,2.38-.15,5.73-.35,9.63-.51,7.76-.3,17.64-.35,26.21.15,8.52.51,14.8,1.32,19.01,1.93,4.16.66,6.19,1.12,6.19,1.12l-.05.05Z"/>
            <path class="cls-8" d="m63.39,263.13c4.56,4.26,8.67,7.86,11.51,10.44,2.84,2.54,4.51,4.06,4.51,4.06,0,0-1.77,1.37-4.77,3.75-1.52,1.17-3.35,2.59-5.48,4.21-2.08,1.62-4.36,3.45-6.79,5.37-10.7-1.32-18.76-4.92-23.88-8.42-5.17-3.5-7.71-6.69-7.71-6.69,0,0,.66-.76,2.03-1.88,1.37-1.12,3.4-2.69,6.13-4.21,2.74-1.52,6.08-3.09,10.19-4.31,4.11-1.22,8.87-2.08,14.25-2.33Z"/>
            <path class="cls-12" d="m74.7,291.47c-7.4.2-13.89-.46-19.42-1.83-5.53-1.32-10.24-3.24-13.79-5.27-3.6-2.03-6.29-4.16-8.06-5.78-1.77-1.62-2.64-2.74-2.64-2.74l112.2,4.21s-9.68,1.77-23.17,4.51c-6.74,1.32-14.25,2.89-22.05,4.26-7.76,1.32-15.72,2.48-23.12,2.69l.05-.05Z"/>
          </g>
        </g>
        <g>
          <path class="cls-6" d="m246.57,0s-19.77,22.71-20.23,69.92c-.46,47.2,20.23,108.9,20.23,108.9,0,0,20.69-61.75,20.23-108.9C266.34,22.71,246.57,0,246.57,0Z"/>
          <path class="cls-10" d="m266.14,56.43c-9.18,14.2-16.98,24.49-19.52,27.78-2.53-3.3-10.34-13.59-19.52-27.78-.1,1.22-.2,2.43-.3,3.65,10.49,16.02,18.86,26.52,18.96,26.67l.86,1.12.86-1.12s8.47-10.65,18.96-26.67c-.1-1.22-.2-2.43-.3-3.65Z"/>
          <path class="cls-13" d="m246.57,192.66s4.21-13.13,4.31-40.36c.1-27.23-4.31-62.87-4.31-62.87,0,0-4.41,35.64-4.31,62.87.1,27.23,4.31,40.36,4.31,40.36Z"/>
          <path class="cls-1" d="m227.76,50.35c10.09,16.22,18.81,27.18,18.81,27.18,0,0,8.77-11,18.86-27.18C260.87,16.48,246.57,0,246.57,0c0,0-14.25,16.43-18.81,50.35Z"/>
          <path class="cls-12" d="m266.8,69.92c-.46-47.2-20.23-69.92-20.23-69.92v178.82s20.69-61.75,20.23-108.9Z"/>
        </g>
        <g>
          <path class="cls-14" d="m363.13,273.37c0-1.06,0-2.18-.1-3.35s-.2-2.33-.3-3.55c-.15-2.48-.66-5.02-1.06-7.71-.56-2.64-1.06-5.42-1.88-8.16-.71-2.79-1.67-5.53-2.59-8.26-1.06-2.69-2.08-5.42-3.35-8.01-.61-1.32-1.22-2.59-1.88-3.85-.66-1.27-1.27-2.48-1.98-3.7-1.42-2.38-2.74-4.66-4.16-6.74-1.37-2.13-2.79-4.01-4.16-5.78-1.32-1.77-2.64-3.3-3.8-4.66-1.12-1.37-2.23-2.48-3.09-3.45-1.72-1.93-2.79-2.94-2.79-2.94,0,0-1.06-1.01-2.89-2.84-.96-.86-2.13-1.88-3.5-3.09-1.32-1.22-2.94-2.43-4.66-3.8-1.77-1.37-3.7-2.74-5.78-4.21-2.13-1.37-4.36-2.89-6.79-4.26-2.38-1.42-4.92-2.74-7.55-4.06-1.32-.66-2.64-1.22-4.01-1.83-1.32-.61-2.69-1.22-4.11-1.72-2.74-1.12-5.53-2.08-8.31-2.94-2.79-.86-5.53-1.62-8.26-2.23-2.69-.61-5.32-1.17-7.86-1.52-2.48-.46-4.87-.71-7.1-.91-2.18-.25-4.21-.3-6.03-.41-1.77-.1-3.35-.1-4.66-.1-2.59,0-4.06.05-4.06.05,0,0-1.47,0-4.06-.05-1.27,0-2.84,0-4.66.1-1.77.1-3.8.15-6.03.41-2.18.2-4.56.46-7.1.91-2.53.35-5.12.91-7.86,1.52-2.69.61-5.48,1.37-8.26,2.23-2.79.91-5.58,1.83-8.31,2.94-1.37.51-2.74,1.12-4.11,1.72-1.32.61-2.69,1.17-4.01,1.83-2.59,1.32-5.17,2.59-7.55,4.06-2.43,1.37-4.61,2.89-6.79,4.26-2.08,1.47-4.06,2.84-5.78,4.21s-3.35,2.59-4.66,3.8-2.53,2.23-3.5,3.09c-1.83,1.83-2.89,2.84-2.89,2.84,0,0-1.06,1.01-2.79,2.94-.86.96-1.98,2.08-3.09,3.45-1.12,1.37-2.48,2.89-3.8,4.66-1.32,1.77-2.79,3.65-4.16,5.78-1.42,2.08-2.79,4.36-4.16,6.74-.71,1.17-1.32,2.43-1.98,3.7s-1.32,2.54-1.88,3.85c-1.27,2.59-2.28,5.32-3.35,8.01-.96,2.74-1.93,5.48-2.59,8.26-.81,2.74-1.32,5.53-1.88,8.16-.41,2.69-.86,5.22-1.06,7.71-.1,1.22-.2,2.43-.3,3.55-.05,1.17-.1,2.28-.1,3.35-.1,2.13,0,4.11,0,5.83s.1,3.24.25,4.46c.25,2.43.41,3.85.41,3.85h19.72s.2-1.12.61-3.09c.15-.96.41-2.18.76-3.5.3-1.37.66-2.84,1.12-4.46.41-1.62.96-3.35,1.57-5.17.56-1.83,1.37-3.65,2.08-5.58.81-1.88,1.62-3.85,2.64-5.73.86-1.93,2.03-3.8,3.04-5.73,1.12-1.88,2.23-3.7,3.45-5.42,1.12-1.77,2.48-3.4,3.65-5.02,1.27-1.57,2.43-3.09,3.7-4.41,1.17-1.42,2.38-2.64,3.5-3.75,1.06-1.17,2.23-2.13,3.14-2.99.91-.91,1.83-1.57,2.48-2.23,1.37-1.22,2.23-1.88,2.23-1.88,0,0,.81-.66,2.28-1.83.76-.56,1.67-1.22,2.69-1.98,1.01-.76,2.28-1.52,3.6-2.43,1.32-.86,2.79-1.72,4.36-2.64,1.62-.86,3.24-1.83,5.02-2.64,1.72-.91,3.6-1.72,5.53-2.54,1.93-.76,3.85-1.62,5.83-2.28,1.01-.3,1.98-.71,2.99-1.01s1.98-.61,2.99-.91c1.98-.56,3.95-1.06,5.88-1.52,1.93-.41,3.75-.86,5.58-1.12,1.77-.35,3.45-.56,5.02-.76,1.57-.25,2.99-.35,4.31-.51,1.27-.15,2.38-.25,3.35-.3,1.88-.15,2.89-.2,2.89-.2,0,0,1.06.1,2.89.2.91,0,2.03.1,3.35.3,1.27.15,2.74.2,4.31.51,1.57.2,3.24.41,5.02.76,1.77.3,3.65.71,5.58,1.12,1.93.41,3.9.96,5.88,1.52,1.01.3,1.98.61,2.99.91s1.98.71,2.99,1.01c1.98.66,3.9,1.52,5.83,2.28,1.88.81,3.75,1.67,5.53,2.54,1.77.81,3.4,1.83,5.02,2.64,1.57.91,3.04,1.77,4.36,2.64,1.32.91,2.53,1.67,3.6,2.43,1.06.76,1.93,1.42,2.69,1.98,1.42,1.17,2.28,1.83,2.28,1.83,0,0,.86.61,2.23,1.88.71.61,1.57,1.32,2.48,2.23s2.03,1.88,3.14,2.99c1.12,1.17,2.33,2.38,3.5,3.75,1.27,1.32,2.43,2.84,3.7,4.41,1.17,1.62,2.53,3.24,3.65,5.02,1.22,1.72,2.33,3.6,3.45,5.42,1.01,1.88,2.13,3.75,3.04,5.73,1.01,1.93,1.77,3.85,2.64,5.73.71,1.93,1.52,3.75,2.08,5.58.61,1.83,1.17,3.55,1.57,5.17.51,1.62.86,3.09,1.12,4.46.3,1.32.56,2.53.76,3.5.35,1.98.61,3.09.61,3.09h19.72s.15-1.42.41-3.85c.15-1.22.25-2.74.25-4.46.05-1.72.15-3.7,0-5.83h.1Z"/>
          <path class="cls-5" d="m276.48,199.4s2.38-1.47,4.92-2.94c2.53-1.42,5.17-2.64,5.17-2.64,0,0,1.17,2.69,2.08,5.42.46,1.32.91,2.69,1.27,3.65.3,1.01.51,1.67.51,1.67,0,0-.81-.41-2.13-.91s-2.99-1.32-4.77-1.88c-1.72-.66-3.5-1.27-4.82-1.67-1.32-.41-2.23-.71-2.23-.71Z"/>
          <path class="cls-6" d="m315.32,201.63s-.71.05-1.83.25c-1.12.15-2.53.41-3.95.71-2.84.51-5.63,1.27-5.63,1.27,0,0-.15-.71-.41-1.77-.25-1.06-.61-2.48-1.01-3.9-.76-2.79-1.72-5.73-1.72-5.73,0,0,.91.51,2.33,1.32.71.41,1.52.86,2.38,1.37.86.51,1.77,1.12,2.69,1.67,1.83,1.12,3.6,2.38,4.92,3.3,1.32.91,2.18,1.57,2.18,1.57l.05-.05Z"/>
          <path class="cls-6" d="m276.79,183.13s-2.64,1.47-5.07,3.19c-1.22.81-2.43,1.67-3.35,2.28-.91.66-1.47,1.12-1.47,1.12,0,0-1.57-2.43-3.3-4.92-1.72-2.38-3.65-4.72-3.65-4.72,0,0,1.06.1,2.64.3,1.62.15,3.7.56,5.83.91,2.13.35,4.21.86,5.78,1.22.81.15,1.42.35,1.88.46s.71.2.71.2v-.05Z"/>
          <path class="cls-5" d="m335.24,244.07s2.48.76,4.87,1.72,4.72,2.13,4.72,2.13c0,0-.15.61-.46,1.57-.25.91-.61,2.13-.96,3.35-.35,1.17-.71,2.38-1.01,3.24s-.51,1.42-.51,1.42c0,0-.35-.86-.86-2.18-.61-1.27-1.37-2.99-2.18-4.66-.91-1.67-1.72-3.35-2.43-4.56-.71-1.22-1.17-2.03-1.17-2.03Z"/>
          <path class="cls-6" d="m356.79,274.44s-.35-.46-.91-1.22c-.56-.71-1.32-1.62-2.18-2.53-1.67-1.77-3.45-3.45-3.45-3.45,0,0,.96-2.28,1.88-4.61.51-1.22.91-2.38,1.27-3.3s.56-1.57.56-1.57c0,0,.25,1.01.66,2.59.35,1.52.76,3.65,1.17,5.68.3,2.08.61,4.16.81,5.73.15,1.57.2,2.64.2,2.64v.05Z"/>
          <path class="cls-6" d="m344.22,234.08s-.66-.2-1.57-.56c-.96-.35-2.23-.76-3.55-1.12-1.32-.35-2.64-.71-3.6-.91-.96-.25-1.67-.35-1.67-.35,0,0,.25-2.74.51-5.48.15-2.74.25-5.63.25-5.63,0,0,.66.86,1.67,2.08,1.01,1.22,2.23,2.99,3.45,4.72,1.22,1.77,2.33,3.6,3.19,4.92.81,1.37,1.32,2.33,1.32,2.33Z"/>
          <path class="cls-5" d="m216.71,199.4s-2.38-1.47-4.92-2.94c-2.53-1.42-5.17-2.64-5.17-2.64,0,0-1.17,2.69-2.08,5.42-.46,1.32-.91,2.69-1.27,3.65-.3,1.01-.51,1.67-.51,1.67,0,0,.81-.41,2.13-.91s2.99-1.32,4.77-1.88c1.72-.66,3.5-1.27,4.82-1.67,1.32-.41,2.23-.71,2.23-.71Z"/>
          <path class="cls-6" d="m177.87,201.63s.71.05,1.83.25c1.12.15,2.53.41,3.95.71,2.84.51,5.63,1.27,5.63,1.27,0,0,.15-.71.41-1.77.25-1.06.61-2.48,1.01-3.9.76-2.79,1.72-5.73,1.72-5.73,0,0-.91.51-2.33,1.32-.71.41-1.52.86-2.38,1.37-.86.51-1.77,1.12-2.69,1.67-1.83,1.12-3.6,2.38-4.92,3.3-1.32.91-2.18,1.57-2.18,1.57l-.05-.05Z"/>
          <path class="cls-6" d="m216.4,183.13s2.59,1.47,5.07,3.19c1.22.81,2.43,1.67,3.35,2.28.91.66,1.47,1.12,1.47,1.12,0,0,1.57-2.43,3.3-4.92,1.72-2.38,3.65-4.72,3.65-4.72,0,0-1.06.1-2.64.3-1.62.15-3.7.56-5.83.91-2.13.35-4.21.86-5.78,1.22-.81.15-1.42.35-1.88.46s-.71.2-.71.2v-.05Z"/>
          <g>
            <path class="cls-8" d="m365.46,269.62c-.1-1.17-.15-2.38-.25-3.65-.15-2.53-.61-5.17-.96-7.91-.51-2.74-1.01-5.58-1.77-8.42-.71-2.84-1.62-5.68-2.59-8.52-1.06-2.79-2.08-5.63-3.35-8.31-.61-1.37-1.22-2.69-1.88-3.95-.66-1.27-1.27-2.59-1.98-3.8-1.42-2.43-2.79-4.82-4.21-7s-2.84-4.16-4.21-5.98c-1.32-1.88-2.69-3.4-3.85-4.87s-2.28-2.59-3.14-3.6c-1.77-1.98-2.84-3.04-2.84-3.04,0,0-1.06-1.06-2.99-2.94-.96-.91-2.18-1.98-3.55-3.19-1.37-1.27-3.04-2.53-4.82-3.95s-3.8-2.84-5.93-4.36c-2.18-1.42-4.46-2.99-6.95-4.41-2.43-1.47-5.07-2.84-7.76-4.21-1.32-.71-2.74-1.27-4.11-1.93s-2.79-1.22-4.21-1.77c-2.84-1.17-5.73-2.13-8.57-3.04-2.89-.86-5.73-1.67-8.52-2.33-2.79-.61-5.48-1.22-8.06-1.57-2.59-.46-5.02-.71-7.3-.91-2.28-.25-4.36-.3-6.19-.41s-3.45-.1-4.77-.1c-2.64.05-4.16.1-4.16.1,0,0-1.52,0-4.16-.1-1.32,0-2.94,0-4.77.1-1.83.1-3.9.15-6.19.41-2.28.2-4.72.46-7.3.91-2.59.35-5.27.96-8.06,1.57-2.79.66-5.63,1.42-8.52,2.33-2.84.91-5.73,1.88-8.57,3.04-1.42.56-2.84,1.17-4.21,1.77s-2.79,1.22-4.11,1.93c-2.69,1.37-5.32,2.69-7.76,4.21-2.48,1.42-4.77,2.99-6.95,4.41-2.13,1.52-4.16,2.94-5.93,4.36s-3.45,2.69-4.82,3.95c-1.37,1.22-2.59,2.33-3.55,3.19-1.88,1.88-2.99,2.94-2.99,2.94,0,0-1.12,1.06-2.84,3.04-.86,1.01-1.98,2.13-3.14,3.6-1.17,1.42-2.53,2.99-3.85,4.87-1.37,1.83-2.79,3.8-4.21,5.98-1.47,2.13-2.79,4.56-4.21,7-.71,1.22-1.32,2.54-1.98,3.8s-1.32,2.64-1.88,3.95c-1.27,2.69-2.28,5.53-3.35,8.31-.96,2.84-1.88,5.68-2.59,8.52-.76,2.84-1.27,5.68-1.77,8.42-.35,2.74-.81,5.37-.96,7.91-.1,1.27-.15,2.48-.25,3.65-.05,1.17,0,2.33-.05,3.45-.05,2.18.05,4.21.15,5.98.05,1.77.2,3.3.41,4.56.3,2.48.51,3.9.51,3.9h4.16s-.1-1.37-.3-3.75c-.1-1.22-.15-2.69-.15-4.36s-.05-3.6.1-5.68c.05-1.06.1-2.13.2-3.24s.25-2.28.35-3.45c.2-2.38.71-4.87,1.17-7.5.56-2.59,1.12-5.22,1.93-7.91.71-2.69,1.67-5.32,2.64-8.01,1.06-2.64,2.13-5.27,3.35-7.76.61-1.27,1.22-2.53,1.88-3.7.66-1.22,1.27-2.43,1.98-3.55,1.37-2.28,2.69-4.51,4.11-6.49,1.37-2.03,2.79-3.85,4.06-5.58s2.59-3.14,3.7-4.51c1.12-1.32,2.18-2.38,3.04-3.35,1.67-1.83,2.74-2.79,2.74-2.79,0,0,1.01-1.01,2.84-2.74.96-.81,2.08-1.83,3.4-2.99s2.89-2.33,4.56-3.65c1.72-1.32,3.6-2.64,5.63-4.06,2.08-1.32,4.26-2.79,6.59-4.06,2.33-1.37,4.82-2.64,7.3-3.9,1.27-.66,2.59-1.17,3.85-1.77,1.32-.61,2.64-1.17,3.95-1.67,2.64-1.06,5.37-1.98,8.06-2.84,2.69-.81,5.37-1.57,8.01-2.18,2.64-.56,5.17-1.17,7.61-1.47,2.43-.46,4.72-.66,6.84-.91s4.11-.3,5.83-.41,3.24-.15,4.51-.1h7.81c1.27,0,2.79,0,4.51.1s3.7.15,5.83.41c2.13.2,4.46.46,6.84.91,2.43.35,4.97.91,7.6,1.47,2.64.61,5.27,1.37,8.01,2.18,2.69.86,5.42,1.77,8.06,2.84,1.32.51,2.69,1.06,3.95,1.67,1.32.61,2.64,1.12,3.85,1.77,2.53,1.27,5.02,2.48,7.3,3.9,2.33,1.32,4.51,2.74,6.59,4.06,2.03,1.42,3.9,2.74,5.63,4.06,1.67,1.32,3.24,2.48,4.56,3.65s2.43,2.13,3.4,2.99c1.83,1.72,2.84,2.74,2.84,2.74,0,0,1.06.96,2.74,2.79.86.91,1.93,1.98,3.04,3.35,1.12,1.32,2.43,2.79,3.7,4.51,1.32,1.67,2.74,3.5,4.06,5.58,1.42,1.98,2.74,4.21,4.11,6.49.71,1.17,1.32,2.38,1.98,3.55.66,1.22,1.27,2.43,1.88,3.7,1.27,2.48,2.28,5.12,3.35,7.76.96,2.69,1.93,5.32,2.64,8.01.81,2.64,1.37,5.32,1.93,7.91.46,2.59.96,5.07,1.17,7.5.1,1.22.25,2.33.35,3.45s.1,2.23.2,3.24c.15,2.08.1,4.01.1,5.68s0,3.14-.15,4.36c-.2,2.38-.3,3.75-.3,3.75h4.16s.2-1.42.51-3.9c.2-1.27.3-2.79.41-4.56.1-1.77.2-3.75.15-5.98,0-1.12,0-2.23-.05-3.45h.1Z"/>
            <path class="cls-8" d="m343.66,280.73c-.25-1.37-.56-2.94-1.01-4.61-.35-1.67-.86-3.45-1.47-5.32-.51-1.88-1.27-3.8-1.98-5.83-.81-1.98-1.57-4.01-2.53-5.98-.86-2.03-1.98-4.01-2.99-5.98-1.12-1.93-2.23-3.85-3.45-5.73-1.12-1.88-2.48-3.6-3.65-5.27-2.53-3.3-5.02-6.24-7.35-8.62-1.12-1.22-2.28-2.23-3.19-3.19-.91-.96-1.88-1.67-2.59-2.33-1.42-1.32-2.28-1.98-2.28-1.98,0,0-.86-.71-2.33-1.93-.76-.56-1.72-1.27-2.79-2.08s-2.33-1.62-3.7-2.54-2.89-1.83-4.51-2.79c-1.67-.91-3.35-1.93-5.22-2.84-1.83-.96-3.75-1.83-5.73-2.69-1.98-.81-4.01-1.72-6.08-2.38-1.01-.35-2.08-.76-3.09-1.06-1.01-.3-2.08-.66-3.09-.96-2.08-.61-4.11-1.17-6.13-1.57-1.98-.46-3.95-.86-5.78-1.17-1.83-.35-3.6-.56-5.27-.81-1.62-.25-3.14-.35-4.46-.46-1.32-.15-2.48-.2-3.45-.25-1.93-.1-3.04-.2-3.04-.2,0,0-1.12.05-3.04.2-.96,0-2.13.1-3.45.25-1.32.15-2.84.2-4.46.46-1.62.2-3.4.41-5.27.81-1.88.3-3.8.71-5.78,1.17s-4.06,1.01-6.13,1.57c-1.01.3-2.08.61-3.09.96s-2.08.71-3.09,1.06c-2.08.66-4.06,1.57-6.08,2.38-1.98.86-3.9,1.72-5.73,2.69-1.88.86-3.55,1.93-5.22,2.84-1.62.96-3.14,1.88-4.51,2.79-1.32.96-2.64,1.72-3.7,2.54s-2.03,1.47-2.79,2.08c-1.47,1.22-2.33,1.93-2.33,1.93,0,0-.86.66-2.28,1.98-.71.66-1.62,1.37-2.59,2.33-.91.96-2.08,1.98-3.19,3.19-2.28,2.38-4.82,5.32-7.35,8.62-1.17,1.67-2.54,3.4-3.65,5.27-1.22,1.83-2.33,3.75-3.45,5.73-1.01,1.98-2.13,3.95-2.99,5.98-.96,1.98-1.72,4.06-2.53,5.98-.71,1.98-1.42,3.9-1.98,5.83-.56,1.88-1.06,3.65-1.47,5.32-.46,1.67-.76,3.24-1.01,4.61-.3,1.37-.51,2.59-.61,3.6-.3,2.03-.51,3.19-.51,3.19h4.16s.25-1.12.71-3.04c.2-.96.51-2.13.86-3.4.3-1.32.71-2.74,1.27-4.31.46-1.57,1.06-3.24,1.67-4.97s1.42-3.55,2.18-5.37c.86-1.83,1.67-3.7,2.69-5.53.91-1.88,2.03-3.65,3.09-5.42,1.12-1.77,2.23-3.5,3.45-5.17,1.12-1.67,2.43-3.19,3.6-4.77,1.27-1.47,2.43-2.89,3.65-4.16,1.17-1.32,2.38-2.48,3.45-3.55,1.06-1.12,2.18-1.98,3.04-2.84.91-.86,1.77-1.52,2.43-2.08,1.32-1.17,2.18-1.72,2.18-1.72,0,0,.81-.61,2.18-1.72.71-.51,1.62-1.12,2.64-1.83s2.23-1.42,3.45-2.28c1.27-.81,2.74-1.62,4.21-2.48,1.52-.81,3.09-1.72,4.82-2.48,1.67-.86,3.45-1.62,5.27-2.38,1.88-.71,3.7-1.52,5.58-2.13l2.84-.96c.96-.3,1.93-.56,2.84-.86,1.88-.51,3.8-1.01,5.63-1.42,1.83-.41,3.6-.81,5.32-1.06,1.67-.35,3.35-.56,4.82-.76,1.47-.25,2.89-.35,4.11-.51s2.28-.25,3.19-.3c1.77-.15,2.79-.25,2.79-.25,0,0,1.01.1,2.79.25.86.05,1.98.15,3.19.3,1.22.15,2.64.25,4.11.51,1.52.2,3.14.41,4.82.76,1.72.25,3.5.66,5.32,1.06,1.83.41,3.7.91,5.63,1.42.96.3,1.93.56,2.84.86l2.84.96c1.93.61,3.75,1.42,5.58,2.13,1.83.76,3.6,1.57,5.27,2.38,1.72.76,3.3,1.67,4.82,2.48,1.52.86,2.94,1.67,4.21,2.48,1.27.86,2.48,1.52,3.45,2.28,1.01.71,1.88,1.32,2.64,1.83,1.42,1.06,2.18,1.72,2.18,1.72,0,0,.86.61,2.18,1.72.66.61,1.57,1.22,2.43,2.08s1.98,1.72,3.04,2.84c1.06,1.06,2.28,2.23,3.45,3.55,1.27,1.27,2.38,2.69,3.65,4.16,1.17,1.52,2.48,3.04,3.6,4.77,1.22,1.67,2.33,3.4,3.45,5.17,1.01,1.83,2.18,3.6,3.09,5.42,1.01,1.83,1.83,3.7,2.69,5.53.76,1.83,1.57,3.6,2.18,5.37.66,1.72,1.27,3.4,1.67,4.97.51,1.57.91,3.04,1.27,4.31.35,1.32.66,2.43.86,3.4.46,1.93.71,3.04.71,3.04h4.16s-.2-1.17-.51-3.19c-.1-1.01-.35-2.23-.61-3.6h.41Z"/>
          </g>
          <g>
            <path class="cls-6" d="m328.1,207.46s-1.77-.1-4.41-.1c-2.69.05-6.13.2-9.63.66-1.72.2-3.45.51-5.02.76-1.62.3-3.09.66-4.31.91-2.48.56-4.11,1.12-4.11,1.12,0,0-.35-1.77-.91-4.41-.66-2.59-1.57-6.24-2.79-9.84-.61-1.77-1.22-3.65-1.88-5.32-.66-1.67-1.32-3.24-1.93-4.66-.61-1.37-1.12-2.53-1.47-3.3-.35-.81-.61-1.22-.61-1.22,0,0-1.88.76-4.56,1.93-2.74,1.32-6.13,2.94-9.48,4.97-3.3,1.93-6.44,4.06-8.67,5.73-1.12.81-2.03,1.52-2.69,2.03-.61.51-.96.81-.96.81,0,0-.86-1.47-2.33-3.7-1.47-2.13-3.5-5.07-5.78-7.81-2.28-2.74-4.72-5.48-6.64-7.35-1.93-1.93-3.3-3.19-3.3-3.19v5.32s1.32,1.27,3.14,3.19c1.83,1.88,4.21,4.66,6.34,7.4,2.13,2.79,4.11,5.68,5.42,7.81,1.37,2.23,2.18,3.65,2.18,3.65,0,0,.35-.3.96-.81s1.47-1.22,2.54-2.03c2.13-1.67,5.12-3.85,8.31-5.78,3.19-2.08,6.49-3.75,9.13-5.12,2.59-1.22,4.41-1.98,4.41-1.98,0,0,.2.46.56,1.22s.86,1.88,1.37,3.24c.56,1.37,1.17,2.89,1.77,4.56s1.17,3.5,1.72,5.22c1.12,3.5,1.93,7.05,2.48,9.58.51,2.59.81,4.31.81,4.31,0,0,1.57-.56,4.01-1.22,1.22-.3,2.64-.71,4.21-1.06,1.52-.3,3.19-.61,4.92-.91,3.4-.56,6.79-.81,9.43-.91,2.59-.1,4.36,0,4.36,0l3.35-3.65.05-.05Z"/>
            <path class="cls-6" d="m357.55,284.27c-.91-1.93-2.54-4.36-4.26-6.69-1.83-2.33-3.7-4.46-5.37-5.98-1.62-1.52-2.74-2.43-2.74-2.43,0,0,.15-.35.41-.96s.61-1.47,1.01-2.53c.91-2.18,1.98-5.12,3.09-8.26,1.01-3.14,2.13-6.49,2.79-9.08.35-1.32.66-2.38.86-3.19.2-.76.3-1.22.3-1.22,0,0-1.52-.91-3.8-2.13-2.28-1.22-5.48-2.69-8.72-3.85-1.62-.56-3.3-1.12-4.82-1.57-1.57-.41-3.04-.76-4.31-1.01-2.48-.56-4.21-.76-4.21-.76,0,0,.15-1.57.41-3.95.15-2.33.41-5.68.46-9.08v-5.07c-.1-1.67-.15-3.19-.2-4.51-.15-2.74-.35-4.51-.35-4.51l-3.35,3.65s.2,1.72.25,4.36c0,1.27.1,2.79.15,4.36,0,1.57,0,3.3-.05,4.92-.05,3.24-.35,6.49-.56,8.72-.25,2.28-.46,3.8-.46,3.8,0,0,1.72.15,4.21.61,1.27.2,2.69.51,4.26.86,1.52.41,3.14.86,4.82,1.37,3.24,1.06,6.44,2.33,8.72,3.5,2.28,1.12,3.8,1.98,3.8,1.98,0,0-.1.41-.3,1.17-.2.76-.51,1.77-.86,3.04-.66,2.48-1.72,5.73-2.69,8.72-1.12,3.04-2.13,5.88-2.99,7.96-.41,1.01-.71,1.88-.96,2.43s-.41.91-.41.91c0,0,1.17.86,2.79,2.33,1.67,1.42,3.65,3.5,5.58,5.73,1.77,2.23,3.5,4.61,4.51,6.44,1.06,1.83,1.67,3.14,1.67,3.14h2.84s-.56-1.32-1.57-3.24l.05.05Z"/>
            <path class="cls-6" d="m236.63,185.97c-2.28,2.79-4.31,5.68-5.78,7.81-1.42,2.23-2.33,3.7-2.33,3.7,0,0-.35-.3-.96-.81-.66-.51-1.57-1.22-2.69-2.03-2.23-1.62-5.37-3.8-8.67-5.73-3.3-2.03-6.74-3.65-9.48-4.97-2.69-1.17-4.56-1.93-4.56-1.93,0,0-.2.46-.61,1.22-.41.76-.91,1.93-1.47,3.3-.61,1.37-1.27,2.94-1.93,4.66-.66,1.72-1.27,3.55-1.88,5.32-1.22,3.6-2.13,7.2-2.79,9.84-.56,2.64-.91,4.41-.91,4.41,0,0-1.62-.51-4.11-1.12-1.27-.3-2.74-.61-4.31-.91-1.57-.25-3.3-.51-5.02-.76-3.5-.46-6.95-.61-9.63-.66-2.64,0-4.41.1-4.41.1l3.35,3.65h4.36c2.64.15,6.03.35,9.43.91,1.67.25,3.35.56,4.92.91s2.99.71,4.21,1.06c2.43.66,4.01,1.22,4.01,1.22,0,0,.3-1.72.81-4.31.56-2.53,1.42-6.08,2.48-9.58.56-1.77,1.12-3.55,1.72-5.22.61-1.67,1.22-3.19,1.77-4.56.56-1.37,1.01-2.48,1.37-3.24.35-.76.56-1.22.56-1.22,0,0,1.83.76,4.41,1.98,2.64,1.37,5.93,3.04,9.13,5.12,3.19,1.98,6.19,4.16,8.31,5.78,1.06.81,1.93,1.52,2.54,2.03.61.51.96.81.96.81,0,0,.81-1.47,2.18-3.65,1.37-2.13,3.3-5.02,5.42-7.81,2.13-2.74,4.46-5.53,6.34-7.4,1.83-1.93,3.14-3.19,3.14-3.19v-5.32s-1.37,1.27-3.3,3.19c-1.93,1.88-4.41,4.61-6.64,7.35l.05.05Z"/>
            <path class="cls-6" d="m168.09,224.8c0-1.62-.05-3.35-.05-4.92s.1-3.09.15-4.36c.1-2.64.25-4.36.25-4.36l-3.35-3.65s-.2,1.77-.35,4.51c-.05,1.32-.15,2.84-.2,4.51v5.07c0,3.4.25,6.69.46,9.08.25,2.38.41,3.95.41,3.95,0,0-1.72.2-4.21.76-1.27.25-2.74.61-4.31,1.01-1.52.46-3.19.96-4.82,1.57-3.24,1.17-6.44,2.59-8.72,3.85-2.28,1.22-3.8,2.13-3.8,2.13,0,0,.1.46.3,1.22.2.76.51,1.88.86,3.19.66,2.59,1.77,5.93,2.79,9.08,1.17,3.19,2.18,6.13,3.09,8.26.41,1.06.76,1.93,1.01,2.53.25.61.41.96.41.96,0,0-1.12.91-2.74,2.43-1.62,1.52-3.55,3.65-5.37,5.98-1.72,2.33-3.35,4.77-4.26,6.69-1.01,1.93-1.57,3.24-1.57,3.24h2.84s.61-1.27,1.67-3.14c1.01-1.88,2.74-4.21,4.51-6.44,1.93-2.23,3.85-4.31,5.58-5.73,1.67-1.42,2.79-2.33,2.79-2.33,0,0-.15-.35-.41-.91-.25-.61-.56-1.42-.96-2.43-.86-2.08-1.88-4.92-2.99-7.96-.96-2.99-2.08-6.24-2.69-8.72-.35-1.27-.66-2.33-.86-3.04-.2-.76-.3-1.17-.3-1.17,0,0,1.52-.86,3.8-1.98,2.28-1.17,5.48-2.43,8.72-3.5,1.62-.51,3.3-.96,4.82-1.37,1.57-.35,3.04-.66,4.26-.86,2.48-.46,4.21-.61,4.21-.61,0,0-.2-1.52-.46-3.8-.2-2.28-.51-5.48-.56-8.72l.05-.05Z"/>
          </g>
          <path class="cls-5" d="m157.95,244.07s-2.48.76-4.87,1.72c-2.38.96-4.72,2.13-4.72,2.13,0,0,.15.61.46,1.57.25.91.61,2.13.96,3.35.35,1.17.71,2.38,1.01,3.24.3.86.51,1.42.51,1.42,0,0,.35-.86.86-2.18.61-1.27,1.37-2.99,2.18-4.66.91-1.67,1.72-3.35,2.43-4.56.71-1.22,1.17-2.03,1.17-2.03Z"/>
          <path class="cls-6" d="m136.4,274.44s.35-.46.91-1.22c.56-.71,1.32-1.62,2.18-2.53,1.67-1.77,3.45-3.45,3.45-3.45,0,0-.96-2.28-1.88-4.61-.51-1.22-.91-2.38-1.27-3.3s-.56-1.57-.56-1.57c0,0-.25,1.01-.66,2.59-.35,1.52-.76,3.65-1.17,5.68-.3,2.08-.61,4.16-.81,5.73-.15,1.57-.2,2.64-.2,2.64v.05Z"/>
          <path class="cls-6" d="m148.97,234.08s.66-.2,1.57-.56c.96-.35,2.23-.76,3.55-1.12s2.64-.71,3.6-.91c.96-.25,1.67-.35,1.67-.35,0,0-.25-2.74-.51-5.48-.15-2.74-.25-5.63-.25-5.63,0,0-.66.86-1.67,2.08s-2.23,2.99-3.45,4.72c-1.22,1.77-2.33,3.6-3.19,4.92-.81,1.37-1.32,2.33-1.32,2.33Z"/>
          <g>
            <path class="cls-4" d="m315.52,215.42c-2.79.3-5.48.71-5.48.71,0,0,1.47,1.17,2.94,2.28,1.42,1.17,2.84,2.43,2.84,2.43l5.27-5.78s-2.79.05-5.58.35Z"/>
            <path class="cls-4" d="m250.47,190.83c-1.88-2.18-3.85-4.31-3.85-4.31v8.37s1.88.1,3.75.15c.91,0,1.88.05,2.53.15.71.05,1.17.1,1.17.1,0,0-.46-.56-1.06-1.42-.66-.86-1.57-1.98-2.48-3.04h-.05Z"/>
            <path class="cls-4" d="m350.71,283.57c-.61-.96-1.37-1.88-1.93-2.53s-.91-1.12-.91-1.12c0,0,.05.46.15,1.17s.25,1.67.3,2.59c.15,1.93.35,3.8.35,3.8h4.51s-1.17-2.03-2.43-3.9h-.05Z"/>
            <path class="cls-4" d="m321.2,216.84c-.05-1.06-.1-1.72-.1-1.72l-5.27,5.78s.35.3.86.76,1.17,1.12,1.88,1.72c.66.66,1.37,1.27,1.88,1.77.51.51.81.86.81.86,0,0,0-.66.05-1.67v-3.7c0-1.37,0-2.74-.1-3.8h0Z"/>
            <path class="cls-4" d="m172.09,215.12l5.27,5.78s1.42-1.22,2.84-2.43c1.47-1.17,2.94-2.28,2.94-2.28,0,0-2.69-.46-5.48-.71-2.74-.25-5.58-.35-5.58-.35Z"/>
            <path class="cls-4" d="m240.23,193.88c-.66.86-1.06,1.42-1.06,1.42,0,0,.46,0,1.17-.1.71-.05,1.62-.15,2.54-.15,1.88-.1,3.75-.15,3.75-.15v-8.37s-2.03,2.13-3.85,4.31c-.91,1.06-1.83,2.18-2.48,3.04h-.05Z"/>
            <path class="cls-4" d="m142.48,283.57c-1.32,1.88-2.43,3.9-2.43,3.9h4.51s.15-1.93.35-3.8c.05-.96.2-1.88.3-2.59.1-.71.15-1.17.15-1.17,0,0-.35.46-.91,1.12s-1.27,1.62-1.93,2.53h-.05Z"/>
            <path class="cls-4" d="m171.99,216.84c0,1.06-.05,2.43-.1,3.8v3.7c0,1.01.05,1.67.05,1.67,0,0,.3-.35.81-.86s1.17-1.12,1.88-1.77c.66-.66,1.37-1.27,1.88-1.72s.86-.76.86-.76l-5.27-5.78s0,.71-.1,1.72Z"/>
          </g>
        </g>
        <g>
          <g>
            <path class="cls-1" d="m142.94,307.29c0,1.47-1.22,2.69-2.69,2.69h0c-1.47,0-2.69-1.22-2.69-2.69v-17.09c0-1.47,1.22-2.69,2.69-2.69h0c1.47,0,2.69,1.22,2.69,2.69v17.09Z"/>
            <g>
              <path class="cls-5" d="m140.25,507s19.77-22.71,20.23-69.92c.46-47.15-20.23-108.9-20.23-108.9,0,0-20.69,61.75-20.23,108.9.46,47.2,20.23,69.92,20.23,69.92Z"/>
              <path class="cls-4" d="m120.73,450.57c9.18-14.2,16.98-24.49,19.52-27.78,2.54,3.3,10.34,13.59,19.52,27.78.1-1.22.2-2.43.3-3.65-10.49-16.02-18.86-26.52-18.96-26.67l-.86-1.12-.86,1.12s-8.47,10.65-18.96,26.67c.1,1.22.2,2.43.3,3.65Z"/>
              <path class="cls-13" d="m140.25,314.34s-4.21,13.13-4.31,40.36c-.1,27.23,4.31,62.87,4.31,62.87,0,0,4.41-35.64,4.31-62.87-.1-27.23-4.31-40.36-4.31-40.36Z"/>
              <path class="cls-8" d="m159.11,456.65c-10.09-16.22-18.81-27.18-18.81-27.18,0,0-8.77,11-18.86,27.18,4.56,33.87,18.86,50.35,18.86,50.35,0,0,14.25-16.43,18.81-50.35Z"/>
              <path class="cls-12" d="m120.02,437.08c.46,47.2,20.23,69.92,20.23,69.92v-178.82s-20.69,61.75-20.23,108.9Z"/>
            </g>
            <path class="cls-8" d="m148.31,328.49c0,2.79-2.28,5.07-5.07,5.07h-5.98c-2.79,0-5.07-2.28-5.07-5.07h0c0-2.79,2.28-5.07,5.07-5.07h5.98c2.79,0,5.07,2.28,5.07,5.07h0Z"/>
            <path class="cls-1" d="m154.04,318.35c0,2.79-2.28,5.07-5.07,5.07h-17.44c-2.79,0-5.07-2.28-5.07-5.07h0c0-2.79,2.28-5.07,5.07-5.07h17.44c2.79,0,5.07,2.28,5.07,5.07h0Z"/>
            <path class="cls-8" d="m148.31,308.15c0,2.79-2.28,5.07-5.07,5.07h-5.98c-2.79,0-5.07-2.28-5.07-5.07h0c0-2.79,2.28-5.07,5.07-5.07h5.98c2.79,0,5.07,2.28,5.07,5.07h0Z"/>
          </g>
          <g>
            <path class="cls-1" d="m129.05,303.69c-.46,1.17-1.77,1.72-2.89,1.27h0c-1.17-.46-1.72-1.77-1.27-2.89l5.22-13.18c.46-1.17,1.77-1.72,2.89-1.27h0c1.17.46,1.67,1.72,1.27,2.89l-5.22,13.18Z"/>
            <g>
              <path class="cls-6" d="m65.77,456.71s22.21-11.46,37.01-47.66c14.8-36.2,17.85-90.09,17.85-90.09,0,0-34.83,41.22-48.98,77.67-14.09,36.45-5.88,60.03-5.88,60.03v.05Z"/>
              <path class="cls-10" d="m68,407.27c11.41-8.11,20.58-13.69,23.58-15.41.96,3.3,3.8,13.64,6.49,27.38.46-.86.91-1.77,1.32-2.74-3.14-15.56-6.39-26.21-6.44-26.31l-.35-1.12-1.01.56s-9.79,5.58-22.76,14.7c-.3.96-.61,1.93-.91,2.89l.1.05Z"/>
              <path class="cls-13" d="m124.84,308.31s-7.25,8.82-15.67,29.76c-8.42,20.94-15.97,49.74-15.97,49.74,0,0,14.3-26.11,22.61-47.1,8.26-20.99,9.08-32.4,9.08-32.4h-.05Z"/>
              <path class="cls-1" d="m95.69,423.7c-2.79-15.56-6.19-26.72-6.19-26.72,0,0-10.14,5.78-22.87,15.16-6.9,27.48-.91,44.51-.91,44.51,0,0,16.02-8.26,29.91-32.96h.05Z"/>
              <path class="cls-12" d="m71.6,396.63c-14.09,36.45-5.88,60.03-5.88,60.03l54.81-137.7s-34.83,41.22-48.98,77.67h.05Z"/>
            </g>
            <path class="cls-8" d="m126.71,321.69c-.86,2.18-3.3,3.19-5.48,2.33l-4.61-1.83c-2.18-.86-3.19-3.3-2.33-5.48h0c.86-2.18,3.3-3.19,5.48-2.33l4.61,1.83c2.18.86,3.19,3.3,2.33,5.48h0Z"/>
            <path class="cls-1" d="m134.22,315.61c-.86,2.18-3.3,3.19-5.48,2.33l-13.44-5.32c-2.18-.86-3.19-3.3-2.33-5.48h0c.86-2.18,3.3-3.19,5.48-2.33l13.44,5.32c2.18.86,3.19,3.3,2.33,5.48h0Z"/>
            <path class="cls-8" d="m132.95,306.03c-.86,2.18-3.3,3.19-5.48,2.33l-4.61-1.83c-2.18-.86-3.19-3.3-2.33-5.48h0c.86-2.18,3.3-3.19,5.48-2.33l4.61,1.83c2.18.86,3.19,3.3,2.33,5.48h0Z"/>
          </g>
          <path class="cls-1" d="m156.12,288.08c0,1.57-1.27,2.84-2.84,2.84h-26.06c-1.57,0-2.84-1.27-2.84-2.84h0c0-1.57,1.27-2.84,2.84-2.84h26.06c1.57,0,2.84,1.27,2.84,2.84h0Z"/>
          <g>
            <path class="cls-1" d="m350.25,307.29c0,1.47,1.22,2.69,2.69,2.69h0c1.47,0,2.69-1.22,2.69-2.69v-17.09c0-1.47-1.22-2.69-2.69-2.69h0c-1.47,0-2.69,1.22-2.69,2.69v17.09Z"/>
            <g>
              <path class="cls-5" d="m352.94,507s-19.77-22.71-20.23-69.92c-.46-47.15,20.23-108.9,20.23-108.9,0,0,20.69,61.75,20.23,108.9-.46,47.2-20.23,69.92-20.23,69.92Z"/>
              <path class="cls-4" d="m372.46,450.57c-9.18-14.2-16.98-24.49-19.52-27.78-2.53,3.3-10.34,13.59-19.52,27.78-.1-1.22-.2-2.43-.3-3.65,10.49-16.02,18.86-26.52,18.96-26.67l.86-1.12.86,1.12s8.47,10.65,18.96,26.67c-.1,1.22-.2,2.43-.3,3.65Z"/>
              <path class="cls-13" d="m352.94,314.34s4.21,13.13,4.31,40.36c.1,27.23-4.31,62.87-4.31,62.87,0,0-4.41-35.64-4.31-62.87.1-27.23,4.31-40.36,4.31-40.36Z"/>
              <path class="cls-8" d="m334.08,456.65c10.09-16.22,18.81-27.18,18.81-27.18,0,0,8.77,11,18.86,27.18-4.56,33.87-18.86,50.35-18.86,50.35,0,0-14.25-16.43-18.81-50.35Z"/>
              <path class="cls-12" d="m373.17,437.08c-.46,47.2-20.23,69.92-20.23,69.92v-178.82s20.69,61.75,20.23,108.9Z"/>
            </g>
            <path class="cls-8" d="m344.88,328.49c0,2.79,2.28,5.07,5.07,5.07h5.98c2.79,0,5.07-2.28,5.07-5.07h0c0-2.79-2.28-5.07-5.07-5.07h-5.98c-2.79,0-5.07,2.28-5.07,5.07h0Z"/>
            <path class="cls-1" d="m339.15,318.35c0,2.79,2.28,5.07,5.07,5.07h17.44c2.79,0,5.07-2.28,5.07-5.07h0c0-2.79-2.28-5.07-5.07-5.07h-17.44c-2.79,0-5.07,2.28-5.07,5.07h0Z"/>
            <path class="cls-8" d="m344.88,308.15c0,2.79,2.28,5.07,5.07,5.07h5.98c2.79,0,5.07-2.28,5.07-5.07h0c0-2.79-2.28-5.07-5.07-5.07h-5.98c-2.79,0-5.07,2.28-5.07,5.07h0Z"/>
          </g>
          <g>
            <path class="cls-1" d="m364.09,303.69c.46,1.17,1.77,1.72,2.89,1.27h0c1.17-.46,1.72-1.77,1.27-2.89l-5.22-13.18c-.46-1.17-1.77-1.72-2.89-1.27h0c-1.17.46-1.67,1.72-1.27,2.89l5.22,13.18Z"/>
            <g>
              <path class="cls-6" d="m427.42,456.71s-22.21-11.46-37.01-47.66c-14.8-36.2-17.85-90.09-17.85-90.09,0,0,34.83,41.22,48.98,77.67,14.09,36.45,5.88,60.03,5.88,60.03v.05Z"/>
              <path class="cls-10" d="m425.14,407.27c-11.41-8.11-20.58-13.69-23.58-15.41-.96,3.3-3.8,13.64-6.49,27.38-.46-.86-.91-1.77-1.32-2.74,3.14-15.56,6.39-26.21,6.44-26.31l.35-1.12,1.01.56s9.79,5.58,22.76,14.7c.3.96.61,1.93.91,2.89l-.1.05Z"/>
              <path class="cls-13" d="m368.35,308.31s7.25,8.82,15.67,29.76c8.42,20.94,15.97,49.74,15.97,49.74,0,0-14.3-26.11-22.61-47.1-8.26-20.99-9.08-32.4-9.08-32.4h.05Z"/>
              <path class="cls-1" d="m397.5,423.7c2.79-15.56,6.19-26.72,6.19-26.72,0,0,10.14,5.78,22.87,15.16,6.9,27.48.91,44.51.91,44.51,0,0-16.02-8.26-29.91-32.96h-.05Z"/>
              <path class="cls-12" d="m421.54,396.63c14.09,36.45,5.88,60.03,5.88,60.03l-54.81-137.7s34.83,41.22,48.98,77.67h-.05Z"/>
            </g>
            <path class="cls-8" d="m366.48,321.69c.86,2.18,3.3,3.19,5.48,2.33l4.61-1.83c2.18-.86,3.19-3.3,2.33-5.48h0c-.86-2.18-3.3-3.19-5.48-2.33l-4.61,1.83c-2.18.86-3.19,3.3-2.33,5.48h0Z"/>
            <path class="cls-1" d="m358.97,315.61c.86,2.18,3.3,3.19,5.48,2.33l13.44-5.32c2.18-.86,3.19-3.3,2.33-5.48h0c-.86-2.18-3.3-3.19-5.48-2.33l-13.44,5.32c-2.18.86-3.19,3.3-2.33,5.48h0Z"/>
            <path class="cls-8" d="m360.24,306.03c.86,2.18,3.3,3.19,5.48,2.33l4.61-1.83c2.18-.86,3.19-3.3,2.33-5.48h0c-.86-2.18-3.3-3.19-5.48-2.33l-4.61,1.83c-2.18.86-3.19,3.3-2.33,5.48h0Z"/>
          </g>
          <path class="cls-1" d="m337.07,288.08c0,1.57,1.27,2.84,2.84,2.84h26.06c1.57,0,2.84-1.27,2.84-2.84h0c0-1.57-1.27-2.84-2.84-2.84h-26.06c-1.57,0-2.84,1.27-2.84,2.84h0Z"/>
        </g>
      </g>
    </g>
  </g>
</svg>