<?xml version="1.0" encoding="UTF-8"?>
<svg xmlns="http://www.w3.org/2000/svg" viewBox="0 0 500 575">
  <defs>
    <style>
      .cls-1 {
        fill: #a54759;
      }

      .cls-1, .cls-2, .cls-3, .cls-4, .cls-5, .cls-6, .cls-7, .cls-8, .cls-9 {
        stroke-width: 0px;
      }

      .cls-2 {
        fill: #262626;
      }

      .cls-3 {
        fill: #241816;
      }

      .cls-4 {
        fill: #cd596b;
      }

      .cls-5 {
        fill: #fff;
      }

      .cls-6 {
        fill: #5da0ff;
      }

      .cls-7 {
        fill: #e7d8b4;
      }

      .cls-8 {
        fill: #cf9e76;
      }

      .cls-9 {
        fill: #773f4d;
      }

      .cls-10 {
        fill: #fcd770;
        stroke: #000;
        stroke-miterlimit: 10;
      }
    </style>
  </defs>
  <g id="Capa_1" data-name="Capa 1">
    <g>
      <path class="cls-7" d="m250,573c-66.51,0-129.04-25.9-176.07-72.93C26.9,453.04,1,390.51,1,324s25.9-129.04,72.93-176.07c47.03-47.03,109.56-72.93,176.07-72.93s129.04,25.9,176.07,72.93c47.03,47.03,72.93,109.56,72.93,176.07s-25.9,129.04-72.93,176.07c-47.03,47.03-109.56,72.93-176.07,72.93Z"/>
      <path class="cls-3" d="m250,76c33.48,0,65.96,6.56,96.53,19.49,29.53,12.49,56.05,30.37,78.83,53.15,22.78,22.78,40.66,49.3,53.15,78.83,12.93,30.57,19.49,63.05,19.49,96.53s-6.56,65.96-19.49,96.53c-12.49,29.53-30.37,56.05-53.15,78.83-22.78,22.78-49.3,40.66-78.83,53.15-30.57,12.93-63.05,19.49-96.53,19.49s-65.96-6.56-96.53-19.49c-29.53-12.49-56.05-30.37-78.83-53.15-22.78-22.78-40.66-49.3-53.15-78.83-12.93-30.57-19.49-63.05-19.49-96.53s6.56-65.96,19.49-96.53c12.49-29.53,30.37-56.05,53.15-78.83s49.3-40.66,78.83-53.15c30.57-12.93,63.05-19.49,96.53-19.49m0-2C111.93,74,0,185.93,0,324s111.93,250,250,250,250-111.93,250-250-111.93-250-250-250h0Z"/>
    </g>
  </g>
  <g id="Capa_2" data-name="Capa 2">
    <g>
      <path class="cls-1" d="m392.93,489.88c-1.76,0-3.19-1.42-3.19-3.17,0-.76.28-1.5.78-2.07l6.59-7.57-15.49,8.88c-1.52.89-3.47.38-4.37-1.13-.8-1.36-.48-3.1.76-4.08l.2-.17-.76.43c-1.54.86-3.48.32-4.34-1.21-.7-1.24-.49-2.78.52-3.79l17.01-16.74-15.13,8.69c-1.52.89-3.47.4-4.37-1.11-.76-1.27-.53-2.89.54-3.91l15.93-15.33-12.9,7.42c-1.54.85-3.48.3-4.34-1.23-.69-1.23-.48-2.76.51-3.76l14.91-14.72-12.68,7.28c-1.52.88-3.48.36-4.36-1.15-.71-1.21-.53-2.74.44-3.76l15-15.95-14.04,8.04c-1.52.88-3.48.36-4.36-1.15-.75-1.28-.5-2.92.6-3.92l8.05-7.42-5.1,2.93c-1.53.87-3.48.35-4.36-1.17-.69-1.19-.53-2.69.41-3.71l10.15-11-6.24,3.57c-1.53.87-3.48.35-4.36-1.17-.67-1.15-.54-2.6.32-3.62l6.5-7.66-2.51,1.44c-1.53.87-3.48.35-4.36-1.16-.64-1.11-.55-2.5.24-3.51l4.33-5.6c-.81-.22-1.5-.76-1.91-1.48-.88-1.51-.35-3.45,1.17-4.32l10.02-5.76c1.53-.87,3.48-.35,4.36,1.16.64,1.11.55,2.5-.24,3.51l-2.85,3.69,4.39-2.54c1.53-.87,3.48-.33,4.35,1.19.66,1.15.53,2.58-.32,3.6l-6.5,7.66,8.38-4.81c1.52-.88,3.48-.37,4.36,1.15.7,1.2.54,2.72-.41,3.74l-10.17,11.04,11.74-6.73c1.53-.87,3.48-.34,4.35,1.18.74,1.28.49,2.89-.6,3.9l-8.06,7.41,8.01-4.58c1.53-.87,3.48-.34,4.35,1.18.69,1.2.52,2.72-.43,3.73l-15,15.95,15.42-8.85c1.54-.85,3.48-.3,4.34,1.23.69,1.23.48,2.76-.51,3.76l-14.91,14.72,13.99-8.03c1.52-.89,3.47-.4,4.37,1.11.76,1.27.53,2.89-.54,3.91l-15.95,15.32,14.14-8.1c1.54-.86,3.48-.32,4.34,1.21.7,1.24.49,2.78-.52,3.79l-17.01,16.74,14.38-8.24c1.54-.86,3.48-.32,4.35,1.21.76,1.34.44,3.02-.75,4l-1.91,1.54c1.02-.08,2.01.35,2.64,1.15.99,1.19.97,2.92-.05,4.09l-6.59,7.61,1.73-1c1.53-.87,3.48-.33,4.35,1.19.86,1.51.35,3.43-1.16,4.3l-18.08,10.33c-.48.29-1.03.44-1.6.44Z"/>
      <path class="cls-1" d="m103.75,489.79c-1.76,0-3.19-1.42-3.19-3.17,0-.69.22-1.35.64-1.9l5.25-6.89-16.44,9.43c-1.52.89-3.47.39-4.37-1.12-.77-1.29-.52-2.94.6-3.95l10.06-9.29-12.76,7.3c-1.55.83-3.49.25-4.32-1.29-.67-1.25-.43-2.79.59-3.78l15.79-14.09-13.41,7.68c-1.52.88-3.48.38-4.37-1.13-.79-1.34-.48-3.05.72-4.05l14.1-11.72-10.01,5.71c-1.54.86-3.48.31-4.34-1.22-.75-1.33-.44-3,.73-3.97l13.46-10.97-8.74,5.01c-1.52.89-3.47.38-4.37-1.13-.82-1.39-.46-3.18.84-4.14l3.44-2.57c-1.11.07-2.17-.43-2.83-1.31-.96-1.32-.76-3.14.47-4.22l17.75-15.62-10.52,6.03c-1.4.81-3.19.44-4.16-.86-.97-1.3-.8-3.12.4-4.22l17.01-15.64-6.76,3.92c-1.52.88-3.48.37-4.36-1.15-.67-1.14-.55-2.57.28-3.6l15.46-18.93c-.07-.1-.14-.2-.2-.3-.88-1.51-.36-3.45,1.16-4.33l5.81-3.33c1.53-.87,3.48-.35,4.36,1.17.66,1.14.54,2.56-.29,3.58l-10.49,12.83,16.46-9.43c1.52-.88,3.48-.36,4.36,1.15.75,1.28.5,2.92-.6,3.92l-17,15.67,13.22-7.61c1.53-.88,3.48-.36,4.36,1.16.76,1.3.49,2.96-.65,3.96l-17.73,15.6,14-8.03c1.52-.89,3.47-.38,4.37,1.13.82,1.39.46,3.18-.84,4.14l-2.55,1.9c1.73-.33,3.4.8,3.74,2.51.22,1.14-.21,2.31-1.11,3.05l-13.48,10.98,8-4.58c1.53-.87,3.48-.34,4.35,1.17.77,1.33.47,3.01-.71,4l-14.09,11.71,8.03-4.61c1.55-.83,3.49-.25,4.32,1.29.67,1.25.43,2.79-.59,3.78l-15.79,14.12,10.66-6.11c1.52-.89,3.47-.39,4.37,1.12.77,1.29.52,2.94-.6,3.95l-10.08,9.31,5.74-3.3c1.53-.87,3.48-.35,4.36,1.16.64,1.1.55,2.47-.22,3.49l-5.67,7.47c1.24-.09,2.43.51,3.07,1.57.88,1.52.36,3.45-1.17,4.33l-11.93,6.85c-.48.28-1.03.43-1.6.42Z"/>
      <path class="cls-4" d="m306.12,540.6c-1.76,0-3.19-1.42-3.19-3.17,0-.89.38-1.74,1.04-2.34l12.62-11.36-21.36,12.25c-1.54.86-3.48.31-4.34-1.21-.74-1.31-.45-2.96.69-3.95l21.33-17.92-23.9,13.73c-1.53.87-3.48.34-4.35-1.18-.78-1.35-.45-3.07.77-4.04l29.71-23.54-27.98,16.05c-1.54.86-3.48.32-4.34-1.21-.79-1.4-.4-3.18.91-4.12l11.7-8.2-9.07,5.2c-1.53.87-3.48.34-4.35-1.17-.8-1.38-.44-3.14.84-4.1l33.88-25.3-38.01,21.8c-1.52.88-3.48.37-4.36-1.14-.83-1.41-.44-3.21.89-4.17l40.23-29.17-58.29,33.44c-1.55.84-3.48.28-4.33-1.26-.78-1.41-.37-3.18.95-4.11l39.24-26.36-55.31,31.7c-1.55.84-3.49.26-4.33-1.27-.78-1.43-.35-3.21,1-4.13l28.16-18.04-40.97,23.5c-1.49.94-3.46.5-4.4-.97-.95-1.48-.51-3.44.98-4.38.08-.05.15-.09.23-.13l152.32-87.38c1.55-.84,3.49-.26,4.33,1.27.78,1.43.35,3.21-1,4.13l-28.21,18.1,22.09-12.68c1.54-.86,3.48-.32,4.34,1.21.81,1.42.39,3.22-.96,4.15l-39.24,26.35,32.1-18.39c1.52-.88,3.48-.37,4.36,1.14.83,1.41.44,3.21-.89,4.17l-40.22,29.13,31.69-18.18c1.53-.87,3.48-.34,4.35,1.17.8,1.38.44,3.14-.84,4.1l-33.88,25.31,24.54-14.08c1.54-.86,3.48-.32,4.34,1.21.79,1.4.4,3.18-.91,4.12l-11.66,8.17,3.83-2.17c1.53-.86,3.48-.33,4.35,1.19.77,1.35.45,3.05-.76,4.03l-29.72,23.54,17.98-10.31c1.54-.86,3.48-.31,4.34,1.21.74,1.31.45,2.96-.69,3.95l-21.38,17.91,16.28-9.32c1.54-.84,3.48-.28,4.33,1.25.7,1.26.45,2.83-.59,3.82l-12.63,11.36,25.05-14.36c1.56-.82,3.49-.23,4.31,1.32.66,1.24.42,2.77-.59,3.76l-9.83,8.72,13.22-7.61c1.53-.87,3.48-.35,4.36,1.16.73,1.25.51,2.83-.53,3.85l-5.52,5.35,4.73-2.71c1.53-.87,3.48-.35,4.36,1.16.65,1.12.55,2.52-.25,3.54l-3.35,4.22c1.71.42,2.76,2.13,2.34,3.83-.21.84-.75,1.55-1.5,1.99l-10.57,6.12c-1.53.87-3.48.35-4.36-1.16-.65-1.12-.55-2.52.25-3.54l1.87-2.35-12.33,7.06c-1.53.87-3.48.35-4.36-1.16-.73-1.25-.51-2.83.53-3.85l5.51-5.34-18.05,10.35c-1.56.82-3.49.23-4.31-1.32-.66-1.24-.42-2.77.59-3.76l9.83-8.72-24.11,13.79c-.48.29-1.03.44-1.6.44Z"/>
      <path class="cls-4" d="m140.23,540.6c-1.76,0-3.19-1.41-3.2-3.16,0-1.1.56-2.11,1.5-2.69l90.96-56.77-100.11,57.42c-1.51.9-3.47.42-4.38-1.08-.78-1.28-.55-2.92.55-3.95l8.93-8.54-7.74,4.44c-1.53.87-3.48.34-4.35-1.18-.7-1.22-.51-2.74.46-3.76l4.55-4.7c-.58-.27-1.06-.72-1.38-1.27-.88-1.51-.35-3.45,1.17-4.32l13.09-7.51c1.54-.85,3.48-.29,4.34,1.24.67,1.2.48,2.69-.46,3.69l-1.08,1.12,10.8-6.19c1.51-.9,3.47-.42,4.38,1.08.78,1.28.55,2.92-.55,3.95l-8.93,8.54,225.58-129.41c1.51-.9,3.47-.42,4.38,1.08.91,1.5.42,3.45-1.09,4.35h0l-163.36,101.96c.82,1.41.44,3.21-.89,4.16l-6.82,4.87c1.72-.37,3.42.72,3.79,2.43.23,1.07-.11,2.18-.89,2.94l-13.09,12.68,7.85-4.5c1.53-.87,3.48-.34,4.35,1.18.7,1.22.51,2.76-.48,3.77l-4.47,4.51c1.56.82,2.15,2.74,1.32,4.29-.28.52-.7.96-1.22,1.25l-13.11,7.52c-1.53.87-3.48.34-4.35-1.18-.7-1.22-.51-2.76.48-3.77l.56-.58-9.92,5.71c-1.52.88-3.48.37-4.36-1.14-.74-1.26-.52-2.86.54-3.88l13.08-12.64-30.73,17.59c-1.52.88-3.48.36-4.36-1.15-.82-1.41-.43-3.22.9-4.17l5.56-3.98-16.21,9.29c-.48.28-1.03.44-1.6.44Z"/>
      <path class="cls-4" d="m156.28,507.65c-1.76,0-3.19-1.42-3.19-3.18,0-1.1.58-2.12,1.52-2.7l17.44-10.62-17.35,9.95c-1.56.82-3.49.22-4.31-1.33-.76-1.44-.31-3.21,1.05-4.11l26.64-16.25-26.53,15.22c-1.51.91-3.47.42-4.38-1.07s-.43-3.45,1.08-4.35l101.12-63.54-102.46,58.77c-1.53.87-3.48.34-4.35-1.18-.84-1.47-.38-3.33,1.05-4.24l106.64-66.93-107.75,61.78c-1.56.81-3.49.2-4.3-1.35-.75-1.43-.3-3.2,1.06-4.1l12.63-7.65-11.84,6.79c-1.54.86-3.48.31-4.34-1.22-.82-1.46-.36-3.3,1.05-4.21l104.74-65.31-105.25,60.35c-1.51.9-3.47.4-4.37-1.1-.9-1.5-.41-3.45,1.11-4.35l63.81-39.03-63.33,36.32c-1.54.84-3.48.29-4.33-1.25-.81-1.45-.35-3.28,1.05-4.19l96.22-59.51-96.09,55.12c-1.52.89-3.47.4-4.37-1.11-.9-1.51-.4-3.45,1.11-4.35l48.29-29.34-47.3,27.14c-1.52.89-3.47.4-4.37-1.11-.9-1.51-.4-3.45,1.11-4.35l38.12-23.09-36.95,21.19c-1.55.83-3.49.26-4.33-1.28-.79-1.44-.34-3.24,1.04-4.15l115.23-71.61-114.93,65.94c-1.54.84-3.48.29-4.33-1.25-.81-1.45-.35-3.28,1.05-4.19l94.99-58.44-94.17,54.01c-1.51.91-3.47.42-4.38-1.07s-.43-3.45,1.08-4.35l135.1-84.64-134.73,77.26c-1.53.87-3.48.35-4.36-1.16-.86-1.48-.38-3.37,1.07-4.27l110.94-68.65-109.95,63.09c-1.54.86-3.48.32-4.35-1.21-.83-1.47-.36-3.33,1.07-4.23l92.99-57.15-91.65,52.58c-1.53.87-3.48.35-4.36-1.16-.86-1.48-.38-3.37,1.07-4.27l109.02-67.54-107.73,61.8c-1.55.83-3.49.26-4.33-1.28-.79-1.45-.33-3.26,1.06-4.16l62.6-38.17-60.78,34.87c-1.55.83-3.49.26-4.33-1.28-.79-1.44-.34-3.24,1.04-4.15l102.51-63.61-100.91,57.88c-1.55.82-3.49.24-4.32-1.3-.77-1.44-.32-3.23,1.04-4.13l83.85-51.74-81.97,47.02c-1.53.87-3.48.34-4.35-1.18-.84-1.47-.38-3.33,1.05-4.24l111.07-70-109.32,62.7c-1.54.84-3.48.29-4.33-1.25-.81-1.45-.35-3.28,1.05-4.19l75-46.59-72.78,41.76c-1.54.84-3.48.29-4.33-1.25-.81-1.45-.35-3.28,1.05-4.19l58.42-36.27-56,32.12c-1.54.84-3.48.28-4.33-1.25-.8-1.45-.35-3.26,1.03-4.17l59.56-37.37-57.04,32.71c-1.53.87-3.48.35-4.36-1.16-.86-1.48-.38-3.37,1.07-4.27l20.01-12.38-17.23,9.87c-1.55.83-3.49.26-4.33-1.28-.78-1.43-.34-3.22,1.02-4.14l38.76-24.47-35.87,20.59c-1.53.87-3.48.33-4.35-1.19-.83-1.45-.39-3.28,1.01-4.21l52.85-34.45-49.81,28.57c-1.54.84-3.48.28-4.33-1.25-.8-1.44-.36-3.24,1.02-4.16l19.56-12.5-16.26,9.33c-1.52.89-3.47.4-4.37-1.11-.87-1.46-.43-3.35,1-4.28l33.34-22.15-29.65,17c-1.54.84-3.48.29-4.33-1.25-.78-1.41-.38-3.17.93-4.1l28.79-19.65-23.69,13.56c-1.53.87-3.48.34-4.35-1.18-.81-1.41-.42-3.2.91-4.14l21.14-14.94-13.49,7.73c-1.56.82-3.49.23-4.31-1.32-.66-1.24-.42-2.77.59-3.76l19.97-17.75c-1.4.38-2.88-.23-3.61-1.48-.88-1.51-.35-3.45,1.17-4.32l25.52-14.65c1.53-.86,3.48-.33,4.35,1.19.74,1.29.48,2.92-.63,3.91l-19.59,17.4,45.01-25.8c1.53-.87,3.48-.34,4.35,1.18.81,1.41.42,3.2-.91,4.14l-21.12,14.92,35.33-20.24c1.54-.84,3.48-.29,4.33,1.25.78,1.41.38,3.17-.93,4.1l-28.75,19.65,43.6-25.01c1.52-.88,3.48-.36,4.36,1.15.84,1.45.41,3.29-.98,4.22l-33.33,22.13,47.98-27.5c1.53-.87,3.48-.33,4.35,1.19.83,1.46.38,3.3-1.03,4.22l-19.62,12.53,31.29-17.94c1.55-.84,3.49-.27,4.33,1.27.78,1.42.35,3.2-.98,4.12l-52.86,34.45,69.47-39.84c1.54-.85,3.48-.31,4.34,1.22.82,1.45.37,3.28-1.03,4.19l-38.73,24.45,52.06-29.86c1.53-.87,3.48-.35,4.36,1.16.86,1.48.38,3.37-1.07,4.27l-20.03,12.36,31.08-17.79c1.55-.83,3.49-.24,4.32,1.3.77,1.43.33,3.21-1.03,4.12l-59.57,37.41,74.62-42.83c1.56-.82,3.49-.22,4.31,1.33.76,1.43.31,3.2-1.03,4.1l-58.45,36.27,71.58-41.06c1.54-.84,3.48-.29,4.33,1.25.81,1.45.35,3.28-1.05,4.19l-75,46.61,85.19-48.88c1.53-.87,3.48-.34,4.35,1.18.84,1.47.38,3.33-1.05,4.24l-111.08,70.03,120.9-69.37c1.54-.86,3.48-.32,4.35,1.21.83,1.47.36,3.33-1.07,4.23l-83.84,51.74,89.14-51.13c1.54-.84,3.48-.29,4.33,1.25.81,1.45.35,3.28-1.05,4.19l-102.44,63.55,107.01-61.38c1.55-.83,3.49-.26,4.33,1.28.79,1.45.33,3.26-1.06,4.16l-62.68,38.23,64.56-37.05c1.54-.84,3.48-.29,4.33,1.25.81,1.45.35,3.28-1.05,4.19l-108.93,67.48,111.02-63.68c1.55-.82,3.49-.24,4.32,1.3.77,1.44.32,3.23-1.04,4.13l-93.07,57.2,93.4-53.58c1.51-.9,3.47-.41,4.38,1.09s.41,3.45-1.1,4.35l-110.9,68.61,110.14-63.19c1.51-.91,3.47-.42,4.38,1.07.91,1.5.43,3.45-1.08,4.35l-135.06,84.64,132.67-76.08c1.51-.9,3.47-.41,4.38,1.09s.41,3.45-1.1,4.35l-95.08,58.49,91.8-52.66c1.55-.83,3.49-.26,4.33,1.28.79,1.44.34,3.24-1.04,4.15l-115.23,71.58,111.55-63.99c1.52-.89,3.47-.4,4.37,1.11.9,1.51.4,3.45-1.11,4.35l-38.22,23.14,34.52-19.8c1.54-.85,3.48-.29,4.34,1.24.81,1.46.34,3.31-1.08,4.21l-48.15,29.27,44.27-25.36c1.62-.7,3.5.04,4.2,1.64.57,1.31.19,2.84-.93,3.74l-96.23,59.55,91.95-52.74c1.51-.9,3.47-.4,4.37,1.1.9,1.5.41,3.45-1.11,4.35l-64,39.16,59.72-34.24c1.51-.9,3.47-.42,4.38,1.08.91,1.5.42,3.45-1.09,4.35h0l-104.65,65.31,99.83-57.27c1.53-.87,3.48-.34,4.35,1.18.85,1.48.37,3.37-1.1,4.27l-12.55,7.61,8.21-4.7c1.54-.84,3.48-.28,4.33,1.25.8,1.45.35,3.26-1.03,4.17l-106.67,66.91,101.26-58.07c1.54-.84,3.48-.28,4.33,1.25.8,1.45.35,3.26-1.03,4.17l-101.12,63.53,95.47-54.76c1.56-.82,3.49-.22,4.31,1.33.76,1.44.31,3.21-1.05,4.11l-26.7,16.29,21.77-12.46c1.51-.9,3.47-.4,4.37,1.1.9,1.5.41,3.45-1.11,4.35h0l-17.38,10.58,12.38-7.1c1.49-.94,3.46-.5,4.4.97.95,1.48.51,3.44-.98,4.38-.08.05-.15.09-.23.13l-222.56,127.65c-.48.28-1.03.43-1.6.42Z"/>
      <path class="cls-5" d="m239.24,394.51c-1.76,0-3.2-1.41-3.2-3.16,0-1.07.54-2.07,1.44-2.66l7.12-4.67-14.93,8.57c-1.5.92-3.47.45-4.39-1.05-.92-1.49-.45-3.45,1.05-4.36h0l7.7-4.96-13.94,7.98c-1.48.85-3.37.38-4.29-1.05-.92-1.44-.52-3.34.89-4.31l55.09-37.54-65.46,37.55c-1.54.84-3.48.29-4.33-1.25-.79-1.43-.36-3.23,1-4.15l38.22-24.76-43.89,25.18c-1.54.84-3.48.28-4.33-1.25-.8-1.44-.36-3.24,1.02-4.16l32.12-20.5-36.28,20.8c-1.55.83-3.49.24-4.32-1.3-.77-1.42-.33-3.19,1.01-4.11l35.91-22.88-39.35,22.57c-1.52.88-3.48.36-4.36-1.15-.84-1.45-.41-3.29.98-4.22l74.72-49.73-80.08,45.94c-1.5.91-3.47.44-4.39-1.05s-.45-3.45,1.06-4.36l54.88-35.32-57.43,32.94c-1.54.85-3.48.31-4.34-1.22-.81-1.44-.37-3.26,1.01-4.18l56.21-36.19-57.91,33.2c-1.54.86-3.48.31-4.34-1.22-.82-1.46-.36-3.3,1.05-4.21l10.67-6.64-10.38,5.95c-1.54.86-3.48.31-4.34-1.22-.81-1.43-.38-3.23.97-4.16l74.84-49.65-75.73,43.44c-1.54.84-3.48.28-4.33-1.25-.8-1.45-.35-3.26,1.03-4.17l12.02-7.51-10.49,6.01c-1.55.84-3.49.27-4.33-1.27-.78-1.42-.35-3.2.98-4.12l55.91-36.48-54.18,31.07c-1.55.83-3.49.26-4.33-1.28-.78-1.43-.34-3.22,1.02-4.14l13.04-8.24-10.17,5.83c-1.51.91-3.47.42-4.38-1.07s-.43-3.45,1.08-4.35l5.93-3.73-2.42,1.39c-1.52.88-3.48.36-4.36-1.15-.84-1.45-.41-3.29.98-4.22l48.41-32.4-43.18,24.77c-1.55.84-3.49.27-4.33-1.27-.77-1.4-.36-3.15.94-4.09l38.68-26.22-31.24,17.92c-1.52.88-3.48.37-4.36-1.14-.83-1.41-.44-3.21.89-4.17l36.52-26.48-23.83,13.66c-1.52.89-3.47.38-4.37-1.13-.81-1.37-.47-3.13.79-4.11l19.49-15.31c-.77-.23-1.43-.75-1.83-1.45-.88-1.51-.36-3.45,1.16-4.33l29.88-17.12c1.53-.87,3.48-.34,4.35,1.17.78,1.36.45,3.08-.78,4.06l-14.04,11.01,37.52-21.5c1.52-.88,3.48-.37,4.36,1.14.83,1.41.44,3.21-.89,4.17l-36.47,26.46,53.37-30.62c1.54-.85,3.48-.3,4.34,1.23.79,1.41.38,3.19-.94,4.13l-38.7,26.22,49.21-28.22c1.52-.88,3.48-.36,4.36,1.15.84,1.45.41,3.29-.98,4.22l-48.37,32.37,57.25-32.84c1.51-.91,3.47-.43,4.38,1.07s.43,3.45-1.08,4.36l-6.14,3.86,9.74-5.59c1.53-.87,3.48-.34,4.35,1.18.84,1.47.38,3.33-1.05,4.24l-12.95,8.15,16.18-9.29c1.51-.9,3.47-.41,4.38,1.09.89,1.47.43,3.38-1.03,4.3l-55.91,36.48,61.13-35.07c1.51-.91,3.47-.42,4.38,1.07.91,1.5.43,3.45-1.08,4.35l-12.01,7.5,13.86-7.94c1.55-.84,3.48-.27,4.33,1.26.78,1.42.36,3.19-.97,4.11l-74.81,49.62,79.46-45.57c1.55-.83,3.49-.26,4.33,1.28.79,1.44.34,3.24-1.04,4.15l-10.75,6.69,11.31-6.49c1.54-.85,3.48-.31,4.34,1.22.81,1.44.37,3.26-1.01,4.18l-56.23,36.21,57.74-33.12c1.53-.87,3.48-.33,4.35,1.19.83,1.46.38,3.3-1.03,4.22l-54.82,35.32,55.38-31.76c1.54-.85,3.48-.29,4.34,1.24.79,1.42.38,3.2-.96,4.13l-74.7,49.71,74.95-42.99c1.55-.83,3.49-.25,4.32,1.3.77,1.42.33,3.2-1.01,4.11l-35.88,22.86,34.15-19.59c1.54-.84,3.48-.28,4.33,1.25.8,1.44.36,3.24-1.02,4.16l-32.15,20.52,29.51-16.93c1.53-.87,3.48-.33,4.35,1.19.83,1.45.39,3.28-1.01,4.21l-38.29,24.78,34.77-19.94c1.53-.87,3.48-.34,4.35,1.18.82,1.43.41,3.24-.95,4.18l-55.11,37.55,49.46-28.37c1.5-.92,3.47-.45,4.39,1.05s.45,3.45-1.05,4.36l-7.66,4.91,1.63-.93c1.5-.92,3.47-.46,4.39,1.03.93,1.49.46,3.44-1.04,4.37l-7.4,4.84c1.61-.72,3.5-.01,4.22,1.58.62,1.37.19,2.99-1.03,3.87l-24.81,18.03,10.37-5.95c1.53-.87,3.48-.33,4.35,1.19.86,1.51.35,3.42-1.16,4.3l-61.53,35.29c-1.53.86-3.48.32-4.35-1.2-.79-1.39-.42-3.14.87-4.1l24.81-18.03-41.87,24.02c-.47.27-.99.42-1.53.43Z"/>
      <path class="cls-9" d="m251.53,470.74c-1.76,0-3.19-1.42-3.19-3.17,0-1,.47-1.94,1.28-2.54l22.89-17.06-38.1,21.86c-1.51.9-3.47.42-4.38-1.08-.84-1.4-.49-3.2.82-4.17l35.03-27-51.05,29.27c-1.57.79-3.49.15-4.28-1.41-.67-1.34-.32-2.96.86-3.9l18.75-13.31-27.15,15.53c-1.52.89-3.47.4-4.37-1.11-.82-1.37-.49-3.13.78-4.12l22.67-18.04-32.35,18.55c-1.53.87-3.48.33-4.35-1.19-.79-1.39-.43-3.14.85-4.1l8.55-6.34-13.27,7.61c-1.51.9-3.47.41-4.38-1.09-.78-1.3-.53-2.97.6-3.98l19.82-18.51-24.19,13.92c-1.53.86-3.48.33-4.35-1.2-.76-1.34-.45-3.04.76-4.01l4.38-3.5-2.63,1.51c-1.52.88-3.48.37-4.36-1.14-.67-1.14-.56-2.57.28-3.59l8.84-10.93c-1.58.77-3.49.13-4.27-1.44-.73-1.47-.21-3.25,1.2-4.11l14.61-8.38c1.33-.77,3.02-.48,4.02.68,1,1.16,1.02,2.86.06,4.05l-8.83,10.91,23.94-13.73c1.53-.88,3.48-.36,4.36,1.16.79,1.36.46,3.08-.77,4.06l-4.38,3.49,11.97-6.87c1.51-.91,3.47-.43,4.38,1.06.8,1.31.55,2.99-.6,4.01l-19.82,18.51,37.34-21.42c1.53-.87,3.48-.33,4.35,1.19.79,1.39.43,3.14-.85,4.1l-8.55,6.31,20.74-11.92c1.52-.89,3.47-.4,4.37,1.11.82,1.37.49,3.13-.78,4.12l-22.65,18.05,47.34-27.16c1.53-.86,3.48-.32,4.35,1.2.8,1.4.41,3.17-.9,4.12l-18.74,13.31,35.01-20.09c1.52-.89,3.47-.38,4.37,1.13.82,1.38.47,3.15-.82,4.13l-35.05,27,43.65-25.03c1.53-.88,3.48-.36,4.36,1.16.81,1.39.44,3.16-.85,4.12l-22.88,17.05,24.12-13.83c1.51-.9,3.47-.42,4.38,1.08.78,1.28.55,2.92-.55,3.95l-18.33,17.51,13.8-7.91c1.56-.81,3.49-.21,4.31,1.34.77,1.46.28,3.26-1.12,4.14l-36.47,20.92c-1.51.9-3.47.42-4.38-1.08-.78-1.28-.55-2.92.55-3.95l18.3-17.49-47.5,27.26c-.48.27-1.02.4-1.57.39Z"/>
      <path class="cls-5" d="m284.24,439.16c-.86,0-1.68-.34-2.27-.95-1.02-1.03-1.21-2.6-.47-3.84l6.61-11.01-14.54,8.33c-1.53.87-3.48.35-4.35-1.17-.43-.75-.54-1.65-.29-2.48l2.39-7.94c-.89-.18-1.65-.73-2.1-1.52-.88-1.51-.36-3.45,1.16-4.33l4.36-2.54c1.53-.87,3.48-.35,4.36,1.17.44.75.54,1.65.29,2.49l-2.05,6.85,18.18-10.44c1.53-.87,3.48-.35,4.36,1.17.57.99.57,2.22-.02,3.2l-6.61,11.02,2.28-1.3c1.56-.81,3.49-.21,4.31,1.34.77,1.46.28,3.26-1.12,4.14l-12.89,7.35c-.48.29-1.02.44-1.58.44Z"/>
      <path class="cls-6" d="m254.11,362.54c-1.76,0-3.19-1.42-3.19-3.17,0-.98.45-1.9,1.23-2.5l15.9-12.37-30.23,17.34c-1.54.84-3.48.29-4.33-1.25-.78-1.41-.38-3.17.93-4.1l6.16-4.22-12.57,7.19c-1.53.86-3.48.32-4.35-1.2-.81-1.42-.4-3.21.94-4.15l17.69-12.12-23.61,13.56c-1.53.87-3.48.35-4.36-1.17-.81-1.4-.43-3.19.89-4.14l41.23-29.57-48.5,27.83c-1.53.87-3.48.33-4.35-1.19-.83-1.45-.39-3.28,1.01-4.21l9.3-6.07-11.47,6.59c-1.54.84-3.48.29-4.33-1.25-.78-1.41-.38-3.17.93-4.1l36.03-24.59-39,22.33c-1.53.87-3.48.35-4.36-1.16-.82-1.42-.42-3.22.92-4.17l45.41-32-47.78,27.41c-1.5.91-3.47.44-4.39-1.05-.9-1.46-.46-3.38.98-4.31l30.26-20.54-30.18,17.3c-1.53.88-3.48.36-4.36-1.16-.81-1.4-.44-3.18.87-4.14l45.56-33.24-44.55,25.55c-1.54.85-3.48.29-4.34-1.24-.79-1.42-.37-3.21.98-4.14l3.83-2.54-.55.31c-1.53.87-3.48.34-4.35-1.18-.82-1.43-.4-3.25.97-4.19l10.06-6.77-5.71,3.27c-1.53.87-3.48.34-4.35-1.18-.81-1.41-.42-3.2.91-4.14l17.11-12.08-10.38,5.95c-1.52.89-3.47.39-4.37-1.12-.77-1.29-.52-2.94.6-3.95l20.04-18.53-.11.06c-1.56.81-3.49.21-4.31-1.34-.77-1.46-.28-3.26,1.12-4.14l24.46-14.03c1.52-.89,3.47-.39,4.37,1.12.77,1.29.52,2.94-.6,3.95l-20.03,18.52,44.67-25.63c1.53-.87,3.48-.34,4.35,1.18.81,1.41.42,3.2-.91,4.14l-17.17,12.15,23.81-13.66c1.52-.89,3.47-.39,4.37,1.11.87,1.45.43,3.33-.98,4.26l-10.01,6.74,12.59-7.23c1.52-.88,3.48-.36,4.36,1.15.85,1.45.41,3.31-1,4.24l-3.83,2.54,5.99-3.44c1.53-.88,3.48-.36,4.36,1.16.81,1.4.44,3.18-.87,4.14l-45.53,33.22,52.43-30.08c1.52-.88,3.48-.36,4.36,1.15.84,1.44.42,3.28-.97,4.21l-30.28,20.57,34.46-19.76c1.51-.9,3.47-.4,4.37,1.1.86,1.43.45,3.28-.93,4.23l-45.43,31.99,50.41-28.92c1.53-.87,3.48-.34,4.35,1.18.82,1.43.41,3.24-.95,4.18l-35.95,24.57,36.04-20.68c1.55-.84,3.49-.27,4.33,1.27.78,1.42.35,3.2-.98,4.12l-9.33,6.09,7.59-4.34c1.53-.87,3.48-.35,4.36,1.17.81,1.4.43,3.19-.89,4.14l-41.26,29.6,38.44-22.06c1.52-.89,3.47-.4,4.37,1.11.86,1.45.44,3.31-.96,4.25l-17.65,12.08,12.97-7.44c1.53-.87,3.48-.34,4.35,1.18.82,1.43.41,3.24-.95,4.18l-6.2,4.24c1.54-.85,3.48-.29,4.34,1.24.76,1.37.41,3.09-.84,4.04l-15.91,12.38,3.64-2.09c1.49-.94,3.46-.5,4.4.97s.51,3.44-.98,4.38c-.08.05-.15.09-.23.13l-42.81,24.56c-.48.28-1.03.43-1.6.43Z"/>
      <path class="cls-5" d="m279.2,292.98c-1.76,0-3.19-1.42-3.19-3.17,0-.76.27-1.49.77-2.06l12.12-14.02-26.69,15.29c-1.53.86-3.48.33-4.35-1.19-.77-1.35-.45-3.05.76-4.03l8.13-6.44-11.14,6.38c-1.53.87-3.48.34-4.35-1.18-.75-1.31-.48-2.96.66-3.95l18.38-16-20.48,11.76c-1.54.85-3.48.3-4.34-1.23-.71-1.27-.47-2.85.59-3.85l17.32-15.72-15.23,8.72c-1.53.87-3.48.34-4.35-1.18-.68-1.18-.52-2.66.38-3.68l9.97-11.04c-1.71.41-3.44-.64-3.85-2.34-.33-1.36.28-2.78,1.5-3.48l16.21-9.29c1.53-.87,3.48-.34,4.35,1.18.68,1.18.52,2.66-.38,3.68l-9.67,10.73,23.29-13.37c1.54-.85,3.48-.3,4.34,1.23.71,1.27.47,2.85-.59,3.85l-17.32,15.72,23.23-13.31c1.54-.86,3.48-.32,4.35,1.21.73,1.3.46,2.92-.65,3.91l-18.38,16.01,19.98-11.46c1.53-.87,3.48-.34,4.35,1.18.78,1.35.45,3.07-.77,4.04l-8.12,6.45,5.88-3.37c1.53-.88,3.48-.36,4.36,1.16.68,1.16.54,2.62-.34,3.65l-12.12,14.02,1.91-1.09c1.49-.94,3.46-.5,4.4.97s.51,3.44-.98,4.38c-.08.05-.15.09-.23.13l-18.1,10.39c-.49.28-1.04.43-1.61.42Z"/>
      <path class="cls-5" d="m218.18,318.41c-1.76,0-3.19-1.41-3.2-3.16,0-.67.21-1.32.61-1.86l4.68-6.44-8.81,5.07c-1.53.88-3.48.36-4.36-1.16-.57-.97-.57-2.18-.01-3.15l4.89-8.55-.41.23c-1.56.81-3.49.21-4.31-1.34-.77-1.46-.28-3.26,1.12-4.14l10.58-6.06c1.53-.87,3.48-.34,4.35,1.18.56.97.56,2.15.01,3.13l-4.88,8.55,11.53-6.62c1.53-.87,3.48-.35,4.36,1.16.63,1.08.56,2.43-.18,3.44l-4.68,6.44,1.6-.91c1.49-.94,3.46-.5,4.4.97.95,1.48.51,3.44-.98,4.38-.08.05-.15.09-.23.13l-14.49,8.31c-.49.28-1.04.42-1.6.41Z"/>
      <path class="cls-2" d="m81.31,483.61c8.77,8.48,22.36,9.59,32.4,2.64,13.48-12.49,7.89-33.71,11.72-50,6.37,20.49,14.12,40.54,23.2,60,3.15,8.57,6.45,5.96-5.1,5.96-23.19-.44-31.13,36.39-5.39,39.13h39.49c57.2.84,3.35-53.04,79.92-44.38,11.82,0,12.57-2.02,19.78,8.69,5.54,8.24,4.47,16.99,9.72,24.83,12.52,18.79,49.43,10.86,68.32,10.86,25.81-2.78,14.75-40.25-7.39-39.13-2.69-.16-6.47.82-7.27-1.03,13.12-20.78,19.14-41.88,26.59-64.49,3.68,16.42-1.7,37.79,11.74,50.42,10.21,6.55,23.68,4.9,31.99-3.91,15.49-28.53-6.04-86.86-28.52-108.12,9.57-69.93,45.03-200.23-60.46-208.91-47.07-2.4-95.01-.44-142.12,0-113.58,1-82.22,135.17-69.68,209.32-22.32,20.45-44.99,80.5-28.94,108.12Zm258.36,17.96c0,.08.07.08.11.11.08.7.29,1.31-.11-.11Zm59.64-90.26c5.3,12.74,13.2,38.23,9.9,52.05-9.14,38.31-29.66,13.83-33.08-7.26-1.19-10.48-3-20.88-5.44-31.14,3.99-13.8,7.28-27.76,10.25-41.81,7.83,8.17,14.06,17.72,18.37,28.16ZM102.47,249.38c1.08-44.76,26.37-74.28,72.66-75.78,46.83-.38,93.77-.29,140.6,0,105.29,2.29,71.86,129.92,62.09,199.43-1.14,1.43-1.52,3.32-1.02,5.07-3.07,14.66-6.73,29.16-10.96,43.49-1.06.9-1.48,2.33-1.08,3.65-8.06,26.93-18.62,53.06-31.53,78.05-1.14,2.19-.03,6.34,2.97,6.34,10.25-.13,24.3-1.6,27.85,10.73,1.81,5.39-1.11,11.21-6.54,13.01-1.02.34-2.08.52-3.16.53-12.6,0-37.31,5.28-48.43,0-35.88-24.58,7.23-54.3-83.22-44.38-38.08,6.34,4.58,50.67-55.7,44.38h-29.88c-5.29-.11-9.48-4.45-9.38-9.7.04-1.83.61-3.62,1.64-5.13,4.98-10.99,17.8-9.51,27.91-9.43,2.96,0,2.7-3.8,1.77-5.58-12.83-24.84-23.4-50.78-31.58-77.5.77-2.14,1.56-5.86-1.57-5.27-4.17-13.95-7.84-28.11-10.92-42.42,2.55-2.33,1.28-6.21-1.21-5.94-8.36-40.64-12.16-82.07-11.34-123.55Zm9.22,133.09c2.97,14.06,6.35,27.99,10.27,41.85-8.61,16.22.6,55.04-20.12,59.1-13.96,2.36-17.06-8.12-18.19-21.06-1.69-29.27,8.39-58.01,28.03-79.89Z"/>
      <path class="cls-2" d="m245.77,394.69c131.45-6.85,132.52-189.69.96-195.99-131.1,5.69-132.84,188.62-.96,195.99Zm0-190.21c121.24,5.52,122.65,176.95.96,184.43-121.52-6.42-122.36-178.28-.96-184.43h0Z"/>
      <path class="cls-2" d="m203.61,347.73c55.89,45.2,132.42-17.59,102.61-81.02,5.32-23.74-21.31-45.09-43.39-34.07-66.35-12.51-116.59,68.9-59.22,115.09Zm96.16-90.41c.62,2.76.75,5.61.41,8.41-.99.65-1.26,1.97-.61,2.95,0,.01.02.03.03.04-3.19,10.59-12.91,17.91-24.03,18.09-32-1.72-34.61-49.88-1.19-49.99,12.21.2,22.7,8.66,25.39,20.49Zm-44.34-19.97c-38.25,33.79,20.42,82.51,47.09,39.44,16.07,54.42-47.28,108.29-95.98,65.06-46.11-40.93-7.24-109.78,48.89-104.5h0Z"/>
      <path class="cls-2" d="m220.73,319.46c20.75-.1,19.99-32.87-.44-32.84-20.43.03-19.26,31.78.44,32.84Zm.39-25.3c4.95-.17,9.1,3.68,9.27,8.6.17,4.92-3.7,9.04-8.65,9.21-.44.02-.89,0-1.33-.05-4.95.13-9.07-3.74-9.21-8.66-.13-4.92,3.77-9.01,8.72-9.15.41-.01.82,0,1.23.05h-.03Z"/>
      <path class="cls-2" d="m325.54,426.31c-.03-.43-.18-.84-.44-1.19-7.46-22.08-33.23-18.26-51.05-13.49-17.82,2.62-35.93,2.62-53.76,0-20.02-2.92-57.24-7.45-54.11,25.05,3.35,48.9,168.46,46.66,159.39-9.11.1-.42.09-.85-.03-1.26Zm-32.07-10.33c-1.03,5.93,3.83,19.2-6.29,17.34-14.87,2.26-11.42-5.79-11.65-16.54,5.96-.67,11.95-.93,17.94-.8Zm-46.34,48.45c-13.32,1.8-93.17-10.14-73.01-37.33,27.55-22.39,61.14.29,93.75-9.43-1.91,17.23,1.75,23.16,19.74,21.36,14.48,1.08,14.13-11.61,13.51-22.37,8.54,1.36,15.16,4.78,17.23,11.96,3.26,32.88-52.1,35.81-71.19,35.82h-.03Z"/>
    </g>
  </g>
  <g id="Capa_3" data-name="Capa 3">
    <g>
      <path class="cls-8" d="m451,116.11c0,45.6-70.88,140.85-212.43,140.85S26.1,161.71,26.1,116.11s59.25,31.03,210.46,31.03c151.34.09,214.45-76.63,214.45-31.03Z"/>
      <path class="cls-3" d="m238.57,262c-80.32,0-132.68-29.63-162.53-54.47-37.92-31.6-54.95-68.69-54.95-91.42,0-12.95,5-19.49,14.79-19.49,7.72,0,18.04,4.17,33.58,10.4,32.52,13.17,86.99,35.11,167.18,35.11s135.36-21.81,168.63-34.85c15.89-6.19,27.39-10.71,35.55-10.71,10.14,0,15.27,6.54,15.27,19.49,0,22.74-16.94,59.78-54.95,91.42-29.85,24.84-82.21,54.47-162.53,54.47l-.04.04ZM35.89,106.67c-2.19,0-4.7,0-4.7,9.44,0,20.32,15.84,54.12,51.31,83.7,28.57,23.79,78.83,52.14,156.12,52.14s127.55-28.35,156.12-52.14c35.46-29.58,51.31-63.33,51.31-83.7,0-9.44-2.68-9.44-5.22-9.44-6.28,0-17.6,4.43-31.86,10.01-34.02,13.3-90.81,35.55-172.32,35.55s-137.69-22.47-170.91-35.81c-13.43-5.4-24.05-9.7-29.85-9.7v-.04Z"/>
      <path class="cls-8" d="m278.69,8.05c-9.09,0-20.85,17.47-41.61,17.47s-33.44-17.47-44.29-17.47c-15.27,0-33.66,45.91-46.52,80.23-12.86,34.37-16.77,63.07-16.77,73.6,0,19.71,34.28,47.36,107.53,47.36s107.53-28.66,107.53-47.36c0-10.27-4.43-38.36-18.52-73.34-11.76-29.36-30.42-80.54-47.45-80.54l.09.04Z"/>
      <path class="cls-3" d="m237.12,214.29c-42.71,0-69.04-9.22-83.61-16.9-18.17-9.66-29.01-22.87-29.01-35.55,0-10.27,3.6-39.33,17.12-75.4C160.4,36.4,176.34,3.04,192.84,3.04c5.97,0,11.41,3.47,17.73,7.37,7.46,4.7,15.89,10.05,26.55,10.05s19.09-5.57,26.25-10.49c5.49-3.73,10.23-6.98,15.36-6.98,17.6,0,31.95,32.74,48.94,75.45,1.14,2.9,2.24,5.62,3.25,8.16,14.92,37.18,18.87,65.44,18.87,75.23,0,12.33-10.84,25.5-28.92,35.2-14.7,7.81-41.17,17.16-83.7,17.16l-.04.09ZM192.84,13.05c-1.67,0-7.94,1.76-19.71,24.49-8.03,15.54-15.71,35.24-22.16,52.45-12.11,32.17-16.46,60.61-16.46,71.85,0,6.85,6.19,17.38,23.66,26.69,13.61,7.2,38.27,15.76,78.92,15.76s65.27-8.73,78.92-16.06c17.47-9.35,23.66-20.06,23.66-26.33,0-10.58-4.87-38.27-18.17-71.45-1.05-2.59-2.11-5.35-3.29-8.25-5.79-14.57-12.95-32.65-20.5-46.79-10.71-20.15-16.9-22.3-19.09-22.3-2.06,0-5.93,2.68-9.7,5.22-7.55,5.14-17.86,12.25-31.86,12.25s-23.7-6.41-31.86-11.63c-4.65-3.03-9.13-5.93-12.25-5.93l-.09.04Z"/>
      <g>
        <path class="cls-3" d="m237.12,183.08c-63.69,0-97.92-20.98-105.78-39.33-1.27,8.03-1.76,14.31-1.76,18.08,0,19.71,34.28,47.36,107.53,47.36s107.53-28.66,107.53-47.36c0-3.73-.61-9.88-2.06-17.82-8.25,17.86-42.44,39.06-105.51,39.06h.04Z"/>
        <path class="cls-3" d="m237.12,214.29c-42.71,0-69.04-9.22-83.61-16.9-18.17-9.66-29.01-22.87-29.01-35.55,0-4.65.61-11.32,1.84-18.87.35-2.19,2.11-3.95,4.35-4.21s4.35.97,5.22,3.03c7.46,17.47,42.31,36.34,101.17,36.34s92.92-18.74,100.99-36.17c.92-1.98,3.03-3.12,5.22-2.9,2.19.26,3.95,1.89,4.3,4.08,1.32,7.55,2.11,14.22,2.11,18.74,0,12.33-10.84,25.5-28.92,35.2-14.66,7.9-41.13,17.25-83.61,17.25l-.04-.04Zm-102.4-56.75c-.13,1.62-.13,3.12-.13,4.35,0,6.85,6.19,17.38,23.66,26.69,13.61,7.2,38.27,15.76,78.92,15.76s65.27-8.73,78.92-16.06c17.47-9.35,23.66-20.06,23.66-26.33,0-1.32-.09-2.94-.22-4.7-16.11,16.68-50.83,30.99-102.35,30.99-54.6-.09-87.3-14.79-102.4-30.68h-.04Z"/>
      </g>
      <path class="cls-3" d="m342.68,149.73c-1.27,2.59-2.59,5.22-4.43,7.55-2.41,2.9-4.92,5.57-7.81,7.94-5.97,5-12.68,8.95-19.71,12.16-14.57,6.67-30.46,10.14-46.3,12.03-16.42,1.98-33.14,1.98-49.64.57-15.84-1.32-32.22-4.43-46.96-10.58-7.81-3.25-15.76-7.02-22.3-12.47-3.25-2.68-6.32-5.49-9-8.78-2.19-2.68-3.73-5.62-5.14-8.73,3.16,5.49,7.11,10.36,12.25,14.09,6.06,4.43,12.47,7.9,19.36,10.84,14.44,6.14,30.42,9.22,45.95,10.84,16.33,1.67,32.74,1.84,49.11.7,8.08-.57,16.2-1.62,24.05-3.16,7.55-1.54,15.14-3.29,22.38-5.97,7.94-2.94,16.06-6.28,23-11.28,3.38-2.41,6.54-5,9.44-8.03,2.24-2.41,3.99-5,5.71-7.72h.04Z"/>
      <path class="cls-3" d="m305.73,71.38c-8.16.35-15.27-4.3-20.41-10.36-6.06-7.11-9.48-16.46-9.92-25.76-.22-4.3.35-8.65,1.98-12.6,3.38,6.98,5.97,14.22,9.35,21.2,3.25,6.76,6.85,13.21,11.28,19.27,2.33,3.12,5.14,5.57,7.72,8.25Z"/>
      <path class="cls-3" d="m165.67,71.38c1.32-1.32,2.77-2.59,3.99-3.99,1.67-1.89,3.29-3.95,4.7-6.06,2.77-3.99,5.22-8.38,7.33-12.73,2.24-4.65,4.43-9.44,6.5-14.13,1.67-3.86,3.16-7.94,5-11.76,3.16,7.55,2.55,16.81-.09,24.4-2.9,8.51-7.94,16.24-15.71,21.11-3.6,2.24-7.59,3.29-11.76,3.16h.04Z"/>
      <path class="cls-3" d="m42.29,129.19c8.43,21.59,24.97,38.62,42.22,53.63,18.39,15.98,38.98,29.14,60.39,40.69,9.88,5.35,20.15,9.92,30.33,14.48-22.82-4.08-44.55-12.95-64.34-25.06-21.2-12.95-40.91-29.63-54.95-50.26-6.85-10.14-12.03-21.33-13.65-33.49Z"/>
      <path class="cls-3" d="m432.79,129.19c-2.94,22.82-18.52,42.57-34.76,57.94-18.21,17.16-39.77,31.03-62.94,40.56-11.41,4.65-23.17,8.16-35.24,10.27,20.15-8.87,39.68-18.79,58.16-30.81,20.28-13.21,39.63-28.49,55.48-46.88,8.08-9.35,14.84-19.49,19.36-31.03l-.04-.04Z"/>
      <path class="cls-3" d="m210.83,47.02c8.38,3.99,16.68,8.08,26.2,8.08s17.95-4.08,26.33-8.08c-4.21,7.9-12.95,13.61-21.68,14.92-7.46,1.14-15.14-.61-21.42-4.87-3.73-2.55-7.33-5.97-9.44-10.05Z"/>
      <path class="cls-10" d="m267.37,139.9c-.61,0-1.19.22-1.67.48l-8.03-13.96,8.03-13.96c.48.26,1.05.48,1.67.48,1.89,0,3.47-1.54,3.47-3.47s-1.54-3.47-3.47-3.47-3.47,1.54-3.47,3.47h-16.11l-8.51-14.79c1.05-.57,1.76-1.67,1.76-2.94,0-1.89-1.54-3.47-3.47-3.47s-3.47,1.54-3.47,3.47c0,1.27.7,2.41,1.76,2.94l-8.51,14.79h-16.11c0-1.89-1.54-3.47-3.47-3.47s-3.47,1.54-3.47,3.47,1.54,3.47,3.47,3.47c.61,0,1.19-.22,1.67-.48l8.03,13.96-8.03,13.96c-.48-.26-1.05-.48-1.67-.48-1.89,0-3.47,1.54-3.47,3.47s1.54,3.47,3.47,3.47,3.47-1.54,3.47-3.47h16.11l8.51,14.79c-1.05.57-1.76,1.67-1.76,2.94,0,1.89,1.54,3.47,3.47,3.47s3.47-1.54,3.47-3.47c0-1.27-.7-2.41-1.76-2.94l8.51-14.79h16.11c0,1.89,1.54,3.47,3.47,3.47s3.47-1.54,3.47-3.47-1.54-3.47-3.47-3.47Z"/>
      <g>
        <path class="cls-3" d="m342.81,136.65c-6.32,5.93-12.95,11.28-20.5,15.63-8.3,4.78-17.34,8.38-26.55,10.93-3.99,1.05-8.08,2.06-12.16,2.46,7.81-2.11,15.41-5.79,22.47-9.79,7.81-4.52,15.05-10.05,21.42-16.46,2.9-2.94,5.4-6.28,7.94-9.48,2.41,2.24,4.92,4.52,7.37,6.76v-.04Z"/>
        <path class="cls-3" d="m339.87,125.37c-5.97,5.49-12.25,10.23-19.44,14.09-6.41,3.47-13.3,6.14-20.32,8.03-3.12.83-6.32,1.62-9.57,2.06,8.43-2.77,16.55-7.33,23.7-12.51,3.38-2.46,6.63-5.14,9.57-8.08,3.16-3.25,5.97-6.63,8.65-10.27,2.41,2.24,4.92,4.52,7.37,6.76l.04-.09Z"/>
        <path class="cls-3" d="m336.93,114.13c-11.1,9.66-24.71,16.9-39.41,19.14,6.19-2.55,12.11-6.19,17.38-10.36,5.71-4.52,10.4-9.7,14.66-15.63,2.46,2.33,4.92,4.56,7.37,6.85Z"/>
        <path class="cls-3" d="m333.95,102.85c-8.6,6.89-18.65,12.11-29.58,14.22,9-5,16.55-12.38,22.12-20.98,2.55,2.33,5,4.52,7.46,6.76Z"/>
        <path class="cls-3" d="m331.05,91.57c-6.06,4.17-12.6,7.37-19.71,9.3,5-4.56,9-10.01,12.16-15.98,2.46,2.24,5,4.43,7.55,6.67Z"/>
      </g>
      <g>
        <path class="cls-3" d="m138.19,129.89c4.92,6.32,10.23,12.11,16.46,17.16,7.24,5.84,15.36,10.58,23.79,14.35,3.73,1.67,7.59,3.25,11.54,4.3-8.08-.92-16.11-3.38-23.7-6.28-9.09-3.47-17.69-8.25-25.41-14-3.6-2.68-6.85-5.71-10.05-8.78,2.46-2.24,4.92-4.52,7.37-6.76Z"/>
        <path class="cls-3" d="m141.18,118.61c2.77,3.6,5.49,7.02,8.65,10.27,2.94,2.94,6.19,5.62,9.57,8.08,7.11,5.22,15.27,9.79,23.7,12.51-14.13-1.84-28.09-8.03-39.77-16.11-3.47-2.41-6.5-5.14-9.57-7.94,2.46-2.33,4.92-4.56,7.37-6.85l.04.04Z"/>
        <path class="cls-3" d="m144.12,107.37c4.21,5.93,8.95,11.1,14.66,15.63,5.27,4.17,11.19,7.81,17.38,10.36-14.7-2.24-28.31-9.48-39.41-19.14,2.46-2.33,4.92-4.56,7.37-6.85Z"/>
        <path class="cls-3" d="m147.06,96.18c5.62,8.6,13.08,15.98,22.12,20.98-10.93-2.11-20.98-7.33-29.58-14.22,2.46-2.33,5-4.52,7.46-6.76Z"/>
        <path class="cls-3" d="m150.05,84.9c3.16,5.97,7.2,11.41,12.16,15.98-7.11-1.89-13.65-5.22-19.71-9.3,2.55-2.24,5.05-4.43,7.55-6.67Z"/>
      </g>
      <g>
        <polygon class="cls-3" points="130.38 155.52 86.49 134.19 133.85 146.08 130.38 155.52"/>
        <polygon class="cls-3" points="127.88 169.3 103.78 152.05 132.31 160.3 127.88 169.3"/>
        <polygon class="cls-3" points="339.79 146.08 387.19 134.19 343.25 155.52 339.79 146.08"/>
        <polygon class="cls-3" points="341.37 160.3 369.85 152.05 345.71 169.3 341.37 160.3"/>
      </g>
    </g>
  </g>
</svg>