<?xml version="1.0" encoding="UTF-8"?>
<svg xmlns="http://www.w3.org/2000/svg" viewBox="0 0 500 635">
  <defs>
    <style>
      .cls-1 {
        fill: #c96e62;
      }

      .cls-1, .cls-2, .cls-3, .cls-4, .cls-5, .cls-6, .cls-7, .cls-8, .cls-9 {
        stroke-width: 0px;
      }

      .cls-2 {
        fill: #262626;
      }

      .cls-3 {
        fill: #e58572;
      }

      .cls-4 {
        fill: #241816;
      }

      .cls-5 {
        fill: #af5f59;
      }

      .cls-6 {
        fill: #fff;
      }

      .cls-7 {
        fill: #5da0ff;
      }

      .cls-8 {
        fill: #e7d8b4;
      }

      .cls-9 {
        fill: #cf9e76;
      }

      .cls-10 {
        fill: #fcd770;
        stroke: #000;
        stroke-miterlimit: 10;
      }
    </style>
  </defs>
  <g id="Capa_1" data-name="Capa 1">
    <g>
      <path class="cls-8" d="m250,634c-66.51,0-129.04-25.9-176.07-72.93C26.9,514.04,1,451.51,1,385s25.9-129.04,72.93-176.07c47.03-47.03,109.56-72.93,176.07-72.93s129.04,25.9,176.07,72.93c47.03,47.03,72.93,109.56,72.93,176.07s-25.9,129.04-72.93,176.07c-47.03,47.03-109.56,72.93-176.07,72.93Z"/>
      <path class="cls-4" d="m250,137c33.48,0,65.96,6.56,96.53,19.49,29.53,12.49,56.05,30.37,78.83,53.15,22.78,22.78,40.66,49.3,53.15,78.83,12.93,30.57,19.49,63.05,19.49,96.53s-6.56,65.96-19.49,96.53c-12.49,29.53-30.37,56.05-53.15,78.83-22.78,22.78-49.3,40.66-78.83,53.15-30.57,12.93-63.05,19.49-96.53,19.49s-65.96-6.56-96.53-19.49c-29.53-12.49-56.05-30.37-78.83-53.15-22.78-22.78-40.66-49.3-53.15-78.83-12.93-30.57-19.49-63.05-19.49-96.53s6.56-65.96,19.49-96.53c12.49-29.53,30.37-56.05,53.15-78.83s49.3-40.66,78.83-53.15c30.57-12.93,63.05-19.49,96.53-19.49m0-2C111.93,135,0,246.93,0,385s111.93,250,250,250,250-111.93,250-250-111.93-250-250-250h0Z"/>
    </g>
  </g>
  <g id="Capa_2" data-name="Capa 2">
    <g>
      <path class="cls-5" d="m135.03,577.22c-2.18,0-3.94-1.76-3.94-3.94,0-1.1.45-2.14,1.26-2.89l1.34-1.25-6.76,3.89c-1.89,1.07-4.3.41-5.37-1.48-.94-1.65-.56-3.74.9-4.96l2.81-2.37-3.11,1.8c-1.89,1.08-4.3.42-5.38-1.47-.89-1.57-.61-3.55.69-4.8l24.54-23.39-19.07,11.04c-1.88,1.1-4.29.47-5.39-1.41-.98-1.67-.6-3.8.89-5.03l16.11-13.47-7.99,4.61c-1.89,1.08-4.3.42-5.38-1.48-.94-1.66-.56-3.76.91-4.98l13.12-10.76-2.45,1.41c-1.9,1.07-4.3.39-5.37-1.5-.91-1.61-.57-3.63.8-4.87l19.45-17.01c-1.19-.17-2.24-.88-2.83-1.92-1.08-1.88-.44-4.29,1.43-5.38l29.07-16.78c1.9-1.07,4.3-.39,5.37,1.5.91,1.61.57,3.63-.8,4.87l-16.12,14.1,9.21-5.31c1.89-1.08,4.3-.42,5.38,1.48.94,1.66.56,3.76-.91,4.98l-13.13,10.76,5.62-3.24c1.89-1.08,4.3-.43,5.38,1.46.95,1.65.58,3.75-.88,4.97l-16.08,13.47,8.32-4.79c1.84-1.16,4.28-.61,5.44,1.23,1.04,1.64.72,3.8-.75,5.07l-24.54,23.38,15.34-8.85c1.77-1.03,4.04-.52,5.21,1.16,1.17,1.69.85,3.99-.73,5.29l-5.04,4.15c1.27.02,2.47.6,3.28,1.58,1.2,1.61.99,3.87-.48,5.23l-4.36,4.07c2.14.38,3.57,2.43,3.19,4.57-.2,1.14-.9,2.14-1.91,2.72l-24.32,13.99c-.6.36-1.28.55-1.97.55h0Z"/>
      <path class="cls-5" d="m346,575.88c-2.18,0-3.94-1.76-3.94-3.94,0-.85.28-1.68.79-2.37l11.23-14.87-20.25,11.7c-1.9,1.06-4.3.37-5.36-1.53-.85-1.53-.59-3.43.63-4.67l12.54-12.47-10.52,6.08c-1.88,1.11-4.29.48-5.4-1.39-.95-1.61-.64-3.66.74-4.91l8.14-7.6-5.77,3.33c-1.87,1.12-4.29.51-5.41-1.36-.97-1.61-.66-3.69.74-4.95l6.69-6.31-4.23,2.44c-1.89,1.08-4.3.42-5.38-1.48-.88-1.55-.62-3.49.65-4.74l6.44-6.31-3.94,2.27c-1.89,1.08-4.3.43-5.38-1.46-.86-1.5-.64-3.38.53-4.64l6.05-6.46-3.49,2.02c-1.88,1.09-4.3.45-5.39-1.43-.84-1.44-.67-3.25.4-4.52l4.41-5.19-1.64.94c-1.88,1.1-4.29.46-5.39-1.42-.82-1.4-.69-3.16.31-4.43l1.78-2.26c-.81.1-1.64-.05-2.37-.42-1.2-.64-1.99-1.84-2.09-3.2l-.9-12.46c-.85-.32-1.57-.92-2.03-1.71-1.09-1.89-.44-4.3,1.44-5.38l2.2-1.27c1.89-1.09,4.3-.44,5.38,1.44.3.52.48,1.11.52,1.71l.79,10.86,10.34-5.97c1.88-1.1,4.29-.46,5.39,1.42.82,1.4.69,3.16-.31,4.43l-1.3,1.66,3.59-2.07c1.88-1.09,4.3-.45,5.39,1.43.84,1.44.67,3.25-.4,4.52l-4.41,5.2,6.88-3.94c1.89-1.08,4.3-.43,5.38,1.46.86,1.5.64,3.38-.53,4.64l-6.05,6.46,7.65-4.41c1.89-1.08,4.3-.42,5.38,1.48.88,1.55.62,3.49-.65,4.74l-6.44,6.31,6.93-4c1.86-1.13,4.28-.54,5.42,1.32.99,1.62.68,3.72-.74,4.99l-6.7,6.31,6.2-3.58c1.87-1.12,4.29-.51,5.41,1.36.97,1.61.66,3.69-.74,4.95l-8.13,7.6,6.92-4c1.9-1.06,4.3-.37,5.36,1.53.85,1.53.59,3.43-.63,4.67l-12.55,12.47,10.83-6.25c1.88-1.09,4.29-.46,5.39,1.43.8,1.37.69,3.09-.26,4.36l-11.23,14.86,8.19-4.73c1.84-1.17,4.27-.63,5.44,1.21,1.17,1.84.63,4.27-1.21,5.44-.09.06-.19.11-.29.17l-25.02,14.45c-.61.33-1.31.49-2,.46h0Z"/>
      <path class="cls-1" d="m305.03,616.64c-2.18,0-3.94-1.76-3.95-3.94,0-.91.31-1.79.89-2.5l13.12-16.12-28.24,16.3c-1.89,1.08-4.3.43-5.38-1.46-.96-1.67-.57-3.79.93-5.01l8.4-6.84-7.69,4.45c-1.88,1.09-4.29.46-5.39-1.43-.98-1.68-.59-3.81.92-5.04l13.13-10.76-12.28,7.1c-1.87,1.11-4.29.49-5.4-1.39-1.02-1.73-.58-3.95,1.02-5.16l7.19-5.52-10.64,6.14c-1.89,1.08-4.3.43-5.38-1.46-.96-1.67-.57-3.79.93-5.01l23.41-19-42.59,24.55c-1.9,1.07-4.3.4-5.37-1.49-.98-1.74-.51-3.94,1.11-5.12l19.78-14.19-36.05,20.8c-1.84,1.17-4.27.63-5.44-1.21-1.17-1.84-.63-4.27,1.21-5.44.09-.06.19-.11.29-.17l105.9-61.14c1.9-1.07,4.3-.4,5.37,1.49.98,1.74.51,3.94-1.11,5.12l-19.78,14.19,15.77-9.1c1.9-1.07,4.3-.39,5.37,1.51.93,1.66.55,3.74-.91,4.96l-23.41,19.05,18.92-10.93c1.9-1.07,4.3-.4,5.37,1.5.95,1.69.53,3.83-1,5.03l-7.17,5.52,2.8-1.58c1.9-1.06,4.3-.39,5.36,1.51.92,1.65.55,3.73-.9,4.94l-13.15,10.78,8.67-5.01c1.89-1.08,4.3-.43,5.38,1.46.96,1.67.57,3.79-.93,5.01l-8.4,6.83,3.94-2.27c1.89-1.08,4.3-.42,5.38,1.47.8,1.41.66,3.16-.35,4.42l-13.07,16.09,8.09-4.67c1.93-1.01,4.31-.26,5.32,1.67.95,1.82.35,4.05-1.38,5.15l-26.62,15.35c-.6.36-1.28.55-1.97.55h0Z"/>
      <path class="cls-1" d="m182.75,616.64c-2.18,0-3.94-1.77-3.94-3.94,0-1.3.64-2.51,1.71-3.25l63.87-43.82-79.28,45.78c-1.87,1.11-4.29.5-5.4-1.38-1.08-1.82-.53-4.16,1.24-5.32l62.33-41.55-62.62,36.14c-1.91,1.04-4.31.33-5.34-1.59-.97-1.78-.42-4.01,1.26-5.15l10.13-6.44-6.05,3.48c-1.9,1.07-4.3.4-5.37-1.49-1-1.76-.49-3.99,1.16-5.16l78.67-54.48-74.46,42.98c-1.9,1.06-4.3.37-5.36-1.53-.98-1.76-.47-3.97,1.17-5.13l63.75-43.63-59.55,34.39c-1.9,1.07-4.3.4-5.37-1.49-1-1.76-.49-3.99,1.16-5.16l55.78-38.58-51.57,29.77c-1.88,1.1-4.29.47-5.39-1.4-1.04-1.77-.55-4.04,1.13-5.22l43.17-30.86-38.63,22.28c-1.89,1.07-4.3.4-5.37-1.49-.94-1.67-.55-3.77.93-4.99l38.3-30.83-29.91,17.26c-1.89,1.09-4.3.44-5.38-1.44-.95-1.64-.59-3.73.85-4.97l17.53-14.98-4.64,2.67c-1.89,1.08-4.3.42-5.38-1.48-.88-1.55-.62-3.49.65-4.74l13.24-12.99-.06-.09c-1.09-1.89-.44-4.3,1.44-5.38l10.65-6.15c1.89-1.08,4.3-.42,5.38,1.48.88,1.55.62,3.49-.65,4.74l-2.3,2.26,14.73-8.51c1.89-1.07,4.3-.41,5.37,1.48.92,1.63.57,3.69-.84,4.92l-17.52,14.98,37.11-21.38c1.89-1.07,4.3-.4,5.37,1.49.94,1.67.55,3.77-.93,4.99l-38.27,30.8,64.64-37.32c1.88-1.1,4.29-.47,5.39,1.4,1.04,1.77.55,4.04-1.13,5.22l-43.12,30.85,64.97-37.5c1.9-1.07,4.3-.4,5.37,1.49,1,1.76.49,3.99-1.16,5.16l-55.74,38.55,65.04-37.55c1.86-1.13,4.28-.55,5.42,1.31,1.11,1.82.57,4.2-1.22,5.36l-63.78,43.64,68.41-39.5c1.88-1.09,4.29-.46,5.39,1.42,1.04,1.78.53,4.06-1.17,5.23l-78.66,54.47,82.18-47.44c1.86-1.13,4.29-.54,5.42,1.32s.54,4.29-1.32,5.42l-10.2,6.49,9.25-5.35c1.87-1.11,4.29-.5,5.4,1.38,1.08,1.82.53,4.16-1.24,5.32l-62.28,41.55,61.37-35.48c1.89-1.08,4.3-.42,5.38,1.47,1.01,1.77.5,4.03-1.18,5.2l-119.4,81.88c.33,1.65-.43,3.33-1.89,4.18l-26.68,15.38c-.6.35-1.28.54-1.97.55h0Z"/>
      <path class="cls-3" d="m255.61,466.67c-2.18,0-3.94-1.77-3.94-3.94,0-1.31.65-2.53,1.73-3.26l69.99-47.42-93.19,53.8c-1.87,1.12-4.29.51-5.41-1.36-1.1-1.83-.54-4.21,1.27-5.35l77.06-50.7-95.85,55.33c-1.92,1.03-4.31.31-5.34-1.61-.95-1.76-.42-3.96,1.22-5.1l89.58-58.34-106.37,61.41c-1.9,1.07-4.3.4-5.37-1.5-1.03-1.83-.45-4.14,1.32-5.26l8.46-5.2-15.92,9.19c-1.87,1.12-4.29.52-5.41-1.34-1.12-1.87-.52-4.29,1.34-5.41l61.18-38.38-70.75,40.85c-1.88,1.1-4.29.47-5.39-1.41-1.07-1.83-.5-4.19,1.29-5.32l106.21-67.85-117.89,68.04c-1.87,1.12-4.29.51-5.41-1.36s-.51-4.29,1.36-5.41l57.41-35.63-63.86,36.87c-1.91,1.04-4.31.33-5.34-1.59-.97-1.79-.41-4.03,1.28-5.16l83.7-52.31-90.5,52.25c-1.9,1.07-4.3.4-5.37-1.5-1.03-1.83-.45-4.14,1.32-5.26l54.78-33.84-59.13,34.13c-1.91,1.05-4.3.36-5.35-1.55-1-1.81-.43-4.08,1.3-5.2l79.2-49.27-83.57,48.25c-1.89,1.09-4.3.44-5.38-1.45-1.06-1.84-.47-4.18,1.32-5.31l94.36-58.94-98.24,56.71c-1.87,1.12-4.29.51-5.41-1.36-1.12-1.87-.51-4.29,1.36-5.41l55.43-34.16-57.12,32.98c-1.93,1.02-4.31.28-5.33-1.65-.94-1.78-.39-3.97,1.27-5.1l92.09-57.46-93.91,54.23c-1.92,1.03-4.31.3-5.33-1.62-.95-1.78-.4-3.99,1.27-5.12l115.1-72.61-116.4,67.19c-1.92,1.03-4.31.3-5.33-1.62-.96-1.8-.39-4.03,1.31-5.15l1.24-.79c-1.93,1-4.31.24-5.31-1.69-.95-1.84-.32-4.1,1.45-5.17l70.08-43.5-68.72,39.69c-1.95.98-4.31.19-5.29-1.75-.87-1.73-.35-3.84,1.22-4.97l94.03-59.13-92.04,53.13c-1.86,1.13-4.29.53-5.41-1.34s-.53-4.29,1.34-5.41h0l94.79-59.91-91.61,52.95c-1.91,1.05-4.3.36-5.35-1.55-1-1.81-.43-4.08,1.3-5.21l40.53-25.12-36.48,21.01c-1.89,1.08-4.3.42-5.38-1.48-1.03-1.81-.47-4.11,1.27-5.25l99.89-64.23-94.4,54.5c-1.86,1.13-4.29.54-5.42-1.32s-.54-4.29,1.32-5.42l72.48-46.24-65.72,37.94c-1.92,1.02-4.31.28-5.33-1.64-.93-1.77-.4-3.96,1.25-5.09l47.85-30.39-40.01,23.1c-1.88,1.09-4.3.45-5.39-1.43-1.04-1.8-.51-4.1,1.22-5.25l82.41-55.37-69.56,40.16c-1.87,1.11-4.29.5-5.4-1.38-1.06-1.79-.55-4.1,1.17-5.27l64.22-44.71-45.16,26.07c-1.89,1.09-4.3.44-5.38-1.45-.98-1.7-.56-3.85.98-5.06l36.14-28.32c-1.56.17-3.06-.59-3.85-1.95-1.09-1.88-.45-4.29,1.43-5.38l44.94-25.94c1.9-1.07,4.3-.4,5.37,1.49.95,1.68.54,3.81-.97,5.02l-34.29,26.86,77.26-44.6c1.89-1.08,4.3-.43,5.38,1.46,1.01,1.77.51,4.02-1.16,5.19l-64.17,44.71,89.37-51.61c1.88-1.09,4.3-.45,5.39,1.43,1.04,1.8.51,4.1-1.22,5.25l-82.38,55.36,101.61-58.68c1.91-1.04,4.31-.33,5.34,1.59.97,1.78.42,4.01-1.26,5.15l-47.81,30.37,57.97-33.47c1.9-1.06,4.3-.38,5.36,1.52,1.01,1.8.45,4.08-1.27,5.22l-72.49,46.27,82.85-47.83c1.89-1.08,4.3-.42,5.38,1.48,1.03,1.81.47,4.11-1.27,5.25l-99.89,64.23,110.81-63.95c1.91-1.05,4.3-.36,5.35,1.55,1,1.81.43,4.08-1.3,5.21l-40.52,25.12,45.98-26.54c1.86-1.13,4.29-.53,5.41,1.34,1.13,1.86.53,4.29-1.34,5.41l-94.8,59.91,102.27-59.09c1.9-1.06,4.3-.39,5.37,1.51,1.02,1.81.45,4.11-1.3,5.24l-94.18,59.18,100.36-57.94c1.91-1.05,4.3-.36,5.35,1.55,1,1.81.43,4.08-1.3,5.21l-69.92,43.45,74.1-42.79c1.89-1.08,4.3-.42,5.38,1.47,1.05,1.85.45,4.19-1.36,5.31l-1.03.63,2.79-1.58c1.91-1.05,4.3-.35,5.35,1.55.99,1.8.43,4.05-1.28,5.19l-115.04,72.54,119.92-69.23c1.89-1.09,4.3-.44,5.38,1.45,1.06,1.84.47,4.18-1.32,5.31l-92.17,57.49,95.16-54.93c1.91-1.04,4.31-.33,5.34,1.59.98,1.8.41,4.06-1.31,5.18l-55.39,34.14,56.76-32.77c1.91-1.04,4.31-.33,5.34,1.59.97,1.79.41,4.03-1.28,5.16l-94.45,59,96.26-55.57c1.91-1.05,4.3-.36,5.35,1.55,1,1.81.43,4.08-1.3,5.21l-79.05,49.15,79.84-46.09c1.87-1.11,4.29-.5,5.4,1.37,1.11,1.87.5,4.29-1.37,5.4l-54.84,33.9,54.62-31.53c1.89-1.09,4.3-.44,5.38,1.45,1.06,1.84.47,4.18-1.32,5.31l-83.71,52.28,83.47-48.17c1.87-1.12,4.29-.51,5.41,1.36,1.12,1.87.51,4.29-1.36,5.41l-57.38,35.61,56.11-32.39c1.92-1.03,4.31-.3,5.34,1.61.95,1.77.41,3.97-1.24,5.11l-106.23,67.88,104.93-60.58c1.87-1.12,4.29-.52,5.41,1.34,1.12,1.87.52,4.29-1.34,5.41h0l-61.19,38.41,58.56-33.8c1.9-1.07,4.3-.4,5.37,1.5,1.03,1.83.45,4.14-1.32,5.26l-8.59,5.3,5.12-2.95c1.91-1.05,4.3-.36,5.35,1.55.98,1.78.45,4.01-1.23,5.16l-89.54,58.27,85.3-49.24c1.91-1.04,4.31-.33,5.35,1.58.96,1.77.44,3.98-1.22,5.12l-77.06,50.71,71.13-41.08c1.89-1.08,4.3-.42,5.38,1.47,1.02,1.78.49,4.05-1.2,5.2l-70.01,47.43,61.18-35.31c1.89-1.08,4.3-.42,5.38,1.47,1.01,1.77.5,4.03-1.18,5.2l-44.94,30.87,32.8-18.92c1.88-1.1,4.29-.47,5.39,1.4,1.04,1.77.55,4.04-1.13,5.22l-22.36,15.97,4.12-2.37c1.84-1.17,4.27-.63,5.44,1.21,1.17,1.84.63,4.27-1.21,5.44-.09.06-.19.11-.29.17l-74.66,43.11c-1.88,1.1-4.29.47-5.39-1.4-1.04-1.77-.55-4.04,1.13-5.22l22.38-15.98-49.55,28.56c-1.89,1.08-4.3.42-5.38-1.47-1.01-1.77-.5-4.03,1.18-5.2l44.94-30.86-68.78,39.73c-.6.35-1.28.53-1.97.53h0Z"/>
      <path class="cls-6" d="m296.15,318.39c-2.18,0-3.95-1.76-3.95-3.93,0-.92.32-1.81.9-2.52l11.99-14.64-26.43,15.26c-1.91,1.04-4.31.33-5.35-1.58-.85-1.56-.55-3.49.73-4.72l19.36-17.48-36.08,20.83c-1.9,1.06-4.3.39-5.37-1.51-.97-1.73-.5-3.91,1.09-5.1l10.88-8.03-24.9,14.36c-1.89,1.09-4.3.44-5.38-1.44-.99-1.71-.56-3.9,1.02-5.1l34.65-26.49-66.45,38.35c-1.89,1.08-4.3.43-5.38-1.46-.99-1.73-.53-3.93,1.07-5.12l55.85-41.11-74.56,43.05c-1.84,1.06-4.19.48-5.31-1.32-1.13-1.8-.63-4.17,1.14-5.36l39.08-26.47-40.02,23.09c-1.88,1.09-4.29.46-5.39-1.43-1.06-1.82-.5-4.15,1.27-5.29l7.74-5.04-6.46,3.72c-1.88,1.09-4.3.45-5.39-1.43-1.04-1.79-.52-4.08,1.19-5.24l38.5-26.33-36.84,21.29c-1.87,1.12-4.29.51-5.41-1.36-1.1-1.83-.54-4.21,1.27-5.35l6.88-4.53-3.47,1.99c-1.9,1.07-4.3.39-5.37-1.51-.96-1.71-.52-3.86,1.03-5.05l49.67-37.28-43.43,25.05c-1.89,1.09-4.3.44-5.38-1.45-1.02-1.76-.52-4.01,1.13-5.18l16.96-12.02-8.18,4.73c-1.89,1.09-4.3.44-5.38-1.45-.93-1.61-.6-3.66.78-4.9l21.88-19.59c-1.56.17-3.06-.59-3.85-1.95-1.09-1.88-.45-4.29,1.43-5.38l30.18-17.42c1.92-1.03,4.31-.31,5.34,1.61.83,1.55.53,3.47-.73,4.7l-20.69,18.57,48.19-27.81c1.89-1.09,4.3-.44,5.38,1.45,1.02,1.76.52,4.01-1.13,5.18l-16.93,11.98,27.08-15.63c1.9-1.07,4.3-.39,5.37,1.51.96,1.71.52,3.86-1.03,5.05l-49.67,37.28,62.56-36.1c1.85-1.15,4.28-.57,5.43,1.28,1.15,1.85.57,4.28-1.28,5.43l-6.9,4.54,10.34-5.99c1.86-1.13,4.28-.55,5.42,1.31,1.11,1.82.57,4.2-1.22,5.36l-38.51,26.36,43.2-24.94c1.89-1.08,4.3-.41,5.37,1.48,1.02,1.8.48,4.08-1.24,5.23l-7.68,5.01,9.07-5.23c1.87-1.11,4.29-.49,5.4,1.38,1.07,1.81.54,4.14-1.21,5.3l-39.07,26.46,40.99-23.69c1.89-1.08,4.3-.43,5.38,1.46.99,1.73.53,3.93-1.07,5.12l-55.84,41.14,57.75-33.35c1.89-1.09,4.3-.44,5.38,1.44.99,1.71.56,3.9-1.02,5.1l-34.69,26.49,33.27-19.2c1.89-1.08,4.3-.43,5.38,1.46.99,1.73.53,3.93-1.07,5.12l-10.85,7.99,7.18-4.15c1.91-1.04,4.31-.33,5.35,1.58.85,1.56.55,3.49-.73,4.72l-19.34,17.53,12.89-7.43c1.89-1.08,4.3-.43,5.38,1.46.81,1.42.67,3.19-.37,4.45l-12.2,14.88c1.74-.5,3.6.25,4.51,1.82,1.08,1.88.44,4.29-1.44,5.38l-17.66,10.2c-.6.35-1.28.54-1.97.54h0Z"/>
      <path class="cls-7" d="m253.15,308.31c-2.18,0-3.94-1.76-3.95-3.93,0-1.04.41-2.04,1.14-2.78l9.67-9.74-25.45,14.69c-1.88,1.09-4.3.45-5.39-1.44-.94-1.62-.61-3.68.8-4.92l21.81-19.35-30.75,17.75c-1.9,1.06-4.3.39-5.37-1.51-.94-1.67-.54-3.77.95-4.98l16.07-12.74-18.78,10.84c-1.91,1.05-4.3.35-5.35-1.55-.86-1.57-.56-3.52.73-4.75l26.69-24.19-27.51,15.82c-1.89,1.08-4.3.42-5.38-1.47-.97-1.7-.55-3.85.99-5.06l6.46-5-2.37,1.37c-1.88,1.1-4.29.46-5.39-1.42-.87-1.49-.67-3.36.49-4.63l14.25-15.77c-2.02.81-4.31-.18-5.12-2.2-.72-1.8-.02-3.85,1.64-4.84l21.15-12.21c1.89-1.09,4.3-.44,5.38,1.45.85,1.48.66,3.34-.49,4.61l-14.19,15.66,31.53-18.2c1.89-1.08,4.3-.42,5.38,1.47.97,1.7.55,3.85-.99,5.06l-6.46,4.99,8.62-4.97c1.91-1.05,4.3-.35,5.35,1.55.86,1.57.56,3.52-.73,4.75l-26.69,24.19,33.32-19.24c1.89-1.08,4.3-.42,5.38,1.47.96,1.68.55,3.81-.95,5.02l-16.06,12.73,17.88-10.33c1.88-1.09,4.3-.45,5.39,1.44.94,1.62.61,3.68-.8,4.92l-21.82,19.36,17.28-9.98c1.88-1.1,4.29-.46,5.39,1.42.9,1.55.65,3.51-.61,4.77l-11.66,11.75c2.17.22,3.74,2.16,3.52,4.32-.13,1.26-.85,2.38-1.94,3.01l-21.15,12.21c-.59.37-1.26.57-1.96.59h0Z"/>
      <path class="cls-6" d="m261.08,269.34c-2.18,0-3.94-1.77-3.94-3.94,0-1.04.41-2.04,1.15-2.78l1.74-1.74-6,3.45c-1.89,1.08-4.3.42-5.38-1.48-.82-1.45-.65-3.26.44-4.52l9.88-11.28-11.19,6.46c-1.89,1.08-4.3.43-5.38-1.46-.79-1.37-.68-3.08.28-4.34l6.31-8.32c-1.49.1-2.91-.66-3.64-1.96-1.08-1.88-.44-4.29,1.44-5.38l14.66-8.47c1.88-1.1,4.29-.46,5.39,1.42.81,1.38.7,3.12-.28,4.39l-5.61,7.44,14.77-8.52c1.89-1.08,4.3-.43,5.38,1.46.84,1.46.66,3.28-.45,4.55l-9.92,11.25,11.24-6.48c1.91-1.05,4.3-.35,5.35,1.56.83,1.52.58,3.4-.62,4.64l-3.3,3.3c2.18.05,3.9,1.85,3.86,4.03-.03,1.38-.78,2.64-1.97,3.33l-22.26,12.85c-.59.35-1.26.54-1.94.55Z"/>
      <g>
        <path class="cls-2" d="m245.06,151.03c-179.26-1.81-258.33,267.89-60.91,309.88-2.06,2.14-3.94,4.32-5.81,6.54-45.78-2.05-102.83,135.71-25.82,105.22-2.27,27.9,8.05,53.05,40.66,44.71,11.83-2.79,11.83-6.5,18.73-14.73,14.45-17.28,14.1-16.77,35.21-16.77,18.68,0,17.61,1.58,31.01,17.95,6.88,8.39,6.75,11.17,18.51,13.58,31.04,7.64,43.53-17.22,41.18-44.37,47.94,22.07,40.84-34.47,25.68-60.84-7.84-16.52-28.18-42.75-49.38-44.83-1.92-2.37-3.94-4.66-6.18-6.92,193.37-43.72,116.12-312.6-62.88-309.42h0Zm-119.36,386.54c4.55-26.02,21.32-48.28,45.09-59.81-17.03,24.34-16.07,55.69-17.94,85.72-17.91,10.38-31.38-7.31-27.14-25.91h0Zm215.39-44.94c14.88,15.28,24.11,35.18,26.17,56.41-9.51,16.82-19.29,21.75-29.32,14.78-2.37-29.11.13-60.25-14.86-84.35,6.57,3.56,12.63,8,18.01,13.19v-.03Zm-13.04,48.03c0,5.6.74,12.61,1.36,19.92-1.28,2.23-1.07,5.02.53,7.04,3.33,21.49-4.45,46.47-29.82,40.78-22.31-6.64-9.46-15.66-20.1-24.16-10.78-8.61-19.85-7.38-33.62-7.38-11.51,0-25.43-2.57-34.29,6.66-10.25,10.68-15.18,32.09-35.66,24.87-16.42-5.73-15.87-26.02-14.84-42.94.36-1.01.42-2.1.2-3.15.79-37.27.6-72.08,30.75-99.56,34.52,6.71,70.01,6.75,104.55.11,23.59,21.45,30.79,47.03,30.97,77.83l-.02-.03Zm-26.91-86.41c-1.34-.47-2.83-.09-3.79.95-33.71,7.81-68.72,8.08-102.55.79-.62-2.03-2.37-3.15-4.67-1.06C-2.11,411.9,70.74,159.87,244.82,160.69c172.58-1.14,246.95,249.64,56.33,293.57h0Z"/>
        <path class="cls-2" d="m244.62,183.62c-69.82,0-102.97,77.53-65.8,131.75-1.96.84-3.94,1.65-5.87,2.56-5.25,2.48-2.85,9.17,2.54,6.62,3.25-1.53,6.57-2.91,9.93-4.22,1.15-.03,2.26-.44,3.15-1.17,40.56-14.59,85.21-12.71,124.4,5.23,3.94,1.88,11.2-3.94,6.35-6.26-2.31-1.09-4.66-2.09-7.02-3.07,37.01-54.66,1.45-131.48-67.69-131.45h0Zm19.92,77.71c-8.27.22-15.15-6.31-15.37-14.58-.22-8.27,6.31-15.15,14.58-15.37.47-.01.94,0,1.41.03,8.27-.22,15.15,6.31,15.37,14.58.22,8.27-6.31,15.15-14.58,15.37-.47.01-.94,0-1.41-.03Zm-.13,9.37c5.37.07,10.59-1.78,14.7-5.23,4.41,29.17-35.35,46.28-56.81,27.03-25.89-19.84-9.29-64.12,22.74-59.68-7.67,14.03-.93,36.79,19.36,37.89h0Zm2.77,32.58c17.84-10.39,21.81-30.56,19.03-49.3,6.13-17.57-10.95-38.68-30.91-30.3-47.3-11.15-74.15,54.52-33.11,79.84-12.14,1.6-24.08,4.51-35.6,8.67-33.47-48.64-5.3-121.41,58.91-121.41s90.23,72.68,57.66,120.81c-11.66-4.05-23.72-6.84-35.97-8.32h0Z"/>
        <path class="cls-2" d="m301.5,356.95c-6.7.11-12.22-5.24-12.33-11.95,0-.28,0-.56.02-.84-.09-5.04-9.28-3.07-9.19,1.47.04,3.01.74,5.97,2.04,8.67-23.35,12.85-51.68,12.7-74.89-.39,1.41-2.93,2.18-6.13,2.26-9.39.12-6.19-7.15-4.67-7.25.74.04,2.09-.5,4.14-1.58,5.93-.63.35-1.11.91-1.36,1.58-2.5,2.12-5.68,3.26-8.96,3.21-4.49,0-5.52,9.33-.44,9.3,4.42-.01,8.69-1.6,12.05-4.46,26.44,16.59,60.01,16.73,86.58.35,4.38,2.66,13.6,5.86,16.41-.32.42-1.69-.61-3.4-2.3-3.82-.35-.09-.71-.11-1.06-.08h0Z"/>
        <path class="cls-2" d="m212.62,403.91c-3.86,2.37-2.94,11.21,2.05,8.1,18.76-10.4,41.58-10.29,60.22.32,3.89,2.42,7.67-6.22,3.64-8.73-20.53-11.38-45.5-11.26-65.91.32h0Z"/>
        <path class="cls-2" d="m193.56,551.01c-.28,5.38,8.38,2.13,8.62-2.3,3.05-56.66,83.05-52.09,85.98,2.3.3,5.46,8.86,2.17,8.62-2.3-3.62-67.18-99.7-62.86-103.23,2.3h0Z"/>
      </g>
    </g>
  </g>
  <g id="Capa_3" data-name="Capa 3">
    <g>
      <path class="cls-9" d="m480.77,122.97c0,48.77-75.81,150.63-227.2,150.63S26.33,171.74,26.33,122.97s63.37,33.19,225.08,33.19c161.85.09,229.35-81.96,229.35-33.19Z"/>
      <path class="cls-4" d="m253.57,279c-85.9,0-141.9-31.69-173.82-58.25-40.56-33.8-58.77-73.46-58.77-97.78,0-13.85,5.35-20.84,15.82-20.84,8.26,0,19.29,4.46,35.91,11.13,34.78,14.08,93.04,37.55,178.8,37.55s144.77-23.33,180.35-37.27c16.99-6.62,29.29-11.45,38.02-11.45,10.84,0,16.34,6.99,16.34,20.84,0,24.32-18.12,63.93-58.77,97.78-31.92,26.57-87.92,58.25-173.82,58.25l-.05.05ZM36.8,112.88c-2.35,0-5.02,0-5.02,10.09,0,21.73,16.95,57.88,54.87,89.52,30.56,25.44,84.31,55.77,166.97,55.77s136.41-30.32,166.97-55.77c37.93-31.64,54.87-67.74,54.87-89.52,0-10.09-2.86-10.09-5.59-10.09-6.71,0-18.82,4.74-34.08,10.7-36.38,14.22-97.12,38.02-184.29,38.02s-147.25-24.03-182.79-38.3c-14.36-5.77-25.72-10.37-31.92-10.37v-.05Z"/>
      <path class="cls-9" d="m296.48,7.4c-9.72,0-22.3,18.68-44.5,18.68s-35.77-18.68-47.36-18.68c-16.34,0-36,49.1-49.76,85.81-13.75,36.75-17.93,67.45-17.93,78.72,0,21.08,36.66,50.65,115.01,50.65s115.01-30.65,115.01-50.65c0-10.98-4.74-41.03-19.81-78.44-12.58-31.4-32.53-86.14-50.74-86.14l.09.05Z"/>
      <path class="cls-4" d="m252.02,227.97c-45.67,0-73.84-9.86-89.42-18.07-19.43-10.33-31.03-24.46-31.03-38.02,0-10.98,3.85-42.06,18.31-80.64C169.97,37.72,187.01,2.05,204.66,2.05c6.38,0,12.2,3.71,18.96,7.89,7.98,5.02,16.99,10.75,28.4,10.75s20.42-5.96,28.07-11.22c5.87-3.99,10.94-7.46,16.43-7.46,18.82,0,34.17,35.02,52.34,80.69,1.22,3.1,2.39,6.01,3.47,8.73,15.96,39.76,20.18,69.99,20.18,80.46,0,13.19-11.59,27.27-30.93,37.65-15.73,8.36-44.03,18.35-89.52,18.35l-.05.09ZM204.66,12.75c-1.78,0-8.5,1.88-21.08,26.19-8.59,16.62-16.8,37.69-23.71,56.09-12.96,34.41-17.6,64.83-17.6,76.84,0,7.32,6.62,18.59,25.3,28.54,14.55,7.7,40.93,16.85,84.4,16.85s69.8-9.34,84.4-17.18c18.68-10,25.3-21.45,25.3-28.16,0-11.31-5.21-40.93-19.43-76.42-1.13-2.77-2.25-5.73-3.52-8.82-6.2-15.58-13.85-34.92-21.92-50.04-11.45-21.55-18.07-23.85-20.42-23.85-2.21,0-6.34,2.86-10.37,5.59-8.07,5.49-19.11,13.1-34.08,13.1s-25.35-6.85-34.08-12.44c-4.98-3.24-9.76-6.34-13.1-6.34l-.09.05Z"/>
      <g>
        <path class="cls-4" d="m252.02,194.6c-68.11,0-104.73-22.44-113.13-42.06-1.36,8.59-1.88,15.3-1.88,19.34,0,21.08,36.66,50.65,115.01,50.65s115.01-30.65,115.01-50.65c0-3.99-.66-10.56-2.21-19.06-8.82,19.11-45.39,41.78-112.85,41.78h.05Z"/>
        <path class="cls-4" d="m252.02,227.97c-45.67,0-73.84-9.86-89.42-18.07-19.43-10.33-31.03-24.46-31.03-38.02,0-4.98.66-12.11,1.97-20.18.38-2.35,2.25-4.22,4.65-4.51s4.65,1.03,5.59,3.24c7.98,18.68,45.25,38.87,108.2,38.87s99.37-20.04,108.01-38.68c.99-2.11,3.24-3.33,5.59-3.1,2.35.28,4.22,2.02,4.6,4.37,1.41,8.07,2.25,15.21,2.25,20.04,0,13.19-11.59,27.27-30.93,37.65-15.68,8.45-43.98,18.45-89.42,18.45l-.05-.05Zm-109.51-60.69c-.14,1.74-.14,3.33-.14,4.65,0,7.32,6.62,18.59,25.3,28.54,14.55,7.7,40.93,16.85,84.4,16.85s69.8-9.34,84.4-17.18c18.68-10,25.3-21.45,25.3-28.16,0-1.41-.09-3.15-.23-5.02-17.23,17.84-54.36,33.14-109.47,33.14-58.39-.09-93.37-15.82-109.51-32.81h-.05Z"/>
      </g>
      <path class="cls-4" d="m364.92,158.92c-1.36,2.77-2.77,5.59-4.74,8.07-2.58,3.1-5.26,5.96-8.36,8.5-6.38,5.35-13.57,9.58-21.08,13-15.58,7.14-32.58,10.84-49.52,12.86-17.56,2.11-35.44,2.11-53.09.61-16.95-1.41-34.45-4.74-50.23-11.31-8.36-3.47-16.85-7.51-23.85-13.33-3.47-2.86-6.76-5.87-9.62-9.39-2.35-2.86-3.99-6.01-5.49-9.34,3.38,5.87,7.6,11.08,13.1,15.07,6.48,4.74,13.33,8.45,20.7,11.59,15.44,6.57,32.53,9.86,49.15,11.59,17.46,1.78,35.02,1.97,52.53.75,8.64-.61,17.32-1.74,25.72-3.38,8.07-1.64,16.19-3.52,23.94-6.38,8.5-3.15,17.18-6.71,24.6-12.06,3.61-2.58,6.99-5.35,10.09-8.59,2.39-2.58,4.27-5.35,6.1-8.26h.05Z"/>
      <path class="cls-4" d="m325.39,75.13c-8.73.38-16.34-4.6-21.83-11.08-6.48-7.6-10.14-17.6-10.61-27.55-.23-4.6.38-9.25,2.11-13.47,3.61,7.46,6.38,15.21,10,22.67,3.47,7.23,7.32,14.13,12.06,20.61,2.49,3.33,5.49,5.96,8.26,8.82Z"/>
      <path class="cls-4" d="m175.6,75.13c1.41-1.41,2.96-2.77,4.27-4.27,1.78-2.02,3.52-4.22,5.02-6.48,2.96-4.27,5.59-8.97,7.84-13.61,2.39-4.98,4.74-10.09,6.95-15.12,1.78-4.13,3.38-8.5,5.35-12.58,3.38,8.07,2.72,17.98-.09,26.1-3.1,9.11-8.5,17.37-16.8,22.58-3.85,2.39-8.12,3.52-12.58,3.38h.05Z"/>
      <path class="cls-4" d="m43.65,136.96c9.01,23.1,26.71,41.31,45.16,57.36,19.67,17.09,41.68,31.17,64.59,43.51,10.56,5.73,21.55,10.61,32.44,15.49-24.41-4.37-47.65-13.85-68.82-26.8-22.67-13.85-43.75-31.69-58.77-53.75-7.32-10.84-12.86-22.81-14.6-35.82Z"/>
      <path class="cls-4" d="m461.29,136.96c-3.15,24.41-19.81,45.53-37.18,61.96-19.48,18.35-42.53,33.19-67.31,43.37-12.2,4.98-24.78,8.73-37.69,10.98,21.55-9.48,42.43-20.09,62.2-32.95,21.69-14.13,42.39-30.46,59.33-50.13,8.64-10,15.87-20.84,20.7-33.19l-.05-.05Z"/>
      <path class="cls-4" d="m223.9,49.08c8.97,4.27,17.84,8.64,28.02,8.64s19.2-4.37,28.16-8.64c-4.51,8.45-13.85,14.55-23.19,15.96-7.98,1.22-16.19-.66-22.91-5.21-3.99-2.72-7.84-6.38-10.09-10.75Z"/>
      <path class="cls-10" d="m284.36,148.41c-.66,0-1.27.23-1.78.52l-8.59-14.93,8.59-14.93c.52.28,1.13.52,1.78.52,2.02,0,3.71-1.64,3.71-3.71s-1.64-3.71-3.71-3.71-3.71,1.64-3.71,3.71h-17.23l-9.11-15.82c1.13-.61,1.88-1.78,1.88-3.15,0-2.02-1.64-3.71-3.71-3.71s-3.71,1.64-3.71,3.71c0,1.36.75,2.58,1.88,3.15l-9.11,15.82h-17.23c0-2.02-1.64-3.71-3.71-3.71s-3.71,1.64-3.71,3.71,1.64,3.71,3.71,3.71c.66,0,1.27-.23,1.78-.52l8.59,14.93-8.59,14.93c-.52-.28-1.13-.52-1.78-.52-2.02,0-3.71,1.64-3.71,3.71s1.64,3.71,3.71,3.71,3.71-1.64,3.71-3.71h17.23l9.11,15.82c-1.13.61-1.88,1.78-1.88,3.15,0,2.02,1.64,3.71,3.71,3.71s3.71-1.64,3.71-3.71c0-1.36-.75-2.58-1.88-3.15l9.11-15.82h17.23c0,2.02,1.64,3.71,3.71,3.71s3.71-1.64,3.71-3.71-1.64-3.71-3.71-3.71Z"/>
      <g>
        <path class="cls-4" d="m365.06,144.94c-6.76,6.34-13.85,12.06-21.92,16.71-8.87,5.12-18.54,8.97-28.4,11.69-4.27,1.13-8.64,2.21-13,2.63,8.36-2.25,16.48-6.2,24.03-10.47,8.36-4.83,16.1-10.75,22.91-17.6,3.1-3.15,5.77-6.71,8.5-10.14,2.58,2.39,5.26,4.83,7.89,7.23v-.05Z"/>
        <path class="cls-4" d="m361.91,132.87c-6.38,5.87-13.1,10.94-20.79,15.07-6.85,3.71-14.22,6.57-21.73,8.59-3.33.89-6.76,1.74-10.23,2.21,9.01-2.96,17.7-7.84,25.35-13.38,3.61-2.63,7.09-5.49,10.23-8.64,3.38-3.47,6.38-7.09,9.25-10.98,2.58,2.39,5.26,4.83,7.89,7.23l.05-.09Z"/>
        <path class="cls-4" d="m358.77,120.86c-11.88,10.33-26.43,18.07-42.15,20.47,6.62-2.72,12.96-6.62,18.59-11.08,6.1-4.83,11.13-10.37,15.68-16.71,2.63,2.49,5.26,4.88,7.89,7.32Z"/>
        <path class="cls-4" d="m355.57,108.79c-9.2,7.37-19.95,12.96-31.64,15.21,9.62-5.35,17.7-13.24,23.66-22.44,2.72,2.49,5.35,4.83,7.98,7.23Z"/>
        <path class="cls-4" d="m352.48,96.73c-6.48,4.46-13.47,7.89-21.08,9.95,5.35-4.88,9.62-10.7,13-17.09,2.63,2.39,5.35,4.74,8.07,7.14Z"/>
      </g>
      <g>
        <path class="cls-4" d="m146.22,137.71c5.26,6.76,10.94,12.96,17.6,18.35,7.75,6.24,16.43,11.31,25.44,15.35,3.99,1.78,8.12,3.47,12.35,4.6-8.64-.99-17.23-3.61-25.35-6.71-9.72-3.71-18.92-8.82-27.18-14.97-3.85-2.86-7.32-6.1-10.75-9.39,2.63-2.39,5.26-4.83,7.89-7.23Z"/>
        <path class="cls-4" d="m149.41,125.64c2.96,3.85,5.87,7.51,9.25,10.98,3.15,3.15,6.62,6.01,10.23,8.64,7.6,5.59,16.34,10.47,25.35,13.38-15.12-1.97-30.04-8.59-42.53-17.23-3.71-2.58-6.95-5.49-10.23-8.5,2.63-2.49,5.26-4.88,7.89-7.32l.05.05Z"/>
        <path class="cls-4" d="m152.55,113.63c4.51,6.34,9.58,11.88,15.68,16.71,5.63,4.46,11.97,8.36,18.59,11.08-15.73-2.39-30.28-10.14-42.15-20.47,2.63-2.49,5.26-4.88,7.89-7.32Z"/>
        <path class="cls-4" d="m155.7,101.66c6.01,9.2,13.99,17.09,23.66,22.44-11.69-2.25-22.44-7.84-31.64-15.21,2.63-2.49,5.35-4.83,7.98-7.23Z"/>
        <path class="cls-4" d="m158.89,89.59c3.38,6.38,7.7,12.2,13,17.09-7.6-2.02-14.6-5.59-21.08-9.95,2.72-2.39,5.4-4.74,8.07-7.14Z"/>
      </g>
      <g>
        <polygon class="cls-4" points="137.86 165.12 90.92 142.31 141.57 155.03 137.86 165.12"/>
        <polygon class="cls-4" points="135.19 179.86 109.42 161.41 139.93 170.24 135.19 179.86"/>
        <polygon class="cls-4" points="361.82 155.03 412.51 142.31 365.53 165.12 361.82 155.03"/>
        <polygon class="cls-4" points="363.51 170.24 393.97 161.41 368.15 179.86 363.51 170.24"/>
      </g>
    </g>
  </g>
</svg>