<?xml version="1.0" encoding="UTF-8"?>
<svg xmlns="http://www.w3.org/2000/svg" viewBox="0 0 500 575">
  <defs>
    <style>
      .cls-1 {
        fill: #4d4d4d;
      }

      .cls-1, .cls-2, .cls-3, .cls-4, .cls-5, .cls-6, .cls-7, .cls-8, .cls-9, .cls-10, .cls-11, .cls-12, .cls-13, .cls-14, .cls-15 {
        stroke-width: 0px;
      }

      .cls-2 {
        fill: #262626;
      }

      .cls-3 {
        fill: #e384b0;
      }

      .cls-4 {
        fill: #ffb5e9;
      }

      .cls-5 {
        fill: #8486d0;
      }

      .cls-6 {
        fill: #4ce0c8;
      }

      .cls-7 {
        fill: #241816;
      }

      .cls-8 {
        fill: #416b80;
      }

      .cls-9 {
        fill: #9e9ceb;
      }

      .cls-10 {
        fill: #fff;
      }

      .cls-11 {
        fill: #5da0ff;
      }

      .cls-12 {
        fill: #dee3d7;
      }

      .cls-13 {
        fill: #e2e6eb;
      }

      .cls-14 {
        fill: #f2f1eb;
      }

      .cls-15 {
        fill: #e7d8b4;
      }
    </style>
  </defs>
  <g id="Capa_1" data-name="Capa 1">
    <g>
      <path class="cls-15" d="m250,573c-66.51,0-129.04-25.9-176.07-72.93C26.9,453.04,1,390.51,1,324s25.9-129.04,72.93-176.07c47.03-47.03,109.56-72.93,176.07-72.93s129.04,25.9,176.07,72.93c47.03,47.03,72.93,109.56,72.93,176.07s-25.9,129.04-72.93,176.07c-47.03,47.03-109.56,72.93-176.07,72.93Z"/>
      <path class="cls-7" d="m250,76c33.48,0,65.96,6.56,96.53,19.49,29.53,12.49,56.05,30.37,78.83,53.15,22.78,22.78,40.66,49.3,53.15,78.83,12.93,30.57,19.49,63.05,19.49,96.53s-6.56,65.96-19.49,96.53c-12.49,29.53-30.37,56.05-53.15,78.83-22.78,22.78-49.3,40.66-78.83,53.15-30.57,12.93-63.05,19.49-96.53,19.49s-65.96-6.56-96.53-19.49c-29.53-12.49-56.05-30.37-78.83-53.15-22.78-22.78-40.66-49.3-53.15-78.83-12.93-30.57-19.49-63.05-19.49-96.53s6.56-65.96,19.49-96.53c12.49-29.53,30.37-56.05,53.15-78.83s49.3-40.66,78.83-53.15c30.57-12.93,63.05-19.49,96.53-19.49m0-2C111.93,74,0,185.93,0,324s111.93,250,250,250,250-111.93,250-250-111.93-250-250-250h0Z"/>
    </g>
  </g>
  <g id="Capa_2" data-name="Capa 2">
    <g>
      <g>
        <path class="cls-5" d="m85.22,410.13c-1.8,0-3.26-1.46-3.26-3.25,0-.76.26-1.49.74-2.07l12.08-14.72-24.94,14.4c-1.55.9-3.55.38-4.45-1.18-.79-1.37-.49-3.11.72-4.13l19.78-16.71-23.28,13.43c-1.54.93-3.54.44-4.47-1.1-.88-1.46-.49-3.35.9-4.34l16.76-12.37-14.9,8.61c-1.55.9-3.55.37-4.45-1.18-.86-1.48-.43-3.37.99-4.33l6.03-4.11c-1.62.77-3.57.09-4.34-1.54-.7-1.48-.2-3.24,1.17-4.13l9.3-6.18-1.18.68c-1.57.88-3.55.32-4.43-1.25-.82-1.47-.38-3.33,1.01-4.28l7.61-5.01c-1.18.11-2.33-.46-2.96-1.46-.95-1.44-.62-3.37.76-4.4l43.71-32.69-23.63,13.63c-1.56.89-3.55.35-4.44-1.21-.81-1.42-.45-3.22.86-4.21l31.52-23.75c-1.74-.45-2.78-2.23-2.33-3.97.22-.84.77-1.56,1.52-2l37.55-21.7c1.57-.88,3.55-.32,4.43,1.25.79,1.41.43,3.18-.85,4.17l-25.45,19.18,25.03-14.44c1.56-.9,3.55-.36,4.45,1.19.82,1.43.45,3.24-.87,4.23l-43.69,32.67,41.81-24.16c1.57-.88,3.55-.32,4.43,1.25.82,1.47.38,3.33-1.01,4.28l-5.47,3.61c1.76-.36,3.48.78,3.84,2.54.27,1.3-.29,2.64-1.4,3.37l-22.99,15.25c1.72.51,2.71,2.32,2.2,4.04-.21.72-.67,1.35-1.29,1.77l-13.48,9.19c1.78.24,3.03,1.88,2.79,3.66-.12.88-.59,1.68-1.31,2.2l-16.73,12.37,4.6-2.65c1.56-.89,3.55-.35,4.44,1.22.77,1.36.47,3.07-.71,4.08l-19.78,16.72,8.85-5.12c1.56-.9,3.55-.37,4.45,1.19.68,1.17.56,2.65-.3,3.7l-12.09,14.73.38-.21c1.52-.96,3.53-.52,4.49,1,.96,1.52.52,3.53-1,4.49-.08.05-.16.09-.24.14l-15.86,9.16c-.49.29-1.06.44-1.63.44h0Z"/>
        <path class="cls-5" d="m107.96,520.36c-1.8,0-3.25-1.46-3.25-3.26,0-.88.36-1.72.99-2.34l4.08-3.94-11.5,6.63c-1.58.86-3.56.27-4.41-1.31-.7-1.29-.45-2.89.61-3.9l13.48-12.13-17.75,10.21c-1.56.88-3.55.33-4.44-1.23-.78-1.38-.45-3.12.77-4.12l13.92-11.18-13.42,7.74c-1.55.91-3.54.39-4.46-1.16-.81-1.38-.5-3.15.74-4.17l25.25-20.91-19.59,11.33c-1.55.91-3.54.4-4.46-1.15-.83-1.4-.49-3.2.79-4.21l30.33-24.45-22.34,12.88c-1.56.9-3.55.37-4.45-1.19-.83-1.44-.45-3.27.89-4.25l18.47-13.57-10.36,5.98c-1.58.86-3.56.27-4.41-1.31-.73-1.34-.42-3.01.73-4.01l31.64-25.02-18.62,10.7c-1.56.89-3.55.35-4.44-1.22-.77-1.36-.47-3.07.71-4.08l26.65-22.62-6.95,4.01c-1.57.88-3.55.33-4.43-1.23-.74-1.31-.49-2.95.61-3.97l25.81-23.7c-.67-1.52-.09-3.3,1.35-4.13l8.84-5.11c1.57-.88,3.55-.33,4.43,1.23.74,1.31.49,2.95-.61,3.97l-13.57,12.54,12.57-7.25c1.57-.88,3.55-.32,4.43,1.25.75,1.34.46,3.03-.7,4.04l-26.64,22.61,25.95-14.97c1.55-.91,3.55-.38,4.45,1.17.82,1.4.48,3.2-.8,4.2l-31.65,25.04,23.44-13.53c1.56-.9,3.55-.37,4.45,1.19.83,1.44.45,3.27-.89,4.25l-18.51,13.51,6.94-4c1.56-.88,3.55-.33,4.44,1.23.78,1.38.45,3.12-.77,4.12l-30.32,24.46,16.8-9.7c1.56-.88,3.55-.33,4.44,1.23.77,1.36.46,3.08-.73,4.09l-25.23,20.9,16.68-9.63c1.56-.9,3.55-.37,4.45,1.19.81,1.39.47,3.16-.78,4.17l-13.96,11.21,7.84-4.56c1.58-.86,3.56-.27,4.41,1.31.7,1.29.45,2.89-.61,3.9l-13.49,12.13,7.6-4.38c1.55-.92,3.54-.41,4.46,1.14.77,1.3.54,2.97-.55,4.02l-4.73,4.56c1.78-.27,3.44.96,3.7,2.74.2,1.32-.43,2.63-1.59,3.3l-21.13,12.28c-.49.29-1.06.44-1.63.43h0Z"/>
        <path class="cls-5" d="m404.85,409.14c-1.8,0-3.25-1.46-3.25-3.26,0-.85.34-1.68.94-2.28l12.52-12.69-18.29,10.56c-1.56.9-3.55.36-4.45-1.2-.78-1.35-.49-3.07.7-4.09l9.58-8.25-9.45,5.46c-1.56.89-3.55.34-4.44-1.22-.78-1.37-.47-3.1.75-4.11l5.79-4.77-4.77,2.75c-1.56.9-3.55.37-4.45-1.19-.75-1.3-.52-2.95.57-3.99l13.94-13.23-14.06,8.1c-1.58.85-3.56.25-4.41-1.33-.69-1.28-.44-2.87.61-3.88l9.76-8.78-9.64,5.57c-1.57.87-3.55.31-4.43-1.26-.7-1.26-.49-2.83.52-3.86l12.79-12.69-13.76,7.94c-1.56.89-3.55.35-4.44-1.22-.72-1.26-.52-2.84.49-3.87l12.06-12.37-13.87,8.01c-1.56.9-3.55.37-4.45-1.19-.7-1.22-.55-2.75.39-3.8l12.51-14.03-15.99,9.23c-1.55.92-3.54.41-4.46-1.14-.77-1.3-.54-2.97.55-4.02l7.84-7.6-10.42,6c-1.57.88-3.55.33-4.43-1.23-.74-1.31-.49-2.95.61-3.97l5.12-4.71-7.71,4.45c-1.56.9-3.55.36-4.45-1.2-.7-1.22-.54-2.76.4-3.8l10.27-11.39-16.98,9.81c-1.56.89-3.55.35-4.44-1.21-.68-1.19-.54-2.68.35-3.73l11.32-13.14-11.2,6.46c-1.56.89-3.55.35-4.44-1.2-.69-1.21-.54-2.72.37-3.76l5.77-6.56-4.28,2.47c-1.56.9-3.55.37-4.45-1.19-.51-.88-.58-1.94-.19-2.88l6.05-14.54c-.12-.15-.22-.3-.31-.46-.9-1.56-.37-3.55,1.18-4.45l2.5-1.44c1.56-.9,3.55-.37,4.45,1.19.51.88.58,1.94.19,2.88l-4.35,10.45,13.12-7.58c1.56-.89,3.55-.35,4.44,1.2.69,1.21.54,2.72-.37,3.76l-5.77,6.55,10.62-6.13c1.56-.9,3.55-.36,4.45,1.19.69,1.2.55,2.7-.35,3.75l-11.33,13.15,18.23-10.52c1.56-.9,3.55-.36,4.45,1.2.7,1.22.54,2.76-.4,3.8l-10.27,11.39,15.53-8.96c1.57-.88,3.55-.33,4.43,1.23.74,1.31.49,2.95-.61,3.97l-5.14,4.71,7.57-4.37c1.42-.82,3.24-.45,4.22.86.99,1.31.84,3.15-.34,4.3l-7.81,7.58,10.69-6.16c1.56-.9,3.55-.37,4.45,1.19.7,1.22.55,2.75-.39,3.8l-12.53,14.05,16.81-9.71c1.56-.89,3.55-.35,4.44,1.22.72,1.26.52,2.84-.49,3.87l-12.05,12.37,14.97-8.66c1.57-.87,3.55-.31,4.43,1.26.7,1.26.49,2.83-.52,3.86l-12.74,12.66,15.02-8.67c1.58-.85,3.56-.25,4.41,1.33.69,1.28.44,2.87-.61,3.88l-9.8,8.79,10.72-6.18c1.52-.96,3.53-.5,4.49,1.02.85,1.36.59,3.13-.62,4.19l-13.93,13.23,15.12-8.72c1.56-.89,3.55-.34,4.44,1.22.78,1.37.47,3.1-.75,4.11l-5.77,4.75,5.3-3.06c1.56-.9,3.55-.36,4.45,1.2.78,1.35.49,3.07-.7,4.09l-9.61,8.27,9.19-5.3c1.56-.9,3.55-.36,4.45,1.19.73,1.27.53,2.87-.5,3.91l-12.52,12.69,10.47-6.05c1.56-.89,3.55-.34,4.44,1.22.88,1.55.35,3.52-1.18,4.42l-31.33,18.08c-.48.27-1.03.41-1.58.41h0Z"/>
        <path class="cls-5" d="m380.81,520.2c-1.8,0-3.25-1.47-3.24-3.27,0-.93.41-1.82,1.11-2.44l5.07-4.52-9.83,5.67c-1.56.9-3.55.37-4.45-1.19-.77-1.34-.5-3.03.65-4.06l11.81-10.51-13.67,7.9c-1.58.86-3.56.27-4.41-1.31-.7-1.29-.45-2.89.61-3.9l15.42-13.87-13.76,7.94c-1.56.89-3.55.34-4.44-1.22-.78-1.37-.47-3.1.75-4.11l7.4-6.12-5.08,2.93c-1.54.92-3.54.42-4.46-1.12-.8-1.33-.54-3.04.61-4.09l14.97-14.06-13.27,7.66c-1.56.89-3.55.35-4.44-1.21-.79-1.39-.46-3.15.79-4.15l1.25-1c-1.75.42-3.51-.66-3.93-2.4-.27-1.12.07-2.3.9-3.1l12.83-12.43-12.06,6.93c-1.58.87-3.55.29-4.42-1.28-.71-1.29-.46-2.91.61-3.93l7.87-7.12-7.13,4.11c-1.56.89-3.55.35-4.44-1.21-.71-1.24-.53-2.8.45-3.84l12-12.66-12.98,7.49c-1.56.9-3.55.37-4.45-1.18-.72-1.24-.54-2.81.44-3.85l10.86-11.63-12.77,7.38c-1.56.89-3.55.35-4.44-1.22-.68-1.19-.54-2.69.36-3.73l11.14-12.82-12.07,6.97c-1.56.9-3.55.37-4.45-1.19-.68-1.18-.56-2.65.31-3.7l9.35-11.33-8.31,4.8c-1.31.76-2.96.51-4-.59-1.04-1.1-1.18-2.76-.35-4.02l7.12-10.81-2.14,1.23c-1.56.9-3.55.36-4.44-1.2-.48-.84-.57-1.85-.23-2.76l4.04-10.77c-.06-.09-.12-.18-.18-.27-.9-1.56-.37-3.55,1.19-4.45l1.95-1.14c1.56-.89,3.55-.35,4.44,1.2.48.84.56,1.85.22,2.76l-2.42,6.46,6.18-3.57c1.56-.9,3.55-.37,4.45,1.18.62,1.07.58,2.39-.1,3.42l-7.1,10.8,12-6.93c1.56-.9,3.55-.37,4.45,1.19.68,1.18.56,2.65-.31,3.7l-9.31,11.32,13.33-7.7c1.56-.9,3.55-.36,4.44,1.2.69,1.2.55,2.71-.36,3.75l-11.15,12.82,14.86-8.57c1.56-.89,3.55-.35,4.44,1.21.71,1.24.53,2.79-.44,3.83l-10.87,11.63,13.47-7.77c1.56-.9,3.55-.37,4.45,1.19.72,1.25.54,2.82-.45,3.86l-12.03,12.66,14.17-8.19c1.58-.86,3.56-.27,4.41,1.31.7,1.29.45,2.89-.61,3.9l-7.88,7.13,8.36-4.82c1.42-.82,3.24-.45,4.22.86.99,1.31.84,3.15-.34,4.3l-12.79,12.44,13.76-7.94c1.57-.88,3.55-.32,4.43,1.25.77,1.38.44,3.12-.78,4.12l-.65.53c1.66-.7,3.57.08,4.27,1.73.53,1.25.22,2.7-.76,3.63l-14.97,14.07,15.1-8.72c1.56-.89,3.55-.34,4.44,1.22.78,1.37.47,3.1-.75,4.11l-7.47,6.13,6.23-3.6c1.58-.86,3.56-.27,4.41,1.31.7,1.29.45,2.89-.61,3.9l-15.4,13.86,14.32-8.26c1.56-.9,3.55-.37,4.45,1.19.77,1.34.5,3.03-.65,4.06l-11.82,10.53,9.93-5.73c1.56-.89,3.55-.34,4.44,1.22.76,1.33.49,3-.65,4.03l-5.08,4.56,1.67-.96c1.52-.96,3.53-.52,4.49,1,.96,1.52.52,3.53-1,4.49-.08.05-.16.09-.24.14l-29.24,16.88c-.5.28-1.06.43-1.63.43h0Z"/>
      </g>
      <path class="cls-9" d="m315.29,559.87c-1.8,0-3.26-1.46-3.26-3.25,0-.9.38-1.77,1.04-2.38l2.43-2.25-12.75,7.36c-1.56.9-3.55.37-4.45-1.19-.77-1.34-.5-3.03.65-4.06l14.13-12.62-22.06,12.73c-1.56.89-3.55.34-4.44-1.22-.8-1.41-.44-3.2.85-4.19l7.62-5.77-8.5,4.9c-1.53.94-3.54.47-4.48-1.07-.9-1.47-.51-3.39.91-4.38l6.3-4.63-4.8,2.77c-1.55.91-3.54.39-4.46-1.16-.83-1.41-.48-3.22.81-4.22l20.26-15.94-18.92,10.92c-1.56.88-3.55.33-4.44-1.23-.78-1.38-.45-3.12.77-4.12l25.49-20.54-24.44,14.11c-1.55.9-3.55.38-4.45-1.18-.83-1.43-.46-3.27.88-4.25l15.84-11.78-14.4,8.31c-1.56.9-3.55.37-4.45-1.19-.83-1.44-.45-3.27.89-4.25l14.97-10.98-16.85,9.73c-1.57.88-3.55.33-4.43-1.23-.8-1.42-.43-3.2.86-4.19l23.88-17.8-36.73,21.19c-1.57.87-3.55.31-4.43-1.26-.79-1.42-.41-3.21.89-4.19l34.72-25.24-53.24,30.73c-1.52.96-3.53.52-4.49-1-.96-1.52-.52-3.53,1-4.49.08-.05.16-.09.24-.14l106.89-61.71c1.56-.89,3.55-.34,4.44,1.22.82,1.43.43,3.25-.9,4.23l-34.74,25.26,31.2-18.01c1.57-.88,3.55-.33,4.43,1.23.8,1.42.43,3.2-.86,4.19l-23.88,17.8,20.29-11.72c1.56-.9,3.55-.37,4.45,1.19.83,1.44.45,3.27-.89,4.25l-14.97,11,11.43-6.6c1.55-.9,3.55-.38,4.45,1.18.83,1.43.46,3.27-.88,4.25l-15.86,11.8,12.29-7.09c1.56-.88,3.55-.33,4.44,1.23.78,1.38.45,3.12-.77,4.12l-25.47,20.52,21.81-12.58c1.57-.88,3.55-.33,4.43,1.24.78,1.39.44,3.13-.79,4.13l-20.26,15.95,16.62-9.6c1.56-.9,3.55-.37,4.45,1.19.83,1.44.45,3.27-.89,4.25l-6.3,4.63,2.75-1.55c1.57-.88,3.55-.31,4.43,1.26.78,1.4.43,3.17-.84,4.15l-7.62,5.77,4.04-2.33c1.56-.9,3.55-.37,4.45,1.19.77,1.34.5,3.03-.65,4.06l-14.11,12.59,10.32-5.96c1.55-.91,3.54-.4,4.46,1.15.78,1.33.53,3.02-.61,4.06l-3.55,3.3c1.24-.11,2.42.53,3.01,1.62.9,1.56.37,3.55-1.19,4.45l-22.34,12.86c-.49.3-1.05.45-1.63.46h0Z"/>
      <path class="cls-9" d="m175.1,559.8c-1.8,0-3.25-1.46-3.25-3.26,0-.96.43-1.87,1.16-2.49l12.82-10.77-20.28,11.72c-1.57.87-3.55.31-4.43-1.27-.78-1.4-.42-3.15.83-4.14l14.15-10.77-15.89,9.18c-1.54.93-3.54.44-4.47-1.1s-.44-3.54,1.1-4.47h0l40.23-25.39-38.57,22.26c-1.55.9-3.55.38-4.45-1.18-.87-1.5-.41-3.43,1.05-4.37l81.93-53.46-78.52,45.33c-1.56.89-3.55.35-4.44-1.21-.86-1.5-.39-3.42,1.07-4.35l58.12-37.11-54.75,31.61c-1.55.91-3.55.39-4.45-1.16-.89-1.51-.41-3.46,1.07-4.4l68.35-43.97-64.95,37.5c-1.58.87-3.55.29-4.42-1.28-.81-1.48-.36-3.33,1.04-4.27l67.49-43.39-64.12,37.02c-1.59.85-3.56.25-4.4-1.34-.79-1.47-.33-3.3,1.05-4.23l43.99-27.8-40.63,23.44c-1.56.89-3.55.35-4.44-1.21-.86-1.5-.39-3.42,1.07-4.35l58.59-37.37-55.22,31.87c-1.58.87-3.55.29-4.42-1.28-.81-1.48-.36-3.33,1.04-4.27l67.55-43.44-64.17,37.05c-1.55.9-3.55.38-4.45-1.18-.87-1.5-.41-3.43,1.05-4.37l81.46-53.13-78.06,45.07c-1.57.88-3.55.32-4.43-1.25-.83-1.49-.37-3.37,1.05-4.31l61.53-39.36-58.15,33.57c-1.56.89-3.55.34-4.44-1.22-.85-1.49-.39-3.39,1.05-4.33l74.79-48.43-71.4,41.22c-1.57.88-3.55.32-4.43-1.25-.84-1.5-.37-3.39,1.07-4.32l40.54-25.56-37.18,21.48c-1.58.86-3.56.27-4.41-1.31-.8-1.48-.34-3.33,1.06-4.26l34.33-21.57-30.97,17.86c-1.59.84-3.56.24-4.4-1.35-.77-1.45-.34-3.24,1-4.19l84.72-55.48-81.32,46.96c-1.59.84-3.56.23-4.4-1.36-.77-1.46-.33-3.27,1.03-4.2l49.02-31.08-45.65,26.36c-1.57.87-3.55.29-4.42-1.28-.81-1.47-.37-3.31,1.02-4.26l80.63-52.54-77.23,44.59c-1.57.88-3.55.32-4.43-1.25-.84-1.5-.37-3.39,1.07-4.32l40.26-25.39-36.9,21.3c-1.57.88-3.55.33-4.43-1.24-.85-1.51-.37-3.42,1.09-4.35l12.17-7.57-8.83,5.09c-1.59.84-3.56.23-4.4-1.36-.77-1.47-.32-3.28,1.05-4.21l19.86-12.42-16.52,9.53c-1.58.85-3.56.25-4.41-1.33-.78-1.46-.34-3.28,1.03-4.22l56.64-36.32-53.26,30.73c-1.56.9-3.55.36-4.45-1.19-.88-1.52-.39-3.46,1.09-4.39l22.04-13.85-18.68,10.79c-1.58.86-3.56.27-4.41-1.31-.8-1.48-.34-3.33,1.06-4.26l14.59-9.15-11.24,6.51c-1.57.88-3.55.32-4.43-1.25-.82-1.47-.39-3.32.99-4.27l77.3-51.9-73.87,42.63c-1.58.85-3.56.25-4.41-1.33-.77-1.44-.36-3.22.96-4.18l69.56-46.96-66.11,38.2c-1.55.9-3.55.38-4.45-1.18-.87-1.5-.41-3.42,1.05-4.37l39.49-25.82-36.08,20.83c-1.6.81-3.56.17-4.37-1.43-.72-1.42-.31-3.15.98-4.1l26.11-17-22.71,13.09c-1.57.87-3.55.29-4.42-1.28-.79-1.44-.39-3.25.95-4.21l44.51-30.64-39.87,23.02c-1.56.9-3.55.37-4.45-1.18-.87-1.49-.42-3.4,1.02-4.35l9.76-6.51-4.04,2.33c-1.57.87-3.55.31-4.43-1.26-.79-1.42-.41-3.21.89-4.19l24.14-17.39-14.38,8.29c-1.56.88-3.55.33-4.44-1.23-.77-1.36-.46-3.08.73-4.09l17.91-14.87c-1.77-.33-2.94-2.02-2.61-3.79.17-.94.75-1.75,1.58-2.23l27.45-15.84c1.56-.9,3.55-.36,4.45,1.19.79,1.37.48,3.12-.74,4.13l-14.37,11.93,36.64-21.16c1.56-.89,3.55-.36,4.44,1.2.83,1.44.44,3.27-.91,4.25l-24.09,17.39,39.6-22.84c1.57-.87,3.55-.3,4.42,1.28.81,1.46.38,3.3-1,4.25l-9.76,6.51,19.98-11.57c1.56-.89,3.55-.35,4.44,1.21.84,1.47.42,3.33-.97,4.29l-44.51,30.64,56.8-32.8c1.57-.87,3.55-.29,4.42,1.28.81,1.47.37,3.31-1.02,4.26l-26.04,16.97,32.29-18.64c1.55-.9,3.55-.38,4.45,1.18.87,1.5.41,3.42-1.05,4.37l-39.54,25.84,45.33-26.17c1.57-.87,3.55-.3,4.42,1.27.81,1.46.38,3.29-.98,4.24l-69.54,46.92,76.52-44.18c1.57-.87,3.55-.3,4.42,1.27.81,1.46.38,3.29-.98,4.24l-77.29,51.88,82.61-47.69c1.57-.88,3.55-.32,4.43,1.25.84,1.5.37,3.39-1.07,4.32l-14.58,9.15,15.31-8.85c1.54-.93,3.54-.43,4.47,1.11.93,1.54.43,3.54-1.11,4.47l-22.1,13.88,22.36-12.91c1.57-.88,3.55-.32,4.43,1.25.83,1.49.37,3.37-1.05,4.31l-56.64,36.33,57.07-32.95c1.57-.87,3.55-.29,4.42,1.28.82,1.49.35,3.37-1.08,4.3l-19.81,12.37,18.56-10.72c1.54-.92,3.54-.42,4.47,1.12s.42,3.54-1.12,4.47l-12.21,7.6,10.29-5.94c1.59-.85,3.56-.25,4.4,1.34.79,1.47.33,3.3-1.05,4.23l-40.18,25.39,37.57-21.69c1.57-.87,3.55-.29,4.42,1.28.81,1.47.37,3.31-1.02,4.26l-80.66,52.53,77.32-44.64c1.58-.87,3.55-.29,4.42,1.28.82,1.48.36,3.35-1.05,4.28l-48.93,31.02,45.57-26.31c1.57-.87,3.55-.29,4.42,1.28.81,1.47.37,3.31-1.02,4.26l-84.77,55.5,81.37-46.97c1.56-.9,3.55-.36,4.45,1.19.88,1.52.39,3.46-1.09,4.39l-34.22,21.48,30.86-17.82c1.57-.88,3.55-.32,4.43,1.25.84,1.5.37,3.39-1.07,4.32l-40.54,25.56,37.18-21.48c1.58-.86,3.56-.27,4.41,1.31.8,1.47.35,3.3-1.02,4.24l-74.86,48.47,71.46-41.21c1.57-.88,3.55-.32,4.43,1.25.83,1.49.37,3.37-1.05,4.31l-61.45,39.33,58.08-33.53c1.57-.87,3.55-.29,4.42,1.28.81,1.47.37,3.31-1.02,4.26l-81.52,53.16,78.12-45.09c1.55-.91,3.54-.39,4.45,1.16.89,1.51.41,3.46-1.07,4.4l-67.57,43.44,64.17-37.05c1.56-.89,3.55-.35,4.44,1.21.86,1.5.39,3.42-1.07,4.35l-58.56,37.37,55.18-31.85c1.59-.85,3.56-.25,4.4,1.34.79,1.47.33,3.3-1.05,4.23l-43.99,27.8,40.63-23.44c1.55-.91,3.55-.39,4.45,1.16.89,1.51.41,3.46-1.07,4.4l-67.49,43.37,64.11-37.01c1.58-.87,3.55-.29,4.42,1.28.81,1.48.36,3.33-1.04,4.27l-68.27,43.93,64.89-37.46c1.58-.86,3.56-.27,4.41,1.31.8,1.47.35,3.31-1.04,4.25l-58.2,37.11,54.83-31.65c1.57-.87,3.55-.29,4.42,1.28.81,1.47.37,3.31-1.02,4.26l-81.93,53.49,78.52-45.33c1.57-.88,3.55-.32,4.43,1.25.84,1.5.37,3.39-1.07,4.32l-118.61,74.86c.58,1.37.16,2.97-1.03,3.87l-14.14,10.76,7.97-4.6c1.57-.88,3.55-.33,4.43,1.24.76,1.35.46,3.05-.72,4.06l-12.8,10.76,6.32-3.65c1.56-.9,3.55-.37,4.45,1.19.68,1.18.56,2.65-.31,3.7l-7.49,9.07c1.2-.06,2.33.58,2.91,1.63.89,1.56.36,3.54-1.19,4.44l-13.38,7.73c-1.56.9-3.55.37-4.45-1.19-.68-1.18-.56-2.65.31-3.7l6.78-8.22-22.82,13.18c-.49.29-1.06.44-1.63.44h0Z"/>
      <path class="cls-10" d="m289.98,313.15c-1.8,0-3.25-1.46-3.25-3.26,0-.86.34-1.69.95-2.3l2.22-2.23-8.62,4.98c-1.56.89-3.55.34-4.44-1.22-.73-1.28-.51-2.88.53-3.92l14.69-14.45-29.38,16.93c-1.57.88-3.55.32-4.43-1.24-.77-1.37-.45-3.09.75-4.09l19.72-16.05-36.39,21.01c-1.57.88-3.55.31-4.43-1.26-.78-1.4-.43-3.17.84-4.15l27.71-20.99-52.08,30.08c-1.57.88-3.55.32-4.43-1.25-.8-1.42-.42-3.21.88-4.19l45.46-33.52-61.8,35.67c-1.57.87-3.55.3-4.42-1.27-.79-1.43-.4-3.22.91-4.19l49.22-34.98-51.19,29.56c-1.56.89-3.55.36-4.44-1.2-.84-1.46-.42-3.32.95-4.28l41.88-29.29-41.53,23.96c-1.57.87-3.55.3-4.42-1.27-.79-1.43-.4-3.22.91-4.19l40.27-28.61-38.04,21.96c-1.56.9-3.55.37-4.45-1.18-.84-1.45-.44-3.3.92-4.28l33.27-23.92-28.59,16.5c-1.58.87-3.55.29-4.42-1.29-.77-1.41-.4-3.17.87-4.15l22.68-16.57-15.06,8.7c-1.58.85-3.56.25-4.41-1.33-.69-1.28-.44-2.87.61-3.88l18.23-16.42c-1.78.28-3.44-.92-3.73-2.7-.21-1.32.41-2.64,1.57-3.32l25.07-14.48c1.56-.9,3.55-.36,4.45,1.19.77,1.33.5,3.02-.64,4.05l-17.5,15.73,40.52-23.4c1.57-.88,3.55-.33,4.43,1.23.8,1.43.43,3.23-.89,4.21l-22.69,16.6,32.74-18.88c1.56-.9,3.55-.37,4.45,1.18.84,1.45.44,3.3-.92,4.28l-33.28,23.9,41.4-23.88c1.56-.89,3.55-.35,4.44,1.21.82,1.45.43,3.28-.92,4.25l-40.25,28.6,46.59-26.9c1.57-.87,3.55-.3,4.42,1.27.8,1.44.4,3.24-.93,4.21l-41.88,29.29,46.14-26.64c1.57-.87,3.55-.3,4.42,1.27.79,1.43.4,3.22-.91,4.19l-49.23,34.98,52.46-30.28c1.57-.88,3.55-.32,4.43,1.25.8,1.42.42,3.21-.88,4.19l-45.52,33.56,46.87-27.06c1.56-.89,3.55-.34,4.44,1.22.8,1.41.44,3.2-.85,4.19l-27.7,20.96,26.35-15.21c1.56-.89,3.55-.35,4.44,1.21.79,1.38.47,3.12-.76,4.13l-19.74,16.07,16.27-9.39c1.56-.89,3.55-.34,4.44,1.22.73,1.28.51,2.88-.53,3.92l-14.69,14.45,7.86-4.56c1.58-.87,3.55-.29,4.42,1.29.69,1.25.48,2.81-.51,3.83l-5.77,5.78c.65.27,1.19.75,1.53,1.37.9,1.56.37,3.55-1.18,4.45l-14.86,8.6c-.49.3-1.05.45-1.63.46h0Z"/>
      <path class="cls-11" d="m254.41,305.28c-1.8,0-3.25-1.46-3.25-3.26,0-.85.34-1.68.94-2.28l8.04-8.12-21.11,12.19c-1.56.89-3.55.34-4.44-1.22-.79-1.38-.46-3.13.78-4.13l9.11-7.29-14.07,8.12c-1.58.86-3.56.27-4.41-1.31-.7-1.29-.45-2.89.61-3.9l22.2-20.06-27.14,15.67c-1.56.9-3.55.37-4.45-1.19-.81-1.39-.47-3.16.78-4.17l13.36-10.69-13.21,7.62c-1.55.91-3.54.4-4.46-1.15-.78-1.33-.53-3.02.61-4.06l20.62-19.31-17.1,9.88c-1.58.87-3.55.29-4.42-1.29-.69-1.25-.48-2.81.51-3.83l9.45-9.45c-1.78-.25-3.02-1.89-2.77-3.67.14-.99.73-1.86,1.59-2.37l17.47-10.09c1.58-.87,3.55-.29,4.42,1.29.69,1.25.48,2.81-.51,3.83l-7.59,7.6,20.18-11.66c1.54-.92,3.54-.42,4.46,1.12.8,1.33.54,3.04-.61,4.09l-20.62,19.3,26.15-15.09c1.56-.89,3.55-.34,4.44,1.22.79,1.38.46,3.13-.78,4.13l-13.37,10.68,16.32-9.42c1.58-.86,3.56-.27,4.41,1.31.7,1.29.45,2.89-.61,3.9l-22.18,20.09,24.6-14.2c1.56-.9,3.55-.37,4.45,1.19.81,1.39.47,3.16-.78,4.17l-9.11,7.27,4.97-2.86c1.56-.9,3.55-.36,4.45,1.19.73,1.27.53,2.87-.5,3.91l-9.65,9.76c1.79.18,3.1,1.77,2.92,3.56-.1,1.05-.71,1.98-1.62,2.5l-17.47,10.09c-.48.27-1.03.41-1.59.41h0Z"/>
      <path class="cls-10" d="m265.29,273.34c-1.8,0-3.26-1.45-3.26-3.25,0-.61.17-1.22.5-1.74l6.78-10.75-16.11,9.3c-1.55.92-3.54.41-4.46-1.14-.77-1.3-.54-2.97.55-4.02l4.05-3.91-3.41,1.95c-1.56.89-3.55.34-4.44-1.22-.65-1.14-.55-2.55.25-3.59l5.12-6.61c-1.8,0-3.25-1.47-3.24-3.27,0-1.15.62-2.22,1.62-2.8l12.1-6.99c1.56-.9,3.55-.37,4.45,1.19.67,1.15.57,2.59-.25,3.63l-4.45,5.72,11.78-6.79c1.55-.91,3.55-.38,4.45,1.17.76,1.29.53,2.94-.55,3.98l-4.06,3.91,4.74-2.73c1.55-.91,3.55-.38,4.45,1.17.61,1.05.59,2.36-.06,3.39l-6.76,10.76.74-.42c1.52-.96,3.53-.52,4.49,1,.96,1.52.52,3.53-1,4.49-.08.05-.16.09-.24.14l-12.1,6.99c-.51.3-1.09.45-1.69.44h0Z"/>
      <path class="cls-2" d="m244.92,202.33c-55.6,2.88-81.24,64.2-52.68,108.1-1.52.65-3.06,1.3-4.56,2-3.35,1.58-.65,8.83,3.12,7.03,36.47-16.78,78.45-16.75,114.89.1,4.07,1.95,4.78-5.65,1.45-7.23-1.43-.65-2.9-1.3-4.35-1.9,30.85-45.91,1.38-111.17-57.87-108.1h0Zm-16.22,89.37c-20.1-17.07-7.28-52.98,19.37-49.05-14.32,17.39,10.66,39.77,27.62,26.87,4.11,25.39-28.78,39.39-46.99,22.19h0Zm35.61-24.3c-15.18-1.54-17.11-25.86-.9-26.51,16.42-.66,17.09,25.21.9,26.51Zm32.34,40.59c-9.76-3.62-19.9-6.13-30.22-7.48,12.89-8.19,19.27-23.57,15.96-38.48,7.68-14.65-8.64-31.41-23.75-26.23-39.26-9.76-64.95,41.66-30.82,64.84-9.68,1.33-19.19,3.67-28.38,6.97-28.92-42.07-1.59-104.63,54.25-98.45,48.82,5.4,68.94,60.29,42.96,98.84h0Z"/>
      <path class="cls-2" d="m439.98,380.87c-13.09-47.97-53.38-85.93-97.11-106.96,12.71-130.92-203.18-130.33-190.74.49-36.42,16.16-103.97,74.49-95.69,118.11,5.16,15.3,27.49,22.33,40.87,13.71,9.35-6.02,11.18-17.1,14.97-26.82,8.38-21.48,19.57-42.91,38.87-55.98-.08,17.26,0,34.54.26,51.84-36.97,29.26-61.62,71.32-69.09,117.87-2.35,30.56,44.57,39.83,51.07,8.83,3.25-22.82,7.19-45.23,18.99-64.82.23,15.9.41,31.77.41,47.59-3.03,41.22-8.66,90.78,51.23,72.44,21.78-11.25,6.76-47.27,29.52-55.98,9.41-1.89,19.1-1.89,28.51,0,25.75,13.07,2.52,59.64,48.91,58.59,30.34.19,31.9-19.26,31.9-43.75v-78.27c15.01,23.14,7.4,60.47,29.85,80.07,12.78,5.89,27.92,2.6,37.11-8.07,20.75-40-35.43-112.5-66.95-135.4v-52c25.04,15.58,36.45,45.8,45.93,72.49,11.17,26.12,56.1,14.59,51.19-13.98h0Zm-321.36-31.51c-9.03,13.21-12.71,30.06-19.18,44.14-6.39,6.51-22.02,11.27-29.37,4.41-27.34-32.35,52.08-105.39,81.78-116.53-.36,11.6-.57,23.23-.65,34.87-13.43,8.17-24.63,19.55-32.59,33.11h0Zm8.81,150.22c-4.32,20.59-40.84,17.75-39.16-4.06,7-43.34,29.49-82.66,63.29-110.67.2,13.31.41,26.61.65,39.91-16.06,21.95-20.99,48.28-24.79,74.82Zm207.63,28.6c-1.95,14.86-11.48,29.85-29.83,25.69-27.79-6.29-15.62-29.73-25.71-46.87-9.58-16.27-49.4-19.19-61.07-3.76-7.89,10.42-3.55,26.73-10.04,37.46-15.32,25.34-44.79,10.85-47.81-12.37-3.58-83.73,3.29-166.72-1.41-250.88,1.15-.65,1.55-2.12.9-3.27-.21-.38-.52-.69-.9-.9-.42-13.44,1.34-26.87,5.21-39.75,27.54-79.53,170.38-65.04,170.67,23.78-1.7,90.12,2.81,180.96,0,270.86h0Zm65.79-58.98c5.1,16.83,8.68,34.42-10.27,44.71-19.88,10.79-23.97-31.96-26.3-42.26-3.63-17.41-10.92-33.85-21.4-48.21v-39.57c27.22,22.2,47.36,51.86,57.98,85.34h0Zm-4.48-75.77c-10.63-29.95-23.87-62.79-53.5-78.35v-34.18c40.52,20.6,76.61,56.09,89.43,100.56,2.51,19.78-27.16,32.37-35.93,11.97h0Z"/>
      <path class="cls-2" d="m226.38,390.73c-2.93,2.31.56,9.25,3.83,6.67,10.65-8.06,25.36-8.08,36.04-.07,3.79,2.99,5.14-4.22,2.21-6.51-12.43-9.42-29.61-9.46-42.08-.09h0Z"/>
      <path class="cls-2" d="m293.39,351.16c-3.41.17-10.68-3.46-10.06-9.6-.1-5.11-6.04-3.61-5.96.86.04,2.6.59,5.16,1.61,7.55-19.21,11.6-43.26,11.62-62.49.05,1.65-2.57,2.55-5.55,2.6-8.61.08-4.14-7.53-2.6-7.6,1.15.15,2.41-.61,4.8-2.12,6.69-.4.24-.75.56-1.02.94-1.65,1.06-3.54,1.68-5.5,1.81-3.91-.36-6.51,5.65-1.54,6.06,3.86,0,7.63-1.19,10.79-3.4,21.82,12.89,48.88,13.08,70.87.49,2.9,2.47,6.61,3.79,10.42,3.7,3.67.02,4.23-7.67,0-7.69h0Z"/>
    </g>
  </g>
  <g id="Capa_3" data-name="Capa 3">
    <g id="Capa_1-2" data-name="Capa 1">
      <g>
        <g>
          <g>
            <path class="cls-4" d="m305.27,17.77s-1.83,1.17-4.61,3.6c-2.79,2.43-6.49,6.19-10.19,11.56-3.7,5.32-7.35,12.12-10.19,20.48-2.84,8.31-4.77,18.15-5.48,29.56-.66,11.41,0,23.83,1.01,36,1.01,12.17,2.33,24.08,3.45,34.53,1.12,10.39,1.98,19.52,2.53,26.01.56,6.44.86,10.29.86,10.29,0,0,1.32-3.65,3.5-9.73,2.23-6.13,5.42-14.6,9.18-24.44,3.75-9.84,8.11-21.04,12.27-32.5,4.11-11.51,7.96-23.17,10.29-34.43,2.28-11.2,2.99-21.34,2.38-30.07-.56-8.77-2.38-16.27-4.56-22.36-2.18-6.13-4.82-10.8-6.9-13.84-2.08-3.09-3.55-4.66-3.55-4.66Z"/>
            <path class="cls-3" d="m319.92,75.67c-6.49,5.68-12.12,10.8-16.38,14.7-4.31,3.95-7.35,7-8.87,8.37-1.06-1.77-3.35-5.37-6.39-10.39-3.14-4.87-7.2-11.15-12.02-18.4-.15,1.17-.35,2.33-.51,3.5,5.42,8.21,9.84,14.96,12.88,19.77,3.04,4.87,4.82,7.76,4.82,7.81l.71,1.17,1.01-.96s2.54-2.38,6.69-6.29c4.21-3.8,10.24-9.33,17.59-15.77.15-1.22.3-2.38.41-3.55l.05.05Z"/>
            <path class="cls-13" d="m280.93,203.03s1.01-3.09,2.59-9.43c1.57-6.34,3.7-15.92,5.73-29,1.98-13.08,3.4-28.24,4.06-40.21.66-11.97.71-20.69.71-20.69,0,0-2.23,8.42-4.66,20.18-2.48,11.71-5.07,26.77-6.49,39.9s-1.83,22.97-1.98,29.46c-.1,6.54.05,9.73.05,9.73v.05Z"/>
            <path class="cls-8" d="m277.33,64.11c5.37,8.31,9.89,15.16,13.08,20.23,3.19,5.02,5.07,8.01,5.07,8.01,0,0,2.59-2.38,7-6.44,4.46-4.01,10.7-9.63,17.9-16.12.86-16.58-2.69-29.61-6.69-38.58-1.98-4.51-4.11-7.76-5.68-10.04-1.57-2.23-2.69-3.4-2.69-3.4,0,0-1.32.81-3.45,2.59-2.13,1.77-5.02,4.41-8.06,8.16-6.19,7.61-12.93,19.37-16.43,35.59h-.05Z"/>
            <path class="cls-12" d="m317.89,88.65c2.28-11.2,2.99-21.34,2.38-30.07-.56-8.77-2.38-16.27-4.56-22.36-2.18-6.13-4.82-10.8-6.9-13.84-2.08-3.09-3.55-4.66-3.55-4.66l-22.61,171.97s1.32-3.65,3.5-9.73c2.23-6.13,5.42-14.6,9.18-24.44,3.75-9.84,8.11-21.04,12.27-32.5,4.11-11.51,7.96-23.17,10.29-34.43v.05Z"/>
          </g>
          <g>
            <path class="cls-6" d="m366.92,48.8s-2.03.66-5.32,2.28c-3.3,1.67-7.76,4.31-12.62,8.42-4.87,4.16-10.09,9.73-14.86,16.98-4.77,7.25-9.13,16.12-12.57,26.82-3.5,10.7-5.93,22.66-8.01,34.53-2.08,11.81-3.8,23.47-5.37,33.72-1.57,10.24-3.04,19.16-4.11,25.45-1.06,6.24-1.72,9.99-1.72,9.99,0,0,2.18-3.14,5.78-8.42,3.6-5.17,8.77-12.47,14.86-20.94,6.03-8.42,13.03-18.1,19.82-27.89,6.74-9.84,13.38-20.08,18.4-30.17,5.02-10.09,8.16-19.52,9.84-28.04,1.67-8.57,1.83-16.07,1.27-22.41-.61-6.34-1.88-11.46-3.09-14.96-1.22-3.45-2.23-5.32-2.23-5.32l-.05-.05Z"/>
            <path class="cls-10" d="m366.31,107.71c-3.8,1.83-7.3,3.6-10.6,5.32-3.19,1.67-6.13,3.19-8.72,4.56-5.07,2.64-8.72,4.72-10.49,5.68-.61-1.93-1.83-5.93-3.5-11.46-1.72-5.58-4.11-12.42-6.84-20.53-.46,1.06-.91,2.13-1.37,3.19,1.52,4.51,2.94,8.67,4.21,12.42.61,1.83,1.17,3.55,1.72,5.17.51,1.62.96,3.14,1.42,4.51,1.67,5.37,2.64,8.57,2.69,8.62l.41,1.27,1.22-.66s.76-.41,2.13-1.17,3.3-1.77,5.78-3.09c2.54-1.32,5.53-2.89,8.97-4.72,1.77-.91,3.6-1.88,5.58-2.89,1.98-.96,4.01-1.98,6.13-2.99.46-1.12.86-2.18,1.27-3.24Z"/>
            <path class="cls-13" d="m297.31,219.15s1.72-2.69,4.82-8.37c3.09-5.68,7.5-14.25,12.67-26.16s10.34-26.11,13.94-37.32c3.65-11.2,5.83-19.47,5.83-19.47,0,0-4.26,7.45-9.48,18.05-5.27,10.55-11.51,24.23-16.17,36.4-4.66,12.17-7.5,21.4-9.23,27.58-1.72,6.19-2.38,9.28-2.38,9.28Z"/>
            <path class="cls-1" d="m328.64,85.96c3.04,9.23,5.68,16.83,7.45,22.51,1.77,5.53,2.84,8.82,2.84,8.82,0,0,.76-.41,2.18-1.17s3.5-1.88,6.03-3.19c2.59-1.37,5.73-2.99,9.23-4.82,3.55-1.88,7.55-3.95,11.81-6.08,5.02-15.72,4.92-28.95,3.3-38.43-1.57-9.53-4.61-14.91-4.61-14.91,0,0-5.98,1.83-13.69,7.4-7.76,5.58-17.24,15.21-24.59,29.76l.05.1Z"/>
            <path class="cls-12" d="m361.14,119.52c5.02-10.09,8.16-19.52,9.84-28.04,1.67-8.57,1.83-16.07,1.27-22.41-.61-6.34-1.88-11.46-3.09-14.96-1.22-3.45-2.23-5.32-2.23-5.32l-64.59,158.13s2.18-3.14,5.78-8.42c3.6-5.17,8.77-12.47,14.86-20.94,6.03-8.42,13.03-18.1,19.82-27.89,6.74-9.84,13.38-20.08,18.4-30.17h-.05Z"/>
          </g>
          <g>
            <path class="cls-4" d="m418.28,92.2s-1.98.1-5.27.81-7.96,2.03-13.23,4.51c-5.22,2.43-11.26,6.24-17.19,11.51-5.98,5.27-11.91,12.17-17.59,20.84-5.63,8.67-10.65,18.71-15.31,28.7-4.66,10.04-8.87,19.82-12.78,28.65-7.71,17.54-13.54,30.01-13.54,30.01,0,0,2.64-2.23,7.1-5.98,4.46-3.75,10.8-9.02,18.2-15.11,7.4-6.13,15.77-12.83,24.13-20.03,8.37-7.15,16.68-14.7,23.47-22.46,6.84-7.76,11.86-15.36,15.36-22.56,3.5-7.15,5.53-13.94,6.49-19.62.96-5.73,1.01-10.55.81-13.94-.2-3.4-.66-5.32-.66-5.32Z"/>
            <path class="cls-3" d="m403.67,144.31c-3.8.76-7.35,1.52-10.6,2.18-3.24.76-6.24,1.42-8.82,2.03-5.12,1.22-8.82,2.08-10.65,2.48-.1-1.88-.25-5.68-.46-10.9-.1-2.64-.2-5.73-.46-9.02-.25-3.35-.51-6.95-.76-10.85-.66.81-1.32,1.67-1.98,2.54.3,4.36.61,8.37.86,11.97.15,3.6.3,6.74.46,9.38.2,5.12.35,8.16.35,8.21v1.22l1.27-.25c.05,0,2.99-.71,8.01-1.88,2.53-.61,5.63-1.32,9.13-2.08,3.5-.71,7.45-1.52,11.71-2.43.66-.86,1.27-1.72,1.93-2.59Z"/>
            <path class="cls-13" d="m316.07,226.85s2.18-1.93,6.24-6.19c4.06-4.26,10.04-10.8,17.49-20.18,7.4-9.38,15.36-20.69,21.24-29.81,5.93-9.13,9.84-15.97,9.84-15.97,0,0-5.53,5.63-12.73,13.79-7.2,8.11-15.97,18.81-23.02,28.49-7,9.68-11.71,17.19-14.75,22.26-2.99,5.07-4.31,7.66-4.31,7.66v-.05Z"/>
            <path class="cls-8" d="m375.44,116.13c.25,4.36.56,8.47.76,12.12.2,3.65.35,6.9.46,9.63.3,5.32.46,8.47.46,8.47,0,0,3.09-.71,8.26-1.83,2.64-.61,5.83-1.32,9.38-2.13,3.6-.76,7.6-1.62,11.86-2.53,4.06-6.34,6.9-12.47,8.82-18.15s2.84-10.75,3.24-15.16c.41-4.36.25-7.96.05-10.44-.2-2.48-.56-3.9-.56-3.9,0,0-5.73.25-13.94,3.4-8.16,3.04-18.86,9.38-28.85,20.58l.05-.05Z"/>
            <path class="cls-12" d="m396.32,153.59c6.84-7.76,11.86-15.36,15.36-22.56,3.5-7.15,5.53-13.94,6.49-19.62.96-5.73,1.01-10.55.81-13.94-.2-3.4-.66-5.32-.66-5.32l-94.86,125.03s2.64-2.23,7.1-5.98c4.46-3.75,10.8-9.02,18.2-15.11,7.4-6.13,15.77-12.83,24.13-20.03,8.37-7.15,16.68-14.7,23.47-22.46h-.05Z"/>
          </g>
          <g>
            <path class="cls-6" d="m452.4,140.01s-1.77-.41-4.87-.56c-3.14-.1-7.6,0-12.93,1.06s-11.41,2.94-18,6.34-13.54,8.16-20.63,14.65c-7.1,6.49-13.89,14.3-20.38,22.16-6.44,7.81-12.67,15.82-18.1,22.76-5.48,6.95-10.19,12.88-13.59,17.09-3.45,4.21-5.48,6.74-5.48,6.74,0,0,2.89-1.42,7.76-3.75,4.87-2.33,11.86-5.63,19.82-9.33,7.96-3.7,17.09-7.86,26.26-12.37s18.35-9.38,26.26-14.8,14.15-11.05,18.91-16.68c4.77-5.63,8.11-11.15,10.39-16.12,2.23-4.92,3.35-9.18,3.9-12.27.56-3.04.61-4.87.61-4.87l.05-.05Z"/>
            <path class="cls-10" d="m427.3,183.3c-7.3-.3-13.44-.61-18.4-.66-4.87-.05-8.47-.15-10.19-.15.2-.86.51-2.13.86-3.8s.81-3.7,1.27-6.08c.96-4.77,2.33-11.05,3.55-18.05-.76.61-1.57,1.22-2.38,1.83-1.37,7.96-2.89,14.75-3.8,19.37-.51,2.33-.86,4.16-1.17,5.48-.3,1.27-.46,1.98-.46,2.03l-.25,1.12h1.17s2.89.1,7.66.15c1.22,0,2.53,0,4.01.05,1.42.05,2.99.1,4.61.15,3.35.15,7.1.3,11.15.46.76-.61,1.57-1.27,2.28-1.88h.1Z"/>
            <path class="cls-13" d="m329.65,237.2s2.38-1.27,7.05-4.11c4.61-2.89,11.51-7.4,20.33-14.04,8.82-6.69,18.51-15.01,25.91-21.85,7.4-6.79,12.47-12.02,12.47-12.02,0,0-6.24,3.75-14.55,9.38-8.31,5.58-18.71,13.13-27.23,20.18-8.52,7.05-14.45,12.67-18.35,16.58-3.9,3.85-5.68,5.93-5.68,5.93l.05-.05Z"/>
            <path class="cls-1" d="m408.54,151.62c-.35,1.98-.76,3.9-1.12,5.78-.35,1.88-.76,3.65-1.06,5.32-.66,3.3-1.27,6.24-1.77,8.67-.46,2.43-.86,4.31-1.17,5.68-.3,1.32-.41,2.08-.41,2.08,0,0,2.94.1,7.91.25,5.07.05,11.91.41,20.13.66,10.14-9.48,15.77-19.42,18.51-27.07,2.74-7.6,2.84-12.88,2.84-12.88,0,0-1.27-.25-3.55-.46s-5.63-.2-9.68.25c-8.11.91-18.96,3.95-30.62,11.76v-.05Z"/>
            <path class="cls-12" d="m418.58,189.94c7.91-5.42,14.15-11.05,18.91-16.68s8.11-11.15,10.39-16.12c2.23-4.92,3.35-9.18,3.9-12.27.56-3.04.61-4.87.61-4.87l-113.97,90.2s2.89-1.42,7.76-3.75c4.87-2.33,11.86-5.63,19.82-9.33,7.96-3.7,17.09-7.86,26.26-12.37,9.18-4.51,18.35-9.38,26.26-14.8h.05Z"/>
          </g>
          <g>
            <path class="cls-4" d="m477.6,189.03s-1.52-.81-4.36-1.72c-1.42-.46-3.14-.96-5.17-1.37-2.03-.41-4.41-.76-7-.96-5.22-.41-11.41-.15-18.3,1.27s-14.6,4.06-22.81,8.21c-8.21,4.16-16.48,9.63-24.59,15.26-8.06,5.63-15.77,11.41-22.61,16.43-3.4,2.48-6.59,4.82-9.43,6.9-2.89,2.08-5.42,3.9-7.55,5.48-4.21,3.04-6.74,4.82-6.74,4.82,0,0,3.04-.56,8.16-1.47,5.17-.96,12.37-2.18,20.74-3.55,8.37-1.37,17.9-2.94,27.53-4.77,9.63-1.88,19.32-4.01,28.04-7,8.67-2.99,15.97-6.69,21.8-10.65s10.29-8.21,13.64-12.22,5.58-7.71,6.84-10.34c1.32-2.69,1.83-4.31,1.83-4.31h0Z"/>
            <path class="cls-3" d="m443.32,222.65c-6.59-2.13-12.42-3.9-16.88-5.27-4.46-1.37-7.86-2.28-9.38-2.74.76-1.47,2.38-4.51,4.61-8.67,2.13-4.16,4.87-9.53,7.96-15.82-.86.35-1.77.71-2.64,1.06-3.45,7.05-6.44,12.88-8.52,16.93-2.18,4.11-3.45,6.49-3.45,6.54l-.51.96,1.06.3s2.69.76,7.1,2.08c4.36,1.37,10.65,3.24,18.1,5.68.86-.41,1.77-.76,2.64-1.17l-.1.1Z"/>
            <path class="cls-13" d="m339.08,247.64s2.53-.56,7.61-2.03c5.02-1.47,12.57-3.9,22.46-7.81,9.89-3.95,20.99-9.18,29.56-13.59s14.65-7.96,14.65-7.96c0,0-6.74,1.88-15.87,4.97-9.13,3.04-20.63,7.4-30.32,11.71-9.68,4.36-16.68,8.06-21.24,10.65s-6.74,4.06-6.74,4.06h-.1Z"/>
            <path class="cls-8" d="m434.09,188.58c-3.55,6.95-6.59,12.98-8.77,17.29-2.18,4.26-3.5,6.74-3.5,6.74,0,0,2.74.81,7.3,2.18,4.56,1.42,11,3.4,18.45,5.73,11.86-6.19,19.47-13.94,24.03-20.33,2.33-3.19,3.75-5.98,4.66-7.96.91-2.03,1.27-3.19,1.27-3.19,0,0-1.12-.56-3.19-1.32-2.08-.71-5.07-1.67-8.97-2.23-7.76-1.17-18.66-1.12-31.33,3.09h.05Z"/>
            <path class="cls-12" d="m433.49,226.6c8.67-2.99,15.97-6.69,21.8-10.65,5.83-3.95,10.29-8.21,13.64-12.22,3.35-4.01,5.58-7.71,6.84-10.34,1.32-2.69,1.83-4.31,1.83-4.31l-128.58,54.35s3.04-.56,8.16-1.47c5.17-.96,12.37-2.18,20.74-3.55,8.37-1.37,17.9-2.94,27.53-4.77,9.63-1.88,19.32-4.01,28.04-7v-.05Z"/>
          </g>
          <g>
            <path class="cls-6" d="m473.69,233.7s-1.32-.86-3.75-2.03c-2.43-1.12-6.03-2.53-10.55-3.5-4.61-.96-10.19-1.47-16.58-.96-6.39.46-13.54,1.93-21.34,4.66-7.86,2.79-15.92,6.69-23.78,10.8-7.86,4.11-15.41,8.37-22.11,12.02-13.49,7.45-23.27,12.67-23.27,12.67,0,0,2.79-.15,7.5-.35,4.72-.2,11.31-.46,18.91-.76,7.66-.3,16.43-.56,25.2-1.06,8.82-.56,17.75-1.37,25.91-3.04,8.11-1.67,15.06-4.11,20.79-7,5.78-2.89,10.19-6.19,13.64-9.33,3.45-3.19,5.83-6.24,7.35-8.47,1.52-2.23,2.13-3.65,2.13-3.65h-.05Z"/>
            <path class="cls-10" d="m439.06,259.81c-5.58-2.69-10.6-4.92-14.5-6.64-3.85-1.72-6.64-2.94-8.06-3.55,1.67-2.43,7.2-9.94,14.04-20.38-.81.2-1.67.41-2.48.66-3.95,5.93-7.15,10.75-9.63,14.15-2.38,3.4-3.8,5.37-3.8,5.42l-.56.81.91.41s.61.25,1.67.71c1.01.46,2.53,1.12,4.41,1.98,3.75,1.72,9.28,4.11,15.51,7.15.81-.25,1.67-.51,2.48-.71Z"/>
            <path class="cls-13" d="m342.94,270.05s2.38-.2,7.05-.91c4.66-.76,11.66-2.03,20.94-4.41,9.28-2.38,19.87-5.78,28.04-8.77,8.16-2.94,13.99-5.42,13.99-5.42,0,0-6.29.91-14.8,2.59-8.52,1.67-19.37,4.21-28.54,6.95-9.18,2.74-15.87,5.27-20.23,7.05-4.41,1.77-6.49,2.84-6.49,2.84l.05.1Z"/>
            <path class="cls-1" d="m434.8,228.32c-4.01,5.88-7.35,10.85-9.84,14.4-2.43,3.55-3.85,5.63-3.85,5.63,0,0,2.33,1.06,6.24,2.84,1.98.91,4.31,1.98,7,3.19,1.37.61,2.79,1.27,4.26,1.93,1.47.71,2.99,1.42,4.61,2.13,5.68-2.08,10.49-4.66,14.45-7.3,3.95-2.69,7.05-5.48,9.43-8.06s4.11-4.92,5.17-6.59c1.01-1.67,1.47-2.69,1.47-2.69,0,0-3.75-2.59-10.44-4.56-6.69-1.98-16.58-3.14-28.39-.86l-.1-.05Z"/>
            <path class="cls-12" d="m429.84,262.19c8.11-1.67,15.06-4.11,20.79-7,5.78-2.89,10.19-6.19,13.64-9.33,3.45-3.19,5.83-6.24,7.35-8.47,1.52-2.23,2.13-3.65,2.13-3.65l-121.38,33.72s2.79-.15,7.5-.35c4.72-.2,11.31-.46,18.91-.76,7.66-.3,16.43-.56,25.2-1.06,8.82-.56,17.75-1.37,25.91-3.04l-.05-.05Z"/>
          </g>
          <g>
            <path class="cls-4" d="m463.4,277.86s-.2-.25-.71-.71c-.46-.46-1.17-1.06-2.13-1.83-1.88-1.47-4.72-3.4-8.47-5.17-3.75-1.77-8.52-3.35-14.15-4.26-5.63-.91-12.17-1.12-19.52-.35-7.35.76-15.21,2.48-22.82,4.41-7.66,1.93-15.06,4.06-21.65,5.88-6.54,1.83-12.27,3.35-16.33,4.46-4.01,1.06-6.44,1.72-6.44,1.72,0,0,9.68,1.77,23.17,4.51,6.74,1.32,14.25,2.89,22.05,4.26,7.76,1.32,15.72,2.48,23.12,2.69,7.4.2,13.89-.46,19.42-1.83,5.53-1.32,10.24-3.24,13.79-5.27,3.6-2.03,6.29-4.16,8.06-5.78s2.64-2.74,2.64-2.74h-.05Z"/>
            <path class="cls-3" d="m428.01,293.32c-2.18-1.72-4.21-3.35-6.03-4.82s-3.6-2.79-5.12-3.95c-2.99-2.28-5.17-3.9-6.24-4.72,1.01-.86,3.04-2.69,5.83-5.17,1.42-1.27,3.04-2.74,4.82-4.31,1.72-1.62,3.65-3.4,5.68-5.27h-2.28c-2.28,2.13-4.36,4.11-6.29,5.83s-3.6,3.19-4.97,4.46c-2.74,2.43-4.36,3.9-4.41,3.9l-.66.61.71.56s1.77,1.32,4.66,3.6c1.47,1.12,3.3,2.48,5.32,4.06,2.03,1.62,4.26,3.4,6.69,5.32.76,0,1.52-.1,2.28-.1Z"/>
            <path class="cls-13" d="m342.53,282.37s2.08.35,6.24.66c4.21.3,10.55.66,19.11.51,8.57-.15,18.4-.91,26.11-1.83,7.71-.86,13.28-1.77,13.28-1.77,0,0-1.42-.1-3.75-.3-2.38-.15-5.73-.35-9.63-.51-7.76-.3-17.64-.35-26.21.15-8.52.51-14.8,1.32-19.01,1.93-4.16.66-6.19,1.12-6.19,1.12l.05.05Z"/>
            <path class="cls-8" d="m430.8,265.13c-4.56,4.26-8.67,7.86-11.51,10.44-2.84,2.54-4.51,4.06-4.51,4.06,0,0,1.77,1.37,4.77,3.75,1.52,1.17,3.35,2.59,5.48,4.21,2.08,1.62,4.36,3.45,6.79,5.37,10.7-1.32,18.76-4.92,23.88-8.42,5.17-3.5,7.71-6.69,7.71-6.69,0,0-.66-.76-2.03-1.88-1.37-1.12-3.4-2.69-6.13-4.21-2.74-1.52-6.08-3.09-10.19-4.31-4.11-1.22-8.87-2.08-14.25-2.33Z"/>
            <path class="cls-12" d="m419.49,293.47c7.4.2,13.89-.46,19.42-1.83,5.53-1.32,10.24-3.24,13.79-5.27,3.6-2.03,6.29-4.16,8.06-5.78,1.77-1.62,2.64-2.74,2.64-2.74l-112.2,4.21s9.68,1.77,23.17,4.51c6.74,1.32,14.25,2.89,22.05,4.26,7.76,1.32,15.72,2.48,23.12,2.69l-.05-.05Z"/>
          </g>
          <g>
            <path class="cls-4" d="m189.87,17.77s1.83,1.17,4.61,3.6c2.79,2.43,6.49,6.19,10.19,11.56,3.7,5.32,7.35,12.12,10.19,20.48,2.84,8.31,4.77,18.15,5.48,29.56.66,11.41,0,23.83-1.01,36-1.01,12.17-2.33,24.08-3.45,34.53-1.12,10.39-1.98,19.52-2.53,26.01-.56,6.44-.86,10.29-.86,10.29,0,0-1.32-3.65-3.5-9.73-2.23-6.13-5.42-14.6-9.18-24.44-3.75-9.84-8.11-21.04-12.27-32.5-4.11-11.51-7.96-23.17-10.29-34.43-2.28-11.2-2.99-21.34-2.38-30.07.56-8.77,2.38-16.27,4.56-22.36,2.18-6.13,4.82-10.8,6.9-13.84,2.08-3.09,3.55-4.66,3.55-4.66Z"/>
            <path class="cls-3" d="m175.27,75.67c6.49,5.68,12.12,10.8,16.38,14.7,4.31,3.95,7.35,7,8.87,8.37,1.06-1.77,3.35-5.37,6.39-10.39,3.14-4.87,7.2-11.15,12.02-18.4.15,1.17.35,2.33.51,3.5-5.42,8.21-9.84,14.96-12.88,19.77-3.04,4.87-4.82,7.76-4.82,7.81l-.71,1.17-1.01-.96s-2.54-2.38-6.69-6.29c-4.21-3.8-10.24-9.33-17.59-15.77-.15-1.22-.3-2.38-.41-3.55l-.05.05Z"/>
            <path class="cls-13" d="m214.26,203.03s-1.01-3.09-2.59-9.43c-1.57-6.34-3.7-15.92-5.73-29-1.98-13.08-3.4-28.24-4.06-40.21-.66-11.97-.71-20.69-.71-20.69,0,0,2.23,8.42,4.66,20.18,2.48,11.71,5.07,26.77,6.49,39.9,1.47,13.13,1.83,22.97,1.98,29.46.1,6.54-.05,9.73-.05,9.73v.05Z"/>
            <path class="cls-8" d="m217.86,64.11c-5.37,8.31-9.89,15.16-13.08,20.23-3.19,5.02-5.07,8.01-5.07,8.01,0,0-2.59-2.38-6.95-6.44-4.46-4.01-10.7-9.63-17.9-16.12-.86-16.58,2.69-29.61,6.69-38.58,1.98-4.51,4.11-7.76,5.68-10.04,1.57-2.23,2.69-3.4,2.69-3.4,0,0,1.32.81,3.45,2.59,2.13,1.77,5.02,4.41,8.06,8.16,6.19,7.61,12.93,19.37,16.43,35.59Z"/>
            <path class="cls-12" d="m177.3,88.65c-2.28-11.2-2.99-21.34-2.38-30.07.56-8.77,2.38-16.27,4.56-22.36,2.18-6.13,4.82-10.8,6.9-13.84,2.08-3.09,3.55-4.66,3.55-4.66l22.61,171.97s-1.32-3.65-3.5-9.73c-2.23-6.13-5.42-14.6-9.18-24.44-3.75-9.84-8.11-21.04-12.27-32.5-4.11-11.51-7.96-23.17-10.29-34.43v.05Z"/>
          </g>
          <g>
            <path class="cls-6" d="m128.27,48.8s2.03.66,5.32,2.28c3.3,1.67,7.76,4.31,12.62,8.42,4.87,4.16,10.09,9.73,14.86,16.98,4.77,7.25,9.13,16.12,12.57,26.82,3.5,10.7,5.93,22.66,8.01,34.53,2.08,11.81,3.8,23.47,5.37,33.72s3.04,19.16,4.11,25.45c1.06,6.24,1.72,9.99,1.72,9.99,0,0-2.18-3.14-5.78-8.42-3.6-5.17-8.77-12.47-14.86-20.94-6.03-8.42-13.03-18.1-19.82-27.89-6.74-9.84-13.38-20.08-18.4-30.17-5.02-10.09-8.16-19.52-9.84-28.04-1.67-8.57-1.83-16.07-1.27-22.41.61-6.34,1.88-11.46,3.09-14.96,1.22-3.45,2.23-5.32,2.23-5.32l.05-.05Z"/>
            <path class="cls-10" d="m128.88,107.71c3.8,1.83,7.3,3.6,10.6,5.32,3.19,1.67,6.13,3.19,8.72,4.56,5.07,2.64,8.72,4.72,10.49,5.68.61-1.93,1.83-5.93,3.5-11.46,1.72-5.58,4.11-12.42,6.84-20.53.46,1.06.91,2.13,1.37,3.19-1.52,4.51-2.94,8.67-4.21,12.42-.61,1.83-1.17,3.55-1.72,5.17-.51,1.62-.96,3.14-1.42,4.51-1.67,5.37-2.64,8.57-2.69,8.62l-.41,1.27-1.22-.66s-.76-.41-2.13-1.17c-1.37-.76-3.3-1.77-5.78-3.09-2.53-1.32-5.53-2.89-8.97-4.72-1.77-.91-3.6-1.88-5.58-2.89-1.98-.96-4.01-1.98-6.13-2.99-.46-1.12-.86-2.18-1.27-3.24Z"/>
            <path class="cls-13" d="m197.88,219.15s-1.72-2.69-4.82-8.37c-3.09-5.68-7.5-14.25-12.68-26.16-5.17-11.91-10.34-26.11-13.94-37.32-3.65-11.2-5.83-19.47-5.83-19.47,0,0,4.26,7.45,9.48,18.05,5.27,10.55,11.51,24.23,16.17,36.4,4.66,12.17,7.5,21.4,9.23,27.58,1.72,6.19,2.38,9.28,2.38,9.28Z"/>
            <path class="cls-1" d="m166.55,85.96c-3.04,9.23-5.68,16.83-7.45,22.51-1.77,5.53-2.84,8.82-2.84,8.82,0,0-.76-.41-2.18-1.17s-3.5-1.88-6.03-3.19c-2.59-1.37-5.73-2.99-9.23-4.82-3.55-1.88-7.55-3.95-11.81-6.08-5.02-15.72-4.92-28.95-3.3-38.43,1.57-9.53,4.61-14.91,4.61-14.91,0,0,5.98,1.83,13.69,7.4,7.76,5.58,17.24,15.21,24.59,29.76l-.05.1Z"/>
            <path class="cls-12" d="m134.05,119.52c-5.02-10.09-8.16-19.52-9.84-28.04-1.67-8.57-1.83-16.07-1.27-22.41.61-6.34,1.88-11.46,3.09-14.96,1.22-3.45,2.23-5.32,2.23-5.32l64.59,158.13s-2.18-3.14-5.78-8.42c-3.6-5.17-8.77-12.47-14.86-20.94-6.03-8.42-13.03-18.1-19.82-27.89-6.74-9.84-13.38-20.08-18.4-30.17h.05Z"/>
          </g>
          <g>
            <path class="cls-4" d="m76.91,92.2s1.98.1,5.27.81,7.96,2.03,13.23,4.51c5.22,2.43,11.26,6.24,17.19,11.51,5.98,5.27,11.91,12.17,17.59,20.84,5.63,8.67,10.65,18.71,15.31,28.7,4.66,10.04,8.87,19.82,12.78,28.65,7.71,17.54,13.54,30.01,13.54,30.01,0,0-2.64-2.23-7.1-5.98-4.46-3.75-10.8-9.02-18.2-15.11-7.4-6.13-15.77-12.83-24.13-20.03-8.37-7.15-16.68-14.7-23.47-22.46-6.84-7.76-11.86-15.36-15.36-22.56-3.5-7.15-5.53-13.94-6.49-19.62-.96-5.73-1.01-10.55-.81-13.94s.66-5.32.66-5.32Z"/>
            <path class="cls-3" d="m91.46,144.31c3.8.76,7.35,1.52,10.6,2.18,3.24.76,6.24,1.42,8.82,2.03,5.12,1.22,8.82,2.08,10.65,2.48.1-1.88.25-5.68.46-10.9.1-2.64.2-5.73.46-9.02.25-3.35.51-6.95.76-10.85.66.81,1.32,1.67,1.98,2.54-.3,4.36-.61,8.37-.86,11.97-.15,3.6-.3,6.74-.46,9.38-.2,5.12-.35,8.16-.35,8.21v1.22l-1.27-.25c-.05,0-2.99-.71-8.01-1.88-2.54-.61-5.63-1.32-9.13-2.08-3.5-.71-7.45-1.52-11.71-2.43-.66-.86-1.27-1.72-1.93-2.59Z"/>
            <path class="cls-13" d="m179.12,226.85s-2.18-1.93-6.24-6.19c-4.06-4.26-10.04-10.8-17.49-20.18-7.4-9.38-15.36-20.69-21.24-29.81-5.93-9.13-9.84-15.97-9.84-15.97,0,0,5.53,5.63,12.73,13.79,7.2,8.11,15.97,18.81,23.02,28.49,7,9.68,11.71,17.19,14.75,22.26,2.99,5.07,4.31,7.66,4.31,7.66v-.05Z"/>
            <path class="cls-8" d="m119.7,116.13c-.25,4.36-.56,8.47-.76,12.12-.2,3.65-.35,6.9-.46,9.63-.3,5.32-.46,8.47-.46,8.47,0,0-3.09-.71-8.26-1.83-2.64-.61-5.83-1.32-9.38-2.13-3.6-.76-7.6-1.62-11.86-2.53-4.06-6.34-6.9-12.47-8.82-18.15s-2.84-10.75-3.24-15.16c-.41-4.36-.25-7.96-.05-10.44.2-2.48.56-3.9.56-3.9,0,0,5.73.25,13.94,3.4,8.16,3.04,18.86,9.38,28.85,20.58l-.05-.05Z"/>
            <path class="cls-12" d="m98.87,153.59c-6.84-7.76-11.86-15.36-15.36-22.56-3.5-7.15-5.53-13.94-6.49-19.62-.96-5.73-1.01-10.55-.81-13.94.2-3.4.66-5.32.66-5.32l94.86,125.03s-2.64-2.23-7.1-5.98c-4.46-3.75-10.8-9.02-18.2-15.11-7.4-6.13-15.77-12.83-24.13-20.03-8.37-7.15-16.68-14.7-23.47-22.46h.05Z"/>
          </g>
          <g>
            <path class="cls-6" d="m42.79,140.01s1.77-.41,4.87-.56c3.14-.1,7.6,0,12.93,1.06s11.41,2.94,18,6.34c6.59,3.4,13.54,8.16,20.63,14.65,7.1,6.49,13.89,14.3,20.38,22.16,6.44,7.81,12.68,15.82,18.1,22.76,5.48,6.95,10.19,12.88,13.59,17.09,3.45,4.21,5.48,6.74,5.48,6.74,0,0-2.89-1.42-7.76-3.75-4.87-2.33-11.86-5.63-19.82-9.33-7.96-3.7-17.09-7.86-26.26-12.37-9.18-4.51-18.35-9.38-26.26-14.8-7.91-5.42-14.15-11.05-18.91-16.68-4.77-5.63-8.11-11.15-10.39-16.12-2.23-4.92-3.35-9.18-3.9-12.27-.56-3.04-.61-4.87-.61-4.87l-.05-.05Z"/>
            <path class="cls-10" d="m67.89,183.3c7.3-.3,13.44-.61,18.4-.66,4.87-.05,8.47-.15,10.19-.15-.2-.86-.51-2.13-.86-3.8s-.81-3.7-1.27-6.08c-.96-4.77-2.33-11.05-3.55-18.05.76.61,1.57,1.22,2.38,1.83,1.37,7.96,2.89,14.75,3.8,19.37.51,2.33.86,4.16,1.17,5.48.3,1.27.46,1.98.46,2.03l.25,1.12h-1.17s-2.89.1-7.66.15c-1.22,0-2.53,0-4.01.05-1.42.05-2.99.1-4.61.15-3.35.15-7.1.3-11.15.46-.76-.61-1.57-1.27-2.28-1.88h-.1Z"/>
            <path class="cls-13" d="m165.54,237.2s-2.38-1.27-7.05-4.11c-4.61-2.89-11.51-7.4-20.33-14.04-8.82-6.69-18.51-15.01-25.91-21.85-7.4-6.79-12.47-12.02-12.47-12.02,0,0,6.24,3.75,14.55,9.38,8.31,5.58,18.71,13.13,27.23,20.18,8.52,7.05,14.45,12.67,18.35,16.58,3.9,3.85,5.68,5.93,5.68,5.93l-.05-.05Z"/>
            <path class="cls-1" d="m86.65,151.62c.35,1.98.76,3.9,1.12,5.78.35,1.88.76,3.65,1.06,5.32.66,3.3,1.27,6.24,1.77,8.67.46,2.43.86,4.31,1.17,5.68.3,1.32.41,2.08.41,2.08,0,0-2.94.1-7.91.25-5.07.05-11.91.41-20.13.66-10.14-9.48-15.77-19.42-18.51-27.07-2.74-7.6-2.84-12.88-2.84-12.88,0,0,1.27-.25,3.55-.46s5.63-.2,9.68.25c8.11.91,18.96,3.95,30.62,11.76v-.05Z"/>
            <path class="cls-12" d="m76.61,189.94c-7.91-5.42-14.15-11.05-18.91-16.68-4.77-5.63-8.11-11.15-10.39-16.12-2.23-4.92-3.35-9.18-3.9-12.27-.56-3.04-.61-4.87-.61-4.87l113.97,90.2s-2.89-1.42-7.76-3.75c-4.87-2.33-11.86-5.63-19.82-9.33-7.96-3.7-17.09-7.86-26.26-12.37-9.18-4.51-18.35-9.38-26.26-14.8h-.05Z"/>
          </g>
          <g>
            <path class="cls-4" d="m17.59,189.03s1.52-.81,4.36-1.72c1.42-.46,3.14-.96,5.17-1.37s4.41-.76,7-.96c5.22-.41,11.41-.15,18.3,1.27s14.6,4.06,22.82,8.21,16.48,9.63,24.59,15.26c8.06,5.63,15.77,11.41,22.61,16.43,3.4,2.48,6.59,4.82,9.43,6.9,2.89,2.08,5.42,3.9,7.55,5.48,4.26,3.04,6.74,4.82,6.74,4.82,0,0-3.04-.56-8.16-1.47-5.17-.96-12.37-2.18-20.74-3.55-8.37-1.37-17.9-2.94-27.53-4.77-9.63-1.88-19.32-4.01-28.04-7-8.67-2.99-15.97-6.69-21.8-10.65-5.83-3.95-10.29-8.21-13.64-12.22-3.35-4.01-5.58-7.71-6.84-10.34-1.32-2.69-1.83-4.31-1.83-4.31Z"/>
            <path class="cls-3" d="m51.87,222.65c6.59-2.13,12.42-3.9,16.88-5.27,4.46-1.37,7.86-2.28,9.38-2.74-.76-1.47-2.38-4.51-4.61-8.67-2.13-4.16-4.87-9.53-7.96-15.82.86.35,1.77.71,2.64,1.06,3.45,7.05,6.44,12.88,8.52,16.93,2.18,4.11,3.45,6.49,3.45,6.54l.51.96-1.06.3s-2.69.76-7.1,2.08c-4.36,1.37-10.65,3.24-18.1,5.68-.86-.41-1.77-.76-2.64-1.17l.1.1Z"/>
            <path class="cls-13" d="m156.11,247.64s-2.53-.56-7.6-2.03c-5.02-1.47-12.57-3.9-22.46-7.81-9.89-3.95-20.99-9.18-29.56-13.59s-14.65-7.96-14.65-7.96c0,0,6.74,1.88,15.87,4.97,9.13,3.04,20.63,7.4,30.32,11.71,9.68,4.36,16.68,8.06,21.24,10.65s6.74,4.06,6.74,4.06h.1Z"/>
            <path class="cls-8" d="m61.1,188.58c3.55,6.95,6.59,12.98,8.77,17.29,2.18,4.26,3.5,6.74,3.5,6.74,0,0-2.74.81-7.3,2.18-4.56,1.42-11,3.4-18.45,5.73-11.86-6.19-19.47-13.94-24.03-20.33-2.33-3.19-3.75-5.98-4.66-7.96-.91-2.03-1.27-3.19-1.27-3.19,0,0,1.12-.56,3.19-1.32,2.08-.71,5.07-1.67,8.97-2.23,7.76-1.17,18.66-1.12,31.33,3.09h-.05Z"/>
            <path class="cls-12" d="m61.7,226.6c-8.67-2.99-15.97-6.69-21.8-10.65-5.83-3.95-10.29-8.21-13.64-12.22-3.35-4.01-5.58-7.71-6.84-10.34-1.32-2.69-1.83-4.31-1.83-4.31l128.58,54.35s-3.04-.56-8.16-1.47c-5.17-.96-12.37-2.18-20.74-3.55-8.37-1.37-17.9-2.94-27.53-4.77-9.63-1.88-19.32-4.01-28.04-7v-.05Z"/>
          </g>
          <g>
            <path class="cls-6" d="m21.5,233.7s1.32-.86,3.75-2.03c2.43-1.12,6.03-2.53,10.55-3.5,4.61-.96,10.19-1.47,16.58-.96,6.39.46,13.54,1.93,21.34,4.66,7.86,2.79,15.92,6.69,23.78,10.8,7.86,4.11,15.41,8.37,22.11,12.02,13.49,7.45,23.27,12.67,23.27,12.67,0,0-2.79-.15-7.5-.35-4.72-.2-11.31-.46-18.91-.76-7.66-.3-16.43-.56-25.2-1.06-8.82-.56-17.75-1.37-25.91-3.04-8.11-1.67-15.06-4.11-20.79-7-5.78-2.89-10.19-6.19-13.64-9.33-3.45-3.19-5.83-6.24-7.35-8.47s-2.13-3.65-2.13-3.65h.05Z"/>
            <path class="cls-10" d="m56.13,259.81c5.58-2.69,10.6-4.92,14.5-6.64,3.85-1.72,6.64-2.94,8.06-3.55-1.67-2.43-7.2-9.94-14.04-20.38.81.2,1.67.41,2.48.66,3.95,5.93,7.15,10.75,9.63,14.15,2.38,3.4,3.8,5.37,3.8,5.42l.56.81-.91.41s-.61.25-1.67.71c-1.01.46-2.54,1.12-4.41,1.98-3.75,1.72-9.28,4.11-15.51,7.15-.81-.25-1.67-.51-2.48-.71Z"/>
            <path class="cls-13" d="m152.25,270.05s-2.38-.2-7.05-.91c-4.66-.76-11.66-2.03-20.94-4.41-9.28-2.38-19.87-5.78-28.04-8.77-8.16-2.94-13.99-5.42-13.99-5.42,0,0,6.29.91,14.8,2.59,8.52,1.67,19.37,4.21,28.54,6.95,9.18,2.74,15.87,5.27,20.23,7.05,4.41,1.77,6.49,2.84,6.49,2.84l-.05.1Z"/>
            <path class="cls-1" d="m60.39,228.32c4.01,5.88,7.35,10.85,9.84,14.4,2.43,3.55,3.85,5.63,3.85,5.63,0,0-2.33,1.06-6.24,2.84-1.98.91-4.31,1.98-7,3.19-1.37.61-2.79,1.27-4.26,1.93-1.47.71-2.99,1.42-4.61,2.13-5.68-2.08-10.49-4.66-14.45-7.3-3.95-2.69-7.05-5.48-9.43-8.06-2.38-2.59-4.11-4.92-5.17-6.59-1.01-1.67-1.47-2.69-1.47-2.69,0,0,3.75-2.59,10.44-4.56,6.69-1.98,16.58-3.14,28.39-.86l.1-.05Z"/>
            <path class="cls-12" d="m65.35,262.19c-8.11-1.67-15.06-4.11-20.79-7-5.78-2.89-10.19-6.19-13.64-9.33-3.45-3.19-5.83-6.24-7.35-8.47s-2.13-3.65-2.13-3.65l121.38,33.72s-2.79-.15-7.5-.35c-4.72-.2-11.31-.46-18.91-.76-7.66-.3-16.43-.56-25.2-1.06-8.82-.56-17.74-1.37-25.91-3.04l.05-.05Z"/>
          </g>
          <g>
            <path class="cls-4" d="m31.79,277.86s.2-.25.71-.71c.46-.46,1.17-1.06,2.13-1.83,1.88-1.47,4.72-3.4,8.47-5.17,3.75-1.77,8.47-3.35,14.15-4.26,5.63-.91,12.17-1.12,19.52-.35,7.35.76,15.21,2.48,22.81,4.41,7.66,1.93,15.06,4.06,21.65,5.88,6.54,1.83,12.27,3.35,16.33,4.46,4.01,1.06,6.44,1.72,6.44,1.72,0,0-9.68,1.77-23.17,4.51-6.74,1.32-14.25,2.89-22.05,4.26-7.76,1.32-15.72,2.48-23.12,2.69-7.4.2-13.89-.46-19.42-1.83-5.53-1.32-10.24-3.24-13.79-5.27-3.6-2.03-6.29-4.16-8.06-5.78-1.77-1.62-2.64-2.74-2.64-2.74h.05Z"/>
            <path class="cls-3" d="m67.18,293.32c2.18-1.72,4.21-3.35,6.03-4.82s3.6-2.79,5.12-3.95c2.99-2.28,5.17-3.9,6.24-4.72-1.01-.86-3.04-2.69-5.83-5.17-1.42-1.27-3.04-2.74-4.82-4.31-1.72-1.62-3.65-3.4-5.68-5.27h2.28c2.28,2.13,4.36,4.11,6.29,5.83,1.93,1.72,3.6,3.19,4.97,4.46,2.74,2.43,4.36,3.9,4.41,3.9l.66.61-.71.56s-1.77,1.32-4.66,3.6c-1.47,1.12-3.3,2.48-5.32,4.06-2.03,1.62-4.26,3.4-6.69,5.32-.76,0-1.52-.1-2.28-.1Z"/>
            <path class="cls-13" d="m152.66,282.37s-2.08.35-6.24.66c-4.21.3-10.55.66-19.11.51-8.57-.15-18.4-.91-26.11-1.83-7.71-.86-13.28-1.77-13.28-1.77,0,0,1.42-.1,3.75-.3,2.38-.15,5.73-.35,9.63-.51,7.76-.3,17.64-.35,26.21.15,8.52.51,14.8,1.32,19.01,1.93,4.16.66,6.19,1.12,6.19,1.12l-.05.05Z"/>
            <path class="cls-8" d="m64.39,265.13c4.56,4.26,8.67,7.86,11.51,10.44,2.84,2.54,4.51,4.06,4.51,4.06,0,0-1.77,1.37-4.77,3.75-1.52,1.17-3.35,2.59-5.48,4.21-2.08,1.62-4.36,3.45-6.79,5.37-10.7-1.32-18.76-4.92-23.88-8.42-5.17-3.5-7.71-6.69-7.71-6.69,0,0,.66-.76,2.03-1.88,1.37-1.12,3.4-2.69,6.13-4.21,2.74-1.52,6.08-3.09,10.19-4.31,4.11-1.22,8.87-2.08,14.25-2.33Z"/>
            <path class="cls-12" d="m75.7,293.47c-7.4.2-13.89-.46-19.42-1.83-5.53-1.32-10.24-3.24-13.79-5.27-3.6-2.03-6.29-4.16-8.06-5.78-1.77-1.62-2.64-2.74-2.64-2.74l112.2,4.21s-9.68,1.77-23.17,4.51c-6.74,1.32-14.25,2.89-22.05,4.26-7.76,1.32-15.72,2.48-23.12,2.69l.05-.05Z"/>
          </g>
        </g>
        <g>
          <path class="cls-6" d="m247.57,2s-19.77,22.71-20.23,69.92c-.46,47.2,20.23,108.9,20.23,108.9,0,0,20.69-61.75,20.23-108.9-.46-47.2-20.23-69.92-20.23-69.92Z"/>
          <path class="cls-10" d="m267.14,58.43c-9.18,14.2-16.98,24.49-19.52,27.78-2.53-3.3-10.34-13.59-19.52-27.78-.1,1.22-.2,2.43-.3,3.65,10.49,16.02,18.86,26.52,18.96,26.67l.86,1.12.86-1.12s8.47-10.65,18.96-26.67c-.1-1.22-.2-2.43-.3-3.65Z"/>
          <path class="cls-13" d="m247.57,194.66s4.21-13.13,4.31-40.36c.1-27.23-4.31-62.87-4.31-62.87,0,0-4.41,35.64-4.31,62.87s4.31,40.36,4.31,40.36Z"/>
          <path class="cls-1" d="m228.76,52.35c10.09,16.22,18.81,27.18,18.81,27.18,0,0,8.77-11,18.86-27.18-4.56-33.87-18.86-50.35-18.86-50.35,0,0-14.25,16.43-18.81,50.35Z"/>
          <path class="cls-12" d="m267.8,71.92c-.46-47.2-20.23-69.92-20.23-69.92v178.82s20.69-61.75,20.23-108.9Z"/>
        </g>
        <g>
          <path class="cls-14" d="m364.13,275.37c0-1.06,0-2.18-.1-3.35s-.2-2.33-.3-3.55c-.15-2.48-.66-5.02-1.06-7.71-.56-2.64-1.06-5.42-1.88-8.16-.71-2.79-1.67-5.53-2.59-8.26-1.06-2.69-2.08-5.42-3.35-8.01-.61-1.32-1.22-2.59-1.88-3.85-.66-1.27-1.27-2.48-1.98-3.7-1.42-2.38-2.74-4.66-4.16-6.74-1.37-2.13-2.79-4.01-4.16-5.78-1.32-1.77-2.64-3.3-3.8-4.66-1.12-1.37-2.23-2.48-3.09-3.45-1.72-1.93-2.79-2.94-2.79-2.94,0,0-1.06-1.01-2.89-2.84-.96-.86-2.13-1.88-3.5-3.09-1.32-1.22-2.94-2.43-4.66-3.8-1.77-1.37-3.7-2.74-5.78-4.21-2.13-1.37-4.36-2.89-6.79-4.26-2.38-1.42-4.92-2.74-7.55-4.06-1.32-.66-2.64-1.22-4.01-1.83-1.32-.61-2.69-1.22-4.11-1.72-2.74-1.12-5.53-2.08-8.31-2.94-2.79-.86-5.53-1.62-8.26-2.23-2.69-.61-5.32-1.17-7.86-1.52-2.48-.46-4.87-.71-7.1-.91-2.18-.25-4.21-.3-6.03-.41-1.77-.1-3.35-.1-4.66-.1-2.59,0-4.06.05-4.06.05,0,0-1.47,0-4.06-.05-1.27,0-2.84,0-4.66.1-1.77.1-3.8.15-6.03.41-2.18.2-4.56.46-7.1.91-2.53.35-5.12.91-7.86,1.52-2.69.61-5.48,1.37-8.26,2.23-2.79.91-5.58,1.83-8.31,2.94-1.37.51-2.74,1.12-4.11,1.72-1.32.61-2.69,1.17-4.01,1.83-2.59,1.32-5.17,2.59-7.55,4.06-2.43,1.37-4.61,2.89-6.79,4.26-2.08,1.47-4.06,2.84-5.78,4.21-1.72,1.37-3.35,2.59-4.66,3.8s-2.53,2.23-3.5,3.09c-1.83,1.83-2.89,2.84-2.89,2.84,0,0-1.06,1.01-2.79,2.94-.86.96-1.98,2.08-3.09,3.45-1.12,1.37-2.48,2.89-3.8,4.66s-2.79,3.65-4.16,5.78c-1.42,2.08-2.79,4.36-4.16,6.74-.71,1.17-1.32,2.43-1.98,3.7s-1.32,2.53-1.88,3.85c-1.27,2.59-2.28,5.32-3.35,8.01-.96,2.74-1.93,5.48-2.59,8.26-.81,2.74-1.32,5.53-1.88,8.16-.41,2.69-.86,5.22-1.06,7.71-.1,1.22-.2,2.43-.3,3.55-.05,1.17-.1,2.28-.1,3.35-.1,2.13,0,4.11,0,5.83s.1,3.24.25,4.46c.25,2.43.41,3.85.41,3.85h19.72s.2-1.12.61-3.09c.15-.96.41-2.18.76-3.5.3-1.37.66-2.84,1.12-4.46.41-1.62.96-3.35,1.57-5.17.56-1.83,1.37-3.65,2.08-5.58.81-1.88,1.62-3.85,2.64-5.73.86-1.93,2.03-3.8,3.04-5.73,1.12-1.88,2.23-3.7,3.45-5.42,1.12-1.77,2.48-3.4,3.65-5.02,1.27-1.57,2.43-3.09,3.7-4.41,1.17-1.42,2.38-2.64,3.5-3.75,1.06-1.17,2.23-2.13,3.14-2.99.91-.91,1.83-1.57,2.48-2.23,1.37-1.22,2.23-1.88,2.23-1.88,0,0,.81-.66,2.28-1.83.76-.56,1.67-1.22,2.69-1.98,1.01-.76,2.28-1.52,3.6-2.43,1.32-.86,2.79-1.72,4.36-2.64,1.62-.86,3.24-1.83,5.02-2.64,1.72-.91,3.6-1.72,5.53-2.53,1.93-.76,3.85-1.62,5.83-2.28,1.01-.3,1.98-.71,2.99-1.01s1.98-.61,2.99-.91c1.98-.56,3.95-1.06,5.88-1.52,1.93-.41,3.75-.86,5.58-1.12,1.77-.35,3.45-.56,5.02-.76,1.57-.25,2.99-.35,4.31-.51,1.27-.15,2.38-.25,3.35-.3,1.88-.15,2.89-.2,2.89-.2,0,0,1.06.1,2.89.2.91,0,2.03.1,3.35.3,1.27.15,2.74.2,4.31.51,1.57.2,3.24.41,5.02.76,1.77.3,3.65.71,5.58,1.12,1.93.41,3.9.96,5.88,1.52,1.01.3,1.98.61,2.99.91s1.98.71,2.99,1.01c1.98.66,3.9,1.52,5.83,2.28,1.88.81,3.75,1.67,5.53,2.53,1.77.81,3.4,1.83,5.02,2.64,1.57.91,3.04,1.77,4.36,2.64,1.32.91,2.53,1.67,3.6,2.43,1.06.76,1.93,1.42,2.69,1.98,1.42,1.17,2.28,1.83,2.28,1.83,0,0,.86.61,2.23,1.88.71.61,1.57,1.32,2.48,2.23s2.03,1.88,3.14,2.99c1.12,1.17,2.33,2.38,3.5,3.75,1.27,1.32,2.43,2.84,3.7,4.41,1.17,1.62,2.53,3.24,3.65,5.02,1.22,1.72,2.33,3.6,3.45,5.42,1.01,1.88,2.13,3.75,3.04,5.73,1.01,1.93,1.77,3.85,2.64,5.73.71,1.93,1.52,3.75,2.08,5.58.61,1.83,1.17,3.55,1.57,5.17.51,1.62.86,3.09,1.12,4.46.3,1.32.56,2.53.76,3.5.35,1.98.61,3.09.61,3.09h19.72s.15-1.42.41-3.85c.15-1.22.25-2.74.25-4.46.05-1.72.15-3.7,0-5.83h.1Z"/>
          <path class="cls-4" d="m277.48,201.4s2.38-1.47,4.92-2.94c2.53-1.42,5.17-2.64,5.17-2.64,0,0,1.17,2.69,2.08,5.42.46,1.32.91,2.69,1.27,3.65.3,1.01.51,1.67.51,1.67,0,0-.81-.41-2.13-.91s-2.99-1.32-4.77-1.88c-1.72-.66-3.5-1.27-4.82-1.67-1.32-.41-2.23-.71-2.23-.71Z"/>
          <path class="cls-6" d="m316.32,203.63s-.71.05-1.83.25c-1.12.15-2.53.41-3.95.71-2.84.51-5.63,1.27-5.63,1.27,0,0-.15-.71-.41-1.77-.25-1.06-.61-2.48-1.01-3.9-.76-2.79-1.72-5.73-1.72-5.73,0,0,.91.51,2.33,1.32.71.41,1.52.86,2.38,1.37.86.51,1.77,1.12,2.69,1.67,1.83,1.12,3.6,2.38,4.92,3.3,1.32.91,2.18,1.57,2.18,1.57l.05-.05Z"/>
          <path class="cls-6" d="m277.79,185.13s-2.64,1.47-5.07,3.19c-1.22.81-2.43,1.67-3.35,2.28-.91.66-1.47,1.12-1.47,1.12,0,0-1.57-2.43-3.3-4.92-1.72-2.38-3.65-4.72-3.65-4.72,0,0,1.06.1,2.64.3,1.62.15,3.7.56,5.83.91,2.13.35,4.21.86,5.78,1.22.81.15,1.42.35,1.88.46s.71.2.71.2v-.05Z"/>
          <path class="cls-4" d="m336.24,246.07s2.48.76,4.87,1.72,4.72,2.13,4.72,2.13c0,0-.15.61-.46,1.57-.25.91-.61,2.13-.96,3.35-.35,1.17-.71,2.38-1.01,3.24s-.51,1.42-.51,1.42c0,0-.35-.86-.86-2.18-.61-1.27-1.37-2.99-2.18-4.66-.91-1.67-1.72-3.35-2.43-4.56-.71-1.22-1.17-2.03-1.17-2.03Z"/>
          <path class="cls-6" d="m357.79,276.44s-.35-.46-.91-1.22c-.56-.71-1.32-1.62-2.18-2.53-1.67-1.77-3.45-3.45-3.45-3.45,0,0,.96-2.28,1.88-4.61.51-1.22.91-2.38,1.27-3.3s.56-1.57.56-1.57c0,0,.25,1.01.66,2.59.35,1.52.76,3.65,1.17,5.68.3,2.08.61,4.16.81,5.73.15,1.57.2,2.64.2,2.64v.05Z"/>
          <path class="cls-6" d="m345.22,236.08s-.66-.2-1.57-.56c-.96-.35-2.23-.76-3.55-1.12-1.32-.35-2.64-.71-3.6-.91-.96-.25-1.67-.35-1.67-.35,0,0,.25-2.74.51-5.48.15-2.74.25-5.63.25-5.63,0,0,.66.86,1.67,2.08,1.01,1.22,2.23,2.99,3.45,4.72,1.22,1.77,2.33,3.6,3.19,4.92.81,1.37,1.32,2.33,1.32,2.33Z"/>
          <path class="cls-4" d="m217.71,201.4s-2.38-1.47-4.92-2.94c-2.53-1.42-5.17-2.64-5.17-2.64,0,0-1.17,2.69-2.08,5.42-.46,1.32-.91,2.69-1.27,3.65-.3,1.01-.51,1.67-.51,1.67,0,0,.81-.41,2.13-.91s2.99-1.32,4.77-1.88c1.72-.66,3.5-1.27,4.82-1.67,1.32-.41,2.23-.71,2.23-.71Z"/>
          <path class="cls-6" d="m178.87,203.63s.71.05,1.83.25c1.12.15,2.53.41,3.95.71,2.84.51,5.63,1.27,5.63,1.27,0,0,.15-.71.41-1.77.25-1.06.61-2.48,1.01-3.9.76-2.79,1.72-5.73,1.72-5.73,0,0-.91.51-2.33,1.32-.71.41-1.52.86-2.38,1.37-.86.51-1.77,1.12-2.69,1.67-1.83,1.12-3.6,2.38-4.92,3.3-1.32.91-2.18,1.57-2.18,1.57l-.05-.05Z"/>
          <path class="cls-6" d="m217.4,185.13s2.59,1.47,5.07,3.19c1.22.81,2.43,1.67,3.35,2.28.91.66,1.47,1.12,1.47,1.12,0,0,1.57-2.43,3.3-4.92,1.72-2.38,3.65-4.72,3.65-4.72,0,0-1.06.1-2.64.3-1.62.15-3.7.56-5.83.91-2.13.35-4.21.86-5.78,1.22-.81.15-1.42.35-1.88.46s-.71.2-.71.2v-.05Z"/>
          <g>
            <path class="cls-8" d="m366.46,271.62c-.1-1.17-.15-2.38-.25-3.65-.15-2.53-.61-5.17-.96-7.91-.51-2.74-1.01-5.58-1.77-8.42-.71-2.84-1.62-5.68-2.59-8.52-1.06-2.79-2.08-5.63-3.35-8.31-.61-1.37-1.22-2.69-1.88-3.95-.66-1.27-1.27-2.59-1.98-3.8-1.42-2.43-2.79-4.82-4.21-7s-2.84-4.16-4.21-5.98c-1.32-1.88-2.69-3.4-3.85-4.87s-2.28-2.59-3.14-3.6c-1.77-1.98-2.84-3.04-2.84-3.04,0,0-1.06-1.06-2.99-2.94-.96-.91-2.18-1.98-3.55-3.19-1.37-1.27-3.04-2.53-4.82-3.95s-3.8-2.84-5.93-4.36c-2.18-1.42-4.46-2.99-6.95-4.41-2.43-1.47-5.07-2.84-7.76-4.21-1.32-.71-2.74-1.27-4.11-1.93s-2.79-1.22-4.21-1.77c-2.84-1.17-5.73-2.13-8.57-3.04-2.89-.86-5.73-1.67-8.52-2.33-2.79-.61-5.48-1.22-8.06-1.57-2.59-.46-5.02-.71-7.3-.91-2.28-.25-4.36-.3-6.19-.41s-3.45-.1-4.77-.1c-2.64.05-4.16.1-4.16.1,0,0-1.52,0-4.16-.1-1.32,0-2.94,0-4.77.1-1.83.1-3.9.15-6.19.41-2.28.2-4.72.46-7.3.91-2.59.35-5.27.96-8.06,1.57-2.79.66-5.63,1.42-8.52,2.33-2.84.91-5.73,1.88-8.57,3.04-1.42.56-2.84,1.17-4.21,1.77s-2.79,1.22-4.11,1.93c-2.69,1.37-5.32,2.69-7.76,4.21-2.48,1.42-4.77,2.99-6.95,4.41-2.13,1.52-4.16,2.94-5.93,4.36s-3.45,2.69-4.82,3.95c-1.37,1.22-2.59,2.33-3.55,3.19-1.88,1.88-2.99,2.94-2.99,2.94,0,0-1.12,1.06-2.84,3.04-.86,1.01-1.98,2.13-3.14,3.6-1.17,1.42-2.53,2.99-3.85,4.87-1.37,1.83-2.79,3.8-4.21,5.98-1.47,2.13-2.79,4.56-4.21,7-.71,1.22-1.32,2.54-1.98,3.8s-1.32,2.64-1.88,3.95c-1.27,2.69-2.28,5.53-3.35,8.31-.96,2.84-1.88,5.68-2.59,8.52-.76,2.84-1.27,5.68-1.77,8.42-.35,2.74-.81,5.37-.96,7.91-.1,1.27-.15,2.48-.25,3.65-.05,1.17,0,2.33-.05,3.45-.05,2.18.05,4.21.15,5.98.05,1.77.2,3.3.41,4.56.3,2.48.51,3.9.51,3.9h4.16s-.1-1.37-.3-3.75c-.1-1.22-.15-2.69-.15-4.36s-.05-3.6.1-5.68c.05-1.06.1-2.13.2-3.24s.25-2.28.35-3.45c.2-2.38.71-4.87,1.17-7.5.56-2.59,1.12-5.22,1.93-7.91.71-2.69,1.67-5.32,2.64-8.01,1.06-2.64,2.13-5.27,3.35-7.76.61-1.27,1.22-2.53,1.88-3.7.66-1.22,1.27-2.43,1.98-3.55,1.37-2.28,2.69-4.51,4.11-6.49,1.37-2.03,2.79-3.85,4.06-5.58s2.59-3.14,3.7-4.51c1.12-1.32,2.18-2.38,3.04-3.35,1.67-1.83,2.74-2.79,2.74-2.79,0,0,1.01-1.01,2.84-2.74.96-.81,2.08-1.83,3.4-2.99s2.89-2.33,4.56-3.65c1.72-1.32,3.6-2.64,5.63-4.06,2.08-1.32,4.26-2.79,6.59-4.06,2.33-1.37,4.82-2.64,7.3-3.9,1.27-.66,2.59-1.17,3.85-1.77,1.32-.61,2.64-1.17,3.95-1.67,2.64-1.06,5.37-1.98,8.06-2.84,2.69-.81,5.37-1.57,8.01-2.18,2.64-.56,5.17-1.17,7.6-1.47,2.43-.46,4.72-.66,6.84-.91s4.11-.3,5.83-.41,3.24-.15,4.51-.1h7.81c1.27,0,2.79,0,4.51.1s3.7.15,5.83.41c2.13.2,4.46.46,6.84.91,2.43.35,4.97.91,7.6,1.47,2.64.61,5.27,1.37,8.01,2.18,2.69.86,5.42,1.77,8.06,2.84,1.32.51,2.69,1.06,3.95,1.67,1.32.61,2.64,1.12,3.85,1.77,2.53,1.27,5.02,2.48,7.3,3.9,2.33,1.32,4.51,2.74,6.59,4.06,2.03,1.42,3.9,2.74,5.63,4.06,1.67,1.32,3.24,2.48,4.56,3.65s2.43,2.13,3.4,2.99c1.83,1.72,2.84,2.74,2.84,2.74,0,0,1.06.96,2.74,2.79.86.91,1.93,1.98,3.04,3.35,1.12,1.32,2.43,2.79,3.7,4.51,1.32,1.67,2.74,3.5,4.06,5.58,1.42,1.98,2.74,4.21,4.11,6.49.71,1.17,1.32,2.38,1.98,3.55.66,1.22,1.27,2.43,1.88,3.7,1.27,2.48,2.28,5.12,3.35,7.76.96,2.69,1.93,5.32,2.64,8.01.81,2.64,1.37,5.32,1.93,7.91.46,2.59.96,5.07,1.17,7.5.1,1.22.25,2.33.35,3.45s.1,2.23.2,3.24c.15,2.08.1,4.01.1,5.68s0,3.14-.15,4.36c-.2,2.38-.3,3.75-.3,3.75h4.16s.2-1.42.51-3.9c.2-1.27.3-2.79.41-4.56.1-1.77.2-3.75.15-5.98,0-1.12,0-2.23-.05-3.45h.1Z"/>
            <path class="cls-8" d="m344.66,282.73c-.25-1.37-.56-2.94-1.01-4.61-.35-1.67-.86-3.45-1.47-5.32-.51-1.88-1.27-3.8-1.98-5.83-.81-1.98-1.57-4.01-2.53-5.98-.86-2.03-1.98-4.01-2.99-5.98-1.12-1.93-2.23-3.85-3.45-5.73-1.12-1.88-2.48-3.6-3.65-5.27-2.53-3.3-5.02-6.24-7.35-8.62-1.12-1.22-2.28-2.23-3.19-3.19-.91-.96-1.88-1.67-2.59-2.33-1.42-1.32-2.28-1.98-2.28-1.98,0,0-.86-.71-2.33-1.93-.76-.56-1.72-1.27-2.79-2.08s-2.33-1.62-3.7-2.54-2.89-1.83-4.51-2.79c-1.67-.91-3.35-1.93-5.22-2.84-1.83-.96-3.75-1.83-5.73-2.69-1.98-.81-4.01-1.72-6.08-2.38-1.01-.35-2.08-.76-3.09-1.06-1.01-.3-2.08-.66-3.09-.96-2.08-.61-4.11-1.17-6.13-1.57-1.98-.46-3.95-.86-5.78-1.17-1.83-.35-3.6-.56-5.27-.81-1.62-.25-3.14-.35-4.46-.46-1.32-.15-2.48-.2-3.45-.25-1.93-.1-3.04-.2-3.04-.2,0,0-1.12.05-3.04.2-.96,0-2.13.1-3.45.25-1.32.15-2.84.2-4.46.46-1.62.2-3.4.41-5.27.81-1.88.3-3.8.71-5.78,1.17s-4.06,1.01-6.13,1.57c-1.01.3-2.08.61-3.09.96s-2.08.71-3.09,1.06c-2.08.66-4.06,1.57-6.08,2.38-1.98.86-3.9,1.72-5.73,2.69-1.88.86-3.55,1.93-5.22,2.84-1.62.96-3.14,1.88-4.51,2.79-1.32.96-2.64,1.72-3.7,2.54s-2.03,1.47-2.79,2.08c-1.47,1.22-2.33,1.93-2.33,1.93,0,0-.86.66-2.28,1.98-.71.66-1.62,1.37-2.59,2.33-.91.96-2.08,1.98-3.19,3.19-2.28,2.38-4.82,5.32-7.35,8.62-1.17,1.67-2.54,3.4-3.65,5.27-1.22,1.83-2.33,3.75-3.45,5.73-1.01,1.98-2.13,3.95-2.99,5.98-.96,1.98-1.72,4.06-2.53,5.98-.71,1.98-1.42,3.9-1.98,5.83-.56,1.88-1.06,3.65-1.47,5.32-.46,1.67-.76,3.24-1.01,4.61-.3,1.37-.51,2.59-.61,3.6-.3,2.03-.51,3.19-.51,3.19h4.16s.25-1.12.71-3.04c.2-.96.51-2.13.86-3.4.3-1.32.71-2.74,1.27-4.31.46-1.57,1.06-3.24,1.67-4.97s1.42-3.55,2.18-5.37c.86-1.83,1.67-3.7,2.69-5.53.91-1.88,2.03-3.65,3.09-5.42,1.12-1.77,2.23-3.5,3.45-5.17,1.12-1.67,2.43-3.19,3.6-4.77,1.27-1.47,2.43-2.89,3.65-4.16,1.17-1.32,2.38-2.48,3.45-3.55,1.06-1.12,2.18-1.98,3.04-2.84.91-.86,1.77-1.52,2.43-2.08,1.32-1.17,2.18-1.72,2.18-1.72,0,0,.81-.61,2.18-1.72.71-.51,1.62-1.12,2.64-1.83s2.23-1.42,3.45-2.28c1.27-.81,2.74-1.62,4.21-2.48,1.52-.81,3.09-1.72,4.82-2.48,1.67-.86,3.45-1.62,5.27-2.38,1.88-.71,3.7-1.52,5.58-2.13l2.84-.96c.96-.3,1.93-.56,2.84-.86,1.88-.51,3.8-1.01,5.63-1.42,1.83-.41,3.6-.81,5.32-1.06,1.67-.35,3.35-.56,4.82-.76,1.47-.25,2.89-.35,4.11-.51s2.28-.25,3.19-.3c1.77-.15,2.79-.25,2.79-.25,0,0,1.01.1,2.79.25.86.05,1.98.15,3.19.3,1.22.15,2.64.25,4.11.51,1.52.2,3.14.41,4.82.76,1.72.25,3.5.66,5.32,1.06,1.83.41,3.7.91,5.63,1.42.96.3,1.93.56,2.84.86l2.84.96c1.93.61,3.75,1.42,5.58,2.13,1.83.76,3.6,1.57,5.27,2.38,1.72.76,3.3,1.67,4.82,2.48,1.52.86,2.94,1.67,4.21,2.48,1.27.86,2.48,1.52,3.45,2.28,1.01.71,1.88,1.32,2.64,1.83,1.42,1.06,2.18,1.72,2.18,1.72,0,0,.86.61,2.18,1.72.66.61,1.57,1.22,2.43,2.08s1.98,1.72,3.04,2.84c1.06,1.06,2.28,2.23,3.45,3.55,1.27,1.27,2.38,2.69,3.65,4.16,1.17,1.52,2.48,3.04,3.6,4.77,1.22,1.67,2.33,3.4,3.45,5.17,1.01,1.83,2.18,3.6,3.09,5.42,1.01,1.83,1.83,3.7,2.69,5.53.76,1.83,1.57,3.6,2.18,5.37.66,1.72,1.27,3.4,1.67,4.97.51,1.57.91,3.04,1.27,4.31.35,1.32.66,2.43.86,3.4.46,1.93.71,3.04.71,3.04h4.16s-.2-1.17-.51-3.19c-.1-1.01-.35-2.23-.61-3.6h.41Z"/>
          </g>
          <g>
            <path class="cls-6" d="m329.1,209.46s-1.77-.1-4.41-.1c-2.69.05-6.13.2-9.63.66-1.72.2-3.45.51-5.02.76-1.62.3-3.09.66-4.31.91-2.48.56-4.11,1.12-4.11,1.12,0,0-.35-1.77-.91-4.41-.66-2.59-1.57-6.24-2.79-9.84-.61-1.77-1.22-3.65-1.88-5.32-.66-1.67-1.32-3.24-1.93-4.66-.61-1.37-1.12-2.53-1.47-3.3-.35-.81-.61-1.22-.61-1.22,0,0-1.88.76-4.56,1.93-2.74,1.32-6.13,2.94-9.48,4.97-3.3,1.93-6.44,4.06-8.67,5.73-1.12.81-2.03,1.52-2.69,2.03-.61.51-.96.81-.96.81,0,0-.86-1.47-2.33-3.7-1.47-2.13-3.5-5.07-5.78-7.81-2.28-2.74-4.72-5.48-6.64-7.35-1.93-1.93-3.3-3.19-3.3-3.19v5.32s1.32,1.27,3.14,3.19c1.83,1.88,4.21,4.66,6.34,7.4,2.13,2.79,4.11,5.68,5.42,7.81,1.37,2.23,2.18,3.65,2.18,3.65,0,0,.35-.3.96-.81s1.47-1.22,2.54-2.03c2.13-1.67,5.12-3.85,8.31-5.78,3.19-2.08,6.49-3.75,9.13-5.12,2.59-1.22,4.41-1.98,4.41-1.98,0,0,.2.46.56,1.22s.86,1.88,1.37,3.24c.56,1.37,1.17,2.89,1.77,4.56s1.17,3.5,1.72,5.22c1.12,3.5,1.93,7.05,2.48,9.58.51,2.59.81,4.31.81,4.31,0,0,1.57-.56,4.01-1.22,1.22-.3,2.64-.71,4.21-1.06,1.52-.3,3.19-.61,4.92-.91,3.4-.56,6.79-.81,9.43-.91,2.59-.1,4.36,0,4.36,0l3.35-3.65.05-.05Z"/>
            <path class="cls-6" d="m358.55,286.27c-.91-1.93-2.54-4.36-4.26-6.69-1.83-2.33-3.7-4.46-5.37-5.98-1.62-1.52-2.74-2.43-2.74-2.43,0,0,.15-.35.41-.96s.61-1.47,1.01-2.53c.91-2.18,1.98-5.12,3.09-8.26,1.01-3.14,2.13-6.49,2.79-9.08.35-1.32.66-2.38.86-3.19.2-.76.3-1.22.3-1.22,0,0-1.52-.91-3.8-2.13-2.28-1.22-5.48-2.69-8.72-3.85-1.62-.56-3.3-1.12-4.82-1.57-1.57-.41-3.04-.76-4.31-1.01-2.48-.56-4.21-.76-4.21-.76,0,0,.15-1.57.41-3.95.15-2.33.41-5.68.46-9.08v-5.07c-.1-1.67-.15-3.19-.2-4.51-.15-2.74-.35-4.51-.35-4.51l-3.35,3.65s.2,1.72.25,4.36c0,1.27.1,2.79.15,4.36,0,1.57,0,3.3-.05,4.92-.05,3.24-.35,6.49-.56,8.72-.25,2.28-.46,3.8-.46,3.8,0,0,1.72.15,4.21.61,1.27.2,2.69.51,4.26.86,1.52.41,3.14.86,4.82,1.37,3.24,1.06,6.44,2.33,8.72,3.5,2.28,1.12,3.8,1.98,3.8,1.98,0,0-.1.41-.3,1.17-.2.76-.51,1.77-.86,3.04-.66,2.48-1.72,5.73-2.69,8.72-1.12,3.04-2.13,5.88-2.99,7.96-.41,1.01-.71,1.88-.96,2.43s-.41.91-.41.91c0,0,1.17.86,2.79,2.33,1.67,1.42,3.65,3.5,5.58,5.73,1.77,2.23,3.5,4.61,4.51,6.44,1.06,1.83,1.67,3.14,1.67,3.14h2.84s-.56-1.32-1.57-3.24l.05.05Z"/>
            <path class="cls-6" d="m237.63,187.97c-2.28,2.79-4.31,5.68-5.78,7.81-1.42,2.23-2.33,3.7-2.33,3.7,0,0-.35-.3-.96-.81-.66-.51-1.57-1.22-2.69-2.03-2.23-1.62-5.37-3.8-8.67-5.73-3.3-2.03-6.74-3.65-9.48-4.97-2.69-1.17-4.56-1.93-4.56-1.93,0,0-.2.46-.61,1.22-.41.76-.91,1.93-1.47,3.3-.61,1.37-1.27,2.94-1.93,4.66-.66,1.72-1.27,3.55-1.88,5.32-1.22,3.6-2.13,7.2-2.79,9.84-.56,2.64-.91,4.41-.91,4.41,0,0-1.62-.51-4.11-1.12-1.27-.3-2.74-.61-4.31-.91-1.57-.25-3.3-.51-5.02-.76-3.5-.46-6.95-.61-9.63-.66-2.64,0-4.41.1-4.41.1l3.35,3.65h4.36c2.64.15,6.03.35,9.43.91,1.67.25,3.35.56,4.92.91s2.99.71,4.21,1.06c2.43.66,4.01,1.22,4.01,1.22,0,0,.3-1.72.81-4.31.56-2.53,1.42-6.08,2.48-9.58.56-1.77,1.12-3.55,1.72-5.22.61-1.67,1.22-3.19,1.77-4.56.56-1.37,1.01-2.48,1.37-3.24.35-.76.56-1.22.56-1.22,0,0,1.83.76,4.41,1.98,2.64,1.37,5.93,3.04,9.13,5.12,3.19,1.98,6.19,4.16,8.31,5.78,1.06.81,1.93,1.52,2.54,2.03.61.51.96.81.96.81,0,0,.81-1.47,2.18-3.65,1.37-2.13,3.3-5.02,5.42-7.81,2.13-2.74,4.46-5.53,6.34-7.4,1.83-1.93,3.14-3.19,3.14-3.19v-5.32s-1.37,1.27-3.3,3.19c-1.93,1.88-4.41,4.61-6.64,7.35l.05.05Z"/>
            <path class="cls-6" d="m169.09,226.8c0-1.62-.05-3.35-.05-4.92s.1-3.09.15-4.36c.1-2.64.25-4.36.25-4.36l-3.35-3.65s-.2,1.77-.35,4.51c-.05,1.32-.15,2.84-.2,4.51v5.07c0,3.4.25,6.69.46,9.08.25,2.38.41,3.95.41,3.95,0,0-1.72.2-4.21.76-1.27.25-2.74.61-4.31,1.01-1.52.46-3.19.96-4.82,1.57-3.24,1.17-6.44,2.59-8.72,3.85-2.28,1.22-3.8,2.13-3.8,2.13,0,0,.1.46.3,1.22.2.76.51,1.88.86,3.19.66,2.59,1.77,5.93,2.79,9.08,1.17,3.19,2.18,6.13,3.09,8.26.41,1.06.76,1.93,1.01,2.53.25.61.41.96.41.96,0,0-1.12.91-2.74,2.43-1.62,1.52-3.55,3.65-5.37,5.98-1.72,2.33-3.35,4.77-4.26,6.69-1.01,1.93-1.57,3.24-1.57,3.24h2.84s.61-1.27,1.67-3.14c1.01-1.88,2.74-4.21,4.51-6.44,1.93-2.23,3.85-4.31,5.58-5.73,1.67-1.42,2.79-2.33,2.79-2.33,0,0-.15-.35-.41-.91-.25-.61-.56-1.42-.96-2.43-.86-2.08-1.88-4.92-2.99-7.96-.96-2.99-2.08-6.24-2.69-8.72-.35-1.27-.66-2.33-.86-3.04-.2-.76-.3-1.17-.3-1.17,0,0,1.52-.86,3.8-1.98,2.28-1.17,5.48-2.43,8.72-3.5,1.62-.51,3.3-.96,4.82-1.37,1.57-.35,3.04-.66,4.26-.86,2.48-.46,4.21-.61,4.21-.61,0,0-.2-1.52-.46-3.8-.2-2.28-.51-5.48-.56-8.72l.05-.05Z"/>
          </g>
          <path class="cls-4" d="m158.95,246.07s-2.48.76-4.87,1.72c-2.38.96-4.72,2.13-4.72,2.13,0,0,.15.61.46,1.57.25.91.61,2.13.96,3.35.35,1.17.71,2.38,1.01,3.24.3.86.51,1.42.51,1.42,0,0,.35-.86.86-2.18.61-1.27,1.37-2.99,2.18-4.66.91-1.67,1.72-3.35,2.43-4.56.71-1.22,1.17-2.03,1.17-2.03Z"/>
          <path class="cls-6" d="m137.4,276.44s.35-.46.91-1.22c.56-.71,1.32-1.62,2.18-2.53,1.67-1.77,3.45-3.45,3.45-3.45,0,0-.96-2.28-1.88-4.61-.51-1.22-.91-2.38-1.27-3.3s-.56-1.57-.56-1.57c0,0-.25,1.01-.66,2.59-.35,1.52-.76,3.65-1.17,5.68-.3,2.08-.61,4.16-.81,5.73-.15,1.57-.2,2.64-.2,2.64v.05Z"/>
          <path class="cls-6" d="m149.97,236.08s.66-.2,1.57-.56c.96-.35,2.23-.76,3.55-1.12s2.64-.71,3.6-.91c.96-.25,1.67-.35,1.67-.35,0,0-.25-2.74-.51-5.48-.15-2.74-.25-5.63-.25-5.63,0,0-.66.86-1.67,2.08s-2.23,2.99-3.45,4.72c-1.22,1.77-2.33,3.6-3.19,4.92-.81,1.37-1.32,2.33-1.32,2.33Z"/>
          <g>
            <path class="cls-3" d="m316.52,217.42c-2.79.3-5.48.71-5.48.71,0,0,1.47,1.17,2.94,2.28,1.42,1.17,2.84,2.43,2.84,2.43l5.27-5.78s-2.79.05-5.58.35Z"/>
            <path class="cls-3" d="m251.47,192.83c-1.88-2.18-3.85-4.31-3.85-4.31v8.37s1.88.1,3.75.15c.91,0,1.88.05,2.53.15.71.05,1.17.1,1.17.1,0,0-.46-.56-1.06-1.42-.66-.86-1.57-1.98-2.48-3.04h-.05Z"/>
            <path class="cls-3" d="m351.71,285.57c-.61-.96-1.37-1.88-1.93-2.53s-.91-1.12-.91-1.12c0,0,.05.46.15,1.17s.25,1.67.3,2.59c.15,1.93.35,3.8.35,3.8h4.51s-1.17-2.03-2.43-3.9h-.05Z"/>
            <path class="cls-3" d="m322.2,218.84c-.05-1.06-.1-1.72-.1-1.72l-5.27,5.78s.35.3.86.76,1.17,1.12,1.88,1.72c.66.66,1.37,1.27,1.88,1.77.51.51.81.86.81.86,0,0,0-.66.05-1.67v-3.7c0-1.37,0-2.74-.1-3.8h0Z"/>
            <path class="cls-3" d="m173.09,217.12l5.27,5.78s1.42-1.22,2.84-2.43c1.47-1.17,2.94-2.28,2.94-2.28,0,0-2.69-.46-5.48-.71-2.74-.25-5.58-.35-5.58-.35Z"/>
            <path class="cls-3" d="m241.23,195.88c-.66.86-1.06,1.42-1.06,1.42,0,0,.46,0,1.17-.1.71-.05,1.62-.15,2.54-.15,1.88-.1,3.75-.15,3.75-.15v-8.37s-2.03,2.13-3.85,4.31c-.91,1.06-1.83,2.18-2.48,3.04h-.05Z"/>
            <path class="cls-3" d="m143.48,285.57c-1.32,1.88-2.43,3.9-2.43,3.9h4.51s.15-1.93.35-3.8c.05-.96.2-1.88.3-2.59.1-.71.15-1.17.15-1.17,0,0-.35.46-.91,1.12s-1.27,1.62-1.93,2.53h-.05Z"/>
            <path class="cls-3" d="m172.99,218.84c0,1.06-.05,2.43-.1,3.8v3.7c0,1.01.05,1.67.05,1.67,0,0,.3-.35.81-.86s1.17-1.12,1.88-1.77c.66-.66,1.37-1.27,1.88-1.72s.86-.76.86-.76l-5.27-5.78s0,.71-.1,1.72Z"/>
          </g>
        </g>
        <g>
          <g>
            <path class="cls-1" d="m143.94,309.29c0,1.47-1.22,2.69-2.69,2.69h0c-1.47,0-2.69-1.22-2.69-2.69v-17.09c0-1.47,1.22-2.69,2.69-2.69h0c1.47,0,2.69,1.22,2.69,2.69v17.09Z"/>
            <g>
              <path class="cls-4" d="m141.25,509s19.77-22.71,20.23-69.92c.46-47.15-20.23-108.9-20.23-108.9,0,0-20.69,61.75-20.23,108.9.46,47.2,20.23,69.92,20.23,69.92Z"/>
              <path class="cls-3" d="m121.73,452.57c9.18-14.2,16.98-24.49,19.52-27.78,2.54,3.3,10.34,13.59,19.52,27.78.1-1.22.2-2.43.3-3.65-10.49-16.02-18.86-26.52-18.96-26.67l-.86-1.12-.86,1.12s-8.47,10.65-18.96,26.67c.1,1.22.2,2.43.3,3.65Z"/>
              <path class="cls-13" d="m141.25,316.34s-4.21,13.13-4.31,40.36c-.1,27.23,4.31,62.87,4.31,62.87,0,0,4.41-35.64,4.31-62.87s-4.31-40.36-4.31-40.36Z"/>
              <path class="cls-8" d="m160.11,458.65c-10.09-16.22-18.81-27.18-18.81-27.18,0,0-8.77,11-18.86,27.18,4.56,33.87,18.86,50.35,18.86,50.35,0,0,14.25-16.43,18.81-50.35Z"/>
              <path class="cls-12" d="m121.02,439.08c.46,47.2,20.23,69.92,20.23,69.92v-178.82s-20.69,61.75-20.23,108.9Z"/>
            </g>
            <path class="cls-8" d="m149.31,330.49c0,2.79-2.28,5.07-5.07,5.07h-5.98c-2.79,0-5.07-2.28-5.07-5.07h0c0-2.79,2.28-5.07,5.07-5.07h5.98c2.79,0,5.07,2.28,5.07,5.07h0Z"/>
            <path class="cls-1" d="m155.04,320.35c0,2.79-2.28,5.07-5.07,5.07h-17.44c-2.79,0-5.07-2.28-5.07-5.07h0c0-2.79,2.28-5.07,5.07-5.07h17.44c2.79,0,5.07,2.28,5.07,5.07h0Z"/>
            <path class="cls-8" d="m149.31,310.15c0,2.79-2.28,5.07-5.07,5.07h-5.98c-2.79,0-5.07-2.28-5.07-5.07h0c0-2.79,2.28-5.07,5.07-5.07h5.98c2.79,0,5.07,2.28,5.07,5.07h0Z"/>
          </g>
          <g>
            <path class="cls-1" d="m130.05,305.69c-.46,1.17-1.77,1.72-2.89,1.27h0c-1.17-.46-1.72-1.77-1.27-2.89l5.22-13.18c.46-1.17,1.77-1.72,2.89-1.27h0c1.17.46,1.67,1.72,1.27,2.89l-5.22,13.18Z"/>
            <g>
              <path class="cls-6" d="m66.77,458.71s22.21-11.46,37.01-47.66c14.8-36.2,17.85-90.09,17.85-90.09,0,0-34.83,41.22-48.98,77.67-14.09,36.45-5.88,60.03-5.88,60.03v.05Z"/>
              <path class="cls-10" d="m69,409.27c11.41-8.11,20.58-13.69,23.58-15.41.96,3.3,3.8,13.64,6.49,27.38.46-.86.91-1.77,1.32-2.74-3.14-15.56-6.39-26.21-6.44-26.31l-.35-1.12-1.01.56s-9.79,5.58-22.76,14.7c-.3.96-.61,1.93-.91,2.89l.1.05Z"/>
              <path class="cls-13" d="m125.84,310.31s-7.25,8.82-15.67,29.76-15.97,49.74-15.97,49.74c0,0,14.3-26.11,22.61-47.1,8.26-20.99,9.08-32.4,9.08-32.4h-.05Z"/>
              <path class="cls-1" d="m96.69,425.7c-2.79-15.56-6.19-26.72-6.19-26.72,0,0-10.14,5.78-22.87,15.16-6.9,27.48-.91,44.51-.91,44.51,0,0,16.02-8.26,29.91-32.96h.05Z"/>
              <path class="cls-12" d="m72.6,398.63c-14.09,36.45-5.88,60.03-5.88,60.03l54.81-137.7s-34.83,41.22-48.98,77.67h.05Z"/>
            </g>
            <path class="cls-8" d="m127.71,323.69c-.86,2.18-3.3,3.19-5.48,2.33l-4.61-1.83c-2.18-.86-3.19-3.3-2.33-5.48h0c.86-2.18,3.3-3.19,5.48-2.33l4.61,1.83c2.18.86,3.19,3.3,2.33,5.48h0Z"/>
            <path class="cls-1" d="m135.22,317.61c-.86,2.18-3.3,3.19-5.48,2.33l-13.44-5.32c-2.18-.86-3.19-3.3-2.33-5.48h0c.86-2.18,3.3-3.19,5.48-2.33l13.44,5.32c2.18.86,3.19,3.3,2.33,5.48h0Z"/>
            <path class="cls-8" d="m133.95,308.03c-.86,2.18-3.3,3.19-5.48,2.33l-4.61-1.83c-2.18-.86-3.19-3.3-2.33-5.48h0c.86-2.18,3.3-3.19,5.48-2.33l4.61,1.83c2.18.86,3.19,3.3,2.33,5.48h0Z"/>
          </g>
          <path class="cls-1" d="m157.12,290.08c0,1.57-1.27,2.84-2.84,2.84h-26.06c-1.57,0-2.84-1.27-2.84-2.84h0c0-1.57,1.27-2.84,2.84-2.84h26.06c1.57,0,2.84,1.27,2.84,2.84h0Z"/>
          <g>
            <path class="cls-1" d="m351.25,309.29c0,1.47,1.22,2.69,2.69,2.69h0c1.47,0,2.69-1.22,2.69-2.69v-17.09c0-1.47-1.22-2.69-2.69-2.69h0c-1.47,0-2.69,1.22-2.69,2.69v17.09Z"/>
            <g>
              <path class="cls-4" d="m353.94,509s-19.77-22.71-20.23-69.92c-.46-47.15,20.23-108.9,20.23-108.9,0,0,20.69,61.75,20.23,108.9-.46,47.2-20.23,69.92-20.23,69.92Z"/>
              <path class="cls-3" d="m373.46,452.57c-9.18-14.2-16.98-24.49-19.52-27.78-2.53,3.3-10.34,13.59-19.52,27.78-.1-1.22-.2-2.43-.3-3.65,10.49-16.02,18.86-26.52,18.96-26.67l.86-1.12.86,1.12s8.47,10.65,18.96,26.67c-.1,1.22-.2,2.43-.3,3.65Z"/>
              <path class="cls-13" d="m353.94,316.34s4.21,13.13,4.31,40.36c.1,27.23-4.31,62.87-4.31,62.87,0,0-4.41-35.64-4.31-62.87.1-27.23,4.31-40.36,4.31-40.36Z"/>
              <path class="cls-8" d="m335.08,458.65c10.09-16.22,18.81-27.18,18.81-27.18,0,0,8.77,11,18.86,27.18-4.56,33.87-18.86,50.35-18.86,50.35,0,0-14.25-16.43-18.81-50.35Z"/>
              <path class="cls-12" d="m374.17,439.08c-.46,47.2-20.23,69.92-20.23,69.92v-178.82s20.69,61.75,20.23,108.9Z"/>
            </g>
            <path class="cls-8" d="m345.88,330.49c0,2.79,2.28,5.07,5.07,5.07h5.98c2.79,0,5.07-2.28,5.07-5.07h0c0-2.79-2.28-5.07-5.07-5.07h-5.98c-2.79,0-5.07,2.28-5.07,5.07h0Z"/>
            <path class="cls-1" d="m340.15,320.35c0,2.79,2.28,5.07,5.07,5.07h17.44c2.79,0,5.07-2.28,5.07-5.07h0c0-2.79-2.28-5.07-5.07-5.07h-17.44c-2.79,0-5.07,2.28-5.07,5.07h0Z"/>
            <path class="cls-8" d="m345.88,310.15c0,2.79,2.28,5.07,5.07,5.07h5.98c2.79,0,5.07-2.28,5.07-5.07h0c0-2.79-2.28-5.07-5.07-5.07h-5.98c-2.79,0-5.07,2.28-5.07,5.07h0Z"/>
          </g>
          <g>
            <path class="cls-1" d="m365.09,305.69c.46,1.17,1.77,1.72,2.89,1.27h0c1.17-.46,1.72-1.77,1.27-2.89l-5.22-13.18c-.46-1.17-1.77-1.72-2.89-1.27h0c-1.17.46-1.67,1.72-1.27,2.89l5.22,13.18Z"/>
            <g>
              <path class="cls-6" d="m428.42,458.71s-22.21-11.46-37.01-47.66c-14.8-36.2-17.85-90.09-17.85-90.09,0,0,34.83,41.22,48.98,77.67,14.09,36.45,5.88,60.03,5.88,60.03v.05Z"/>
              <path class="cls-10" d="m426.14,409.27c-11.41-8.11-20.58-13.69-23.58-15.41-.96,3.3-3.8,13.64-6.49,27.38-.46-.86-.91-1.77-1.32-2.74,3.14-15.56,6.39-26.21,6.44-26.31l.35-1.12,1.01.56s9.79,5.58,22.76,14.7c.3.96.61,1.93.91,2.89l-.1.05Z"/>
              <path class="cls-13" d="m369.35,310.31s7.25,8.82,15.67,29.76c8.42,20.94,15.97,49.74,15.97,49.74,0,0-14.3-26.11-22.61-47.1-8.26-20.99-9.08-32.4-9.08-32.4h.05Z"/>
              <path class="cls-1" d="m398.5,425.7c2.79-15.56,6.19-26.72,6.19-26.72,0,0,10.14,5.78,22.87,15.16,6.9,27.48.91,44.51.91,44.51,0,0-16.02-8.26-29.91-32.96h-.05Z"/>
              <path class="cls-12" d="m422.54,398.63c14.09,36.45,5.88,60.03,5.88,60.03l-54.81-137.7s34.83,41.22,48.98,77.67h-.05Z"/>
            </g>
            <path class="cls-8" d="m367.48,323.69c.86,2.18,3.3,3.19,5.48,2.33l4.61-1.83c2.18-.86,3.19-3.3,2.33-5.48h0c-.86-2.18-3.3-3.19-5.48-2.33l-4.61,1.83c-2.18.86-3.19,3.3-2.33,5.48h0Z"/>
            <path class="cls-1" d="m359.97,317.61c.86,2.18,3.3,3.19,5.48,2.33l13.44-5.32c2.18-.86,3.19-3.3,2.33-5.48h0c-.86-2.18-3.3-3.19-5.48-2.33l-13.44,5.32c-2.18.86-3.19,3.3-2.33,5.48h0Z"/>
            <path class="cls-8" d="m361.24,308.03c.86,2.18,3.3,3.19,5.48,2.33l4.61-1.83c2.18-.86,3.19-3.3,2.33-5.48h0c-.86-2.18-3.3-3.19-5.48-2.33l-4.61,1.83c-2.18.86-3.19,3.3-2.33,5.48h0Z"/>
          </g>
          <path class="cls-1" d="m338.07,290.08c0,1.57,1.27,2.84,2.84,2.84h26.06c1.57,0,2.84-1.27,2.84-2.84h0c0-1.57-1.27-2.84-2.84-2.84h-26.06c-1.57,0-2.84,1.27-2.84,2.84h0Z"/>
        </g>
      </g>
    </g>
  </g>
</svg>