<?xml version="1.0" encoding="UTF-8"?>
<svg xmlns="http://www.w3.org/2000/svg" viewBox="0 0 500 575">
  <defs>
    <style>
      .cls-1 {
        fill: #4d4d4d;
      }

      .cls-1, .cls-2, .cls-3, .cls-4, .cls-5, .cls-6, .cls-7, .cls-8, .cls-9, .cls-10, .cls-11, .cls-12, .cls-13, .cls-14, .cls-15, .cls-16 {
        stroke-width: 0px;
      }

      .cls-2 {
        fill: #262626;
      }

      .cls-3 {
        fill: #e384b0;
      }

      .cls-4 {
        fill: #ffb5e9;
      }

      .cls-5 {
        fill: #8486d0;
      }

      .cls-6 {
        fill: #4ce0c8;
      }

      .cls-7 {
        fill: #241816;
      }

      .cls-8 {
        fill: #416b80;
      }

      .cls-9 {
        fill: #9e9ceb;
      }

      .cls-10 {
        fill: #fff;
      }

      .cls-11 {
        fill: #5da0ff;
      }

      .cls-12 {
        fill: #f9d6bd;
      }

      .cls-13 {
        fill: #dee3d7;
      }

      .cls-14 {
        fill: #e2e6eb;
      }

      .cls-15 {
        fill: #f2f1eb;
      }

      .cls-16 {
        fill: #e7d8b4;
      }
    </style>
  </defs>
  <g id="Capa_1" data-name="Capa 1">
    <g>
      <path class="cls-16" d="m250,573c-66.51,0-129.04-25.9-176.07-72.93C26.9,453.04,1,390.51,1,324s25.9-129.04,72.93-176.07c47.03-47.03,109.56-72.93,176.07-72.93s129.04,25.9,176.07,72.93c47.03,47.03,72.93,109.56,72.93,176.07s-25.9,129.04-72.93,176.07c-47.03,47.03-109.56,72.93-176.07,72.93Z"/>
      <path class="cls-7" d="m250,76c33.48,0,65.96,6.56,96.53,19.49,29.53,12.49,56.05,30.37,78.83,53.15,22.78,22.78,40.66,49.3,53.15,78.83,12.93,30.57,19.49,63.05,19.49,96.53s-6.56,65.96-19.49,96.53c-12.49,29.53-30.37,56.05-53.15,78.83-22.78,22.78-49.3,40.66-78.83,53.15-30.57,12.93-63.05,19.49-96.53,19.49s-65.96-6.56-96.53-19.49c-29.53-12.49-56.05-30.37-78.83-53.15-22.78-22.78-40.66-49.3-53.15-78.83-12.93-30.57-19.49-63.05-19.49-96.53s6.56-65.96,19.49-96.53c12.49-29.53,30.37-56.05,53.15-78.83s49.3-40.66,78.83-53.15c30.57-12.93,63.05-19.49,96.53-19.49m0-2C111.93,74,0,185.93,0,324s111.93,250,250,250,250-111.93,250-250-111.93-250-250-250h0Z"/>
    </g>
  </g>
  <g id="Capa_2" data-name="Capa 2">
    <g>
      <path class="cls-12" d="m166.51,215.97c-1.87,0-3.38-1.52-3.38-3.38,0-.33.05-.67.15-.99l1.49-4.89-8.64,4.98c-1.62.92-3.69.36-4.61-1.26-.72-1.26-.55-2.85.42-3.93l2.64-2.91-6.47,3.73c-1.59.97-3.67.47-4.65-1.12-.84-1.38-.59-3.16.59-4.25l5.84-5.58-9.15,5.28c-1.62.93-3.69.37-4.62-1.24-.73-1.27-.56-2.87.42-3.96l9.58-10.51-12.91,7.44c-1.62.93-3.69.37-4.62-1.25-.72-1.25-.57-2.81.38-3.9l5.61-6.45-6.39,3.69c-1.62.93-3.69.37-4.62-1.25-.72-1.25-.56-2.82.39-3.91l1.31-1.48h-.06c-1.62.93-3.69.37-4.62-1.25-.43-.75-.56-1.64-.35-2.48l2.03-8.48c-1.69.79-3.7.06-4.49-1.64-.73-1.56-.16-3.43,1.31-4.32l6.65-3.83c1.62-.93,3.69-.37,4.62,1.25.43.75.56,1.63.36,2.47l-2.03,8.47,11.02-6.36c1.62-.93,3.69-.37,4.62,1.25.72,1.25.56,2.82-.39,3.91l-1.29,1.47,6.09-3.52c1.62-.93,3.69-.37,4.62,1.25.72,1.25.57,2.81-.38,3.9l-5.61,6.44,14.14-8.16c1.62-.92,3.69-.36,4.61,1.26.72,1.26.55,2.85-.42,3.93l-9.52,10.56,14.88-8.58c1.59-.97,3.67-.47,4.65,1.12.84,1.38.59,3.16-.59,4.25l-5.86,5.6.68-.39c1.62-.92,3.69-.36,4.61,1.26.72,1.26.55,2.85-.42,3.93l-3.59,3.96c.77.05,1.51.3,2.14.74,1.09.86,1.53,2.3,1.13,3.63l-2.47,7.88c.34.26.62.59.83.97.93,1.61.38,3.68-1.23,4.61l-2.71,1.58c-.52.3-1.12.46-1.72.45h0Z"/>
      <path class="cls-12" d="m328.65,212.89c-1.87,0-3.38-1.51-3.38-3.38,0-.96.41-1.87,1.12-2.52l24.46-21.97-22.19,12.78c-1.63.92-3.69.34-4.6-1.29-.74-1.32-.52-2.97.55-4.04l10.96-10.83-8.19,4.73c-1.62.92-3.69.36-4.61-1.27-.48-.85-.57-1.87-.25-2.79l1.16-3.15c-1.75-.65-2.65-2.59-2-4.34.27-.73.78-1.35,1.46-1.74l4.62-2.66c1.62-.93,3.69-.37,4.62,1.24.5.87.59,1.91.25,2.85l-.51,1.39,22.78-13.15c1.63-.92,3.69-.34,4.6,1.29.74,1.32.52,2.97-.55,4.04l-10.98,10.79,27.46-15.86c1.62-.93,3.69-.38,4.62,1.24.8,1.38.52,3.14-.67,4.2l-24.46,21.99,12.77-7.36c1.65-.87,3.7-.23,4.56,1.43.81,1.56.3,3.48-1.18,4.42l-40.72,23.51c-.51.3-1.1.45-1.69.45Z"/>
      <g>
        <path class="cls-5" d="m110.61,432.75c-1.87,0-3.38-1.51-3.39-3.37,0-.88.34-1.72.95-2.35l13.31-13.8-21.2,12.23c-1.61.94-3.68.39-4.62-1.22-.82-1.4-.52-3.19.71-4.26l16.05-13.99-16.85,9.72c-1.63.92-3.69.34-4.61-1.29-.8-1.43-.47-3.22.79-4.27l14.11-11.42-10.46,6.05c-1.61.94-3.68.4-4.63-1.21-.84-1.44-.5-3.29.8-4.34l16.68-13.49-12.17,7.03c-1.62.93-3.69.37-4.62-1.25-.81-1.42-.5-3.21.75-4.27l24.17-20.29-18.51,10.69c-1.61.94-3.68.39-4.62-1.22-.86-1.47-.49-3.34.86-4.38l19.65-15.23-13.53,7.81c-1.62.93-3.69.37-4.62-1.25-.83-1.45-.48-3.29.83-4.33l30.26-23.85-22.15,12.82c-1.62.93-3.69.38-4.62-1.24-.85-1.47-.48-3.34.87-4.38l33.57-26.38-22.87,13.16c-1.62.93-3.69.36-4.61-1.26-.83-1.46-.47-3.3.85-4.34l22.14-17.07-9.97,5.75c-1.62.93-3.69.38-4.62-1.24-.84-1.45-.48-3.3.84-4.34l14.29-11.21c-1.75.66-3.7-.22-4.36-1.97-.48-1.28-.15-2.72.85-3.66l27.24-25.56c-.9-1.61-.33-3.65,1.26-4.57l9.72-5.61c1.6-.96,3.68-.44,4.64,1.17.83,1.39.56,3.16-.63,4.25l-16.23,15.25,15.16-8.74c1.62-.93,3.69-.38,4.62,1.24.84,1.45.48,3.3-.84,4.34l-14.1,11.06,12.61-7.27c1.62-.93,3.69-.36,4.61,1.26.83,1.46.47,3.3-.85,4.34l-22.09,17.04,19.95-11.5c1.63-.92,3.69-.34,4.61,1.29.81,1.44.46,3.25-.82,4.29l-33.57,26.38,21.74-12.55c1.63-.92,3.69-.34,4.61,1.29.81,1.44.46,3.25-.82,4.29l-30.26,23.86,15.9-9.18c1.61-.94,3.68-.39,4.62,1.22.86,1.47.49,3.34-.86,4.38l-19.61,15.21,9.1-5.25c1.63-.92,3.69-.34,4.61,1.29.79,1.4.48,3.17-.74,4.22l-24.18,20.29,15.62-9.02c1.62-.93,3.69-.37,4.62,1.25.82,1.43.49,3.25-.79,4.3l-16.65,13.53,10.94-6.31c1.63-.92,3.69-.34,4.61,1.29.8,1.43.47,3.22-.79,4.27l-14.11,11.4,9.47-5.48c1.61-.95,3.68-.42,4.63,1.19.84,1.41.54,3.22-.71,4.29l-16.05,13.99,11.82-6.9c1.62-.93,3.69-.38,4.62,1.24.75,1.31.55,2.95-.49,4.04l-13.3,13.82,8.95-5.17c1.58-1,3.67-.54,4.67,1.04,1,1.58.54,3.67-1.04,4.67-.08.05-.16.1-.25.14l-29.72,17.16c-.51.3-1.1.46-1.7.46h0Z"/>
        <path class="cls-5" d="m384.64,432.99c-1.87,0-3.38-1.51-3.38-3.38,0-.73.24-1.44.68-2.03l9.96-13.53-24.97,14.44c-1.59.98-3.67.49-4.65-1.1-.87-1.4-.6-3.22.64-4.31l17.35-16.42-20.29,11.73c-1.62.93-3.69.37-4.62-1.25-.8-1.4-.51-3.17.71-4.23l17.41-15.16-14.43,8.32c-1.61.94-3.68.39-4.62-1.23-.8-1.37-.53-3.11.63-4.18l20.63-19.22-16.87,9.73c-1.63.91-3.69.33-4.6-1.3-.79-1.41-.47-3.18.77-4.23l9.04-7.44-5.74,3.31c-1.65.88-3.7.26-4.58-1.38-.72-1.33-.46-2.98.63-4.03l14.11-12.67-11.42,6.59c-1.61.94-3.68.4-4.63-1.21-.82-1.41-.52-3.21.72-4.27l9.41-8.12-7.32,4.22c-1.62.93-3.69.37-4.62-1.25-.81-1.4-.51-3.18.71-4.24l8.31-7.21-6.84,3.95c-1.61.95-3.68.41-4.63-1.2-.84-1.42-.53-3.25.74-4.31l5.93-5.05-4.81,2.77c-1.65.88-3.7.26-4.58-1.38-.72-1.33-.46-2.98.63-4.03l8.7-7.82-8.39,4.84c-1.62.93-3.69.38-4.62-1.24-.8-1.39-.52-3.15.68-4.21l7.61-6.8-7.68,4.44c-1.61.94-3.68.4-4.63-1.21-.79-1.35-.55-3.05.57-4.14l10.73-10.47-12,6.92c-1.63.92-3.69.35-4.61-1.28-.79-1.39-.49-3.15.71-4.21l3.72-3.2-2.81,1.62c-1.61.94-3.68.4-4.63-1.21-.82-1.39-.53-3.17.68-4.24l4.23-3.75-3.32,1.91c-1.62.93-3.69.37-4.62-1.25-.71-1.23-.57-2.77.34-3.85l11.15-13.28-11.71,6.76c-1.62.92-3.69.35-4.61-1.27-.67-1.17-.57-2.63.24-3.71l8.86-11.57-2.27,1.31c-1.62.93-3.69.38-4.62-1.24-.48-.84-.59-1.85-.28-2.77l4.73-14.12c-.1-.13-.19-.26-.27-.41-.93-1.61-.38-3.68,1.23-4.61l2.03-1.16c1.21-.72,2.75-.59,3.83.31,1.09.89,1.51,2.36,1.07,3.69l-3.35,9.96,9.2-5.31c1.62-.92,3.69-.35,4.61,1.27.67,1.17.57,2.63-.24,3.71l-8.86,11.57,13.65-7.88c1.62-.93,3.69-.37,4.62,1.25.71,1.23.57,2.77-.34,3.85l-11.17,13.25,15.51-8.95c1.62-.94,3.69-.38,4.62,1.23.81,1.39.52,3.16-.68,4.22l-4.23,3.75,5.25-3.03c1.63-.92,3.69-.35,4.61,1.28.79,1.39.49,3.15-.71,4.21l-3.71,3.19,4.34-2.5c1.61-.94,3.68-.4,4.63,1.21.79,1.35.55,3.05-.57,4.14l-10.74,10.46,12.38-7.15c1.62-.93,3.69-.38,4.62,1.24.8,1.39.52,3.15-.68,4.21l-7.62,6.84,8.06-4.66c1.65-.88,3.7-.26,4.58,1.38.72,1.33.46,2.98-.63,4.03l-8.69,7.81,8.91-5.13c1.62-.92,3.69-.35,4.61,1.27.8,1.4.49,3.17-.73,4.23l-5.92,5.05,5.41-3.1c1.62-.93,3.69-.37,4.62,1.25.81,1.4.51,3.18-.71,4.24l-8.33,7.21,7.69-4.43c1.62-.93,3.69-.37,4.62,1.25.81,1.4.51,3.18-.71,4.24l-9.4,8.12,8.47-4.89c1.65-.88,3.7-.26,4.58,1.38.72,1.33.46,2.98-.63,4.03l-14.12,12.73,13.09-7.56c1.63-.91,3.69-.33,4.6,1.3.79,1.41.47,3.18-.77,4.23l-9.04,7.44,7.22-4.17c1.61-.95,3.68-.41,4.63,1.2.81,1.38.55,3.14-.63,4.21l-20.63,19.23,18.98-10.96c1.63-.92,3.69-.34,4.61,1.29.78,1.39.49,3.13-.7,4.19l-17.39,15.14,14.88-8.6c1.6-.97,3.68-.46,4.65,1.13.85,1.39.58,3.19-.64,4.28l-17.34,16.42,14.04-8.12c1.62-.93,3.69-.38,4.62,1.24.67,1.16.59,2.61-.2,3.69l-9.95,13.53,2.45-1.42c1.58-1,3.67-.54,4.67,1.04,1,1.58.54,3.67-1.04,4.67-.08.05-.16.1-.25.14l-16.43,9.47c-.52.31-1.11.48-1.72.47h0Z"/>
        <path class="cls-5" d="m170.56,554.76c-1.87,0-3.38-1.51-3.39-3.38,0-1.04.47-2.02,1.29-2.66l27.88-21.99-42.25,24.39c-1.62.93-3.69.36-4.61-1.26-.86-1.5-.44-3.41.96-4.42l24.61-17.53-25.56,14.78c-1.62.93-3.69.37-4.62-1.25-.86-1.5-.45-3.4.94-4.42l34.49-24.98-30.62,17.68c-1.62.94-3.68.39-4.62-1.23-.75-1.29-.56-2.92.46-4l11.4-12.27c-1.83.37-3.61-.82-3.98-2.65-.29-1.42.37-2.87,1.62-3.59l18.13-10.47c1.62-.94,3.68-.39,4.62,1.23.75,1.29.56,2.91-.45,4l-11.03,11.84,67.63-39.03c1.62-.93,3.69-.37,4.62,1.25.86,1.5.45,3.4-.94,4.42l-34.45,24.96,30.79-17.77c1.62-.93,3.69-.36,4.61,1.26.86,1.5.44,3.41-.96,4.42l-24.62,17.51,20.97-12.1c1.63-.92,3.69-.34,4.61,1.29.81,1.44.46,3.25-.82,4.29l-27.88,21.99,24.1-13.9c1.61-.95,3.68-.42,4.63,1.18.8,1.36.56,3.09-.58,4.17l-18.75,18,14.72-8.49c1.62-.93,3.69-.37,4.62,1.25.69,1.2.58,2.7-.29,3.79l-7.05,8.79c1.85-.25,3.55,1.05,3.8,2.9.18,1.35-.47,2.68-1.64,3.37l-13.86,8.01c-1.62.94-3.69.38-4.62-1.23-.7-1.21-.59-2.72.29-3.81l6.63-8.29-23.37,13.5c-1.6.96-3.68.45-4.64-1.15-.82-1.37-.58-3.12.58-4.21l18.75-18-40.46,23.37c-.51.31-1.1.47-1.69.47h0Z"/>
        <path class="cls-5" d="m181.89,493.34c-1.87,0-3.38-1.51-3.39-3.38,0-1.03.47-2.01,1.28-2.66l17.1-13.53-12.69,7.32c-1.62.94-3.68.38-4.62-1.23-.83-1.43-.5-3.26.78-4.31l20.93-17.2-16.39,9.47c-1.63.92-3.69.34-4.61-1.28-.79-1.41-.48-3.18.75-4.23l21.96-18.35-17.37,10.03c-1.62.93-3.69.37-4.62-1.25-.81-1.42-.5-3.21.75-4.27l21.17-17.68-16.6,9.58c-1.62.93-3.69.38-4.62-1.24-.83-1.44-.49-3.27.8-4.32l17.24-13.98-12.78,7.39c-1.61.94-3.68.39-4.62-1.22-.84-1.45-.49-3.3.82-4.35l14.24-11.31-9.84,5.68c-1.61.94-3.68.39-4.62-1.22-.87-1.49-.47-3.39.91-4.42l3.44-2.56c-1.79.54-3.67-.47-4.21-2.26-.4-1.33.05-2.78,1.15-3.63l8.7-6.8-4.41,2.54c-1.62.94-3.68.39-4.62-1.23-.75-1.29-.56-2.92.46-4l9.41-10.1-4.57,2.64c-1.62.94-3.68.39-4.62-1.23-.47-.81-.58-1.77-.31-2.67l2.34-7.83c-.59-.3-1.08-.77-1.4-1.35-.93-1.62-.38-3.68,1.24-4.61l3.51-2.03c1.62-.94,3.68-.39,4.62,1.23.47.81.58,1.77.31,2.67l-1.7,5.69,16.75-9.68c1.62-.94,3.68-.39,4.62,1.23.75,1.29.56,2.91-.45,4l-9.41,10.14,26.72-15.43c1.62-.94,3.68-.38,4.62,1.23.85,1.46.48,3.32-.85,4.36l-8.72,6.76,7.02-4.06c1.61-.94,3.68-.39,4.62,1.22.87,1.49.47,3.39-.91,4.42l-3.18,2.36c1.75-.64,3.7.25,4.34,2.01.5,1.37.07,2.92-1.08,3.82l-14.2,11.31,10.44-6.02c1.63-.92,3.69-.34,4.61,1.29.8,1.43.47,3.22-.79,4.27l-17.25,13.99,13.43-7.76c1.63-.92,3.69-.34,4.61,1.28.79,1.41.48,3.18-.75,4.23l-21.2,17.69,17.32-10c1.62-.93,3.69-.37,4.62,1.25.82,1.42.5,3.23-.76,4.28l-21.95,18.34,18.1-10.44c1.62-.92,3.69-.36,4.61,1.27.81,1.42.48,3.22-.78,4.27l-20.92,17.18,17.08-9.86c1.63-.91,3.69-.33,4.6,1.3.8,1.43.46,3.24-.82,4.28l-17.12,13.57,13.34-7.7c1.62-.92,3.69-.36,4.61,1.27.91,1.61.37,3.65-1.23,4.59l-53.3,30.79c-.51.3-1.1.46-1.69.46h0Z"/>
        <path class="cls-5" d="m307.3,554.76c-1.87,0-3.38-1.51-3.39-3.38,0-.91.36-1.78,1.01-2.42l19.03-18.67-41.38,23.89c-1.62.93-3.69.38-4.62-1.24-.83-1.44-.49-3.27.8-4.32l22.82-18.35-31.39,18.11c-1.63.91-3.69.32-4.6-1.31-.8-1.44-.45-3.25.84-4.29l20.2-15.7-21.58,12.46c-1.62.93-3.69.38-4.62-1.24-.86-1.48-.47-3.37.9-4.4l7.51-5.62-4.51,2.6c-1.63.91-3.69.33-4.6-1.3-.8-1.43-.46-3.22.81-4.26l18.05-14.41-14.26,8.2c-1.63.91-3.69.33-4.6-1.3-.8-1.43-.46-3.24.82-4.28l16.77-13.29-12.99,7.49c-1.61.94-3.68.39-4.62-1.22-.86-1.47-.49-3.34.86-4.38l13.7-10.69-9.93,5.74c-1.61.94-3.68.4-4.63-1.21-.83-1.41-.52-3.22.72-4.28l24.24-20.91-20.34,11.73c-1.63.92-3.69.34-4.61-1.29-.81-1.44-.46-3.25.82-4.29l13.74-10.82-9.96,5.75c-1.62.93-3.69.37-4.62-1.25-.85-1.49-.46-3.37.92-4.39l2.67-1.97c-1.83.36-3.61-.83-3.97-2.66-.24-1.23.21-2.49,1.18-3.28l16.91-13.77-13.09,7.55c-1.63.91-3.69.32-4.6-1.31-.8-1.44-.45-3.25.84-4.29l10.14-7.89-6.4,3.69c-1.62.94-3.68.38-4.62-1.23-.83-1.43-.5-3.26.78-4.31l17.15-14.13-13.3,7.68c-1.51.88-3.45.45-4.46-.97-1.01-1.43-.76-3.4.58-4.53l19.2-16.27-15.33,8.85c-1.62.92-3.69.36-4.61-1.27-.84-1.47-.46-3.33.88-4.35l4.69-3.56-.96.55c-1.63.91-3.69.34-4.6-1.29-.8-1.42-.47-3.21.78-4.25l12.5-10.19-8.68,5.03c-1.62.94-3.69.38-4.62-1.23-.75-1.29-.56-2.93.47-4.01l8.73-9.27-4.58,2.64c-1.62.93-3.69.38-4.62-1.24-.43-.75-.56-1.64-.36-2.48l1.98-8.2c-.68-.28-1.25-.78-1.62-1.43-.93-1.61-.38-3.68,1.23-4.61l3.38-1.97c1.62-.94,3.68-.39,4.62,1.23.44.75.57,1.65.36,2.49l-1.56,6.41,17.7-10.22c1.62-.93,3.69-.37,4.61,1.26.74,1.29.55,2.9-.46,3.99l-8.74,9.28,25.29-14.6c1.62-.93,3.69-.37,4.62,1.25.82,1.43.49,3.25-.79,4.3l-12.48,10.19,10.9-6.29c1.61-.94,3.68-.39,4.62,1.22.86,1.48.48,3.37-.88,4.4l-4.67,3.54,1.35-.79c1.61-.95,3.68-.42,4.63,1.19.85,1.43.53,3.26-.75,4.32l-19.23,16.29,16.03-9.25c1.62-.92,3.69-.35,4.61,1.27.81,1.42.48,3.21-.77,4.26l-17.09,14.11,13.93-8.04c1.63-.91,3.69-.32,4.6,1.31.8,1.44.45,3.25-.84,4.29l-10.14,7.89,6.91-3.98c1.66-.85,3.7-.19,4.55,1.47.7,1.37.39,3.03-.75,4.06l-16.91,13.75,13.69-7.9c1.62-.93,3.69-.37,4.62,1.25.85,1.49.46,3.37-.92,4.39l-2.39,1.76c1.81-.45,3.65.66,4.09,2.48.32,1.29-.15,2.65-1.2,3.47l-13.74,10.82,10.52-6.09c1.62-.93,3.69-.37,4.62,1.25.81,1.4.51,3.18-.71,4.24l-24.25,20.97,21.11-12.17c1.6-.96,3.68-.43,4.64,1.17.88,1.48.51,3.39-.86,4.43l-13.69,10.67,10.47-6.05c1.62-.93,3.69-.36,4.61,1.26.82,1.44.48,3.27-.82,4.31l-16.78,13.33,13.59-7.85c1.62-.92,3.69-.35,4.61,1.27.82,1.44.47,3.25-.81,4.3l-18.04,14.4,14.88-8.58c1.6-.96,3.68-.44,4.64,1.17.9,1.5.5,3.45-.92,4.47l-7.53,5.63,14.88-8.6c1.62-.92,3.69-.35,4.61,1.27.82,1.45.47,3.29-.84,4.32l-20.19,15.69,26.77-15.45c1.61-.95,3.68-.41,4.63,1.19.86,1.46.51,3.32-.82,4.37l-22.84,18.33,26.43-15.25c1.62-.92,3.69-.36,4.61,1.27.76,1.33.53,2.99-.55,4.07l-18.99,18.67,19.45-11.23c1.62-.93,3.69-.38,4.62,1.24.76,1.31.55,2.96-.5,4.04l-6.96,7.18,3.17-1.82c1.65-.87,3.7-.23,4.56,1.43.81,1.56.3,3.48-1.18,4.42l-24.14,13.9c-1.62.93-3.69.36-4.61-1.26-.74-1.3-.54-2.93.49-4.01l6.96-7.18-21.59,12.46c-.51.31-1.09.47-1.69.47h0Z"/>
      </g>
      <path class="cls-9" d="m201.62,378.92c-1.87,0-3.38-1.51-3.38-3.38,0-1.15.59-2.23,1.56-2.85l8.03-5.15-18.94,10.92c-1.62.92-3.69.36-4.61-1.27-.88-1.55-.41-3.53,1.09-4.5l25.89-16.63-34.07,19.68c-1.64.89-3.69.28-4.58-1.36-.83-1.53-.36-3.44,1.08-4.41l18.45-11.7-21.64,12.48c-1.62.92-3.69.36-4.61-1.27-.87-1.54-.42-3.49,1.05-4.47l76.09-50.8-78.88,45.57c-1.59.97-3.68.47-4.65-1.13s-.47-3.68,1.13-4.65l49.4-31.79-47.04,27.16c-1.62.94-3.68.39-4.62-1.23-.9-1.55-.43-3.53,1.06-4.52l76.38-50.52-71.95,41.53c-1.6.97-3.68.46-4.65-1.14-.97-1.6-.46-3.68,1.14-4.65l36.8-23.44-32.68,18.86c-1.6.97-3.68.46-4.65-1.14s-.46-3.68,1.14-4.65h0l24.44-15.46-20.34,11.77c-1.62.92-3.69.36-4.61-1.26-.87-1.53-.42-3.47,1.03-4.46l82.21-55.24-77.71,44.83c-1.62.93-3.69.38-4.62-1.24-.91-1.58-.41-3.59,1.14-4.56l3.75-2.35c-1.69.8-3.7.07-4.5-1.62-.72-1.52-.21-3.34,1.2-4.27l45.89-29.58-41.7,24.08c-1.62.93-3.69.36-4.61-1.26-.89-1.56-.41-3.55,1.11-4.52l30.51-19.43-26.38,15.23c-1.64.89-3.69.28-4.58-1.36-.83-1.54-.36-3.46,1.1-4.43l3.32-2.09c-1.78.57-3.68-.4-4.26-2.18-.47-1.45.1-3.04,1.37-3.87l32.17-20.8-28.08,16.23c-1.62.94-3.68.39-4.62-1.23-.9-1.55-.43-3.53,1.06-4.52l42.1-27.92-37.84,21.84c-1.62.92-3.69.36-4.61-1.26-.87-1.53-.42-3.47,1.03-4.46l34.63-23.44-30.35,17.51c-1.64.89-3.69.29-4.59-1.35-.83-1.52-.38-3.41,1.04-4.39l3.09-2.03c-1.82.41-3.63-.72-4.05-2.55-.3-1.32.21-2.69,1.31-3.49l26.09-19.01-21.7,12.51c-1.63.92-3.69.35-4.61-1.28-.8-1.41-.48-3.2.76-4.25l22.83-18.94-18.15,10.45c-1.63.92-3.69.35-4.61-1.28-.8-1.41-.48-3.2.76-4.25l5.95-4.94-1.08.62c-1.6.96-3.68.45-4.64-1.15-.82-1.37-.58-3.12.58-4.21l6.12-5.89c-.51-.3-.94-.72-1.23-1.24-.93-1.62-.38-3.68,1.24-4.61l15.58-8.98c1.6-.96,3.68-.45,4.64,1.15.82,1.37.58,3.12-.58,4.21l-1.05,1,11.5-6.63c1.62-.93,3.69-.37,4.62,1.25.82,1.42.5,3.23-.76,4.28l-5.95,4.94,18.14-10.47c1.62-.93,3.69-.37,4.62,1.25.82,1.42.5,3.23-.76,4.28l-22.82,18.94,42.4-24.46c1.62-.92,3.69-.36,4.61,1.27.85,1.49.45,3.38-.93,4.39l-26.09,19,42.73-24.66c1.63-.91,3.69-.33,4.6,1.3.86,1.53.4,3.46-1.05,4.45l-.94.62,11.04-6.36c1.64-.9,3.69-.3,4.59,1.34.82,1.5.39,3.39-1.01,4.38l-34.65,23.45,50.57-29.17c1.58-.91,3.6-.4,4.56,1.14.96,1.55.52,3.59-1,4.6l-42.09,27.9,52.46-30.26c1.63-.91,3.69-.33,4.6,1.3.86,1.54.39,3.48-1.07,4.46l-32.14,20.72,35.52-20.51c1.62-.93,3.69-.38,4.62,1.24.91,1.58.41,3.59-1.14,4.56l-1.66,1.04,1.79-1.03c1.64-.89,3.69-.28,4.58,1.36.83,1.53.36,3.44-1.08,4.41l-30.49,19.46,29.27-16.91c1.64-.9,3.69-.3,4.59,1.33.84,1.53.38,3.46-1.08,4.44l-45.95,29.64,43.16-24.92c1.63-.91,3.69-.33,4.6,1.3.87,1.56.38,3.52-1.11,4.49l-3.49,2.19.45-.26c1.62-.92,3.69-.36,4.61,1.26.87,1.53.42,3.47-1.03,4.46l-82.2,55.23,79.5-45.89c1.6-.97,3.68-.46,4.65,1.14.97,1.6.46,3.68-1.14,4.65h0l-24.58,15.56,21.64-12.47c1.63-.91,3.69-.33,4.6,1.3.86,1.55.39,3.5-1.09,4.47l-36.74,23.41,33.82-19.52c1.59-.98,3.67-.5,4.66,1.09s.5,3.67-1.09,4.66l-76.42,50.57,73.67-42.53c1.64-.9,3.69-.3,4.59,1.33.84,1.53.38,3.46-1.08,4.44l-49.37,31.72,46.45-26.81c1.63-.91,3.69-.33,4.6,1.3.85,1.52.41,3.45-1.03,4.44l-76.05,50.72,73.31-42.33c1.62-.93,3.69-.36,4.61,1.26.89,1.56.41,3.55-1.11,4.52l-18.44,11.69,15.45-8.91c1.64-.9,3.69-.3,4.59,1.33.84,1.53.38,3.46-1.08,4.44l-25.96,16.71,22.99-13.27c1.63-.91,3.69-.33,4.6,1.3.86,1.55.39,3.5-1.09,4.47l-8.03,5.15,4.99-2.88c1.64-.89,3.69-.28,4.59,1.36.83,1.52.37,3.42-1.06,4.4l-7.36,4.77,4.31-2.49c1.62-.94,3.68-.39,4.62,1.23.87,1.51.46,3.43-.96,4.44l-40.08,28.84,37.2-21.47c1.62-.93,3.69-.36,4.61,1.26.83,1.46.47,3.3-.85,4.34l-31.79,24.59,28.83-16.63c1.63-.92,3.69-.34,4.61,1.28.78,1.39.49,3.14-.7,4.2l-21.21,18.32,18.07-10.43c1.64-.89,3.69-.28,4.59,1.36.73,1.34.47,3-.63,4.05l-7.59,6.85,1.91-1.1c1.58-1,3.67-.54,4.67,1.04s.54,3.67-1.04,4.67c-.08.05-.16.1-.25.14l-29.62,17.09c-1.64.89-3.69.28-4.59-1.36-.73-1.34-.47-3,.63-4.05l7.59-6.85-21.28,12.26c-1.63.92-3.69.34-4.61-1.28-.78-1.39-.49-3.14.7-4.2l21.18-18.26-41.19,23.74c-1.62.93-3.69.36-4.61-1.26-.83-1.46-.47-3.3.85-4.34l31.79-24.59-52.31,30.19c-1.62.94-3.68.39-4.62-1.23-.87-1.51-.46-3.43.96-4.44l40.07-28.82-59.77,34.49c-1.63.91-3.69.33-4.6-1.3-.86-1.54-.39-3.48,1.07-4.46l7.34-4.73-18.26,10.52c-.51.29-1.08.44-1.66.45h0Z"/>
      <path class="cls-10" d="m230.74,270.74c-1.87,0-3.38-1.51-3.38-3.38,0-1.06.5-2.07,1.35-2.71l20.92-16.16-34.88,20.13c-1.63.92-3.69.35-4.61-1.28-.82-1.45-.46-3.27.83-4.31l33.82-26.52-38.69,22.32c-1.63.91-3.69.34-4.6-1.29-.84-1.5-.43-3.39.97-4.4l13.61-9.62-12.03,6.94c-1.64.89-3.69.28-4.58-1.36-.8-1.48-.39-3.33.97-4.33l3.31-2.31-.23.13c-1.62.93-3.69.36-4.61-1.26-.82-1.43-.48-3.24.79-4.29l23.3-19.01-16.83,9.72c-1.62.93-3.69.37-4.61-1.25-.78-1.36-.52-3.09.63-4.16l12.66-11.63c-1.84-.3-3.09-2.05-2.78-3.89.16-1,.77-1.87,1.64-2.37l21.54-12.44c1.63-.92,3.69-.34,4.61,1.28.77,1.36.51,3.06-.63,4.13l-10.1,9.31,26.86-15.51c1.62-.93,3.69-.36,4.61,1.26.82,1.43.48,3.24-.79,4.29l-23.31,19.02,33.65-19.43c1.63-.91,3.69-.33,4.6,1.3.84,1.5.42,3.4-.98,4.4l-3.29,2.29,6.22-3.58c1.63-.91,3.69-.34,4.6,1.29.84,1.5.43,3.39-.97,4.4l-13.59,9.6,16.14-9.32c1.63-.92,3.69-.35,4.61,1.28.82,1.45.46,3.27-.83,4.31l-33.82,26.52,37.01-21.38c1.63-.91,3.69-.33,4.6,1.3.81,1.45.45,3.27-.85,4.3l-20.92,16.16,20.57-11.87c1.63-.91,3.69-.34,4.6,1.29.77,1.38.49,3.11-.68,4.17l-16.54,14.55,13.65-7.89c1.62-.93,3.69-.38,4.62,1.24.64,1.11.6,2.49-.11,3.56l-8.58,12.85c1.67-.83,3.7-.14,4.53,1.54.77,1.57.22,3.47-1.27,4.38l-12.42,7.17c-1.62.93-3.69.38-4.62-1.24-.64-1.11-.6-2.49.11-3.56l8.59-12.85-30.63,17.67c-1.63.91-3.69.34-4.6-1.29-.77-1.38-.49-3.11.68-4.17l16.52-14.53-34.66,20.01c-.51.31-1.1.47-1.69.47h0Z"/>
      <path class="cls-11" d="m247.06,263.82c-1.87,0-3.38-1.51-3.38-3.38,0-.78.27-1.54.77-2.15l9.33-11.38-17.74,10.24c-1.62.92-3.69.35-4.61-1.27-.8-1.4-.49-3.17.73-4.23l2.45-2.09-2.55,1.47c-1.61.94-3.68.4-4.63-1.21-.82-1.41-.52-3.21.72-4.27l2.16-1.87c-1.68.81-3.7.1-4.51-1.59-.59-1.23-.38-2.7.53-3.72l5.79-6.51c-1.83-.38-3-2.18-2.62-4,.2-.94.78-1.75,1.61-2.23l13.87-8.01c1.62-.93,3.69-.38,4.62,1.24.73,1.26.57,2.85-.4,3.94l-3.97,4.47,12.17-7.03c1.62-.93,3.69-.37,4.62,1.25.8,1.4.51,3.17-.71,4.23l-2.12,1.85,3.95-2.28c1.63-.91,3.69-.33,4.6,1.3.78,1.39.48,3.14-.72,4.19l-2.45,2.1,1.89-1.09c1.62-.94,3.68-.38,4.62,1.23.71,1.22.58,2.75-.31,3.84l-9.33,11.37,4.02-2.32c1.58-1,3.67-.54,4.67,1.04,1,1.58.54,3.67-1.04,4.67-.08.05-.16.1-.25.14l-20.09,11.61c-.51.3-1.1.46-1.69.45h0Z"/>
      <path class="cls-5" d="m241.66,290.39c-1.87,0-3.38-1.51-3.38-3.38,0-.69.21-1.36.6-1.93l9.47-13.63-21.7,12.52c-1.61.94-3.68.4-4.63-1.21-.79-1.35-.55-3.05.57-4.14l1.12-1.08-3.38,1.95c-1.35.78-3.07.53-4.15-.6-1.08-1.14-1.23-2.87-.37-4.18l2.42-3.69-3.99,2.29c-.9.53-2,.61-2.96.21-.97-.39-1.7-1.21-1.98-2.21l-1.55-5.48c-1.85.24-3.55-1.07-3.79-2.92-.18-1.35.48-2.68,1.66-3.36l2.58-1.49c.9-.53,2-.61,2.97-.21.97.39,1.7,1.21,1.98,2.22l1.47,5.23,12.54-7.24c1.62-.93,3.69-.38,4.62,1.24.64,1.1.6,2.47-.1,3.54l-2.41,3.69,14.68-8.45c1.61-.94,3.68-.4,4.63,1.21.79,1.35.55,3.05-.57,4.14l-1.12,1.08,11.15-6.43c1.62-.93,3.69-.37,4.62,1.25.65,1.13.59,2.53-.15,3.6l-9.47,13.63,32.03-18.48c1.61-.95,3.68-.42,4.63,1.18.8,1.36.56,3.09-.58,4.17l-7.06,6.82c1.86-.18,3.51,1.18,3.7,3.03.13,1.32-.52,2.59-1.67,3.26l-21.56,12.45c-1.61.95-3.68.42-4.63-1.18-.8-1.36-.56-3.09.58-4.17l6.22-6.02-21.34,12.33c-.51.3-1.09.46-1.68.46Z"/>
      <path class="cls-2" d="m367.56,431.74c61.75,16.82,40.21-70.54,26.18-101.34-12.29-30.98-32.84-57.98-59.43-78.07-.99-12.07-1.03-22.99-.89-35.98,22.55-5.84,45.37-25.56,46.94-50.09.55-8.62-5.9-12.29-13.38-9.42-13.35,5.55-27.19,9.82-41.34,12.75-10.5-17.34-32.21-14.32-50.93-14.32-29.68,2.62-82.44-13.49-101.45,14.53-14.43-2.87-28.53-7.2-42.09-12.91-7.94-3.04-14.01.78-13.59,9.72,1.15,24.68,25.4,44.64,47.87,49.97-.79,12.17-1.45,24.35-2.08,36.52-50.22,38.47-72.8,94.3-74.05,156.64,2.06,31.43,53.5,31,55.46-.37-1.08-25.19,3.08-50.34,12.22-73.84-1.88,19.25,6.42,41.53,26.32,43.22l-2.56,58.78c-.68,15.22,3.38,41.37-1.54,57.03.73-5.36-8.12-.12-15.1,3.71-12.21,6.95-19.78,19.89-19.83,33.94-.68,19.94,10.14,22.55,27.26,23.3,15.83.68,46.44,5.51,59.6-6.99,9.77-9.29,7.47-24.53,7.47-36.57v-132.15h20.73v130.61c0,12.71-2.59,28.82,7.79,38.55,13.21,12.42,44.38,7.15,60.27,6.57,15.56-.56,25.15-3.22,26.1-20.67,1.87-21.07-13.87-37.2-34.13-40.73-1.14-38.87-3.38-76.38-4.86-115.09,23.93-5.32,25.96-26.86,24.48-48.15,11.43,23.87,12.99,46.12,15,73.8.84,11.68,1.83,21.42,13.57,27.05h0Zm-3.92-264.98c4.22-1.79,10.08-5.62,9.66,2.98-3.15,18.88-22.24,33.88-39.96,38.39.08-10.51-1.39-20.97-4.38-31.05,11.91-2.12,23.55-5.59,34.68-10.32Zm-221.15,30.39c-7.82-6.9-17.28-18.12-18.31-28.82,1.13-6.72,6.13-3.16,9.77-1.62,11.6,4.92,23.73,8.48,36.14,10.61-2.47,10.21-3.83,20.66-4.06,31.17-8.61-1.93-16.66-5.82-23.52-11.38l-.03.03Zm-5.83,212.59c-1.45,23.35-37.72,22.65-39.23-.37,1.16-57.82,21.2-109.9,65.47-147.02-.83,18.44-1.79,34.69-4.44,53.69-18.05,29.44-21.76,59.56-21.8,93.69Zm75.15,137.91c-15.84,1.02-31.72,1.02-47.56,0-28.46-9.92-6.32-46.25,16.33-46.25,2.52,0,3.82-2.71,3.92-4.85l5.09-116.93c14.41.95,28.4-.17,42.61.16v115.99c0,20.88,6.89,44.93-20.39,51.88h0Zm129.63-6.63c-9.32,8.64-4.62,4.88-14.67,6.57-12.29,1.6-24.74,1.6-37.03,0-27.63-3.77-24.17-23.53-24.17-44.29v-123.51h42.75l5.12,117.47c.07,1.7,1.47,4.21,3.43,4.21,35.06-.02,37.71,27.36,24.57,39.54h0Zm-30.39-169.34h-74.97c-40.48,2.52-77.42,5.76-72.21-49.79,1.35-2.81,5.72-7.55.46-8.79,1.28-19.19,4.52-37.78,4.99-55.96,2.03-1.35,1.74-3.1.12-4.06.17-11.42-.2-23.85.2-35.96,2.98-.96,3.46-6.82.4-7.65-2.19-59.92,58.2-47.59,97.88-46.1,36.82-2.29,57.13,3.8,59.08,46.67-1.71,2.02-1.46,5.05.56,6.77.04.03.08.07.12.1.93,11.84,1.17,23.93,1.35,35.92-1.13,1.6-1.1,3.75.09,5.32.15,18.41,1.56,36.79,4.2,55.02-2.38,2.71-1.1,5.78.6,8.28,1.24,22.81-1.77,46.33-22.87,50.24Zm23.94-108.72c100.91,83.31,63.61,202.47,25.27,145.41-5.2-9.24-.46-34.49-2.6-45.9-3.51-17.1-10.11-33.41-19.46-48.15-.9-17.12-2.08-34.23-3.21-51.34v-.02Z"/>
      <path class="cls-2" d="m197.7,241.43c-.07,53.65,76.85,67.73,97.08,19.55,32.29-74.96-95.96-99.54-97.08-19.55h0Zm42.74,42.13c-11.18-2.57-20.91-9.4-27.13-19.04h71.76c-9.22,15.31-27.21,22.98-44.64,19.04Zm7.38-59.95c22.6-.09,22.7,35.9.04,33.42-18.5-3.23-21.32-33.21-.04-33.42Zm41.06,33.42h-23.72c9.42-8.65,10.05-23.3,1.41-32.72-4.26-4.64-10.23-7.35-16.54-7.49-20.15-.92-33.75,26.27-18.48,40.24h-22.28c-9.5-21.84.51-47.24,22.34-56.73,6.67-2.9,13.96-4.07,21.21-3.39,24.31,2.9,41.67,24.97,38.77,49.28-.44,3.7-1.35,7.34-2.7,10.81Z"/>
      <path class="cls-2" d="m297.35,324.73c-5.88.25-10.85-4.31-11.1-10.2,0-.16,0-.31,0-.47-.09-5.06-7.07-2.33-6.99,1.62.02,2.73.62,5.43,1.77,7.91-20.2,11.06-44.74,10.61-64.51-1.18,1.45-2.61,2.24-5.53,2.31-8.51.09-4.65-7.32-1.86-7.4,1.96.41,3.43-1.46,6.73-4.61,8.15-1.38.54-2.83.86-4.31.93-3.92,0-6.87,6.97-1.81,6.94,3.74-.01,7.39-1.17,10.44-3.33,22.74,13.77,51.26,13.75,73.98-.06,2.84,2.33,6.41,3.6,10.08,3.6,3.79.02,6.82-7.31,2.16-7.34h0Z"/>
    </g>
  </g>
  <g id="Capa_3" data-name="Capa 3">
    <g id="Capa_1-2" data-name="Capa 1">
      <g>
        <g>
          <g>
            <path class="cls-4" d="m305.27,16.77s-1.83,1.17-4.61,3.6c-2.79,2.43-6.49,6.19-10.19,11.56-3.7,5.32-7.35,12.12-10.19,20.48-2.84,8.31-4.77,18.15-5.48,29.56-.66,11.41,0,23.83,1.01,36,1.01,12.17,2.33,24.08,3.45,34.53,1.12,10.39,1.98,19.52,2.53,26.01.56,6.44.86,10.29.86,10.29,0,0,1.32-3.65,3.5-9.73,2.23-6.13,5.42-14.6,9.18-24.44,3.75-9.84,8.11-21.04,12.27-32.5,4.11-11.51,7.96-23.17,10.29-34.43,2.28-11.2,2.99-21.34,2.38-30.07-.56-8.77-2.38-16.27-4.56-22.36-2.18-6.13-4.82-10.8-6.9-13.84-2.08-3.09-3.55-4.66-3.55-4.66Z"/>
            <path class="cls-3" d="m319.92,74.67c-6.49,5.68-12.12,10.8-16.38,14.7-4.31,3.95-7.35,7-8.87,8.37-1.06-1.77-3.35-5.37-6.39-10.39-3.14-4.87-7.2-11.15-12.02-18.4-.15,1.17-.35,2.33-.51,3.5,5.42,8.21,9.84,14.96,12.88,19.77,3.04,4.87,4.82,7.76,4.82,7.81l.71,1.17,1.01-.96s2.54-2.38,6.69-6.29c4.21-3.8,10.24-9.33,17.59-15.77.15-1.22.3-2.38.41-3.55l.05.05Z"/>
            <path class="cls-14" d="m280.93,202.03s1.01-3.09,2.59-9.43c1.57-6.34,3.7-15.92,5.73-29,1.98-13.08,3.4-28.24,4.06-40.21.66-11.97.71-20.69.71-20.69,0,0-2.23,8.42-4.66,20.18-2.48,11.71-5.07,26.77-6.49,39.9s-1.83,22.97-1.98,29.46c-.1,6.54.05,9.73.05,9.73v.05Z"/>
            <path class="cls-8" d="m277.33,63.11c5.37,8.31,9.89,15.16,13.08,20.23,3.19,5.02,5.07,8.01,5.07,8.01,0,0,2.59-2.38,7-6.44,4.46-4.01,10.7-9.63,17.9-16.12.86-16.58-2.69-29.61-6.69-38.58-1.98-4.51-4.11-7.76-5.68-10.04-1.57-2.23-2.69-3.4-2.69-3.4,0,0-1.32.81-3.45,2.59-2.13,1.77-5.02,4.41-8.06,8.16-6.19,7.61-12.93,19.37-16.43,35.59h-.05Z"/>
            <path class="cls-13" d="m317.89,87.65c2.28-11.2,2.99-21.34,2.38-30.07-.56-8.77-2.38-16.27-4.56-22.36-2.18-6.13-4.82-10.8-6.9-13.84-2.08-3.09-3.55-4.66-3.55-4.66l-22.61,171.97s1.32-3.65,3.5-9.73c2.23-6.13,5.42-14.6,9.18-24.44,3.75-9.84,8.11-21.04,12.27-32.5,4.11-11.51,7.96-23.17,10.29-34.43v.05Z"/>
          </g>
          <g>
            <path class="cls-6" d="m366.92,47.8s-2.03.66-5.32,2.28c-3.3,1.67-7.76,4.31-12.62,8.42-4.87,4.16-10.09,9.73-14.86,16.98-4.77,7.25-9.13,16.12-12.57,26.82-3.5,10.7-5.93,22.66-8.01,34.53-2.08,11.81-3.8,23.47-5.37,33.72-1.57,10.24-3.04,19.16-4.11,25.45-1.06,6.24-1.72,9.99-1.72,9.99,0,0,2.18-3.14,5.78-8.42,3.6-5.17,8.77-12.47,14.86-20.94,6.03-8.42,13.03-18.1,19.82-27.89,6.74-9.84,13.38-20.08,18.4-30.17,5.02-10.09,8.16-19.52,9.84-28.04,1.67-8.57,1.83-16.07,1.27-22.41-.61-6.34-1.88-11.46-3.09-14.96-1.22-3.45-2.23-5.32-2.23-5.32l-.05-.05Z"/>
            <path class="cls-10" d="m366.31,106.71c-3.8,1.83-7.3,3.6-10.6,5.32-3.19,1.67-6.13,3.19-8.72,4.56-5.07,2.64-8.72,4.72-10.49,5.68-.61-1.93-1.83-5.93-3.5-11.46-1.72-5.58-4.11-12.42-6.84-20.53-.46,1.06-.91,2.13-1.37,3.19,1.52,4.51,2.94,8.67,4.21,12.42.61,1.83,1.17,3.55,1.72,5.17.51,1.62.96,3.14,1.42,4.51,1.67,5.37,2.64,8.57,2.69,8.62l.41,1.27,1.22-.66s.76-.41,2.13-1.17,3.3-1.77,5.78-3.09c2.54-1.32,5.53-2.89,8.97-4.72,1.77-.91,3.6-1.88,5.58-2.89,1.98-.96,4.01-1.98,6.13-2.99.46-1.12.86-2.18,1.27-3.24Z"/>
            <path class="cls-14" d="m297.31,218.15s1.72-2.69,4.82-8.37c3.09-5.68,7.5-14.25,12.67-26.16s10.34-26.11,13.94-37.32c3.65-11.2,5.83-19.47,5.83-19.47,0,0-4.26,7.45-9.48,18.05-5.27,10.55-11.51,24.23-16.17,36.4-4.66,12.17-7.5,21.4-9.23,27.58-1.72,6.19-2.38,9.28-2.38,9.28Z"/>
            <path class="cls-1" d="m328.64,84.96c3.04,9.23,5.68,16.83,7.45,22.51,1.77,5.53,2.84,8.82,2.84,8.82,0,0,.76-.41,2.18-1.17s3.5-1.88,6.03-3.19c2.59-1.37,5.73-2.99,9.23-4.82,3.55-1.88,7.55-3.95,11.81-6.08,5.02-15.72,4.92-28.95,3.3-38.43-1.57-9.53-4.61-14.91-4.61-14.91,0,0-5.98,1.83-13.69,7.4-7.76,5.58-17.24,15.21-24.59,29.76l.05.1Z"/>
            <path class="cls-13" d="m361.14,118.52c5.02-10.09,8.16-19.52,9.84-28.04,1.67-8.57,1.83-16.07,1.27-22.41-.61-6.34-1.88-11.46-3.09-14.96-1.22-3.45-2.23-5.32-2.23-5.32l-64.59,158.13s2.18-3.14,5.78-8.42c3.6-5.17,8.77-12.47,14.86-20.94,6.03-8.42,13.03-18.1,19.82-27.89,6.74-9.84,13.38-20.08,18.4-30.17h-.05Z"/>
          </g>
          <g>
            <path class="cls-4" d="m418.28,91.2s-1.98.1-5.27.81-7.96,2.03-13.23,4.51c-5.22,2.43-11.26,6.24-17.19,11.51-5.98,5.27-11.91,12.17-17.59,20.84-5.63,8.67-10.65,18.71-15.31,28.7-4.66,10.04-8.87,19.82-12.78,28.65-7.71,17.54-13.54,30.01-13.54,30.01,0,0,2.64-2.23,7.1-5.98,4.46-3.75,10.8-9.02,18.2-15.11,7.4-6.13,15.77-12.83,24.13-20.03,8.37-7.15,16.68-14.7,23.47-22.46,6.84-7.76,11.86-15.36,15.36-22.56,3.5-7.15,5.53-13.94,6.49-19.62.96-5.73,1.01-10.55.81-13.94-.2-3.4-.66-5.32-.66-5.32Z"/>
            <path class="cls-3" d="m403.67,143.31c-3.8.76-7.35,1.52-10.6,2.18-3.24.76-6.24,1.42-8.82,2.03-5.12,1.22-8.82,2.08-10.65,2.48-.1-1.88-.25-5.68-.46-10.9-.1-2.64-.2-5.73-.46-9.02-.25-3.35-.51-6.95-.76-10.85-.66.81-1.32,1.67-1.98,2.54.3,4.36.61,8.37.86,11.97.15,3.6.3,6.74.46,9.38.2,5.12.35,8.16.35,8.21v1.22l1.27-.25c.05,0,2.99-.71,8.01-1.88,2.53-.61,5.63-1.32,9.13-2.08,3.5-.71,7.45-1.52,11.71-2.43.66-.86,1.27-1.72,1.93-2.59Z"/>
            <path class="cls-14" d="m316.07,225.85s2.18-1.93,6.24-6.19c4.06-4.26,10.04-10.8,17.49-20.18,7.4-9.38,15.36-20.69,21.24-29.81,5.93-9.13,9.84-15.97,9.84-15.97,0,0-5.53,5.63-12.73,13.79-7.2,8.11-15.97,18.81-23.02,28.49-7,9.68-11.71,17.19-14.75,22.26-2.99,5.07-4.31,7.66-4.31,7.66v-.05Z"/>
            <path class="cls-8" d="m375.44,115.13c.25,4.36.56,8.47.76,12.12.2,3.65.35,6.9.46,9.63.3,5.32.46,8.47.46,8.47,0,0,3.09-.71,8.26-1.83,2.64-.61,5.83-1.32,9.38-2.13,3.6-.76,7.6-1.62,11.86-2.53,4.06-6.34,6.9-12.47,8.82-18.15s2.84-10.75,3.24-15.16c.41-4.36.25-7.96.05-10.44-.2-2.48-.56-3.9-.56-3.9,0,0-5.73.25-13.94,3.4-8.16,3.04-18.86,9.38-28.85,20.58l.05-.05Z"/>
            <path class="cls-13" d="m396.32,152.59c6.84-7.76,11.86-15.36,15.36-22.56,3.5-7.15,5.53-13.94,6.49-19.62.96-5.73,1.01-10.55.81-13.94-.2-3.4-.66-5.32-.66-5.32l-94.86,125.03s2.64-2.23,7.1-5.98c4.46-3.75,10.8-9.02,18.2-15.11,7.4-6.13,15.77-12.83,24.13-20.03,8.37-7.15,16.68-14.7,23.47-22.46h-.05Z"/>
          </g>
          <g>
            <path class="cls-6" d="m452.4,139.01s-1.77-.41-4.87-.56c-3.14-.1-7.6,0-12.93,1.06-5.32,1.06-11.41,2.94-18,6.34s-13.54,8.16-20.63,14.65c-7.1,6.49-13.89,14.3-20.38,22.16-6.44,7.81-12.67,15.82-18.1,22.76-5.48,6.95-10.19,12.88-13.59,17.09-3.45,4.21-5.48,6.74-5.48,6.74,0,0,2.89-1.42,7.76-3.75,4.87-2.33,11.86-5.63,19.82-9.33,7.96-3.7,17.09-7.86,26.26-12.37s18.35-9.38,26.26-14.8,14.15-11.05,18.91-16.68c4.77-5.63,8.11-11.15,10.39-16.12,2.23-4.92,3.35-9.18,3.9-12.27.56-3.04.61-4.87.61-4.87l.05-.05Z"/>
            <path class="cls-10" d="m427.3,182.3c-7.3-.3-13.44-.61-18.4-.66-4.87-.05-8.47-.15-10.19-.15.2-.86.51-2.13.86-3.8s.81-3.7,1.27-6.08c.96-4.77,2.33-11.05,3.55-18.05-.76.61-1.57,1.22-2.38,1.83-1.37,7.96-2.89,14.75-3.8,19.37-.51,2.33-.86,4.16-1.17,5.48-.3,1.27-.46,1.98-.46,2.03l-.25,1.12h1.17s2.89.1,7.66.15c1.22,0,2.53,0,4.01.05,1.42.05,2.99.1,4.61.15,3.35.15,7.1.3,11.15.46.76-.61,1.57-1.27,2.28-1.88h.1Z"/>
            <path class="cls-14" d="m329.65,236.2s2.38-1.27,7.05-4.11c4.61-2.89,11.51-7.4,20.33-14.04,8.82-6.69,18.51-15.01,25.91-21.85,7.4-6.79,12.47-12.02,12.47-12.02,0,0-6.24,3.75-14.55,9.38-8.31,5.58-18.71,13.13-27.23,20.18-8.52,7.05-14.45,12.68-18.35,16.58-3.9,3.85-5.68,5.93-5.68,5.93l.05-.05Z"/>
            <path class="cls-1" d="m408.54,150.62c-.35,1.98-.76,3.9-1.12,5.78-.35,1.88-.76,3.65-1.06,5.32-.66,3.3-1.27,6.24-1.77,8.67-.46,2.43-.86,4.31-1.17,5.68-.3,1.32-.41,2.08-.41,2.08,0,0,2.94.1,7.91.25,5.07.05,11.91.41,20.13.66,10.14-9.48,15.77-19.42,18.51-27.07,2.74-7.6,2.84-12.88,2.84-12.88,0,0-1.27-.25-3.55-.46s-5.63-.2-9.68.25c-8.11.91-18.96,3.95-30.62,11.76v-.05Z"/>
            <path class="cls-13" d="m418.58,188.94c7.91-5.42,14.15-11.05,18.91-16.68s8.11-11.15,10.39-16.12c2.23-4.92,3.35-9.18,3.9-12.27.56-3.04.61-4.87.61-4.87l-113.97,90.2s2.89-1.42,7.76-3.75c4.87-2.33,11.86-5.63,19.82-9.33,7.96-3.7,17.09-7.86,26.26-12.37s18.35-9.38,26.26-14.8h.05Z"/>
          </g>
          <g>
            <path class="cls-4" d="m477.6,188.03s-1.52-.81-4.36-1.72c-1.42-.46-3.14-.96-5.17-1.37-2.03-.41-4.41-.76-7-.96-5.22-.41-11.41-.15-18.3,1.27s-14.6,4.06-22.81,8.21c-8.21,4.16-16.48,9.63-24.59,15.26-8.06,5.63-15.77,11.41-22.61,16.43-3.4,2.48-6.59,4.82-9.43,6.9-2.89,2.08-5.42,3.9-7.55,5.48-4.21,3.04-6.74,4.82-6.74,4.82,0,0,3.04-.56,8.16-1.47,5.17-.96,12.37-2.18,20.74-3.55s17.9-2.94,27.53-4.77c9.63-1.88,19.32-4.01,28.04-7,8.67-2.99,15.97-6.69,21.8-10.65s10.29-8.21,13.64-12.22,5.58-7.71,6.84-10.34c1.32-2.69,1.83-4.31,1.83-4.31h0Z"/>
            <path class="cls-3" d="m443.32,221.65c-6.59-2.13-12.42-3.9-16.88-5.27-4.46-1.37-7.86-2.28-9.38-2.74.76-1.47,2.38-4.51,4.61-8.67,2.13-4.16,4.87-9.53,7.96-15.82-.86.35-1.77.71-2.64,1.06-3.45,7.05-6.44,12.88-8.52,16.93-2.18,4.11-3.45,6.49-3.45,6.54l-.51.96,1.06.3s2.69.76,7.1,2.08c4.36,1.37,10.65,3.24,18.1,5.68.86-.41,1.77-.76,2.64-1.17l-.1.1Z"/>
            <path class="cls-14" d="m339.08,246.64s2.53-.56,7.61-2.03c5.02-1.47,12.57-3.9,22.46-7.81,9.89-3.95,20.99-9.18,29.56-13.59s14.65-7.96,14.65-7.96c0,0-6.74,1.88-15.87,4.97-9.13,3.04-20.63,7.4-30.32,11.71-9.68,4.36-16.68,8.06-21.24,10.65s-6.74,4.06-6.74,4.06h-.1Z"/>
            <path class="cls-8" d="m434.09,187.58c-3.55,6.95-6.59,12.98-8.77,17.29-2.18,4.26-3.5,6.74-3.5,6.74,0,0,2.74.81,7.3,2.18,4.56,1.42,11,3.4,18.45,5.73,11.86-6.19,19.47-13.94,24.03-20.33,2.33-3.19,3.75-5.98,4.66-7.96.91-2.03,1.27-3.19,1.27-3.19,0,0-1.12-.56-3.19-1.32-2.08-.71-5.07-1.67-8.97-2.23-7.76-1.17-18.66-1.12-31.33,3.09h.05Z"/>
            <path class="cls-13" d="m433.49,225.6c8.67-2.99,15.97-6.69,21.8-10.65,5.83-3.95,10.29-8.21,13.64-12.22s5.58-7.71,6.84-10.34c1.32-2.69,1.83-4.31,1.83-4.31l-128.58,54.35s3.04-.56,8.16-1.47c5.17-.96,12.37-2.18,20.74-3.55s17.9-2.94,27.53-4.77c9.63-1.88,19.32-4.01,28.04-7v-.05Z"/>
          </g>
          <g>
            <path class="cls-6" d="m473.69,232.7s-1.32-.86-3.75-2.03c-2.43-1.12-6.03-2.54-10.55-3.5-4.61-.96-10.19-1.47-16.58-.96-6.39.46-13.54,1.93-21.34,4.66-7.86,2.79-15.92,6.69-23.78,10.8-7.86,4.11-15.41,8.37-22.11,12.02-13.49,7.45-23.27,12.67-23.27,12.67,0,0,2.79-.15,7.5-.35s11.31-.46,18.91-.76c7.66-.3,16.43-.56,25.2-1.06,8.82-.56,17.75-1.37,25.91-3.04,8.11-1.67,15.06-4.11,20.79-7,5.78-2.89,10.19-6.19,13.64-9.33,3.45-3.19,5.83-6.24,7.35-8.47,1.52-2.23,2.13-3.65,2.13-3.65h-.05Z"/>
            <path class="cls-10" d="m439.06,258.81c-5.58-2.69-10.6-4.92-14.5-6.64-3.85-1.72-6.64-2.94-8.06-3.55,1.67-2.43,7.2-9.94,14.04-20.38-.81.2-1.67.41-2.48.66-3.95,5.93-7.15,10.75-9.63,14.15-2.38,3.4-3.8,5.37-3.8,5.42l-.56.81.91.41s.61.25,1.67.71c1.01.46,2.53,1.12,4.41,1.98,3.75,1.72,9.28,4.11,15.51,7.15.81-.25,1.67-.51,2.48-.71Z"/>
            <path class="cls-14" d="m342.94,269.05s2.38-.2,7.05-.91c4.66-.76,11.66-2.03,20.94-4.41,9.28-2.38,19.87-5.78,28.04-8.77,8.16-2.94,13.99-5.42,13.99-5.42,0,0-6.29.91-14.8,2.59-8.52,1.67-19.37,4.21-28.54,6.95-9.18,2.74-15.87,5.27-20.23,7.05-4.41,1.77-6.49,2.84-6.49,2.84l.05.1Z"/>
            <path class="cls-1" d="m434.8,227.32c-4.01,5.88-7.35,10.85-9.84,14.4-2.43,3.55-3.85,5.63-3.85,5.63,0,0,2.33,1.06,6.24,2.84,1.98.91,4.31,1.98,7,3.19,1.37.61,2.79,1.27,4.26,1.93,1.47.71,2.99,1.42,4.61,2.13,5.68-2.08,10.49-4.66,14.45-7.3,3.95-2.69,7.05-5.48,9.43-8.06s4.11-4.92,5.17-6.59c1.01-1.67,1.47-2.69,1.47-2.69,0,0-3.75-2.59-10.44-4.56-6.69-1.98-16.58-3.14-28.39-.86l-.1-.05Z"/>
            <path class="cls-13" d="m429.84,261.19c8.11-1.67,15.06-4.11,20.79-7,5.78-2.89,10.19-6.19,13.64-9.33,3.45-3.19,5.83-6.24,7.35-8.47,1.52-2.23,2.13-3.65,2.13-3.65l-121.38,33.72s2.79-.15,7.5-.35,11.31-.46,18.91-.76c7.66-.3,16.43-.56,25.2-1.06,8.82-.56,17.75-1.37,25.91-3.04l-.05-.05Z"/>
          </g>
          <g>
            <path class="cls-4" d="m463.4,276.86s-.2-.25-.71-.71c-.46-.46-1.17-1.06-2.13-1.83-1.88-1.47-4.72-3.4-8.47-5.17-3.75-1.77-8.52-3.35-14.15-4.26s-12.17-1.12-19.52-.35c-7.35.76-15.21,2.48-22.82,4.41-7.66,1.93-15.06,4.06-21.65,5.88-6.54,1.83-12.27,3.35-16.33,4.46-4.01,1.06-6.44,1.72-6.44,1.72,0,0,9.68,1.77,23.17,4.51,6.74,1.32,14.25,2.89,22.05,4.26,7.76,1.32,15.72,2.48,23.12,2.69,7.4.2,13.89-.46,19.42-1.83,5.53-1.32,10.24-3.24,13.79-5.27,3.6-2.03,6.29-4.16,8.06-5.78s2.64-2.74,2.64-2.74h-.05Z"/>
            <path class="cls-3" d="m428.01,292.32c-2.18-1.72-4.21-3.35-6.03-4.82s-3.6-2.79-5.12-3.95c-2.99-2.28-5.17-3.9-6.24-4.72,1.01-.86,3.04-2.69,5.83-5.17,1.42-1.27,3.04-2.74,4.82-4.31,1.72-1.62,3.65-3.4,5.68-5.27h-2.28c-2.28,2.13-4.36,4.11-6.29,5.83s-3.6,3.19-4.97,4.46c-2.74,2.43-4.36,3.9-4.41,3.9l-.66.61.71.56s1.77,1.32,4.66,3.6c1.47,1.12,3.3,2.48,5.32,4.06,2.03,1.62,4.26,3.4,6.69,5.32.76,0,1.52-.1,2.28-.1Z"/>
            <path class="cls-14" d="m342.53,281.37s2.08.35,6.24.66c4.21.3,10.55.66,19.11.51,8.57-.15,18.4-.91,26.11-1.83,7.71-.86,13.28-1.77,13.28-1.77,0,0-1.42-.1-3.75-.3-2.38-.15-5.73-.35-9.63-.51-7.76-.3-17.64-.35-26.21.15-8.52.51-14.8,1.32-19.01,1.93-4.16.66-6.19,1.12-6.19,1.12l.05.05Z"/>
            <path class="cls-8" d="m430.8,264.13c-4.56,4.26-8.67,7.86-11.51,10.44-2.84,2.54-4.51,4.06-4.51,4.06,0,0,1.77,1.37,4.77,3.75,1.52,1.17,3.35,2.59,5.48,4.21,2.08,1.62,4.36,3.45,6.79,5.37,10.7-1.32,18.76-4.92,23.88-8.42,5.17-3.5,7.71-6.69,7.71-6.69,0,0-.66-.76-2.03-1.88-1.37-1.12-3.4-2.69-6.13-4.21-2.74-1.52-6.08-3.09-10.19-4.31-4.11-1.22-8.87-2.08-14.25-2.33Z"/>
            <path class="cls-13" d="m419.49,292.47c7.4.2,13.89-.46,19.42-1.83,5.53-1.32,10.24-3.24,13.79-5.27,3.6-2.03,6.29-4.16,8.06-5.78s2.64-2.74,2.64-2.74l-112.2,4.21s9.68,1.77,23.17,4.51c6.74,1.32,14.25,2.89,22.05,4.26,7.76,1.32,15.72,2.48,23.12,2.69l-.05-.05Z"/>
          </g>
          <g>
            <path class="cls-4" d="m189.87,16.77s1.83,1.17,4.61,3.6c2.79,2.43,6.49,6.19,10.19,11.56,3.7,5.32,7.35,12.12,10.19,20.48,2.84,8.31,4.77,18.15,5.48,29.56.66,11.41,0,23.83-1.01,36-1.01,12.17-2.33,24.08-3.45,34.53-1.12,10.39-1.98,19.52-2.53,26.01-.56,6.44-.86,10.29-.86,10.29,0,0-1.32-3.65-3.5-9.73-2.23-6.13-5.42-14.6-9.18-24.44-3.75-9.84-8.11-21.04-12.27-32.5-4.11-11.51-7.96-23.17-10.29-34.43-2.28-11.2-2.99-21.34-2.38-30.07.56-8.77,2.38-16.27,4.56-22.36,2.18-6.13,4.82-10.8,6.9-13.84,2.08-3.09,3.55-4.66,3.55-4.66Z"/>
            <path class="cls-3" d="m175.27,74.67c6.49,5.68,12.12,10.8,16.38,14.7,4.31,3.95,7.35,7,8.87,8.37,1.06-1.77,3.35-5.37,6.39-10.39,3.14-4.87,7.2-11.15,12.02-18.4.15,1.17.35,2.33.51,3.5-5.42,8.21-9.84,14.96-12.88,19.77-3.04,4.87-4.82,7.76-4.82,7.81l-.71,1.17-1.01-.96s-2.54-2.38-6.69-6.29c-4.21-3.8-10.24-9.33-17.59-15.77-.15-1.22-.3-2.38-.41-3.55l-.05.05Z"/>
            <path class="cls-14" d="m214.26,202.03s-1.01-3.09-2.59-9.43c-1.57-6.34-3.7-15.92-5.73-29-1.98-13.08-3.4-28.24-4.06-40.21-.66-11.97-.71-20.69-.71-20.69,0,0,2.23,8.42,4.66,20.18,2.48,11.71,5.07,26.77,6.49,39.9,1.47,13.13,1.83,22.97,1.98,29.46.1,6.54-.05,9.73-.05,9.73v.05Z"/>
            <path class="cls-8" d="m217.86,63.11c-5.37,8.31-9.89,15.16-13.08,20.23-3.19,5.02-5.07,8.01-5.07,8.01,0,0-2.59-2.38-6.95-6.44-4.46-4.01-10.7-9.63-17.9-16.12-.86-16.58,2.69-29.61,6.69-38.58,1.98-4.51,4.11-7.76,5.68-10.04,1.57-2.23,2.69-3.4,2.69-3.4,0,0,1.32.81,3.45,2.59,2.13,1.77,5.02,4.41,8.06,8.16,6.19,7.61,12.93,19.37,16.43,35.59Z"/>
            <path class="cls-13" d="m177.3,87.65c-2.28-11.2-2.99-21.34-2.38-30.07.56-8.77,2.38-16.27,4.56-22.36,2.18-6.13,4.82-10.8,6.9-13.84,2.08-3.09,3.55-4.66,3.55-4.66l22.61,171.97s-1.32-3.65-3.5-9.73c-2.23-6.13-5.42-14.6-9.18-24.44-3.75-9.84-8.11-21.04-12.27-32.5-4.11-11.51-7.96-23.17-10.29-34.43v.05Z"/>
          </g>
          <g>
            <path class="cls-6" d="m128.27,47.8s2.03.66,5.32,2.28c3.3,1.67,7.76,4.31,12.62,8.42,4.87,4.16,10.09,9.73,14.86,16.98,4.77,7.25,9.13,16.12,12.57,26.82,3.5,10.7,5.93,22.66,8.01,34.53,2.08,11.81,3.8,23.47,5.37,33.72s3.04,19.16,4.11,25.45c1.06,6.24,1.72,9.99,1.72,9.99,0,0-2.18-3.14-5.78-8.42-3.6-5.17-8.77-12.47-14.86-20.94-6.03-8.42-13.03-18.1-19.82-27.89-6.74-9.84-13.38-20.08-18.4-30.17-5.02-10.09-8.16-19.52-9.84-28.04-1.67-8.57-1.83-16.07-1.27-22.41.61-6.34,1.88-11.46,3.09-14.96,1.22-3.45,2.23-5.32,2.23-5.32l.05-.05Z"/>
            <path class="cls-10" d="m128.88,106.71c3.8,1.83,7.3,3.6,10.6,5.32,3.19,1.67,6.13,3.19,8.72,4.56,5.07,2.64,8.72,4.72,10.49,5.68.61-1.93,1.83-5.93,3.5-11.46,1.72-5.58,4.11-12.42,6.84-20.53.46,1.06.91,2.13,1.37,3.19-1.52,4.51-2.94,8.67-4.21,12.42-.61,1.83-1.17,3.55-1.72,5.17-.51,1.62-.96,3.14-1.42,4.51-1.67,5.37-2.64,8.57-2.69,8.62l-.41,1.27-1.22-.66s-.76-.41-2.13-1.17c-1.37-.76-3.3-1.77-5.78-3.09-2.53-1.32-5.53-2.89-8.97-4.72-1.77-.91-3.6-1.88-5.58-2.89-1.98-.96-4.01-1.98-6.13-2.99-.46-1.12-.86-2.18-1.27-3.24Z"/>
            <path class="cls-14" d="m197.88,218.15s-1.72-2.69-4.82-8.37c-3.09-5.68-7.5-14.25-12.68-26.16-5.17-11.91-10.34-26.11-13.94-37.32-3.65-11.2-5.83-19.47-5.83-19.47,0,0,4.26,7.45,9.48,18.05,5.27,10.55,11.51,24.23,16.17,36.4,4.66,12.17,7.5,21.4,9.23,27.58,1.72,6.19,2.38,9.28,2.38,9.28Z"/>
            <path class="cls-1" d="m166.55,84.96c-3.04,9.23-5.68,16.83-7.45,22.51-1.77,5.53-2.84,8.82-2.84,8.82,0,0-.76-.41-2.18-1.17s-3.5-1.88-6.03-3.19c-2.59-1.37-5.73-2.99-9.23-4.82-3.55-1.88-7.55-3.95-11.81-6.08-5.02-15.72-4.92-28.95-3.3-38.43,1.57-9.53,4.61-14.91,4.61-14.91,0,0,5.98,1.83,13.69,7.4,7.76,5.58,17.24,15.21,24.59,29.76l-.05.1Z"/>
            <path class="cls-13" d="m134.05,118.52c-5.02-10.09-8.16-19.52-9.84-28.04-1.67-8.57-1.83-16.07-1.27-22.41.61-6.34,1.88-11.46,3.09-14.96,1.22-3.45,2.23-5.32,2.23-5.32l64.59,158.13s-2.18-3.14-5.78-8.42c-3.6-5.17-8.77-12.47-14.86-20.94-6.03-8.42-13.03-18.1-19.82-27.89-6.74-9.84-13.38-20.08-18.4-30.17h.05Z"/>
          </g>
          <g>
            <path class="cls-4" d="m76.91,91.2s1.98.1,5.27.81,7.96,2.03,13.23,4.51c5.22,2.43,11.26,6.24,17.19,11.51,5.98,5.27,11.91,12.17,17.59,20.84,5.63,8.67,10.65,18.71,15.31,28.7,4.66,10.04,8.87,19.82,12.78,28.65,7.71,17.54,13.54,30.01,13.54,30.01,0,0-2.64-2.23-7.1-5.98-4.46-3.75-10.8-9.02-18.2-15.11-7.4-6.13-15.77-12.83-24.13-20.03-8.37-7.15-16.68-14.7-23.47-22.46-6.84-7.76-11.86-15.36-15.36-22.56-3.5-7.15-5.53-13.94-6.49-19.62-.96-5.73-1.01-10.55-.81-13.94s.66-5.32.66-5.32Z"/>
            <path class="cls-3" d="m91.46,143.31c3.8.76,7.35,1.52,10.6,2.18,3.24.76,6.24,1.42,8.82,2.03,5.12,1.22,8.82,2.08,10.65,2.48.1-1.88.25-5.68.46-10.9.1-2.64.2-5.73.46-9.02.25-3.35.51-6.95.76-10.85.66.81,1.32,1.67,1.98,2.54-.3,4.36-.61,8.37-.86,11.97-.15,3.6-.3,6.74-.46,9.38-.2,5.12-.35,8.16-.35,8.21v1.22l-1.27-.25c-.05,0-2.99-.71-8.01-1.88-2.54-.61-5.63-1.32-9.13-2.08-3.5-.71-7.45-1.52-11.71-2.43-.66-.86-1.27-1.72-1.93-2.59Z"/>
            <path class="cls-14" d="m179.12,225.85s-2.18-1.93-6.24-6.19c-4.06-4.26-10.04-10.8-17.49-20.18-7.4-9.38-15.36-20.69-21.24-29.81-5.93-9.13-9.84-15.97-9.84-15.97,0,0,5.53,5.63,12.73,13.79,7.2,8.11,15.97,18.81,23.02,28.49,7,9.68,11.71,17.19,14.75,22.26,2.99,5.07,4.31,7.66,4.31,7.66v-.05Z"/>
            <path class="cls-8" d="m119.7,115.13c-.25,4.36-.56,8.47-.76,12.12-.2,3.65-.35,6.9-.46,9.63-.3,5.32-.46,8.47-.46,8.47,0,0-3.09-.71-8.26-1.83-2.64-.61-5.83-1.32-9.38-2.13-3.6-.76-7.6-1.62-11.86-2.53-4.06-6.34-6.9-12.47-8.82-18.15s-2.84-10.75-3.24-15.16c-.41-4.36-.25-7.96-.05-10.44.2-2.48.56-3.9.56-3.9,0,0,5.73.25,13.94,3.4,8.16,3.04,18.86,9.38,28.85,20.58l-.05-.05Z"/>
            <path class="cls-13" d="m98.87,152.59c-6.84-7.76-11.86-15.36-15.36-22.56-3.5-7.15-5.53-13.94-6.49-19.62-.96-5.73-1.01-10.55-.81-13.94.2-3.4.66-5.32.66-5.32l94.86,125.03s-2.64-2.23-7.1-5.98-10.8-9.02-18.2-15.11c-7.4-6.13-15.77-12.83-24.13-20.03-8.37-7.15-16.68-14.7-23.47-22.46h.05Z"/>
          </g>
          <g>
            <path class="cls-6" d="m42.79,139.01s1.77-.41,4.87-.56c3.14-.1,7.6,0,12.93,1.06,5.32,1.06,11.41,2.94,18,6.34,6.59,3.4,13.54,8.16,20.63,14.65,7.1,6.49,13.89,14.3,20.38,22.16,6.44,7.81,12.68,15.82,18.1,22.76,5.48,6.95,10.19,12.88,13.59,17.09,3.45,4.21,5.48,6.74,5.48,6.74,0,0-2.89-1.42-7.76-3.75-4.87-2.33-11.86-5.63-19.82-9.33-7.96-3.7-17.09-7.86-26.26-12.37-9.18-4.51-18.35-9.38-26.26-14.8-7.91-5.42-14.15-11.05-18.91-16.68-4.77-5.63-8.11-11.15-10.39-16.12-2.23-4.92-3.35-9.18-3.9-12.27-.56-3.04-.61-4.87-.61-4.87l-.05-.05Z"/>
            <path class="cls-10" d="m67.89,182.3c7.3-.3,13.44-.61,18.4-.66,4.87-.05,8.47-.15,10.19-.15-.2-.86-.51-2.13-.86-3.8s-.81-3.7-1.27-6.08c-.96-4.77-2.33-11.05-3.55-18.05.76.61,1.57,1.22,2.38,1.83,1.37,7.96,2.89,14.75,3.8,19.37.51,2.33.86,4.16,1.17,5.48.3,1.27.46,1.98.46,2.03l.25,1.12h-1.17s-2.89.1-7.66.15c-1.22,0-2.53,0-4.01.05-1.42.05-2.99.1-4.61.15-3.35.15-7.1.3-11.15.46-.76-.61-1.57-1.27-2.28-1.88h-.1Z"/>
            <path class="cls-14" d="m165.54,236.2s-2.38-1.27-7.05-4.11c-4.61-2.89-11.51-7.4-20.33-14.04-8.82-6.69-18.51-15.01-25.91-21.85-7.4-6.79-12.47-12.02-12.47-12.02,0,0,6.24,3.75,14.55,9.38,8.31,5.58,18.71,13.13,27.23,20.18,8.52,7.05,14.45,12.68,18.35,16.58,3.9,3.85,5.68,5.93,5.68,5.93l-.05-.05Z"/>
            <path class="cls-1" d="m86.65,150.62c.35,1.98.76,3.9,1.12,5.78.35,1.88.76,3.65,1.06,5.32.66,3.3,1.27,6.24,1.77,8.67.46,2.43.86,4.31,1.17,5.68.3,1.32.41,2.08.41,2.08,0,0-2.94.1-7.91.25-5.07.05-11.91.41-20.13.66-10.14-9.48-15.77-19.42-18.51-27.07-2.74-7.6-2.84-12.88-2.84-12.88,0,0,1.27-.25,3.55-.46s5.63-.2,9.68.25c8.11.91,18.96,3.95,30.62,11.76v-.05Z"/>
            <path class="cls-13" d="m76.61,188.94c-7.91-5.42-14.15-11.05-18.91-16.68-4.77-5.63-8.11-11.15-10.39-16.12-2.23-4.92-3.35-9.18-3.9-12.27-.56-3.04-.61-4.87-.61-4.87l113.97,90.2s-2.89-1.42-7.76-3.75c-4.87-2.33-11.86-5.63-19.82-9.33-7.96-3.7-17.09-7.86-26.26-12.37-9.18-4.51-18.35-9.38-26.26-14.8h-.05Z"/>
          </g>
          <g>
            <path class="cls-4" d="m17.59,188.03s1.52-.81,4.36-1.72c1.42-.46,3.14-.96,5.17-1.37s4.41-.76,7-.96c5.22-.41,11.41-.15,18.3,1.27s14.6,4.06,22.82,8.21c8.21,4.16,16.48,9.63,24.59,15.26,8.06,5.63,15.77,11.41,22.61,16.43,3.4,2.48,6.59,4.82,9.43,6.9,2.89,2.08,5.42,3.9,7.55,5.48,4.26,3.04,6.74,4.82,6.74,4.82,0,0-3.04-.56-8.16-1.47-5.17-.96-12.37-2.18-20.74-3.55-8.37-1.37-17.9-2.94-27.53-4.77-9.63-1.88-19.32-4.01-28.04-7-8.67-2.99-15.97-6.69-21.8-10.65-5.83-3.95-10.29-8.21-13.64-12.22-3.35-4.01-5.58-7.71-6.84-10.34-1.32-2.69-1.83-4.31-1.83-4.31Z"/>
            <path class="cls-3" d="m51.87,221.65c6.59-2.13,12.42-3.9,16.88-5.27,4.46-1.37,7.86-2.28,9.38-2.74-.76-1.47-2.38-4.51-4.61-8.67-2.13-4.16-4.87-9.53-7.96-15.82.86.35,1.77.71,2.64,1.06,3.45,7.05,6.44,12.88,8.52,16.93,2.18,4.11,3.45,6.49,3.45,6.54l.51.96-1.06.3s-2.69.76-7.1,2.08c-4.36,1.37-10.65,3.24-18.1,5.68-.86-.41-1.77-.76-2.64-1.17l.1.1Z"/>
            <path class="cls-14" d="m156.11,246.64s-2.53-.56-7.6-2.03c-5.02-1.47-12.57-3.9-22.46-7.81-9.89-3.95-20.99-9.18-29.56-13.59s-14.65-7.96-14.65-7.96c0,0,6.74,1.88,15.87,4.97,9.13,3.04,20.63,7.4,30.32,11.71,9.68,4.36,16.68,8.06,21.24,10.65,4.56,2.59,6.74,4.06,6.74,4.06h.1Z"/>
            <path class="cls-8" d="m61.1,187.58c3.55,6.95,6.59,12.98,8.77,17.29,2.18,4.26,3.5,6.74,3.5,6.74,0,0-2.74.81-7.3,2.18-4.56,1.42-11,3.4-18.45,5.73-11.86-6.19-19.47-13.94-24.03-20.33-2.33-3.19-3.75-5.98-4.66-7.96-.91-2.03-1.27-3.19-1.27-3.19,0,0,1.12-.56,3.19-1.32,2.08-.71,5.07-1.67,8.97-2.23,7.76-1.17,18.66-1.12,31.33,3.09h-.05Z"/>
            <path class="cls-13" d="m61.7,225.6c-8.67-2.99-15.97-6.69-21.8-10.65-5.83-3.95-10.29-8.21-13.64-12.22-3.35-4.01-5.58-7.71-6.84-10.34-1.32-2.69-1.83-4.31-1.83-4.31l128.58,54.35s-3.04-.56-8.16-1.47c-5.17-.96-12.37-2.18-20.74-3.55s-17.9-2.94-27.53-4.77c-9.63-1.88-19.32-4.01-28.04-7v-.05Z"/>
          </g>
          <g>
            <path class="cls-6" d="m21.5,232.7s1.32-.86,3.75-2.03c2.43-1.12,6.03-2.54,10.55-3.5,4.61-.96,10.19-1.47,16.58-.96,6.39.46,13.54,1.93,21.34,4.66,7.86,2.79,15.92,6.69,23.78,10.8,7.86,4.11,15.41,8.37,22.11,12.02,13.49,7.45,23.27,12.67,23.27,12.67,0,0-2.79-.15-7.5-.35s-11.31-.46-18.91-.76c-7.66-.3-16.43-.56-25.2-1.06-8.82-.56-17.75-1.37-25.91-3.04-8.11-1.67-15.06-4.11-20.79-7-5.78-2.89-10.19-6.19-13.64-9.33-3.45-3.19-5.83-6.24-7.35-8.47s-2.13-3.65-2.13-3.65h.05Z"/>
            <path class="cls-10" d="m56.13,258.81c5.58-2.69,10.6-4.92,14.5-6.64,3.85-1.72,6.64-2.94,8.06-3.55-1.67-2.43-7.2-9.94-14.04-20.38.81.2,1.67.41,2.48.66,3.95,5.93,7.15,10.75,9.63,14.15,2.38,3.4,3.8,5.37,3.8,5.42l.56.81-.91.41s-.61.25-1.67.71c-1.01.46-2.54,1.12-4.41,1.98-3.75,1.72-9.28,4.11-15.51,7.15-.81-.25-1.67-.51-2.48-.71Z"/>
            <path class="cls-14" d="m152.25,269.05s-2.38-.2-7.05-.91c-4.66-.76-11.66-2.03-20.94-4.41-9.28-2.38-19.87-5.78-28.04-8.77-8.16-2.94-13.99-5.42-13.99-5.42,0,0,6.29.91,14.8,2.59,8.52,1.67,19.37,4.21,28.54,6.95,9.18,2.74,15.87,5.27,20.23,7.05,4.41,1.77,6.49,2.84,6.49,2.84l-.05.1Z"/>
            <path class="cls-1" d="m60.39,227.32c4.01,5.88,7.35,10.85,9.84,14.4,2.43,3.55,3.85,5.63,3.85,5.63,0,0-2.33,1.06-6.24,2.84-1.98.91-4.31,1.98-7,3.19-1.37.61-2.79,1.27-4.26,1.93-1.47.71-2.99,1.42-4.61,2.13-5.68-2.08-10.49-4.66-14.45-7.3-3.95-2.69-7.05-5.48-9.43-8.06-2.38-2.59-4.11-4.92-5.17-6.59-1.01-1.67-1.47-2.69-1.47-2.69,0,0,3.75-2.59,10.44-4.56,6.69-1.98,16.58-3.14,28.39-.86l.1-.05Z"/>
            <path class="cls-13" d="m65.35,261.19c-8.11-1.67-15.06-4.11-20.79-7-5.78-2.89-10.19-6.19-13.64-9.33-3.45-3.19-5.83-6.24-7.35-8.47s-2.13-3.65-2.13-3.65l121.38,33.72s-2.79-.15-7.5-.35-11.31-.46-18.91-.76c-7.66-.3-16.43-.56-25.2-1.06-8.82-.56-17.74-1.37-25.91-3.04l.05-.05Z"/>
          </g>
          <g>
            <path class="cls-4" d="m31.79,276.86s.2-.25.71-.71c.46-.46,1.17-1.06,2.13-1.83,1.88-1.47,4.72-3.4,8.47-5.17,3.75-1.77,8.47-3.35,14.15-4.26,5.63-.91,12.17-1.12,19.52-.35,7.35.76,15.21,2.48,22.81,4.41,7.66,1.93,15.06,4.06,21.65,5.88,6.54,1.83,12.27,3.35,16.33,4.46,4.01,1.06,6.44,1.72,6.44,1.72,0,0-9.68,1.77-23.17,4.51-6.74,1.32-14.25,2.89-22.05,4.26-7.76,1.32-15.72,2.48-23.12,2.69-7.4.2-13.89-.46-19.42-1.83-5.53-1.32-10.24-3.24-13.79-5.27-3.6-2.03-6.29-4.16-8.06-5.78-1.77-1.62-2.64-2.74-2.64-2.74h.05Z"/>
            <path class="cls-3" d="m67.18,292.32c2.18-1.72,4.21-3.35,6.03-4.82s3.6-2.79,5.12-3.95c2.99-2.28,5.17-3.9,6.24-4.72-1.01-.86-3.04-2.69-5.83-5.17-1.42-1.27-3.04-2.74-4.82-4.31-1.72-1.62-3.65-3.4-5.68-5.27h2.28c2.28,2.13,4.36,4.11,6.29,5.83,1.93,1.72,3.6,3.19,4.97,4.46,2.74,2.43,4.36,3.9,4.41,3.9l.66.61-.71.56s-1.77,1.32-4.66,3.6c-1.47,1.12-3.3,2.48-5.32,4.06-2.03,1.62-4.26,3.4-6.69,5.32-.76,0-1.52-.1-2.28-.1Z"/>
            <path class="cls-14" d="m152.66,281.37s-2.08.35-6.24.66c-4.21.3-10.55.66-19.11.51-8.57-.15-18.4-.91-26.11-1.83-7.71-.86-13.28-1.77-13.28-1.77,0,0,1.42-.1,3.75-.3,2.38-.15,5.73-.35,9.63-.51,7.76-.3,17.64-.35,26.21.15,8.52.51,14.8,1.32,19.01,1.93,4.16.66,6.19,1.12,6.19,1.12l-.05.05Z"/>
            <path class="cls-8" d="m64.39,264.13c4.56,4.26,8.67,7.86,11.51,10.44,2.84,2.54,4.51,4.06,4.51,4.06,0,0-1.77,1.37-4.77,3.75-1.52,1.17-3.35,2.59-5.48,4.21-2.08,1.62-4.36,3.45-6.79,5.37-10.7-1.32-18.76-4.92-23.88-8.42-5.17-3.5-7.71-6.69-7.71-6.69,0,0,.66-.76,2.03-1.88,1.37-1.12,3.4-2.69,6.13-4.21,2.74-1.52,6.08-3.09,10.19-4.31,4.11-1.22,8.87-2.08,14.25-2.33Z"/>
            <path class="cls-13" d="m75.7,292.47c-7.4.2-13.89-.46-19.42-1.83-5.53-1.32-10.24-3.24-13.79-5.27-3.6-2.03-6.29-4.16-8.06-5.78-1.77-1.62-2.64-2.74-2.64-2.74l112.2,4.21s-9.68,1.77-23.17,4.51c-6.74,1.32-14.25,2.89-22.05,4.26-7.76,1.32-15.72,2.48-23.12,2.69l.05-.05Z"/>
          </g>
        </g>
        <g>
          <path class="cls-6" d="m247.57,1s-19.77,22.71-20.23,69.92c-.46,47.2,20.23,108.9,20.23,108.9,0,0,20.69-61.75,20.23-108.9-.46-47.2-20.23-69.92-20.23-69.92Z"/>
          <path class="cls-10" d="m267.14,57.43c-9.18,14.2-16.98,24.49-19.52,27.78-2.53-3.3-10.34-13.59-19.52-27.78-.1,1.22-.2,2.43-.3,3.65,10.49,16.02,18.86,26.52,18.96,26.67l.86,1.12.86-1.12s8.47-10.65,18.96-26.67c-.1-1.22-.2-2.43-.3-3.65Z"/>
          <path class="cls-14" d="m247.57,193.66s4.21-13.13,4.31-40.36c.1-27.23-4.31-62.87-4.31-62.87,0,0-4.41,35.64-4.31,62.87s4.31,40.36,4.31,40.36Z"/>
          <path class="cls-1" d="m228.76,51.35c10.09,16.22,18.81,27.18,18.81,27.18,0,0,8.77-11,18.86-27.18-4.56-33.87-18.86-50.35-18.86-50.35,0,0-14.25,16.43-18.81,50.35Z"/>
          <path class="cls-13" d="m267.8,70.92c-.46-47.2-20.23-69.92-20.23-69.92v178.82s20.69-61.75,20.23-108.9Z"/>
        </g>
        <g>
          <path class="cls-15" d="m364.13,274.37c0-1.06,0-2.18-.1-3.35s-.2-2.33-.3-3.55c-.15-2.48-.66-5.02-1.06-7.71-.56-2.64-1.06-5.42-1.88-8.16-.71-2.79-1.67-5.53-2.59-8.26-1.06-2.69-2.08-5.42-3.35-8.01-.61-1.32-1.22-2.59-1.88-3.85-.66-1.27-1.27-2.48-1.98-3.7-1.42-2.38-2.74-4.66-4.16-6.74-1.37-2.13-2.79-4.01-4.16-5.78-1.32-1.77-2.64-3.3-3.8-4.66-1.12-1.37-2.23-2.48-3.09-3.45-1.72-1.93-2.79-2.94-2.79-2.94,0,0-1.06-1.01-2.89-2.84-.96-.86-2.13-1.88-3.5-3.09-1.32-1.22-2.94-2.43-4.66-3.8-1.77-1.37-3.7-2.74-5.78-4.21-2.13-1.37-4.36-2.89-6.79-4.26-2.38-1.42-4.92-2.74-7.55-4.06-1.32-.66-2.64-1.22-4.01-1.83-1.32-.61-2.69-1.22-4.11-1.72-2.74-1.12-5.53-2.08-8.31-2.94-2.79-.86-5.53-1.62-8.26-2.23-2.69-.61-5.32-1.17-7.86-1.52-2.48-.46-4.87-.71-7.1-.91-2.18-.25-4.21-.3-6.03-.41-1.77-.1-3.35-.1-4.66-.1-2.59,0-4.06.05-4.06.05,0,0-1.47,0-4.06-.05-1.27,0-2.84,0-4.66.1-1.77.1-3.8.15-6.03.41-2.18.2-4.56.46-7.1.91-2.53.35-5.12.91-7.86,1.52-2.69.61-5.48,1.37-8.26,2.23-2.79.91-5.58,1.83-8.31,2.94-1.37.51-2.74,1.12-4.11,1.72-1.32.61-2.69,1.17-4.01,1.83-2.59,1.32-5.17,2.59-7.55,4.06-2.43,1.37-4.61,2.89-6.79,4.26-2.08,1.47-4.06,2.84-5.78,4.21-1.72,1.37-3.35,2.59-4.66,3.8s-2.53,2.23-3.5,3.09c-1.83,1.83-2.89,2.84-2.89,2.84,0,0-1.06,1.01-2.79,2.94-.86.96-1.98,2.08-3.09,3.45-1.12,1.37-2.48,2.89-3.8,4.66s-2.79,3.65-4.16,5.78c-1.42,2.08-2.79,4.36-4.16,6.74-.71,1.17-1.32,2.43-1.98,3.7s-1.32,2.54-1.88,3.85c-1.27,2.59-2.28,5.32-3.35,8.01-.96,2.74-1.93,5.48-2.59,8.26-.81,2.74-1.32,5.53-1.88,8.16-.41,2.69-.86,5.22-1.06,7.71-.1,1.22-.2,2.43-.3,3.55-.05,1.17-.1,2.28-.1,3.35-.1,2.13,0,4.11,0,5.83s.1,3.24.25,4.46c.25,2.43.41,3.85.41,3.85h19.72s.2-1.12.61-3.09c.15-.96.41-2.18.76-3.5.3-1.37.66-2.84,1.12-4.46.41-1.62.96-3.35,1.57-5.17.56-1.83,1.37-3.65,2.08-5.58.81-1.88,1.62-3.85,2.64-5.73.86-1.93,2.03-3.8,3.04-5.73,1.12-1.88,2.23-3.7,3.45-5.42,1.12-1.77,2.48-3.4,3.65-5.02,1.27-1.57,2.43-3.09,3.7-4.41,1.17-1.42,2.38-2.64,3.5-3.75,1.06-1.17,2.23-2.13,3.14-2.99.91-.91,1.83-1.57,2.48-2.23,1.37-1.22,2.23-1.88,2.23-1.88,0,0,.81-.66,2.28-1.83.76-.56,1.67-1.22,2.69-1.98,1.01-.76,2.28-1.52,3.6-2.43,1.32-.86,2.79-1.72,4.36-2.64,1.62-.86,3.24-1.83,5.02-2.64,1.72-.91,3.6-1.72,5.53-2.54,1.93-.76,3.85-1.62,5.83-2.28,1.01-.3,1.98-.71,2.99-1.01s1.98-.61,2.99-.91c1.98-.56,3.95-1.06,5.88-1.52,1.93-.41,3.75-.86,5.58-1.12,1.77-.35,3.45-.56,5.02-.76,1.57-.25,2.99-.35,4.31-.51,1.27-.15,2.38-.25,3.35-.3,1.88-.15,2.89-.2,2.89-.2,0,0,1.06.1,2.89.2.91,0,2.03.1,3.35.3,1.27.15,2.74.2,4.31.51,1.57.2,3.24.41,5.02.76,1.77.3,3.65.71,5.58,1.12,1.93.41,3.9.96,5.88,1.52,1.01.3,1.98.61,2.99.91s1.98.71,2.99,1.01c1.98.66,3.9,1.52,5.83,2.28,1.88.81,3.75,1.67,5.53,2.54,1.77.81,3.4,1.83,5.02,2.64,1.57.91,3.04,1.77,4.36,2.64,1.32.91,2.53,1.67,3.6,2.43,1.06.76,1.93,1.42,2.69,1.98,1.42,1.17,2.28,1.83,2.28,1.83,0,0,.86.61,2.23,1.88.71.61,1.57,1.32,2.48,2.23s2.03,1.88,3.14,2.99c1.12,1.17,2.33,2.38,3.5,3.75,1.27,1.32,2.43,2.84,3.7,4.41,1.17,1.62,2.53,3.24,3.65,5.02,1.22,1.72,2.33,3.6,3.45,5.42,1.01,1.88,2.13,3.75,3.04,5.73,1.01,1.93,1.77,3.85,2.64,5.73.71,1.93,1.52,3.75,2.08,5.58.61,1.83,1.17,3.55,1.57,5.17.51,1.62.86,3.09,1.12,4.46.3,1.32.56,2.53.76,3.5.35,1.98.61,3.09.61,3.09h19.72s.15-1.42.41-3.85c.15-1.22.25-2.74.25-4.46.05-1.72.15-3.7,0-5.83h.1Z"/>
          <path class="cls-4" d="m277.48,200.4s2.38-1.47,4.92-2.94c2.53-1.42,5.17-2.64,5.17-2.64,0,0,1.17,2.69,2.08,5.42.46,1.32.91,2.69,1.27,3.65.3,1.01.51,1.67.51,1.67,0,0-.81-.41-2.13-.91s-2.99-1.32-4.77-1.88c-1.72-.66-3.5-1.27-4.82-1.67-1.32-.41-2.23-.71-2.23-.71Z"/>
          <path class="cls-6" d="m316.32,202.63s-.71.05-1.83.25c-1.12.15-2.53.41-3.95.71-2.84.51-5.63,1.27-5.63,1.27,0,0-.15-.71-.41-1.77-.25-1.06-.61-2.48-1.01-3.9-.76-2.79-1.72-5.73-1.72-5.73,0,0,.91.51,2.33,1.32.71.41,1.52.86,2.38,1.37.86.51,1.77,1.12,2.69,1.67,1.83,1.12,3.6,2.38,4.92,3.3,1.32.91,2.18,1.57,2.18,1.57l.05-.05Z"/>
          <path class="cls-6" d="m277.79,184.13s-2.64,1.47-5.07,3.19c-1.22.81-2.43,1.67-3.35,2.28-.91.66-1.47,1.12-1.47,1.12,0,0-1.57-2.43-3.3-4.92-1.72-2.38-3.65-4.72-3.65-4.72,0,0,1.06.1,2.64.3,1.62.15,3.7.56,5.83.91,2.13.35,4.21.86,5.78,1.22.81.15,1.42.35,1.88.46s.71.2.71.2v-.05Z"/>
          <path class="cls-4" d="m336.24,245.07s2.48.76,4.87,1.72,4.72,2.13,4.72,2.13c0,0-.15.61-.46,1.57-.25.91-.61,2.13-.96,3.35-.35,1.17-.71,2.38-1.01,3.24s-.51,1.42-.51,1.42c0,0-.35-.86-.86-2.18-.61-1.27-1.37-2.99-2.18-4.66-.91-1.67-1.72-3.35-2.43-4.56-.71-1.22-1.17-2.03-1.17-2.03Z"/>
          <path class="cls-6" d="m357.79,275.44s-.35-.46-.91-1.22c-.56-.71-1.32-1.62-2.18-2.53-1.67-1.77-3.45-3.45-3.45-3.45,0,0,.96-2.28,1.88-4.61.51-1.22.91-2.38,1.27-3.3s.56-1.57.56-1.57c0,0,.25,1.01.66,2.59.35,1.52.76,3.65,1.17,5.68.3,2.08.61,4.16.81,5.73.15,1.57.2,2.64.2,2.64v.05Z"/>
          <path class="cls-6" d="m345.22,235.08s-.66-.2-1.57-.56c-.96-.35-2.23-.76-3.55-1.12-1.32-.35-2.64-.71-3.6-.91-.96-.25-1.67-.35-1.67-.35,0,0,.25-2.74.51-5.48.15-2.74.25-5.63.25-5.63,0,0,.66.86,1.67,2.08,1.01,1.22,2.23,2.99,3.45,4.72,1.22,1.77,2.33,3.6,3.19,4.92.81,1.37,1.32,2.33,1.32,2.33Z"/>
          <path class="cls-4" d="m217.71,200.4s-2.38-1.47-4.92-2.94c-2.53-1.42-5.17-2.64-5.17-2.64,0,0-1.17,2.69-2.08,5.42-.46,1.32-.91,2.69-1.27,3.65-.3,1.01-.51,1.67-.51,1.67,0,0,.81-.41,2.13-.91s2.99-1.32,4.77-1.88c1.72-.66,3.5-1.27,4.82-1.67,1.32-.41,2.23-.71,2.23-.71Z"/>
          <path class="cls-6" d="m178.87,202.63s.71.05,1.83.25c1.12.15,2.53.41,3.95.71,2.84.51,5.63,1.27,5.63,1.27,0,0,.15-.71.41-1.77.25-1.06.61-2.48,1.01-3.9.76-2.79,1.72-5.73,1.72-5.73,0,0-.91.51-2.33,1.32-.71.41-1.52.86-2.38,1.37-.86.51-1.77,1.12-2.69,1.67-1.83,1.12-3.6,2.38-4.92,3.3-1.32.91-2.18,1.57-2.18,1.57l-.05-.05Z"/>
          <path class="cls-6" d="m217.4,184.13s2.59,1.47,5.07,3.19c1.22.81,2.43,1.67,3.35,2.28.91.66,1.47,1.12,1.47,1.12,0,0,1.57-2.43,3.3-4.92,1.72-2.38,3.65-4.72,3.65-4.72,0,0-1.06.1-2.64.3-1.62.15-3.7.56-5.83.91-2.13.35-4.21.86-5.78,1.22-.81.15-1.42.35-1.88.46s-.71.2-.71.2v-.05Z"/>
          <g>
            <path class="cls-8" d="m366.46,270.62c-.1-1.17-.15-2.38-.25-3.65-.15-2.53-.61-5.17-.96-7.91-.51-2.74-1.01-5.58-1.77-8.42-.71-2.84-1.62-5.68-2.59-8.52-1.06-2.79-2.08-5.63-3.35-8.31-.61-1.37-1.22-2.69-1.88-3.95-.66-1.27-1.27-2.59-1.98-3.8-1.42-2.43-2.79-4.82-4.21-7s-2.84-4.16-4.21-5.98c-1.32-1.88-2.69-3.4-3.85-4.87s-2.28-2.59-3.14-3.6c-1.77-1.98-2.84-3.04-2.84-3.04,0,0-1.06-1.06-2.99-2.94-.96-.91-2.18-1.98-3.55-3.19-1.37-1.27-3.04-2.53-4.82-3.95s-3.8-2.84-5.93-4.36c-2.18-1.42-4.46-2.99-6.95-4.41-2.43-1.47-5.07-2.84-7.76-4.21-1.32-.71-2.74-1.27-4.11-1.93s-2.79-1.22-4.21-1.77c-2.84-1.17-5.73-2.13-8.57-3.04-2.89-.86-5.73-1.67-8.52-2.33-2.79-.61-5.48-1.22-8.06-1.57-2.59-.46-5.02-.71-7.3-.91-2.28-.25-4.36-.3-6.19-.41s-3.45-.1-4.77-.1c-2.64.05-4.16.1-4.16.1,0,0-1.52,0-4.16-.1-1.32,0-2.94,0-4.77.1-1.83.1-3.9.15-6.19.41-2.28.2-4.72.46-7.3.91-2.59.35-5.27.96-8.06,1.57-2.79.66-5.63,1.42-8.52,2.33-2.84.91-5.73,1.88-8.57,3.04-1.42.56-2.84,1.17-4.21,1.77s-2.79,1.22-4.11,1.93c-2.69,1.37-5.32,2.69-7.76,4.21-2.48,1.42-4.77,2.99-6.95,4.41-2.13,1.52-4.16,2.94-5.93,4.36s-3.45,2.69-4.82,3.95c-1.37,1.22-2.59,2.33-3.55,3.19-1.88,1.88-2.99,2.94-2.99,2.94,0,0-1.12,1.06-2.84,3.04-.86,1.01-1.98,2.13-3.14,3.6-1.17,1.42-2.53,2.99-3.85,4.87-1.37,1.83-2.79,3.8-4.21,5.98-1.47,2.13-2.79,4.56-4.21,7-.71,1.22-1.32,2.54-1.98,3.8s-1.32,2.64-1.88,3.95c-1.27,2.69-2.28,5.53-3.35,8.31-.96,2.84-1.88,5.68-2.59,8.52-.76,2.84-1.27,5.68-1.77,8.42-.35,2.74-.81,5.37-.96,7.91-.1,1.27-.15,2.48-.25,3.65-.05,1.17,0,2.33-.05,3.45-.05,2.18.05,4.21.15,5.98.05,1.77.2,3.3.41,4.56.3,2.48.51,3.9.51,3.9h4.16s-.1-1.37-.3-3.75c-.1-1.22-.15-2.69-.15-4.36s-.05-3.6.1-5.68c.05-1.06.1-2.13.2-3.24s.25-2.28.35-3.45c.2-2.38.71-4.87,1.17-7.5.56-2.59,1.12-5.22,1.93-7.91.71-2.69,1.67-5.32,2.64-8.01,1.06-2.64,2.13-5.27,3.35-7.76.61-1.27,1.22-2.53,1.88-3.7.66-1.22,1.27-2.43,1.98-3.55,1.37-2.28,2.69-4.51,4.11-6.49,1.37-2.03,2.79-3.85,4.06-5.58s2.59-3.14,3.7-4.51c1.12-1.32,2.18-2.38,3.04-3.35,1.67-1.83,2.74-2.79,2.74-2.79,0,0,1.01-1.01,2.84-2.74.96-.81,2.08-1.83,3.4-2.99s2.89-2.33,4.56-3.65c1.72-1.32,3.6-2.64,5.63-4.06,2.08-1.32,4.26-2.79,6.59-4.06,2.33-1.37,4.82-2.64,7.3-3.9,1.27-.66,2.59-1.17,3.85-1.77,1.32-.61,2.64-1.17,3.95-1.67,2.64-1.06,5.37-1.98,8.06-2.84,2.69-.81,5.37-1.57,8.01-2.18,2.64-.56,5.17-1.17,7.6-1.47,2.43-.46,4.72-.66,6.84-.91s4.11-.3,5.83-.41,3.24-.15,4.51-.1h7.81c1.27,0,2.79,0,4.51.1s3.7.15,5.83.41c2.13.2,4.46.46,6.84.91,2.43.35,4.97.91,7.6,1.47,2.64.61,5.27,1.37,8.01,2.18,2.69.86,5.42,1.77,8.06,2.84,1.32.51,2.69,1.06,3.95,1.67,1.32.61,2.64,1.12,3.85,1.77,2.53,1.27,5.02,2.48,7.3,3.9,2.33,1.32,4.51,2.74,6.59,4.06,2.03,1.42,3.9,2.74,5.63,4.06,1.67,1.32,3.24,2.48,4.56,3.65s2.43,2.13,3.4,2.99c1.83,1.72,2.84,2.74,2.84,2.74,0,0,1.06.96,2.74,2.79.86.91,1.93,1.98,3.04,3.35,1.12,1.32,2.43,2.79,3.7,4.51,1.32,1.67,2.74,3.5,4.06,5.58,1.42,1.98,2.74,4.21,4.11,6.49.71,1.17,1.32,2.38,1.98,3.55.66,1.22,1.27,2.43,1.88,3.7,1.27,2.48,2.28,5.12,3.35,7.76.96,2.69,1.93,5.32,2.64,8.01.81,2.64,1.37,5.32,1.93,7.91.46,2.59.96,5.07,1.17,7.5.1,1.22.25,2.33.35,3.45s.1,2.23.2,3.24c.15,2.08.1,4.01.1,5.68s0,3.14-.15,4.36c-.2,2.38-.3,3.75-.3,3.75h4.16s.2-1.42.51-3.9c.2-1.27.3-2.79.41-4.56.1-1.77.2-3.75.15-5.98,0-1.12,0-2.23-.05-3.45h.1Z"/>
            <path class="cls-8" d="m344.66,281.73c-.25-1.37-.56-2.94-1.01-4.61-.35-1.67-.86-3.45-1.47-5.32-.51-1.88-1.27-3.8-1.98-5.83-.81-1.98-1.57-4.01-2.53-5.98-.86-2.03-1.98-4.01-2.99-5.98-1.12-1.93-2.23-3.85-3.45-5.73-1.12-1.88-2.48-3.6-3.65-5.27-2.53-3.3-5.02-6.24-7.35-8.62-1.12-1.22-2.28-2.23-3.19-3.19-.91-.96-1.88-1.67-2.59-2.33-1.42-1.32-2.28-1.98-2.28-1.98,0,0-.86-.71-2.33-1.93-.76-.56-1.72-1.27-2.79-2.08s-2.33-1.62-3.7-2.54-2.89-1.83-4.51-2.79c-1.67-.91-3.35-1.93-5.22-2.84-1.83-.96-3.75-1.83-5.73-2.69-1.98-.81-4.01-1.72-6.08-2.38-1.01-.35-2.08-.76-3.09-1.06-1.01-.3-2.08-.66-3.09-.96-2.08-.61-4.11-1.17-6.13-1.57-1.98-.46-3.95-.86-5.78-1.17-1.83-.35-3.6-.56-5.27-.81-1.62-.25-3.14-.35-4.46-.46-1.32-.15-2.48-.2-3.45-.25-1.93-.1-3.04-.2-3.04-.2,0,0-1.12.05-3.04.2-.96,0-2.13.1-3.45.25-1.32.15-2.84.2-4.46.46-1.62.2-3.4.41-5.27.81-1.88.3-3.8.71-5.78,1.17s-4.06,1.01-6.13,1.57c-1.01.3-2.08.61-3.09.96s-2.08.71-3.09,1.06c-2.08.66-4.06,1.57-6.08,2.38-1.98.86-3.9,1.72-5.73,2.69-1.88.86-3.55,1.93-5.22,2.84-1.62.96-3.14,1.88-4.51,2.79-1.32.96-2.64,1.72-3.7,2.54s-2.03,1.47-2.79,2.08c-1.47,1.22-2.33,1.93-2.33,1.93,0,0-.86.66-2.28,1.98-.71.66-1.62,1.37-2.59,2.33-.91.96-2.08,1.98-3.19,3.19-2.28,2.38-4.82,5.32-7.35,8.62-1.17,1.67-2.54,3.4-3.65,5.27-1.22,1.83-2.33,3.75-3.45,5.73-1.01,1.98-2.13,3.95-2.99,5.98-.96,1.98-1.72,4.06-2.53,5.98-.71,1.98-1.42,3.9-1.98,5.83-.56,1.88-1.06,3.65-1.47,5.32-.46,1.67-.76,3.24-1.01,4.61-.3,1.37-.51,2.59-.61,3.6-.3,2.03-.51,3.19-.51,3.19h4.16s.25-1.12.71-3.04c.2-.96.51-2.13.86-3.4.3-1.32.71-2.74,1.27-4.31.46-1.57,1.06-3.24,1.67-4.97s1.42-3.55,2.18-5.37c.86-1.83,1.67-3.7,2.69-5.53.91-1.88,2.03-3.65,3.09-5.42,1.12-1.77,2.23-3.5,3.45-5.17,1.12-1.67,2.43-3.19,3.6-4.77,1.27-1.47,2.43-2.89,3.65-4.16,1.17-1.32,2.38-2.48,3.45-3.55,1.06-1.12,2.18-1.98,3.04-2.84.91-.86,1.77-1.52,2.43-2.08,1.32-1.17,2.18-1.72,2.18-1.72,0,0,.81-.61,2.18-1.72.71-.51,1.62-1.12,2.64-1.83s2.23-1.42,3.45-2.28c1.27-.81,2.74-1.62,4.21-2.48,1.52-.81,3.09-1.72,4.82-2.48,1.67-.86,3.45-1.62,5.27-2.38,1.88-.71,3.7-1.52,5.58-2.13l2.84-.96c.96-.3,1.93-.56,2.84-.86,1.88-.51,3.8-1.01,5.63-1.42,1.83-.41,3.6-.81,5.32-1.06,1.67-.35,3.35-.56,4.82-.76,1.47-.25,2.89-.35,4.11-.51s2.28-.25,3.19-.3c1.77-.15,2.79-.25,2.79-.25,0,0,1.01.1,2.79.25.86.05,1.98.15,3.19.3,1.22.15,2.64.25,4.11.51,1.52.2,3.14.41,4.82.76,1.72.25,3.5.66,5.32,1.06,1.83.41,3.7.91,5.63,1.42.96.3,1.93.56,2.84.86l2.84.96c1.93.61,3.75,1.42,5.58,2.13,1.83.76,3.6,1.57,5.27,2.38,1.72.76,3.3,1.67,4.82,2.48,1.52.86,2.94,1.67,4.21,2.48,1.27.86,2.48,1.52,3.45,2.28,1.01.71,1.88,1.32,2.64,1.83,1.42,1.06,2.18,1.72,2.18,1.72,0,0,.86.61,2.18,1.72.66.61,1.57,1.22,2.43,2.08s1.98,1.72,3.04,2.84c1.06,1.06,2.28,2.23,3.45,3.55,1.27,1.27,2.38,2.69,3.65,4.16,1.17,1.52,2.48,3.04,3.6,4.77,1.22,1.67,2.33,3.4,3.45,5.17,1.01,1.83,2.18,3.6,3.09,5.42,1.01,1.83,1.83,3.7,2.69,5.53.76,1.83,1.57,3.6,2.18,5.37.66,1.72,1.27,3.4,1.67,4.97.51,1.57.91,3.04,1.27,4.31.35,1.32.66,2.43.86,3.4.46,1.93.71,3.04.71,3.04h4.16s-.2-1.17-.51-3.19c-.1-1.01-.35-2.23-.61-3.6h.41Z"/>
          </g>
          <g>
            <path class="cls-6" d="m329.1,208.46s-1.77-.1-4.41-.1c-2.69.05-6.13.2-9.63.66-1.72.2-3.45.51-5.02.76-1.62.3-3.09.66-4.31.91-2.48.56-4.11,1.12-4.11,1.12,0,0-.35-1.77-.91-4.41-.66-2.59-1.57-6.24-2.79-9.84-.61-1.77-1.22-3.65-1.88-5.32-.66-1.67-1.32-3.24-1.93-4.66-.61-1.37-1.12-2.53-1.47-3.3-.35-.81-.61-1.22-.61-1.22,0,0-1.88.76-4.56,1.93-2.74,1.32-6.13,2.94-9.48,4.97-3.3,1.93-6.44,4.06-8.67,5.73-1.12.81-2.03,1.52-2.69,2.03-.61.51-.96.81-.96.81,0,0-.86-1.47-2.33-3.7-1.47-2.13-3.5-5.07-5.78-7.81-2.28-2.74-4.72-5.48-6.64-7.35-1.93-1.93-3.3-3.19-3.3-3.19v5.32s1.32,1.27,3.14,3.19c1.83,1.88,4.21,4.66,6.34,7.4,2.13,2.79,4.11,5.68,5.42,7.81,1.37,2.23,2.18,3.65,2.18,3.65,0,0,.35-.3.96-.81s1.47-1.22,2.54-2.03c2.13-1.67,5.12-3.85,8.31-5.78,3.19-2.08,6.49-3.75,9.13-5.12,2.59-1.22,4.41-1.98,4.41-1.98,0,0,.2.46.56,1.22s.86,1.88,1.37,3.24c.56,1.37,1.17,2.89,1.77,4.56s1.17,3.5,1.72,5.22c1.12,3.5,1.93,7.05,2.48,9.58.51,2.59.81,4.31.81,4.31,0,0,1.57-.56,4.01-1.22,1.22-.3,2.64-.71,4.21-1.06,1.52-.3,3.19-.61,4.92-.91,3.4-.56,6.79-.81,9.43-.91,2.59-.1,4.36,0,4.36,0l3.35-3.65.05-.05Z"/>
            <path class="cls-6" d="m358.55,285.27c-.91-1.93-2.54-4.36-4.26-6.69-1.83-2.33-3.7-4.46-5.37-5.98-1.62-1.52-2.74-2.43-2.74-2.43,0,0,.15-.35.41-.96s.61-1.47,1.01-2.53c.91-2.18,1.98-5.12,3.09-8.26,1.01-3.14,2.13-6.49,2.79-9.08.35-1.32.66-2.38.86-3.19.2-.76.3-1.22.3-1.22,0,0-1.52-.91-3.8-2.13-2.28-1.22-5.48-2.69-8.72-3.85-1.62-.56-3.3-1.12-4.82-1.57-1.57-.41-3.04-.76-4.31-1.01-2.48-.56-4.21-.76-4.21-.76,0,0,.15-1.57.41-3.95.15-2.33.41-5.68.46-9.08v-5.07c-.1-1.67-.15-3.19-.2-4.51-.15-2.74-.35-4.51-.35-4.51l-3.35,3.65s.2,1.72.25,4.36c0,1.27.1,2.79.15,4.36,0,1.57,0,3.3-.05,4.92-.05,3.24-.35,6.49-.56,8.72-.25,2.28-.46,3.8-.46,3.8,0,0,1.72.15,4.21.61,1.27.2,2.69.51,4.26.86,1.52.41,3.14.86,4.82,1.37,3.24,1.06,6.44,2.33,8.72,3.5,2.28,1.12,3.8,1.98,3.8,1.98,0,0-.1.41-.3,1.17-.2.76-.51,1.77-.86,3.04-.66,2.48-1.72,5.73-2.69,8.72-1.12,3.04-2.13,5.88-2.99,7.96-.41,1.01-.71,1.88-.96,2.43s-.41.91-.41.91c0,0,1.17.86,2.79,2.33,1.67,1.42,3.65,3.5,5.58,5.73,1.77,2.23,3.5,4.61,4.51,6.44,1.06,1.83,1.67,3.14,1.67,3.14h2.84s-.56-1.32-1.57-3.24l.05.05Z"/>
            <path class="cls-6" d="m237.63,186.97c-2.28,2.79-4.31,5.68-5.78,7.81-1.42,2.23-2.33,3.7-2.33,3.7,0,0-.35-.3-.96-.81-.66-.51-1.57-1.22-2.69-2.03-2.23-1.62-5.37-3.8-8.67-5.73-3.3-2.03-6.74-3.65-9.48-4.97-2.69-1.17-4.56-1.93-4.56-1.93,0,0-.2.46-.61,1.22-.41.76-.91,1.93-1.47,3.3-.61,1.37-1.27,2.94-1.93,4.66-.66,1.72-1.27,3.55-1.88,5.32-1.22,3.6-2.13,7.2-2.79,9.84-.56,2.64-.91,4.41-.91,4.41,0,0-1.62-.51-4.11-1.12-1.27-.3-2.74-.61-4.31-.91-1.57-.25-3.3-.51-5.02-.76-3.5-.46-6.95-.61-9.63-.66-2.64,0-4.41.1-4.41.1l3.35,3.65h4.36c2.64.15,6.03.35,9.43.91,1.67.25,3.35.56,4.92.91s2.99.71,4.21,1.06c2.43.66,4.01,1.22,4.01,1.22,0,0,.3-1.72.81-4.31.56-2.53,1.42-6.08,2.48-9.58.56-1.77,1.12-3.55,1.72-5.22.61-1.67,1.22-3.19,1.77-4.56.56-1.37,1.01-2.48,1.37-3.24.35-.76.56-1.22.56-1.22,0,0,1.83.76,4.41,1.98,2.64,1.37,5.93,3.04,9.13,5.12,3.19,1.98,6.19,4.16,8.31,5.78,1.06.81,1.93,1.52,2.54,2.03.61.51.96.81.96.81,0,0,.81-1.47,2.18-3.65,1.37-2.13,3.3-5.02,5.42-7.81,2.13-2.74,4.46-5.53,6.34-7.4,1.83-1.93,3.14-3.19,3.14-3.19v-5.32s-1.37,1.27-3.3,3.19c-1.93,1.88-4.41,4.61-6.64,7.35l.05.05Z"/>
            <path class="cls-6" d="m169.09,225.8c0-1.62-.05-3.35-.05-4.92s.1-3.09.15-4.36c.1-2.64.25-4.36.25-4.36l-3.35-3.65s-.2,1.77-.35,4.51c-.05,1.32-.15,2.84-.2,4.51v5.07c0,3.4.25,6.69.46,9.08.25,2.38.41,3.95.41,3.95,0,0-1.72.2-4.21.76-1.27.25-2.74.61-4.31,1.01-1.52.46-3.19.96-4.82,1.57-3.24,1.17-6.44,2.59-8.72,3.85-2.28,1.22-3.8,2.13-3.8,2.13,0,0,.1.46.3,1.22.2.76.51,1.88.86,3.19.66,2.59,1.77,5.93,2.79,9.08,1.17,3.19,2.18,6.13,3.09,8.26.41,1.06.76,1.93,1.01,2.53.25.61.41.96.41.96,0,0-1.12.91-2.74,2.43-1.62,1.52-3.55,3.65-5.37,5.98-1.72,2.33-3.35,4.77-4.26,6.69-1.01,1.93-1.57,3.24-1.57,3.24h2.84s.61-1.27,1.67-3.14c1.01-1.88,2.74-4.21,4.51-6.44,1.93-2.23,3.85-4.31,5.58-5.73,1.67-1.42,2.79-2.33,2.79-2.33,0,0-.15-.35-.41-.91-.25-.61-.56-1.42-.96-2.43-.86-2.08-1.88-4.92-2.99-7.96-.96-2.99-2.08-6.24-2.69-8.72-.35-1.27-.66-2.33-.86-3.04-.2-.76-.3-1.17-.3-1.17,0,0,1.52-.86,3.8-1.98,2.28-1.17,5.48-2.43,8.72-3.5,1.62-.51,3.3-.96,4.82-1.37,1.57-.35,3.04-.66,4.26-.86,2.48-.46,4.21-.61,4.21-.61,0,0-.2-1.52-.46-3.8-.2-2.28-.51-5.48-.56-8.72l.05-.05Z"/>
          </g>
          <path class="cls-4" d="m158.95,245.07s-2.48.76-4.87,1.72c-2.38.96-4.72,2.13-4.72,2.13,0,0,.15.61.46,1.57.25.91.61,2.13.96,3.35.35,1.17.71,2.38,1.01,3.24.3.86.51,1.42.51,1.42,0,0,.35-.86.86-2.18.61-1.27,1.37-2.99,2.18-4.66.91-1.67,1.72-3.35,2.43-4.56.71-1.22,1.17-2.03,1.17-2.03Z"/>
          <path class="cls-6" d="m137.4,275.44s.35-.46.91-1.22c.56-.71,1.32-1.62,2.18-2.53,1.67-1.77,3.45-3.45,3.45-3.45,0,0-.96-2.28-1.88-4.61-.51-1.22-.91-2.38-1.27-3.3s-.56-1.57-.56-1.57c0,0-.25,1.01-.66,2.59-.35,1.52-.76,3.65-1.17,5.68-.3,2.08-.61,4.16-.81,5.73-.15,1.57-.2,2.64-.2,2.64v.05Z"/>
          <path class="cls-6" d="m149.97,235.08s.66-.2,1.57-.56c.96-.35,2.23-.76,3.55-1.12s2.64-.71,3.6-.91c.96-.25,1.67-.35,1.67-.35,0,0-.25-2.74-.51-5.48-.15-2.74-.25-5.63-.25-5.63,0,0-.66.86-1.67,2.08s-2.23,2.99-3.45,4.72c-1.22,1.77-2.33,3.6-3.19,4.92-.81,1.37-1.32,2.33-1.32,2.33Z"/>
          <g>
            <path class="cls-3" d="m316.52,216.42c-2.79.3-5.48.71-5.48.71,0,0,1.47,1.17,2.94,2.28,1.42,1.17,2.84,2.43,2.84,2.43l5.27-5.78s-2.79.05-5.58.35Z"/>
            <path class="cls-3" d="m251.47,191.83c-1.88-2.18-3.85-4.31-3.85-4.31v8.37s1.88.1,3.75.15c.91,0,1.88.05,2.53.15.71.05,1.17.1,1.17.1,0,0-.46-.56-1.06-1.42-.66-.86-1.57-1.98-2.48-3.04h-.05Z"/>
            <path class="cls-3" d="m351.71,284.57c-.61-.96-1.37-1.88-1.93-2.53s-.91-1.12-.91-1.12c0,0,.05.46.15,1.17s.25,1.67.3,2.59c.15,1.93.35,3.8.35,3.8h4.51s-1.17-2.03-2.43-3.9h-.05Z"/>
            <path class="cls-3" d="m322.2,217.84c-.05-1.06-.1-1.72-.1-1.72l-5.27,5.78s.35.3.86.76,1.17,1.12,1.88,1.72c.66.66,1.37,1.27,1.88,1.77.51.51.81.86.81.86,0,0,0-.66.05-1.67v-3.7c0-1.37,0-2.74-.1-3.8h0Z"/>
            <path class="cls-3" d="m173.09,216.12l5.27,5.78s1.42-1.22,2.84-2.43c1.47-1.17,2.94-2.28,2.94-2.28,0,0-2.69-.46-5.48-.71-2.74-.25-5.58-.35-5.58-.35Z"/>
            <path class="cls-3" d="m241.23,194.88c-.66.86-1.06,1.42-1.06,1.42,0,0,.46,0,1.17-.1.71-.05,1.62-.15,2.54-.15,1.88-.1,3.75-.15,3.75-.15v-8.37s-2.03,2.13-3.85,4.31c-.91,1.06-1.83,2.18-2.48,3.04h-.05Z"/>
            <path class="cls-3" d="m143.48,284.57c-1.32,1.88-2.43,3.9-2.43,3.9h4.51s.15-1.93.35-3.8c.05-.96.2-1.88.3-2.59.1-.71.15-1.17.15-1.17,0,0-.35.46-.91,1.12s-1.27,1.62-1.93,2.53h-.05Z"/>
            <path class="cls-3" d="m172.99,217.84c0,1.06-.05,2.43-.1,3.8v3.7c0,1.01.05,1.67.05,1.67,0,0,.3-.35.81-.86s1.17-1.12,1.88-1.77c.66-.66,1.37-1.27,1.88-1.72s.86-.76.86-.76l-5.27-5.78s0,.71-.1,1.72Z"/>
          </g>
        </g>
        <g>
          <g>
            <path class="cls-1" d="m143.94,308.29c0,1.47-1.22,2.69-2.69,2.69h0c-1.47,0-2.69-1.22-2.69-2.69v-17.09c0-1.47,1.22-2.69,2.69-2.69h0c1.47,0,2.69,1.22,2.69,2.69v17.09Z"/>
            <g>
              <path class="cls-4" d="m141.25,508s19.77-22.71,20.23-69.92c.46-47.15-20.23-108.9-20.23-108.9,0,0-20.69,61.75-20.23,108.9.46,47.2,20.23,69.92,20.23,69.92Z"/>
              <path class="cls-3" d="m121.73,451.57c9.18-14.2,16.98-24.49,19.52-27.78,2.54,3.3,10.34,13.59,19.52,27.78.1-1.22.2-2.43.3-3.65-10.49-16.02-18.86-26.52-18.96-26.67l-.86-1.12-.86,1.12s-8.47,10.65-18.96,26.67c.1,1.22.2,2.43.3,3.65Z"/>
              <path class="cls-14" d="m141.25,315.34s-4.21,13.13-4.31,40.36c-.1,27.23,4.31,62.87,4.31,62.87,0,0,4.41-35.64,4.31-62.87s-4.31-40.36-4.31-40.36Z"/>
              <path class="cls-8" d="m160.11,457.65c-10.09-16.22-18.81-27.18-18.81-27.18,0,0-8.77,11-18.86,27.18,4.56,33.87,18.86,50.35,18.86,50.35,0,0,14.25-16.43,18.81-50.35Z"/>
              <path class="cls-13" d="m121.02,438.08c.46,47.2,20.23,69.92,20.23,69.92v-178.82s-20.69,61.75-20.23,108.9Z"/>
            </g>
            <path class="cls-8" d="m149.31,329.49c0,2.79-2.28,5.07-5.07,5.07h-5.98c-2.79,0-5.07-2.28-5.07-5.07h0c0-2.79,2.28-5.07,5.07-5.07h5.98c2.79,0,5.07,2.28,5.07,5.07h0Z"/>
            <path class="cls-1" d="m155.04,319.35c0,2.79-2.28,5.07-5.07,5.07h-17.44c-2.79,0-5.07-2.28-5.07-5.07h0c0-2.79,2.28-5.07,5.07-5.07h17.44c2.79,0,5.07,2.28,5.07,5.07h0Z"/>
            <path class="cls-8" d="m149.31,309.15c0,2.79-2.28,5.07-5.07,5.07h-5.98c-2.79,0-5.07-2.28-5.07-5.07h0c0-2.79,2.28-5.07,5.07-5.07h5.98c2.79,0,5.07,2.28,5.07,5.07h0Z"/>
          </g>
          <g>
            <path class="cls-1" d="m130.05,304.69c-.46,1.17-1.77,1.72-2.89,1.27h0c-1.17-.46-1.72-1.77-1.27-2.89l5.22-13.18c.46-1.17,1.77-1.72,2.89-1.27h0c1.17.46,1.67,1.72,1.27,2.89l-5.22,13.18Z"/>
            <g>
              <path class="cls-6" d="m66.77,457.71s22.21-11.46,37.01-47.66c14.8-36.2,17.85-90.09,17.85-90.09,0,0-34.83,41.22-48.98,77.67-14.09,36.45-5.88,60.03-5.88,60.03v.05Z"/>
              <path class="cls-10" d="m69,408.27c11.41-8.11,20.58-13.69,23.58-15.41.96,3.3,3.8,13.64,6.49,27.38.46-.86.91-1.77,1.32-2.74-3.14-15.56-6.39-26.21-6.44-26.31l-.35-1.12-1.01.56s-9.79,5.58-22.76,14.7c-.3.96-.61,1.93-.91,2.89l.1.05Z"/>
              <path class="cls-14" d="m125.84,309.31s-7.25,8.82-15.67,29.76c-8.42,20.94-15.97,49.74-15.97,49.74,0,0,14.3-26.11,22.61-47.1,8.26-20.99,9.08-32.4,9.08-32.4h-.05Z"/>
              <path class="cls-1" d="m96.69,424.7c-2.79-15.56-6.19-26.72-6.19-26.72,0,0-10.14,5.78-22.87,15.16-6.9,27.48-.91,44.51-.91,44.51,0,0,16.02-8.26,29.91-32.96h.05Z"/>
              <path class="cls-13" d="m72.6,397.63c-14.09,36.45-5.88,60.03-5.88,60.03l54.81-137.7s-34.83,41.22-48.98,77.67h.05Z"/>
            </g>
            <path class="cls-8" d="m127.71,322.69c-.86,2.18-3.3,3.19-5.48,2.33l-4.61-1.83c-2.18-.86-3.19-3.3-2.33-5.48h0c.86-2.18,3.3-3.19,5.48-2.33l4.61,1.83c2.18.86,3.19,3.3,2.33,5.48h0Z"/>
            <path class="cls-1" d="m135.22,316.61c-.86,2.18-3.3,3.19-5.48,2.33l-13.44-5.32c-2.18-.86-3.19-3.3-2.33-5.48h0c.86-2.18,3.3-3.19,5.48-2.33l13.44,5.32c2.18.86,3.19,3.3,2.33,5.48h0Z"/>
            <path class="cls-8" d="m133.95,307.03c-.86,2.18-3.3,3.19-5.48,2.33l-4.61-1.83c-2.18-.86-3.19-3.3-2.33-5.48h0c.86-2.18,3.3-3.19,5.48-2.33l4.61,1.83c2.18.86,3.19,3.3,2.33,5.48h0Z"/>
          </g>
          <path class="cls-1" d="m157.12,289.08c0,1.57-1.27,2.84-2.84,2.84h-26.06c-1.57,0-2.84-1.27-2.84-2.84h0c0-1.57,1.27-2.84,2.84-2.84h26.06c1.57,0,2.84,1.27,2.84,2.84h0Z"/>
          <g>
            <path class="cls-1" d="m351.25,308.29c0,1.47,1.22,2.69,2.69,2.69h0c1.47,0,2.69-1.22,2.69-2.69v-17.09c0-1.47-1.22-2.69-2.69-2.69h0c-1.47,0-2.69,1.22-2.69,2.69v17.09Z"/>
            <g>
              <path class="cls-4" d="m353.94,508s-19.77-22.71-20.23-69.92c-.46-47.15,20.23-108.9,20.23-108.9,0,0,20.69,61.75,20.23,108.9-.46,47.2-20.23,69.92-20.23,69.92Z"/>
              <path class="cls-3" d="m373.46,451.57c-9.18-14.2-16.98-24.49-19.52-27.78-2.53,3.3-10.34,13.59-19.52,27.78-.1-1.22-.2-2.43-.3-3.65,10.49-16.02,18.86-26.52,18.96-26.67l.86-1.12.86,1.12s8.47,10.65,18.96,26.67c-.1,1.22-.2,2.43-.3,3.65Z"/>
              <path class="cls-14" d="m353.94,315.34s4.21,13.13,4.31,40.36c.1,27.23-4.31,62.87-4.31,62.87,0,0-4.41-35.64-4.31-62.87.1-27.23,4.31-40.36,4.31-40.36Z"/>
              <path class="cls-8" d="m335.08,457.65c10.09-16.22,18.81-27.18,18.81-27.18,0,0,8.77,11,18.86,27.18-4.56,33.87-18.86,50.35-18.86,50.35,0,0-14.25-16.43-18.81-50.35Z"/>
              <path class="cls-13" d="m374.17,438.08c-.46,47.2-20.23,69.92-20.23,69.92v-178.82s20.69,61.75,20.23,108.9Z"/>
            </g>
            <path class="cls-8" d="m345.88,329.49c0,2.79,2.28,5.07,5.07,5.07h5.98c2.79,0,5.07-2.28,5.07-5.07h0c0-2.79-2.28-5.07-5.07-5.07h-5.98c-2.79,0-5.07,2.28-5.07,5.07h0Z"/>
            <path class="cls-1" d="m340.15,319.35c0,2.79,2.28,5.07,5.07,5.07h17.44c2.79,0,5.07-2.28,5.07-5.07h0c0-2.79-2.28-5.07-5.07-5.07h-17.44c-2.79,0-5.07,2.28-5.07,5.07h0Z"/>
            <path class="cls-8" d="m345.88,309.15c0,2.79,2.28,5.07,5.07,5.07h5.98c2.79,0,5.07-2.28,5.07-5.07h0c0-2.79-2.28-5.07-5.07-5.07h-5.98c-2.79,0-5.07,2.28-5.07,5.07h0Z"/>
          </g>
          <g>
            <path class="cls-1" d="m365.09,304.69c.46,1.17,1.77,1.72,2.89,1.27h0c1.17-.46,1.72-1.77,1.27-2.89l-5.22-13.18c-.46-1.17-1.77-1.72-2.89-1.27h0c-1.17.46-1.67,1.72-1.27,2.89l5.22,13.18Z"/>
            <g>
              <path class="cls-6" d="m428.42,457.71s-22.21-11.46-37.01-47.66c-14.8-36.2-17.85-90.09-17.85-90.09,0,0,34.83,41.22,48.98,77.67,14.09,36.45,5.88,60.03,5.88,60.03v.05Z"/>
              <path class="cls-10" d="m426.14,408.27c-11.41-8.11-20.58-13.69-23.58-15.41-.96,3.3-3.8,13.64-6.49,27.38-.46-.86-.91-1.77-1.32-2.74,3.14-15.56,6.39-26.21,6.44-26.31l.35-1.12,1.01.56s9.79,5.58,22.76,14.7c.3.96.61,1.93.91,2.89l-.1.05Z"/>
              <path class="cls-14" d="m369.35,309.31s7.25,8.82,15.67,29.76c8.42,20.94,15.97,49.74,15.97,49.74,0,0-14.3-26.11-22.61-47.1-8.26-20.99-9.08-32.4-9.08-32.4h.05Z"/>
              <path class="cls-1" d="m398.5,424.7c2.79-15.56,6.19-26.72,6.19-26.72,0,0,10.14,5.78,22.87,15.16,6.9,27.48.91,44.51.91,44.51,0,0-16.02-8.26-29.91-32.96h-.05Z"/>
              <path class="cls-13" d="m422.54,397.63c14.09,36.45,5.88,60.03,5.88,60.03l-54.81-137.7s34.83,41.22,48.98,77.67h-.05Z"/>
            </g>
            <path class="cls-8" d="m367.48,322.69c.86,2.18,3.3,3.19,5.48,2.33l4.61-1.83c2.18-.86,3.19-3.3,2.33-5.48h0c-.86-2.18-3.3-3.19-5.48-2.33l-4.61,1.83c-2.18.86-3.19,3.3-2.33,5.48h0Z"/>
            <path class="cls-1" d="m359.97,316.61c.86,2.18,3.3,3.19,5.48,2.33l13.44-5.32c2.18-.86,3.19-3.3,2.33-5.48h0c-.86-2.18-3.3-3.19-5.48-2.33l-13.44,5.32c-2.18.86-3.19,3.3-2.33,5.48h0Z"/>
            <path class="cls-8" d="m361.24,307.03c.86,2.18,3.3,3.19,5.48,2.33l4.61-1.83c2.18-.86,3.19-3.3,2.33-5.48h0c-.86-2.18-3.3-3.19-5.48-2.33l-4.61,1.83c-2.18.86-3.19,3.3-2.33,5.48h0Z"/>
          </g>
          <path class="cls-1" d="m338.07,289.08c0,1.57,1.27,2.84,2.84,2.84h26.06c1.57,0,2.84-1.27,2.84-2.84h0c0-1.57-1.27-2.84-2.84-2.84h-26.06c-1.57,0-2.84,1.27-2.84,2.84h0Z"/>
        </g>
      </g>
    </g>
  </g>
</svg>