<?xml version="1.0" encoding="UTF-8"?>
<svg xmlns="http://www.w3.org/2000/svg" viewBox="0 0 500 575">
  <defs>
    <style>
      .cls-1 {
        fill: #262626;
      }

      .cls-1, .cls-2, .cls-3, .cls-4, .cls-5, .cls-6, .cls-7 {
        stroke-width: 0px;
      }

      .cls-2 {
        fill: #241816;
      }

      .cls-3 {
        fill: #fff;
      }

      .cls-4 {
        fill: #5da0ff;
      }

      .cls-5 {
        fill: #d17397;
      }

      .cls-6 {
        fill: #e7d8b4;
      }

      .cls-7 {
        fill: #cf9e76;
      }

      .cls-8 {
        fill: #fcd770;
        stroke: #000;
        stroke-miterlimit: 10;
      }
    </style>
  </defs>
  <g id="Capa_1" data-name="Capa 1">
    <g>
      <path class="cls-6" d="m250,573c-66.51,0-129.04-25.9-176.07-72.93C26.9,453.04,1,390.51,1,324s25.9-129.04,72.93-176.07c47.03-47.03,109.56-72.93,176.07-72.93s129.04,25.9,176.07,72.93c47.03,47.03,72.93,109.56,72.93,176.07s-25.9,129.04-72.93,176.07c-47.03,47.03-109.56,72.93-176.07,72.93Z"/>
      <path class="cls-2" d="m250,76c33.48,0,65.96,6.56,96.53,19.49,29.53,12.49,56.05,30.37,78.83,53.15,22.78,22.78,40.66,49.3,53.15,78.83,12.93,30.57,19.49,63.05,19.49,96.53s-6.56,65.96-19.49,96.53c-12.49,29.53-30.37,56.05-53.15,78.83-22.78,22.78-49.3,40.66-78.83,53.15-30.57,12.93-63.05,19.49-96.53,19.49s-65.96-6.56-96.53-19.49c-29.53-12.49-56.05-30.37-78.83-53.15-22.78-22.78-40.66-49.3-53.15-78.83-12.93-30.57-19.49-63.05-19.49-96.53s6.56-65.96,19.49-96.53c12.49-29.53,30.37-56.05,53.15-78.83s49.3-40.66,78.83-53.15c30.57-12.93,63.05-19.49,96.53-19.49m0-2C111.93,74,0,185.93,0,324s111.93,250,250,250,250-111.93,250-250-111.93-250-250-250h0Z"/>
    </g>
  </g>
  <g id="Capa_2" data-name="Capa 2">
    <g>
      <path class="cls-5" d="m340.33,547.65c-2,0-3.62-1.62-3.62-3.62,0-1.1.5-2.14,1.36-2.83l16.92-13.62-27.41,15.83c-1.73,1-3.95.41-4.95-1.32-.94-1.61-.49-3.67,1.02-4.76l18.83-13.57-23.6,13.63c-1.74.99-3.95.38-4.94-1.36-.91-1.59-.48-3.62,1-4.71l39.64-28.83-43.3,25.01c-1.73,1-3.95.41-4.95-1.32-.96-1.65-.47-3.76,1.12-4.83l17.49-11.71-16.75,9.67c-1.73,1-3.95.41-4.95-1.32-.96-1.66-.46-3.78,1.14-4.84l16.95-11.23-14.15,8.17c-1.74.98-3.95.36-4.93-1.38-.91-1.63-.44-3.68,1.09-4.75l40.27-27.4-36.33,21.01c-1.73,1.01-3.95.42-4.95-1.31-.95-1.64-.48-3.73,1.08-4.81l54.83-38.07-51.73,29.87c-1.75.98-3.95.35-4.93-1.4-.92-1.65-.42-3.73,1.15-4.78l7.2-4.66-6.83,3.95c-1.73,1-3.95.41-4.95-1.32-.96-1.65-.47-3.76,1.12-4.83l48.61-32.71-54.52,31.47c-1.77.94-3.96.26-4.9-1.51-.86-1.62-.37-3.62,1.13-4.67l23.3-15.02-34.15,19.66c-1.74.98-3.95.36-4.93-1.39-.92-1.63-.44-3.69,1.11-4.75l72.26-48.28-94.28,54.42c-1.76.95-3.96.28-4.9-1.48-.87-1.62-.39-3.64,1.12-4.69l76.46-49.72-96.81,55.89c-1.75.98-3.95.36-4.93-1.39-.93-1.67-.41-3.77,1.19-4.81l46.46-29.12-61.49,35.49c-1.77.93-3.96.24-4.89-1.53-.87-1.67-.32-3.73,1.27-4.74l234.36-135.28c1.76-.95,3.96-.3,4.91,1.46.89,1.65.38,3.7-1.18,4.74l-46.46,29.13,42.43-24.5c1.76-.95,3.96-.28,4.9,1.48.87,1.62.39,3.64-1.12,4.69l-76.44,49.71,71.57-41.29c1.74-.98,3.95-.36,4.93,1.39.92,1.63.44,3.69-1.11,4.75l-72.25,48.24,66.42-38.35c1.74-.99,3.95-.38,4.94,1.36.95,1.66.44,3.78-1.17,4.82l-23.41,15.1,17.75-10.25c1.7-1.06,3.93-.54,4.99,1.15s.54,3.93-1.15,4.99l-48.53,32.68,41.63-24.03c1.76-.95,3.96-.3,4.91,1.46.89,1.63.39,3.67-1.14,4.72l-7.24,4.69,1.01-.58c1.68-.97,3.83-.44,4.87,1.2,1.04,1.64.6,3.81-.99,4.92l-54.81,38.06,46.01-26.56c1.76-.95,3.96-.3,4.91,1.45.87,1.6.41,3.6-1.07,4.67l-40.33,27.42,31.59-18.23c1.74-.99,3.95-.38,4.94,1.36.94,1.65.45,3.73-1.12,4.79l-16.99,11.25,8.77-5.07c1.74-.98,3.95-.36,4.93,1.39.92,1.63.44,3.69-1.11,4.75l-17.46,11.71,8.5-4.9c1.74-.99,3.95-.38,4.94,1.36.91,1.59.48,3.62-1,4.71l-39.63,28.83,26.55-15.34c1.73-1,3.95-.41,4.95,1.32.94,1.61.49,3.67-1.02,4.76l-18.83,13.56,5.53-3.19c1.73-1,3.95-.4,4.95,1.33.89,1.54.52,3.5-.86,4.62l-18.88,15.21c1.36-.06,2.65.63,3.35,1.8,1,1.73.4,3.94-1.33,4.94l-37.1,21.39c-.55.32-1.18.48-1.81.48Z"/>
      <path class="cls-5" d="m147.7,547.26c-2,0-3.62-1.62-3.62-3.62,0-1.04.45-2.04,1.23-2.73l13.42-11.74-22.14,12.79c-1.73,1-3.95.41-4.95-1.32-.92-1.6-.5-3.64.99-4.73l1.27-.93-3.62,2.09c-1.75.97-3.95.35-4.93-1.4-.85-1.53-.49-3.45.86-4.56l22.56-17.98-27.24,15.72c-1.74.98-3.95.37-4.94-1.37-.9-1.6-.47-3.62,1.02-4.71l14.12-10.14-16.28,9.42c-1.76.96-3.96.31-4.91-1.45-.91-1.67-.37-3.75,1.23-4.78l55.57-33.84-57.36,33.12c-1.72,1.03-3.94.47-4.97-1.25s-.47-3.94,1.25-4.97l133.49-82.63-136.74,78.91c-1.73,1-3.95.4-4.95-1.33-.97-1.69-.44-3.85,1.22-4.88l162.52-101.52-165.91,95.78c-1.74.99-3.95.38-4.94-1.35-.97-1.7-.42-3.85,1.25-4.88l60.05-36.44-60.44,34.89c-1.76.96-3.96.31-4.91-1.45-.91-1.67-.37-3.75,1.23-4.78l57.63-34.96-57.75,33.32c-1.76.96-3.96.31-4.91-1.45-.91-1.67-.37-3.75,1.23-4.78l66.26-40.23-66.24,38.26c-1.77.93-3.96.25-4.89-1.51-.87-1.65-.34-3.69,1.21-4.72l47.08-28.48-46.64,26.91c-1.76.95-3.96.3-4.91-1.46-.9-1.66-.38-3.73,1.2-4.76l127.68-78.59-128.05,73.93c-1.74.99-3.95.38-4.94-1.35-.97-1.7-.42-3.85,1.25-4.88l23.35-14.09-22.26,12.86c-1.72,1.02-3.94.46-4.97-1.26s-.46-3.94,1.26-4.97l138.36-85.48-138.46,79.93c-1.72,1.03-3.94.47-4.97-1.25s-.47-3.94,1.25-4.97h0l154.54-96.1-154.61,89.25c-1.76.96-3.96.31-4.91-1.45-.91-1.67-.37-3.75,1.23-4.78l31.21-18.89-29.7,17.15c-1.74.98-3.95.37-4.93-1.38-.95-1.68-.41-3.81,1.22-4.84l125.82-77.63-124.94,72.1c-1.76.95-3.96.3-4.91-1.46-.9-1.66-.38-3.73,1.2-4.76l103.93-63.82-102.46,59.2c-1.76.95-3.96.3-4.91-1.46-.9-1.66-.38-3.73,1.2-4.76l97.59-59.92-95.84,55.33c-1.76.95-3.96.3-4.91-1.46-.89-1.65-.38-3.7,1.18-4.74l139.54-87.03-137.75,79.52c-1.75.96-3.96.32-4.92-1.43-.91-1.65-.4-3.72,1.17-4.76l148.87-93.65-146.54,84.6c-1.76.95-3.96.3-4.91-1.46-.89-1.65-.38-3.7,1.18-4.74l128.97-80.75-125.79,72.62c-1.72,1.02-3.94.46-4.97-1.26-1.02-1.72-.46-3.94,1.26-4.97l56.5-34.63-52.71,30.42c-1.75.98-3.95.36-4.93-1.39-.93-1.67-.41-3.77,1.19-4.81l113.67-71.35-108.99,62.94c-1.74.98-3.95.36-4.93-1.38-.95-1.68-.41-3.81,1.22-4.84l58.98-36.4-53.78,31.05c-1.71,1.03-3.94.48-4.97-1.24-1.03-1.71-.48-3.94,1.24-4.97l88.41-55.51-81.85,47.27c-1.74.99-3.95.38-4.94-1.36-.95-1.66-.44-3.78,1.17-4.82l110.23-71.16-101.09,58.36c-1.72,1.03-3.94.47-4.97-1.25-1.03-1.72-.47-3.94,1.25-4.97l8.69-5.35-.91.51c-1.75.96-3.96.32-4.92-1.43-.9-1.64-.4-3.7,1.15-4.75l64.33-41.29-52.88,30.53c-1.75.98-3.95.35-4.93-1.39-.92-1.64-.43-3.71,1.13-4.76l60.75-39.99-45.37,26.18c-1.75.97-3.95.33-4.92-1.43-.88-1.61-.43-3.62,1.06-4.69l45.86-31.47-23.52,13.58c-1.74.99-3.95.38-4.94-1.36-.92-1.61-.46-3.66,1.05-4.74l25.4-17.84c-1.57-1.25-1.82-3.52-.58-5.09.28-.35.63-.65,1.02-.88l45.34-26.18c1.74-.99,3.95-.38,4.94,1.36.92,1.61.46,3.66-1.05,4.74l-4.24,2.98,33.61-19.41c1.74-.99,3.95-.39,4.94,1.35.93,1.63.46,3.7-1.08,4.77l-45.9,31.49,71.87-41.48c1.75-.98,3.95-.35,4.93,1.39.92,1.64.43,3.71-1.13,4.76l-60.74,39.98,79.37-45.82c1.75-.96,3.96-.32,4.92,1.43.9,1.64.4,3.7-1.15,4.75l-64.35,41.29,78.41-45.27c1.72-1.02,3.94-.46,4.97,1.26,1.02,1.72.46,3.94-1.26,4.97l-8.61,5.31,16.07-9.27c1.74-.99,3.95-.38,4.94,1.36.95,1.66.44,3.78-1.17,4.82l-110.21,71.16,124.82-72.06c1.76-.95,3.96-.3,4.91,1.46.89,1.65.38,3.7-1.18,4.74l-88.46,55.55,98.03-56.6c1.72-1.02,3.94-.46,4.97,1.26,1.02,1.72.46,3.94-1.26,4.97l-58.94,36.38,65.56-37.85c1.75-.98,3.95-.36,4.93,1.39.93,1.67.41,3.77-1.19,4.81l-113.73,71.41,122.54-70.77c1.72-1.02,3.94-.46,4.97,1.26s.46,3.94-1.26,4.97h0l-56.37,34.56,61.3-35.39c1.71-1.03,3.94-.48,4.97,1.24,1.03,1.71.48,3.94-1.24,4.97h0l-129.06,80.77,136.64-78.88c1.75-.98,3.95-.36,4.93,1.39.93,1.67.41,3.77-1.19,4.81l-148.85,93.64,156.52-90.37c1.76-.95,3.96-.3,4.91,1.46.89,1.65.38,3.7-1.18,4.74l-139.41,86.92,145.23-83.82c1.72-1.02,3.94-.46,4.97,1.26,1.02,1.72.46,3.94-1.26,4.97h0l-97.67,59.94,101.06-58.36c1.75-.97,3.95-.33,4.92,1.42.92,1.67.39,3.78-1.22,4.81l-104.09,63.91,107.19-61.88c1.74-.98,3.95-.36,4.93,1.38.95,1.68.41,3.81-1.22,4.84l-125.86,77.67,129.04-74.47c1.76-.96,3.96-.31,4.91,1.45.91,1.67.37,3.75-1.23,4.78l-30.74,18.58,31.43-18.11c1.75-.97,3.95-.33,4.92,1.43.92,1.66.39,3.75-1.2,4.78l-154.69,96.16,157.68-91.02c1.76-.95,3.96-.3,4.91,1.46.9,1.66.38,3.73-1.2,4.76l-138.31,85.46,140.08-80.87c1.76-.94,3.96-.28,4.9,1.48.89,1.66.36,3.73-1.23,4.75l-23.18,14,22.74-13.12c1.76-.95,3.96-.3,4.91,1.46.9,1.66.38,3.73-1.2,4.76l-127.75,78.62,128.21-74.05c1.76-.96,3.96-.31,4.91,1.45.91,1.67.37,3.75-1.23,4.78l-46.93,28.42,46.03-26.57c1.74-.99,3.95-.38,4.94,1.35.97,1.7.42,3.85-1.25,4.88l-66.4,40.34,65.29-37.67c1.76-.96,3.96-.31,4.91,1.45.91,1.67.37,3.75-1.23,4.78l-57.44,34.84,55.91-32.28c1.74-.99,3.95-.38,4.94,1.35.97,1.7.42,3.85-1.25,4.88l-60.32,36.6,58.41-33.73c1.73-1,3.95-.4,4.95,1.33.97,1.69.44,3.85-1.22,4.88l-162.42,101.46,160.74-92.81c1.72-1.03,3.94-.47,4.97,1.25,1.03,1.72.47,3.94-1.25,4.97l-133.52,82.67,130.68-75.44c1.76-.94,3.96-.28,4.9,1.49.88,1.65.36,3.71-1.21,4.74l-247.25,150.32c.14,1.3-.43,2.58-1.49,3.34l-14.1,10.14,5.69-3.28c1.74-.99,3.95-.38,4.94,1.36.87,1.54.51,3.48-.87,4.6l-22.56,17.97,18.54-10.71c1.73-1,3.95-.41,4.95,1.32.92,1.6.5,3.64-.99,4.73l-2.77,2.04c1.97-.37,3.86.92,4.23,2.88.24,1.26-.21,2.55-1.17,3.4l-13.43,11.75,6.52-3.75c1.77-.93,3.96-.24,4.89,1.53.87,1.67.32,3.73-1.27,4.74l-38.55,22.26c-.56.32-1.19.48-1.83.47Z"/>
      <path class="cls-3" d="m243.15,417.29c-2,0-3.62-1.62-3.62-3.62,0-.86.3-1.69.86-2.34l12.13-14.35-22.79,13.15c-1.74.99-3.95.39-4.94-1.35-.75-1.31-.6-2.94.36-4.1l12.61-15.08-10.3,5.95c-1.73,1-3.95.4-4.94-1.34-.45-.79-.59-1.71-.39-2.6l2.22-9.79c-.77-.29-1.42-.85-1.83-1.56-1-1.73-.41-3.94,1.32-4.94l3.62-2.11c1.25-.72,2.8-.64,3.96.22,1.16.86,1.7,2.31,1.38,3.72l-1.81,7.97,20.86-12.04c1.73-1,3.95-.4,4.95,1.33.76,1.32.61,2.96-.36,4.13l-12.58,15.07,23.02-13.29c1.73-1,3.95-.41,4.95,1.32.77,1.33.62,2.99-.37,4.16l-12.13,14.33,7.55-4.35c1.77-.93,3.96-.24,4.89,1.53.87,1.67.32,3.73-1.27,4.74l-25.5,14.74c-.56.33-1.19.51-1.84.51Z"/>
      <path class="cls-3" d="m200.51,305.56c-2,0-3.62-1.63-3.62-3.63,0-1,.41-1.95,1.14-2.63l.84-.8-7.61,4.39c-1.74.99-3.95.38-4.94-1.35-.8-1.4-.58-3.15.54-4.31l16.98-17.36-37.02,21.38c-1.74.99-3.95.39-4.94-1.35-.89-1.56-.5-3.54.91-4.65l15.87-12.31-35.97,20.76c-1.74.98-3.95.37-4.93-1.37-.89-1.57-.48-3.56.96-4.66l28.69-21.41-46.73,26.98c-1.73,1.01-3.95.42-4.95-1.31-.93-1.6-.51-3.63.98-4.73l42.68-31.8-44.61,25.75c-1.73,1-3.95.4-4.95-1.33-.93-1.62-.48-3.68,1.04-4.76l26.86-19.03-25.5,14.71c-1.74.98-3.95.37-4.93-1.37-.91-1.62-.45-3.67,1.07-4.74l11.69-8.08-8.48,4.89c-1.75.98-3.95.35-4.93-1.39-.87-1.55-.48-3.5.91-4.61l29.05-22.46-22.75,13.11c-1.74.98-3.95.36-4.93-1.38-.79-1.41-.55-3.18.59-4.33l19.99-19.81-.51.29c-1.69,1.07-3.93.57-5-1.11-1.07-1.69-.57-3.93,1.11-5,.09-.05.17-.11.26-.15l24.77-14.3c1.74-.98,3.95-.36,4.93,1.38.79,1.41.55,3.18-.59,4.33l-20,19.81,45-25.98c1.74-.99,3.95-.39,4.94,1.35.89,1.56.5,3.54-.91,4.65l-29.05,22.46,39.42-22.76c1.74-.98,3.95-.37,4.93,1.37.91,1.62.45,3.67-1.07,4.74l-11.71,8.09,15.57-8.98c1.73-1,3.95-.4,4.95,1.33.93,1.62.48,3.68-1.04,4.76l-26.86,19.03,30.7-17.73c1.73-1.01,3.95-.42,4.95,1.31.93,1.6.51,3.63-.98,4.73l-42.67,31.8,46.22-26.68c1.74-.98,3.95-.37,4.93,1.37.89,1.57.48,3.56-.96,4.66l-28.69,21.43,28.97-16.74c1.73-1.01,3.95-.42,4.95,1.31.92,1.57.52,3.58-.92,4.69l-15.94,12.31,13.76-7.97c1.74-.99,3.95-.38,4.94,1.35.8,1.4.58,3.15-.54,4.31l-16.96,17.33,11.85-6.84c1.72-1.03,3.94-.47,4.97,1.25.89,1.48.6,3.39-.68,4.55l-4.42,4.15c1.92.56,3.02,2.57,2.46,4.49-.26.9-.86,1.66-1.67,2.12l-20.64,11.98c-.55.32-1.18.49-1.81.49Z"/>
      <path class="cls-3" d="m368.04,307.71c-2,0-3.62-1.62-3.63-3.62,0-.75.23-1.47.66-2.08l5.35-7.63-15.94,9.2c-1.74.99-3.95.38-4.94-1.36-.77-1.36-.58-3.07.48-4.23l14.49-15.21-32.19,18.58c-1.73,1-3.95.41-4.95-1.33-.92-1.59-.5-3.61.96-4.71l4.72-3.53-17.49,10.04c-1.73,1-3.95.4-4.95-1.33-.93-1.62-.48-3.68,1.04-4.76l4.4-3.11-22.32,12.88c-1.73,1.01-3.95.42-4.95-1.31-.92-1.57-.52-3.58.92-4.69l41.41-32.13-53.83,31.08c-1.74.99-3.95.37-4.94-1.37-.89-1.56-.49-3.54.93-4.64l45.16-34.42-46.13,26.64c-1.73,1.01-3.95.42-4.95-1.31-.95-1.64-.48-3.73,1.08-4.8l13.89-9.59-11.29,6.52c-1.74.99-3.95.39-4.94-1.34-.9-1.58-.5-3.58.95-4.68l29.47-22.23-24.63,14.21c-1.74.99-3.95.38-4.94-1.36-.89-1.57-.49-3.56.94-4.66l15.58-11.81-7.19,4.14c-1.74.99-3.95.38-4.94-1.35-.86-1.51-.53-3.41.79-4.54l12.81-10.87c-1.81-.86-2.57-3.02-1.71-4.83.31-.66.82-1.21,1.45-1.57l24.77-14.3c1.74-.99,3.95-.38,4.94,1.35.86,1.51.53,3.41-.79,4.54l-6.12,5.19,22.51-13c1.74-.99,3.95-.38,4.94,1.36.89,1.57.49,3.56-.94,4.66l-15.6,11.83,25.68-14.82c1.74-.99,3.95-.39,4.94,1.34.9,1.58.5,3.58-.95,4.68l-29.46,22.21,38.05-21.97c1.74-.98,3.95-.37,4.93,1.37.91,1.62.45,3.67-1.07,4.74l-13.89,9.59,17.34-9.99c1.74-.99,3.95-.37,4.94,1.37.89,1.56.49,3.54-.93,4.64l-45.19,34.43,50.66-29.24c1.74-.99,3.95-.39,4.94,1.35.89,1.56.5,3.54-.91,4.65l-41.42,32.14,43.69-25.22c1.73-1,3.95-.4,4.95,1.33.93,1.62.48,3.68-1.04,4.76l-4.35,3.1,2.46-1.41c1.73-1,3.95-.41,4.95,1.33.92,1.59.5,3.61-.96,4.71l-4.71,3.53,1.64-.95c1.74-.99,3.95-.39,4.94,1.35.79,1.38.58,3.12-.51,4.28l-14.49,15.25,8.38-4.83c1.73-1,3.95-.4,4.95,1.33.7,1.22.63,2.73-.17,3.88l-8.06,11.5c1.67,1.1,2.13,3.35,1.02,5.02-.31.47-.72.86-1.21,1.14l-7.64,4.42c-.56.33-1.21.5-1.86.49Z"/>
      <path class="cls-4" d="m172.39,300.92c-2,0-3.62-1.63-3.62-3.63,0-.91.34-1.78.96-2.45l7.53-8.16-20.01,11.55c-1.74.99-3.95.39-4.94-1.35-.85-1.49-.54-3.38.75-4.51l11.53-10.06-16.3,9.42c-1.73,1-3.95.41-4.95-1.32-.86-1.49-.56-3.38.73-4.52l13.85-12.31-15.42,8.9c-1.74.99-3.95.39-4.94-1.35-.87-1.53-.52-3.47.84-4.59l4.95-4.03-2.67,1.59c-1.73,1-3.95.41-4.95-1.32-.74-1.28-.63-2.88.28-4.04l12.14-15.46-.96.54c-1.77.93-3.96.24-4.89-1.53-.87-1.67-.32-3.73,1.27-4.74l17.21-9.94c1.73-1,3.95-.41,4.95,1.32.74,1.28.63,2.88-.28,4.04l-12.14,15.47,25.92-14.97c1.74-.99,3.95-.39,4.94,1.35.87,1.53.52,3.47-.84,4.59l-4.98,4.04,6.88-3.97c1.74-.99,3.95-.38,4.94,1.36.84,1.48.54,3.34-.72,4.48l-13.85,12.31,17.57-10.14c1.73-1.01,3.95-.42,4.95,1.31.88,1.5.56,3.42-.76,4.56l-11.55,10,8.46-4.88c1.74-.99,3.95-.38,4.94,1.36.77,1.36.58,3.07-.47,4.22l-8.92,9.67c2,.12,3.51,1.84,3.39,3.84-.08,1.21-.75,2.3-1.8,2.91l-17.21,9.93c-.55.33-1.17.5-1.81.51Z"/>
      <path class="cls-3" d="m177.99,271.82c-2,0-3.62-1.62-3.62-3.62,0-.69.19-1.36.56-1.94l6.79-10.76-11.48,6.62c-1.73,1-3.95.4-4.95-1.33-.71-1.23-.63-2.75.19-3.91l4.35-6.07h0c-2,0-3.62-1.63-3.61-3.63,0-1.28.69-2.47,1.8-3.12l12.01-6.93c1.74-.99,3.95-.39,4.94,1.35.7,1.22.63,2.74-.18,3.88l-3.67,5.14,9.7-5.59c1.73-1,3.95-.41,4.95,1.32.67,1.17.65,2.61-.07,3.75l-6.78,10.76,5.11-2.95c1.69-1.07,3.93-.57,5,1.11,1.07,1.69.57,3.93-1.11,5-.09.05-.17.11-.26.15l-17.84,10.27c-.55.32-1.17.49-1.81.49Z"/>
      <path class="cls-4" d="m331.73,300.92c-2,0-3.62-1.62-3.62-3.62,0-.96.38-1.88,1.06-2.56l3.93-3.93-14.4,8.31c-1.74.99-3.95.38-4.94-1.36-.87-1.53-.52-3.45.83-4.58l4.13-3.39-8.15,4.71c-1.72,1.03-3.94.47-4.97-1.25-.89-1.48-.6-3.39.68-4.55l16.49-15.45-19.91,11.5c-1.74.99-3.95.39-4.94-1.35-.79-1.39-.58-3.14.53-4.3l18.6-19.25-17,9.87c-1.73,1-3.95.4-4.94-1.34-.79-1.37-.6-3.08.47-4.25l9.03-9.85c-2-.07-3.56-1.75-3.49-3.75.05-1.25.73-2.38,1.81-3.01l17.21-9.94c1.73-1,3.95-.4,4.94,1.34.79,1.37.6,3.08-.47,4.25l-7.8,8.44,18.99-10.97c1.73-1,3.95-.41,4.95,1.33.81,1.4.59,3.16-.53,4.32l-18.62,19.24,24.77-14.29c1.72-1.03,3.94-.47,4.97,1.25.89,1.48.6,3.39-.68,4.55l-16.48,15.44,19.2-11.08c1.74-.99,3.95-.38,4.94,1.36.87,1.53.52,3.45-.83,4.58l-4.14,3.4c1.73-1,3.95-.4,4.95,1.33.82,1.43.58,3.24-.6,4.39l-7.5,7.49c1.87.7,2.83,2.78,2.13,4.66-.29.78-.84,1.44-1.56,1.86l-17.21,9.93c-.55.34-1.19.52-1.83.52Z"/>
      <path class="cls-3" d="m335.48,271.12c-2,0-3.62-1.62-3.62-3.62,0-.87.31-1.7.88-2.36l3.88-4.49-6.16,3.55c-1.73,1-3.95.41-4.95-1.32-.66-1.14-.65-2.55.03-3.67l5.3-8.81c-1.75.97-3.95.34-4.93-1.41s-.34-3.95,1.41-4.93l12.01-6.93c1.74-.99,3.95-.39,4.94,1.34.65,1.14.64,2.53-.03,3.66l-5.28,8.76,12.52-7.24c1.73-1,3.95-.4,4.95,1.33.77,1.33.61,3-.39,4.17l-3.87,4.49,1.5-.86c1.69-1.07,3.93-.57,5,1.11s.57,3.93-1.11,5c-.09.05-.17.11-.26.15l-19.99,11.55c-.54.34-1.17.52-1.81.53Z"/>
      <path class="cls-1" d="m127.53,538.57c18.01,13.78,43.78,10.35,57.56-7.67,5.27-6.89,8.22-15.27,8.43-23.94-.12-17.47-2.34-34.91,19.67-39.12,22.34-1.54,46.36-.31,68.71,0,21.99,3.5,19.03,23.67,18.91,40.26,2.46,21.25,16.7,38.87,39.45,39.39,29.31.67,50.28-31.96,62.96-54.2C579.72,180.33,193.31-26.05,60.36,253.65c-32.57,87.71-4.25,221.67,67.16,284.92ZM257.96,127.76c92.35,5.74,166.74,81.35,178.65,171.68,6.88,76.15-14.33,160.34-61.75,220.79-20.79,19.29-61.7,19-65.43-13.29,5.61-53.01-25.35-47.74-66.07-45.64-13.19,0-32.81-3.38-45.17,3.27-16.51,8.88-13.4,27.75-13.29,43.53-.98,25.52-28.71,42.38-50.36,26.21C-1.46,405.39,39.2,122.16,257.96,127.76Z"/>
      <path class="cls-1" d="m221.63,374.04c-16.34-2.03-32.24-6.7-47.08-13.81,2.12-3.46,3.63-7.25,4.45-11.22.93-4.54-7.7-4.73-8.53-.65-.83,9.56-10.27,18.96-16.72,18.79-5.01-.6-7.4,5.96-1.49,6.52,6.25-.06,12.25-2.46,16.81-6.72,16.34,7.93,33.92,12.99,51.98,14.95-2.34,20.34,2.07,36.54,25.61,35.35,25.86,1.75,28.69-13.45,26.6-35.68,17.75-2.16,35.02-7.28,51.08-15.15,4.07,5.13,10.21,8.19,16.75,8.34,4.35.04,4.8-8.64.48-8.69-4.95-.1-9.62-2.34-12.79-6.14-2.98-3.51-5.04-7.72-5.98-12.23-1.14-5.56-7.4-2.9-6.4,1.96.82,3.91,2.22,7.67,4.16,11.17-15.29,7.21-31.67,11.82-48.48,13.62-2.17-2.17-6.93-2.46-7.33.72-11.9.97-23.85.88-35.73-.27-1.63-2.24-5.99-2.98-7.38-.86Zm43.06,8.52c.32,13.42,2.13,30.73-17.02,27.94-21.14,3.62-18.07-12.85-18.04-27.73,11.67.92,23.39.85,35.05-.21h0Z"/>
      <path class="cls-1" d="m108.24,308.59c-3.1,2.56-1.18,10.87,2.59,7.77,14.22-12.74,42.01-16.1,64.01-15.78,17.4.13,34.35,5.54,48.61,15.52,3.88,3.21,7.13-4.56,3.96-7.17-2.71-2.17-5.62-4.07-8.69-5.69,25.03-40.48-.55-95.13-51.08-95.39-33.96-.05-61.52,27.44-61.57,61.4-.02,12.09,3.54,23.93,10.21,34.01-2.83,1.53-5.52,3.32-8.04,5.33Zm40.33-22.83c-13.13-15.1-1.96-42.43,18.5-42.14-12.81,15.12,8.24,35.64,24.06,26.32.3,9.52-5.19,18.28-13.9,22.14-6.81-.47-13.65-.45-20.46.09-3.18-1.49-5.99-3.69-8.2-6.42Zm32.83-20.04c-11.49-.62-11.99-16.83-3.62-21.25.44-.1.85-.27,1.22-.52,15.53-5.11,17.65,20.72,2.4,21.77Zm-19.25-51.11c47.77-5.01,71.55,48.22,49.19,85.04-7.07-2.83-14.44-4.87-21.96-6.07,10.39-7.85,11.76-20.53,10.09-32.27,6.34-14.43-10.62-29.22-24.53-23.32-33.02-8.63-55.55,33.79-28.66,55.45-7.79,1.19-15.41,3.3-22.7,6.27-20.01-33.37-3.95-80.64,38.58-85.11h0Z"/>
      <path class="cls-1" d="m272.18,314.92c2.67-2.13,5.55-3.99,8.61-5.53,1.18-.13,2.28-.68,3.09-1.56,10.61-4.53,21.92-7.2,33.44-7.9,6.13,1.66,12.59,1.62,18.69-.12,10.98.59,21.79,2.92,32.04,6.91.47,1.69,2.22,2.68,3.92,2.21.19-.05.38-.12.55-.21,3.38,1.63,6.57,3.65,9.5,6,3.48,2.9,9.92-.88,5.55-4.49-3.26-2.61-6.79-4.87-10.53-6.74,26.08-41.14.2-99.08-52.65-96.04-49.07,2.83-72.63,56.54-48.8,96.15-3.54,1.79-6.89,3.94-9.99,6.43-3.85,3.17,3.41,7.52,6.58,4.9Zm36.66-28.61c-14.25-14.62-3.76-43.8,17.57-42.57-12.87,15.07,8.16,35.73,24.03,26.17.71,10.17-5.39,19.59-14.97,23.1-5.49-.35-11-.37-16.5-.08-3.87-1.34-7.35-3.61-10.13-6.62Zm32.24-20.64c-13.04-1.27-12.83-22.46.56-22.32,13.55.16,12.13,20.93-.56,22.32Zm-6.52-50.03c30.07,5.34,50.12,34.04,44.78,64.1-1.33,7.49-4.19,14.63-8.41,20.97-7.65-3.03-15.62-5.17-23.77-6.36,10.18-7.83,14.77-20.94,11.69-33.42,6.26-14.41-10.66-28.69-24.41-22.92-33-8.58-56.22,35.14-28.42,56.24-7.71,1.1-15.28,3.05-22.57,5.79-24.61-37.91,1.78-92.44,51.1-84.41h0Z"/>
    </g>
  </g>
  <g id="Capa_3" data-name="Capa 3">
    <g>
      <path class="cls-7" d="m462,116.11c0,45.6-70.88,140.85-212.43,140.85S37.1,161.71,37.1,116.11s59.25,31.03,210.46,31.03c151.34.09,214.45-76.63,214.45-31.03Z"/>
      <path class="cls-2" d="m249.57,262c-80.32,0-132.68-29.63-162.53-54.47-37.92-31.6-54.95-68.69-54.95-91.42,0-12.95,5-19.49,14.79-19.49,7.72,0,18.04,4.17,33.58,10.4,32.52,13.17,86.99,35.11,167.18,35.11s135.36-21.81,168.63-34.85c15.89-6.19,27.39-10.71,35.55-10.71,10.14,0,15.27,6.54,15.27,19.49,0,22.74-16.94,59.78-54.95,91.42-29.85,24.84-82.21,54.47-162.53,54.47l-.04.04ZM46.89,106.67c-2.19,0-4.7,0-4.7,9.44,0,20.32,15.84,54.12,51.31,83.7,28.57,23.79,78.83,52.14,156.12,52.14s127.55-28.35,156.12-52.14c35.46-29.58,51.31-63.33,51.31-83.7,0-9.44-2.68-9.44-5.22-9.44-6.28,0-17.6,4.43-31.86,10.01-34.02,13.3-90.81,35.55-172.32,35.55s-137.69-22.47-170.91-35.81c-13.43-5.4-24.05-9.7-29.85-9.7v-.04Z"/>
      <path class="cls-7" d="m289.69,8.05c-9.09,0-20.85,17.47-41.61,17.47s-33.44-17.47-44.29-17.47c-15.27,0-33.66,45.91-46.52,80.23-12.86,34.37-16.77,63.07-16.77,73.6,0,19.71,34.28,47.36,107.53,47.36s107.53-28.66,107.53-47.36c0-10.27-4.43-38.36-18.52-73.34-11.76-29.36-30.42-80.54-47.45-80.54l.09.04Z"/>
      <path class="cls-2" d="m248.12,214.29c-42.71,0-69.04-9.22-83.61-16.9-18.17-9.66-29.01-22.87-29.01-35.55,0-10.27,3.6-39.33,17.12-75.4C171.4,36.4,187.34,3.04,203.84,3.04c5.97,0,11.41,3.47,17.73,7.37,7.46,4.7,15.89,10.05,26.55,10.05s19.09-5.57,26.25-10.49c5.49-3.73,10.23-6.98,15.36-6.98,17.6,0,31.95,32.74,48.94,75.45,1.14,2.9,2.24,5.62,3.25,8.16,14.92,37.18,18.87,65.44,18.87,75.23,0,12.33-10.84,25.5-28.92,35.2-14.7,7.81-41.17,17.16-83.7,17.16l-.04.09ZM203.84,13.05c-1.67,0-7.94,1.76-19.71,24.49-8.03,15.54-15.71,35.24-22.16,52.45-12.11,32.17-16.46,60.61-16.46,71.85,0,6.85,6.19,17.38,23.66,26.69,13.61,7.2,38.27,15.76,78.92,15.76s65.27-8.73,78.92-16.06c17.47-9.35,23.66-20.06,23.66-26.33,0-10.58-4.87-38.27-18.17-71.45-1.05-2.59-2.11-5.35-3.29-8.25-5.79-14.57-12.95-32.65-20.5-46.79-10.71-20.15-16.9-22.3-19.09-22.3-2.06,0-5.93,2.68-9.7,5.22-7.55,5.14-17.86,12.25-31.86,12.25s-23.7-6.41-31.86-11.63c-4.65-3.03-9.13-5.93-12.25-5.93l-.09.04Z"/>
      <g>
        <path class="cls-2" d="m248.12,183.08c-63.69,0-97.92-20.98-105.78-39.33-1.27,8.03-1.76,14.31-1.76,18.08,0,19.71,34.28,47.36,107.53,47.36s107.53-28.66,107.53-47.36c0-3.73-.61-9.88-2.06-17.82-8.25,17.86-42.44,39.06-105.51,39.06h.04Z"/>
        <path class="cls-2" d="m248.12,214.29c-42.71,0-69.04-9.22-83.61-16.9-18.17-9.66-29.01-22.87-29.01-35.55,0-4.65.61-11.32,1.84-18.87.35-2.19,2.11-3.95,4.35-4.21s4.35.97,5.22,3.03c7.46,17.47,42.31,36.34,101.17,36.34s92.92-18.74,100.99-36.17c.92-1.98,3.03-3.12,5.22-2.9,2.19.26,3.95,1.89,4.3,4.08,1.32,7.55,2.11,14.22,2.11,18.74,0,12.33-10.84,25.5-28.92,35.2-14.66,7.9-41.13,17.25-83.61,17.25l-.04-.04Zm-102.4-56.75c-.13,1.62-.13,3.12-.13,4.35,0,6.85,6.19,17.38,23.66,26.69,13.61,7.2,38.27,15.76,78.92,15.76s65.27-8.73,78.92-16.06c17.47-9.35,23.66-20.06,23.66-26.33,0-1.32-.09-2.94-.22-4.7-16.11,16.68-50.83,30.99-102.35,30.99-54.6-.09-87.3-14.79-102.4-30.68h-.04Z"/>
      </g>
      <path class="cls-2" d="m353.68,149.73c-1.27,2.59-2.59,5.22-4.43,7.55-2.41,2.9-4.92,5.57-7.81,7.94-5.97,5-12.68,8.95-19.71,12.16-14.57,6.67-30.46,10.14-46.3,12.03-16.42,1.98-33.14,1.98-49.64.57-15.84-1.32-32.22-4.43-46.96-10.58-7.81-3.25-15.76-7.02-22.3-12.47-3.25-2.68-6.32-5.49-9-8.78-2.19-2.68-3.73-5.62-5.14-8.73,3.16,5.49,7.11,10.36,12.25,14.09,6.06,4.43,12.47,7.9,19.36,10.84,14.44,6.14,30.42,9.22,45.95,10.84,16.33,1.67,32.74,1.84,49.11.7,8.08-.57,16.2-1.62,24.05-3.16,7.55-1.54,15.14-3.29,22.38-5.97,7.94-2.94,16.06-6.28,23-11.28,3.38-2.41,6.54-5,9.44-8.03,2.24-2.41,3.99-5,5.71-7.72h.04Z"/>
      <path class="cls-2" d="m316.73,71.38c-8.16.35-15.27-4.3-20.41-10.36-6.06-7.11-9.48-16.46-9.92-25.76-.22-4.3.35-8.65,1.98-12.6,3.38,6.98,5.97,14.22,9.35,21.2,3.25,6.76,6.85,13.21,11.28,19.27,2.33,3.12,5.14,5.57,7.72,8.25Z"/>
      <path class="cls-2" d="m176.67,71.38c1.32-1.32,2.77-2.59,3.99-3.99,1.67-1.89,3.29-3.95,4.7-6.06,2.77-3.99,5.22-8.38,7.33-12.73,2.24-4.65,4.43-9.44,6.5-14.13,1.67-3.86,3.16-7.94,5-11.76,3.16,7.55,2.55,16.81-.09,24.4-2.9,8.51-7.94,16.24-15.71,21.11-3.6,2.24-7.59,3.29-11.76,3.16h.04Z"/>
      <path class="cls-2" d="m53.29,129.19c8.43,21.59,24.97,38.62,42.22,53.63,18.39,15.98,38.98,29.14,60.39,40.69,9.88,5.35,20.15,9.92,30.33,14.48-22.82-4.08-44.55-12.95-64.34-25.06-21.2-12.95-40.91-29.63-54.95-50.26-6.85-10.14-12.03-21.33-13.65-33.49Z"/>
      <path class="cls-2" d="m443.79,129.19c-2.94,22.82-18.52,42.57-34.76,57.94-18.21,17.16-39.77,31.03-62.94,40.56-11.41,4.65-23.17,8.16-35.24,10.27,20.15-8.87,39.68-18.79,58.16-30.81,20.28-13.21,39.63-28.49,55.48-46.88,8.08-9.35,14.84-19.49,19.36-31.03l-.04-.04Z"/>
      <path class="cls-2" d="m221.83,47.02c8.38,3.99,16.68,8.08,26.2,8.08s17.95-4.08,26.33-8.08c-4.21,7.9-12.95,13.61-21.68,14.92-7.46,1.14-15.14-.61-21.42-4.87-3.73-2.55-7.33-5.97-9.44-10.05Z"/>
      <path class="cls-8" d="m278.37,139.9c-.61,0-1.19.22-1.67.48l-8.03-13.96,8.03-13.96c.48.26,1.05.48,1.67.48,1.89,0,3.47-1.54,3.47-3.47s-1.54-3.47-3.47-3.47-3.47,1.54-3.47,3.47h-16.11l-8.51-14.79c1.05-.57,1.76-1.67,1.76-2.94,0-1.89-1.54-3.47-3.47-3.47s-3.47,1.54-3.47,3.47c0,1.27.7,2.41,1.76,2.94l-8.51,14.79h-16.11c0-1.89-1.54-3.47-3.47-3.47s-3.47,1.54-3.47,3.47,1.54,3.47,3.47,3.47c.61,0,1.19-.22,1.67-.48l8.03,13.96-8.03,13.96c-.48-.26-1.05-.48-1.67-.48-1.89,0-3.47,1.54-3.47,3.47s1.54,3.47,3.47,3.47,3.47-1.54,3.47-3.47h16.11l8.51,14.79c-1.05.57-1.76,1.67-1.76,2.94,0,1.89,1.54,3.47,3.47,3.47s3.47-1.54,3.47-3.47c0-1.27-.7-2.41-1.76-2.94l8.51-14.79h16.11c0,1.89,1.54,3.47,3.47,3.47s3.47-1.54,3.47-3.47-1.54-3.47-3.47-3.47Z"/>
      <g>
        <path class="cls-2" d="m353.81,136.65c-6.32,5.93-12.95,11.28-20.5,15.63-8.3,4.78-17.34,8.38-26.55,10.93-3.99,1.05-8.08,2.06-12.16,2.46,7.81-2.11,15.41-5.79,22.47-9.79,7.81-4.52,15.05-10.05,21.42-16.46,2.9-2.94,5.4-6.28,7.94-9.48,2.41,2.24,4.92,4.52,7.37,6.76v-.04Z"/>
        <path class="cls-2" d="m350.87,125.37c-5.97,5.49-12.25,10.23-19.44,14.09-6.41,3.47-13.3,6.14-20.32,8.03-3.12.83-6.32,1.62-9.57,2.06,8.43-2.77,16.55-7.33,23.7-12.51,3.38-2.46,6.63-5.14,9.57-8.08,3.16-3.25,5.97-6.63,8.65-10.27,2.41,2.24,4.92,4.52,7.37,6.76l.04-.09Z"/>
        <path class="cls-2" d="m347.93,114.13c-11.1,9.66-24.71,16.9-39.41,19.14,6.19-2.55,12.11-6.19,17.38-10.36,5.71-4.52,10.4-9.7,14.66-15.63,2.46,2.33,4.92,4.56,7.37,6.85Z"/>
        <path class="cls-2" d="m344.95,102.85c-8.6,6.89-18.65,12.11-29.58,14.22,9-5,16.55-12.38,22.12-20.98,2.55,2.33,5,4.52,7.46,6.76Z"/>
        <path class="cls-2" d="m342.05,91.57c-6.06,4.17-12.6,7.37-19.71,9.3,5-4.56,9-10.01,12.16-15.98,2.46,2.24,5,4.43,7.55,6.67Z"/>
      </g>
      <g>
        <path class="cls-2" d="m149.19,129.89c4.92,6.32,10.23,12.11,16.46,17.16,7.24,5.84,15.36,10.58,23.79,14.35,3.73,1.67,7.59,3.25,11.54,4.3-8.08-.92-16.11-3.38-23.7-6.28-9.09-3.47-17.69-8.25-25.41-14-3.6-2.68-6.85-5.71-10.05-8.78,2.46-2.24,4.92-4.52,7.37-6.76Z"/>
        <path class="cls-2" d="m152.18,118.61c2.77,3.6,5.49,7.02,8.65,10.27,2.94,2.94,6.19,5.62,9.57,8.08,7.11,5.22,15.27,9.79,23.7,12.51-14.13-1.84-28.09-8.03-39.77-16.11-3.47-2.41-6.5-5.14-9.57-7.94,2.46-2.33,4.92-4.56,7.37-6.85l.04.04Z"/>
        <path class="cls-2" d="m155.12,107.37c4.21,5.93,8.95,11.1,14.66,15.63,5.27,4.17,11.19,7.81,17.38,10.36-14.7-2.24-28.31-9.48-39.41-19.14,2.46-2.33,4.92-4.56,7.37-6.85Z"/>
        <path class="cls-2" d="m158.06,96.18c5.62,8.6,13.08,15.98,22.12,20.98-10.93-2.11-20.98-7.33-29.58-14.22,2.46-2.33,5-4.52,7.46-6.76Z"/>
        <path class="cls-2" d="m161.05,84.9c3.16,5.97,7.2,11.41,12.16,15.98-7.11-1.89-13.65-5.22-19.71-9.3,2.55-2.24,5.05-4.43,7.55-6.67Z"/>
      </g>
      <g>
        <polygon class="cls-2" points="141.38 155.52 97.49 134.19 144.85 146.08 141.38 155.52"/>
        <polygon class="cls-2" points="138.88 169.3 114.78 152.05 143.31 160.3 138.88 169.3"/>
        <polygon class="cls-2" points="350.79 146.08 398.19 134.19 354.25 155.52 350.79 146.08"/>
        <polygon class="cls-2" points="352.37 160.3 380.85 152.05 356.71 169.3 352.37 160.3"/>
      </g>
    </g>
  </g>
</svg>