<?xml version="1.0" encoding="UTF-8"?>
<svg xmlns="http://www.w3.org/2000/svg" viewBox="0 0 500 575">
  <defs>
    <style>
      .cls-1 {
        fill: #4d4d4d;
      }

      .cls-1, .cls-2, .cls-3, .cls-4, .cls-5, .cls-6, .cls-7, .cls-8, .cls-9, .cls-10, .cls-11, .cls-12, .cls-13, .cls-14, .cls-15, .cls-16, .cls-17 {
        stroke-width: 0px;
      }

      .cls-2 {
        fill: #56827e;
      }

      .cls-3 {
        fill: #262626;
      }

      .cls-4 {
        fill: #e384b0;
      }

      .cls-5 {
        fill: #ffb5e9;
      }

      .cls-6 {
        fill: #4ce0c8;
      }

      .cls-7 {
        fill: #241816;
      }

      .cls-8 {
        fill: #416b80;
      }

      .cls-9 {
        fill: #fff;
      }

      .cls-10 {
        fill: #5da0ff;
      }

      .cls-11 {
        fill: #f9d6bd;
      }

      .cls-12 {
        fill: #dee3d7;
      }

      .cls-13 {
        fill: #e2e6eb;
      }

      .cls-14 {
        fill: #eac2aa;
      }

      .cls-15 {
        fill: #f2f1eb;
      }

      .cls-16 {
        fill: #e7d8b4;
      }

      .cls-17 {
        fill: #73c6c2;
      }
    </style>
  </defs>
  <g id="Capa_1" data-name="Capa 1">
    <g>
      <path class="cls-16" d="m250,573c-66.51,0-129.04-25.9-176.07-72.93C26.9,453.04,1,390.51,1,324s25.9-129.04,72.93-176.07c47.03-47.03,109.56-72.93,176.07-72.93s129.04,25.9,176.07,72.93c47.03,47.03,72.93,109.56,72.93,176.07s-25.9,129.04-72.93,176.07c-47.03,47.03-109.56,72.93-176.07,72.93Z"/>
      <path class="cls-7" d="m250,76c33.48,0,65.96,6.56,96.53,19.49,29.53,12.49,56.05,30.37,78.83,53.15,22.78,22.78,40.66,49.3,53.15,78.83,12.93,30.57,19.49,63.05,19.49,96.53s-6.56,65.96-19.49,96.53c-12.49,29.53-30.37,56.05-53.15,78.83-22.78,22.78-49.3,40.66-78.83,53.15-30.57,12.93-63.05,19.49-96.53,19.49s-65.96-6.56-96.53-19.49c-29.53-12.49-56.05-30.37-78.83-53.15-22.78-22.78-40.66-49.3-53.15-78.83-12.93-30.57-19.49-63.05-19.49-96.53s6.56-65.96,19.49-96.53c12.49-29.53,30.37-56.05,53.15-78.83s49.3-40.66,78.83-53.15c30.57-12.93,63.05-19.49,96.53-19.49m0-2C111.93,74,0,185.93,0,324s111.93,250,250,250,250-111.93,250-250-111.93-250-250-250h0Z"/>
    </g>
  </g>
  <g id="Capa_2" data-name="Capa 2">
    <g>
      <path class="cls-14" d="m112.44,274.41c-.76,0-1.5-.28-2.07-.77-1.02-.88-1.36-2.32-.86-3.57l.51-1.26c-1.6.71-3.46,0-4.17-1.6-.44-.99-.34-2.13.25-3.03l3.63-5.53-4.05,2.33c-1.52.86-3.45.33-4.31-1.19-.67-1.19-.51-2.67.4-3.68l4.77-5.2-4.69,2.7c-1.51.88-3.45.36-4.32-1.15-.74-1.28-.5-2.91.59-3.91l4.77-4.43-4.19,2.42c-1.52.86-3.45.32-4.31-1.2-.73-1.3-.46-2.92.65-3.91l6.87-5.95-6.13,3.54c-1.51.87-3.45.34-4.32-1.17-.65-1.14-.53-2.56.29-3.57l11.42-13.91-11.26,6.53c-1.51.87-3.45.36-4.32-1.16-.67-1.16-.54-2.62.34-3.64l6.26-7.29-4.68,2.69c-1.52.87-3.45.34-4.31-1.18-.62-1.09-.54-2.45.21-3.46l4.31-5.73-2.07,1.19c-1.53.85-3.45.3-4.3-1.23-.48-.87-.53-1.91-.13-2.82l2.97-6.49c-1.4.39-2.88-.21-3.62-1.45-.87-1.51-.36-3.44,1.15-4.32l7.83-4.52c1.52-.85,3.45-.3,4.3,1.22.49.87.53,1.92.12,2.83l-2.9,6.32,6.91-3.98c1.52-.87,3.45-.34,4.31,1.18.62,1.09.54,2.45-.21,3.46l-4.31,5.75,7.29-4.22c1.52-.87,3.45-.34,4.32,1.17.66,1.15.53,2.6-.33,3.61l-6.26,7.29,10.33-5.96c1.51-.87,3.45-.34,4.32,1.17.65,1.14.53,2.56-.29,3.57l-11.42,13.91,19.24-11.14c1.52-.86,3.45-.32,4.31,1.2.73,1.3.46,2.92-.65,3.91l-6.87,6,.25-.15c1.51-.88,3.45-.36,4.32,1.15.74,1.28.5,2.91-.59,3.91l-5.47,5.12c1.73-.26,3.34.92,3.6,2.65.14.95-.15,1.91-.79,2.61l-5.55,6.06c.92-.06,1.82.3,2.45.98,1.01,1.06,1.15,2.68.35,3.91l-4.94,7.5c.39.14.75.36,1.06.63,1.02.89,1.36,2.32.85,3.57l-2.5,6.22c.75,1.5.2,3.34-1.26,4.17l-1.52.88c-.48.27-1.02.4-1.57.39Z"/>
      <path class="cls-11" d="m149.49,304.67c-1.75,0-3.16-1.42-3.16-3.16,0-.68.22-1.35.63-1.9l.97-1.26-4.03,2.32c-1.51.88-3.45.36-4.32-1.15-.67-1.15-.54-2.6.31-3.62l9.28-11.1-15.69,9.06c-1.51.88-3.44.38-4.33-1.12-.78-1.33-.49-3.02.69-4.02l7.41-6.32-10.39,6c-1.52.86-3.45.33-4.31-1.19-.76-1.34-.44-3.04.76-4.02l9.45-7.53-11.78,6.79c-1.55.8-3.46.19-4.26-1.36-.68-1.32-.36-2.93.78-3.88l12.92-9.93-15.01,8.66c-1.51.88-3.45.37-4.32-1.14-.8-1.38-.45-3.15.83-4.11l13.53-10.27-9.69,5.58c-1.53.85-3.45.3-4.3-1.22-.7-1.26-.46-2.84.59-3.84l17.14-15.67-11.5,6.6c-1.52.86-3.45.33-4.31-1.18-.71-1.24-.49-2.8.52-3.81l8.29-8.15-1.21.7c-1.51.87-3.45.35-4.32-1.17-.56-.97-.56-2.17,0-3.15l7.9-13.65c-.08-.11-.16-.22-.23-.34-.87-1.51-.35-3.45,1.16-4.32l3.4-1.96c1.51-.87,3.45-.35,4.32,1.16.56.98.56,2.18,0,3.16l-5.14,8.85,12.54-7.23c1.52-.86,3.45-.33,4.31,1.18.71,1.24.49,2.8-.52,3.81l-8.32,8.19,15.11-8.73c1.53-.85,3.45-.3,4.3,1.22.7,1.26.46,2.84-.59,3.84l-17.16,15.68,27.96-16.13c1.51-.88,3.45-.37,4.32,1.14.8,1.38.45,3.15-.83,4.11l-13.51,10.26,13.04-7.53c1.52-.86,3.45-.32,4.31,1.2.77,1.36.42,3.07-.8,4.04l-12.91,9.93,6.92-3.99c1.52-.86,3.45-.33,4.31,1.19.76,1.34.44,3.04-.76,4.02l-9.49,7.53,3.52-2.03c1.51-.87,3.45-.36,4.32,1.16.76,1.32.47,2.99-.68,3.98l-7.42,6.32,1.41-.82c1.51-.88,3.45-.36,4.32,1.14.67,1.15.54,2.6-.31,3.62l-9.28,11.07,2-1.15c1.52-.87,3.45-.34,4.31,1.18.62,1.09.54,2.45-.21,3.46l-3.11,4.14c.57.28,1.04.72,1.35,1.26.87,1.51.35,3.44-1.16,4.31l-8.34,4.82c-.47.28-1,.43-1.54.44Z"/>
      <path class="cls-14" d="m384.01,273.21c-1.75,0-3.16-1.42-3.16-3.17,0-.65.2-1.28.58-1.82l5.97-8.46-4.64,2.68c-1.51.88-3.44.38-4.33-1.13-.71-1.21-.54-2.74.43-3.77l8.85-9.52-7.7,4.43c-1.52.86-3.45.32-4.31-1.2-.72-1.27-.47-2.86.59-3.86l8.37-7.65-7.02,4.05c-1.51.87-3.45.36-4.32-1.16-.75-1.3-.49-2.94.63-3.94l12.41-11.1-11.38,6.55c-1.52.86-3.45.33-4.31-1.19-.75-1.31-.46-2.97.68-3.95l13.28-11.32-12.16,7.06c-1.51.88-3.45.36-4.32-1.15-.76-1.31-.49-2.97.65-3.97l25.49-22.32c-.67-1.48-.1-3.22,1.3-4.03l9.98-5.76c1.52-.87,3.45-.34,4.31,1.17.75,1.3.47,2.95-.65,3.94l-12.02,10.52,14.43-8.33c1.51-.88,3.45-.36,4.32,1.15.77,1.32.48,3.01-.69,4l-13.32,11.34,7.71-4.43c1.54-.82,3.46-.23,4.27,1.31.66,1.24.42,2.77-.59,3.75l-12.41,11.12,5.69-3.27c1.52-.86,3.45-.32,4.31,1.2.72,1.27.47,2.86-.59,3.86l-8.38,7.65.88-.51c1.51-.88,3.45-.36,4.32,1.15.7,1.21.53,2.73-.43,3.74l-9.18,9.86c1.12-.28,2.3.09,3.06.95,1,1.1,1.1,2.74.25,3.95l-10,14.18.12.2c.87,1.51.36,3.44-1.15,4.32l-4.26,2.46c-.48.27-1.03.41-1.58.4Z"/>
      <path class="cls-11" d="m341.66,305.16c-1.75,0-3.16-1.42-3.16-3.16,0-1,.47-1.93,1.26-2.53l2.92-2.21-.99.57c-1.51.87-3.45.35-4.32-1.16-.76-1.32-.47-2.98.68-3.97l17.76-15.29-16.58,9.57c-1.52.86-3.45.33-4.31-1.19-.76-1.34-.44-3.04.76-4.02l11.24-8.98-9.63,5.55c-1.52.86-3.45.31-4.31-1.21-.75-1.33-.44-3,.73-3.98l13.19-10.75-11.69,6.74c-1.51.88-3.44.37-4.33-1.13-.8-1.36-.47-3.11.78-4.08l9.41-7.44-7.72,4.43c-1.52.86-3.45.33-4.31-1.19-.75-1.31-.46-2.97.68-3.95l14.68-12.4-13.28,7.67c-1.51.87-3.45.36-4.32-1.15-.37-.63-.5-1.37-.38-2.09l1.53-9.45c-1.6.7-3.46-.02-4.17-1.62-.65-1.47-.09-3.18,1.28-4l5.48-3.16c1.51-.87,3.45-.35,4.32,1.17.36.63.5,1.36.38,2.07l-1.52,9.44,37.73-21.79c1.5-.89,3.44-.39,4.33,1.12.79,1.33.49,3.04-.69,4.03l-14.69,12.48,15.08-8.7c1.5-.9,3.44-.42,4.34,1.08.83,1.38.49,3.17-.79,4.15l-9.38,7.41,8.46-4.88c1.52-.87,3.45-.34,4.31,1.18.76,1.34.45,3.03-.73,4.01l-13.23,10.75,11.9-6.84c1.52-.87,3.45-.34,4.31,1.18.77,1.35.45,3.06-.77,4.03l-11.21,8.94,9.07-5.24c1.52-.86,3.45-.32,4.31,1.19.74,1.3.46,2.95-.67,3.93l-17.76,15.3,15.09-8.71c1.52-.86,3.45-.33,4.31,1.18.78,1.37.43,3.11-.82,4.07l-8.59,6.53c1.69.44,2.71,2.16,2.27,3.85-.21.82-.75,1.52-1.48,1.95l-35.16,20.29c-.49.29-1.05.43-1.61.43Z"/>
      <path class="cls-17" d="m305.56,559.67c-1.75,0-3.16-1.41-3.16-3.16,0-.91.39-1.77,1.07-2.37l10.21-9-18.65,10.75c-1.53.85-3.45.3-4.3-1.22-.76-1.37-.41-3.1.84-4.05l2.46-1.83-4.64,2.68c-1.51.87-3.45.35-4.32-1.17-.76-1.33-.46-3.02.71-4l25.01-20.81-27.32,15.77c-1.51.88-3.44.37-4.33-1.13-.8-1.36-.47-3.11.78-4.08l27.12-21.57-24.61,14.22c-1.52.87-3.45.34-4.32-1.17-.79-1.38-.43-3.13.83-4.09l21.04-15.85-17.56,10.12c-1.56.79-3.46.17-4.25-1.39-.66-1.31-.34-2.9.77-3.84l20.94-15.7-17.46,10.05c-1.52.86-3.45.32-4.31-1.2-.78-1.39-.41-3.14.86-4.09l16.09-11.74-12.65,7.3c-1.53.84-3.45.28-4.29-1.25-.76-1.39-.38-3.13.9-4.07l5.69-4-3.47,1.99c-1.51.88-3.45.36-4.32-1.15-.79-1.37-.45-3.11.79-4.08l30.78-23.99-34.46,19.9c-1.52.86-3.45.34-4.31-1.18-.81-1.43-.4-3.25.96-4.17l1.02-.69-5.19,2.99c-1.48.93-3.43.48-4.36-1.01s-.48-3.43,1.01-4.36l5.84-3.93-15.55,8.96c-1.53.85-3.45.3-4.3-1.23-.78-1.41-.38-3.18.94-4.12l26.89-18.34-41.3,23.85c-1.47.94-3.43.5-4.36-.97-.94-1.47-.5-3.43.97-4.36.07-.05.15-.09.23-.13l114.26-65.95c1.51-.88,3.45-.36,4.32,1.15.83,1.44.41,3.27-.96,4.2l-26.91,18.34,22.77-13.14c1.53-.85,3.45-.29,4.3,1.23.78,1.42.37,3.19-.95,4.12l-5.78,3.89,1.82-1.05c1.52-.86,3.45-.32,4.31,1.21.8,1.42.39,3.21-.95,4.14l-2.97,2.01c1.71-.34,3.38.78,3.71,2.49.23,1.17-.22,2.36-1.15,3.1l-30.77,23.99,26.2-15.12c1.51-.88,3.44-.37,4.33,1.14.83,1.42.43,3.25-.92,4.19l-5.69,4,1.69-.97c1.51-.88,3.44-.37,4.32,1.14.82,1.4.44,3.2-.88,4.16l-16.08,11.73,11.88-6.86c1.51-.87,3.45-.35,4.32,1.16.8,1.39.44,3.15-.84,4.11l-20.96,15.72,16.61-9.59c1.52-.87,3.45-.34,4.32,1.17.79,1.38.43,3.13-.83,4.09l-21.07,15.89,16.73-9.66c1.51-.88,3.45-.37,4.32,1.14.79,1.36.46,3.09-.77,4.07l-27.11,21.56,22.53-13.01c1.51-.88,3.44-.38,4.33,1.12.79,1.34.48,3.06-.72,4.05l-25.01,20.81,20.35-11.75c1.52-.86,3.45-.33,4.31,1.19.79,1.38.42,3.13-.85,4.09l-3.28,2.43c1.69-.44,3.42.57,3.86,2.26.3,1.16-.07,2.39-.98,3.18l-10.22,9,5.32-3.07c1.47-.94,3.43-.5,4.36.97.94,1.47.5,3.43-.97,4.36-.07.05-.15.09-.23.13l-32.82,18.97c-.48.27-1.03.41-1.58.4Z"/>
      <path class="cls-17" d="m180.19,559.38c-1.75,0-3.16-1.41-3.16-3.16,0-.88.36-1.72,1.01-2.32l16.56-15.39-25.37,14.65c-1.52.86-3.45.34-4.31-1.18-.75-1.32-.46-2.98.69-3.97l22.87-19.41-26.07,15.06c-1.52.86-3.45.32-4.31-1.2-.79-1.4-.41-3.16.89-4.11l3.58-2.57-1.9,1.08c-1.52.86-3.45.32-4.31-1.2-.79-1.4-.41-3.16.89-4.11l5.97-4.28-3.16,1.83c-1.49.91-3.44.44-4.35-1.05-.91-1.49-.44-3.44,1.05-4.35l85.67-55.44-83.31,48.1c-1.54.83-3.45.26-4.29-1.27-.78-1.43-.34-3.22,1.01-4.13l67.36-42.83-64.88,37.46c-1.54.83-3.45.26-4.29-1.27-.78-1.43-.34-3.22,1.01-4.13l74.05-47.27-71.61,41.34c-1.49.91-3.44.43-4.35-1.06s-.43-3.44,1.06-4.35l71.95-45.79-69.48,40.12c-1.52.85-3.45.31-4.3-1.22-.81-1.45-.36-3.27,1.02-4.18l73.78-46.93-71.33,41.18c-1.53.83-3.45.26-4.29-1.27-.77-1.42-.34-3.2.99-4.12l89.86-57.93-87.51,50.54c-1.49.9-3.44.42-4.34-1.07s-.42-3.44,1.07-4.34l70.53-44.67-68.07,39.3c-1.51.88-3.44.38-4.33-1.13-.86-1.47-.4-3.36,1.04-4.27l92.89-59.8-90.56,52.29c-1.52.87-3.45.34-4.31-1.18-.84-1.46-.38-3.32,1.04-4.23l84.67-54.01-82.28,47.49c-1.52.86-3.45.33-4.31-1.18-.83-1.45-.38-3.3,1.02-4.21l98.65-63.71-96.37,55.65c-1.52.85-3.45.31-4.3-1.22-.8-1.44-.37-3.25,1-4.17l102.23-66.34-99.96,57.71c-1.53.84-3.45.28-4.29-1.25-.79-1.43-.35-3.23,1.01-4.15l91.01-58.52-88.67,51.18c-1.49.91-3.44.44-4.35-1.05-.91-1.49-.44-3.44,1.05-4.35l92.17-59.5-89.84,51.86c-1.53.84-3.45.29-4.3-1.24-.8-1.45-.34-3.27,1.04-4.18l36.6-22.8-33.99,19.6c-1.51.87-3.45.35-4.32-1.16-.85-1.47-.38-3.36,1.06-4.26l36.24-22.61-33.62,19.4c-1.54.83-3.45.26-4.29-1.27-.78-1.45-.33-3.25,1.05-4.15l3.23-1.99-.52.3c-1.54.82-3.46.24-4.28-1.3-.77-1.44-.32-3.22,1.03-4.12l16.23-10.07-13.55,7.82c-1.52.86-3.45.33-4.31-1.19-.82-1.44-.38-3.28,1-4.2l84.97-55.7-82.65,47.71c-1.49.86-3.39.37-4.28-1.09-.89-1.47-.44-3.39,1.01-4.31l41.74-26.44-39.15,22.62c-1.54.83-3.45.26-4.29-1.27-.78-1.43-.34-3.22,1.01-4.13l37.36-23.69-34.73,20.05c-1.52.87-3.45.34-4.31-1.18-.84-1.46-.38-3.32,1.04-4.23l32.69-20.77-29.6,17.07c-1.54.83-3.45.26-4.29-1.27-.78-1.43-.34-3.22,1.01-4.13l22.46-14.24-18.69,10.78c-1.52.85-3.45.31-4.3-1.22-.8-1.43-.37-3.24.98-4.16l50.91-33.65-45.49,26.24c-1.54.82-3.46.23-4.27-1.31-.75-1.41-.32-3.16.99-4.07l16.89-10.88-10.75,6.18c-1.52.86-3.45.31-4.31-1.21-.79-1.4-.4-3.17.9-4.11l46.57-32.85-35.34,20.4c-1.5.89-3.44.4-4.33-1.1-.87-1.46-.43-3.34.99-4.27l8.79-5.86c-1.73-.21-2.97-1.78-2.77-3.51.1-.87.56-1.66,1.27-2.18l18.11-13.6c-.46-.28-.85-.67-1.12-1.14-.87-1.51-.35-3.44,1.16-4.31l31.56-18.23c1.52-.85,3.45-.31,4.3,1.21.77,1.37.42,3.09-.83,4.05l-7.42,5.57,28.99-16.7c1.52-.86,3.45-.33,4.31,1.19.82,1.44.39,3.26-.98,4.18l-.45.27,10.95-6.32c1.52-.86,3.45-.31,4.31,1.21.79,1.4.4,3.17-.9,4.11l-46.59,32.88,62.61-36.12c1.54-.82,3.46-.23,4.27,1.31.75,1.41.32,3.16-.99,4.07l-16.91,10.87,23.79-13.72c1.51-.88,3.45-.36,4.32,1.15.84,1.45.4,3.3-1,4.23l-50.89,33.64,59.73-34.48c1.54-.83,3.45-.26,4.29,1.27.78,1.43.34,3.22-1.01,4.13l-22.4,14.22,27.1-15.65c1.54-.83,3.45-.26,4.29,1.27.78,1.43.34,3.22-1.01,4.13l-32.73,20.8,37.31-21.5c1.52-.87,3.45-.34,4.31,1.18.84,1.46.38,3.32-1.04,4.23l-37.41,23.7,41.36-23.88c1.49-.9,3.44-.42,4.34,1.07s.42,3.44-1.07,4.34l-41.74,26.42,45.13-26.05c1.5-.9,3.44-.41,4.34,1.09.88,1.47.43,3.37-1.02,4.29l-84.99,55.75,90.31-52.14c1.5-.9,3.44-.41,4.34,1.09s.41,3.44-1.09,4.34l-16.16,10.02,17.28-9.97c1.5-.9,3.44-.41,4.34,1.09.9,1.5.41,3.44-1.09,4.34h0l-3.2,1.97,3.66-2.11c1.53-.84,3.45-.29,4.3,1.24.8,1.45.34,3.27-1.04,4.18l-36.21,22.6,36.97-21.34c1.53-.84,3.45-.29,4.3,1.24.8,1.45.34,3.27-1.04,4.18l-36.68,22.85,36.94-21.32c1.52-.85,3.45-.31,4.3,1.22.8,1.44.37,3.25-1,4.17l-92.13,59.53,93.25-53.84c1.52-.86,3.45-.33,4.31,1.18.83,1.45.38,3.3-1.02,4.21l-90.98,58.46,90.81-52.43c1.49-.91,3.44-.44,4.35,1.05.91,1.49.44,3.44-1.05,4.35h0l-102.27,66.33,100.91-58.26c1.49-.91,3.44-.44,4.35,1.05s.44,3.44-1.05,4.35l-98.65,63.71,95.63-55.19c1.49-.91,3.44-.43,4.34,1.06s.43,3.44-1.06,4.34h0l-84.67,54.01,80.45-46.45c1.51-.88,3.44-.38,4.33,1.13.86,1.47.4,3.36-1.04,4.27l-92.89,59.8,88.54-51.13c1.53-.84,3.45-.28,4.29,1.25.79,1.44.35,3.25-1.02,4.16l-70.55,44.69,66.4-38.35c1.52-.86,3.45-.33,4.31,1.18.83,1.45.38,3.3-1.02,4.21l-89.85,57.89,85.54-49.39c1.52-.87,3.45-.34,4.31,1.18.84,1.46.38,3.32-1.04,4.23l-73.73,46.92,69.56-40.15c1.49-.91,3.44-.43,4.34,1.06s.43,3.44-1.06,4.34l-72.01,45.81,67.81-39.15c1.52-.87,3.45-.34,4.31,1.18.84,1.46.38,3.32-1.04,4.23l-74.05,47.26,69.87-40.33c1.49-.91,3.44-.43,4.34,1.06s.43,3.44-1.06,4.34l-67.29,42.79,63.13-36.43c1.53-.83,3.45-.26,4.29,1.27.77,1.42.34,3.2-.99,4.12l-130.68,84.55c.06.08.12.16.16.25.91,1.42.55,3.29-.82,4.28l-6,4.3,2.53-1.44c1.52-.86,3.45-.32,4.31,1.2.79,1.4.41,3.16-.89,4.11l-3.56,2.53.14-.08c1.52-.85,3.45-.31,4.3,1.21.73,1.31.45,2.94-.68,3.93l-22.89,19.43,19.24-11.11c1.5-.89,3.44-.39,4.33,1.12.76,1.29.51,2.93-.59,3.94l-16.58,15.39,12.56-7.24c1.52-.87,3.45-.34,4.31,1.18.69,1.22.5,2.75-.47,3.76l-6.99,7.19c1.69.44,2.7,2.17,2.26,3.86-.21.82-.75,1.52-1.48,1.94l-15.03,8.67c-1.51.87-3.45.35-4.32-1.16-.71-1.22-.52-2.77.47-3.78l4.67-4.79-17.03,9.83c-.48.28-1.03.42-1.58.42Z"/>
      <path class="cls-2" d="m242.22,439.54c-1.75.02-3.18-1.37-3.21-3.12-.01-1.03.47-2,1.31-2.6l22.25-16.22-37.26,21.5c-1.52.86-3.45.32-4.31-1.2-.79-1.4-.41-3.16.89-4.11l32.42-23.24-44.03,25.42c-1.52.86-3.45.33-4.31-1.19-.77-1.36-.44-3.07.79-4.04l34.48-26.76-42.25,24.39c-1.52.86-3.45.32-4.31-1.21-.74-1.31-.45-2.97.7-3.95l26.94-22.62-30.69,17.71c-1.52.86-3.45.33-4.31-1.19-.75-1.33-.45-3,.72-3.98l14.6-12.06-14.21,8.22c-1.51.88-3.45.37-4.32-1.14-.78-1.35-.47-3.06.74-4.04l4.43-3.62-1.68.96c-1.5.89-3.44.39-4.33-1.12-.76-1.29-.51-2.93.59-3.94l3.35-3.11c-1.62.66-3.46-.12-4.12-1.74-.38-.94-.29-2,.24-2.86l4.1-6.6c-1.22.08-2.39-.52-3.02-1.57-.87-1.51-.35-3.45,1.16-4.32l9.3-5.37c1.26-.72,2.84-.5,3.85.54,1.01,1.04,1.18,2.64.42,3.87l-3.79,6.08,12.7-7.35c1.51-.88,3.45-.36,4.32,1.15.74,1.28.5,2.91-.59,3.91l-3.25,3.03,11.02-6.32c1.52-.86,3.45-.33,4.31,1.18.76,1.33.45,3.02-.73,4l-4.43,3.62,13.49-7.78c1.52-.86,3.45-.33,4.31,1.19.75,1.33.45,3-.72,3.98l-14.55,12.05,29.2-16.86c1.52-.86,3.45-.32,4.31,1.21.74,1.31.45,2.97-.7,3.95l-26.95,22.63,51.05-29.5c1.53-.85,3.45-.3,4.3,1.22.75,1.35.42,3.04-.79,4.01l-34.47,26.77,59.57-34.4c1.52-.86,3.45-.32,4.31,1.2.79,1.4.41,3.16-.89,4.11l-32.44,23.26,32.77-18.92c1.51-.88,3.44-.37,4.32,1.14.82,1.4.44,3.2-.88,4.16l-22.2,16.2,18.75-10.83c1.52-.86,3.45-.32,4.31,1.2.79,1.4.41,3.16-.89,4.11l-3.79,2.73c1.52-.85,3.45-.31,4.3,1.21.78,1.39.4,3.14-.88,4.09l-4.12,3.09c1.74.08,3.09,1.57,3,3.31-.04.87-.44,1.69-1.11,2.25l-7.82,6.74c.38.26.7.6.92,1.01.87,1.51.35,3.45-1.16,4.32l-18.55,10.75c-1.51.87-3.45.35-4.32-1.16-.76-1.31-.47-2.98.68-3.97l.32-.27-11.22,6.4c-1.51.87-3.45.35-4.32-1.16-.8-1.39-.44-3.15.84-4.11l.82-.63-10.18,5.87c-1.52.86-3.45.32-4.31-1.2-.79-1.4-.41-3.16.89-4.11l3.79-2.71-13.91,8.01c-.47.3-1.01.46-1.57.47Z"/>
      <path class="cls-9" d="m244.56,357.15c-1.75,0-3.16-1.42-3.16-3.16,0-1,.47-1.93,1.26-2.53l19.31-14.17-29.37,16.95c-1.54.83-3.45.26-4.29-1.27-.75-1.39-.37-3.12.9-4.05l19.14-13.31-25.6,14.78c-1.51.88-3.45.36-4.32-1.15-.82-1.41-.43-3.21.89-4.16l39.06-28.1-46.3,26.73c-1.53.85-3.45.3-4.3-1.23-.78-1.41-.38-3.18.94-4.12l29.51-20.14-33.18,19.15c-1.53.85-3.45.29-4.3-1.23-.78-1.42-.37-3.19.95-4.12l26.31-17.71-28.46,16.44c-1.49.91-3.44.45-4.35-1.04-.91-1.49-.45-3.44,1.04-4.35l3.38-2.19-3.6,2.07c-1.53.84-3.45.27-4.29-1.26-.76-1.39-.37-3.14.91-4.07l38.54-26.56-39.49,22.77c-1.5.89-3.44.4-4.33-1.1-.87-1.46-.43-3.34.99-4.27l21.67-14.47-20.75,11.98c-1.5.9-3.44.41-4.34-1.09-.88-1.47-.43-3.37,1.02-4.29l9.05-5.96-6.96,4.02c-1.51.88-3.45.36-4.32-1.15-.84-1.45-.4-3.3,1-4.23l7.01-4.63-4.11,2.37c-1.52.86-3.45.33-4.31-1.19-.79-1.38-.42-3.13.85-4.09l36.61-27.19-31.44,18.17c-1.51.87-3.45.36-4.32-1.16-.79-1.38-.45-3.13.82-4.09l24.21-18.54-14.81,8.55c-1.52.87-3.45.34-4.31-1.18-.76-1.34-.45-3.03.73-4.01l13.25-10.85c-1.58-.74-2.26-2.62-1.52-4.21.28-.59.72-1.07,1.29-1.4l24.2-13.97c1.52-.85,3.45-.31,4.3,1.21.74,1.32.44,2.99-.72,3.96l-6.77,5.55,23.35-13.5c1.5-.89,3.44-.4,4.34,1.1.83,1.39.47,3.19-.83,4.16l-24.21,18.54,36.86-21.28c1.52-.86,3.45-.33,4.31,1.19.79,1.38.42,3.13-.85,4.09l-36.62,27.19,46.45-26.81c1.53-.84,3.45-.29,4.3,1.24.78,1.42.37,3.21-.97,4.13l-6.96,4.62,10.12-5.83c1.52-.85,3.45-.31,4.3,1.22.8,1.43.37,3.24-.98,4.16l-9.04,5.96,11.38-6.56c1.52-.85,3.45-.31,4.3,1.21.8,1.43.38,3.22-.97,4.15l-21.7,14.49,23.99-13.84c1.58-.74,3.46-.06,4.21,1.52.61,1.31.26,2.86-.85,3.78l-38.58,26.56,40.9-23.61c1.49-.91,3.44-.45,4.35,1.04.91,1.49.45,3.44-1.04,4.35l-3.36,2.18,3.05-1.76c1.51-.88,3.45-.36,4.32,1.15.84,1.44.41,3.28-.98,4.21l-26.36,17.71,25.98-14.99c1.52-.87,3.45-.34,4.31,1.18.81,1.42.4,3.23-.94,4.17l-29.47,20.19,28.09-16.22c1.51-.88,3.45-.36,4.32,1.15.82,1.41.43,3.21-.89,4.16l-39.06,28.07,36.05-20.82c1.51-.87,3.45-.35,4.32,1.17.81,1.42.41,3.22-.93,4.16l-19.12,13.28,14.19-8.19c1.51-.87,3.45-.36,4.32,1.16.81,1.4.43,3.18-.87,4.13l-19.33,14.18,11.22-6.47c1.51-.87,3.45-.36,4.32,1.16.79,1.38.45,3.13-.82,4.09l-10.28,7.89c1.73.26,2.92,1.87,2.65,3.6-.14.95-.71,1.78-1.54,2.26l-36.12,20.87c-1.51.87-3.45.36-4.32-1.16-.79-1.38-.45-3.13.82-4.09l6.06-4.64-18.76,10.83c-.48.27-1.03.41-1.58.4Z"/>
      <path class="cls-9" d="m218.87,407.92c-1.75,0-3.16-1.42-3.16-3.17,0-.73.25-1.43.71-2l6.51-8.01-10.06,5.81c-1.49.91-3.44.44-4.35-1.05-.79-1.29-.56-2.95.55-3.97l1.98-1.9c-1.74-.11-3.06-1.62-2.95-3.36,0-.13.02-.25.05-.38l1.56-8.29c-.5-.28-.9-.68-1.18-1.18-.87-1.51-.36-3.44,1.15-4.32l2.45-1.41c1.51-.87,3.45-.35,4.32,1.16.37.65.5,1.41.37,2.15l-1.18,6.29,13.46-7.77c1.52-.86,3.45-.34,4.31,1.18.72,1.26.49,2.84-.55,3.84l-.37.35,2.11-1.21c1.52-.86,3.45-.34,4.31,1.18.64,1.13.53,2.54-.28,3.55l-6.51,8.01,2.48-1.43c1.55-.81,3.46-.21,4.27,1.34.76,1.46.28,3.25-1.11,4.13l-17.3,9.99c-.48.29-1.02.44-1.58.44Z"/>
      <path class="cls-9" d="m279.11,407.92c-1.75,0-3.16-1.42-3.16-3.16,0-.47.11-.94.31-1.37l3.26-6.81-14.77,8.52c-1.53.83-3.45.27-4.29-1.27-.66-1.21-.46-2.7.49-3.7l6.79-6.82-4.27,2.47c-1.51.87-3.45.35-4.32-1.16-.41-.71-.53-1.56-.32-2.36l2.01-7.87c-.71-.25-1.31-.75-1.68-1.4-.87-1.51-.36-3.44,1.15-4.31l3.49-2.02c1.51-.87,3.45-.35,4.32,1.16.41.71.53,1.56.32,2.36l-1.63,6.37,18.41-10.63c1.53-.83,3.45-.27,4.29,1.27.66,1.21.46,2.7-.49,3.7l-6.8,6.83,2.98-1.73c1.52-.87,3.45-.34,4.31,1.18.51.9.55,1.99.11,2.92l-3.48,7.29c1.23-.12,2.42.5,3.04,1.57.87,1.51.35,3.44-1.16,4.31l-7.34,4.24c-.48.28-1.02.44-1.58.44Z"/>
      <path class="cls-10" d="m245.7,325.52c-1.75,0-3.16-1.42-3.16-3.16,0-.9.38-1.76,1.06-2.36l11.93-10.66-20.43,11.79c-1.51.87-3.45.36-4.32-1.15-.75-1.3-.49-2.95.64-3.95l20.34-18.09-26.04,15.03c-1.51.88-3.45.37-4.32-1.14-.79-1.36-.46-3.09.77-4.07l13.28-10.57-14.05,8.11c-1.52.86-3.45.32-4.31-1.2-.75-1.33-.44-3.01.74-3.99l12.93-10.47-11.38,6.59c-1.51.87-3.45.36-4.32-1.15-.75-1.3-.49-2.95.64-3.95l12.65-10.88-7.75,4.47c-1.53.85-3.45.3-4.3-1.22-.7-1.26-.46-2.84.59-3.84l7.28-6.65c-1.54-.83-2.11-2.75-1.28-4.29.28-.52.69-.94,1.2-1.24l16.97-9.8c1.53-.85,3.45-.3,4.3,1.22.7,1.26.46,2.84-.59,3.84l-2.13,1.95,11.93-6.88c1.52-.86,3.45-.32,4.31,1.19.74,1.3.46,2.95-.67,3.93l-12.65,10.87,16.92-9.76c1.52-.86,3.45-.32,4.31,1.2.75,1.33.44,3.01-.74,3.99l-12.95,10.49,15.89-9.17c1.51-.88,3.45-.37,4.32,1.14.79,1.36.46,3.09-.77,4.07l-13.28,10.55,16.14-9.31c1.52-.86,3.45-.33,4.31,1.18.73,1.29.47,2.92-.63,3.91l-20.35,18.11,20.15-11.63c1.54-.82,3.46-.23,4.27,1.31.66,1.24.42,2.77-.59,3.75l-11.93,10.66,5.51-3.16c1.47-.94,3.43-.5,4.36.97s.5,3.43-.97,4.36c-.08.05-.15.09-.23.13l-32.04,18.5c-.47.27-1.01.41-1.55.41Z"/>
      <path class="cls-9" d="m257.14,292.01c-1.75,0-3.16-1.42-3.16-3.16,0-.68.22-1.35.63-1.9l9.14-11.94-12.37,7.14c-1.51.87-3.45.35-4.32-1.16-.62-1.07-.56-2.4.16-3.41l5.65-7.97c-1.67.52-3.44-.4-3.97-2.07-.44-1.41.15-2.95,1.44-3.69l11.76-6.79c1.51-.88,3.44-.37,4.32,1.14.63,1.07.56,2.41-.16,3.43l-5.54,7.82,13.62-7.87c1.52-.86,3.45-.33,4.31,1.19.62,1.1.53,2.46-.23,3.47l-9.14,11.94,9.59-5.53c1.55-.81,3.46-.21,4.27,1.34.76,1.46.28,3.25-1.11,4.13l-23.33,13.47c-.47.28-1.01.43-1.56.43Z"/>
      <path class="cls-3" d="m282.76,548.63c19.82,25.8,56.11,7.75,60.51-18.97,8.94-76.01,10.55-153.57,16.85-229.9,18.43-12.04,32.94-29.2,41.74-49.38,6.48-13.36,31.3-72.89-3.12-61.07-18.69,17.96-41.81,30.63-67,36.74-42.97-46.77-123.65-52.72-167.5-.42-24.22-6.21-46.39-18.66-64.29-36.11-42.93-14.05-.93,74.27,10.94,85.8.11.6.51,1.11,1.07,1.35,7.41,9.16,16.28,17.04,26.25,23.32,2.95,62.37,9.4,124.58,13.39,186.91,1.43,19.23-2.73,55.46,16.02,68.05,13.11,7.49,29.3,7.02,41.95-1.22,17.25-12.96,8.64-32.85,11.59-50.63.67-30.36,49.38-37.04,55.78-4.56,4.26,16.53-5.67,35.12,5.83,50.1Zm96.82-334.27c54.03-48.52,22.55,27.94,7.39,49.13-.84-16.13-5.12-31.89-12.53-46.24,1.72-.97,3.48-1.83,5.15-2.89Zm-10.85,6.08c8.28,15.56,12.64,32.9,12.71,50.53-6.19,7.74-13.48,14.53-21.63,20.15-1.61-21.42-9.52-41.88-22.73-58.81,10.89-3,21.48-6.97,31.65-11.86Zm-279.69-17.32c4.62-16.23,25.73,12.15,34.92,14.39-7.38,14.12-11.73,29.63-12.77,45.53-8.92-15.51-24.39-41.62-22.15-59.93Zm27.64,67.55c-.08-17.59,4.17-34.93,12.36-50.5,9.82,4.71,20.02,8.56,30.5,11.5-12.76,17.31-20.09,38.01-21.07,59.49-8.24-5.72-15.58-12.62-21.79-20.5Zm154.46,202.68c-14.99-6.8-48.32-4.7-55.77,12.22-5.54,12.6.96,28.33-1.68,41.31-7.9,38.93-43.98,27.86-51.64-.23-7.1-26.03-4.43-59.15-6.39-86.01-2.56-34.51-5.12-69.02-7.69-103.53-2.9-39.04-5.12-75.97,22.6-108.6,63.29-74.49,178.55-22.39,182.25,68.6-2.21,57.88-8.28,115.82-12.59,173.61-1.41,18.97,1.16,44.5-4.66,62.76-11.23,35.22-45.01,19.57-51.17-7.05-3.27-17.83,7.65-42.96-13.26-53.08h0Z"/>
      <path class="cls-3" d="m245.57,357.91c89.17,2.05,91.9-130.46,3.5-133.77-85.24,2.35-87.88,126.51-3.5,133.77Zm63.82-67.24c-4.1,76.08-120.64,78.51-120.7.91-.06-76.68,116.55-78.01,120.7-.91Z"/>
      <path class="cls-3" d="m266.26,321.84c14.59-7.9,18.3-24.58,15.87-39.6,6.39-14.66-9.18-31.81-24.22-25.14-65.12-9.95-50.44,91.63,8.35,64.75Zm11.19-48.75c1.14,6.63-3.32,12.93-9.96,14.07-.72.12-1.45.18-2.18.17-6.61.58-12.44-4.31-13.02-10.92-.44-4.95,2.23-9.67,6.7-11.85.38-.06.75-.21,1.06-.44,6.82-2.57,14.43.88,17,7.69.16.42.29.84.41,1.27Zm-49.9-.12c5.57-6.42,13.87-9.8,22.34-9.07-11.58,16.91,9.04,42,27.19,25.78,3.48,24.71-30.62,38.53-47.54,21.75-11.17-10.04-12.1-27.23-2.06-38.4.02-.02.04-.04.05-.06h.01Z"/>
      <path class="cls-3" d="m315.82,383.81c.17-.46.18-.97.03-1.44.01-.49-.17-.97-.51-1.32-5.42-14.33-15.58-9.62-28.94-7.12-29.36,5.48-56.35-.94-85.03-2.91-28.31-1.94-22.06,39.53-9.71,54.19,17.44,20.72,56.57,15.96,80.65,14.44,33.72-2.14,43.22-26.32,43.52-55.84Zm-32.57-4.15c-1.45,6.96,4.77,24.66-6.77,22.4-15.91,3.16-9.99-9.71-11.05-19.86,5.99-.42,11.95-1.26,17.82-2.54Zm-50.27,2.66v13.63c0,2.97.54,4.69-3.16,5.44-3.01.28-6.04.28-9.04,0-11.43,1.19-5.48-14.7-6.82-21.62,6.24,1.48,12.6,2.34,19.01,2.55h.02Zm28.77,51.16c-24.97,0-58.55,5.74-69.56-23.35-6.53-15.03-3.89-34.73,15.81-31.27,1.13,8.99-3.28,20.77,3.51,27.91,3.28,1.69,7.02,2.29,10.66,1.71,19.05,2.95,18.01-11.84,17.42-25.87,6.12.19,12.25.2,18.34,0-.27,16.44-2.86,27.11,18.11,25.23,18.91,1.47,14.34-16.3,14.7-29.09,8.31-.66,16.11.18,17.99,5.85,1.37,32.46-11.97,53.24-47.03,48.89h.06Z"/>
    </g>
  </g>
  <g id="Capa_3" data-name="Capa 3">
    <g id="Capa_1-2" data-name="Capa 1">
      <g>
        <g>
          <g>
            <path class="cls-5" d="m304.27,15.77s-1.83,1.17-4.61,3.6c-2.79,2.43-6.49,6.19-10.19,11.56-3.7,5.32-7.35,12.12-10.19,20.48-2.84,8.31-4.77,18.15-5.48,29.56-.66,11.41,0,23.83,1.01,36,1.01,12.17,2.33,24.08,3.45,34.53,1.12,10.39,1.98,19.52,2.53,26.01.56,6.44.86,10.29.86,10.29,0,0,1.32-3.65,3.5-9.73,2.23-6.13,5.42-14.6,9.18-24.44,3.75-9.84,8.11-21.04,12.27-32.5,4.11-11.51,7.96-23.17,10.29-34.43,2.28-11.2,2.99-21.34,2.38-30.07-.56-8.77-2.38-16.27-4.56-22.36-2.18-6.13-4.82-10.8-6.9-13.84-2.08-3.09-3.55-4.66-3.55-4.66Z"/>
            <path class="cls-4" d="m318.92,73.67c-6.49,5.68-12.12,10.8-16.38,14.7-4.31,3.95-7.35,7-8.87,8.37-1.06-1.77-3.35-5.37-6.39-10.39-3.14-4.87-7.2-11.15-12.02-18.4-.15,1.17-.35,2.33-.51,3.5,5.42,8.21,9.84,14.96,12.88,19.77,3.04,4.87,4.82,7.76,4.82,7.81l.71,1.17,1.01-.96s2.54-2.38,6.69-6.29c4.21-3.8,10.24-9.33,17.59-15.77.15-1.22.3-2.38.41-3.55l.05.05Z"/>
            <path class="cls-13" d="m279.93,201.03s1.01-3.09,2.59-9.43c1.57-6.34,3.7-15.92,5.73-29,1.98-13.08,3.4-28.24,4.06-40.21.66-11.97.71-20.69.71-20.69,0,0-2.23,8.42-4.66,20.18-2.48,11.71-5.07,26.77-6.49,39.9s-1.83,22.97-1.98,29.46c-.1,6.54.05,9.73.05,9.73v.05Z"/>
            <path class="cls-8" d="m276.33,62.11c5.37,8.31,9.89,15.16,13.08,20.23,3.19,5.02,5.07,8.01,5.07,8.01,0,0,2.59-2.38,7-6.44,4.46-4.01,10.7-9.63,17.9-16.12.86-16.58-2.69-29.61-6.69-38.58-1.98-4.51-4.11-7.76-5.68-10.04-1.57-2.23-2.69-3.4-2.69-3.4,0,0-1.32.81-3.45,2.59-2.13,1.77-5.02,4.41-8.06,8.16-6.19,7.61-12.93,19.37-16.43,35.59h-.05Z"/>
            <path class="cls-12" d="m316.89,86.65c2.28-11.2,2.99-21.34,2.38-30.07-.56-8.77-2.38-16.27-4.56-22.36-2.18-6.13-4.82-10.8-6.9-13.84-2.08-3.09-3.55-4.66-3.55-4.66l-22.61,171.97s1.32-3.65,3.5-9.73c2.23-6.13,5.42-14.6,9.18-24.44,3.75-9.84,8.11-21.04,12.27-32.5,4.11-11.51,7.96-23.17,10.29-34.43v.05Z"/>
          </g>
          <g>
            <path class="cls-6" d="m365.92,46.8s-2.03.66-5.32,2.28c-3.3,1.67-7.76,4.31-12.62,8.42-4.87,4.16-10.09,9.73-14.86,16.98-4.77,7.25-9.13,16.12-12.57,26.82-3.5,10.7-5.93,22.66-8.01,34.53-2.08,11.81-3.8,23.47-5.37,33.72-1.57,10.24-3.04,19.16-4.11,25.45-1.06,6.24-1.72,9.99-1.72,9.99,0,0,2.18-3.14,5.78-8.42,3.6-5.17,8.77-12.47,14.86-20.94,6.03-8.42,13.03-18.1,19.82-27.89,6.74-9.84,13.38-20.08,18.4-30.17,5.02-10.09,8.16-19.52,9.84-28.04,1.67-8.57,1.83-16.07,1.27-22.41-.61-6.34-1.88-11.46-3.09-14.96-1.22-3.45-2.23-5.32-2.23-5.32l-.05-.05Z"/>
            <path class="cls-9" d="m365.31,105.71c-3.8,1.83-7.3,3.6-10.6,5.32-3.19,1.67-6.13,3.19-8.72,4.56-5.07,2.64-8.72,4.72-10.49,5.68-.61-1.93-1.83-5.93-3.5-11.46-1.72-5.58-4.11-12.42-6.84-20.53-.46,1.06-.91,2.13-1.37,3.19,1.52,4.51,2.94,8.67,4.21,12.42.61,1.83,1.17,3.55,1.72,5.17.51,1.62.96,3.14,1.42,4.51,1.67,5.37,2.64,8.57,2.69,8.62l.41,1.27,1.22-.66s.76-.41,2.13-1.17,3.3-1.77,5.78-3.09c2.54-1.32,5.53-2.89,8.97-4.72,1.77-.91,3.6-1.88,5.58-2.89,1.98-.96,4.01-1.98,6.13-2.99.46-1.12.86-2.18,1.27-3.24Z"/>
            <path class="cls-13" d="m296.31,217.15s1.72-2.69,4.82-8.37c3.09-5.68,7.5-14.25,12.67-26.16s10.34-26.11,13.94-37.32c3.65-11.2,5.83-19.47,5.83-19.47,0,0-4.26,7.45-9.48,18.05-5.27,10.55-11.51,24.23-16.17,36.4-4.66,12.17-7.5,21.4-9.23,27.58-1.72,6.19-2.38,9.28-2.38,9.28Z"/>
            <path class="cls-1" d="m327.64,83.96c3.04,9.23,5.68,16.83,7.45,22.51,1.77,5.53,2.84,8.82,2.84,8.82,0,0,.76-.41,2.18-1.17s3.5-1.88,6.03-3.19c2.59-1.37,5.73-2.99,9.23-4.82,3.55-1.88,7.55-3.95,11.81-6.08,5.02-15.72,4.92-28.95,3.3-38.43-1.57-9.53-4.61-14.91-4.61-14.91,0,0-5.98,1.83-13.69,7.4-7.76,5.58-17.24,15.21-24.59,29.76l.05.1Z"/>
            <path class="cls-12" d="m360.14,117.52c5.02-10.09,8.16-19.52,9.84-28.04,1.67-8.57,1.83-16.07,1.27-22.41-.61-6.34-1.88-11.46-3.09-14.96-1.22-3.45-2.23-5.32-2.23-5.32l-64.59,158.13s2.18-3.14,5.78-8.42c3.6-5.17,8.77-12.47,14.86-20.94,6.03-8.42,13.03-18.1,19.82-27.89,6.74-9.84,13.38-20.08,18.4-30.17h-.05Z"/>
          </g>
          <g>
            <path class="cls-5" d="m417.28,90.2s-1.98.1-5.27.81-7.96,2.03-13.23,4.51c-5.22,2.43-11.26,6.24-17.19,11.51-5.98,5.27-11.91,12.17-17.59,20.84-5.63,8.67-10.65,18.71-15.31,28.7-4.66,10.04-8.87,19.82-12.78,28.65-7.71,17.54-13.54,30.01-13.54,30.01,0,0,2.64-2.23,7.1-5.98,4.46-3.75,10.8-9.02,18.2-15.11,7.4-6.13,15.77-12.83,24.13-20.03,8.37-7.15,16.68-14.7,23.47-22.46,6.84-7.76,11.86-15.36,15.36-22.56,3.5-7.15,5.53-13.94,6.49-19.62.96-5.73,1.01-10.55.81-13.94-.2-3.4-.66-5.32-.66-5.32Z"/>
            <path class="cls-4" d="m402.67,142.31c-3.8.76-7.35,1.52-10.6,2.18-3.24.76-6.24,1.42-8.82,2.03-5.12,1.22-8.82,2.08-10.65,2.48-.1-1.88-.25-5.68-.46-10.9-.1-2.64-.2-5.73-.46-9.02-.25-3.35-.51-6.95-.76-10.85-.66.81-1.32,1.67-1.98,2.54.3,4.36.61,8.37.86,11.97.15,3.6.3,6.74.46,9.38.2,5.12.35,8.16.35,8.21v1.22l1.27-.25c.05,0,2.99-.71,8.01-1.88,2.53-.61,5.63-1.32,9.13-2.08,3.5-.71,7.45-1.52,11.71-2.43.66-.86,1.27-1.72,1.93-2.59Z"/>
            <path class="cls-13" d="m315.07,224.85s2.18-1.93,6.24-6.19c4.06-4.26,10.04-10.8,17.49-20.18,7.4-9.38,15.36-20.69,21.24-29.81,5.93-9.13,9.84-15.97,9.84-15.97,0,0-5.53,5.63-12.73,13.79-7.2,8.11-15.97,18.81-23.02,28.49-7,9.68-11.71,17.19-14.75,22.26-2.99,5.07-4.31,7.66-4.31,7.66v-.05Z"/>
            <path class="cls-8" d="m374.44,114.13c.25,4.36.56,8.47.76,12.12.2,3.65.35,6.9.46,9.63.3,5.32.46,8.47.46,8.47,0,0,3.09-.71,8.26-1.83,2.64-.61,5.83-1.32,9.38-2.13,3.6-.76,7.6-1.62,11.86-2.53,4.06-6.34,6.9-12.47,8.82-18.15s2.84-10.75,3.24-15.16c.41-4.36.25-7.96.05-10.44-.2-2.48-.56-3.9-.56-3.9,0,0-5.73.25-13.94,3.4-8.16,3.04-18.86,9.38-28.85,20.58l.05-.05Z"/>
            <path class="cls-12" d="m395.32,151.59c6.84-7.76,11.86-15.36,15.36-22.56,3.5-7.15,5.53-13.94,6.49-19.62.96-5.73,1.01-10.55.81-13.94-.2-3.4-.66-5.32-.66-5.32l-94.86,125.03s2.64-2.23,7.1-5.98c4.46-3.75,10.8-9.02,18.2-15.11,7.4-6.13,15.77-12.83,24.13-20.03,8.37-7.15,16.68-14.7,23.47-22.46h-.05Z"/>
          </g>
          <g>
            <path class="cls-6" d="m451.4,138.01s-1.77-.41-4.87-.56c-3.14-.1-7.6,0-12.93,1.06-5.32,1.06-11.41,2.94-18,6.34s-13.54,8.16-20.63,14.65c-7.1,6.49-13.89,14.3-20.38,22.16-6.44,7.81-12.67,15.82-18.1,22.76-5.48,6.95-10.19,12.88-13.59,17.09-3.45,4.21-5.48,6.74-5.48,6.74,0,0,2.89-1.42,7.76-3.75,4.87-2.33,11.86-5.63,19.82-9.33,7.96-3.7,17.09-7.86,26.26-12.37s18.35-9.38,26.26-14.8,14.15-11.05,18.91-16.68c4.77-5.63,8.11-11.15,10.39-16.12,2.23-4.92,3.35-9.18,3.9-12.27.56-3.04.61-4.87.61-4.87l.05-.05Z"/>
            <path class="cls-9" d="m426.3,181.3c-7.3-.3-13.44-.61-18.4-.66-4.87-.05-8.47-.15-10.19-.15.2-.86.51-2.13.86-3.8s.81-3.7,1.27-6.08c.96-4.77,2.33-11.05,3.55-18.05-.76.61-1.57,1.22-2.38,1.83-1.37,7.96-2.89,14.75-3.8,19.37-.51,2.33-.86,4.16-1.17,5.48-.3,1.27-.46,1.98-.46,2.03l-.25,1.12h1.17s2.89.1,7.66.15c1.22,0,2.53,0,4.01.05,1.42.05,2.99.1,4.61.15,3.35.15,7.1.3,11.15.46.76-.61,1.57-1.27,2.28-1.88h.1Z"/>
            <path class="cls-13" d="m328.65,235.2s2.38-1.27,7.05-4.11c4.61-2.89,11.51-7.4,20.33-14.04,8.82-6.69,18.51-15.01,25.91-21.85,7.4-6.79,12.47-12.02,12.47-12.02,0,0-6.24,3.75-14.55,9.38-8.31,5.58-18.71,13.13-27.23,20.18-8.52,7.05-14.45,12.68-18.35,16.58-3.9,3.85-5.68,5.93-5.68,5.93l.05-.05Z"/>
            <path class="cls-1" d="m407.54,149.62c-.35,1.98-.76,3.9-1.12,5.78-.35,1.88-.76,3.65-1.06,5.32-.66,3.3-1.27,6.24-1.77,8.67-.46,2.43-.86,4.31-1.17,5.68-.3,1.32-.41,2.08-.41,2.08,0,0,2.94.1,7.91.25,5.07.05,11.91.41,20.13.66,10.14-9.48,15.77-19.42,18.51-27.07,2.74-7.6,2.84-12.88,2.84-12.88,0,0-1.27-.25-3.55-.46s-5.63-.2-9.68.25c-8.11.91-18.96,3.95-30.62,11.76v-.05Z"/>
            <path class="cls-12" d="m417.58,187.94c7.91-5.42,14.15-11.05,18.91-16.68s8.11-11.15,10.39-16.12c2.23-4.92,3.35-9.18,3.9-12.27.56-3.04.61-4.87.61-4.87l-113.97,90.2s2.89-1.42,7.76-3.75c4.87-2.33,11.86-5.63,19.82-9.33,7.96-3.7,17.09-7.86,26.26-12.37s18.35-9.38,26.26-14.8h.05Z"/>
          </g>
          <g>
            <path class="cls-5" d="m476.6,187.03s-1.52-.81-4.36-1.72c-1.42-.46-3.14-.96-5.17-1.37-2.03-.41-4.41-.76-7-.96-5.22-.41-11.41-.15-18.3,1.27s-14.6,4.06-22.81,8.21c-8.21,4.16-16.48,9.63-24.59,15.26-8.06,5.63-15.77,11.41-22.61,16.43-3.4,2.48-6.59,4.82-9.43,6.9-2.89,2.08-5.42,3.9-7.55,5.48-4.21,3.04-6.74,4.82-6.74,4.82,0,0,3.04-.56,8.16-1.47,5.17-.96,12.37-2.18,20.74-3.55s17.9-2.94,27.53-4.77c9.63-1.88,19.32-4.01,28.04-7,8.67-2.99,15.97-6.69,21.8-10.65s10.29-8.21,13.64-12.22,5.58-7.71,6.84-10.34c1.32-2.69,1.83-4.31,1.83-4.31h0Z"/>
            <path class="cls-4" d="m442.32,220.65c-6.59-2.13-12.42-3.9-16.88-5.27-4.46-1.37-7.86-2.28-9.38-2.74.76-1.47,2.38-4.51,4.61-8.67,2.13-4.16,4.87-9.53,7.96-15.82-.86.35-1.77.71-2.64,1.06-3.45,7.05-6.44,12.88-8.52,16.93-2.18,4.11-3.45,6.49-3.45,6.54l-.51.96,1.06.3s2.69.76,7.1,2.08c4.36,1.37,10.65,3.24,18.1,5.68.86-.41,1.77-.76,2.64-1.17l-.1.1Z"/>
            <path class="cls-13" d="m338.08,245.64s2.53-.56,7.61-2.03c5.02-1.47,12.57-3.9,22.46-7.81,9.89-3.95,20.99-9.18,29.56-13.59s14.65-7.96,14.65-7.96c0,0-6.74,1.88-15.87,4.97-9.13,3.04-20.63,7.4-30.32,11.71-9.68,4.36-16.68,8.06-21.24,10.65s-6.74,4.06-6.74,4.06h-.1Z"/>
            <path class="cls-8" d="m433.09,186.58c-3.55,6.95-6.59,12.98-8.77,17.29-2.18,4.26-3.5,6.74-3.5,6.74,0,0,2.74.81,7.3,2.18,4.56,1.42,11,3.4,18.45,5.73,11.86-6.19,19.47-13.94,24.03-20.33,2.33-3.19,3.75-5.98,4.66-7.96.91-2.03,1.27-3.19,1.27-3.19,0,0-1.12-.56-3.19-1.32-2.08-.71-5.07-1.67-8.97-2.23-7.76-1.17-18.66-1.12-31.33,3.09h.05Z"/>
            <path class="cls-12" d="m432.49,224.6c8.67-2.99,15.97-6.69,21.8-10.65,5.83-3.95,10.29-8.21,13.64-12.22s5.58-7.71,6.84-10.34c1.32-2.69,1.83-4.31,1.83-4.31l-128.58,54.35s3.04-.56,8.16-1.47c5.17-.96,12.37-2.18,20.74-3.55s17.9-2.94,27.53-4.77c9.63-1.88,19.32-4.01,28.04-7v-.05Z"/>
          </g>
          <g>
            <path class="cls-6" d="m472.69,231.7s-1.32-.86-3.75-2.03c-2.43-1.12-6.03-2.54-10.55-3.5-4.61-.96-10.19-1.47-16.58-.96-6.39.46-13.54,1.93-21.34,4.66-7.86,2.79-15.92,6.69-23.78,10.8-7.86,4.11-15.41,8.37-22.11,12.02-13.49,7.45-23.27,12.67-23.27,12.67,0,0,2.79-.15,7.5-.35s11.31-.46,18.91-.76c7.66-.3,16.43-.56,25.2-1.06,8.82-.56,17.75-1.37,25.91-3.04,8.11-1.67,15.06-4.11,20.79-7,5.78-2.89,10.19-6.19,13.64-9.33,3.45-3.19,5.83-6.24,7.35-8.47,1.52-2.23,2.13-3.65,2.13-3.65h-.05Z"/>
            <path class="cls-9" d="m438.06,257.81c-5.58-2.69-10.6-4.92-14.5-6.64-3.85-1.72-6.64-2.94-8.06-3.55,1.67-2.43,7.2-9.94,14.04-20.38-.81.2-1.67.41-2.48.66-3.95,5.93-7.15,10.75-9.63,14.15-2.38,3.4-3.8,5.37-3.8,5.42l-.56.81.91.41s.61.25,1.67.71c1.01.46,2.53,1.12,4.41,1.98,3.75,1.72,9.28,4.11,15.51,7.15.81-.25,1.67-.51,2.48-.71Z"/>
            <path class="cls-13" d="m341.94,268.05s2.38-.2,7.05-.91c4.66-.76,11.66-2.03,20.94-4.41,9.28-2.38,19.87-5.78,28.04-8.77,8.16-2.94,13.99-5.42,13.99-5.42,0,0-6.29.91-14.8,2.59-8.52,1.67-19.37,4.21-28.54,6.95-9.18,2.74-15.87,5.27-20.23,7.05-4.41,1.77-6.49,2.84-6.49,2.84l.05.1Z"/>
            <path class="cls-1" d="m433.8,226.32c-4.01,5.88-7.35,10.85-9.84,14.4-2.43,3.55-3.85,5.63-3.85,5.63,0,0,2.33,1.06,6.24,2.84,1.98.91,4.31,1.98,7,3.19,1.37.61,2.79,1.27,4.26,1.93,1.47.71,2.99,1.42,4.61,2.13,5.68-2.08,10.49-4.66,14.45-7.3,3.95-2.69,7.05-5.48,9.43-8.06s4.11-4.92,5.17-6.59c1.01-1.67,1.47-2.69,1.47-2.69,0,0-3.75-2.59-10.44-4.56-6.69-1.98-16.58-3.14-28.39-.86l-.1-.05Z"/>
            <path class="cls-12" d="m428.84,260.19c8.11-1.67,15.06-4.11,20.79-7,5.78-2.89,10.19-6.19,13.64-9.33,3.45-3.19,5.83-6.24,7.35-8.47,1.52-2.23,2.13-3.65,2.13-3.65l-121.38,33.72s2.79-.15,7.5-.35,11.31-.46,18.91-.76c7.66-.3,16.43-.56,25.2-1.06,8.82-.56,17.75-1.37,25.91-3.04l-.05-.05Z"/>
          </g>
          <g>
            <path class="cls-5" d="m462.4,275.86s-.2-.25-.71-.71c-.46-.46-1.17-1.06-2.13-1.83-1.88-1.47-4.72-3.4-8.47-5.17-3.75-1.77-8.52-3.35-14.15-4.26s-12.17-1.12-19.52-.35c-7.35.76-15.21,2.48-22.82,4.41-7.66,1.93-15.06,4.06-21.65,5.88-6.54,1.83-12.27,3.35-16.33,4.46-4.01,1.06-6.44,1.72-6.44,1.72,0,0,9.68,1.77,23.17,4.51,6.74,1.32,14.25,2.89,22.05,4.26,7.76,1.32,15.72,2.48,23.12,2.69,7.4.2,13.89-.46,19.42-1.83,5.53-1.32,10.24-3.24,13.79-5.27,3.6-2.03,6.29-4.16,8.06-5.78s2.64-2.74,2.64-2.74h-.05Z"/>
            <path class="cls-4" d="m427.01,291.32c-2.18-1.72-4.21-3.35-6.03-4.82s-3.6-2.79-5.12-3.95c-2.99-2.28-5.17-3.9-6.24-4.72,1.01-.86,3.04-2.69,5.83-5.17,1.42-1.27,3.04-2.74,4.82-4.31,1.72-1.62,3.65-3.4,5.68-5.27h-2.28c-2.28,2.13-4.36,4.11-6.29,5.83s-3.6,3.19-4.97,4.46c-2.74,2.43-4.36,3.9-4.41,3.9l-.66.61.71.56s1.77,1.32,4.66,3.6c1.47,1.12,3.3,2.48,5.32,4.06,2.03,1.62,4.26,3.4,6.69,5.32.76,0,1.52-.1,2.28-.1Z"/>
            <path class="cls-13" d="m341.53,280.37s2.08.35,6.24.66c4.21.3,10.55.66,19.11.51,8.57-.15,18.4-.91,26.11-1.83,7.71-.86,13.28-1.77,13.28-1.77,0,0-1.42-.1-3.75-.3-2.38-.15-5.73-.35-9.63-.51-7.76-.3-17.64-.35-26.21.15-8.52.51-14.8,1.32-19.01,1.93-4.16.66-6.19,1.12-6.19,1.12l.05.05Z"/>
            <path class="cls-8" d="m429.8,263.13c-4.56,4.26-8.67,7.86-11.51,10.44-2.84,2.54-4.51,4.06-4.51,4.06,0,0,1.77,1.37,4.77,3.75,1.52,1.17,3.35,2.59,5.48,4.21,2.08,1.62,4.36,3.45,6.79,5.37,10.7-1.32,18.76-4.92,23.88-8.42,5.17-3.5,7.71-6.69,7.71-6.69,0,0-.66-.76-2.03-1.88-1.37-1.12-3.4-2.69-6.13-4.21-2.74-1.52-6.08-3.09-10.19-4.31-4.11-1.22-8.87-2.08-14.25-2.33Z"/>
            <path class="cls-12" d="m418.49,291.47c7.4.2,13.89-.46,19.42-1.83,5.53-1.32,10.24-3.24,13.79-5.27,3.6-2.03,6.29-4.16,8.06-5.78s2.64-2.74,2.64-2.74l-112.2,4.21s9.68,1.77,23.17,4.51c6.74,1.32,14.25,2.89,22.05,4.26,7.76,1.32,15.72,2.48,23.12,2.69l-.05-.05Z"/>
          </g>
          <g>
            <path class="cls-5" d="m188.87,15.77s1.83,1.17,4.61,3.6c2.79,2.43,6.49,6.19,10.19,11.56,3.7,5.32,7.35,12.12,10.19,20.48,2.84,8.31,4.77,18.15,5.48,29.56.66,11.41,0,23.83-1.01,36-1.01,12.17-2.33,24.08-3.45,34.53-1.12,10.39-1.98,19.52-2.53,26.01-.56,6.44-.86,10.29-.86,10.29,0,0-1.32-3.65-3.5-9.73-2.23-6.13-5.42-14.6-9.18-24.44-3.75-9.84-8.11-21.04-12.27-32.5-4.11-11.51-7.96-23.17-10.29-34.43-2.28-11.2-2.99-21.34-2.38-30.07.56-8.77,2.38-16.27,4.56-22.36,2.18-6.13,4.82-10.8,6.9-13.84,2.08-3.09,3.55-4.66,3.55-4.66Z"/>
            <path class="cls-4" d="m174.27,73.67c6.49,5.68,12.12,10.8,16.38,14.7,4.31,3.95,7.35,7,8.87,8.37,1.06-1.77,3.35-5.37,6.39-10.39,3.14-4.87,7.2-11.15,12.02-18.4.15,1.17.35,2.33.51,3.5-5.42,8.21-9.84,14.96-12.88,19.77-3.04,4.87-4.82,7.76-4.82,7.81l-.71,1.17-1.01-.96s-2.54-2.38-6.69-6.29c-4.21-3.8-10.24-9.33-17.59-15.77-.15-1.22-.3-2.38-.41-3.55l-.05.05Z"/>
            <path class="cls-13" d="m213.26,201.03s-1.01-3.09-2.59-9.43c-1.57-6.34-3.7-15.92-5.73-29-1.98-13.08-3.4-28.24-4.06-40.21-.66-11.97-.71-20.69-.71-20.69,0,0,2.23,8.42,4.66,20.18,2.48,11.71,5.07,26.77,6.49,39.9,1.47,13.13,1.83,22.97,1.98,29.46.1,6.54-.05,9.73-.05,9.73v.05Z"/>
            <path class="cls-8" d="m216.86,62.11c-5.37,8.31-9.89,15.16-13.08,20.23-3.19,5.02-5.07,8.01-5.07,8.01,0,0-2.59-2.38-6.95-6.44-4.46-4.01-10.7-9.63-17.9-16.12-.86-16.58,2.69-29.61,6.69-38.58,1.98-4.51,4.11-7.76,5.68-10.04,1.57-2.23,2.69-3.4,2.69-3.4,0,0,1.32.81,3.45,2.59,2.13,1.77,5.02,4.41,8.06,8.16,6.19,7.61,12.93,19.37,16.43,35.59Z"/>
            <path class="cls-12" d="m176.3,86.65c-2.28-11.2-2.99-21.34-2.38-30.07.56-8.77,2.38-16.27,4.56-22.36,2.18-6.13,4.82-10.8,6.9-13.84,2.08-3.09,3.55-4.66,3.55-4.66l22.61,171.97s-1.32-3.65-3.5-9.73c-2.23-6.13-5.42-14.6-9.18-24.44-3.75-9.84-8.11-21.04-12.27-32.5-4.11-11.51-7.96-23.17-10.29-34.43v.05Z"/>
          </g>
          <g>
            <path class="cls-6" d="m127.27,46.8s2.03.66,5.32,2.28c3.3,1.67,7.76,4.31,12.62,8.42,4.87,4.16,10.09,9.73,14.86,16.98,4.77,7.25,9.13,16.12,12.57,26.82,3.5,10.7,5.93,22.66,8.01,34.53,2.08,11.81,3.8,23.47,5.37,33.72s3.04,19.16,4.11,25.45c1.06,6.24,1.72,9.99,1.72,9.99,0,0-2.18-3.14-5.78-8.42-3.6-5.17-8.77-12.47-14.86-20.94-6.03-8.42-13.03-18.1-19.82-27.89-6.74-9.84-13.38-20.08-18.4-30.17-5.02-10.09-8.16-19.52-9.84-28.04-1.67-8.57-1.83-16.07-1.27-22.41.61-6.34,1.88-11.46,3.09-14.96,1.22-3.45,2.23-5.32,2.23-5.32l.05-.05Z"/>
            <path class="cls-9" d="m127.88,105.71c3.8,1.83,7.3,3.6,10.6,5.32,3.19,1.67,6.13,3.19,8.72,4.56,5.07,2.64,8.72,4.72,10.49,5.68.61-1.93,1.83-5.93,3.5-11.46,1.72-5.58,4.11-12.42,6.84-20.53.46,1.06.91,2.13,1.37,3.19-1.52,4.51-2.94,8.67-4.21,12.42-.61,1.83-1.17,3.55-1.72,5.17-.51,1.62-.96,3.14-1.42,4.51-1.67,5.37-2.64,8.57-2.69,8.62l-.41,1.27-1.22-.66s-.76-.41-2.13-1.17c-1.37-.76-3.3-1.77-5.78-3.09-2.53-1.32-5.53-2.89-8.97-4.72-1.77-.91-3.6-1.88-5.58-2.89-1.98-.96-4.01-1.98-6.13-2.99-.46-1.12-.86-2.18-1.27-3.24Z"/>
            <path class="cls-13" d="m196.88,217.15s-1.72-2.69-4.82-8.37c-3.09-5.68-7.5-14.25-12.68-26.16-5.17-11.91-10.34-26.11-13.94-37.32-3.65-11.2-5.83-19.47-5.83-19.47,0,0,4.26,7.45,9.48,18.05,5.27,10.55,11.51,24.23,16.17,36.4,4.66,12.17,7.5,21.4,9.23,27.58,1.72,6.19,2.38,9.28,2.38,9.28Z"/>
            <path class="cls-1" d="m165.55,83.96c-3.04,9.23-5.68,16.83-7.45,22.51-1.77,5.53-2.84,8.82-2.84,8.82,0,0-.76-.41-2.18-1.17s-3.5-1.88-6.03-3.19c-2.59-1.37-5.73-2.99-9.23-4.82-3.55-1.88-7.55-3.95-11.81-6.08-5.02-15.72-4.92-28.95-3.3-38.43,1.57-9.53,4.61-14.91,4.61-14.91,0,0,5.98,1.83,13.69,7.4,7.76,5.58,17.24,15.21,24.59,29.76l-.05.1Z"/>
            <path class="cls-12" d="m133.05,117.52c-5.02-10.09-8.16-19.52-9.84-28.04-1.67-8.57-1.83-16.07-1.27-22.41.61-6.34,1.88-11.46,3.09-14.96,1.22-3.45,2.23-5.32,2.23-5.32l64.59,158.13s-2.18-3.14-5.78-8.42c-3.6-5.17-8.77-12.47-14.86-20.94-6.03-8.42-13.03-18.1-19.82-27.89-6.74-9.84-13.38-20.08-18.4-30.17h.05Z"/>
          </g>
          <g>
            <path class="cls-5" d="m75.91,90.2s1.98.1,5.27.81,7.96,2.03,13.23,4.51c5.22,2.43,11.26,6.24,17.19,11.51,5.98,5.27,11.91,12.17,17.59,20.84,5.63,8.67,10.65,18.71,15.31,28.7,4.66,10.04,8.87,19.82,12.78,28.65,7.71,17.54,13.54,30.01,13.54,30.01,0,0-2.64-2.23-7.1-5.98-4.46-3.75-10.8-9.02-18.2-15.11-7.4-6.13-15.77-12.83-24.13-20.03-8.37-7.15-16.68-14.7-23.47-22.46-6.84-7.76-11.86-15.36-15.36-22.56-3.5-7.15-5.53-13.94-6.49-19.62-.96-5.73-1.01-10.55-.81-13.94s.66-5.32.66-5.32Z"/>
            <path class="cls-4" d="m90.46,142.31c3.8.76,7.35,1.52,10.6,2.18,3.24.76,6.24,1.42,8.82,2.03,5.12,1.22,8.82,2.08,10.65,2.48.1-1.88.25-5.68.46-10.9.1-2.64.2-5.73.46-9.02.25-3.35.51-6.95.76-10.85.66.81,1.32,1.67,1.98,2.54-.3,4.36-.61,8.37-.86,11.97-.15,3.6-.3,6.74-.46,9.38-.2,5.12-.35,8.16-.35,8.21v1.22l-1.27-.25c-.05,0-2.99-.71-8.01-1.88-2.54-.61-5.63-1.32-9.13-2.08-3.5-.71-7.45-1.52-11.71-2.43-.66-.86-1.27-1.72-1.93-2.59Z"/>
            <path class="cls-13" d="m178.12,224.85s-2.18-1.93-6.24-6.19c-4.06-4.26-10.04-10.8-17.49-20.18-7.4-9.38-15.36-20.69-21.24-29.81-5.93-9.13-9.84-15.97-9.84-15.97,0,0,5.53,5.63,12.73,13.79,7.2,8.11,15.97,18.81,23.02,28.49,7,9.68,11.71,17.19,14.75,22.26,2.99,5.07,4.31,7.66,4.31,7.66v-.05Z"/>
            <path class="cls-8" d="m118.7,114.13c-.25,4.36-.56,8.47-.76,12.12-.2,3.65-.35,6.9-.46,9.63-.3,5.32-.46,8.47-.46,8.47,0,0-3.09-.71-8.26-1.83-2.64-.61-5.83-1.32-9.38-2.13-3.6-.76-7.6-1.62-11.86-2.53-4.06-6.34-6.9-12.47-8.82-18.15s-2.84-10.75-3.24-15.16c-.41-4.36-.25-7.96-.05-10.44.2-2.48.56-3.9.56-3.9,0,0,5.73.25,13.94,3.4,8.16,3.04,18.86,9.38,28.85,20.58l-.05-.05Z"/>
            <path class="cls-12" d="m97.87,151.59c-6.84-7.76-11.86-15.36-15.36-22.56-3.5-7.15-5.53-13.94-6.49-19.62-.96-5.73-1.01-10.55-.81-13.94s.66-5.32.66-5.32l94.86,125.03s-2.64-2.23-7.1-5.98-10.8-9.02-18.2-15.11c-7.4-6.13-15.77-12.83-24.13-20.03-8.37-7.15-16.68-14.7-23.47-22.46h.05Z"/>
          </g>
          <g>
            <path class="cls-6" d="m41.79,138.01s1.77-.41,4.87-.56c3.14-.1,7.6,0,12.93,1.06,5.32,1.06,11.41,2.94,18,6.34s13.54,8.16,20.63,14.65c7.1,6.49,13.89,14.3,20.38,22.16,6.44,7.81,12.68,15.82,18.1,22.76,5.48,6.95,10.19,12.88,13.59,17.09,3.45,4.21,5.48,6.74,5.48,6.74,0,0-2.89-1.42-7.76-3.75-4.87-2.33-11.86-5.63-19.82-9.33s-17.09-7.86-26.26-12.37c-9.18-4.51-18.35-9.38-26.26-14.8s-14.15-11.05-18.91-16.68c-4.77-5.63-8.11-11.15-10.39-16.12-2.23-4.92-3.35-9.18-3.9-12.27-.56-3.04-.61-4.87-.61-4.87l-.05-.05Z"/>
            <path class="cls-9" d="m66.89,181.3c7.3-.3,13.44-.61,18.4-.66,4.87-.05,8.47-.15,10.19-.15-.2-.86-.51-2.13-.86-3.8s-.81-3.7-1.27-6.08c-.96-4.77-2.33-11.05-3.55-18.05.76.61,1.57,1.22,2.38,1.83,1.37,7.96,2.89,14.75,3.8,19.37.51,2.33.86,4.16,1.17,5.48.3,1.27.46,1.98.46,2.03l.25,1.12h-1.17s-2.89.1-7.66.15c-1.22,0-2.54,0-4.01.05-1.42.05-2.99.1-4.61.15-3.35.15-7.1.3-11.15.46-.76-.61-1.57-1.27-2.28-1.88h-.1Z"/>
            <path class="cls-13" d="m164.54,235.2s-2.38-1.27-7.05-4.11c-4.61-2.89-11.51-7.4-20.33-14.04-8.82-6.69-18.51-15.01-25.91-21.85-7.4-6.79-12.47-12.02-12.47-12.02,0,0,6.24,3.75,14.55,9.38,8.31,5.58,18.71,13.13,27.23,20.18,8.52,7.05,14.45,12.68,18.35,16.58,3.9,3.85,5.68,5.93,5.68,5.93l-.05-.05Z"/>
            <path class="cls-1" d="m85.65,149.62c.35,1.98.76,3.9,1.12,5.78.35,1.88.76,3.65,1.06,5.32.66,3.3,1.27,6.24,1.77,8.67.46,2.43.86,4.31,1.17,5.68.3,1.32.41,2.08.41,2.08,0,0-2.94.1-7.91.25-5.07.05-11.91.41-20.13.66-10.14-9.48-15.77-19.42-18.51-27.07-2.74-7.6-2.84-12.88-2.84-12.88,0,0,1.27-.25,3.55-.46s5.63-.2,9.68.25c8.11.91,18.96,3.95,30.62,11.76v-.05Z"/>
            <path class="cls-12" d="m75.61,187.94c-7.91-5.42-14.15-11.05-18.91-16.68-4.77-5.63-8.11-11.15-10.39-16.12-2.23-4.92-3.35-9.18-3.9-12.27-.56-3.04-.61-4.87-.61-4.87l113.97,90.2s-2.89-1.42-7.76-3.75c-4.87-2.33-11.86-5.63-19.82-9.33-7.96-3.7-17.09-7.86-26.26-12.37-9.18-4.51-18.35-9.38-26.26-14.8h-.05Z"/>
          </g>
          <g>
            <path class="cls-5" d="m16.59,187.03s1.52-.81,4.36-1.72c1.42-.46,3.14-.96,5.17-1.37s4.41-.76,7-.96c5.22-.41,11.41-.15,18.3,1.27s14.6,4.06,22.82,8.21c8.21,4.16,16.48,9.63,24.59,15.26,8.06,5.63,15.77,11.41,22.61,16.43,3.4,2.48,6.59,4.82,9.43,6.9,2.89,2.08,5.42,3.9,7.55,5.48,4.26,3.04,6.74,4.82,6.74,4.82,0,0-3.04-.56-8.16-1.47-5.17-.96-12.37-2.18-20.74-3.55-8.37-1.37-17.9-2.94-27.53-4.77-9.63-1.88-19.32-4.01-28.04-7-8.67-2.99-15.97-6.69-21.8-10.65-5.83-3.95-10.29-8.21-13.64-12.22-3.35-4.01-5.58-7.71-6.84-10.34-1.32-2.69-1.83-4.31-1.83-4.31Z"/>
            <path class="cls-4" d="m50.87,220.65c6.59-2.13,12.42-3.9,16.88-5.27,4.46-1.37,7.86-2.28,9.38-2.74-.76-1.47-2.38-4.51-4.61-8.67-2.13-4.16-4.87-9.53-7.96-15.82.86.35,1.77.71,2.64,1.06,3.45,7.05,6.44,12.88,8.52,16.93,2.18,4.11,3.45,6.49,3.45,6.54l.51.96-1.06.3s-2.69.76-7.1,2.08c-4.36,1.37-10.65,3.24-18.1,5.68-.86-.41-1.77-.76-2.64-1.17l.1.1Z"/>
            <path class="cls-13" d="m155.11,245.64s-2.53-.56-7.6-2.03c-5.02-1.47-12.57-3.9-22.46-7.81-9.89-3.95-20.99-9.18-29.56-13.59s-14.65-7.96-14.65-7.96c0,0,6.74,1.88,15.87,4.97,9.13,3.04,20.63,7.4,30.32,11.71,9.68,4.36,16.68,8.06,21.24,10.65,4.56,2.59,6.74,4.06,6.74,4.06h.1Z"/>
            <path class="cls-8" d="m60.1,186.58c3.55,6.95,6.59,12.98,8.77,17.29,2.18,4.26,3.5,6.74,3.5,6.74,0,0-2.74.81-7.3,2.18-4.56,1.42-11,3.4-18.45,5.73-11.86-6.19-19.47-13.94-24.03-20.33-2.33-3.19-3.75-5.98-4.66-7.96-.91-2.03-1.27-3.19-1.27-3.19,0,0,1.12-.56,3.19-1.32,2.08-.71,5.07-1.67,8.97-2.23,7.76-1.17,18.66-1.12,31.33,3.09h-.05Z"/>
            <path class="cls-12" d="m60.7,224.6c-8.67-2.99-15.97-6.69-21.8-10.65-5.83-3.95-10.29-8.21-13.64-12.22-3.35-4.01-5.58-7.71-6.84-10.34-1.32-2.69-1.83-4.31-1.83-4.31l128.58,54.35s-3.04-.56-8.16-1.47c-5.17-.96-12.37-2.18-20.74-3.55s-17.9-2.94-27.53-4.77c-9.63-1.88-19.32-4.01-28.04-7v-.05Z"/>
          </g>
          <g>
            <path class="cls-6" d="m20.5,231.7s1.32-.86,3.75-2.03c2.43-1.12,6.03-2.54,10.55-3.5,4.61-.96,10.19-1.47,16.58-.96,6.39.46,13.54,1.93,21.34,4.66,7.86,2.79,15.92,6.69,23.78,10.8,7.86,4.11,15.41,8.37,22.11,12.02,13.49,7.45,23.27,12.67,23.27,12.67,0,0-2.79-.15-7.5-.35s-11.31-.46-18.91-.76c-7.66-.3-16.43-.56-25.2-1.06-8.82-.56-17.75-1.37-25.91-3.04-8.11-1.67-15.06-4.11-20.79-7-5.78-2.89-10.19-6.19-13.64-9.33-3.45-3.19-5.83-6.24-7.35-8.47s-2.13-3.65-2.13-3.65h.05Z"/>
            <path class="cls-9" d="m55.13,257.81c5.58-2.69,10.6-4.92,14.5-6.64,3.85-1.72,6.64-2.94,8.06-3.55-1.67-2.43-7.2-9.94-14.04-20.38.81.2,1.67.41,2.48.66,3.95,5.93,7.15,10.75,9.63,14.15,2.38,3.4,3.8,5.37,3.8,5.42l.56.81-.91.41s-.61.25-1.67.71c-1.01.46-2.54,1.12-4.41,1.98-3.75,1.72-9.28,4.11-15.51,7.15-.81-.25-1.67-.51-2.48-.71Z"/>
            <path class="cls-13" d="m151.25,268.05s-2.38-.2-7.05-.91c-4.66-.76-11.66-2.03-20.94-4.41-9.28-2.38-19.87-5.78-28.04-8.77-8.16-2.94-13.99-5.42-13.99-5.42,0,0,6.29.91,14.8,2.59,8.52,1.67,19.37,4.21,28.54,6.95,9.18,2.74,15.87,5.27,20.23,7.05,4.41,1.77,6.49,2.84,6.49,2.84l-.05.1Z"/>
            <path class="cls-1" d="m59.39,226.32c4.01,5.88,7.35,10.85,9.84,14.4,2.43,3.55,3.85,5.63,3.85,5.63,0,0-2.33,1.06-6.24,2.84-1.98.91-4.31,1.98-7,3.19-1.37.61-2.79,1.27-4.26,1.93-1.47.71-2.99,1.42-4.61,2.13-5.68-2.08-10.49-4.66-14.45-7.3-3.95-2.69-7.05-5.48-9.43-8.06-2.38-2.59-4.11-4.92-5.17-6.59-1.01-1.67-1.47-2.69-1.47-2.69,0,0,3.75-2.59,10.44-4.56,6.69-1.98,16.58-3.14,28.39-.86l.1-.05Z"/>
            <path class="cls-12" d="m64.35,260.19c-8.11-1.67-15.06-4.11-20.79-7-5.78-2.89-10.19-6.19-13.64-9.33-3.45-3.19-5.83-6.24-7.35-8.47s-2.13-3.65-2.13-3.65l121.38,33.72s-2.79-.15-7.5-.35-11.31-.46-18.91-.76c-7.66-.3-16.43-.56-25.2-1.06-8.82-.56-17.74-1.37-25.91-3.04l.05-.05Z"/>
          </g>
          <g>
            <path class="cls-5" d="m30.79,275.86s.2-.25.71-.71c.46-.46,1.17-1.06,2.13-1.83,1.88-1.47,4.72-3.4,8.47-5.17,3.75-1.77,8.47-3.35,14.15-4.26,5.63-.91,12.17-1.12,19.52-.35,7.35.76,15.21,2.48,22.81,4.41,7.66,1.93,15.06,4.06,21.65,5.88,6.54,1.83,12.27,3.35,16.33,4.46,4.01,1.06,6.44,1.72,6.44,1.72,0,0-9.68,1.77-23.17,4.51-6.74,1.32-14.25,2.89-22.05,4.26-7.76,1.32-15.72,2.48-23.12,2.69-7.4.2-13.89-.46-19.42-1.83-5.53-1.32-10.24-3.24-13.79-5.27-3.6-2.03-6.29-4.16-8.06-5.78-1.77-1.62-2.64-2.74-2.64-2.74h.05Z"/>
            <path class="cls-4" d="m66.18,291.32c2.18-1.72,4.21-3.35,6.03-4.82s3.6-2.79,5.12-3.95c2.99-2.28,5.17-3.9,6.24-4.72-1.01-.86-3.04-2.69-5.83-5.17-1.42-1.27-3.04-2.74-4.82-4.31-1.72-1.62-3.65-3.4-5.68-5.27h2.28c2.28,2.13,4.36,4.11,6.29,5.83,1.93,1.72,3.6,3.19,4.97,4.46,2.74,2.43,4.36,3.9,4.41,3.9l.66.61-.71.56s-1.77,1.32-4.66,3.6c-1.47,1.12-3.3,2.48-5.32,4.06-2.03,1.62-4.26,3.4-6.69,5.32-.76,0-1.52-.1-2.28-.1Z"/>
            <path class="cls-13" d="m151.66,280.37s-2.08.35-6.24.66c-4.21.3-10.55.66-19.11.51-8.57-.15-18.4-.91-26.11-1.83-7.71-.86-13.28-1.77-13.28-1.77,0,0,1.42-.1,3.75-.3,2.38-.15,5.73-.35,9.63-.51,7.76-.3,17.64-.35,26.21.15,8.52.51,14.8,1.32,19.01,1.93,4.16.66,6.19,1.12,6.19,1.12l-.05.05Z"/>
            <path class="cls-8" d="m63.39,263.13c4.56,4.26,8.67,7.86,11.51,10.44,2.84,2.54,4.51,4.06,4.51,4.06,0,0-1.77,1.37-4.77,3.75-1.52,1.17-3.35,2.59-5.48,4.21-2.08,1.62-4.36,3.45-6.79,5.37-10.7-1.32-18.76-4.92-23.88-8.42-5.17-3.5-7.71-6.69-7.71-6.69,0,0,.66-.76,2.03-1.88,1.37-1.12,3.4-2.69,6.13-4.21,2.74-1.52,6.08-3.09,10.19-4.31,4.11-1.22,8.87-2.08,14.25-2.33Z"/>
            <path class="cls-12" d="m74.7,291.47c-7.4.2-13.89-.46-19.42-1.83-5.53-1.32-10.24-3.24-13.79-5.27-3.6-2.03-6.29-4.16-8.06-5.78-1.77-1.62-2.64-2.74-2.64-2.74l112.2,4.21s-9.68,1.77-23.17,4.51c-6.74,1.32-14.25,2.89-22.05,4.26-7.76,1.32-15.72,2.48-23.12,2.69l.05-.05Z"/>
          </g>
        </g>
        <g>
          <path class="cls-6" d="m246.57,0s-19.77,22.71-20.23,69.92c-.46,47.2,20.23,108.9,20.23,108.9,0,0,20.69-61.75,20.23-108.9C266.34,22.71,246.57,0,246.57,0Z"/>
          <path class="cls-9" d="m266.14,56.43c-9.18,14.2-16.98,24.49-19.52,27.78-2.53-3.3-10.34-13.59-19.52-27.78-.1,1.22-.2,2.43-.3,3.65,10.49,16.02,18.86,26.52,18.96,26.67l.86,1.12.86-1.12s8.47-10.65,18.96-26.67c-.1-1.22-.2-2.43-.3-3.65Z"/>
          <path class="cls-13" d="m246.57,192.66s4.21-13.13,4.31-40.36c.1-27.23-4.31-62.87-4.31-62.87,0,0-4.41,35.64-4.31,62.87.1,27.23,4.31,40.36,4.31,40.36Z"/>
          <path class="cls-1" d="m227.76,50.35c10.09,16.22,18.81,27.18,18.81,27.18,0,0,8.77-11,18.86-27.18C260.87,16.48,246.57,0,246.57,0c0,0-14.25,16.43-18.81,50.35Z"/>
          <path class="cls-12" d="m266.8,69.92c-.46-47.2-20.23-69.92-20.23-69.92v178.82s20.69-61.75,20.23-108.9Z"/>
        </g>
        <g>
          <path class="cls-15" d="m363.13,273.37c0-1.06,0-2.18-.1-3.35s-.2-2.33-.3-3.55c-.15-2.48-.66-5.02-1.06-7.71-.56-2.64-1.06-5.42-1.88-8.16-.71-2.79-1.67-5.53-2.59-8.26-1.06-2.69-2.08-5.42-3.35-8.01-.61-1.32-1.22-2.59-1.88-3.85-.66-1.27-1.27-2.48-1.98-3.7-1.42-2.38-2.74-4.66-4.16-6.74-1.37-2.13-2.79-4.01-4.16-5.78-1.32-1.77-2.64-3.3-3.8-4.66-1.12-1.37-2.23-2.48-3.09-3.45-1.72-1.93-2.79-2.94-2.79-2.94,0,0-1.06-1.01-2.89-2.84-.96-.86-2.13-1.88-3.5-3.09-1.32-1.22-2.94-2.43-4.66-3.8-1.77-1.37-3.7-2.74-5.78-4.21-2.13-1.37-4.36-2.89-6.79-4.26-2.38-1.42-4.92-2.74-7.55-4.06-1.32-.66-2.64-1.22-4.01-1.83-1.32-.61-2.69-1.22-4.11-1.72-2.74-1.12-5.53-2.08-8.31-2.94-2.79-.86-5.53-1.62-8.26-2.23-2.69-.61-5.32-1.17-7.86-1.52-2.48-.46-4.87-.71-7.1-.91-2.18-.25-4.21-.3-6.03-.41-1.77-.1-3.35-.1-4.66-.1-2.59,0-4.06.05-4.06.05,0,0-1.47,0-4.06-.05-1.27,0-2.84,0-4.66.1-1.77.1-3.8.15-6.03.41-2.18.2-4.56.46-7.1.91-2.53.35-5.12.91-7.86,1.52-2.69.61-5.48,1.37-8.26,2.23-2.79.91-5.58,1.83-8.31,2.94-1.37.51-2.74,1.12-4.11,1.72-1.32.61-2.69,1.17-4.01,1.83-2.59,1.32-5.17,2.59-7.55,4.06-2.43,1.37-4.61,2.89-6.79,4.26-2.08,1.47-4.06,2.84-5.78,4.21s-3.35,2.59-4.66,3.8-2.53,2.23-3.5,3.09c-1.83,1.83-2.89,2.84-2.89,2.84,0,0-1.06,1.01-2.79,2.94-.86.96-1.98,2.08-3.09,3.45-1.12,1.37-2.48,2.89-3.8,4.66-1.32,1.77-2.79,3.65-4.16,5.78-1.42,2.08-2.79,4.36-4.16,6.74-.71,1.17-1.32,2.43-1.98,3.7s-1.32,2.54-1.88,3.85c-1.27,2.59-2.28,5.32-3.35,8.01-.96,2.74-1.93,5.48-2.59,8.26-.81,2.74-1.32,5.53-1.88,8.16-.41,2.69-.86,5.22-1.06,7.71-.1,1.22-.2,2.43-.3,3.55-.05,1.17-.1,2.28-.1,3.35-.1,2.13,0,4.11,0,5.83s.1,3.24.25,4.46c.25,2.43.41,3.85.41,3.85h19.72s.2-1.12.61-3.09c.15-.96.41-2.18.76-3.5.3-1.37.66-2.84,1.12-4.46.41-1.62.96-3.35,1.57-5.17.56-1.83,1.37-3.65,2.08-5.58.81-1.88,1.62-3.85,2.64-5.73.86-1.93,2.03-3.8,3.04-5.73,1.12-1.88,2.23-3.7,3.45-5.42,1.12-1.77,2.48-3.4,3.65-5.02,1.27-1.57,2.43-3.09,3.7-4.41,1.17-1.42,2.38-2.64,3.5-3.75,1.06-1.17,2.23-2.13,3.14-2.99.91-.91,1.83-1.57,2.48-2.23,1.37-1.22,2.23-1.88,2.23-1.88,0,0,.81-.66,2.28-1.83.76-.56,1.67-1.22,2.69-1.98,1.01-.76,2.28-1.52,3.6-2.43,1.32-.86,2.79-1.72,4.36-2.64,1.62-.86,3.24-1.83,5.02-2.64,1.72-.91,3.6-1.72,5.53-2.54,1.93-.76,3.85-1.62,5.83-2.28,1.01-.3,1.98-.71,2.99-1.01s1.98-.61,2.99-.91c1.98-.56,3.95-1.06,5.88-1.52,1.93-.41,3.75-.86,5.58-1.12,1.77-.35,3.45-.56,5.02-.76,1.57-.25,2.99-.35,4.31-.51,1.27-.15,2.38-.25,3.35-.3,1.88-.15,2.89-.2,2.89-.2,0,0,1.06.1,2.89.2.91,0,2.03.1,3.35.3,1.27.15,2.74.2,4.31.51,1.57.2,3.24.41,5.02.76,1.77.3,3.65.71,5.58,1.12,1.93.41,3.9.96,5.88,1.52,1.01.3,1.98.61,2.99.91s1.98.71,2.99,1.01c1.98.66,3.9,1.52,5.83,2.28,1.88.81,3.75,1.67,5.53,2.54,1.77.81,3.4,1.83,5.02,2.64,1.57.91,3.04,1.77,4.36,2.64,1.32.91,2.53,1.67,3.6,2.43,1.06.76,1.93,1.42,2.69,1.98,1.42,1.17,2.28,1.83,2.28,1.83,0,0,.86.61,2.23,1.88.71.61,1.57,1.32,2.48,2.23s2.03,1.88,3.14,2.99c1.12,1.17,2.33,2.38,3.5,3.75,1.27,1.32,2.43,2.84,3.7,4.41,1.17,1.62,2.53,3.24,3.65,5.02,1.22,1.72,2.33,3.6,3.45,5.42,1.01,1.88,2.13,3.75,3.04,5.73,1.01,1.93,1.77,3.85,2.64,5.73.71,1.93,1.52,3.75,2.08,5.58.61,1.83,1.17,3.55,1.57,5.17.51,1.62.86,3.09,1.12,4.46.3,1.32.56,2.53.76,3.5.35,1.98.61,3.09.61,3.09h19.72s.15-1.42.41-3.85c.15-1.22.25-2.74.25-4.46.05-1.72.15-3.7,0-5.83h.1Z"/>
          <path class="cls-5" d="m276.48,199.4s2.38-1.47,4.92-2.94c2.53-1.42,5.17-2.64,5.17-2.64,0,0,1.17,2.69,2.08,5.42.46,1.32.91,2.69,1.27,3.65.3,1.01.51,1.67.51,1.67,0,0-.81-.41-2.13-.91s-2.99-1.32-4.77-1.88c-1.72-.66-3.5-1.27-4.82-1.67-1.32-.41-2.23-.71-2.23-.71Z"/>
          <path class="cls-6" d="m315.32,201.63s-.71.05-1.83.25c-1.12.15-2.53.41-3.95.71-2.84.51-5.63,1.27-5.63,1.27,0,0-.15-.71-.41-1.77-.25-1.06-.61-2.48-1.01-3.9-.76-2.79-1.72-5.73-1.72-5.73,0,0,.91.51,2.33,1.32.71.41,1.52.86,2.38,1.37.86.51,1.77,1.12,2.69,1.67,1.83,1.12,3.6,2.38,4.92,3.3,1.32.91,2.18,1.57,2.18,1.57l.05-.05Z"/>
          <path class="cls-6" d="m276.79,183.13s-2.64,1.47-5.07,3.19c-1.22.81-2.43,1.67-3.35,2.28-.91.66-1.47,1.12-1.47,1.12,0,0-1.57-2.43-3.3-4.92-1.72-2.38-3.65-4.72-3.65-4.72,0,0,1.06.1,2.64.3,1.62.15,3.7.56,5.83.91,2.13.35,4.21.86,5.78,1.22.81.15,1.42.35,1.88.46s.71.2.71.2v-.05Z"/>
          <path class="cls-5" d="m335.24,244.07s2.48.76,4.87,1.72,4.72,2.13,4.72,2.13c0,0-.15.61-.46,1.57-.25.91-.61,2.13-.96,3.35-.35,1.17-.71,2.38-1.01,3.24s-.51,1.42-.51,1.42c0,0-.35-.86-.86-2.18-.61-1.27-1.37-2.99-2.18-4.66-.91-1.67-1.72-3.35-2.43-4.56-.71-1.22-1.17-2.03-1.17-2.03Z"/>
          <path class="cls-6" d="m356.79,274.44s-.35-.46-.91-1.22c-.56-.71-1.32-1.62-2.18-2.53-1.67-1.77-3.45-3.45-3.45-3.45,0,0,.96-2.28,1.88-4.61.51-1.22.91-2.38,1.27-3.3s.56-1.57.56-1.57c0,0,.25,1.01.66,2.59.35,1.52.76,3.65,1.17,5.68.3,2.08.61,4.16.81,5.73.15,1.57.2,2.64.2,2.64v.05Z"/>
          <path class="cls-6" d="m344.22,234.08s-.66-.2-1.57-.56c-.96-.35-2.23-.76-3.55-1.12-1.32-.35-2.64-.71-3.6-.91-.96-.25-1.67-.35-1.67-.35,0,0,.25-2.74.51-5.48.15-2.74.25-5.63.25-5.63,0,0,.66.86,1.67,2.08,1.01,1.22,2.23,2.99,3.45,4.72,1.22,1.77,2.33,3.6,3.19,4.92.81,1.37,1.32,2.33,1.32,2.33Z"/>
          <path class="cls-5" d="m216.71,199.4s-2.38-1.47-4.92-2.94c-2.53-1.42-5.17-2.64-5.17-2.64,0,0-1.17,2.69-2.08,5.42-.46,1.32-.91,2.69-1.27,3.65-.3,1.01-.51,1.67-.51,1.67,0,0,.81-.41,2.13-.91s2.99-1.32,4.77-1.88c1.72-.66,3.5-1.27,4.82-1.67,1.32-.41,2.23-.71,2.23-.71Z"/>
          <path class="cls-6" d="m177.87,201.63s.71.05,1.83.25c1.12.15,2.53.41,3.95.71,2.84.51,5.63,1.27,5.63,1.27,0,0,.15-.71.41-1.77.25-1.06.61-2.48,1.01-3.9.76-2.79,1.72-5.73,1.72-5.73,0,0-.91.51-2.33,1.32-.71.41-1.52.86-2.38,1.37-.86.51-1.77,1.12-2.69,1.67-1.83,1.12-3.6,2.38-4.92,3.3-1.32.91-2.18,1.57-2.18,1.57l-.05-.05Z"/>
          <path class="cls-6" d="m216.4,183.13s2.59,1.47,5.07,3.19c1.22.81,2.43,1.67,3.35,2.28.91.66,1.47,1.12,1.47,1.12,0,0,1.57-2.43,3.3-4.92,1.72-2.38,3.65-4.72,3.65-4.72,0,0-1.06.1-2.64.3-1.62.15-3.7.56-5.83.91-2.13.35-4.21.86-5.78,1.22-.81.15-1.42.35-1.88.46s-.71.2-.71.2v-.05Z"/>
          <g>
            <path class="cls-8" d="m365.46,269.62c-.1-1.17-.15-2.38-.25-3.65-.15-2.53-.61-5.17-.96-7.91-.51-2.74-1.01-5.58-1.77-8.42-.71-2.84-1.62-5.68-2.59-8.52-1.06-2.79-2.08-5.63-3.35-8.31-.61-1.37-1.22-2.69-1.88-3.95-.66-1.27-1.27-2.59-1.98-3.8-1.42-2.43-2.79-4.82-4.21-7s-2.84-4.16-4.21-5.98c-1.32-1.88-2.69-3.4-3.85-4.87s-2.28-2.59-3.14-3.6c-1.77-1.98-2.84-3.04-2.84-3.04,0,0-1.06-1.06-2.99-2.94-.96-.91-2.18-1.98-3.55-3.19-1.37-1.27-3.04-2.53-4.82-3.95s-3.8-2.84-5.93-4.36c-2.18-1.42-4.46-2.99-6.95-4.41-2.43-1.47-5.07-2.84-7.76-4.21-1.32-.71-2.74-1.27-4.11-1.93s-2.79-1.22-4.21-1.77c-2.84-1.17-5.73-2.13-8.57-3.04-2.89-.86-5.73-1.67-8.52-2.33-2.79-.61-5.48-1.22-8.06-1.57-2.59-.46-5.02-.71-7.3-.91-2.28-.25-4.36-.3-6.19-.41s-3.45-.1-4.77-.1c-2.64.05-4.16.1-4.16.1,0,0-1.52,0-4.16-.1-1.32,0-2.94,0-4.77.1-1.83.1-3.9.15-6.19.41-2.28.2-4.72.46-7.3.91-2.59.35-5.27.96-8.06,1.57-2.79.66-5.63,1.42-8.52,2.33-2.84.91-5.73,1.88-8.57,3.04-1.42.56-2.84,1.17-4.21,1.77s-2.79,1.22-4.11,1.93c-2.69,1.37-5.32,2.69-7.76,4.21-2.48,1.42-4.77,2.99-6.95,4.41-2.13,1.52-4.16,2.94-5.93,4.36s-3.45,2.69-4.82,3.95c-1.37,1.22-2.59,2.33-3.55,3.19-1.88,1.88-2.99,2.94-2.99,2.94,0,0-1.12,1.06-2.84,3.04-.86,1.01-1.98,2.13-3.14,3.6-1.17,1.42-2.53,2.99-3.85,4.87-1.37,1.83-2.79,3.8-4.21,5.98-1.47,2.13-2.79,4.56-4.21,7-.71,1.22-1.32,2.54-1.98,3.8s-1.32,2.64-1.88,3.95c-1.27,2.69-2.28,5.53-3.35,8.31-.96,2.84-1.88,5.68-2.59,8.52-.76,2.84-1.27,5.68-1.77,8.42-.35,2.74-.81,5.37-.96,7.91-.1,1.27-.15,2.48-.25,3.65-.05,1.17,0,2.33-.05,3.45-.05,2.18.05,4.21.15,5.98.05,1.77.2,3.3.41,4.56.3,2.48.51,3.9.51,3.9h4.16s-.1-1.37-.3-3.75c-.1-1.22-.15-2.69-.15-4.36s-.05-3.6.1-5.68c.05-1.06.1-2.13.2-3.24s.25-2.28.35-3.45c.2-2.38.71-4.87,1.17-7.5.56-2.59,1.12-5.22,1.93-7.91.71-2.69,1.67-5.32,2.64-8.01,1.06-2.64,2.13-5.27,3.35-7.76.61-1.27,1.22-2.53,1.88-3.7.66-1.22,1.27-2.43,1.98-3.55,1.37-2.28,2.69-4.51,4.11-6.49,1.37-2.03,2.79-3.85,4.06-5.58s2.59-3.14,3.7-4.51c1.12-1.32,2.18-2.38,3.04-3.35,1.67-1.83,2.74-2.79,2.74-2.79,0,0,1.01-1.01,2.84-2.74.96-.81,2.08-1.83,3.4-2.99s2.89-2.33,4.56-3.65c1.72-1.32,3.6-2.64,5.63-4.06,2.08-1.32,4.26-2.79,6.59-4.06,2.33-1.37,4.82-2.64,7.3-3.9,1.27-.66,2.59-1.17,3.85-1.77,1.32-.61,2.64-1.17,3.95-1.67,2.64-1.06,5.37-1.98,8.06-2.84,2.69-.81,5.37-1.57,8.01-2.18,2.64-.56,5.17-1.17,7.61-1.47,2.43-.46,4.72-.66,6.84-.91s4.11-.3,5.83-.41,3.24-.15,4.51-.1h7.81c1.27,0,2.79,0,4.51.1s3.7.15,5.83.41c2.13.2,4.46.46,6.84.91,2.43.35,4.97.91,7.6,1.47,2.64.61,5.27,1.37,8.01,2.18,2.69.86,5.42,1.77,8.06,2.84,1.32.51,2.69,1.06,3.95,1.67,1.32.61,2.64,1.12,3.85,1.77,2.53,1.27,5.02,2.48,7.3,3.9,2.33,1.32,4.51,2.74,6.59,4.06,2.03,1.42,3.9,2.74,5.63,4.06,1.67,1.32,3.24,2.48,4.56,3.65s2.43,2.13,3.4,2.99c1.83,1.72,2.84,2.74,2.84,2.74,0,0,1.06.96,2.74,2.79.86.91,1.93,1.98,3.04,3.35,1.12,1.32,2.43,2.79,3.7,4.51,1.32,1.67,2.74,3.5,4.06,5.58,1.42,1.98,2.74,4.21,4.11,6.49.71,1.17,1.32,2.38,1.98,3.55.66,1.22,1.27,2.43,1.88,3.7,1.27,2.48,2.28,5.12,3.35,7.76.96,2.69,1.93,5.32,2.64,8.01.81,2.64,1.37,5.32,1.93,7.91.46,2.59.96,5.07,1.17,7.5.1,1.22.25,2.33.35,3.45s.1,2.23.2,3.24c.15,2.08.1,4.01.1,5.68s0,3.14-.15,4.36c-.2,2.38-.3,3.75-.3,3.75h4.16s.2-1.42.51-3.9c.2-1.27.3-2.79.41-4.56.1-1.77.2-3.75.15-5.98,0-1.12,0-2.23-.05-3.45h.1Z"/>
            <path class="cls-8" d="m343.66,280.73c-.25-1.37-.56-2.94-1.01-4.61-.35-1.67-.86-3.45-1.47-5.32-.51-1.88-1.27-3.8-1.98-5.83-.81-1.98-1.57-4.01-2.53-5.98-.86-2.03-1.98-4.01-2.99-5.98-1.12-1.93-2.23-3.85-3.45-5.73-1.12-1.88-2.48-3.6-3.65-5.27-2.53-3.3-5.02-6.24-7.35-8.62-1.12-1.22-2.28-2.23-3.19-3.19-.91-.96-1.88-1.67-2.59-2.33-1.42-1.32-2.28-1.98-2.28-1.98,0,0-.86-.71-2.33-1.93-.76-.56-1.72-1.27-2.79-2.08s-2.33-1.62-3.7-2.54-2.89-1.83-4.51-2.79c-1.67-.91-3.35-1.93-5.22-2.84-1.83-.96-3.75-1.83-5.73-2.69-1.98-.81-4.01-1.72-6.08-2.38-1.01-.35-2.08-.76-3.09-1.06-1.01-.3-2.08-.66-3.09-.96-2.08-.61-4.11-1.17-6.13-1.57-1.98-.46-3.95-.86-5.78-1.17-1.83-.35-3.6-.56-5.27-.81-1.62-.25-3.14-.35-4.46-.46-1.32-.15-2.48-.2-3.45-.25-1.93-.1-3.04-.2-3.04-.2,0,0-1.12.05-3.04.2-.96,0-2.13.1-3.45.25-1.32.15-2.84.2-4.46.46-1.62.2-3.4.41-5.27.81-1.88.3-3.8.71-5.78,1.17s-4.06,1.01-6.13,1.57c-1.01.3-2.08.61-3.09.96s-2.08.71-3.09,1.06c-2.08.66-4.06,1.57-6.08,2.38-1.98.86-3.9,1.72-5.73,2.69-1.88.86-3.55,1.93-5.22,2.84-1.62.96-3.14,1.88-4.51,2.79-1.32.96-2.64,1.72-3.7,2.54s-2.03,1.47-2.79,2.08c-1.47,1.22-2.33,1.93-2.33,1.93,0,0-.86.66-2.28,1.98-.71.66-1.62,1.37-2.59,2.33-.91.96-2.08,1.98-3.19,3.19-2.28,2.38-4.82,5.32-7.35,8.62-1.17,1.67-2.54,3.4-3.65,5.27-1.22,1.83-2.33,3.75-3.45,5.73-1.01,1.98-2.13,3.95-2.99,5.98-.96,1.98-1.72,4.06-2.53,5.98-.71,1.98-1.42,3.9-1.98,5.83-.56,1.88-1.06,3.65-1.47,5.32-.46,1.67-.76,3.24-1.01,4.61-.3,1.37-.51,2.59-.61,3.6-.3,2.03-.51,3.19-.51,3.19h4.16s.25-1.12.71-3.04c.2-.96.51-2.13.86-3.4.3-1.32.71-2.74,1.27-4.31.46-1.57,1.06-3.24,1.67-4.97s1.42-3.55,2.18-5.37c.86-1.83,1.67-3.7,2.69-5.53.91-1.88,2.03-3.65,3.09-5.42,1.12-1.77,2.23-3.5,3.45-5.17,1.12-1.67,2.43-3.19,3.6-4.77,1.27-1.47,2.43-2.89,3.65-4.16,1.17-1.32,2.38-2.48,3.45-3.55,1.06-1.12,2.18-1.98,3.04-2.84.91-.86,1.77-1.52,2.43-2.08,1.32-1.17,2.18-1.72,2.18-1.72,0,0,.81-.61,2.18-1.72.71-.51,1.62-1.12,2.64-1.83s2.23-1.42,3.45-2.28c1.27-.81,2.74-1.62,4.21-2.48,1.52-.81,3.09-1.72,4.82-2.48,1.67-.86,3.45-1.62,5.27-2.38,1.88-.71,3.7-1.52,5.58-2.13l2.84-.96c.96-.3,1.93-.56,2.84-.86,1.88-.51,3.8-1.01,5.63-1.42,1.83-.41,3.6-.81,5.32-1.06,1.67-.35,3.35-.56,4.82-.76,1.47-.25,2.89-.35,4.11-.51s2.28-.25,3.19-.3c1.77-.15,2.79-.25,2.79-.25,0,0,1.01.1,2.79.25.86.05,1.98.15,3.19.3,1.22.15,2.64.25,4.11.51,1.52.2,3.14.41,4.82.76,1.72.25,3.5.66,5.32,1.06,1.83.41,3.7.91,5.63,1.42.96.3,1.93.56,2.84.86l2.84.96c1.93.61,3.75,1.42,5.58,2.13,1.83.76,3.6,1.57,5.27,2.38,1.72.76,3.3,1.67,4.82,2.48,1.52.86,2.94,1.67,4.21,2.48,1.27.86,2.48,1.52,3.45,2.28,1.01.71,1.88,1.32,2.64,1.83,1.42,1.06,2.18,1.72,2.18,1.72,0,0,.86.61,2.18,1.72.66.61,1.57,1.22,2.43,2.08s1.98,1.72,3.04,2.84c1.06,1.06,2.28,2.23,3.45,3.55,1.27,1.27,2.38,2.69,3.65,4.16,1.17,1.52,2.48,3.04,3.6,4.77,1.22,1.67,2.33,3.4,3.45,5.17,1.01,1.83,2.18,3.6,3.09,5.42,1.01,1.83,1.83,3.7,2.69,5.53.76,1.83,1.57,3.6,2.18,5.37.66,1.72,1.27,3.4,1.67,4.97.51,1.57.91,3.04,1.27,4.31.35,1.32.66,2.43.86,3.4.46,1.93.71,3.04.71,3.04h4.16s-.2-1.17-.51-3.19c-.1-1.01-.35-2.23-.61-3.6h.41Z"/>
          </g>
          <g>
            <path class="cls-6" d="m328.1,207.46s-1.77-.1-4.41-.1c-2.69.05-6.13.2-9.63.66-1.72.2-3.45.51-5.02.76-1.62.3-3.09.66-4.31.91-2.48.56-4.11,1.12-4.11,1.12,0,0-.35-1.77-.91-4.41-.66-2.59-1.57-6.24-2.79-9.84-.61-1.77-1.22-3.65-1.88-5.32-.66-1.67-1.32-3.24-1.93-4.66-.61-1.37-1.12-2.53-1.47-3.3-.35-.81-.61-1.22-.61-1.22,0,0-1.88.76-4.56,1.93-2.74,1.32-6.13,2.94-9.48,4.97-3.3,1.93-6.44,4.06-8.67,5.73-1.12.81-2.03,1.52-2.69,2.03-.61.51-.96.81-.96.81,0,0-.86-1.47-2.33-3.7-1.47-2.13-3.5-5.07-5.78-7.81-2.28-2.74-4.72-5.48-6.64-7.35-1.93-1.93-3.3-3.19-3.3-3.19v5.32s1.32,1.27,3.14,3.19c1.83,1.88,4.21,4.66,6.34,7.4,2.13,2.79,4.11,5.68,5.42,7.81,1.37,2.23,2.18,3.65,2.18,3.65,0,0,.35-.3.96-.81s1.47-1.22,2.54-2.03c2.13-1.67,5.12-3.85,8.31-5.78,3.19-2.08,6.49-3.75,9.13-5.12,2.59-1.22,4.41-1.98,4.41-1.98,0,0,.2.46.56,1.22s.86,1.88,1.37,3.24c.56,1.37,1.17,2.89,1.77,4.56s1.17,3.5,1.72,5.22c1.12,3.5,1.93,7.05,2.48,9.58.51,2.59.81,4.31.81,4.31,0,0,1.57-.56,4.01-1.22,1.22-.3,2.64-.71,4.21-1.06,1.52-.3,3.19-.61,4.92-.91,3.4-.56,6.79-.81,9.43-.91,2.59-.1,4.36,0,4.36,0l3.35-3.65.05-.05Z"/>
            <path class="cls-6" d="m357.55,284.27c-.91-1.93-2.54-4.36-4.26-6.69-1.83-2.33-3.7-4.46-5.37-5.98-1.62-1.52-2.74-2.43-2.74-2.43,0,0,.15-.35.41-.96s.61-1.47,1.01-2.53c.91-2.18,1.98-5.12,3.09-8.26,1.01-3.14,2.13-6.49,2.79-9.08.35-1.32.66-2.38.86-3.19.2-.76.3-1.22.3-1.22,0,0-1.52-.91-3.8-2.13-2.28-1.22-5.48-2.69-8.72-3.85-1.62-.56-3.3-1.12-4.82-1.57-1.57-.41-3.04-.76-4.31-1.01-2.48-.56-4.21-.76-4.21-.76,0,0,.15-1.57.41-3.95.15-2.33.41-5.68.46-9.08v-5.07c-.1-1.67-.15-3.19-.2-4.51-.15-2.74-.35-4.51-.35-4.51l-3.35,3.65s.2,1.72.25,4.36c0,1.27.1,2.79.15,4.36,0,1.57,0,3.3-.05,4.92-.05,3.24-.35,6.49-.56,8.72-.25,2.28-.46,3.8-.46,3.8,0,0,1.72.15,4.21.61,1.27.2,2.69.51,4.26.86,1.52.41,3.14.86,4.82,1.37,3.24,1.06,6.44,2.33,8.72,3.5,2.28,1.12,3.8,1.98,3.8,1.98,0,0-.1.41-.3,1.17-.2.76-.51,1.77-.86,3.04-.66,2.48-1.72,5.73-2.69,8.72-1.12,3.04-2.13,5.88-2.99,7.96-.41,1.01-.71,1.88-.96,2.43s-.41.91-.41.91c0,0,1.17.86,2.79,2.33,1.67,1.42,3.65,3.5,5.58,5.73,1.77,2.23,3.5,4.61,4.51,6.44,1.06,1.83,1.67,3.14,1.67,3.14h2.84s-.56-1.32-1.57-3.24l.05.05Z"/>
            <path class="cls-6" d="m236.63,185.97c-2.28,2.79-4.31,5.68-5.78,7.81-1.42,2.23-2.33,3.7-2.33,3.7,0,0-.35-.3-.96-.81-.66-.51-1.57-1.22-2.69-2.03-2.23-1.62-5.37-3.8-8.67-5.73-3.3-2.03-6.74-3.65-9.48-4.97-2.69-1.17-4.56-1.93-4.56-1.93,0,0-.2.46-.61,1.22-.41.76-.91,1.93-1.47,3.3-.61,1.37-1.27,2.94-1.93,4.66-.66,1.72-1.27,3.55-1.88,5.32-1.22,3.6-2.13,7.2-2.79,9.84-.56,2.64-.91,4.41-.91,4.41,0,0-1.62-.51-4.11-1.12-1.27-.3-2.74-.61-4.31-.91-1.57-.25-3.3-.51-5.02-.76-3.5-.46-6.95-.61-9.63-.66-2.64,0-4.41.1-4.41.1l3.35,3.65h4.36c2.64.15,6.03.35,9.43.91,1.67.25,3.35.56,4.92.91s2.99.71,4.21,1.06c2.43.66,4.01,1.22,4.01,1.22,0,0,.3-1.72.81-4.31.56-2.53,1.42-6.08,2.48-9.58.56-1.77,1.12-3.55,1.72-5.22.61-1.67,1.22-3.19,1.77-4.56.56-1.37,1.01-2.48,1.37-3.24.35-.76.56-1.22.56-1.22,0,0,1.83.76,4.41,1.98,2.64,1.37,5.93,3.04,9.13,5.12,3.19,1.98,6.19,4.16,8.31,5.78,1.06.81,1.93,1.52,2.54,2.03.61.51.96.81.96.81,0,0,.81-1.47,2.18-3.65,1.37-2.13,3.3-5.02,5.42-7.81,2.13-2.74,4.46-5.53,6.34-7.4,1.83-1.93,3.14-3.19,3.14-3.19v-5.32s-1.37,1.27-3.3,3.19c-1.93,1.88-4.41,4.61-6.64,7.35l.05.05Z"/>
            <path class="cls-6" d="m168.09,224.8c0-1.62-.05-3.35-.05-4.92s.1-3.09.15-4.36c.1-2.64.25-4.36.25-4.36l-3.35-3.65s-.2,1.77-.35,4.51c-.05,1.32-.15,2.84-.2,4.51v5.07c0,3.4.25,6.69.46,9.08.25,2.38.41,3.95.41,3.95,0,0-1.72.2-4.21.76-1.27.25-2.74.61-4.31,1.01-1.52.46-3.19.96-4.82,1.57-3.24,1.17-6.44,2.59-8.72,3.85-2.28,1.22-3.8,2.13-3.8,2.13,0,0,.1.46.3,1.22.2.76.51,1.88.86,3.19.66,2.59,1.77,5.93,2.79,9.08,1.17,3.19,2.18,6.13,3.09,8.26.41,1.06.76,1.93,1.01,2.53.25.61.41.96.41.96,0,0-1.12.91-2.74,2.43-1.62,1.52-3.55,3.65-5.37,5.98-1.72,2.33-3.35,4.77-4.26,6.69-1.01,1.93-1.57,3.24-1.57,3.24h2.84s.61-1.27,1.67-3.14c1.01-1.88,2.74-4.21,4.51-6.44,1.93-2.23,3.85-4.31,5.58-5.73,1.67-1.42,2.79-2.33,2.79-2.33,0,0-.15-.35-.41-.91-.25-.61-.56-1.42-.96-2.43-.86-2.08-1.88-4.92-2.99-7.96-.96-2.99-2.08-6.24-2.69-8.72-.35-1.27-.66-2.33-.86-3.04-.2-.76-.3-1.17-.3-1.17,0,0,1.52-.86,3.8-1.98,2.28-1.17,5.48-2.43,8.72-3.5,1.62-.51,3.3-.96,4.82-1.37,1.57-.35,3.04-.66,4.26-.86,2.48-.46,4.21-.61,4.21-.61,0,0-.2-1.52-.46-3.8-.2-2.28-.51-5.48-.56-8.72l.05-.05Z"/>
          </g>
          <path class="cls-5" d="m157.95,244.07s-2.48.76-4.87,1.72c-2.38.96-4.72,2.13-4.72,2.13,0,0,.15.61.46,1.57.25.91.61,2.13.96,3.35.35,1.17.71,2.38,1.01,3.24.3.86.51,1.42.51,1.42,0,0,.35-.86.86-2.18.61-1.27,1.37-2.99,2.18-4.66.91-1.67,1.72-3.35,2.43-4.56.71-1.22,1.17-2.03,1.17-2.03Z"/>
          <path class="cls-6" d="m136.4,274.44s.35-.46.91-1.22c.56-.71,1.32-1.62,2.18-2.53,1.67-1.77,3.45-3.45,3.45-3.45,0,0-.96-2.28-1.88-4.61-.51-1.22-.91-2.38-1.27-3.3s-.56-1.57-.56-1.57c0,0-.25,1.01-.66,2.59-.35,1.52-.76,3.65-1.17,5.68-.3,2.08-.61,4.16-.81,5.73-.15,1.57-.2,2.64-.2,2.64v.05Z"/>
          <path class="cls-6" d="m148.97,234.08s.66-.2,1.57-.56c.96-.35,2.23-.76,3.55-1.12s2.64-.71,3.6-.91c.96-.25,1.67-.35,1.67-.35,0,0-.25-2.74-.51-5.48-.15-2.74-.25-5.63-.25-5.63,0,0-.66.86-1.67,2.08s-2.23,2.99-3.45,4.72c-1.22,1.77-2.33,3.6-3.19,4.92-.81,1.37-1.32,2.33-1.32,2.33Z"/>
          <g>
            <path class="cls-4" d="m315.52,215.42c-2.79.3-5.48.71-5.48.71,0,0,1.47,1.17,2.94,2.28,1.42,1.17,2.84,2.43,2.84,2.43l5.27-5.78s-2.79.05-5.58.35Z"/>
            <path class="cls-4" d="m250.47,190.83c-1.88-2.18-3.85-4.31-3.85-4.31v8.37s1.88.1,3.75.15c.91,0,1.88.05,2.53.15.71.05,1.17.1,1.17.1,0,0-.46-.56-1.06-1.42-.66-.86-1.57-1.98-2.48-3.04h-.05Z"/>
            <path class="cls-4" d="m350.71,283.57c-.61-.96-1.37-1.88-1.93-2.53s-.91-1.12-.91-1.12c0,0,.05.46.15,1.17s.25,1.67.3,2.59c.15,1.93.35,3.8.35,3.8h4.51s-1.17-2.03-2.43-3.9h-.05Z"/>
            <path class="cls-4" d="m321.2,216.84c-.05-1.06-.1-1.72-.1-1.72l-5.27,5.78s.35.3.86.76,1.17,1.12,1.88,1.72c.66.66,1.37,1.27,1.88,1.77.51.51.81.86.81.86,0,0,0-.66.05-1.67v-3.7c0-1.37,0-2.74-.1-3.8h0Z"/>
            <path class="cls-4" d="m172.09,215.12l5.27,5.78s1.42-1.22,2.84-2.43c1.47-1.17,2.94-2.28,2.94-2.28,0,0-2.69-.46-5.48-.71-2.74-.25-5.58-.35-5.58-.35Z"/>
            <path class="cls-4" d="m240.23,193.88c-.66.86-1.06,1.42-1.06,1.42,0,0,.46,0,1.17-.1.71-.05,1.62-.15,2.54-.15,1.88-.1,3.75-.15,3.75-.15v-8.37s-2.03,2.13-3.85,4.31c-.91,1.06-1.83,2.18-2.48,3.04h-.05Z"/>
            <path class="cls-4" d="m142.48,283.57c-1.32,1.88-2.43,3.9-2.43,3.9h4.51s.15-1.93.35-3.8c.05-.96.2-1.88.3-2.59.1-.71.15-1.17.15-1.17,0,0-.35.46-.91,1.12s-1.27,1.62-1.93,2.53h-.05Z"/>
            <path class="cls-4" d="m171.99,216.84c0,1.06-.05,2.43-.1,3.8v3.7c0,1.01.05,1.67.05,1.67,0,0,.3-.35.81-.86s1.17-1.12,1.88-1.77c.66-.66,1.37-1.27,1.88-1.72s.86-.76.86-.76l-5.27-5.78s0,.71-.1,1.72Z"/>
          </g>
        </g>
        <g>
          <g>
            <path class="cls-1" d="m142.94,307.29c0,1.47-1.22,2.69-2.69,2.69h0c-1.47,0-2.69-1.22-2.69-2.69v-17.09c0-1.47,1.22-2.69,2.69-2.69h0c1.47,0,2.69,1.22,2.69,2.69v17.09Z"/>
            <g>
              <path class="cls-5" d="m140.25,507s19.77-22.71,20.23-69.92c.46-47.15-20.23-108.9-20.23-108.9,0,0-20.69,61.75-20.23,108.9.46,47.2,20.23,69.92,20.23,69.92Z"/>
              <path class="cls-4" d="m120.73,450.57c9.18-14.2,16.98-24.49,19.52-27.78,2.54,3.3,10.34,13.59,19.52,27.78.1-1.22.2-2.43.3-3.65-10.49-16.02-18.86-26.52-18.96-26.67l-.86-1.12-.86,1.12s-8.47,10.65-18.96,26.67c.1,1.22.2,2.43.3,3.65Z"/>
              <path class="cls-13" d="m140.25,314.34s-4.21,13.13-4.31,40.36c-.1,27.23,4.31,62.87,4.31,62.87,0,0,4.41-35.64,4.31-62.87-.1-27.23-4.31-40.36-4.31-40.36Z"/>
              <path class="cls-8" d="m159.11,456.65c-10.09-16.22-18.81-27.18-18.81-27.18,0,0-8.77,11-18.86,27.18,4.56,33.87,18.86,50.35,18.86,50.35,0,0,14.25-16.43,18.81-50.35Z"/>
              <path class="cls-12" d="m120.02,437.08c.46,47.2,20.23,69.92,20.23,69.92v-178.82s-20.69,61.75-20.23,108.9Z"/>
            </g>
            <path class="cls-8" d="m148.31,328.49c0,2.79-2.28,5.07-5.07,5.07h-5.98c-2.79,0-5.07-2.28-5.07-5.07h0c0-2.79,2.28-5.07,5.07-5.07h5.98c2.79,0,5.07,2.28,5.07,5.07h0Z"/>
            <path class="cls-1" d="m154.04,318.35c0,2.79-2.28,5.07-5.07,5.07h-17.44c-2.79,0-5.07-2.28-5.07-5.07h0c0-2.79,2.28-5.07,5.07-5.07h17.44c2.79,0,5.07,2.28,5.07,5.07h0Z"/>
            <path class="cls-8" d="m148.31,308.15c0,2.79-2.28,5.07-5.07,5.07h-5.98c-2.79,0-5.07-2.28-5.07-5.07h0c0-2.79,2.28-5.07,5.07-5.07h5.98c2.79,0,5.07,2.28,5.07,5.07h0Z"/>
          </g>
          <g>
            <path class="cls-1" d="m129.05,303.69c-.46,1.17-1.77,1.72-2.89,1.27h0c-1.17-.46-1.72-1.77-1.27-2.89l5.22-13.18c.46-1.17,1.77-1.72,2.89-1.27h0c1.17.46,1.67,1.72,1.27,2.89l-5.22,13.18Z"/>
            <g>
              <path class="cls-6" d="m65.77,456.71s22.21-11.46,37.01-47.66c14.8-36.2,17.85-90.09,17.85-90.09,0,0-34.83,41.22-48.98,77.67-14.09,36.45-5.88,60.03-5.88,60.03v.05Z"/>
              <path class="cls-9" d="m68,407.27c11.41-8.11,20.58-13.69,23.58-15.41.96,3.3,3.8,13.64,6.49,27.38.46-.86.91-1.77,1.32-2.74-3.14-15.56-6.39-26.21-6.44-26.31l-.35-1.12-1.01.56s-9.79,5.58-22.76,14.7c-.3.96-.61,1.93-.91,2.89l.1.05Z"/>
              <path class="cls-13" d="m124.84,308.31s-7.25,8.82-15.67,29.76c-8.42,20.94-15.97,49.74-15.97,49.74,0,0,14.3-26.11,22.61-47.1,8.26-20.99,9.08-32.4,9.08-32.4h-.05Z"/>
              <path class="cls-1" d="m95.69,423.7c-2.79-15.56-6.19-26.72-6.19-26.72,0,0-10.14,5.78-22.87,15.16-6.9,27.48-.91,44.51-.91,44.51,0,0,16.02-8.26,29.91-32.96h.05Z"/>
              <path class="cls-12" d="m71.6,396.63c-14.09,36.45-5.88,60.03-5.88,60.03l54.81-137.7s-34.83,41.22-48.98,77.67h.05Z"/>
            </g>
            <path class="cls-8" d="m126.71,321.69c-.86,2.18-3.3,3.19-5.48,2.33l-4.61-1.83c-2.18-.86-3.19-3.3-2.33-5.48h0c.86-2.18,3.3-3.19,5.48-2.33l4.61,1.83c2.18.86,3.19,3.3,2.33,5.48h0Z"/>
            <path class="cls-1" d="m134.22,315.61c-.86,2.18-3.3,3.19-5.48,2.33l-13.44-5.32c-2.18-.86-3.19-3.3-2.33-5.48h0c.86-2.18,3.3-3.19,5.48-2.33l13.44,5.32c2.18.86,3.19,3.3,2.33,5.48h0Z"/>
            <path class="cls-8" d="m132.95,306.03c-.86,2.18-3.3,3.19-5.48,2.33l-4.61-1.83c-2.18-.86-3.19-3.3-2.33-5.48h0c.86-2.18,3.3-3.19,5.48-2.33l4.61,1.83c2.18.86,3.19,3.3,2.33,5.48h0Z"/>
          </g>
          <path class="cls-1" d="m156.12,288.08c0,1.57-1.27,2.84-2.84,2.84h-26.06c-1.57,0-2.84-1.27-2.84-2.84h0c0-1.57,1.27-2.84,2.84-2.84h26.06c1.57,0,2.84,1.27,2.84,2.84h0Z"/>
          <g>
            <path class="cls-1" d="m350.25,307.29c0,1.47,1.22,2.69,2.69,2.69h0c1.47,0,2.69-1.22,2.69-2.69v-17.09c0-1.47-1.22-2.69-2.69-2.69h0c-1.47,0-2.69,1.22-2.69,2.69v17.09Z"/>
            <g>
              <path class="cls-5" d="m352.94,507s-19.77-22.71-20.23-69.92c-.46-47.15,20.23-108.9,20.23-108.9,0,0,20.69,61.75,20.23,108.9-.46,47.2-20.23,69.92-20.23,69.92Z"/>
              <path class="cls-4" d="m372.46,450.57c-9.18-14.2-16.98-24.49-19.52-27.78-2.53,3.3-10.34,13.59-19.52,27.78-.1-1.22-.2-2.43-.3-3.65,10.49-16.02,18.86-26.52,18.96-26.67l.86-1.12.86,1.12s8.47,10.65,18.96,26.67c-.1,1.22-.2,2.43-.3,3.65Z"/>
              <path class="cls-13" d="m352.94,314.34s4.21,13.13,4.31,40.36c.1,27.23-4.31,62.87-4.31,62.87,0,0-4.41-35.64-4.31-62.87.1-27.23,4.31-40.36,4.31-40.36Z"/>
              <path class="cls-8" d="m334.08,456.65c10.09-16.22,18.81-27.18,18.81-27.18,0,0,8.77,11,18.86,27.18-4.56,33.87-18.86,50.35-18.86,50.35,0,0-14.25-16.43-18.81-50.35Z"/>
              <path class="cls-12" d="m373.17,437.08c-.46,47.2-20.23,69.92-20.23,69.92v-178.82s20.69,61.75,20.23,108.9Z"/>
            </g>
            <path class="cls-8" d="m344.88,328.49c0,2.79,2.28,5.07,5.07,5.07h5.98c2.79,0,5.07-2.28,5.07-5.07h0c0-2.79-2.28-5.07-5.07-5.07h-5.98c-2.79,0-5.07,2.28-5.07,5.07h0Z"/>
            <path class="cls-1" d="m339.15,318.35c0,2.79,2.28,5.07,5.07,5.07h17.44c2.79,0,5.07-2.28,5.07-5.07h0c0-2.79-2.28-5.07-5.07-5.07h-17.44c-2.79,0-5.07,2.28-5.07,5.07h0Z"/>
            <path class="cls-8" d="m344.88,308.15c0,2.79,2.28,5.07,5.07,5.07h5.98c2.79,0,5.07-2.28,5.07-5.07h0c0-2.79-2.28-5.07-5.07-5.07h-5.98c-2.79,0-5.07,2.28-5.07,5.07h0Z"/>
          </g>
          <g>
            <path class="cls-1" d="m364.09,303.69c.46,1.17,1.77,1.72,2.89,1.27h0c1.17-.46,1.72-1.77,1.27-2.89l-5.22-13.18c-.46-1.17-1.77-1.72-2.89-1.27h0c-1.17.46-1.67,1.72-1.27,2.89l5.22,13.18Z"/>
            <g>
              <path class="cls-6" d="m427.42,456.71s-22.21-11.46-37.01-47.66c-14.8-36.2-17.85-90.09-17.85-90.09,0,0,34.83,41.22,48.98,77.67,14.09,36.45,5.88,60.03,5.88,60.03v.05Z"/>
              <path class="cls-9" d="m425.14,407.27c-11.41-8.11-20.58-13.69-23.58-15.41-.96,3.3-3.8,13.64-6.49,27.38-.46-.86-.91-1.77-1.32-2.74,3.14-15.56,6.39-26.21,6.44-26.31l.35-1.12,1.01.56s9.79,5.58,22.76,14.7c.3.96.61,1.93.91,2.89l-.1.05Z"/>
              <path class="cls-13" d="m368.35,308.31s7.25,8.82,15.67,29.76c8.42,20.94,15.97,49.74,15.97,49.74,0,0-14.3-26.11-22.61-47.1-8.26-20.99-9.08-32.4-9.08-32.4h.05Z"/>
              <path class="cls-1" d="m397.5,423.7c2.79-15.56,6.19-26.72,6.19-26.72,0,0,10.14,5.78,22.87,15.16,6.9,27.48.91,44.51.91,44.51,0,0-16.02-8.26-29.91-32.96h-.05Z"/>
              <path class="cls-12" d="m421.54,396.63c14.09,36.45,5.88,60.03,5.88,60.03l-54.81-137.7s34.83,41.22,48.98,77.67h-.05Z"/>
            </g>
            <path class="cls-8" d="m366.48,321.69c.86,2.18,3.3,3.19,5.48,2.33l4.61-1.83c2.18-.86,3.19-3.3,2.33-5.48h0c-.86-2.18-3.3-3.19-5.48-2.33l-4.61,1.83c-2.18.86-3.19,3.3-2.33,5.48h0Z"/>
            <path class="cls-1" d="m358.97,315.61c.86,2.18,3.3,3.19,5.48,2.33l13.44-5.32c2.18-.86,3.19-3.3,2.33-5.48h0c-.86-2.18-3.3-3.19-5.48-2.33l-13.44,5.32c-2.18.86-3.19,3.3-2.33,5.48h0Z"/>
            <path class="cls-8" d="m360.24,306.03c.86,2.18,3.3,3.19,5.48,2.33l4.61-1.83c2.18-.86,3.19-3.3,2.33-5.48h0c-.86-2.18-3.3-3.19-5.48-2.33l-4.61,1.83c-2.18.86-3.19,3.3-2.33,5.48h0Z"/>
          </g>
          <path class="cls-1" d="m337.07,288.08c0,1.57,1.27,2.84,2.84,2.84h26.06c1.57,0,2.84-1.27,2.84-2.84h0c0-1.57-1.27-2.84-2.84-2.84h-26.06c-1.57,0-2.84,1.27-2.84,2.84h0Z"/>
        </g>
      </g>
    </g>
  </g>
</svg>