<?xml version="1.0" encoding="UTF-8"?>
<svg xmlns="http://www.w3.org/2000/svg" viewBox="0 0 500 575">
  <defs>
    <style>
      .cls-1 {
        fill: #65ccaa;
      }

      .cls-1, .cls-2, .cls-3, .cls-4, .cls-5, .cls-6, .cls-7, .cls-8, .cls-9, .cls-10 {
        stroke-width: 0px;
      }

      .cls-2 {
        fill: #262626;
      }

      .cls-3 {
        fill: #241816;
      }

      .cls-4 {
        fill: #fff;
      }

      .cls-5 {
        fill: #5da0ff;
      }

      .cls-6 {
        fill: #f9d6bd;
      }

      .cls-7 {
        fill: #eac2aa;
      }

      .cls-8 {
        fill: #55b595;
      }

      .cls-9 {
        fill: #e7d8b4;
      }

      .cls-10 {
        fill: #cf9e76;
      }

      .cls-11 {
        fill: #fcd770;
        stroke: #000;
        stroke-miterlimit: 10;
      }
    </style>
  </defs>
  <g id="Capa_1" data-name="Capa 1">
    <g>
      <path class="cls-9" d="m250,573c-66.51,0-129.04-25.9-176.07-72.93C26.9,453.04,1,390.51,1,324s25.9-129.04,72.93-176.07c47.03-47.03,109.56-72.93,176.07-72.93s129.04,25.9,176.07,72.93c47.03,47.03,72.93,109.56,72.93,176.07s-25.9,129.04-72.93,176.07c-47.03,47.03-109.56,72.93-176.07,72.93Z"/>
      <path class="cls-3" d="m250,76c33.48,0,65.96,6.56,96.53,19.49,29.53,12.49,56.05,30.37,78.83,53.15,22.78,22.78,40.66,49.3,53.15,78.83,12.93,30.57,19.49,63.05,19.49,96.53s-6.56,65.96-19.49,96.53c-12.49,29.53-30.37,56.05-53.15,78.83-22.78,22.78-49.3,40.66-78.83,53.15-30.57,12.93-63.05,19.49-96.53,19.49s-65.96-6.56-96.53-19.49c-29.53-12.49-56.05-30.37-78.83-53.15-22.78-22.78-40.66-49.3-53.15-78.83-12.93-30.57-19.49-63.05-19.49-96.53s6.56-65.96,19.49-96.53c12.49-29.53,30.37-56.05,53.15-78.83s49.3-40.66,78.83-53.15c30.57-12.93,63.05-19.49,96.53-19.49m0-2C111.93,74,0,185.93,0,324s111.93,250,250,250,250-111.93,250-250-111.93-250-250-250h0Z"/>
    </g>
  </g>
  <g id="Capa_2" data-name="Capa 2">
    <g>
      <path class="cls-7" d="m422.07,209.48c-2.12,0-3.84-1.72-3.84-3.84,0-.79.25-1.57.71-2.22l6.6-9.31-4.81,2.79c-1.83,1.06-4.18.44-5.24-1.39-.85-1.46-.64-3.3.51-4.54l10.47-11.29-8.96,5.17c-1.84,1.05-4.18.41-5.23-1.43-.9-1.58-.57-3.58.79-4.78l4.9-4.27-2.84,1.64c-1.83,1.06-4.18.43-5.24-1.4-.92-1.6-.58-3.63.83-4.83l9.33-7.99-7.59,4.38c-1.84,1.06-4.18.43-5.24-1.41-.9-1.57-.59-3.56.76-4.77l19.2-17.24-18.23,10.52c-1.82,1.09-4.17.51-5.27-1.31-.93-1.55-.66-3.54.66-4.78l30.89-29.74c-.08-.11-.15-.22-.21-.35-1.06-1.83-.43-4.17,1.4-5.23l11.95-6.91c1.82-1.09,4.17-.51,5.27,1.31.93,1.55.66,3.54-.66,4.78l-20.61,19.89,22.9-13.26c1.84-1.06,4.18-.43,5.24,1.41.9,1.57.59,3.56-.76,4.77l-19.24,17.26,11.51-6.65c1.84-1.05,4.18-.4,5.23,1.44.9,1.59.56,3.59-.82,4.79l-9.3,7.98,1.43-.82c1.84-1.05,4.18-.42,5.24,1.42.91,1.59.57,3.59-.8,4.79l-6.68,5.8c1.21-.02,2.36.51,3.13,1.44,1.18,1.48,1.11,3.61-.18,5l-11.01,11.91c2.09-.34,4.06,1.08,4.4,3.17.16,1-.07,2.02-.66,2.84l-11.91,16.78h0c1.06,1.83.43,4.17-1.4,5.23l-4.69,2.71c-.58.34-1.24.53-1.91.53Z"/>
      <path class="cls-6" d="m402.23,224.54c-2.12,0-3.84-1.72-3.84-3.84,0-.99.38-1.93,1.06-2.65l1.53-1.57-1.1.63c-1.84,1.05-4.18.42-5.24-1.42-.81-1.42-.64-3.2.43-4.43l7.67-8.72-8.77,5.06c-1.83,1.08-4.18.47-5.25-1.36-.92-1.56-.62-3.56.72-4.78l2.55-2.36-2.42,1.4c-1.84,1.05-4.18.4-5.23-1.44-.82-1.44-.62-3.25.5-4.48l11.26-12.12-13.04,7.53c-1.84,1.05-4.18.41-5.24-1.42-.84-1.46-.62-3.29.52-4.52l12.64-13.41-14.69,8.44c-1.83,1.06-4.18.44-5.24-1.39-.94-1.61-.58-3.66.85-4.86l.53-.44-.22.12c-1.84,1.06-4.18.43-5.24-1.41-.45-.77-.61-1.68-.46-2.55l1-5.95-1.07.61c-1.88.98-4.2.26-5.18-1.62-.92-1.77-.34-3.95,1.34-5.02l8.13-4.7c1.84-1.06,4.18-.43,5.24,1.41.45.77.61,1.68.46,2.55l-1,5.95,30.81-17.81c1.83-1.07,4.18-.45,5.25,1.38.94,1.62.58,3.68-.86,4.88l-.6.49c1.93-.87,4.2,0,5.07,1.92.64,1.42.36,3.08-.71,4.21l-12.62,13.44,12.53-7.24c1.83-1.06,4.18-.44,5.24,1.39.85,1.46.64,3.3-.51,4.54l-11.26,12.12,9.74-5.62c1.83-1.08,4.18-.47,5.25,1.36.92,1.56.62,3.56-.72,4.78l-2.63,2.45c1.94-.85,4.2.04,5.05,1.98.6,1.37.35,2.95-.64,4.07l-7.67,8.73,4.07-2.35c1.84-1.05,4.18-.41,5.23,1.43.84,1.47.62,3.31-.54,4.53l-2.65,2.79c1.37.08,2.63.79,3.41,1.92,1.05,1.83.43,4.17-1.4,5.23l-20.13,11.62c-.58.33-1.24.5-1.91.49Z"/>
      <path class="cls-7" d="m73.32,204.59c-2.12,0-3.84-1.72-3.84-3.84,0-.71.2-1.41.57-2.01l5.37-8.72-6.45,3.72c-1.83,1.06-4.18.44-5.24-1.39-.79-1.37-.67-3.08.32-4.32l12.38-15.67-14.03,8.12c-1.81,1.1-4.17.53-5.27-1.28-.96-1.58-.66-3.62.72-4.85l11.75-11.05-11.51,6.63c-1.83,1.06-4.18.44-5.24-1.4-.81-1.4-.66-3.17.39-4.4l14.23-16.76-14.15,8.16c-1.86,1.01-4.19.32-5.2-1.54-.8-1.47-.55-3.28.6-4.48l4.78-4.8-2.66,1.53c-1.86,1.01-4.19.32-5.2-1.54-.8-1.47-.55-3.28.6-4.48l1.49-1.5c-2.09.35-4.07-1.06-4.41-3.15-.18-1.06.1-2.14.75-2.98l3.61-4.6-.64.36c-1.84,1.05-4.18.42-5.24-1.42-.65-1.14-.68-2.54-.07-3.7l2.98-5.61c-1.45.15-2.85-.61-3.52-1.91-1.06-1.83-.44-4.18,1.4-5.24l9.45-5.51c1.84-1.05,4.18-.42,5.24,1.42.65,1.14.68,2.54.07,3.7l-2.61,4.9,6.14-3.53c1.83-1.06,4.18-.44,5.24,1.4.78,1.35.67,3.05-.29,4.28l-3.67,4.61,6.06-3.5c1.86-1.01,4.19-.32,5.2,1.54.8,1.47.55,3.28-.6,4.48l-.84.84,2.61-1.5c1.86-1.01,4.19-.32,5.2,1.54.8,1.47.55,3.28-.6,4.48l-4.76,4.8,8.31-4.73c1.84-1.05,4.18-.42,5.24,1.42.8,1.4.64,3.15-.39,4.38l-14.2,16.77,20.81-12.01c1.81-1.1,4.17-.53,5.27,1.28.96,1.58.66,3.62-.72,4.85l-11.73,11.03,3.07-1.75c1.84-1.05,4.18-.41,5.23,1.43.77,1.35.65,3.04-.31,4.27l-12.43,15.64,2.11-1.21c1.52-.9,3.45-.63,4.66.64,1.22,1.26,1.43,3.19.51,4.68l-6.63,10.81c.96.27,1.77.91,2.26,1.77,1.05,1.83.43,4.17-1.4,5.23l-8.84,5.1c-.58.35-1.24.54-1.92.55Z"/>
      <path class="cls-6" d="m94.39,229.21c-2.12,0-3.84-1.72-3.84-3.84,0-.8.25-1.59.72-2.24l6.14-8.55-9.67,5.58c-1.84,1.06-4.18.43-5.24-1.41-.87-1.52-.61-3.43.64-4.65l18.71-18.25-20.72,11.97c-1.83,1.07-4.18.44-5.25-1.39-.98-1.68-.55-3.82,1-4.99l8.91-6.78-4.03,2.3c-1.84,1.05-4.18.41-5.23-1.43-.94-1.65-.53-3.75.97-4.92l4.99-3.84c-2.01.66-4.18-.44-4.84-2.45-.43-1.31-.12-2.75.8-3.77l14.69-16.08-5.16,2.98c-1.51.87-3.42.62-4.64-.62-1.23-1.24-1.47-3.15-.58-4.66l9.17-15.44c-.09-.11-.16-.23-.23-.36-1.06-1.83-.45-4.17,1.38-5.24l4.13-2.38c1.83-1.06,4.18-.44,5.24,1.4.69,1.2.69,2.68-.02,3.87l-5.61,9.46,13.99-8.07c1.84-1.05,4.18-.4,5.23,1.44.82,1.44.62,3.24-.48,4.46l-14.68,16.07,26.54-15.35c1.85-1.04,4.19-.38,5.22,1.47.92,1.64.51,3.71-.96,4.88l-4.5,3.48,7.34-4.24c1.84-1.05,4.18-.41,5.23,1.44.95,1.66.52,3.77-1,4.94l-12.31,9.38c2.12.01,3.83,1.74,3.81,3.86,0,1.03-.42,2.01-1.16,2.72l-19.12,18.64c2.05-.53,4.14.71,4.67,2.76.28,1.11.06,2.28-.61,3.21l-12.44,17.3c.68,1.76-.03,3.75-1.66,4.7l-3.64,2.09c-.58.34-1.25.52-1.93.52Z"/>
      <path class="cls-8" d="m185.2,556.53c-2.12,0-3.84-1.72-3.84-3.84,0-1.1.47-2.14,1.29-2.87l14.16-12.58-30.38,17.53c-1.85,1.04-4.19.38-5.22-1.47-.89-1.59-.54-3.58.83-4.78l30.06-25.39-40.95,23.65c-1.84,1.06-4.18.43-5.24-1.41-.93-1.62-.57-3.68.87-4.87l27.41-22.64-31.63,18.27c-1.84,1.06-4.18.43-5.24-1.41-.92-1.6-.57-3.62.82-4.82l15.02-12.51-14.49,8.37c-1.81,1.1-4.17.53-5.27-1.28-.96-1.58-.66-3.62.72-4.85l8.68-8.18-4.99,2.88c-1.84,1.06-4.18.43-5.24-1.41-.46-.81-.62-1.75-.44-2.67l2.52-12.63c-2.01-.68-3.08-2.86-2.39-4.87.3-.88.91-1.62,1.71-2.08l3.84-2.23c1.84-1.06,4.18-.43,5.24,1.41.46.8.62,1.75.44,2.66l-2.19,10.93,26.09-15.08c1.82-1.09,4.17-.5,5.26,1.32.94,1.57.64,3.59-.72,4.82l-8.65,8.14,24.84-14.34c1.84-1.06,4.18-.42,5.24,1.41.93,1.61.56,3.66-.86,4.86l-15.02,12.51,32.61-18.83c1.83-1.06,4.18-.44,5.24,1.4.94,1.63.57,3.69-.88,4.89l-27.38,22.66,38.54-22.25c1.84-1.05,4.18-.41,5.23,1.43.92,1.6.56,3.63-.85,4.83l-30.06,25.37,25.64-14.79c1.84-1.05,4.18-.4,5.23,1.44.89,1.57.57,3.54-.77,4.75l-14.16,12.59,6.31-3.64c1.84-1.05,4.18-.4,5.23,1.44,1.04,1.82.42,4.15-1.4,5.21l-38.92,22.43c-.58.35-1.24.53-1.92.54Z"/>
      <path class="cls-8" d="m309.77,556.4c-2.12,0-3.84-1.72-3.84-3.84,0-1.21.57-2.34,1.53-3.07l3.84-2.86-11.45,6.6c-1.85,1.04-4.19.38-5.22-1.47-.94-1.67-.5-3.78,1.03-4.94l12.75-9.41-17.99,10.39c-1.83,1.06-4.18.43-5.24-1.4-.98-1.69-.53-3.85,1.05-5.01l15.64-11.47-18.41,10.64c-1.84,1.06-4.18.42-5.24-1.42-.91-1.59-.57-3.6.81-4.81l22.14-19.18-23.59,13.62c-1.84,1.05-4.18.4-5.23-1.44-.8-1.42-.63-3.18.44-4.41l14.27-16.11-11.13,6.43c-1.84,1.06-4.18.43-5.24-1.41-.47-.82-.62-1.78-.43-2.7l2.44-11.51c-.85-.3-1.56-.9-2-1.69-1.06-1.83-.43-4.17,1.4-5.23l3.84-2.23c1.84-1.06,4.18-.43,5.24,1.41.47.82.62,1.78.43,2.7l-2.06,9.71,24.11-13.91c1.84-1.05,4.18-.42,5.24,1.42.81,1.42.64,3.21-.45,4.44l-14.28,16.11,38.21-22.06c1.84-1.06,4.18-.42,5.24,1.42.91,1.59.57,3.6-.81,4.81l-22.17,19.18,44.06-25.44c1.83-1.06,4.18-.43,5.24,1.4.98,1.69.53,3.85-1.05,5.01l-15.63,11.46,16.44-9.48c1.84-1.05,4.18-.42,5.24,1.42.97,1.68.52,3.83-1.04,4.98l-12.79,9.43,8.58-4.96c1.84-1.04,4.19-.39,5.23,1.45.94,1.67.51,3.78-1.01,4.94l-4.17,3.12c1.99-.73,4.19.28,4.93,2.27.53,1.44.15,3.07-.97,4.12l-10.2,9.56c1.67-.43,3.41.31,4.27,1.8,1.05,1.83.43,4.17-1.4,5.23l-27.28,15.76c-1.81,1.1-4.17.53-5.27-1.28-.96-1.58-.66-3.62.72-4.85l9.76-9.16-26.6,15.35c-.58.36-1.24.56-1.92.58Z"/>
      <path class="cls-8" d="m73.79,426.1c-2.12,0-3.84-1.71-3.84-3.83,0-.48.09-.95.26-1.4l4.51-11.65-24.68,14.23c-1.84,1.06-4.18.43-5.24-1.41-.86-1.49-.62-3.36.58-4.59l14.65-14.92-21.81,12.55c-1.85,1.04-4.19.38-5.22-1.47-.88-1.56-.56-3.52.77-4.73l17.26-15.22-18.95,10.96c-1.83,1.07-4.18.46-5.25-1.36-.96-1.63-.59-3.71.88-4.91l18-15-15.25,8.81c-1.84,1.05-4.18.42-5.24-1.42-.91-1.59-.57-3.59.8-4.79l24.29-21.14-18.94,10.94c-1.85,1.04-4.19.38-5.22-1.46-.9-1.59-.54-3.6.84-4.79l20.03-16.83-13.41,7.76c-1.85,1.03-4.19.36-5.22-1.49-.91-1.65-.5-3.71.98-4.88l5.29-4.03c-2.1.26-4.02-1.24-4.27-3.35-.16-1.29.35-2.57,1.35-3.41l15.85-13.34-6.23,3.59c-1.86,1.02-4.19.34-5.21-1.51-.84-1.53-.55-3.42.71-4.63l17.65-16.04-2.99,1.72c-1.66.96-3.77.54-4.95-.97-1.18-1.52-1.05-3.67.3-5.04l23.06-23.43c-.09-.12-.17-.24-.24-.37-1.05-1.83-.43-4.17,1.4-5.23l10.58-6.14c1.84-1.06,4.18-.43,5.24,1.41.86,1.49.62,3.38-.59,4.61l-14.09,14.32,9.28-5.37c1.86-1.02,4.19-.34,5.21,1.51.84,1.53.55,3.42-.71,4.63l-17.65,16.04,12.97-7.49c1.83-1.07,4.18-.45,5.25,1.38.94,1.62.58,3.68-.86,4.88l-15.82,13.37,11.29-6.52c1.84-1.04,4.18-.39,5.23,1.45.94,1.66.52,3.75-.99,4.92l-3.73,2.85c1.99-.73,4.19.28,4.93,2.27.56,1.53.1,3.25-1.16,4.29l-20,16.8,15.45-8.93c1.84-1.05,4.18-.42,5.24,1.42.91,1.59.57,3.59-.8,4.79l-24.31,21.15,19.7-11.38c1.83-1.07,4.18-.46,5.25,1.36.96,1.63.59,3.71-.88,4.91l-18.02,14.98,13.5-7.79c1.84-1.05,4.18-.41,5.23,1.43.9,1.58.57,3.57-.78,4.77l-17.27,15.2,12.67-7.32c1.84-1.05,4.18-.41,5.23,1.43.84,1.48.61,3.34-.58,4.57l-14.67,14.99,9.83-5.68c1.83-1.06,4.18-.44,5.24,1.39.59,1.01.68,2.23.26,3.32l-4.6,11.91c2.07-.46,4.12.84,4.58,2.91.37,1.64-.37,3.32-1.83,4.16l-8.23,4.73c-.58.34-1.24.53-1.92.54Z"/>
      <path class="cls-8" d="m421.52,426.33c-2.12,0-3.84-1.71-3.85-3.83,0-1.17.53-2.28,1.45-3.01l11.43-9.12-8.97,5.18c-1.83,1.06-4.18.43-5.24-1.4-.92-1.6-.58-3.63.83-4.83l20.4-17.51-16.17,9.34c-1.84,1.04-4.18.39-5.23-1.45-.94-1.66-.52-3.75.99-4.92l3.77-2.88c-1.93.88-4.2.03-5.08-1.9-.72-1.58-.29-3.45,1.05-4.55l13.4-11.07-9.16,5.29c-1.85,1.03-4.19.37-5.22-1.48-.89-1.6-.53-3.61.87-4.8l9.93-8.17-5.72,3.3c-1.85,1.03-4.19.37-5.22-1.48-.85-1.53-.56-3.45.71-4.65l15.59-14.29-11.29,6.51c-1.83,1.06-4.18.44-5.24-1.39-.9-1.55-.6-3.53.72-4.75l12.08-11.12-7.71,4.44c-1.83,1.07-4.18.45-5.25-1.39-.83-1.42-.66-3.21.42-4.45l14.78-17.11-10.17,5.87c-1.84,1.05-4.18.41-5.23-1.43-.77-1.35-.65-3.04.31-4.26l9.5-12.03-4.76,2.75c-1.84,1.05-4.18.41-5.23-1.44-.62-1.08-.67-2.4-.14-3.53l6.09-12.84-.92.52c-1.84,1.06-4.18.43-5.24-1.41-.4-.7-.57-1.5-.49-2.3l1.08-10.61c-.31-.27-.57-.59-.77-.94-1.07-1.83-.45-4.18,1.38-5.25,0,0,0,0,0,0l1.71-.99c1.83-1.06,4.18-.44,5.24,1.4.41.7.58,1.51.5,2.32l-.77,7.4,5.06-2.92c1.84-1.05,4.18-.4,5.23,1.44.61,1.08.67,2.39.14,3.51l-6.09,12.84,11.44-6.6c1.84-1.06,4.18-.43,5.24,1.41.78,1.36.66,3.06-.31,4.29l-9.48,11.98,12.49-7.2c1.84-1.06,4.18-.43,5.24,1.41.81,1.41.65,3.18-.41,4.42l-14.79,17.12,17.65-10.16c1.83-1.06,4.18-.44,5.24,1.39.9,1.55.6,3.53-.72,4.75l-12.05,11.17,12.33-7.11c1.85-1.03,4.19-.37,5.22,1.48.85,1.53.56,3.45-.71,4.65l-15.61,14.25,15.41-8.88c1.85-1.03,4.19-.37,5.22,1.48.89,1.6.53,3.61-.87,4.8l-9.92,8.16,8.34-4.81c1.84-1.04,4.18-.39,5.23,1.45.91,1.6.55,3.63-.86,4.82l-13.42,11.11,11.41-6.58c1.84-1.04,4.18-.39,5.23,1.45.94,1.66.52,3.75-.99,4.92l-3.58,2.74.66-.38c1.84-1.06,4.18-.43,5.24,1.41.92,1.6.57,3.62-.82,4.82l-20.41,17.48,17.23-9.97c1.83-1.06,4.18-.44,5.24,1.39.96,1.65.56,3.75-.93,4.93l-11.45,9.14,7.37-4.25c1.84-1.06,4.18-.43,5.24,1.41.87,1.52.61,3.43-.64,4.65l-8.58,8.41c1.98-.76,4.2.22,4.96,2.2.68,1.76-.03,3.76-1.67,4.7l-25.62,14.79c-1.84,1.06-4.18.43-5.24-1.41-.87-1.52-.61-3.43.64-4.65l8.44-8.23-25.2,14.52c-.58.35-1.24.53-1.92.54Z"/>
      <path class="cls-1" d="m158.69,502.83c-2.12,0-3.84-1.71-3.84-3.83,0-1.31.67-2.54,1.78-3.24l110.89-70.59-133.38,77c-1.81,1.1-4.17.52-5.27-1.29-1.1-1.81-.52-4.17,1.29-5.27h0l141.18-90.05-157.72,91.05c-1.86,1.02-4.19.35-5.21-1.51-.97-1.76-.42-3.97,1.27-5.07l108.95-67.74-116.02,66.96c-1.86,1.02-4.19.34-5.21-1.51-.96-1.75-.42-3.94,1.24-5.05l156.45-98.91-162.52,93.84c-1.82,1.08-4.17.49-5.26-1.33-1.08-1.82-.49-4.17,1.33-5.26l79.95-49.02-80.67,46.57c-1.82,1.09-4.17.5-5.26-1.32s-.5-4.17,1.32-5.26l133.5-83.1-132.87,76.73c-1.86,1.02-4.19.35-5.21-1.51-.97-1.76-.42-3.97,1.27-5.07l122-75.63-118.55,68.41c-1.86,1.01-4.19.32-5.2-1.54-.96-1.77-.39-3.97,1.3-5.06l44.5-27.08-40.6,23.42c-1.82,1.08-4.18.47-5.26-1.35s-.47-4.18,1.35-5.26l11.59-7.02-7.67,4.43c-1.86,1.01-4.19.32-5.2-1.54-.95-1.76-.4-3.95,1.27-5.04l95.14-58.67-91.23,52.67c-1.81,1.1-4.17.51-5.27-1.3s-.51-4.17,1.3-5.27h0l153.55-97.07-149.59,86.36c-1.82,1.08-4.18.48-5.26-1.34-1.08-1.82-.48-4.18,1.34-5.26h0l61.78-37.83-57.86,33.37c-1.87,1-4.19.29-5.19-1.58-.93-1.74-.39-3.9,1.26-5l102.16-63.46-98.23,56.71c-1.87.99-4.19.27-5.18-1.6-.91-1.72-.39-3.85,1.22-4.95l140.05-88.8-136.08,78.56c-1.86,1.01-4.19.32-5.2-1.54-.95-1.76-.4-3.95,1.27-5.04l77.54-48.02-73.61,42.5c-1.87.99-4.19.27-5.18-1.6-.91-1.73-.38-3.87,1.24-4.96l97.8-61.17-93.85,54.18c-1.86,1.02-4.19.35-5.21-1.51-.97-1.76-.42-3.97,1.27-5.07l82.2-51.26-78.25,45.18c-1.86,1.02-4.19.34-5.21-1.51-.96-1.74-.43-3.92,1.22-5.03l127.67-82.14-123.48,71.29c-1.82,1.09-4.17.5-5.26-1.32-1.09-1.82-.5-4.17,1.32-5.26l53.05-32.99-48.34,27.9c-1.86,1.01-4.19.32-5.2-1.55-.95-1.75-.4-3.92,1.25-5.02l63.42-39.75-57.74,33.35c-1.84,1.05-4.18.4-5.23-1.44-1-1.75-.47-3.97,1.21-5.09l110.29-72.22-102.01,58.9c-1.86,1.02-4.19.34-5.21-1.51-.96-1.74-.43-3.92,1.22-5.03l70.34-45.19-61.3,35.39c-1.85,1.04-4.19.38-5.22-1.47-.99-1.77-.44-4,1.26-5.1l13.58-8.53-4.83,2.79c-1.83,1.07-4.18.44-5.24-1.39-1.03-1.77-.49-4.04,1.23-5.15l48.34-31.46-36.17,20.88c-1.86,1.02-4.19.35-5.21-1.51-.94-1.7-.46-3.83,1.12-4.97l52.6-35.85-34.7,20.07c-1.83,1.06-4.18.43-5.24-1.4-.95-1.64-.56-3.73.92-4.91l38.64-30.9c-2.05.53-4.14-.7-4.67-2.75-.43-1.66.3-3.41,1.78-4.27l42.28-24.41c1.83-1.06,4.18-.43,5.24,1.4.95,1.64.56,3.73-.92,4.91l-37.93,30.29,79.8-46.04c1.85-1.04,4.19-.38,5.22,1.46.97,1.72.47,3.9-1.15,5.03l-52.57,35.83,71.82-41.5c1.85-1.03,4.19-.37,5.22,1.48.98,1.75.45,3.95-1.22,5.06l-48.34,31.46,60.78-35.09c1.84-1.06,4.18-.43,5.24,1.41,1.03,1.79.46,4.07-1.29,5.17l-13.39,8.41,20.62-11.89c1.86-1.02,4.19-.34,5.21,1.51.96,1.74.43,3.92-1.22,5.03l-70.45,45.27,80.49-46.47c1.86-1.02,4.19-.35,5.21,1.51.95,1.73.44,3.91-1.2,5.02l-110.29,72.2,122.29-70.59c1.86-1.01,4.19-.32,5.2,1.55.95,1.75.4,3.92-1.25,5.02l-63.35,39.7,69.27-39.99c1.87-1,4.19-.29,5.19,1.58.93,1.74.39,3.9-1.26,5l-53.04,32.98,57.63-33.27c1.81-1.1,4.17-.53,5.27,1.28s.53,4.17-1.28,5.27l-127.68,82.14,135.71-78.35c1.87-.99,4.19-.27,5.18,1.6.91,1.73.38,3.87-1.24,4.96l-82.32,51.32,86.37-49.87c1.86-1.01,4.19-.32,5.2,1.55.95,1.75.4,3.92-1.25,5.02l-97.71,61.17,101.69-58.73c1.87-1,4.19-.29,5.19,1.58.93,1.74.39,3.9-1.26,5l-77.65,48.1,80.2-46.34c1.86-1.01,4.19-.32,5.2,1.54.94,1.74.41,3.9-1.23,5.01l-139.91,88.72,144.12-83.21c1.87-1,4.19-.29,5.19,1.58.93,1.74.39,3.9-1.26,5l-102.32,63.55,104.27-60.19c1.82-1.08,4.17-.49,5.26,1.33,1.08,1.82.49,4.17-1.33,5.26l-61.81,37.88,62.35-35.99c1.81-1.1,4.17-.52,5.27,1.3,1.1,1.81.52,4.17-1.3,5.27h0l-153.45,97.02,155.76-89.94c1.82-1.08,4.17-.49,5.26,1.33,1.08,1.82.49,4.17-1.33,5.26l-95.25,58.73,95.26-55c1.82-1.08,4.18-.47,5.26,1.35,1.08,1.82.47,4.18-1.35,5.26h0l-11.45,6.91,10.1-5.83c1.84-1.05,4.18-.41,5.23,1.43,1.02,1.8.44,4.08-1.32,5.16l-44.72,27.21,43.34-25.01c1.86-1.02,4.19-.35,5.21,1.51.97,1.76.42,3.97-1.27,5.07l-121.86,75.58,120.84-69.77c1.84-1.06,4.18-.43,5.24,1.41,1.03,1.79.46,4.07-1.29,5.17l-133.57,83.18,131.88-76.14c1.82-1.08,4.17-.49,5.26,1.33,1.08,1.82.49,4.17-1.33,5.26h0l-79.87,48.98,77.11-44.5c1.86-1.02,4.19-.34,5.21,1.51.96,1.75.42,3.94-1.24,5.05l-156.52,98.93,153.17-88.44c1.85-1.04,4.19-.39,5.23,1.46,1,1.78.44,4.03-1.29,5.12l-108.8,67.67,104.86-60.54c1.86-1.01,4.19-.32,5.2,1.54.94,1.74.41,3.9-1.23,5.01l-141.18,90.05,137.2-79.19c1.84-1.05,4.18-.41,5.23,1.43,1.01,1.77.46,4.03-1.26,5.13l-110.97,70.63,107-61.76c1.87-.99,4.19-.27,5.18,1.6.91,1.73.38,3.87-1.24,4.96l-53.2,33.22,49.25-28.39c1.83-1.07,4.18-.46,5.25,1.37,1.05,1.78.49,4.08-1.26,5.18l-79.33,50.91,75.35-43.5c1.86-1.02,4.19-.34,5.21,1.51.96,1.74.43,3.92-1.22,5.03l-59.39,38.12,55.37-31.96c1.86-1.02,4.19-.34,5.21,1.51.96,1.74.43,3.92-1.22,5.03l-39.8,25.59,35.81-20.67c1.85-1.04,4.19-.38,5.22,1.47.97,1.73.46,3.91-1.17,5.04l-54.53,36.49,50.48-29.16c1.85-1.03,4.19-.37,5.22,1.48.94,1.69.48,3.82-1.08,4.96l-55.8,39.58,51.7-29.8c1.78-1.03,4.05-.47,5.16,1.27,1.1,1.74.64,4.04-1.05,5.21l-26.44,18.35,22.34-12.9c1.85-1.04,4.19-.38,5.22,1.46.97,1.72.47,3.9-1.15,5.03l-2.98,2.03c1.47-.3,2.98.3,3.84,1.53,1.14,1.63.85,3.85-.67,5.13l-26.21,22.1,17.26-9.97c1.83-1.06,4.18-.44,5.24,1.4.93,1.61.58,3.65-.84,4.85l-11.19,9.51c.54.33.98.79,1.3,1.34,1.05,1.83.43,4.17-1.4,5.23l-24.44,14.11c-1.84,1.05-4.18.41-5.23-1.43-.91-1.6-.56-3.62.84-4.81l2.52-2.14-17.65,10.2c-1.84,1.05-4.18.41-5.23-1.43-.91-1.6-.56-3.62.84-4.81l26.19-22.1-49.11,28.34c-1.86,1.01-4.19.32-5.2-1.54-.92-1.7-.44-3.81,1.13-4.94l.37-.26-11.69,6.74c-1.85,1.03-4.19.37-5.22-1.48-.95-1.7-.47-3.85,1.12-4.99l26.46-18.38-43.04,24.83c-1.85,1.03-4.19.37-5.22-1.48-.94-1.69-.48-3.82,1.08-4.96l55.79-39.59-79.72,46.04c-1.83,1.06-4.18.44-5.24-1.4-1.01-1.75-.5-3.99,1.18-5.11l54.53-36.46-74.48,42.97c-1.84,1.05-4.18.41-5.23-1.44-1-1.76-.46-4,1.23-5.11l39.81-25.6-55.67,32.14c-1.84,1.05-4.18.41-5.23-1.44-1-1.76-.46-4,1.23-5.11l59.34-38.13-77.4,44.68c-1.84,1.05-4.18.41-5.23-1.44-1-1.76-.46-4,1.23-5.11l79.36-50.93-99.56,57.48c-1.87.99-4.19.27-5.18-1.6-.91-1.73-.38-3.87,1.24-4.96l53.23-33.25-68.97,39.81c-.58.34-1.24.53-1.91.54Z"/>
      <path class="cls-4" d="m148.12,308.04c-2.12,0-3.84-1.72-3.84-3.84,0-1.24.6-2.41,1.62-3.13l4.69-3.32-7.12,4.11c-1.84,1.06-4.18.43-5.24-1.41-.94-1.63-.55-3.71.91-4.9l31.13-24.98-31.53,18.21c-1.84,1.05-4.18.4-5.23-1.44-.93-1.63-.54-3.69.92-4.87l23.71-18.95-20.01,11.51c-1.85,1.04-4.19.38-5.22-1.46-.93-1.65-.51-3.73.97-4.9l6.54-5.03c-1.99.73-4.19-.29-4.92-2.28-.55-1.5-.12-3.17,1.09-4.22l9.97-8.69c-.55-.33-1-.8-1.32-1.35-1.06-1.83-.43-4.18,1.4-5.24l22.53-13.04c1.85-1.04,4.19-.39,5.23,1.46.89,1.57.56,3.55-.79,4.75l-2.08,1.81,15.17-8.75c1.85-1.04,4.19-.38,5.22,1.46.93,1.65.51,3.73-.97,4.9l-6.25,4.81,13.57-7.84c1.82-1.08,4.18-.48,5.26,1.34.99,1.66.58,3.79-.94,4.98l-23.74,19.03,30.97-17.88c1.82-1.08,4.18-.47,5.25,1.35.98,1.65.58,3.77-.93,4.96l-31.1,24.96,35.75-20.65c1.84-1.06,4.18-.43,5.24,1.41.99,1.71.51,3.9-1.1,5.05l-4.71,3.33,4.24-2.44c1.83-1.06,4.18-.44,5.24,1.4.93,1.61.58,3.65-.84,4.85l-19.69,16.76,18.21-10.5c1.83-1.06,4.18-.44,5.24,1.4.83,1.43.65,3.23-.45,4.46l-12.21,13.81,5.95-3.43c1.79-1.14,4.16-.61,5.3,1.18,1.14,1.79.61,4.16-1.18,5.3-.09.06-.18.11-.28.16l-26.34,15.21c-1.83,1.06-4.18.44-5.24-1.4-.83-1.43-.65-3.23.45-4.46l12.22-13.81-34.14,19.71c-1.83,1.06-4.18.44-5.24-1.4-.93-1.61-.58-3.65.84-4.85l19.67-16.77-39.9,23.02c-.59.36-1.26.55-1.95.55Z"/>
      <path class="cls-4" d="m298.63,308.02c-2.12,0-3.83-1.73-3.82-3.85,0-1.18.55-2.28,1.47-3.01l17.65-13.71-30.45,17.58c-1.86,1.02-4.19.34-5.21-1.52-.93-1.69-.46-3.8,1.09-4.94l4.37-3.07-4.1,2.37c-1.84,1.05-4.18.4-5.23-1.44-.92-1.62-.55-3.66.88-4.85l31.46-25.72-30.58,17.65c-1.84,1.05-4.18.42-5.24-1.42-.97-1.7-.51-3.86,1.07-5.01l3.45-2.49c-1.59.4-3.26-.24-4.19-1.6-1.12-1.7-.72-3.97.91-5.19l4.65-3.47c-2.11-.13-3.72-1.95-3.59-4.07.06-1.02.53-1.97,1.29-2.64l10.3-9.07c-.61-.33-1.12-.83-1.47-1.43-1.06-1.83-.43-4.18,1.4-5.24l22.53-13.04c1.85-1.04,4.19-.38,5.22,1.47.88,1.56.56,3.52-.77,4.73l-3.21,2.83,16.78-9.68c1.84-1.04,4.19-.39,5.23,1.45.94,1.67.51,3.78-1.01,4.94l-.21.15,6.32-3.64c1.85-1.03,4.19-.36,5.22,1.49.93,1.68.48,3.78-1.05,4.93l-2.46,1.78,6.46-3.73c1.84-1.05,4.18-.4,5.23,1.44.92,1.62.55,3.66-.88,4.85l-31.42,25.7,37.72-21.77c1.86-1.02,4.19-.34,5.21,1.52.93,1.69.46,3.8-1.09,4.94l-4.35,3.07,4.55-2.63c1.84-1.05,4.18-.4,5.23,1.44.93,1.65.53,3.73-.96,4.9l-17.65,13.72,17.08-9.85c1.84-1.05,4.18-.41,5.23,1.43.94,1.65.53,3.75-.97,4.92l-4.34,3.37,1.25-.72c1.84-1.06,4.18-.42,5.24,1.41.83,1.44.64,3.26-.48,4.49l-9.74,10.74,3.02-1.75c1.84-1.05,4.18-.4,5.23,1.44,1.04,1.82.42,4.14-1.39,5.21l-24.21,14.01c-1.84,1.06-4.18.42-5.24-1.41-.83-1.44-.64-3.26.48-4.49l9.74-10.74-28.93,16.67c-1.83,1.07-4.18.45-5.25-1.38-.97-1.67-.55-3.79.97-4.97l4.35-3.38-16.88,9.75c-.58.34-1.25.52-1.93.51Z"/>
      <path class="cls-4" d="m164.7,392.02c-2.12,0-3.83-1.72-3.83-3.84,0-.97.37-1.9,1.02-2.6l14.81-15.97-18.63,10.74c-1.84,1.05-4.18.42-5.24-1.42-.83-1.45-.63-3.28.51-4.51l4.51-4.87-2.97,1.71c-1.84,1.06-4.18.43-5.24-1.41-.43-.75-.6-1.62-.47-2.48l1.18-7.83c-2.05-.54-3.27-2.65-2.72-4.69.26-.98.9-1.82,1.79-2.34l3.78-2.19c1.84-1.06,4.18-.43,5.24,1.41.43.75.6,1.62.47,2.48l-.97,6.42,18.08-10.43c1.84-1.05,4.18-.42,5.24,1.42.83,1.45.63,3.28-.51,4.51l-4.52,4.87,18.66-10.74c1.84-1.05,4.18-.4,5.23,1.44.82,1.44.62,3.25-.5,4.48l-14.82,15.97,7.43-4.28c1.79-1.14,4.16-.61,5.3,1.18,1.14,1.79.61,4.16-1.18,5.3-.09.06-.18.11-.28.16l-29.46,17c-.58.34-1.24.51-1.92.51Z"/>
      <path class="cls-4" d="m318.87,392.52c-2.12,0-3.84-1.72-3.84-3.83,0-1.06.44-2.08,1.21-2.8l6.76-6.34-9.02,5.21c-1.84,1.06-4.18.43-5.24-1.41-.8-1.39-.65-3.13.37-4.37l9.49-11.38-9.72,5.6c-1.24.73-2.79.69-4-.1-1.21-.78-1.88-2.17-1.74-3.6l.98-9.89c-2.09-.37-3.48-2.36-3.11-4.45.2-1.11.88-2.08,1.86-2.65l3.78-2.19c1.83-1.06,4.18-.43,5.24,1.4.4.7.58,1.5.5,2.3l-.87,8.8,21.9-12.64c1.84-1.06,4.18-.43,5.24,1.41.8,1.39.65,3.13-.37,4.37l-9.48,11.38,19.23-11.09c1.82-1.09,4.17-.5,5.26,1.32.94,1.57.64,3.59-.72,4.82l-6.83,6.4c1.95-.82,4.2.09,5.03,2.04.75,1.77.07,3.82-1.58,4.79l-28.39,16.4c-.59.34-1.26.52-1.93.51Z"/>
      <path class="cls-5" d="m215.18,307.08c-2.12,0-3.84-1.72-3.83-3.84,0-.75.22-1.48.63-2.1l2.52-3.84-11.62,6.71c-1.8,1.11-4.17.56-5.28-1.24-.98-1.59-.68-3.66.72-4.89l1.53-1.47-10.46,6.05c-1.84,1.05-4.18.4-5.23-1.44-.8-1.41-.63-3.18.44-4.41l14.33-16.29-14.96,8.65c-1.83,1.06-4.18.44-5.24-1.39-.81-1.4-.66-3.16.39-4.4l7.16-8.51c-2.12-.08-3.76-1.87-3.68-3.99.05-1.31.77-2.5,1.91-3.16l15.72-9.08c1.83-1.06,4.18-.44,5.24,1.39.81,1.4.66,3.16-.39,4.4l-6.04,7.18,16.32-9.42c1.84-1.05,4.18-.42,5.24,1.42.81,1.42.64,3.2-.44,4.43l-14.33,16.29,18.41-10.65c1.8-1.11,4.17-.56,5.28,1.24.98,1.59.68,3.66-.72,4.89l-2.57,2.44c1.17-.09,2.33.34,3.15,1.18,1.23,1.29,1.4,3.26.42,4.75l-5.89,8.99c.26.24.49.53.66.84,1.06,1.83.43,4.18-1.4,5.24l-6.02,3.48c-.59.35-1.26.52-1.95.51Z"/>
      <path class="cls-5" d="m286.54,307.04c-2.12,0-3.84-1.71-3.84-3.83,0-.93.34-1.83.95-2.53l13.14-14.98-17.9,10.34c-1.85,1.03-4.19.37-5.22-1.48-.85-1.53-.56-3.45.71-4.65l4.9-4.48-2.78,1.6c-1.84,1.06-4.18.43-5.24-1.41-.83-1.44-.64-3.24.47-4.48l5.83-6.49c-2.06-.5-3.32-2.57-2.82-4.63.25-1.02.9-1.89,1.81-2.42l15.74-9.09c1.84-1.06,4.18-.43,5.24,1.41.83,1.44.64,3.24-.47,4.48l-3.56,3.96,12.41-7.15c1.85-1.03,4.19-.37,5.22,1.48.85,1.53.56,3.45-.71,4.65l-4.87,4.47,7.55-4.36c1.83-1.06,4.18-.44,5.24,1.4.83,1.43.65,3.22-.44,4.46l-13.14,14.95,12.88-7.43c1.84-1.05,4.18-.42,5.24,1.42.71,1.23.68,2.75-.08,3.95l-4.18,6.56c1.73,1.23,2.13,3.63.9,5.35-.32.45-.73.82-1.2,1.09l-6.84,3.94c-1.84,1.05-4.18.42-5.24-1.42-.71-1.23-.68-2.75.08-3.95l1.53-2.46-19.43,11.23c-.57.34-1.22.53-1.89.54Z"/>
      <path class="cls-2" d="m420.51,269.58c-2.34-13.91-6-27.57-10.93-40.79,20.24-9.58,89.56-141.51,30.54-121.02-22.38,20.12-46.8,38.56-76.67,46.51-56.18-64.96-162.83-68.77-225.2-.96-30.03-7.52-53.99-27-76.67-46.46-51.82-16.04-.15,89.94,13.76,104,.21,1.47.91,2.21,1.86,2.36,4.34,5.48,9.03,10.68,14.03,15.58-4.99,13.35-8.47,27.22-10.37,41.35-47.49,27.08-99.63,166.77-5.04,155.91-1.53,39.13,16.11,74.12,56.36,76.2-3.61,32.1,16.17,57.62,49.73,55.24,32.13,2.67,53.07-23.07,49.27-54.02h38.23c-3.43,34.34,18.41,56.23,52.83,53.13,25.39,1.42,47.11-18.02,48.53-43.4.18-3.31.01-6.64-.52-9.92,41.64-4.66,53.05-40.73,53.07-76.19,46.91,5.37,60.08-23.33,51.12-65.09-4.96-36.76-24.36-70.02-53.92-92.43Zm31.4-143.52c1.81,21.81-15.35,51.28-25.57,69.68-1.21-19.1-6.74-37.67-16.18-54.32,11.88-4.83,34.73-37.34,41.75-15.36Zm-49.63,19.95c10.57,18.59,16.13,39.62,16.11,61.01-3.76,4.78-7.79,9.34-12.08,13.66-9.15-22.15-21.86-42.65-37.63-60.68,11.55-3.79,22.78-8.48,33.6-14.01v.03ZM48.86,124.49c3.11-14,7.95-9.15,15.35-2.36,8.4,7.88,17.67,14.79,27.62,20.59-9.2,16.52-14.66,34.85-16,53.71-11.22-19.32-28.14-48.73-26.97-71.94Zm33.68,81.15c-.08-20.8,5.21-41.26,15.35-59.42,10.81,5.67,22.07,10.46,33.65,14.32-15.37,17.52-27.76,37.44-36.68,58.97-4.38-4.37-8.49-9.01-12.31-13.87Zm-49.68,185.72c-2.35-42.2,14.92-83.13,46.8-110.88-3.01,46.7-.95,90.84-3.91,138.65-18.31.4-36.58,1.05-42.9-27.77Zm187.31,138.44c-7.98,15.53-23.02,18.52-38.69,18.52-27.89,1.92-46.19-17.27-42.39-45.38,28.35,1.28,56.86.22,85.24.55.84,8.98-.59,18.02-4.16,26.3Zm138.68-1.73c-7.36,18.53-24.11,21.38-41.43,21.13-21.1,1.02-39.03-15.26-40.04-36.36-.15-3.13.08-6.27.7-9.34,26.85-.45,55.93,3.45,83.47.94.68,7.98-.24,16.02-2.69,23.64h0Zm53.89-64.6c-15.07,39.08-60.77,31.46-92.74,31.46h-92.17c-63.9-1.66-145.1,20.79-141.99-70.74.53-.94.51-2.09-.04-3.02.07-81.41-11.8-171.19,38.86-241.14,46.44-64.07,131.2-87.69,200.69-46.51,107.14,67.17,87.17,176.78,92.5,284.76-2.21,2.08-2.32,5.56-.24,7.77.1.11.21.21.32.31.5,12.59-1.26,25.16-5.2,37.13h0Zm29.55-45.59c-6.26.98-12.63,1.04-18.91.18-.77-45.62,1.76-91.41-1.25-136.94,32.4,22.5,77.77,118.01,20.16,136.76Z"/>
      <path class="cls-2" d="m271.05,284.44c.74,6.08,2.56,11.99,5.37,17.43-1.23.46-2.55.82-3.73,1.32-4,1.7-2.82,10.52,2.1,8.44,28.76-11.08,60.61-11.08,89.37,0,4.55,1.93,7.32-6.74,3.3-8.44-1.64-.7-3.44-1.21-5.15-1.83,35.99-78.74-85.93-107.48-91.7-23.7-.58,2.07-2.47,5.76.44,6.78Zm8.1-5.42c8.98-28,46.5-8.69,33.27,15.67-9.2.45-18.33,1.88-27.22,4.27-3.5-6.11-5.56-12.92-6.05-19.94Zm44.1-44.02c23.57,2.75,40.44,24.09,37.69,47.66-.67,5.78-2.52,11.36-5.41,16.4-11.05-3.03-22.45-4.59-33.91-4.66,11.51-24.68-19.78-47.67-40.78-30.92,4.76-18.95,23.06-31.25,42.41-28.5h0Z"/>
      <path class="cls-2" d="m374.4,350h-20.89c-.93-.3-1.93-.3-2.85,0h-43.21c-.99-.34-2.08-.34-3.07,0h-104.49c-1.18-.96-2.87-.96-4.05,0h-42.12c-1.2-.97-2.91-.97-4.1,0h-20.72c-5.12,0-7.8,6.91-1.75,6.91h20.31c2.17,52.65,49.66,51.58,53.08,0h99.67c2.3,51.77,51.09,50.76,54.42,0h18.03c5.12-.03,7.78-6.91,1.75-6.91Zm-201.02,37.3c-12.92-1.62-17.4-18.65-18.41-30.43h38.26c-.77,11.59-5.21,32.26-19.82,30.43h-.02Zm151.59.15c-11.36-3.76-14.99-19.18-15.9-30.58h36.92c-.79,11.44-5.95,35.56-21,30.58h-.02Z"/>
      <path class="cls-2" d="m137.4,311.6c15.37-6.06,31.83-8.83,48.34-8.13.78,1.03,2.25,1.24,3.29.46.12-.09.23-.19.33-.3,9.24.43,18.41,1.92,27.31,4.43.54.48,1.25.73,1.97.7,2.79.88,5.55,1.78,8.13,2.88,4.91,2.09,5.96-6.75,1.95-8.44-1.42-.61-2.98-1.04-4.46-1.59,2.74-5.39,4.56-11.2,5.37-17.19,1.43-2.07,1.63-4.76.53-7.02-4.1-85.41-125.24-53.9-91.3,24.08-1.63.59-3.35,1.08-4.91,1.75-3.99,1.69-1.1,10.31,3.46,8.37Zm51.53-16.93c-15.35-24.3,25.03-41.33,34.26-15.65-.36,7.1-2.42,14-6,20.14-9.22-2.54-18.7-4.05-28.26-4.49Zm-5.11-59.27c16.86.58,31.6,11.53,37.02,27.51-20.82-18.14-50.89,7.01-40.27,31.46-11.56.03-23.07,1.57-34.24,4.6-12.2-19.43-6.34-45.07,13.09-57.27,7.29-4.58,15.81-6.78,24.4-6.3Z"/>
    </g>
  </g>
  <g id="Capa_3" data-name="Capa 3">
    <g>
      <path class="cls-10" d="m463,115.11c0,45.6-70.88,140.85-212.43,140.85S38.1,160.71,38.1,115.11s59.25,31.03,210.46,31.03c151.34.09,214.45-76.63,214.45-31.03Z"/>
      <path class="cls-3" d="m250.57,261c-80.32,0-132.68-29.63-162.53-54.47-37.92-31.6-54.95-68.69-54.95-91.42,0-12.95,5-19.49,14.79-19.49,7.72,0,18.04,4.17,33.58,10.4,32.52,13.17,86.99,35.11,167.18,35.11s135.36-21.81,168.63-34.85c15.89-6.19,27.39-10.71,35.55-10.71,10.14,0,15.27,6.54,15.27,19.49,0,22.74-16.94,59.78-54.95,91.42-29.85,24.84-82.21,54.47-162.53,54.47l-.04.04ZM47.89,105.67c-2.19,0-4.7,0-4.7,9.44,0,20.32,15.84,54.12,51.31,83.7,28.57,23.79,78.83,52.14,156.12,52.14s127.55-28.35,156.12-52.14c35.46-29.58,51.31-63.33,51.31-83.7,0-9.44-2.68-9.44-5.22-9.44-6.28,0-17.6,4.43-31.86,10.01-34.02,13.3-90.81,35.55-172.32,35.55s-137.69-22.47-170.91-35.81c-13.43-5.4-24.05-9.7-29.85-9.7v-.04Z"/>
      <path class="cls-10" d="m290.69,7.05c-9.09,0-20.85,17.47-41.61,17.47s-33.44-17.47-44.29-17.47c-15.27,0-33.66,45.91-46.52,80.23-12.86,34.37-16.77,63.07-16.77,73.6,0,19.71,34.28,47.36,107.53,47.36s107.53-28.66,107.53-47.36c0-10.27-4.43-38.36-18.52-73.34-11.76-29.36-30.42-80.54-47.45-80.54l.09.04Z"/>
      <path class="cls-3" d="m249.12,213.29c-42.71,0-69.04-9.22-83.61-16.9-18.17-9.66-29.01-22.87-29.01-35.55,0-10.27,3.6-39.33,17.12-75.4C172.4,35.4,188.34,2.04,204.84,2.04c5.97,0,11.41,3.47,17.73,7.37,7.46,4.7,15.89,10.05,26.55,10.05s19.09-5.57,26.25-10.49c5.49-3.73,10.23-6.98,15.36-6.98,17.6,0,31.95,32.74,48.94,75.45,1.14,2.9,2.24,5.62,3.25,8.16,14.92,37.18,18.87,65.44,18.87,75.23,0,12.33-10.84,25.5-28.92,35.2-14.7,7.81-41.17,17.16-83.7,17.16l-.04.09ZM204.84,12.05c-1.67,0-7.94,1.76-19.71,24.49-8.03,15.54-15.71,35.24-22.16,52.45-12.11,32.17-16.46,60.61-16.46,71.85,0,6.85,6.19,17.38,23.66,26.69,13.61,7.2,38.27,15.76,78.92,15.76s65.27-8.73,78.92-16.06c17.47-9.35,23.66-20.06,23.66-26.33,0-10.58-4.87-38.27-18.17-71.45-1.05-2.59-2.11-5.35-3.29-8.25-5.79-14.57-12.95-32.65-20.5-46.79-10.71-20.15-16.9-22.3-19.09-22.3-2.06,0-5.93,2.68-9.7,5.22-7.55,5.14-17.86,12.25-31.86,12.25s-23.7-6.41-31.86-11.63c-4.65-3.03-9.13-5.93-12.25-5.93l-.09.04Z"/>
      <g>
        <path class="cls-3" d="m249.12,182.08c-63.69,0-97.92-20.98-105.78-39.33-1.27,8.03-1.76,14.31-1.76,18.08,0,19.71,34.28,47.36,107.53,47.36s107.53-28.66,107.53-47.36c0-3.73-.61-9.88-2.06-17.82-8.25,17.86-42.44,39.06-105.51,39.06h.04Z"/>
        <path class="cls-3" d="m249.12,213.29c-42.71,0-69.04-9.22-83.61-16.9-18.17-9.66-29.01-22.87-29.01-35.55,0-4.65.61-11.32,1.84-18.87.35-2.19,2.11-3.95,4.35-4.21s4.35.97,5.22,3.03c7.46,17.47,42.31,36.34,101.17,36.34s92.92-18.74,100.99-36.17c.92-1.98,3.03-3.12,5.22-2.9,2.19.26,3.95,1.89,4.3,4.08,1.32,7.55,2.11,14.22,2.11,18.74,0,12.33-10.84,25.5-28.92,35.2-14.66,7.9-41.13,17.25-83.61,17.25l-.04-.04Zm-102.4-56.75c-.13,1.62-.13,3.12-.13,4.35,0,6.85,6.19,17.38,23.66,26.69,13.61,7.2,38.27,15.76,78.92,15.76s65.27-8.73,78.92-16.06c17.47-9.35,23.66-20.06,23.66-26.33,0-1.32-.09-2.94-.22-4.7-16.11,16.68-50.83,30.99-102.35,30.99-54.6-.09-87.3-14.79-102.4-30.68h-.04Z"/>
      </g>
      <path class="cls-3" d="m354.68,148.73c-1.27,2.59-2.59,5.22-4.43,7.55-2.41,2.9-4.92,5.57-7.81,7.94-5.97,5-12.68,8.95-19.71,12.16-14.57,6.67-30.46,10.14-46.3,12.03-16.42,1.98-33.14,1.98-49.64.57-15.84-1.32-32.22-4.43-46.96-10.58-7.81-3.25-15.76-7.02-22.3-12.47-3.25-2.68-6.32-5.49-9-8.78-2.19-2.68-3.73-5.62-5.14-8.73,3.16,5.49,7.11,10.36,12.25,14.09,6.06,4.43,12.47,7.9,19.36,10.84,14.44,6.14,30.42,9.22,45.95,10.84,16.33,1.67,32.74,1.84,49.11.7,8.08-.57,16.2-1.62,24.05-3.16,7.55-1.54,15.14-3.29,22.38-5.97,7.94-2.94,16.06-6.28,23-11.28,3.38-2.41,6.54-5,9.44-8.03,2.24-2.41,3.99-5,5.71-7.72h.04Z"/>
      <path class="cls-3" d="m317.73,70.38c-8.16.35-15.27-4.3-20.41-10.36-6.06-7.11-9.48-16.46-9.92-25.76-.22-4.3.35-8.65,1.98-12.6,3.38,6.98,5.97,14.22,9.35,21.2,3.25,6.76,6.85,13.21,11.28,19.27,2.33,3.12,5.14,5.57,7.72,8.25Z"/>
      <path class="cls-3" d="m177.67,70.38c1.32-1.32,2.77-2.59,3.99-3.99,1.67-1.89,3.29-3.95,4.7-6.06,2.77-3.99,5.22-8.38,7.33-12.73,2.24-4.65,4.43-9.44,6.5-14.13,1.67-3.86,3.16-7.94,5-11.76,3.16,7.55,2.55,16.81-.09,24.4-2.9,8.51-7.94,16.24-15.71,21.11-3.6,2.24-7.59,3.29-11.76,3.16h.04Z"/>
      <path class="cls-3" d="m54.29,128.19c8.43,21.59,24.97,38.62,42.22,53.63,18.39,15.98,38.98,29.14,60.39,40.69,9.88,5.35,20.15,9.92,30.33,14.48-22.82-4.08-44.55-12.95-64.34-25.06-21.2-12.95-40.91-29.63-54.95-50.26-6.85-10.14-12.03-21.33-13.65-33.49Z"/>
      <path class="cls-3" d="m444.79,128.19c-2.94,22.82-18.52,42.57-34.76,57.94-18.21,17.16-39.77,31.03-62.94,40.56-11.41,4.65-23.17,8.16-35.24,10.27,20.15-8.87,39.68-18.79,58.16-30.81,20.28-13.21,39.63-28.49,55.48-46.88,8.08-9.35,14.84-19.49,19.36-31.03l-.04-.04Z"/>
      <path class="cls-3" d="m222.83,46.02c8.38,3.99,16.68,8.08,26.2,8.08s17.95-4.08,26.33-8.08c-4.21,7.9-12.95,13.61-21.68,14.92-7.46,1.14-15.14-.61-21.42-4.87-3.73-2.55-7.33-5.97-9.44-10.05Z"/>
      <path class="cls-11" d="m279.37,138.9c-.61,0-1.19.22-1.67.48l-8.03-13.96,8.03-13.96c.48.26,1.05.48,1.67.48,1.89,0,3.47-1.54,3.47-3.47s-1.54-3.47-3.47-3.47-3.47,1.54-3.47,3.47h-16.11l-8.51-14.79c1.05-.57,1.76-1.67,1.76-2.94,0-1.89-1.54-3.47-3.47-3.47s-3.47,1.54-3.47,3.47c0,1.27.7,2.41,1.76,2.94l-8.51,14.79h-16.11c0-1.89-1.54-3.47-3.47-3.47s-3.47,1.54-3.47,3.47,1.54,3.47,3.47,3.47c.61,0,1.19-.22,1.67-.48l8.03,13.96-8.03,13.96c-.48-.26-1.05-.48-1.67-.48-1.89,0-3.47,1.54-3.47,3.47s1.54,3.47,3.47,3.47,3.47-1.54,3.47-3.47h16.11l8.51,14.79c-1.05.57-1.76,1.67-1.76,2.94,0,1.89,1.54,3.47,3.47,3.47s3.47-1.54,3.47-3.47c0-1.27-.7-2.41-1.76-2.94l8.51-14.79h16.11c0,1.89,1.54,3.47,3.47,3.47s3.47-1.54,3.47-3.47-1.54-3.47-3.47-3.47Z"/>
      <g>
        <path class="cls-3" d="m354.81,135.65c-6.32,5.93-12.95,11.28-20.5,15.63-8.3,4.78-17.34,8.38-26.55,10.93-3.99,1.05-8.08,2.06-12.16,2.46,7.81-2.11,15.41-5.79,22.47-9.79,7.81-4.52,15.05-10.05,21.42-16.46,2.9-2.94,5.4-6.28,7.94-9.48,2.41,2.24,4.92,4.52,7.37,6.76v-.04Z"/>
        <path class="cls-3" d="m351.87,124.37c-5.97,5.49-12.25,10.23-19.44,14.09-6.41,3.47-13.3,6.14-20.32,8.03-3.12.83-6.32,1.62-9.57,2.06,8.43-2.77,16.55-7.33,23.7-12.51,3.38-2.46,6.63-5.14,9.57-8.08,3.16-3.25,5.97-6.63,8.65-10.27,2.41,2.24,4.92,4.52,7.37,6.76l.04-.09Z"/>
        <path class="cls-3" d="m348.93,113.13c-11.1,9.66-24.71,16.9-39.41,19.14,6.19-2.55,12.11-6.19,17.38-10.36,5.71-4.52,10.4-9.7,14.66-15.63,2.46,2.33,4.92,4.56,7.37,6.85Z"/>
        <path class="cls-3" d="m345.95,101.85c-8.6,6.89-18.65,12.11-29.58,14.22,9-5,16.55-12.38,22.12-20.98,2.55,2.33,5,4.52,7.46,6.76Z"/>
        <path class="cls-3" d="m343.05,90.57c-6.06,4.17-12.6,7.37-19.71,9.3,5-4.56,9-10.01,12.16-15.98,2.46,2.24,5,4.43,7.55,6.67Z"/>
      </g>
      <g>
        <path class="cls-3" d="m150.19,128.89c4.92,6.32,10.23,12.11,16.46,17.16,7.24,5.84,15.36,10.58,23.79,14.35,3.73,1.67,7.59,3.25,11.54,4.3-8.08-.92-16.11-3.38-23.7-6.28-9.09-3.47-17.69-8.25-25.41-14-3.6-2.68-6.85-5.71-10.05-8.78,2.46-2.24,4.92-4.52,7.37-6.76Z"/>
        <path class="cls-3" d="m153.18,117.61c2.77,3.6,5.49,7.02,8.65,10.27,2.94,2.94,6.19,5.62,9.57,8.08,7.11,5.22,15.27,9.79,23.7,12.51-14.13-1.84-28.09-8.03-39.77-16.11-3.47-2.41-6.5-5.14-9.57-7.94,2.46-2.33,4.92-4.56,7.37-6.85l.04.04Z"/>
        <path class="cls-3" d="m156.12,106.37c4.21,5.93,8.95,11.1,14.66,15.63,5.27,4.17,11.19,7.81,17.38,10.36-14.7-2.24-28.31-9.48-39.41-19.14,2.46-2.33,4.92-4.56,7.37-6.85Z"/>
        <path class="cls-3" d="m159.06,95.18c5.62,8.6,13.08,15.98,22.12,20.98-10.93-2.11-20.98-7.33-29.58-14.22,2.46-2.33,5-4.52,7.46-6.76Z"/>
        <path class="cls-3" d="m162.05,83.9c3.16,5.97,7.2,11.41,12.16,15.98-7.11-1.89-13.65-5.22-19.71-9.3,2.55-2.24,5.05-4.43,7.55-6.67Z"/>
      </g>
      <g>
        <polygon class="cls-3" points="142.38 154.52 98.49 133.19 145.85 145.08 142.38 154.52"/>
        <polygon class="cls-3" points="139.88 168.3 115.78 151.05 144.31 159.3 139.88 168.3"/>
        <polygon class="cls-3" points="351.79 145.08 399.19 133.19 355.25 154.52 351.79 145.08"/>
        <polygon class="cls-3" points="353.37 159.3 381.85 151.05 357.71 168.3 353.37 159.3"/>
      </g>
    </g>
  </g>
</svg>