<?xml version="1.0" encoding="UTF-8"?>
<svg xmlns="http://www.w3.org/2000/svg" viewBox="0 0 500 575">
  <defs>
    <style>
      .cls-1 {
        fill: #4d4d4d;
      }

      .cls-1, .cls-2, .cls-3, .cls-4, .cls-5, .cls-6, .cls-7, .cls-8, .cls-9, .cls-10, .cls-11, .cls-12, .cls-13, .cls-14, .cls-15, .cls-16, .cls-17 {
        stroke-width: 0px;
      }

      .cls-2 {
        fill: #262626;
      }

      .cls-3 {
        fill: #e384b0;
      }

      .cls-4 {
        fill: #ffb5e9;
      }

      .cls-5 {
        fill: #4ce0c8;
      }

      .cls-6 {
        fill: #241816;
      }

      .cls-7 {
        fill: #416b80;
      }

      .cls-8 {
        fill: #fff;
      }

      .cls-9 {
        fill: #38689b;
      }

      .cls-10 {
        fill: #5da0ff;
      }

      .cls-11 {
        fill: #f4d075;
      }

      .cls-12 {
        fill: #dee3d7;
      }

      .cls-13 {
        fill: #e2e6eb;
      }

      .cls-14 {
        fill: #f2f1eb;
      }

      .cls-15 {
        fill: #4580c6;
      }

      .cls-16 {
        fill: #e7d8b4;
      }

      .cls-17 {
        fill: #a9d0ff;
      }
    </style>
  </defs>
  <g id="Capa_1" data-name="Capa 1">
    <g>
      <path class="cls-16" d="m250,573c-66.51,0-129.04-25.9-176.07-72.93C26.9,453.04,1,390.51,1,324s25.9-129.04,72.93-176.07c47.03-47.03,109.56-72.93,176.07-72.93s129.04,25.9,176.07,72.93c47.03,47.03,72.93,109.56,72.93,176.07s-25.9,129.04-72.93,176.07c-47.03,47.03-109.56,72.93-176.07,72.93Z"/>
      <path class="cls-6" d="m250,76c33.48,0,65.96,6.56,96.53,19.49,29.53,12.49,56.05,30.37,78.83,53.15,22.78,22.78,40.66,49.3,53.15,78.83,12.93,30.57,19.49,63.05,19.49,96.53s-6.56,65.96-19.49,96.53c-12.49,29.53-30.37,56.05-53.15,78.83-22.78,22.78-49.3,40.66-78.83,53.15-30.57,12.93-63.05,19.49-96.53,19.49s-65.96-6.56-96.53-19.49c-29.53-12.49-56.05-30.37-78.83-53.15-22.78-22.78-40.66-49.3-53.15-78.83-12.93-30.57-19.49-63.05-19.49-96.53s6.56-65.96,19.49-96.53c12.49-29.53,30.37-56.05,53.15-78.83s49.3-40.66,78.83-53.15c30.57-12.93,63.05-19.49,96.53-19.49m0-2C111.93,74,0,185.93,0,324s111.93,250,250,250,250-111.93,250-250-111.93-250-250-250h0Z"/>
    </g>
  </g>
  <g id="Capa_2" data-name="Capa 2">
    <g>
      <path class="cls-11" d="m352.08,225.63c-2.07,0-3.75-1.49-3.75-3.34,0-.89.4-1.75,1.12-2.38l9-7.89-20.42,10.49c-1.81.9-4.09.32-5.1-1.3-.81-1.29-.56-2.9.6-3.96l15.66-13.83-14.49,7.43c-1.17.61-2.63.61-3.8,0-1.17-.62-1.87-1.76-1.82-2.98l.36-9.23c-1.42.09-2.77-.56-3.47-1.66-1.03-1.59-.42-3.63,1.37-4.55l4.2-2.16c1.79-.92,4.09-.38,5.12,1.22.35.54.53,1.16.5,1.79l-.34,8.82,33.64-17.29c1.81-.9,4.09-.32,5.1,1.3.81,1.29.56,2.9-.6,3.96l-15.64,13.81,20.75-10.68c1.8-.91,4.09-.35,5.11,1.25.84,1.31.59,2.95-.61,4.02l-8.98,7.93,2.25-1.14c1.75-.99,4.06-.53,5.18,1.03,1.11,1.56.59,3.62-1.15,4.61-.09.05-.18.1-.27.14l-27.62,14.16c-.57.3-1.22.45-1.87.45h0Z"/>
      <path class="cls-11" d="m170.61,228.36c-2.07,0-3.75-1.49-3.75-3.34,0-.43.09-.85.27-1.25l3.43-7.56-14.53,7.46c-1.8.92-4.09.37-5.12-1.23-.81-1.26-.62-2.84.48-3.91l11.72-11.35-20.55,10.54c-1.8.91-4.09.35-5.11-1.25-.78-1.22-.62-2.76.41-3.82l8.33-8.56-13.14,6.73c-1.79.92-4.09.37-5.12-1.23-.62-.95-.67-2.12-.13-3.11l5.92-10.9-1.36.67c-1.8.91-4.09.35-5.11-1.25-1.01-1.59-.41-3.6,1.36-4.53l11.91-6.12c1.79-.92,4.09-.37,5.12,1.22.62.96.67,2.13.13,3.12l-5.92,10.89,21.92-11.23c1.79-.92,4.09-.37,5.12,1.23.8,1.23.63,2.77-.41,3.85l-8.35,8.57,22.3-11.46c1.79-.93,4.08-.38,5.13,1.21.83,1.26.63,2.86-.48,3.94l-11.71,11.36,2.88-1.48c1.79-.92,4.09-.38,5.12,1.22.58.89.66,1.97.23,2.92l-5.05,11.12c.27.22.5.49.68.77,1.03,1.59.42,3.63-1.36,4.55l-3.37,1.74c-.57.3-1.21.47-1.87.47h0Z"/>
      <path class="cls-15" d="m202.25,563.93c-2.07,0-3.75-1.5-3.74-3.34,0-.93.44-1.81,1.2-2.45l11.63-9.6-23.29,11.97c-1.79.92-4.09.37-5.12-1.22-.85-1.32-.6-2.98.62-4.05l15.96-13.86-16.8,8.63c-1.79.92-4.09.37-5.12-1.23-.77-1.2-.64-2.69.34-3.76l9.34-10.21-2.75,1.41c-1.79.92-4.09.37-5.12-1.23-.55-.84-.65-1.86-.29-2.78l2.68-6.84c-1.62-1.15-1.89-3.24-.61-4.69.29-.33.66-.61,1.07-.82l3.35-1.73c1.79-.92,4.09-.37,5.12,1.23.55.84.65,1.86.29,2.78l-1.5,3.8,11.67-6.01c1.79-.92,4.09-.37,5.12,1.23.77,1.2.64,2.69-.34,3.76l-9.34,10.21,25.01-12.85c1.79-.92,4.09-.37,5.12,1.22.85,1.32.6,2.98-.62,4.05l-15.96,13.88,26.34-13.54c1.79-.93,4.09-.38,5.12,1.21.88,1.35.59,3.07-.7,4.13l-11.67,9.61,4.91-2.52c1.8-.92,4.09-.37,5.12,1.23.76,1.18.64,2.66-.31,3.73l-5.08,5.67c2,.48,3.19,2.31,2.65,4.09-.26.86-.89,1.59-1.75,2.03l-12.42,6.39c-1.8.92-4.09.37-5.12-1.23-.76-1.18-.64-2.66.31-3.73l3.21-3.59-16.65,8.56c-.56.3-1.21.46-1.87.47h0Z"/>
      <path class="cls-15" d="m291.85,563.93c-2.07,0-3.75-1.49-3.76-3.33,0-.91.42-1.79,1.16-2.42l13.8-11.81-22.49,11.57c-1.8.92-4.09.37-5.12-1.23-.93-1.44-.52-3.28.96-4.3l2.93-2-1.57.8c-1.79.92-4.09.37-5.12-1.22-.84-1.3-.61-2.94.58-4.01l8.17-7.34-5.44,2.8c-1.79.92-4.09.38-5.12-1.21-.47-.71-.62-1.56-.42-2.36l1.32-5.61c-2.05-.28-3.45-1.98-3.14-3.8.17-1,.84-1.88,1.83-2.38l4.6-2.37c1.28-.65,2.88-.58,4.08.19,1.21.77,1.8,2.1,1.5,3.39l-1.09,4.67,22.4-11.51c1.82-.87,4.1-.26,5.08,1.36.77,1.27.53,2.83-.58,3.87l-8.17,7.34,26.72-13.73c1.8-.9,4.09-.33,5.11,1.27.91,1.44.5,3.24-.95,4.26l-2.92,2c1.84-.84,4.1-.19,5.05,1.45.76,1.31.45,2.91-.74,3.93l-13.82,11.83,10.95-5.62c1.8-.91,4.09-.36,5.11,1.24.71,1.1.65,2.46-.14,3.52l-5.58,7.3c1.89-.75,4.11,0,4.95,1.68.79,1.56.12,3.4-1.54,4.25l-13.84,7.08c-1.79.92-4.09.38-5.12-1.21-.72-1.11-.67-2.49.14-3.55l5.56-7.26-23.41,12.02c-.57.3-1.21.46-1.87.47Z"/>
      <path class="cls-10" d="m345.25,483.7c-2.07,0-3.74-1.51-3.74-3.35,0-1.18.71-2.28,1.86-2.87l37.44-19.25c1.8-.92,4.09-.37,5.12,1.23.81,1.26.62,2.84-.48,3.91l-5.09,4.93c1.95.62,2.96,2.53,2.26,4.27-.29.73-.86,1.34-1.61,1.74l-15.21,7.82c-1.79.93-4.09.38-5.12-1.21-.83-1.27-.63-2.87.49-3.94l2.16-2.08-16.2,8.32c-.57.31-1.21.47-1.87.48h0Z"/>
      <path class="cls-10" d="m257.3,530.54c-2.07,0-3.75-1.5-3.75-3.34,0-1.11.63-2.16,1.67-2.77l27.14-16.11-41.7,21.43c-1.86.82-4.1.14-5.02-1.51-.8-1.44-.34-3.19,1.11-4.15l23.07-13.38-35.11,18.02c-1.82.88-4.1.28-5.08-1.34-.92-1.5-.41-3.38,1.18-4.35l23.81-13.64-34.64,17.8c-1.77.96-4.08.45-5.15-1.12-1.07-1.58-.51-3.63,1.26-4.59l17.7-10.01-26.9,13.8c-1.78.95-4.08.43-5.14-1.15-1.04-1.55-.51-3.56,1.21-4.53l65.38-38.21-77.18,39.66c-1.78.95-4.08.43-5.14-1.15-1.04-1.55-.51-3.56,1.21-4.53l78.35-45.91-83.98,43.16c-1.81.89-4.09.3-5.09-1.31-.93-1.51-.43-3.4,1.17-4.37l71.44-41.38-71.33,36.65c-1.79.92-4.09.37-5.12-1.22-1.01-1.56-.45-3.54,1.26-4.5l3.82-2.12c-1.96.59-4.09-.34-4.76-2.08-.55-1.44.06-3.03,1.49-3.86l86.03-51.19-89.09,45.79c-1.8.91-4.09.35-5.11-1.25-.97-1.52-.46-3.44,1.16-4.42l83-49.31-100.27,51.53c-1.82.88-4.1.28-5.08-1.34-.92-1.51-.4-3.39,1.2-4.36l46.89-26.54-50.29,25.84c-1.83.87-4.1.26-5.07-1.37-.9-1.51-.38-3.38,1.2-4.34l24.44-13.73-23.29,11.96c-1.79.92-4.09.38-5.12-1.21-.99-1.52-.48-3.47,1.16-4.45l70.48-42.18-63.29,32.52c-1.8.91-4.09.35-5.11-1.25-.97-1.52-.46-3.44,1.16-4.42l38.69-22.89-30.57,15.71c-1.81.9-4.09.32-5.1-1.29-.93-1.49-.45-3.36,1.11-4.35l31.65-19.27-22.21,11.41c-1.81.9-4.09.33-5.1-1.28-.89-1.42-.51-3.2.9-4.22l38.15-26.95-23.35,12.01c-1.8.91-4.09.34-5.11-1.26-.9-1.41-.52-3.2.89-4.22l12.69-9.07c-1.17-.1-2.26-.57-3.06-1.33-1.14-1.34-.99-3.23.37-4.41l12.83-11.19c-.87-1.58-.21-3.48,1.5-4.36l8.94-4.6c1.79-.92,4.09-.37,5.12,1.22.85,1.32.6,2.98-.62,4.05l-1.38,1.19,12.6-6.47c1.8-.91,4.09-.34,5.11,1.26.9,1.41.52,3.2-.89,4.22l-10.3,7.34,25.03-12.86c1.8-.91,4.09-.36,5.11,1.25.91,1.42.53,3.23-.91,4.25l-38.24,26.99,63.21-32.48c1.81-.9,4.09-.32,5.1,1.29.93,1.49.45,3.36-1.11,4.35l-31.61,19.24,48.44-24.89c1.83-.87,4.1-.25,5.07,1.37.89,1.48.4,3.31-1.13,4.29l-38.65,22.87,55.55-28.55c1.76-.98,4.07-.5,5.17,1.06s.56,3.62-1.19,4.6l-70.48,42.18,93.05-47.85c1.81-.89,4.09-.3,5.09,1.32.94,1.52.41,3.43-1.22,4.39l-24.47,13.74,35.59-18.25c1.81-.9,4.09-.32,5.1,1.28.96,1.53.43,3.45-1.21,4.42l-46.86,26.55,49.99-25.69c1.8-.91,4.09-.35,5.11,1.25.97,1.52.46,3.44-1.16,4.42l-83.04,49.31,87.81-45.12c1.81-.9,4.09-.33,5.1,1.28.95,1.5.45,3.4-1.14,4.38l-86.02,51.19,89.89-46.19c1.79-.92,4.09-.37,5.12,1.22,1.01,1.56.45,3.54-1.26,4.5l-1.77.97,1.66-.85c1.81-.9,4.09-.32,5.1,1.29.95,1.52.44,3.43-1.19,4.4l-71.54,41.45,73.06-37.54c1.81-.9,4.09-.33,5.1,1.28.95,1.51.44,3.42-1.17,4.39l-78.28,45.87,79.52-40.86c1.8-.91,4.09-.35,5.11,1.25.97,1.52.46,3.46-1.18,4.43l-65.43,38.24,65.71-33.76c1.82-.88,4.1-.28,5.08,1.34.92,1.51.4,3.39-1.2,4.36l-17.65,10.01,16.4-8.42c1.82-.88,4.1-.28,5.08,1.34.92,1.5.41,3.38-1.18,4.35l-23.94,13.69,22.49-11.57c1.81-.9,4.09-.32,5.1,1.29.95,1.52.44,3.43-1.19,4.4l-22.99,13.35,21.35-10.97c1.82-.88,4.09-.29,5.09,1.33.91,1.49.43,3.35-1.14,4.33l-40.12,23.83c2.02.4,3.3,2.18,2.85,3.98-.19.76-.67,1.43-1.35,1.91l-19.35,13.42,17.82-9.16c1.78-.94,4.08-.42,5.14,1.17.89,1.34.63,3.05-.64,4.12l-12.94,11.11,6.75-3.46c1.8-.91,4.09-.35,5.11,1.25,1.01,1.59.41,3.61-1.36,4.53l-33.19,17.05c-1.78.94-4.08.42-5.14-1.17-.89-1.34-.63-3.05.64-4.12l12.92-11.11-37.93,19.5c-1.79.92-4.09.38-5.12-1.22-.94-1.44-.54-3.28.94-4.3l19.31-13.42-38.34,19.71c-.57.29-1.22.45-1.87.45h0Z"/>
      <path class="cls-15" d="m258.37,403.65c-2.07,0-3.75-1.49-3.75-3.34,0-1.05.56-2.04,1.5-2.67l30.26-20.33-47.55,24.43c-1.8.91-4.09.35-5.11-1.25-.94-1.47-.5-3.33,1.03-4.34l37.73-24.38-50.19,25.78c-1.79.93-4.08.39-5.13-1.2-.99-1.5-.51-3.43,1.09-4.42l34.84-21.84-43.2,22.2c-1.8.92-4.09.37-5.12-1.23-.95-1.48-.5-3.36,1.05-4.36l45.43-29.31-53.3,27.37c-1.79.92-4.09.38-5.12-1.21-.99-1.52-.48-3.47,1.16-4.45l17.16-10.27-19.87,10.21c-1.81.9-4.09.32-5.1-1.29-.9-1.44-.49-3.25.97-4.26l44.42-29.95-48.81,25.08c-1.79.93-4.08.39-5.13-1.2-.95-1.45-.54-3.3.95-4.32l31.34-21.61-32.35,16.62c-1.81.89-4.09.31-5.1-1.3-.89-1.43-.49-3.23.96-4.24l13.95-9.46-11.89,6.11c-1.79.93-4.08.38-5.13-1.21-.83-1.26-.63-2.86.48-3.94l24.11-23.43c-.09-.12-.18-.24-.27-.36-1.04-1.6-.42-3.64,1.37-4.56l8.88-4.56c1.8-.92,4.09-.37,5.12,1.23.81,1.26.62,2.84-.48,3.91l-16.77,16.31,41.78-21.43c1.8-.91,4.09-.34,5.11,1.26.92,1.44.51,3.26-.96,4.28l-14,9.44,29.24-15.02c1.8-.91,4.09-.36,5.11,1.24.92,1.44.52,3.26-.95,4.28l-31.33,21.61,52.83-27.15c1.81-.9,4.09-.32,5.1,1.29.9,1.44.49,3.25-.97,4.26l-44.43,29.99,63.38-32.54c1.79-.92,4.09-.38,5.12,1.21.99,1.52.48,3.47-1.16,4.45l-17.16,10.25,20.64-10.61c1.8-.92,4.09-.37,5.12,1.23.95,1.48.5,3.36-1.05,4.36l-45.47,29.33,52.56-27c1.79-.93,4.08-.39,5.13,1.2.99,1.5.51,3.43-1.09,4.42l-34.79,21.82,40.27-20.69c1.8-.91,4.09-.35,5.11,1.25.94,1.47.5,3.33-1.03,4.34l-37.72,24.38,38.07-19.56c1.71-.88,3.91-.43,5,1.04,1.1,1.47.72,3.45-.87,4.51l-30.27,20.34,21-10.78c1.78-.94,4.08-.41,5.13,1.18.95,1.44.57,3.28-.91,4.31l-15,10.74c2.01.43,3.25,2.24,2.76,4.03-.24.89-.88,1.65-1.77,2.1l-34.24,17.59c-1.8.91-4.09.34-5.11-1.26-.9-1.41-.52-3.2.89-4.22l9.71-6.95-31.3,16.09c-.58.3-1.25.46-1.93.45h0Z"/>
      <path class="cls-8" d="m221.21,363.29c-2.07,0-3.75-1.5-3.74-3.34,0-.66.22-1.3.63-1.85l2.59-3.45-7.64,3.92c-1.55.81-3.51.53-4.7-.67-1.18-1.2-1.24-2.98-.13-4.24l9.79-11.2-12.1,6.22c-1.82.87-4.1.26-5.08-1.36-.79-1.32-.51-2.94.7-3.98l15.32-12.22c-1.03-1.59-.42-3.63,1.36-4.55l12.75-6.54c1.82-.87,4.1-.26,5.08,1.36.79,1.32.51,2.94-.7,3.98l-3,2.37c1.24-.15,2.48.27,3.3,1.12,1.18,1.21,1.23,2.99.13,4.24l-9.75,11.17,4.95-2.54c1.8-.92,4.09-.37,5.12,1.23.71,1.1.66,2.46-.13,3.51l-3.19,4.24c1.34.04,2.58.66,3.31,1.67,1.03,1.59.42,3.63-1.36,4.55l-11.55,5.93c-.59.29-1.26.44-1.93.41h0Z"/>
      <path class="cls-8" d="m287.6,363.57c-2.07,0-3.75-1.5-3.74-3.34,0-.63.2-1.25.58-1.78l7.83-11-12.18,6.27c-1.8.92-4.09.37-5.12-1.23-.65-1-.66-2.23-.05-3.25l6.65-10.9-1.5.75c-1.79.92-4.09.37-5.12-1.23-.39-.6-.56-1.3-.48-2l1.21-10.55c-.3-.23-.55-.5-.75-.81-1.04-1.59-.43-3.63,1.36-4.56l1.69-.84c1.79-.92,4.09-.37,5.12,1.23.39.6.56,1.3.48,2l-.88,7.72,6.64-3.41c1.8-.92,4.09-.37,5.12,1.23.65,1,.66,2.23.05,3.25l-6.65,10.9,13.89-7.14c1.8-.92,4.09-.36,5.12,1.23.69,1.07.66,2.39-.08,3.44l-7.81,10.99,2.8-1.44c1.75-.99,4.06-.53,5.18,1.03s.59,3.62-1.15,4.61c-.09.05-.18.1-.27.14l-16.01,8.23c-.58.3-1.24.46-1.91.45h0Z"/>
      <path class="cls-17" d="m216.85,454.67c-2.07,0-3.75-1.49-3.75-3.34,0-.72.26-1.42.75-2l6.59-7.71-7.67,3.94c-1.79.92-4.09.38-5.12-1.21-.79-1.22-.64-2.75.38-3.83l3.34-3.51c-.74-.28-1.36-.77-1.75-1.39-1.03-1.59-.42-3.63,1.36-4.55l12.42-6.38c1.8-.91,4.09-.35,5.11,1.25.77,1.21.62,2.72-.38,3.79l-.44.47,5.11-2.62c1.54-.81,3.51-.53,4.69.67,1.18,1.19,1.25,2.96.17,4.22l-6.58,7.7,7.17-3.68c1.75-.99,4.06-.53,5.18,1.03,1.11,1.56.59,3.62-1.15,4.61-.09.05-.18.1-.27.14l-23.3,12.01c-.57.29-1.21.43-1.87.42h0Z"/>
      <path class="cls-17" d="m289.92,470.17c-2.07,0-3.75-1.49-3.75-3.34,0-.61.19-1.21.54-1.73l6.85-10.09-12.54,6.44c-1.8.92-4.09.36-5.12-1.24-.71-1.11-.65-2.48.15-3.54l4.7-6.12c-2.06.17-3.89-1.17-4.08-3.01-.14-1.29.58-2.53,1.83-3.19l12.42-6.38c1.8-.91,4.09-.35,5.11,1.25.71,1.1.65,2.47-.15,3.52l-4.3,5.59,10.88-5.59c1.8-.92,4.09-.37,5.12,1.23.68,1.05.66,2.35-.04,3.39l-6.85,10.09,4.5-2.3c1.75-.99,4.06-.53,5.18,1.03,1.11,1.56.59,3.62-1.15,4.61-.09.05-.18.1-.27.14l-17.11,8.79c-.58.31-1.25.46-1.93.45h0Z"/>
      <path class="cls-17" d="m248.2,503.85c-2.07,0-3.75-1.49-3.75-3.34,0-.72.26-1.42.75-2l3.1-3.7-9,4.63c-1.8.92-4.09.37-5.12-1.23-.81-1.26-.62-2.84.48-3.91l3.37-3.27-2.74,1.41c-1.78.94-4.08.41-5.14-1.17-.82-1.23-.66-2.79.38-3.87l3.45-3.68c-.79-.27-1.45-.78-1.87-1.44-1.03-1.59-.42-3.63,1.36-4.55l12.42-6.38c1.8-.91,4.09-.36,5.11,1.25.77,1.21.63,2.71-.37,3.78l-.79.84,5.6-2.87c1.8-.91,4.09-.35,5.11,1.25.8,1.25.61,2.82-.48,3.89l-3.39,3.29,3.59-1.84c1.8-.92,4.09-.36,5.12,1.24.74,1.15.65,2.58-.24,3.65l-4.18,4.99c2.06.19,3.55,1.83,3.34,3.67-.12,1.06-.81,2-1.84,2.53l-12.42,6.37c-.57.31-1.22.47-1.88.48h0Z"/>
      <path class="cls-10" d="m329.52,343.68c-2.07,0-3.75-1.49-3.76-3.33,0-.76.29-1.5.83-2.1l7.75-8.63-25.98,13.35c-1.8.91-4.09.36-5.11-1.24-.91-1.41-.54-3.2.87-4.23l3.51-2.54-7.62,3.91c-1.79.93-4.08.39-5.13-1.2-.95-1.45-.54-3.3.95-4.32l1.78-1.23-3,1.55c-1.79.93-4.08.39-5.13-1.2-.94-1.43-.56-3.25.88-4.28l10.56-7.67-15.23,7.82c-1.8.9-4.09.33-5.11-1.27-.91-1.44-.5-3.24.95-4.26l7.37-5.04-13.92,7.19c-1.8.92-4.09.37-5.12-1.23-.95-1.48-.5-3.36,1.05-4.36l1.79-1.15-10,5.14c-1.8.91-4.09.35-5.11-1.25-.93-1.46-.5-3.31,1-4.31l18.75-12.4-38.42,19.75c-1.75.99-4.06.53-5.18-1.03-1.11-1.56-.59-3.62,1.15-4.61.09-.05.18-.1.27-.14l95.11-48.9c1.81-.9,4.09-.32,5.1,1.29.91,1.45.48,3.27-1,4.27l-18.75,12.4,16.3-8.38c1.8-.92,4.09-.37,5.12,1.23.95,1.48.5,3.36-1.05,4.36l-1.83,1.18.36-.18c1.8-.92,4.09-.37,5.12,1.23.93,1.44.52,3.28-.96,4.3l-7.39,5.05,6.59-3.38c1.8-.91,4.09-.36,5.11,1.24.91,1.41.54,3.2-.87,4.23l-10.58,7.66,10.03-5.16c1.79-.93,4.08-.39,5.13,1.2.95,1.45.54,3.3-.95,4.32l-1.79,1.23.63-.32c1.81-.9,4.09-.33,5.1,1.28.88,1.4.52,3.17-.87,4.2l-3.49,2.52,2.42-1.23c1.8-.92,4.09-.36,5.12,1.24.76,1.19.64,2.67-.32,3.74l-7.75,8.63,6-3.07c1.83-.85,4.1-.22,5.06,1.41.9,1.54.33,3.43-1.31,4.36l-23.19,11.89c-.57.3-1.21.46-1.87.47h0Z"/>
      <path class="cls-10" d="m186.7,343.68c-2.07,0-3.75-1.5-3.74-3.34,0-1.14.65-2.19,1.73-2.81l9.4-5.34-21.24,10.89c-1.77.96-4.08.45-5.15-1.12-1.07-1.58-.51-3.63,1.26-4.59l22.59-12.85-27.74,14.24c-1.81.89-4.09.3-5.09-1.32-.94-1.52-.41-3.43,1.22-4.39l18.97-10.68-18.64,9.58c-1.76.97-4.07.48-5.16-1.08-1.09-1.57-.54-3.63,1.22-4.6l73.19-42.92-64.24,33.02c-1.77.96-4.07.47-5.16-1.1s-.53-3.63,1.24-4.59l48.08-27.65-37.6,19.32c-1.82.89-4.09.29-5.09-1.32-.91-1.48-.43-3.34,1.12-4.32l75.57-45.48-63.85,32.81c-1.83.87-4.1.25-5.07-1.38-.89-1.48-.39-3.32,1.15-4.29l38.15-22.23-33.07,16.99c-1.81.89-4.09.31-5.1-1.3-.92-1.47-.46-3.33,1.08-4.32l67.23-41.74-64.76,33.28c-1.78.94-4.08.42-5.14-1.17-1.02-1.53-.51-3.5,1.15-4.48l44.63-26.99-41.99,21.59c-1.78.94-4.08.42-5.14-1.17-1.01-1.51-.52-3.47,1.11-4.46l42.56-26.42-39.96,20.53c-1.8.91-4.09.36-5.11-1.24-.92-1.44-.52-3.26.95-4.28l42.74-29.37-39.82,20.45c-1.8.91-4.09.34-5.11-1.27-.87-1.37-.54-3.1.78-4.14l28.97-22.34-20.4,10.48c-1.79.93-4.08.39-5.13-1.2-.91-1.39-.58-3.16.79-4.21l11.55-8.87c-.63-.3-1.15-.75-1.5-1.29-1.03-1.59-.42-3.63,1.37-4.55l23.66-12.18c1.79-.93,4.08-.4,5.13,1.19.92,1.4.58,3.18-.8,4.23l-4.5,3.47,20.12-10.33c1.8-.91,4.09-.34,5.11,1.27.87,1.37.54,3.1-.78,4.14l-28.97,22.33,54-27.73c1.8-.91,4.09-.36,5.11,1.24.92,1.44.52,3.26-.95,4.28l-42.74,29.37,67.63-34.73c1.8-.92,4.09-.37,5.12,1.23.97,1.5.49,3.4-1.1,4.39l-42.55,26.42,55.06-28.29c1.79-.93,4.09-.38,5.12,1.21.99,1.51.49,3.45-1.14,4.44l-44.67,27,51.86-26.63c1.8-.92,4.09-.37,5.12,1.23.97,1.5.49,3.4-1.1,4.39l-67.23,41.72,73.33-37.68c1.8-.91,4.09-.35,5.11,1.25.97,1.52.46,3.46-1.18,4.43l-38.16,22.23,39.17-20.12c1.78-.94,4.08-.42,5.14,1.17,1.02,1.53.51,3.5-1.15,4.48l-75.57,45.47,75.6-38.85c1.8-.91,4.09-.35,5.11,1.25.98,1.53.45,3.48-1.21,4.44l-48.12,27.67,44.6-22.95c1.76-.97,4.07-.48,5.16,1.08,1.09,1.57.54,3.63-1.22,4.6h0l-73.2,42.94,67.64-34.76c1.81-.89,4.09-.3,5.09,1.32.94,1.52.41,3.43-1.22,4.39l-18.96,10.68,13.95-7.18c1.77-.96,4.08-.46,5.16,1.12,1.08,1.58.51,3.63-1.26,4.59l-22.57,12.83,17.5-9c1.81-.9,4.09-.32,5.1,1.28.96,1.53.43,3.45-1.21,4.42l-9.4,5.34,4.42-2.26c1.82-.88,4.1-.28,5.08,1.34.92,1.5.41,3.38-1.18,4.35l-115.83,66.48c-.31.73-.89,1.34-1.65,1.74l-13.35,6.85c-1.82.88-4.1.28-5.08-1.34-.92-1.5-.41-3.38,1.18-4.35l1.5-.86-12.75,6.56c-.58.3-1.23.46-1.9.45h0Z"/>
      <path class="cls-8" d="m261.58,285c-2.07,0-3.75-1.49-3.75-3.33,0-1,.5-1.95,1.38-2.59l2.86-2.09-13.5,6.92c-1.74,1-4.06.56-5.19-.98-1.06-1.46-.69-3.4.85-4.46l23.13-17.84-33.04,16.98c-1.8.91-4.09.36-5.12-1.24-.89-1.39-.55-3.16.83-4.2l29.58-22.1-37.39,19.26c-1.8.92-4.09.37-5.12-1.23-.91-1.4-.55-3.18.84-4.22l31.79-23.55-35.99,18.51c-1.79.93-4.08.4-5.13-1.19-.92-1.4-.58-3.18.8-4.23l29.67-22.75-25.94,13.35c-1.8.91-4.09.35-5.11-1.25-.8-1.25-.61-2.82.48-3.89l17.25-16.69-.82.41c-1.75.99-4.06.53-5.18-1.03-1.11-1.56-.59-3.62,1.15-4.61.09-.05.18-.1.27-.14l22.01-11.31c1.8-.92,4.09-.37,5.12,1.23.81,1.26.62,2.84-.48,3.91l-17.25,16.69,39.3-20.2c1.8-.91,4.09-.34,5.11,1.26.87,1.38.54,3.11-.79,4.15l-29.66,22.74,39.42-20.28c1.79-.93,4.08-.4,5.13,1.19.94,1.42.57,3.23-.86,4.27l-31.81,23.55,36.53-18.76c1.8-.9,4.09-.33,5.11,1.27.88,1.39.53,3.13-.82,4.17l-29.57,22.09,29.99-15.4c1.8-.91,4.09-.34,5.11,1.27.87,1.37.54,3.1-.78,4.14l-23.15,17.85,18.88-9.7c1.8-.91,4.09-.35,5.11,1.25.9,1.41.54,3.18-.86,4.22l-10.86,7.94c1.85.83,2.6,2.83,1.67,4.48-.33.58-.84,1.07-1.48,1.39l-27.86,14.31c-.57.3-1.22.45-1.87.45h0Z"/>
      <path class="cls-10" d="m246.99,261.17c-2.07,0-3.75-1.49-3.75-3.34,0-.8.32-1.56.9-2.17l4.84-5.02-5.79,2.97c-1.8.92-4.09.37-5.12-1.23-.74-1.15-.65-2.58.24-3.65l4.21-5.07c-2.06-.17-3.58-1.8-3.38-3.63.11-1.07.8-2.03,1.85-2.57l12.42-6.38c1.8-.91,4.09-.36,5.11,1.24.73,1.14.64,2.57-.23,3.63l-3.2,3.84,9.15-4.67c1.79-.92,4.09-.38,5.12,1.22.79,1.23.64,2.76-.4,3.84l-4.84,5.02,4.16-2.13c1.75-.99,4.06-.53,5.18,1.03,1.11,1.56.59,3.62-1.15,4.61-.09.05-.18.1-.27.14l-23.17,11.9c-.57.29-1.22.44-1.87.43h0Z"/>
      <path class="cls-9" d="m253.46,290.19c-2.07,0-3.75-1.49-3.75-3.34,0-.95.45-1.85,1.24-2.48l6.47-5.18-15.75,8.08c-1.8.92-4.09.37-5.12-1.23-.89-1.38-.56-3.14.79-4.18l1.22-.94-5.2,2.67c-1.79.92-4.09.38-5.12-1.21-.68-1.05-.67-2.34.02-3.39l6.12-9.16-11.25,5.78c-1.79.92-4.09.38-5.12-1.22-.15-.22-.26-.46-.34-.71l-2.75-8.21c-1.59.32-3.22-.33-4.01-1.6-1.04-1.59-.43-3.63,1.36-4.56l3.05-1.57c1.79-.93,4.09-.38,5.12,1.21.15.23.26.47.35.72l2.7,8.05,19.6-10.07c1.47-.77,3.35-.55,4.54.54,1.2,1.08,1.43,2.75.55,4.06l-6.12,9.16,26.93-13.84c1.8-.92,4.09-.37,5.12,1.23.89,1.38.56,3.14-.79,4.18l-1.21.94,12.45-6.4c1.82-.88,4.1-.28,5.08,1.34.81,1.32.52,2.96-.7,4l-6.47,5.18,10.76-5.53c1.8-.91,4.09-.35,5.11,1.25,1.01,1.59.41,3.61-1.36,4.53l-41.68,21.43c-.56.3-1.21.47-1.87.47h0Z"/>
      <g>
        <path class="cls-2" d="m386.62,196.25c-7.5-24.3-38.55-5.78-57.23-6.29-18.98-31.82-126.53-26.58-147.21-.5-16.79,0-51.12-17.04-56.99,6.67-5.1,20.52,27.53,29.71,45.27,33.09,2.57,18.63,7.3,38.92,1.5,57.13-7.09,17.35-31.64,47.64-1.81,57.3.95,7.38,3.31,14.56,6.99,21.22-28.67,24.78-43.78,59.1-52.63,93.14-4.37,20.91,20.76,27.88,39.92,26.03-6.13,14.51-1.96,32.99,15.81,38.88-4.5,21.85-9.75,43.58,24.15,41.68,30.04,2.88,36.21-9.58,37.9-34.1,8.49.44,17,.42,25.49-.04,1.6,28.55,9.19,36.4,41.65,33.44,31.13.8,26.71-22.36,22.1-42.09,15.48-7.38,22.11-24.02,15.33-38.44,19.43,2.42,44.09-6.76,39.57-27.33-8.67-33.32-23.4-67.55-51.61-91.79,3.26-6.43,5.34-13.28,6.16-20.3,34.3-10.61-4-55.58-5-76.64,1.87-12.79,2.95-25.67,3.25-38.57,17.32-3.26,51.73-12.35,47.39-32.5h0Zm-35.22-2.55c7.75-1.43,18.16-6.05,24.41.35,15.36,15.7-25.4,26.03-36.74,28.13-.24-8.75-2.2-17.4-5.77-25.56,6.08-.7,12.13-1.68,18.1-2.92Zm-217.16.7c6.17-6.19,16.08-1.78,23.65-.35,5.94,1.11,12.31,2.42,18.56,3.02-4.07,7.49-6.22,15.7-6.28,24.03-13.89-3.06-49.37-13.21-35.92-26.7Zm97.57,353.97c-4.15,11.63-18.75,8.63-29.33,8.63-24.74,2.85-16.97-18.43-15.36-32.13,15.89,2.74,31.98,4.53,48.14,5.34-.59,6.13-1.74,12.2-3.45,18.16Zm91.98,5.82c-4.3,4.79-12.45,3.51-18.31,3.51-24.96,2.6-26.46-8.68-28.82-27.71,15.53-.89,30.98-2.67,46.26-5.34.06,9.62,6.12,20.62.88,29.54h0Zm54.66-94.91c3.2,19.46-19.24,15.83-33.58,17.55-4.5-16.97-8.44-34.09-11.25-51.35-.75-4.47-8.02-.05-7.43,3.63,2.85,17.65,6.91,35.16,11.52,52.5,20.19,47.77-48.22,39.17-81.27,42.37-31.91-2.54-103.34,3.82-83.38-42.72,5.22-17.84,9.3-35.94,12.21-54.2.75-4.58-7.86-3.24-8.47.51-2.69,16.65-6.47,33.18-10.77,49.56-14.91-.3-36.85-1.46-33.61-19.36,8.19-31.49,21.8-64.15,48.06-87.44,31.03,43.84,118.55,44.78,149.78,1.33,26.07,23.58,39.87,55.83,48.18,87.6h0Zm-194.1-94.29c-.02-.85-.48-1.64-1.23-2.16-3.11-5.48-5.17-11.38-6.1-17.46,7.32,1.14,14.81,1.1,22.12-.1,1.56,14.36,29.58,27.14,37.8,10.78.8-9.21.95-18.46.46-27.69,11.67-4.88,25.15-5.03,36.96-.43.63,9.67-1.38,19.78.33,29.3,7.86,16.69,34.57,1.11,36.18-12.16,7.59,1.01,15.3,1.11,22.92.31-10.82,60.12-118.76,67.63-149.44,19.61h0Zm40.12-7.62c-8.15,1.19-14.8-7.27-16.57-14.02,7.44-2.48,14.41-5.95,20.68-10.29v14.41c0,3.27,1.56,9.08-4.11,9.89Zm76.71-14.58c.92.34,1.87.63,2.83.87-1.63,7.3-9.75,15.24-18.54,12.43-5.25-1.68-3.86-6.01-3.86-10.3v-14.12c6.1,4.26,12.66,7.99,19.58,11.12h0Zm15.16-6.25c-13.39-2.13-23.21-9.92-35.01-15.08-.42-1.21-1.86-1.88-3.22-1.51-.13.03-.25.08-.37.13-19.24-6.34-40.7-4.41-58.13,5.23-12.79,6.61-22.49,15.97-39.6,11.23-28.55-7.9-10.63-25.9-3.9-42.38,9.34-22.87,3.45-45.23.54-68.9-1.41-53.3,63.91-49.9,105.35-47.58,59.06,3.34,51.45,51.89,47.18,89.72-2.83,24.75,43.97,74.76-12.85,69.13h0Z"/>
        <path class="cls-2" d="m244.9,440.26c-.91-21.91-38.2-20.35-38.81.79.66,21.91,38.06,20.3,38.81-.79Zm-19.74,10.59c-12.75-.94-13.89-19.94-.4-20.38,14.01-.3,15.15,21.24.4,20.38Z"/>
        <path class="cls-2" d="m273.56,453.63c-.19,21.07,38.31,22.21,38.75.81-.21-20.92-38.74-22.45-38.75-.81Zm21,10.48c-14.61,2.22-16.05-19.2-2.07-20.3,13.37-.92,14.41,18.21,2.05,20.3h.02Z"/>
        <path class="cls-2" d="m228.7,488.33c1.35,22.13,38.31,19.19,38.59-1.91-1.3-21.74-38.96-19.07-38.59,1.91Zm8.59-1.91c.89-13.68,21.62-10.54,21.4,1.91-.82,13.44-21.76,10.39-21.4-1.91Z"/>
        <path class="cls-2" d="m251.67,203.46c-27.64,2.85-47.45,25.11-44.24,49.72.36,2.77,1.01,5.5,1.94,8.16-.36.91.07,1.92,1.01,2.4,15.09,36.75,76.64,34.93,89.98-1.87.83-.91,1.28-2.05,1.26-3.22,7.67-22.72-6.8-46.67-32.32-53.5-5.71-1.53-11.69-2.1-17.63-1.69Zm45.19,44.31c-.18,3.08-.74,6.13-1.68,9.1h-25.09c6.42-7.1,5.17-17.49-2.81-23.21-3.13-2.24-6.99-3.52-11.01-3.64-11.06.38-19.67,8.67-19.24,18.52.13,2.94,1.07,5.8,2.74,8.34h-24.03c-16.4-52.89,77.01-62.13,81.12-9.1Zm-40.59,8.95c-13.55-.67-16.68-19.4-1.57-19.28,13.67.13,16.59,18.58,1.57,19.3v-.02Zm-37.33,7.27h73.05c-14.76,24.63-58.45,23.88-73.05.02v-.02Z"/>
      </g>
    </g>
  </g>
  <g id="Capa_3" data-name="Capa 3">
    <g id="Capa_1-2" data-name="Capa 1">
      <g>
        <g>
          <g>
            <path class="cls-4" d="m314.27,17.77s-1.83,1.17-4.61,3.6c-2.79,2.43-6.49,6.19-10.19,11.56-3.7,5.32-7.35,12.12-10.19,20.48-2.84,8.31-4.77,18.15-5.48,29.56-.66,11.41,0,23.83,1.01,36,1.01,12.17,2.33,24.08,3.45,34.53,1.12,10.39,1.98,19.52,2.53,26.01.56,6.44.86,10.29.86,10.29,0,0,1.32-3.65,3.5-9.73,2.23-6.13,5.42-14.6,9.18-24.44,3.75-9.84,8.11-21.04,12.27-32.5,4.11-11.51,7.96-23.17,10.29-34.43,2.28-11.2,2.99-21.34,2.38-30.07-.56-8.77-2.38-16.27-4.56-22.36-2.18-6.13-4.82-10.8-6.9-13.84-2.08-3.09-3.55-4.66-3.55-4.66Z"/>
            <path class="cls-3" d="m328.92,75.67c-6.49,5.68-12.12,10.8-16.38,14.7-4.31,3.95-7.35,7-8.87,8.37-1.06-1.77-3.35-5.37-6.39-10.39-3.14-4.87-7.2-11.15-12.02-18.4-.15,1.17-.35,2.33-.51,3.5,5.42,8.21,9.84,14.96,12.88,19.77,3.04,4.87,4.82,7.76,4.82,7.81l.71,1.17,1.01-.96s2.54-2.38,6.69-6.29c4.21-3.8,10.24-9.33,17.59-15.77.15-1.22.3-2.38.41-3.55l.05.05Z"/>
            <path class="cls-13" d="m289.93,203.03s1.01-3.09,2.59-9.43c1.57-6.34,3.7-15.92,5.73-29,1.98-13.08,3.4-28.24,4.06-40.21.66-11.97.71-20.69.71-20.69,0,0-2.23,8.42-4.66,20.18-2.48,11.71-5.07,26.77-6.49,39.9s-1.83,22.97-1.98,29.46c-.1,6.54.05,9.73.05,9.73v.05Z"/>
            <path class="cls-7" d="m286.33,64.11c5.37,8.31,9.89,15.16,13.08,20.23,3.19,5.02,5.07,8.01,5.07,8.01,0,0,2.59-2.38,7-6.44,4.46-4.01,10.7-9.63,17.9-16.12.86-16.58-2.69-29.61-6.69-38.58-1.98-4.51-4.11-7.76-5.68-10.04-1.57-2.23-2.69-3.4-2.69-3.4,0,0-1.32.81-3.45,2.59-2.13,1.77-5.02,4.41-8.06,8.16-6.19,7.61-12.93,19.37-16.43,35.59h-.05Z"/>
            <path class="cls-12" d="m326.89,88.65c2.28-11.2,2.99-21.34,2.38-30.07-.56-8.77-2.38-16.27-4.56-22.36-2.18-6.13-4.82-10.8-6.9-13.84-2.08-3.09-3.55-4.66-3.55-4.66l-22.61,171.97s1.32-3.65,3.5-9.73c2.23-6.13,5.42-14.6,9.18-24.44,3.75-9.84,8.11-21.04,12.27-32.5,4.11-11.51,7.96-23.17,10.29-34.43v.05Z"/>
          </g>
          <g>
            <path class="cls-5" d="m375.92,48.8s-2.03.66-5.32,2.28c-3.3,1.67-7.76,4.31-12.62,8.42-4.87,4.16-10.09,9.73-14.86,16.98-4.77,7.25-9.13,16.12-12.57,26.82-3.5,10.7-5.93,22.66-8.01,34.53-2.08,11.81-3.8,23.47-5.37,33.72-1.57,10.24-3.04,19.16-4.11,25.45-1.06,6.24-1.72,9.99-1.72,9.99,0,0,2.18-3.14,5.78-8.42,3.6-5.17,8.77-12.47,14.86-20.94,6.03-8.42,13.03-18.1,19.82-27.89,6.74-9.84,13.38-20.08,18.4-30.17,5.02-10.09,8.16-19.52,9.84-28.04,1.67-8.57,1.83-16.07,1.27-22.41-.61-6.34-1.88-11.46-3.09-14.96-1.22-3.45-2.23-5.32-2.23-5.32l-.05-.05Z"/>
            <path class="cls-8" d="m375.31,107.71c-3.8,1.83-7.3,3.6-10.6,5.32-3.19,1.67-6.13,3.19-8.72,4.56-5.07,2.64-8.72,4.72-10.49,5.68-.61-1.93-1.83-5.93-3.5-11.46-1.72-5.58-4.11-12.42-6.84-20.53-.46,1.06-.91,2.13-1.37,3.19,1.52,4.51,2.94,8.67,4.21,12.42.61,1.83,1.17,3.55,1.72,5.17.51,1.62.96,3.14,1.42,4.51,1.67,5.37,2.64,8.57,2.69,8.62l.41,1.27,1.22-.66s.76-.41,2.13-1.17,3.3-1.77,5.78-3.09c2.54-1.32,5.53-2.89,8.97-4.72,1.77-.91,3.6-1.88,5.58-2.89,1.98-.96,4.01-1.98,6.13-2.99.46-1.12.86-2.18,1.27-3.24Z"/>
            <path class="cls-13" d="m306.31,219.15s1.72-2.69,4.82-8.37c3.09-5.68,7.5-14.25,12.67-26.16s10.34-26.11,13.94-37.32c3.65-11.2,5.83-19.47,5.83-19.47,0,0-4.26,7.45-9.48,18.05-5.27,10.55-11.51,24.23-16.17,36.4-4.66,12.17-7.5,21.4-9.23,27.58-1.72,6.19-2.38,9.28-2.38,9.28Z"/>
            <path class="cls-1" d="m337.64,85.96c3.04,9.23,5.68,16.83,7.45,22.51,1.77,5.53,2.84,8.82,2.84,8.82,0,0,.76-.41,2.18-1.17s3.5-1.88,6.03-3.19c2.59-1.37,5.73-2.99,9.23-4.82,3.55-1.88,7.55-3.95,11.81-6.08,5.02-15.72,4.92-28.95,3.3-38.43-1.57-9.53-4.61-14.91-4.61-14.91,0,0-5.98,1.83-13.69,7.4-7.76,5.58-17.24,15.21-24.59,29.76l.05.1Z"/>
            <path class="cls-12" d="m370.14,119.52c5.02-10.09,8.16-19.52,9.84-28.04,1.67-8.57,1.83-16.07,1.27-22.41-.61-6.34-1.88-11.46-3.09-14.96-1.22-3.45-2.23-5.32-2.23-5.32l-64.59,158.13s2.18-3.14,5.78-8.42c3.6-5.17,8.77-12.47,14.86-20.94,6.03-8.42,13.03-18.1,19.82-27.89,6.74-9.84,13.38-20.08,18.4-30.17h-.05Z"/>
          </g>
          <g>
            <path class="cls-4" d="m427.28,92.2s-1.98.1-5.27.81-7.96,2.03-13.23,4.51c-5.22,2.43-11.26,6.24-17.19,11.51-5.98,5.27-11.91,12.17-17.59,20.84-5.63,8.67-10.65,18.71-15.31,28.7-4.66,10.04-8.87,19.82-12.78,28.65-7.71,17.54-13.54,30.01-13.54,30.01,0,0,2.64-2.23,7.1-5.98,4.46-3.75,10.8-9.02,18.2-15.11,7.4-6.13,15.77-12.83,24.13-20.03,8.37-7.15,16.68-14.7,23.47-22.46,6.84-7.76,11.86-15.36,15.36-22.56,3.5-7.15,5.53-13.94,6.49-19.62.96-5.73,1.01-10.55.81-13.94-.2-3.4-.66-5.32-.66-5.32Z"/>
            <path class="cls-3" d="m412.67,144.31c-3.8.76-7.35,1.52-10.6,2.18-3.24.76-6.24,1.42-8.82,2.03-5.12,1.22-8.82,2.08-10.65,2.48-.1-1.88-.25-5.68-.46-10.9-.1-2.64-.2-5.73-.46-9.02-.25-3.35-.51-6.95-.76-10.85-.66.81-1.32,1.67-1.98,2.54.3,4.36.61,8.37.86,11.97.15,3.6.3,6.74.46,9.38.2,5.12.35,8.16.35,8.21v1.22l1.27-.25c.05,0,2.99-.71,8.01-1.88,2.53-.61,5.63-1.32,9.13-2.08,3.5-.71,7.45-1.52,11.71-2.43.66-.86,1.27-1.72,1.93-2.59Z"/>
            <path class="cls-13" d="m325.07,226.85s2.18-1.93,6.24-6.19c4.06-4.26,10.04-10.8,17.49-20.18,7.4-9.38,15.36-20.69,21.24-29.81,5.93-9.13,9.84-15.97,9.84-15.97,0,0-5.53,5.63-12.73,13.79-7.2,8.11-15.97,18.81-23.02,28.49-7,9.68-11.71,17.19-14.75,22.26-2.99,5.07-4.31,7.66-4.31,7.66v-.05Z"/>
            <path class="cls-7" d="m384.44,116.13c.25,4.36.56,8.47.76,12.12.2,3.65.35,6.9.46,9.63.3,5.32.46,8.47.46,8.47,0,0,3.09-.71,8.26-1.83,2.64-.61,5.83-1.32,9.38-2.13,3.6-.76,7.6-1.62,11.86-2.53,4.06-6.34,6.9-12.47,8.82-18.15s2.84-10.75,3.24-15.16c.41-4.36.25-7.96.05-10.44-.2-2.48-.56-3.9-.56-3.9,0,0-5.73.25-13.94,3.4-8.16,3.04-18.86,9.38-28.85,20.58l.05-.05Z"/>
            <path class="cls-12" d="m405.32,153.59c6.84-7.76,11.86-15.36,15.36-22.56,3.5-7.15,5.53-13.94,6.49-19.62.96-5.73,1.01-10.55.81-13.94-.2-3.4-.66-5.32-.66-5.32l-94.86,125.03s2.64-2.23,7.1-5.98c4.46-3.75,10.8-9.02,18.2-15.11,7.4-6.13,15.77-12.83,24.13-20.03,8.37-7.15,16.68-14.7,23.47-22.46h-.05Z"/>
          </g>
          <g>
            <path class="cls-5" d="m461.4,140.01s-1.77-.41-4.87-.56c-3.14-.1-7.6,0-12.93,1.06s-11.41,2.94-18,6.34-13.54,8.16-20.63,14.65c-7.1,6.49-13.89,14.3-20.38,22.16-6.44,7.81-12.67,15.82-18.1,22.76-5.48,6.95-10.19,12.88-13.59,17.09-3.45,4.21-5.48,6.74-5.48,6.74,0,0,2.89-1.42,7.76-3.75,4.87-2.33,11.86-5.63,19.82-9.33,7.96-3.7,17.09-7.86,26.26-12.37s18.35-9.38,26.26-14.8,14.15-11.05,18.91-16.68c4.77-5.63,8.11-11.15,10.39-16.12,2.23-4.92,3.35-9.18,3.9-12.27.56-3.04.61-4.87.61-4.87l.05-.05Z"/>
            <path class="cls-8" d="m436.3,183.3c-7.3-.3-13.44-.61-18.4-.66-4.87-.05-8.47-.15-10.19-.15.2-.86.51-2.13.86-3.8s.81-3.7,1.27-6.08c.96-4.77,2.33-11.05,3.55-18.05-.76.61-1.57,1.22-2.38,1.83-1.37,7.96-2.89,14.75-3.8,19.37-.51,2.33-.86,4.16-1.17,5.48-.3,1.27-.46,1.98-.46,2.03l-.25,1.12h1.17s2.89.1,7.66.15c1.22,0,2.53,0,4.01.05,1.42.05,2.99.1,4.61.15,3.35.15,7.1.3,11.15.46.76-.61,1.57-1.27,2.28-1.88h.1Z"/>
            <path class="cls-13" d="m338.65,237.2s2.38-1.27,7.05-4.11c4.61-2.89,11.51-7.4,20.33-14.04,8.82-6.69,18.51-15.01,25.91-21.85,7.4-6.79,12.47-12.02,12.47-12.02,0,0-6.24,3.75-14.55,9.38-8.31,5.58-18.71,13.13-27.23,20.18-8.52,7.05-14.45,12.67-18.35,16.58-3.9,3.85-5.68,5.93-5.68,5.93l.05-.05Z"/>
            <path class="cls-1" d="m417.54,151.62c-.35,1.98-.76,3.9-1.12,5.78-.35,1.88-.76,3.65-1.06,5.32-.66,3.3-1.27,6.24-1.77,8.67-.46,2.43-.86,4.31-1.17,5.68-.3,1.32-.41,2.08-.41,2.08,0,0,2.94.1,7.91.25,5.07.05,11.91.41,20.13.66,10.14-9.48,15.77-19.42,18.51-27.07,2.74-7.6,2.84-12.88,2.84-12.88,0,0-1.27-.25-3.55-.46s-5.63-.2-9.68.25c-8.11.91-18.96,3.95-30.62,11.76v-.05Z"/>
            <path class="cls-12" d="m427.58,189.94c7.91-5.42,14.15-11.05,18.91-16.68s8.11-11.15,10.39-16.12c2.23-4.92,3.35-9.18,3.9-12.27.56-3.04.61-4.87.61-4.87l-113.97,90.2s2.89-1.42,7.76-3.75c4.87-2.33,11.86-5.63,19.82-9.33,7.96-3.7,17.09-7.86,26.26-12.37,9.18-4.51,18.35-9.38,26.26-14.8h.05Z"/>
          </g>
          <g>
            <path class="cls-4" d="m486.6,189.03s-1.52-.81-4.36-1.72c-1.42-.46-3.14-.96-5.17-1.37-2.03-.41-4.41-.76-7-.96-5.22-.41-11.41-.15-18.3,1.27s-14.6,4.06-22.81,8.21c-8.21,4.16-16.48,9.63-24.59,15.26-8.06,5.63-15.77,11.41-22.61,16.43-3.4,2.48-6.59,4.82-9.43,6.9-2.89,2.08-5.42,3.9-7.55,5.48-4.21,3.04-6.74,4.82-6.74,4.82,0,0,3.04-.56,8.16-1.47,5.17-.96,12.37-2.18,20.74-3.55,8.37-1.37,17.9-2.94,27.53-4.77,9.63-1.88,19.32-4.01,28.04-7,8.67-2.99,15.97-6.69,21.8-10.65s10.29-8.21,13.64-12.22,5.58-7.71,6.84-10.34c1.32-2.69,1.83-4.31,1.83-4.31h0Z"/>
            <path class="cls-3" d="m452.32,222.65c-6.59-2.13-12.42-3.9-16.88-5.27-4.46-1.37-7.86-2.28-9.38-2.74.76-1.47,2.38-4.51,4.61-8.67,2.13-4.16,4.87-9.53,7.96-15.82-.86.35-1.77.71-2.64,1.06-3.45,7.05-6.44,12.88-8.52,16.93-2.18,4.11-3.45,6.49-3.45,6.54l-.51.96,1.06.3s2.69.76,7.1,2.08c4.36,1.37,10.65,3.24,18.1,5.68.86-.41,1.77-.76,2.64-1.17l-.1.1Z"/>
            <path class="cls-13" d="m348.08,247.64s2.53-.56,7.61-2.03c5.02-1.47,12.57-3.9,22.46-7.81,9.89-3.95,20.99-9.18,29.56-13.59s14.65-7.96,14.65-7.96c0,0-6.74,1.88-15.87,4.97-9.13,3.04-20.63,7.4-30.32,11.71-9.68,4.36-16.68,8.06-21.24,10.65s-6.74,4.06-6.74,4.06h-.1Z"/>
            <path class="cls-7" d="m443.09,188.58c-3.55,6.95-6.59,12.98-8.77,17.29-2.18,4.26-3.5,6.74-3.5,6.74,0,0,2.74.81,7.3,2.18,4.56,1.42,11,3.4,18.45,5.73,11.86-6.19,19.47-13.94,24.03-20.33,2.33-3.19,3.75-5.98,4.66-7.96.91-2.03,1.27-3.19,1.27-3.19,0,0-1.12-.56-3.19-1.32-2.08-.71-5.07-1.67-8.97-2.23-7.76-1.17-18.66-1.12-31.33,3.09h.05Z"/>
            <path class="cls-12" d="m442.49,226.6c8.67-2.99,15.97-6.69,21.8-10.65,5.83-3.95,10.29-8.21,13.64-12.22,3.35-4.01,5.58-7.71,6.84-10.34,1.32-2.69,1.83-4.31,1.83-4.31l-128.58,54.35s3.04-.56,8.16-1.47c5.17-.96,12.37-2.18,20.74-3.55,8.37-1.37,17.9-2.94,27.53-4.77,9.63-1.88,19.32-4.01,28.04-7v-.05Z"/>
          </g>
          <g>
            <path class="cls-5" d="m482.69,233.7s-1.32-.86-3.75-2.03c-2.43-1.12-6.03-2.53-10.55-3.5-4.61-.96-10.19-1.47-16.58-.96-6.39.46-13.54,1.93-21.34,4.66-7.86,2.79-15.92,6.69-23.78,10.8-7.86,4.11-15.41,8.37-22.11,12.02-13.49,7.45-23.27,12.67-23.27,12.67,0,0,2.79-.15,7.5-.35,4.72-.2,11.31-.46,18.91-.76,7.66-.3,16.43-.56,25.2-1.06,8.82-.56,17.75-1.37,25.91-3.04,8.11-1.67,15.06-4.11,20.79-7,5.78-2.89,10.19-6.19,13.64-9.33,3.45-3.19,5.83-6.24,7.35-8.47,1.52-2.23,2.13-3.65,2.13-3.65h-.05Z"/>
            <path class="cls-8" d="m448.06,259.81c-5.58-2.69-10.6-4.92-14.5-6.64-3.85-1.72-6.64-2.94-8.06-3.55,1.67-2.43,7.2-9.94,14.04-20.38-.81.2-1.67.41-2.48.66-3.95,5.93-7.15,10.75-9.63,14.15-2.38,3.4-3.8,5.37-3.8,5.42l-.56.81.91.41s.61.25,1.67.71c1.01.46,2.53,1.12,4.41,1.98,3.75,1.72,9.28,4.11,15.51,7.15.81-.25,1.67-.51,2.48-.71Z"/>
            <path class="cls-13" d="m351.94,270.05s2.38-.2,7.05-.91c4.66-.76,11.66-2.03,20.94-4.41,9.28-2.38,19.87-5.78,28.04-8.77,8.16-2.94,13.99-5.42,13.99-5.42,0,0-6.29.91-14.8,2.59-8.52,1.67-19.37,4.21-28.54,6.95-9.18,2.74-15.87,5.27-20.23,7.05-4.41,1.77-6.49,2.84-6.49,2.84l.05.1Z"/>
            <path class="cls-1" d="m443.8,228.32c-4.01,5.88-7.35,10.85-9.84,14.4-2.43,3.55-3.85,5.63-3.85,5.63,0,0,2.33,1.06,6.24,2.84,1.98.91,4.31,1.98,7,3.19,1.37.61,2.79,1.27,4.26,1.93,1.47.71,2.99,1.42,4.61,2.13,5.68-2.08,10.49-4.66,14.45-7.3,3.95-2.69,7.05-5.48,9.43-8.06s4.11-4.92,5.17-6.59c1.01-1.67,1.47-2.69,1.47-2.69,0,0-3.75-2.59-10.44-4.56-6.69-1.98-16.58-3.14-28.39-.86l-.1-.05Z"/>
            <path class="cls-12" d="m438.84,262.19c8.11-1.67,15.06-4.11,20.79-7,5.78-2.89,10.19-6.19,13.64-9.33,3.45-3.19,5.83-6.24,7.35-8.47,1.52-2.23,2.13-3.65,2.13-3.65l-121.38,33.72s2.79-.15,7.5-.35c4.72-.2,11.31-.46,18.91-.76,7.66-.3,16.43-.56,25.2-1.06,8.82-.56,17.75-1.37,25.91-3.04l-.05-.05Z"/>
          </g>
          <g>
            <path class="cls-4" d="m472.4,277.86s-.2-.25-.71-.71c-.46-.46-1.17-1.06-2.13-1.83-1.88-1.47-4.72-3.4-8.47-5.17-3.75-1.77-8.52-3.35-14.15-4.26-5.63-.91-12.17-1.12-19.52-.35-7.35.76-15.21,2.48-22.82,4.41-7.66,1.93-15.06,4.06-21.65,5.88-6.54,1.83-12.27,3.35-16.33,4.46-4.01,1.06-6.44,1.72-6.44,1.72,0,0,9.68,1.77,23.17,4.51,6.74,1.32,14.25,2.89,22.05,4.26,7.76,1.32,15.72,2.48,23.12,2.69,7.4.2,13.89-.46,19.42-1.83,5.53-1.32,10.24-3.24,13.79-5.27,3.6-2.03,6.29-4.16,8.06-5.78s2.64-2.74,2.64-2.74h-.05Z"/>
            <path class="cls-3" d="m437.01,293.32c-2.18-1.72-4.21-3.35-6.03-4.82s-3.6-2.79-5.12-3.95c-2.99-2.28-5.17-3.9-6.24-4.72,1.01-.86,3.04-2.69,5.83-5.17,1.42-1.27,3.04-2.74,4.82-4.31,1.72-1.62,3.65-3.4,5.68-5.27h-2.28c-2.28,2.13-4.36,4.11-6.29,5.83s-3.6,3.19-4.97,4.46c-2.74,2.43-4.36,3.9-4.41,3.9l-.66.61.71.56s1.77,1.32,4.66,3.6c1.47,1.12,3.3,2.48,5.32,4.06,2.03,1.62,4.26,3.4,6.69,5.32.76,0,1.52-.1,2.28-.1Z"/>
            <path class="cls-13" d="m351.53,282.37s2.08.35,6.24.66c4.21.3,10.55.66,19.11.51,8.57-.15,18.4-.91,26.11-1.83,7.71-.86,13.28-1.77,13.28-1.77,0,0-1.42-.1-3.75-.3-2.38-.15-5.73-.35-9.63-.51-7.76-.3-17.64-.35-26.21.15-8.52.51-14.8,1.32-19.01,1.93-4.16.66-6.19,1.12-6.19,1.12l.05.05Z"/>
            <path class="cls-7" d="m439.8,265.13c-4.56,4.26-8.67,7.86-11.51,10.44-2.84,2.54-4.51,4.06-4.51,4.06,0,0,1.77,1.37,4.77,3.75,1.52,1.17,3.35,2.59,5.48,4.21,2.08,1.62,4.36,3.45,6.79,5.37,10.7-1.32,18.76-4.92,23.88-8.42,5.17-3.5,7.71-6.69,7.71-6.69,0,0-.66-.76-2.03-1.88-1.37-1.12-3.4-2.69-6.13-4.21-2.74-1.52-6.08-3.09-10.19-4.31-4.11-1.22-8.87-2.08-14.25-2.33Z"/>
            <path class="cls-12" d="m428.49,293.47c7.4.2,13.89-.46,19.42-1.83,5.53-1.32,10.24-3.24,13.79-5.27,3.6-2.03,6.29-4.16,8.06-5.78,1.77-1.62,2.64-2.74,2.64-2.74l-112.2,4.21s9.68,1.77,23.17,4.51c6.74,1.32,14.25,2.89,22.05,4.26,7.76,1.32,15.72,2.48,23.12,2.69l-.05-.05Z"/>
          </g>
          <g>
            <path class="cls-4" d="m198.87,17.77s1.83,1.17,4.61,3.6c2.79,2.43,6.49,6.19,10.19,11.56,3.7,5.32,7.35,12.12,10.19,20.48,2.84,8.31,4.77,18.15,5.48,29.56.66,11.41,0,23.83-1.01,36-1.01,12.17-2.33,24.08-3.45,34.53-1.12,10.39-1.98,19.52-2.53,26.01-.56,6.44-.86,10.29-.86,10.29,0,0-1.32-3.65-3.5-9.73-2.23-6.13-5.42-14.6-9.18-24.44-3.75-9.84-8.11-21.04-12.27-32.5-4.11-11.51-7.96-23.17-10.29-34.43-2.28-11.2-2.99-21.34-2.38-30.07.56-8.77,2.38-16.27,4.56-22.36,2.18-6.13,4.82-10.8,6.9-13.84,2.08-3.09,3.55-4.66,3.55-4.66Z"/>
            <path class="cls-3" d="m184.27,75.67c6.49,5.68,12.12,10.8,16.38,14.7,4.31,3.95,7.35,7,8.87,8.37,1.06-1.77,3.35-5.37,6.39-10.39,3.14-4.87,7.2-11.15,12.02-18.4.15,1.17.35,2.33.51,3.5-5.42,8.21-9.84,14.96-12.88,19.77-3.04,4.87-4.82,7.76-4.82,7.81l-.71,1.17-1.01-.96s-2.54-2.38-6.69-6.29c-4.21-3.8-10.24-9.33-17.59-15.77-.15-1.22-.3-2.38-.41-3.55l-.05.05Z"/>
            <path class="cls-13" d="m223.26,203.03s-1.01-3.09-2.59-9.43c-1.57-6.34-3.7-15.92-5.73-29-1.98-13.08-3.4-28.24-4.06-40.21-.66-11.97-.71-20.69-.71-20.69,0,0,2.23,8.42,4.66,20.18,2.48,11.71,5.07,26.77,6.49,39.9,1.47,13.13,1.83,22.97,1.98,29.46.1,6.54-.05,9.73-.05,9.73v.05Z"/>
            <path class="cls-7" d="m226.86,64.11c-5.37,8.31-9.89,15.16-13.08,20.23-3.19,5.02-5.07,8.01-5.07,8.01,0,0-2.59-2.38-6.95-6.44-4.46-4.01-10.7-9.63-17.9-16.12-.86-16.58,2.69-29.61,6.69-38.58,1.98-4.51,4.11-7.76,5.68-10.04,1.57-2.23,2.69-3.4,2.69-3.4,0,0,1.32.81,3.45,2.59,2.13,1.77,5.02,4.41,8.06,8.16,6.19,7.61,12.93,19.37,16.43,35.59Z"/>
            <path class="cls-12" d="m186.3,88.65c-2.28-11.2-2.99-21.34-2.38-30.07.56-8.77,2.38-16.27,4.56-22.36,2.18-6.13,4.82-10.8,6.9-13.84,2.08-3.09,3.55-4.66,3.55-4.66l22.61,171.97s-1.32-3.65-3.5-9.73c-2.23-6.13-5.42-14.6-9.18-24.44-3.75-9.84-8.11-21.04-12.27-32.5-4.11-11.51-7.96-23.17-10.29-34.43v.05Z"/>
          </g>
          <g>
            <path class="cls-5" d="m137.27,48.8s2.03.66,5.32,2.28c3.3,1.67,7.76,4.31,12.62,8.42,4.87,4.16,10.09,9.73,14.86,16.98,4.77,7.25,9.13,16.12,12.57,26.82,3.5,10.7,5.93,22.66,8.01,34.53,2.08,11.81,3.8,23.47,5.37,33.72s3.04,19.16,4.11,25.45c1.06,6.24,1.72,9.99,1.72,9.99,0,0-2.18-3.14-5.78-8.42-3.6-5.17-8.77-12.47-14.86-20.94-6.03-8.42-13.03-18.1-19.82-27.89-6.74-9.84-13.38-20.08-18.4-30.17-5.02-10.09-8.16-19.52-9.84-28.04-1.67-8.57-1.83-16.07-1.27-22.41.61-6.34,1.88-11.46,3.09-14.96,1.22-3.45,2.23-5.32,2.23-5.32l.05-.05Z"/>
            <path class="cls-8" d="m137.88,107.71c3.8,1.83,7.3,3.6,10.6,5.32,3.19,1.67,6.13,3.19,8.72,4.56,5.07,2.64,8.72,4.72,10.49,5.68.61-1.93,1.83-5.93,3.5-11.46,1.72-5.58,4.11-12.42,6.84-20.53.46,1.06.91,2.13,1.37,3.19-1.52,4.51-2.94,8.67-4.21,12.42-.61,1.83-1.17,3.55-1.72,5.17-.51,1.62-.96,3.14-1.42,4.51-1.67,5.37-2.64,8.57-2.69,8.62l-.41,1.27-1.22-.66s-.76-.41-2.13-1.17c-1.37-.76-3.3-1.77-5.78-3.09-2.53-1.32-5.53-2.89-8.97-4.72-1.77-.91-3.6-1.88-5.58-2.89-1.98-.96-4.01-1.98-6.13-2.99-.46-1.12-.86-2.18-1.27-3.24Z"/>
            <path class="cls-13" d="m206.88,219.15s-1.72-2.69-4.82-8.37c-3.09-5.68-7.5-14.25-12.68-26.16-5.17-11.91-10.34-26.11-13.94-37.32-3.65-11.2-5.83-19.47-5.83-19.47,0,0,4.26,7.45,9.48,18.05,5.27,10.55,11.51,24.23,16.17,36.4,4.66,12.17,7.5,21.4,9.23,27.58,1.72,6.19,2.38,9.28,2.38,9.28Z"/>
            <path class="cls-1" d="m175.55,85.96c-3.04,9.23-5.68,16.83-7.45,22.51-1.77,5.53-2.84,8.82-2.84,8.82,0,0-.76-.41-2.18-1.17s-3.5-1.88-6.03-3.19c-2.59-1.37-5.73-2.99-9.23-4.82-3.55-1.88-7.55-3.95-11.81-6.08-5.02-15.72-4.92-28.95-3.3-38.43,1.57-9.53,4.61-14.91,4.61-14.91,0,0,5.98,1.83,13.69,7.4,7.76,5.58,17.24,15.21,24.59,29.76l-.05.1Z"/>
            <path class="cls-12" d="m143.05,119.52c-5.02-10.09-8.16-19.52-9.84-28.04-1.67-8.57-1.83-16.07-1.27-22.41.61-6.34,1.88-11.46,3.09-14.96,1.22-3.45,2.23-5.32,2.23-5.32l64.59,158.13s-2.18-3.14-5.78-8.42c-3.6-5.17-8.77-12.47-14.86-20.94-6.03-8.42-13.03-18.1-19.82-27.89-6.74-9.84-13.38-20.08-18.4-30.17h.05Z"/>
          </g>
          <g>
            <path class="cls-4" d="m85.91,92.2s1.98.1,5.27.81,7.96,2.03,13.23,4.51c5.22,2.43,11.26,6.24,17.19,11.51,5.98,5.27,11.91,12.17,17.59,20.84,5.63,8.67,10.65,18.71,15.31,28.7,4.66,10.04,8.87,19.82,12.78,28.65,7.71,17.54,13.54,30.01,13.54,30.01,0,0-2.64-2.23-7.1-5.98-4.46-3.75-10.8-9.02-18.2-15.11-7.4-6.13-15.77-12.83-24.13-20.03-8.37-7.15-16.68-14.7-23.47-22.46-6.84-7.76-11.86-15.36-15.36-22.56-3.5-7.15-5.53-13.94-6.49-19.62-.96-5.73-1.01-10.55-.81-13.94s.66-5.32.66-5.32Z"/>
            <path class="cls-3" d="m100.46,144.31c3.8.76,7.35,1.52,10.6,2.18,3.24.76,6.24,1.42,8.82,2.03,5.12,1.22,8.82,2.08,10.65,2.48.1-1.88.25-5.68.46-10.9.1-2.64.2-5.73.46-9.02.25-3.35.51-6.95.76-10.85.66.81,1.32,1.67,1.98,2.54-.3,4.36-.61,8.37-.86,11.97-.15,3.6-.3,6.74-.46,9.38-.2,5.12-.35,8.16-.35,8.21v1.22l-1.27-.25c-.05,0-2.99-.71-8.01-1.88-2.54-.61-5.63-1.32-9.13-2.08-3.5-.71-7.45-1.52-11.71-2.43-.66-.86-1.27-1.72-1.93-2.59Z"/>
            <path class="cls-13" d="m188.12,226.85s-2.18-1.93-6.24-6.19c-4.06-4.26-10.04-10.8-17.49-20.18-7.4-9.38-15.36-20.69-21.24-29.81-5.93-9.13-9.84-15.97-9.84-15.97,0,0,5.53,5.63,12.73,13.79,7.2,8.11,15.97,18.81,23.02,28.49,7,9.68,11.71,17.19,14.75,22.26,2.99,5.07,4.31,7.66,4.31,7.66v-.05Z"/>
            <path class="cls-7" d="m128.7,116.13c-.25,4.36-.56,8.47-.76,12.12-.2,3.65-.35,6.9-.46,9.63-.3,5.32-.46,8.47-.46,8.47,0,0-3.09-.71-8.26-1.83-2.64-.61-5.83-1.32-9.38-2.13-3.6-.76-7.6-1.62-11.86-2.53-4.06-6.34-6.9-12.47-8.82-18.15s-2.84-10.75-3.24-15.16c-.41-4.36-.25-7.96-.05-10.44.2-2.48.56-3.9.56-3.9,0,0,5.73.25,13.94,3.4,8.16,3.04,18.86,9.38,28.85,20.58l-.05-.05Z"/>
            <path class="cls-12" d="m107.87,153.59c-6.84-7.76-11.86-15.36-15.36-22.56-3.5-7.15-5.53-13.94-6.49-19.62-.96-5.73-1.01-10.55-.81-13.94.2-3.4.66-5.32.66-5.32l94.86,125.03s-2.64-2.23-7.1-5.98c-4.46-3.75-10.8-9.02-18.2-15.11-7.4-6.13-15.77-12.83-24.13-20.03-8.37-7.15-16.68-14.7-23.47-22.46h.05Z"/>
          </g>
          <g>
            <path class="cls-5" d="m51.79,140.01s1.77-.41,4.87-.56c3.14-.1,7.6,0,12.93,1.06s11.41,2.94,18,6.34c6.59,3.4,13.54,8.16,20.63,14.65,7.1,6.49,13.89,14.3,20.38,22.16,6.44,7.81,12.68,15.82,18.1,22.76,5.48,6.95,10.19,12.88,13.59,17.09,3.45,4.21,5.48,6.74,5.48,6.74,0,0-2.89-1.42-7.76-3.75-4.87-2.33-11.86-5.63-19.82-9.33-7.96-3.7-17.09-7.86-26.26-12.37-9.18-4.51-18.35-9.38-26.26-14.8-7.91-5.42-14.15-11.05-18.91-16.68-4.77-5.63-8.11-11.15-10.39-16.12-2.23-4.92-3.35-9.18-3.9-12.27-.56-3.04-.61-4.87-.61-4.87l-.05-.05Z"/>
            <path class="cls-8" d="m76.89,183.3c7.3-.3,13.44-.61,18.4-.66,4.87-.05,8.47-.15,10.19-.15-.2-.86-.51-2.13-.86-3.8s-.81-3.7-1.27-6.08c-.96-4.77-2.33-11.05-3.55-18.05.76.61,1.57,1.22,2.38,1.83,1.37,7.96,2.89,14.75,3.8,19.37.51,2.33.86,4.16,1.17,5.48.3,1.27.46,1.98.46,2.03l.25,1.12h-1.17s-2.89.1-7.66.15c-1.22,0-2.53,0-4.01.05-1.42.05-2.99.1-4.61.15-3.35.15-7.1.3-11.15.46-.76-.61-1.57-1.27-2.28-1.88h-.1Z"/>
            <path class="cls-13" d="m174.54,237.2s-2.38-1.27-7.05-4.11c-4.61-2.89-11.51-7.4-20.33-14.04-8.82-6.69-18.51-15.01-25.91-21.85-7.4-6.79-12.47-12.02-12.47-12.02,0,0,6.24,3.75,14.55,9.38,8.31,5.58,18.71,13.13,27.23,20.18,8.52,7.05,14.45,12.67,18.35,16.58,3.9,3.85,5.68,5.93,5.68,5.93l-.05-.05Z"/>
            <path class="cls-1" d="m95.65,151.62c.35,1.98.76,3.9,1.12,5.78.35,1.88.76,3.65,1.06,5.32.66,3.3,1.27,6.24,1.77,8.67.46,2.43.86,4.31,1.17,5.68.3,1.32.41,2.08.41,2.08,0,0-2.94.1-7.91.25-5.07.05-11.91.41-20.13.66-10.14-9.48-15.77-19.42-18.51-27.07-2.74-7.6-2.84-12.88-2.84-12.88,0,0,1.27-.25,3.55-.46s5.63-.2,9.68.25c8.11.91,18.96,3.95,30.62,11.76v-.05Z"/>
            <path class="cls-12" d="m85.61,189.94c-7.91-5.42-14.15-11.05-18.91-16.68-4.77-5.63-8.11-11.15-10.39-16.12-2.23-4.92-3.35-9.18-3.9-12.27-.56-3.04-.61-4.87-.61-4.87l113.97,90.2s-2.89-1.42-7.76-3.75c-4.87-2.33-11.86-5.63-19.82-9.33-7.96-3.7-17.09-7.86-26.26-12.37-9.18-4.51-18.35-9.38-26.26-14.8h-.05Z"/>
          </g>
          <g>
            <path class="cls-4" d="m26.59,189.03s1.52-.81,4.36-1.72c1.42-.46,3.14-.96,5.17-1.37s4.41-.76,7-.96c5.22-.41,11.41-.15,18.3,1.27s14.6,4.06,22.82,8.21,16.48,9.63,24.59,15.26c8.06,5.63,15.77,11.41,22.61,16.43,3.4,2.48,6.59,4.82,9.43,6.9,2.89,2.08,5.42,3.9,7.55,5.48,4.26,3.04,6.74,4.82,6.74,4.82,0,0-3.04-.56-8.16-1.47-5.17-.96-12.37-2.18-20.74-3.55-8.37-1.37-17.9-2.94-27.53-4.77-9.63-1.88-19.32-4.01-28.04-7-8.67-2.99-15.97-6.69-21.8-10.65-5.83-3.95-10.29-8.21-13.64-12.22-3.35-4.01-5.58-7.71-6.84-10.34-1.32-2.69-1.83-4.31-1.83-4.31Z"/>
            <path class="cls-3" d="m60.87,222.65c6.59-2.13,12.42-3.9,16.88-5.27,4.46-1.37,7.86-2.28,9.38-2.74-.76-1.47-2.38-4.51-4.61-8.67-2.13-4.16-4.87-9.53-7.96-15.82.86.35,1.77.71,2.64,1.06,3.45,7.05,6.44,12.88,8.52,16.93,2.18,4.11,3.45,6.49,3.45,6.54l.51.96-1.06.3s-2.69.76-7.1,2.08c-4.36,1.37-10.65,3.24-18.1,5.68-.86-.41-1.77-.76-2.64-1.17l.1.1Z"/>
            <path class="cls-13" d="m165.11,247.64s-2.53-.56-7.6-2.03c-5.02-1.47-12.57-3.9-22.46-7.81-9.89-3.95-20.99-9.18-29.56-13.59s-14.65-7.96-14.65-7.96c0,0,6.74,1.88,15.87,4.97,9.13,3.04,20.63,7.4,30.32,11.71,9.68,4.36,16.68,8.06,21.24,10.65s6.74,4.06,6.74,4.06h.1Z"/>
            <path class="cls-7" d="m70.1,188.58c3.55,6.95,6.59,12.98,8.77,17.29,2.18,4.26,3.5,6.74,3.5,6.74,0,0-2.74.81-7.3,2.18-4.56,1.42-11,3.4-18.45,5.73-11.86-6.19-19.47-13.94-24.03-20.33-2.33-3.19-3.75-5.98-4.66-7.96-.91-2.03-1.27-3.19-1.27-3.19,0,0,1.12-.56,3.19-1.32,2.08-.71,5.07-1.67,8.97-2.23,7.76-1.17,18.66-1.12,31.33,3.09h-.05Z"/>
            <path class="cls-12" d="m70.7,226.6c-8.67-2.99-15.97-6.69-21.8-10.65-5.83-3.95-10.29-8.21-13.64-12.22-3.35-4.01-5.58-7.71-6.84-10.34-1.32-2.69-1.83-4.31-1.83-4.31l128.58,54.35s-3.04-.56-8.16-1.47c-5.17-.96-12.37-2.18-20.74-3.55-8.37-1.37-17.9-2.94-27.53-4.77-9.63-1.88-19.32-4.01-28.04-7v-.05Z"/>
          </g>
          <g>
            <path class="cls-5" d="m30.5,233.7s1.32-.86,3.75-2.03c2.43-1.12,6.03-2.53,10.55-3.5,4.61-.96,10.19-1.47,16.58-.96,6.39.46,13.54,1.93,21.34,4.66,7.86,2.79,15.92,6.69,23.78,10.8,7.86,4.11,15.41,8.37,22.11,12.02,13.49,7.45,23.27,12.67,23.27,12.67,0,0-2.79-.15-7.5-.35-4.72-.2-11.31-.46-18.91-.76-7.66-.3-16.43-.56-25.2-1.06-8.82-.56-17.75-1.37-25.91-3.04-8.11-1.67-15.06-4.11-20.79-7-5.78-2.89-10.19-6.19-13.64-9.33-3.45-3.19-5.83-6.24-7.35-8.47s-2.13-3.65-2.13-3.65h.05Z"/>
            <path class="cls-8" d="m65.13,259.81c5.58-2.69,10.6-4.92,14.5-6.64,3.85-1.72,6.64-2.94,8.06-3.55-1.67-2.43-7.2-9.94-14.04-20.38.81.2,1.67.41,2.48.66,3.95,5.93,7.15,10.75,9.63,14.15,2.38,3.4,3.8,5.37,3.8,5.42l.56.81-.91.41s-.61.25-1.67.71c-1.01.46-2.54,1.12-4.41,1.98-3.75,1.72-9.28,4.11-15.51,7.15-.81-.25-1.67-.51-2.48-.71Z"/>
            <path class="cls-13" d="m161.25,270.05s-2.38-.2-7.05-.91c-4.66-.76-11.66-2.03-20.94-4.41-9.28-2.38-19.87-5.78-28.04-8.77-8.16-2.94-13.99-5.42-13.99-5.42,0,0,6.29.91,14.8,2.59,8.52,1.67,19.37,4.21,28.54,6.95,9.18,2.74,15.87,5.27,20.23,7.05,4.41,1.77,6.49,2.84,6.49,2.84l-.05.1Z"/>
            <path class="cls-1" d="m69.39,228.32c4.01,5.88,7.35,10.85,9.84,14.4,2.43,3.55,3.85,5.63,3.85,5.63,0,0-2.33,1.06-6.24,2.84-1.98.91-4.31,1.98-7,3.19-1.37.61-2.79,1.27-4.26,1.93-1.47.71-2.99,1.42-4.61,2.13-5.68-2.08-10.49-4.66-14.45-7.3-3.95-2.69-7.05-5.48-9.43-8.06-2.38-2.59-4.11-4.92-5.17-6.59-1.01-1.67-1.47-2.69-1.47-2.69,0,0,3.75-2.59,10.44-4.56,6.69-1.98,16.58-3.14,28.39-.86l.1-.05Z"/>
            <path class="cls-12" d="m74.35,262.19c-8.11-1.67-15.06-4.11-20.79-7-5.78-2.89-10.19-6.19-13.64-9.33-3.45-3.19-5.83-6.24-7.35-8.47s-2.13-3.65-2.13-3.65l121.38,33.72s-2.79-.15-7.5-.35c-4.72-.2-11.31-.46-18.91-.76-7.66-.3-16.43-.56-25.2-1.06-8.82-.56-17.74-1.37-25.91-3.04l.05-.05Z"/>
          </g>
          <g>
            <path class="cls-4" d="m40.79,277.86s.2-.25.71-.71c.46-.46,1.17-1.06,2.13-1.83,1.88-1.47,4.72-3.4,8.47-5.17,3.75-1.77,8.47-3.35,14.15-4.26,5.63-.91,12.17-1.12,19.52-.35,7.35.76,15.21,2.48,22.81,4.41,7.66,1.93,15.06,4.06,21.65,5.88,6.54,1.83,12.27,3.35,16.33,4.46,4.01,1.06,6.44,1.72,6.44,1.72,0,0-9.68,1.77-23.17,4.51-6.74,1.32-14.25,2.89-22.05,4.26-7.76,1.32-15.72,2.48-23.12,2.69-7.4.2-13.89-.46-19.42-1.83-5.53-1.32-10.24-3.24-13.79-5.27-3.6-2.03-6.29-4.16-8.06-5.78-1.77-1.62-2.64-2.74-2.64-2.74h.05Z"/>
            <path class="cls-3" d="m76.18,293.32c2.18-1.72,4.21-3.35,6.03-4.82s3.6-2.79,5.12-3.95c2.99-2.28,5.17-3.9,6.24-4.72-1.01-.86-3.04-2.69-5.83-5.17-1.42-1.27-3.04-2.74-4.82-4.31-1.72-1.62-3.65-3.4-5.68-5.27h2.28c2.28,2.13,4.36,4.11,6.29,5.83,1.93,1.72,3.6,3.19,4.97,4.46,2.74,2.43,4.36,3.9,4.41,3.9l.66.61-.71.56s-1.77,1.32-4.66,3.6c-1.47,1.12-3.3,2.48-5.32,4.06-2.03,1.62-4.26,3.4-6.69,5.32-.76,0-1.52-.1-2.28-.1Z"/>
            <path class="cls-13" d="m161.66,282.37s-2.08.35-6.24.66c-4.21.3-10.55.66-19.11.51-8.57-.15-18.4-.91-26.11-1.83-7.71-.86-13.28-1.77-13.28-1.77,0,0,1.42-.1,3.75-.3,2.38-.15,5.73-.35,9.63-.51,7.76-.3,17.64-.35,26.21.15,8.52.51,14.8,1.32,19.01,1.93,4.16.66,6.19,1.12,6.19,1.12l-.05.05Z"/>
            <path class="cls-7" d="m73.39,265.13c4.56,4.26,8.67,7.86,11.51,10.44,2.84,2.54,4.51,4.06,4.51,4.06,0,0-1.77,1.37-4.77,3.75-1.52,1.17-3.35,2.59-5.48,4.21-2.08,1.62-4.36,3.45-6.79,5.37-10.7-1.32-18.76-4.92-23.88-8.42-5.17-3.5-7.71-6.69-7.71-6.69,0,0,.66-.76,2.03-1.88,1.37-1.12,3.4-2.69,6.13-4.21,2.74-1.52,6.08-3.09,10.19-4.31,4.11-1.22,8.87-2.08,14.25-2.33Z"/>
            <path class="cls-12" d="m84.7,293.47c-7.4.2-13.89-.46-19.42-1.83-5.53-1.32-10.24-3.24-13.79-5.27-3.6-2.03-6.29-4.16-8.06-5.78-1.77-1.62-2.64-2.74-2.64-2.74l112.2,4.21s-9.68,1.77-23.17,4.51c-6.74,1.32-14.25,2.89-22.05,4.26-7.76,1.32-15.72,2.48-23.12,2.69l.05-.05Z"/>
          </g>
        </g>
        <g>
          <path class="cls-5" d="m256.57,2s-19.77,22.71-20.23,69.92c-.46,47.2,20.23,108.9,20.23,108.9,0,0,20.69-61.75,20.23-108.9-.46-47.2-20.23-69.92-20.23-69.92Z"/>
          <path class="cls-8" d="m276.14,58.43c-9.18,14.2-16.98,24.49-19.52,27.78-2.53-3.3-10.34-13.59-19.52-27.78-.1,1.22-.2,2.43-.3,3.65,10.49,16.02,18.86,26.52,18.96,26.67l.86,1.12.86-1.12s8.47-10.65,18.96-26.67c-.1-1.22-.2-2.43-.3-3.65Z"/>
          <path class="cls-13" d="m256.57,194.66s4.21-13.13,4.31-40.36c.1-27.23-4.31-62.87-4.31-62.87,0,0-4.41,35.64-4.31,62.87s4.31,40.36,4.31,40.36Z"/>
          <path class="cls-1" d="m237.76,52.35c10.09,16.22,18.81,27.18,18.81,27.18,0,0,8.77-11,18.86-27.18-4.56-33.87-18.86-50.35-18.86-50.35,0,0-14.25,16.43-18.81,50.35Z"/>
          <path class="cls-12" d="m276.8,71.92c-.46-47.2-20.23-69.92-20.23-69.92v178.82s20.69-61.75,20.23-108.9Z"/>
        </g>
        <g>
          <path class="cls-14" d="m373.13,275.37c0-1.06,0-2.18-.1-3.35s-.2-2.33-.3-3.55c-.15-2.48-.66-5.02-1.06-7.71-.56-2.64-1.06-5.42-1.88-8.16-.71-2.79-1.67-5.53-2.59-8.26-1.06-2.69-2.08-5.42-3.35-8.01-.61-1.32-1.22-2.59-1.88-3.85-.66-1.27-1.27-2.48-1.98-3.7-1.42-2.38-2.74-4.66-4.16-6.74-1.37-2.13-2.79-4.01-4.16-5.78-1.32-1.77-2.64-3.3-3.8-4.66-1.12-1.37-2.23-2.48-3.09-3.45-1.72-1.93-2.79-2.94-2.79-2.94,0,0-1.06-1.01-2.89-2.84-.96-.86-2.13-1.88-3.5-3.09-1.32-1.22-2.94-2.43-4.66-3.8-1.77-1.37-3.7-2.74-5.78-4.21-2.13-1.37-4.36-2.89-6.79-4.26-2.38-1.42-4.92-2.74-7.55-4.06-1.32-.66-2.64-1.22-4.01-1.83-1.32-.61-2.69-1.22-4.11-1.72-2.74-1.12-5.53-2.08-8.31-2.94-2.79-.86-5.53-1.62-8.26-2.23-2.69-.61-5.32-1.17-7.86-1.52-2.48-.46-4.87-.71-7.1-.91-2.18-.25-4.21-.3-6.03-.41-1.77-.1-3.35-.1-4.66-.1-2.59,0-4.06.05-4.06.05,0,0-1.47,0-4.06-.05-1.27,0-2.84,0-4.66.1-1.77.1-3.8.15-6.03.41-2.18.2-4.56.46-7.1.91-2.53.35-5.12.91-7.86,1.52-2.69.61-5.48,1.37-8.26,2.23-2.79.91-5.58,1.83-8.31,2.94-1.37.51-2.74,1.12-4.11,1.72-1.32.61-2.69,1.17-4.01,1.83-2.59,1.32-5.17,2.59-7.55,4.06-2.43,1.37-4.61,2.89-6.79,4.26-2.08,1.47-4.06,2.84-5.78,4.21-1.72,1.37-3.35,2.59-4.66,3.8s-2.53,2.23-3.5,3.09c-1.83,1.83-2.89,2.84-2.89,2.84,0,0-1.06,1.01-2.79,2.94-.86.96-1.98,2.08-3.09,3.45-1.12,1.37-2.48,2.89-3.8,4.66s-2.79,3.65-4.16,5.78c-1.42,2.08-2.79,4.36-4.16,6.74-.71,1.17-1.32,2.43-1.98,3.7s-1.32,2.53-1.88,3.85c-1.27,2.59-2.28,5.32-3.35,8.01-.96,2.74-1.93,5.48-2.59,8.26-.81,2.74-1.32,5.53-1.88,8.16-.41,2.69-.86,5.22-1.06,7.71-.1,1.22-.2,2.43-.3,3.55-.05,1.17-.1,2.28-.1,3.35-.1,2.13,0,4.11,0,5.83s.1,3.24.25,4.46c.25,2.43.41,3.85.41,3.85h19.72s.2-1.12.61-3.09c.15-.96.41-2.18.76-3.5.3-1.37.66-2.84,1.12-4.46.41-1.62.96-3.35,1.57-5.17.56-1.83,1.37-3.65,2.08-5.58.81-1.88,1.62-3.85,2.64-5.73.86-1.93,2.03-3.8,3.04-5.73,1.12-1.88,2.23-3.7,3.45-5.42,1.12-1.77,2.48-3.4,3.65-5.02,1.27-1.57,2.43-3.09,3.7-4.41,1.17-1.42,2.38-2.64,3.5-3.75,1.06-1.17,2.23-2.13,3.14-2.99.91-.91,1.83-1.57,2.48-2.23,1.37-1.22,2.23-1.88,2.23-1.88,0,0,.81-.66,2.28-1.83.76-.56,1.67-1.22,2.69-1.98,1.01-.76,2.28-1.52,3.6-2.43,1.32-.86,2.79-1.72,4.36-2.64,1.62-.86,3.24-1.83,5.02-2.64,1.72-.91,3.6-1.72,5.53-2.53,1.93-.76,3.85-1.62,5.83-2.28,1.01-.3,1.98-.71,2.99-1.01s1.98-.61,2.99-.91c1.98-.56,3.95-1.06,5.88-1.52,1.93-.41,3.75-.86,5.58-1.12,1.77-.35,3.45-.56,5.02-.76,1.57-.25,2.99-.35,4.31-.51,1.27-.15,2.38-.25,3.35-.3,1.88-.15,2.89-.2,2.89-.2,0,0,1.06.1,2.89.2.91,0,2.03.1,3.35.3,1.27.15,2.74.2,4.31.51,1.57.2,3.24.41,5.02.76,1.77.3,3.65.71,5.58,1.12,1.93.41,3.9.96,5.88,1.52,1.01.3,1.98.61,2.99.91s1.98.71,2.99,1.01c1.98.66,3.9,1.52,5.83,2.28,1.88.81,3.75,1.67,5.53,2.53,1.77.81,3.4,1.83,5.02,2.64,1.57.91,3.04,1.77,4.36,2.64,1.32.91,2.53,1.67,3.6,2.43,1.06.76,1.93,1.42,2.69,1.98,1.42,1.17,2.28,1.83,2.28,1.83,0,0,.86.61,2.23,1.88.71.61,1.57,1.32,2.48,2.23s2.03,1.88,3.14,2.99c1.12,1.17,2.33,2.38,3.5,3.75,1.27,1.32,2.43,2.84,3.7,4.41,1.17,1.62,2.53,3.24,3.65,5.02,1.22,1.72,2.33,3.6,3.45,5.42,1.01,1.88,2.13,3.75,3.04,5.73,1.01,1.93,1.77,3.85,2.64,5.73.71,1.93,1.52,3.75,2.08,5.58.61,1.83,1.17,3.55,1.57,5.17.51,1.62.86,3.09,1.12,4.46.3,1.32.56,2.53.76,3.5.35,1.98.61,3.09.61,3.09h19.72s.15-1.42.41-3.85c.15-1.22.25-2.74.25-4.46.05-1.72.15-3.7,0-5.83h.1Z"/>
          <path class="cls-4" d="m286.48,201.4s2.38-1.47,4.92-2.94c2.53-1.42,5.17-2.64,5.17-2.64,0,0,1.17,2.69,2.08,5.42.46,1.32.91,2.69,1.27,3.65.3,1.01.51,1.67.51,1.67,0,0-.81-.41-2.13-.91s-2.99-1.32-4.77-1.88c-1.72-.66-3.5-1.27-4.82-1.67-1.32-.41-2.23-.71-2.23-.71Z"/>
          <path class="cls-5" d="m325.32,203.63s-.71.05-1.83.25c-1.12.15-2.53.41-3.95.71-2.84.51-5.63,1.27-5.63,1.27,0,0-.15-.71-.41-1.77-.25-1.06-.61-2.48-1.01-3.9-.76-2.79-1.72-5.73-1.72-5.73,0,0,.91.51,2.33,1.32.71.41,1.52.86,2.38,1.37.86.51,1.77,1.12,2.69,1.67,1.83,1.12,3.6,2.38,4.92,3.3,1.32.91,2.18,1.57,2.18,1.57l.05-.05Z"/>
          <path class="cls-5" d="m286.79,185.13s-2.64,1.47-5.07,3.19c-1.22.81-2.43,1.67-3.35,2.28-.91.66-1.47,1.12-1.47,1.12,0,0-1.57-2.43-3.3-4.92-1.72-2.38-3.65-4.72-3.65-4.72,0,0,1.06.1,2.64.3,1.62.15,3.7.56,5.83.91,2.13.35,4.21.86,5.78,1.22.81.15,1.42.35,1.88.46s.71.2.71.2v-.05Z"/>
          <path class="cls-4" d="m345.24,246.07s2.48.76,4.87,1.72,4.72,2.13,4.72,2.13c0,0-.15.61-.46,1.57-.25.91-.61,2.13-.96,3.35-.35,1.17-.71,2.38-1.01,3.24s-.51,1.42-.51,1.42c0,0-.35-.86-.86-2.18-.61-1.27-1.37-2.99-2.18-4.66-.91-1.67-1.72-3.35-2.43-4.56-.71-1.22-1.17-2.03-1.17-2.03Z"/>
          <path class="cls-5" d="m366.79,276.44s-.35-.46-.91-1.22c-.56-.71-1.32-1.62-2.18-2.53-1.67-1.77-3.45-3.45-3.45-3.45,0,0,.96-2.28,1.88-4.61.51-1.22.91-2.38,1.27-3.3s.56-1.57.56-1.57c0,0,.25,1.01.66,2.59.35,1.52.76,3.65,1.17,5.68.3,2.08.61,4.16.81,5.73.15,1.57.2,2.64.2,2.64v.05Z"/>
          <path class="cls-5" d="m354.22,236.08s-.66-.2-1.57-.56c-.96-.35-2.23-.76-3.55-1.12-1.32-.35-2.64-.71-3.6-.91-.96-.25-1.67-.35-1.67-.35,0,0,.25-2.74.51-5.48.15-2.74.25-5.63.25-5.63,0,0,.66.86,1.67,2.08,1.01,1.22,2.23,2.99,3.45,4.72,1.22,1.77,2.33,3.6,3.19,4.92.81,1.37,1.32,2.33,1.32,2.33Z"/>
          <path class="cls-4" d="m226.71,201.4s-2.38-1.47-4.92-2.94c-2.53-1.42-5.17-2.64-5.17-2.64,0,0-1.17,2.69-2.08,5.42-.46,1.32-.91,2.69-1.27,3.65-.3,1.01-.51,1.67-.51,1.67,0,0,.81-.41,2.13-.91s2.99-1.32,4.77-1.88c1.72-.66,3.5-1.27,4.82-1.67,1.32-.41,2.23-.71,2.23-.71Z"/>
          <path class="cls-5" d="m187.87,203.63s.71.05,1.83.25c1.12.15,2.53.41,3.95.71,2.84.51,5.63,1.27,5.63,1.27,0,0,.15-.71.41-1.77.25-1.06.61-2.48,1.01-3.9.76-2.79,1.72-5.73,1.72-5.73,0,0-.91.51-2.33,1.32-.71.41-1.52.86-2.38,1.37-.86.51-1.77,1.12-2.69,1.67-1.83,1.12-3.6,2.38-4.92,3.3-1.32.91-2.18,1.57-2.18,1.57l-.05-.05Z"/>
          <path class="cls-5" d="m226.4,185.13s2.59,1.47,5.07,3.19c1.22.81,2.43,1.67,3.35,2.28.91.66,1.47,1.12,1.47,1.12,0,0,1.57-2.43,3.3-4.92,1.72-2.38,3.65-4.72,3.65-4.72,0,0-1.06.1-2.64.3-1.62.15-3.7.56-5.83.91-2.13.35-4.21.86-5.78,1.22-.81.15-1.42.35-1.88.46s-.71.2-.71.2v-.05Z"/>
          <g>
            <path class="cls-7" d="m375.46,271.62c-.1-1.17-.15-2.38-.25-3.65-.15-2.53-.61-5.17-.96-7.91-.51-2.74-1.01-5.58-1.77-8.42-.71-2.84-1.62-5.68-2.59-8.52-1.06-2.79-2.08-5.63-3.35-8.31-.61-1.37-1.22-2.69-1.88-3.95-.66-1.27-1.27-2.59-1.98-3.8-1.42-2.43-2.79-4.82-4.21-7s-2.84-4.16-4.21-5.98c-1.32-1.88-2.69-3.4-3.85-4.87s-2.28-2.59-3.14-3.6c-1.77-1.98-2.84-3.04-2.84-3.04,0,0-1.06-1.06-2.99-2.94-.96-.91-2.18-1.98-3.55-3.19-1.37-1.27-3.04-2.53-4.82-3.95s-3.8-2.84-5.93-4.36c-2.18-1.42-4.46-2.99-6.95-4.41-2.43-1.47-5.07-2.84-7.76-4.21-1.32-.71-2.74-1.27-4.11-1.93s-2.79-1.22-4.21-1.77c-2.84-1.17-5.73-2.13-8.57-3.04-2.89-.86-5.73-1.67-8.52-2.33-2.79-.61-5.48-1.22-8.06-1.57-2.59-.46-5.02-.71-7.3-.91-2.28-.25-4.36-.3-6.19-.41s-3.45-.1-4.77-.1c-2.64.05-4.16.1-4.16.1,0,0-1.52,0-4.16-.1-1.32,0-2.94,0-4.77.1-1.83.1-3.9.15-6.19.41-2.28.2-4.72.46-7.3.91-2.59.35-5.27.96-8.06,1.57-2.79.66-5.63,1.42-8.52,2.33-2.84.91-5.73,1.88-8.57,3.04-1.42.56-2.84,1.17-4.21,1.77s-2.79,1.22-4.11,1.93c-2.69,1.37-5.32,2.69-7.76,4.21-2.48,1.42-4.77,2.99-6.95,4.41-2.13,1.52-4.16,2.94-5.93,4.36s-3.45,2.69-4.82,3.95c-1.37,1.22-2.59,2.33-3.55,3.19-1.88,1.88-2.99,2.94-2.99,2.94,0,0-1.12,1.06-2.84,3.04-.86,1.01-1.98,2.13-3.14,3.6-1.17,1.42-2.53,2.99-3.85,4.87-1.37,1.83-2.79,3.8-4.21,5.98-1.47,2.13-2.79,4.56-4.21,7-.71,1.22-1.32,2.54-1.98,3.8s-1.32,2.64-1.88,3.95c-1.27,2.69-2.28,5.53-3.35,8.31-.96,2.84-1.88,5.68-2.59,8.52-.76,2.84-1.27,5.68-1.77,8.42-.35,2.74-.81,5.37-.96,7.91-.1,1.27-.15,2.48-.25,3.65-.05,1.17,0,2.33-.05,3.45-.05,2.18.05,4.21.15,5.98.05,1.77.2,3.3.41,4.56.3,2.48.51,3.9.51,3.9h4.16s-.1-1.37-.3-3.75c-.1-1.22-.15-2.69-.15-4.36s-.05-3.6.1-5.68c.05-1.06.1-2.13.2-3.24s.25-2.28.35-3.45c.2-2.38.71-4.87,1.17-7.5.56-2.59,1.12-5.22,1.93-7.91.71-2.69,1.67-5.32,2.64-8.01,1.06-2.64,2.13-5.27,3.35-7.76.61-1.27,1.22-2.53,1.88-3.7.66-1.22,1.27-2.43,1.98-3.55,1.37-2.28,2.69-4.51,4.11-6.49,1.37-2.03,2.79-3.85,4.06-5.58s2.59-3.14,3.7-4.51c1.12-1.32,2.18-2.38,3.04-3.35,1.67-1.83,2.74-2.79,2.74-2.79,0,0,1.01-1.01,2.84-2.74.96-.81,2.08-1.83,3.4-2.99s2.89-2.33,4.56-3.65c1.72-1.32,3.6-2.64,5.63-4.06,2.08-1.32,4.26-2.79,6.59-4.06,2.33-1.37,4.82-2.64,7.3-3.9,1.27-.66,2.59-1.17,3.85-1.77,1.32-.61,2.64-1.17,3.95-1.67,2.64-1.06,5.37-1.98,8.06-2.84,2.69-.81,5.37-1.57,8.01-2.18,2.64-.56,5.17-1.17,7.6-1.47,2.43-.46,4.72-.66,6.84-.91s4.11-.3,5.83-.41,3.24-.15,4.51-.1h7.81c1.27,0,2.79,0,4.51.1s3.7.15,5.83.41c2.13.2,4.46.46,6.84.91,2.43.35,4.97.91,7.6,1.47,2.64.61,5.27,1.37,8.01,2.18,2.69.86,5.42,1.77,8.06,2.84,1.32.51,2.69,1.06,3.95,1.67,1.32.61,2.64,1.12,3.85,1.77,2.53,1.27,5.02,2.48,7.3,3.9,2.33,1.32,4.51,2.74,6.59,4.06,2.03,1.42,3.9,2.74,5.63,4.06,1.67,1.32,3.24,2.48,4.56,3.65s2.43,2.13,3.4,2.99c1.83,1.72,2.84,2.74,2.84,2.74,0,0,1.06.96,2.74,2.79.86.91,1.93,1.98,3.04,3.35,1.12,1.32,2.43,2.79,3.7,4.51,1.32,1.67,2.74,3.5,4.06,5.58,1.42,1.98,2.74,4.21,4.11,6.49.71,1.17,1.32,2.38,1.98,3.55.66,1.22,1.27,2.43,1.88,3.7,1.27,2.48,2.28,5.12,3.35,7.76.96,2.69,1.93,5.32,2.64,8.01.81,2.64,1.37,5.32,1.93,7.91.46,2.59.96,5.07,1.17,7.5.1,1.22.25,2.33.35,3.45s.1,2.23.2,3.24c.15,2.08.1,4.01.1,5.68s0,3.14-.15,4.36c-.2,2.38-.3,3.75-.3,3.75h4.16s.2-1.42.51-3.9c.2-1.27.3-2.79.41-4.56.1-1.77.2-3.75.15-5.98,0-1.12,0-2.23-.05-3.45h.1Z"/>
            <path class="cls-7" d="m353.66,282.73c-.25-1.37-.56-2.94-1.01-4.61-.35-1.67-.86-3.45-1.47-5.32-.51-1.88-1.27-3.8-1.98-5.83-.81-1.98-1.57-4.01-2.53-5.98-.86-2.03-1.98-4.01-2.99-5.98-1.12-1.93-2.23-3.85-3.45-5.73-1.12-1.88-2.48-3.6-3.65-5.27-2.53-3.3-5.02-6.24-7.35-8.62-1.12-1.22-2.28-2.23-3.19-3.19-.91-.96-1.88-1.67-2.59-2.33-1.42-1.32-2.28-1.98-2.28-1.98,0,0-.86-.71-2.33-1.93-.76-.56-1.72-1.27-2.79-2.08s-2.33-1.62-3.7-2.54-2.89-1.83-4.51-2.79c-1.67-.91-3.35-1.93-5.22-2.84-1.83-.96-3.75-1.83-5.73-2.69-1.98-.81-4.01-1.72-6.08-2.38-1.01-.35-2.08-.76-3.09-1.06-1.01-.3-2.08-.66-3.09-.96-2.08-.61-4.11-1.17-6.13-1.57-1.98-.46-3.95-.86-5.78-1.17-1.83-.35-3.6-.56-5.27-.81-1.62-.25-3.14-.35-4.46-.46-1.32-.15-2.48-.2-3.45-.25-1.93-.1-3.04-.2-3.04-.2,0,0-1.12.05-3.04.2-.96,0-2.13.1-3.45.25-1.32.15-2.84.2-4.46.46-1.62.2-3.4.41-5.27.81-1.88.3-3.8.71-5.78,1.17s-4.06,1.01-6.13,1.57c-1.01.3-2.08.61-3.09.96s-2.08.71-3.09,1.06c-2.08.66-4.06,1.57-6.08,2.38-1.98.86-3.9,1.72-5.73,2.69-1.88.86-3.55,1.93-5.22,2.84-1.62.96-3.14,1.88-4.51,2.79-1.32.96-2.64,1.72-3.7,2.54s-2.03,1.47-2.79,2.08c-1.47,1.22-2.33,1.93-2.33,1.93,0,0-.86.66-2.28,1.98-.71.66-1.62,1.37-2.59,2.33-.91.96-2.08,1.98-3.19,3.19-2.28,2.38-4.82,5.32-7.35,8.62-1.17,1.67-2.54,3.4-3.65,5.27-1.22,1.83-2.33,3.75-3.45,5.73-1.01,1.98-2.13,3.95-2.99,5.98-.96,1.98-1.72,4.06-2.53,5.98-.71,1.98-1.42,3.9-1.98,5.83-.56,1.88-1.06,3.65-1.47,5.32-.46,1.67-.76,3.24-1.01,4.61-.3,1.37-.51,2.59-.61,3.6-.3,2.03-.51,3.19-.51,3.19h4.16s.25-1.12.71-3.04c.2-.96.51-2.13.86-3.4.3-1.32.71-2.74,1.27-4.31.46-1.57,1.06-3.24,1.67-4.97s1.42-3.55,2.18-5.37c.86-1.83,1.67-3.7,2.69-5.53.91-1.88,2.03-3.65,3.09-5.42,1.12-1.77,2.23-3.5,3.45-5.17,1.12-1.67,2.43-3.19,3.6-4.77,1.27-1.47,2.43-2.89,3.65-4.16,1.17-1.32,2.38-2.48,3.45-3.55,1.06-1.12,2.18-1.98,3.04-2.84.91-.86,1.77-1.52,2.43-2.08,1.32-1.17,2.18-1.72,2.18-1.72,0,0,.81-.61,2.18-1.72.71-.51,1.62-1.12,2.64-1.83s2.23-1.42,3.45-2.28c1.27-.81,2.74-1.62,4.21-2.48,1.52-.81,3.09-1.72,4.82-2.48,1.67-.86,3.45-1.62,5.27-2.38,1.88-.71,3.7-1.52,5.58-2.13l2.84-.96c.96-.3,1.93-.56,2.84-.86,1.88-.51,3.8-1.01,5.63-1.42,1.83-.41,3.6-.81,5.32-1.06,1.67-.35,3.35-.56,4.82-.76,1.47-.25,2.89-.35,4.11-.51s2.28-.25,3.19-.3c1.77-.15,2.79-.25,2.79-.25,0,0,1.01.1,2.79.25.86.05,1.98.15,3.19.3,1.22.15,2.64.25,4.11.51,1.52.2,3.14.41,4.82.76,1.72.25,3.5.66,5.32,1.06,1.83.41,3.7.91,5.63,1.42.96.3,1.93.56,2.84.86l2.84.96c1.93.61,3.75,1.42,5.58,2.13,1.83.76,3.6,1.57,5.27,2.38,1.72.76,3.3,1.67,4.82,2.48,1.52.86,2.94,1.67,4.21,2.48,1.27.86,2.48,1.52,3.45,2.28,1.01.71,1.88,1.32,2.64,1.83,1.42,1.06,2.18,1.72,2.18,1.72,0,0,.86.61,2.18,1.72.66.61,1.57,1.22,2.43,2.08s1.98,1.72,3.04,2.84c1.06,1.06,2.28,2.23,3.45,3.55,1.27,1.27,2.38,2.69,3.65,4.16,1.17,1.52,2.48,3.04,3.6,4.77,1.22,1.67,2.33,3.4,3.45,5.17,1.01,1.83,2.18,3.6,3.09,5.42,1.01,1.83,1.83,3.7,2.69,5.53.76,1.83,1.57,3.6,2.18,5.37.66,1.72,1.27,3.4,1.67,4.97.51,1.57.91,3.04,1.27,4.31.35,1.32.66,2.43.86,3.4.46,1.93.71,3.04.71,3.04h4.16s-.2-1.17-.51-3.19c-.1-1.01-.35-2.23-.61-3.6h.41Z"/>
          </g>
          <g>
            <path class="cls-5" d="m338.1,209.46s-1.77-.1-4.41-.1c-2.69.05-6.13.2-9.63.66-1.72.2-3.45.51-5.02.76-1.62.3-3.09.66-4.31.91-2.48.56-4.11,1.12-4.11,1.12,0,0-.35-1.77-.91-4.41-.66-2.59-1.57-6.24-2.79-9.84-.61-1.77-1.22-3.65-1.88-5.32-.66-1.67-1.32-3.24-1.93-4.66-.61-1.37-1.12-2.53-1.47-3.3-.35-.81-.61-1.22-.61-1.22,0,0-1.88.76-4.56,1.93-2.74,1.32-6.13,2.94-9.48,4.97-3.3,1.93-6.44,4.06-8.67,5.73-1.12.81-2.03,1.52-2.69,2.03-.61.51-.96.81-.96.81,0,0-.86-1.47-2.33-3.7-1.47-2.13-3.5-5.07-5.78-7.81-2.28-2.74-4.72-5.48-6.64-7.35-1.93-1.93-3.3-3.19-3.3-3.19v5.32s1.32,1.27,3.14,3.19c1.83,1.88,4.21,4.66,6.34,7.4,2.13,2.79,4.11,5.68,5.42,7.81,1.37,2.23,2.18,3.65,2.18,3.65,0,0,.35-.3.96-.81s1.47-1.22,2.54-2.03c2.13-1.67,5.12-3.85,8.31-5.78,3.19-2.08,6.49-3.75,9.13-5.12,2.59-1.22,4.41-1.98,4.41-1.98,0,0,.2.46.56,1.22s.86,1.88,1.37,3.24c.56,1.37,1.17,2.89,1.77,4.56s1.17,3.5,1.72,5.22c1.12,3.5,1.93,7.05,2.48,9.58.51,2.59.81,4.31.81,4.31,0,0,1.57-.56,4.01-1.22,1.22-.3,2.64-.71,4.21-1.06,1.52-.3,3.19-.61,4.92-.91,3.4-.56,6.79-.81,9.43-.91,2.59-.1,4.36,0,4.36,0l3.35-3.65.05-.05Z"/>
            <path class="cls-5" d="m367.55,286.27c-.91-1.93-2.54-4.36-4.26-6.69-1.83-2.33-3.7-4.46-5.37-5.98-1.62-1.52-2.74-2.43-2.74-2.43,0,0,.15-.35.41-.96s.61-1.47,1.01-2.53c.91-2.18,1.98-5.12,3.09-8.26,1.01-3.14,2.13-6.49,2.79-9.08.35-1.32.66-2.38.86-3.19.2-.76.3-1.22.3-1.22,0,0-1.52-.91-3.8-2.13-2.28-1.22-5.48-2.69-8.72-3.85-1.62-.56-3.3-1.12-4.82-1.57-1.57-.41-3.04-.76-4.31-1.01-2.48-.56-4.21-.76-4.21-.76,0,0,.15-1.57.41-3.95.15-2.33.41-5.68.46-9.08v-5.07c-.1-1.67-.15-3.19-.2-4.51-.15-2.74-.35-4.51-.35-4.51l-3.35,3.65s.2,1.72.25,4.36c0,1.27.1,2.79.15,4.36,0,1.57,0,3.3-.05,4.92-.05,3.24-.35,6.49-.56,8.72-.25,2.28-.46,3.8-.46,3.8,0,0,1.72.15,4.21.61,1.27.2,2.69.51,4.26.86,1.52.41,3.14.86,4.82,1.37,3.24,1.06,6.44,2.33,8.72,3.5,2.28,1.12,3.8,1.98,3.8,1.98,0,0-.1.41-.3,1.17-.2.76-.51,1.77-.86,3.04-.66,2.48-1.72,5.73-2.69,8.72-1.12,3.04-2.13,5.88-2.99,7.96-.41,1.01-.71,1.88-.96,2.43s-.41.91-.41.91c0,0,1.17.86,2.79,2.33,1.67,1.42,3.65,3.5,5.58,5.73,1.77,2.23,3.5,4.61,4.51,6.44,1.06,1.83,1.67,3.14,1.67,3.14h2.84s-.56-1.32-1.57-3.24l.05.05Z"/>
            <path class="cls-5" d="m246.63,187.97c-2.28,2.79-4.31,5.68-5.78,7.81-1.42,2.23-2.33,3.7-2.33,3.7,0,0-.35-.3-.96-.81-.66-.51-1.57-1.22-2.69-2.03-2.23-1.62-5.37-3.8-8.67-5.73-3.3-2.03-6.74-3.65-9.48-4.97-2.69-1.17-4.56-1.93-4.56-1.93,0,0-.2.46-.61,1.22-.41.76-.91,1.93-1.47,3.3-.61,1.37-1.27,2.94-1.93,4.66-.66,1.72-1.27,3.55-1.88,5.32-1.22,3.6-2.13,7.2-2.79,9.84-.56,2.64-.91,4.41-.91,4.41,0,0-1.62-.51-4.11-1.12-1.27-.3-2.74-.61-4.31-.91-1.57-.25-3.3-.51-5.02-.76-3.5-.46-6.95-.61-9.63-.66-2.64,0-4.41.1-4.41.1l3.35,3.65h4.36c2.64.15,6.03.35,9.43.91,1.67.25,3.35.56,4.92.91s2.99.71,4.21,1.06c2.43.66,4.01,1.22,4.01,1.22,0,0,.3-1.72.81-4.31.56-2.53,1.42-6.08,2.48-9.58.56-1.77,1.12-3.55,1.72-5.22.61-1.67,1.22-3.19,1.77-4.56.56-1.37,1.01-2.48,1.37-3.24.35-.76.56-1.22.56-1.22,0,0,1.83.76,4.41,1.98,2.64,1.37,5.93,3.04,9.13,5.12,3.19,1.98,6.19,4.16,8.31,5.78,1.06.81,1.93,1.52,2.54,2.03.61.51.96.81.96.81,0,0,.81-1.47,2.18-3.65,1.37-2.13,3.3-5.02,5.42-7.81,2.13-2.74,4.46-5.53,6.34-7.4,1.83-1.93,3.14-3.19,3.14-3.19v-5.32s-1.37,1.27-3.3,3.19c-1.93,1.88-4.41,4.61-6.64,7.35l.05.05Z"/>
            <path class="cls-5" d="m178.09,226.8c0-1.62-.05-3.35-.05-4.92s.1-3.09.15-4.36c.1-2.64.25-4.36.25-4.36l-3.35-3.65s-.2,1.77-.35,4.51c-.05,1.32-.15,2.84-.2,4.51v5.07c0,3.4.25,6.69.46,9.08.25,2.38.41,3.95.41,3.95,0,0-1.72.2-4.21.76-1.27.25-2.74.61-4.31,1.01-1.52.46-3.19.96-4.82,1.57-3.24,1.17-6.44,2.59-8.72,3.85-2.28,1.22-3.8,2.13-3.8,2.13,0,0,.1.46.3,1.22.2.76.51,1.88.86,3.19.66,2.59,1.77,5.93,2.79,9.08,1.17,3.19,2.18,6.13,3.09,8.26.41,1.06.76,1.93,1.01,2.53.25.61.41.96.41.96,0,0-1.12.91-2.74,2.43-1.62,1.52-3.55,3.65-5.37,5.98-1.72,2.33-3.35,4.77-4.26,6.69-1.01,1.93-1.57,3.24-1.57,3.24h2.84s.61-1.27,1.67-3.14c1.01-1.88,2.74-4.21,4.51-6.44,1.93-2.23,3.85-4.31,5.58-5.73,1.67-1.42,2.79-2.33,2.79-2.33,0,0-.15-.35-.41-.91-.25-.61-.56-1.42-.96-2.43-.86-2.08-1.88-4.92-2.99-7.96-.96-2.99-2.08-6.24-2.69-8.72-.35-1.27-.66-2.33-.86-3.04-.2-.76-.3-1.17-.3-1.17,0,0,1.52-.86,3.8-1.98,2.28-1.17,5.48-2.43,8.72-3.5,1.62-.51,3.3-.96,4.82-1.37,1.57-.35,3.04-.66,4.26-.86,2.48-.46,4.21-.61,4.21-.61,0,0-.2-1.52-.46-3.8-.2-2.28-.51-5.48-.56-8.72l.05-.05Z"/>
          </g>
          <path class="cls-4" d="m167.95,246.07s-2.48.76-4.87,1.72c-2.38.96-4.72,2.13-4.72,2.13,0,0,.15.61.46,1.57.25.91.61,2.13.96,3.35.35,1.17.71,2.38,1.01,3.24.3.86.51,1.42.51,1.42,0,0,.35-.86.86-2.18.61-1.27,1.37-2.99,2.18-4.66.91-1.67,1.72-3.35,2.43-4.56.71-1.22,1.17-2.03,1.17-2.03Z"/>
          <path class="cls-5" d="m146.4,276.44s.35-.46.91-1.22c.56-.71,1.32-1.62,2.18-2.53,1.67-1.77,3.45-3.45,3.45-3.45,0,0-.96-2.28-1.88-4.61-.51-1.22-.91-2.38-1.27-3.3s-.56-1.57-.56-1.57c0,0-.25,1.01-.66,2.59-.35,1.52-.76,3.65-1.17,5.68-.3,2.08-.61,4.16-.81,5.73-.15,1.57-.2,2.64-.2,2.64v.05Z"/>
          <path class="cls-5" d="m158.97,236.08s.66-.2,1.57-.56c.96-.35,2.23-.76,3.55-1.12s2.64-.71,3.6-.91c.96-.25,1.67-.35,1.67-.35,0,0-.25-2.74-.51-5.48-.15-2.74-.25-5.63-.25-5.63,0,0-.66.86-1.67,2.08s-2.23,2.99-3.45,4.72c-1.22,1.77-2.33,3.6-3.19,4.92-.81,1.37-1.32,2.33-1.32,2.33Z"/>
          <g>
            <path class="cls-3" d="m325.52,217.42c-2.79.3-5.48.71-5.48.71,0,0,1.47,1.17,2.94,2.28,1.42,1.17,2.84,2.43,2.84,2.43l5.27-5.78s-2.79.05-5.58.35Z"/>
            <path class="cls-3" d="m260.47,192.83c-1.88-2.18-3.85-4.31-3.85-4.31v8.37s1.88.1,3.75.15c.91,0,1.88.05,2.53.15.71.05,1.17.1,1.17.1,0,0-.46-.56-1.06-1.42-.66-.86-1.57-1.98-2.48-3.04h-.05Z"/>
            <path class="cls-3" d="m360.71,285.57c-.61-.96-1.37-1.88-1.93-2.53s-.91-1.12-.91-1.12c0,0,.05.46.15,1.17s.25,1.67.3,2.59c.15,1.93.35,3.8.35,3.8h4.51s-1.17-2.03-2.43-3.9h-.05Z"/>
            <path class="cls-3" d="m331.2,218.84c-.05-1.06-.1-1.72-.1-1.72l-5.27,5.78s.35.3.86.76,1.17,1.12,1.88,1.72c.66.66,1.37,1.27,1.88,1.77.51.51.81.86.81.86,0,0,0-.66.05-1.67v-3.7c0-1.37,0-2.74-.1-3.8h0Z"/>
            <path class="cls-3" d="m182.09,217.12l5.27,5.78s1.42-1.22,2.84-2.43c1.47-1.17,2.94-2.28,2.94-2.28,0,0-2.69-.46-5.48-.71-2.74-.25-5.58-.35-5.58-.35Z"/>
            <path class="cls-3" d="m250.23,195.88c-.66.86-1.06,1.42-1.06,1.42,0,0,.46,0,1.17-.1.71-.05,1.62-.15,2.54-.15,1.88-.1,3.75-.15,3.75-.15v-8.37s-2.03,2.13-3.85,4.31c-.91,1.06-1.83,2.18-2.48,3.04h-.05Z"/>
            <path class="cls-3" d="m152.48,285.57c-1.32,1.88-2.43,3.9-2.43,3.9h4.51s.15-1.93.35-3.8c.05-.96.2-1.88.3-2.59.1-.71.15-1.17.15-1.17,0,0-.35.46-.91,1.12s-1.27,1.62-1.93,2.53h-.05Z"/>
            <path class="cls-3" d="m181.99,218.84c0,1.06-.05,2.43-.1,3.8v3.7c0,1.01.05,1.67.05,1.67,0,0,.3-.35.81-.86s1.17-1.12,1.88-1.77c.66-.66,1.37-1.27,1.88-1.72s.86-.76.86-.76l-5.27-5.78s0,.71-.1,1.72Z"/>
          </g>
        </g>
        <g>
          <g>
            <path class="cls-1" d="m152.94,309.29c0,1.47-1.22,2.69-2.69,2.69h0c-1.47,0-2.69-1.22-2.69-2.69v-17.09c0-1.47,1.22-2.69,2.69-2.69h0c1.47,0,2.69,1.22,2.69,2.69v17.09Z"/>
            <g>
              <path class="cls-4" d="m150.25,509s19.77-22.71,20.23-69.92c.46-47.15-20.23-108.9-20.23-108.9,0,0-20.69,61.75-20.23,108.9.46,47.2,20.23,69.92,20.23,69.92Z"/>
              <path class="cls-3" d="m130.73,452.57c9.18-14.2,16.98-24.49,19.52-27.78,2.54,3.3,10.34,13.59,19.52,27.78.1-1.22.2-2.43.3-3.65-10.49-16.02-18.86-26.52-18.96-26.67l-.86-1.12-.86,1.12s-8.47,10.65-18.96,26.67c.1,1.22.2,2.43.3,3.65Z"/>
              <path class="cls-13" d="m150.25,316.34s-4.21,13.13-4.31,40.36c-.1,27.23,4.31,62.87,4.31,62.87,0,0,4.41-35.64,4.31-62.87s-4.31-40.36-4.31-40.36Z"/>
              <path class="cls-7" d="m169.11,458.65c-10.09-16.22-18.81-27.18-18.81-27.18,0,0-8.77,11-18.86,27.18,4.56,33.87,18.86,50.35,18.86,50.35,0,0,14.25-16.43,18.81-50.35Z"/>
              <path class="cls-12" d="m130.02,439.08c.46,47.2,20.23,69.92,20.23,69.92v-178.82s-20.69,61.75-20.23,108.9Z"/>
            </g>
            <path class="cls-7" d="m158.31,330.49c0,2.79-2.28,5.07-5.07,5.07h-5.98c-2.79,0-5.07-2.28-5.07-5.07h0c0-2.79,2.28-5.07,5.07-5.07h5.98c2.79,0,5.07,2.28,5.07,5.07h0Z"/>
            <path class="cls-1" d="m164.04,320.35c0,2.79-2.28,5.07-5.07,5.07h-17.44c-2.79,0-5.07-2.28-5.07-5.07h0c0-2.79,2.28-5.07,5.07-5.07h17.44c2.79,0,5.07,2.28,5.07,5.07h0Z"/>
            <path class="cls-7" d="m158.31,310.15c0,2.79-2.28,5.07-5.07,5.07h-5.98c-2.79,0-5.07-2.28-5.07-5.07h0c0-2.79,2.28-5.07,5.07-5.07h5.98c2.79,0,5.07,2.28,5.07,5.07h0Z"/>
          </g>
          <g>
            <path class="cls-1" d="m139.05,305.69c-.46,1.17-1.77,1.72-2.89,1.27h0c-1.17-.46-1.72-1.77-1.27-2.89l5.22-13.18c.46-1.17,1.77-1.72,2.89-1.27h0c1.17.46,1.67,1.72,1.27,2.89l-5.22,13.18Z"/>
            <g>
              <path class="cls-5" d="m75.77,458.71s22.21-11.46,37.01-47.66c14.8-36.2,17.85-90.09,17.85-90.09,0,0-34.83,41.22-48.98,77.67-14.09,36.45-5.88,60.03-5.88,60.03v.05Z"/>
              <path class="cls-8" d="m78,409.27c11.41-8.11,20.58-13.69,23.58-15.41.96,3.3,3.8,13.64,6.49,27.38.46-.86.91-1.77,1.32-2.74-3.14-15.56-6.39-26.21-6.44-26.31l-.35-1.12-1.01.56s-9.79,5.58-22.76,14.7c-.3.96-.61,1.93-.91,2.89l.1.05Z"/>
              <path class="cls-13" d="m134.84,310.31s-7.25,8.82-15.67,29.76-15.97,49.74-15.97,49.74c0,0,14.3-26.11,22.61-47.1,8.26-20.99,9.08-32.4,9.08-32.4h-.05Z"/>
              <path class="cls-1" d="m105.69,425.7c-2.79-15.56-6.19-26.72-6.19-26.72,0,0-10.14,5.78-22.87,15.16-6.9,27.48-.91,44.51-.91,44.51,0,0,16.02-8.26,29.91-32.96h.05Z"/>
              <path class="cls-12" d="m81.6,398.63c-14.09,36.45-5.88,60.03-5.88,60.03l54.81-137.7s-34.83,41.22-48.98,77.67h.05Z"/>
            </g>
            <path class="cls-7" d="m136.71,323.69c-.86,2.18-3.3,3.19-5.48,2.33l-4.61-1.83c-2.18-.86-3.19-3.3-2.33-5.48h0c.86-2.18,3.3-3.19,5.48-2.33l4.61,1.83c2.18.86,3.19,3.3,2.33,5.48h0Z"/>
            <path class="cls-1" d="m144.22,317.61c-.86,2.18-3.3,3.19-5.48,2.33l-13.44-5.32c-2.18-.86-3.19-3.3-2.33-5.48h0c.86-2.18,3.3-3.19,5.48-2.33l13.44,5.32c2.18.86,3.19,3.3,2.33,5.48h0Z"/>
            <path class="cls-7" d="m142.95,308.03c-.86,2.18-3.3,3.19-5.48,2.33l-4.61-1.83c-2.18-.86-3.19-3.3-2.33-5.48h0c.86-2.18,3.3-3.19,5.48-2.33l4.61,1.83c2.18.86,3.19,3.3,2.33,5.48h0Z"/>
          </g>
          <path class="cls-1" d="m166.12,290.08c0,1.57-1.27,2.84-2.84,2.84h-26.06c-1.57,0-2.84-1.27-2.84-2.84h0c0-1.57,1.27-2.84,2.84-2.84h26.06c1.57,0,2.84,1.27,2.84,2.84h0Z"/>
          <g>
            <path class="cls-1" d="m360.25,309.29c0,1.47,1.22,2.69,2.69,2.69h0c1.47,0,2.69-1.22,2.69-2.69v-17.09c0-1.47-1.22-2.69-2.69-2.69h0c-1.47,0-2.69,1.22-2.69,2.69v17.09Z"/>
            <g>
              <path class="cls-4" d="m362.94,509s-19.77-22.71-20.23-69.92c-.46-47.15,20.23-108.9,20.23-108.9,0,0,20.69,61.75,20.23,108.9-.46,47.2-20.23,69.92-20.23,69.92Z"/>
              <path class="cls-3" d="m382.46,452.57c-9.18-14.2-16.98-24.49-19.52-27.78-2.53,3.3-10.34,13.59-19.52,27.78-.1-1.22-.2-2.43-.3-3.65,10.49-16.02,18.86-26.52,18.96-26.67l.86-1.12.86,1.12s8.47,10.65,18.96,26.67c-.1,1.22-.2,2.43-.3,3.65Z"/>
              <path class="cls-13" d="m362.94,316.34s4.21,13.13,4.31,40.36c.1,27.23-4.31,62.87-4.31,62.87,0,0-4.41-35.64-4.31-62.87.1-27.23,4.31-40.36,4.31-40.36Z"/>
              <path class="cls-7" d="m344.08,458.65c10.09-16.22,18.81-27.18,18.81-27.18,0,0,8.77,11,18.86,27.18-4.56,33.87-18.86,50.35-18.86,50.35,0,0-14.25-16.43-18.81-50.35Z"/>
              <path class="cls-12" d="m383.17,439.08c-.46,47.2-20.23,69.92-20.23,69.92v-178.82s20.69,61.75,20.23,108.9Z"/>
            </g>
            <path class="cls-7" d="m354.88,330.49c0,2.79,2.28,5.07,5.07,5.07h5.98c2.79,0,5.07-2.28,5.07-5.07h0c0-2.79-2.28-5.07-5.07-5.07h-5.98c-2.79,0-5.07,2.28-5.07,5.07h0Z"/>
            <path class="cls-1" d="m349.15,320.35c0,2.79,2.28,5.07,5.07,5.07h17.44c2.79,0,5.07-2.28,5.07-5.07h0c0-2.79-2.28-5.07-5.07-5.07h-17.44c-2.79,0-5.07,2.28-5.07,5.07h0Z"/>
            <path class="cls-7" d="m354.88,310.15c0,2.79,2.28,5.07,5.07,5.07h5.98c2.79,0,5.07-2.28,5.07-5.07h0c0-2.79-2.28-5.07-5.07-5.07h-5.98c-2.79,0-5.07,2.28-5.07,5.07h0Z"/>
          </g>
          <g>
            <path class="cls-1" d="m374.09,305.69c.46,1.17,1.77,1.72,2.89,1.27h0c1.17-.46,1.72-1.77,1.27-2.89l-5.22-13.18c-.46-1.17-1.77-1.72-2.89-1.27h0c-1.17.46-1.67,1.72-1.27,2.89l5.22,13.18Z"/>
            <g>
              <path class="cls-5" d="m437.42,458.71s-22.21-11.46-37.01-47.66c-14.8-36.2-17.85-90.09-17.85-90.09,0,0,34.83,41.22,48.98,77.67,14.09,36.45,5.88,60.03,5.88,60.03v.05Z"/>
              <path class="cls-8" d="m435.14,409.27c-11.41-8.11-20.58-13.69-23.58-15.41-.96,3.3-3.8,13.64-6.49,27.38-.46-.86-.91-1.77-1.32-2.74,3.14-15.56,6.39-26.21,6.44-26.31l.35-1.12,1.01.56s9.79,5.58,22.76,14.7c.3.96.61,1.93.91,2.89l-.1.05Z"/>
              <path class="cls-13" d="m378.35,310.31s7.25,8.82,15.67,29.76c8.42,20.94,15.97,49.74,15.97,49.74,0,0-14.3-26.11-22.61-47.1-8.26-20.99-9.08-32.4-9.08-32.4h.05Z"/>
              <path class="cls-1" d="m407.5,425.7c2.79-15.56,6.19-26.72,6.19-26.72,0,0,10.14,5.78,22.87,15.16,6.9,27.48.91,44.51.91,44.51,0,0-16.02-8.26-29.91-32.96h-.05Z"/>
              <path class="cls-12" d="m431.54,398.63c14.09,36.45,5.88,60.03,5.88,60.03l-54.81-137.7s34.83,41.22,48.98,77.67h-.05Z"/>
            </g>
            <path class="cls-7" d="m376.48,323.69c.86,2.18,3.3,3.19,5.48,2.33l4.61-1.83c2.18-.86,3.19-3.3,2.33-5.48h0c-.86-2.18-3.3-3.19-5.48-2.33l-4.61,1.83c-2.18.86-3.19,3.3-2.33,5.48h0Z"/>
            <path class="cls-1" d="m368.97,317.61c.86,2.18,3.3,3.19,5.48,2.33l13.44-5.32c2.18-.86,3.19-3.3,2.33-5.48h0c-.86-2.18-3.3-3.19-5.48-2.33l-13.44,5.32c-2.18.86-3.19,3.3-2.33,5.48h0Z"/>
            <path class="cls-7" d="m370.24,308.03c.86,2.18,3.3,3.19,5.48,2.33l4.61-1.83c2.18-.86,3.19-3.3,2.33-5.48h0c-.86-2.18-3.3-3.19-5.48-2.33l-4.61,1.83c-2.18.86-3.19,3.3-2.33,5.48h0Z"/>
          </g>
          <path class="cls-1" d="m347.07,290.08c0,1.57,1.27,2.84,2.84,2.84h26.06c1.57,0,2.84-1.27,2.84-2.84h0c0-1.57-1.27-2.84-2.84-2.84h-26.06c-1.57,0-2.84,1.27-2.84,2.84h0Z"/>
        </g>
      </g>
    </g>
  </g>
</svg>