<?xml version="1.0" encoding="UTF-8"?>
<svg xmlns="http://www.w3.org/2000/svg" viewBox="0 0 500 575">
  <defs>
    <style>
      .cls-1 {
        fill: #3e748a;
      }

      .cls-1, .cls-2, .cls-3, .cls-4, .cls-5, .cls-6, .cls-7, .cls-8, .cls-9, .cls-10, .cls-11, .cls-12, .cls-13, .cls-14, .cls-15, .cls-16 {
        stroke-width: 0px;
      }

      .cls-2 {
        fill: #4d4d4d;
      }

      .cls-3 {
        fill: #262626;
      }

      .cls-4 {
        fill: #e384b0;
      }

      .cls-5 {
        fill: #ffb5e9;
      }

      .cls-6 {
        fill: #316170;
      }

      .cls-7 {
        fill: #4ce0c8;
      }

      .cls-8 {
        fill: #241816;
      }

      .cls-9 {
        fill: #416b80;
      }

      .cls-10 {
        fill: #fff;
      }

      .cls-11 {
        fill: #5da0ff;
      }

      .cls-12 {
        fill: #dee3d7;
      }

      .cls-13 {
        fill: #e2e6eb;
      }

      .cls-14 {
        fill: #f2f1eb;
      }

      .cls-15 {
        fill: #7fb2c1;
      }

      .cls-16 {
        fill: #e7d8b4;
      }
    </style>
  </defs>
  <g id="Capa_1" data-name="Capa 1">
    <g>
      <path class="cls-16" d="m250,573c-66.51,0-129.04-25.9-176.07-72.93C26.9,453.04,1,390.51,1,324s25.9-129.04,72.93-176.07c47.03-47.03,109.56-72.93,176.07-72.93s129.04,25.9,176.07,72.93c47.03,47.03,72.93,109.56,72.93,176.07s-25.9,129.04-72.93,176.07c-47.03,47.03-109.56,72.93-176.07,72.93Z"/>
      <path class="cls-8" d="m250,76c33.48,0,65.96,6.56,96.53,19.49,29.53,12.49,56.05,30.37,78.83,53.15,22.78,22.78,40.66,49.3,53.15,78.83,12.93,30.57,19.49,63.05,19.49,96.53s-6.56,65.96-19.49,96.53c-12.49,29.53-30.37,56.05-53.15,78.83-22.78,22.78-49.3,40.66-78.83,53.15-30.57,12.93-63.05,19.49-96.53,19.49s-65.96-6.56-96.53-19.49c-29.53-12.49-56.05-30.37-78.83-53.15-22.78-22.78-40.66-49.3-53.15-78.83-12.93-30.57-19.49-63.05-19.49-96.53s6.56-65.96,19.49-96.53c12.49-29.53,30.37-56.05,53.15-78.83s49.3-40.66,78.83-53.15c30.57-12.93,63.05-19.49,96.53-19.49m0-2C111.93,74,0,185.93,0,324s111.93,250,250,250,250-111.93,250-250-111.93-250-250-250h0Z"/>
    </g>
  </g>
  <g id="Capa_2" data-name="Capa 2">
    <g id="Capa_2-2" data-name="Capa 2">
      <g>
        <path class="cls-6" d="m185.48,561.88c-1.91,0-3.47-1.47-3.47-3.29,0-.94.42-1.83,1.16-2.46l8.24-6.99-22.32,12.23c-1.67.9-3.79.35-4.73-1.23-.86-1.44-.46-3.26.93-4.26l4.79-3.38-9.66,5.28c-1.67.9-3.79.34-4.73-1.24-.86-1.45-.45-3.29.98-4.28l6.24-4.24-6.24,3.44c-1.66.91-3.79.37-4.74-1.2-.7-1.15-.61-2.6.25-3.65l7.63-9.45c-1.56.47-3.26-.14-4.1-1.48-.96-1.57-.38-3.58,1.27-4.49l14.31-7.84c1.66-.92,3.79-.38,4.74,1.2.7,1.15.61,2.59-.25,3.65l-7.58,9.34,52.97-29.05c1.67-.9,3.79-.34,4.73,1.24.86,1.45.45,3.29-.98,4.28l-6.24,4.26h0c1.67-.9,3.79-.35,4.73,1.23.86,1.44.46,3.26-.93,4.26l-5.04,3.56c1.78-.67,3.8.17,4.49,1.86.52,1.28.16,2.74-.92,3.65l-8.22,6.99,2.85-1.56c1.67-.91,3.79-.36,4.73,1.22.69,1.13.6,2.56-.23,3.6l-4.73,5.97c1.07.13,2.01.73,2.53,1.61.96,1.57.38,3.58-1.27,4.49l-11.44,6.27c-1.66.91-3.79.37-4.74-1.2-.7-1.14-.61-2.57.23-3.62l3.62-4.56-17.15,9.38c-.52.3-1.12.46-1.74.46h.01Z"/>
        <path class="cls-6" d="m182.32,527.21c-1.91,0-3.47-1.47-3.47-3.29,0-.97.44-1.88,1.21-2.51l6.69-5.44-2.37,1.31c-1.66.91-3.79.37-4.74-1.21-.72-1.18-.6-2.66.31-3.71l11.4-13.33-5.42,2.98c-1.66.91-3.79.37-4.74-1.2-.75-1.23-.58-2.79.42-3.84l3.15-3.32c-.47-.13-.92-.35-1.29-.66-1.12-.9-1.52-2.35-1.03-3.65l3.62-9.46c-.09-.12-.19-.24-.27-.37-.96-1.57-.39-3.59,1.27-4.5h.01l2.17-1.18c1.27-.69,2.85-.56,3.96.33,1.12.89,1.53,2.35,1.04,3.65l-2.03,5.28,5.69-3.12c1.66-.91,3.79-.37,4.74,1.2.75,1.23.58,2.79-.42,3.84l-.88.93,2.83-1.54c1.67-.91,3.79-.35,4.73,1.23.71,1.17.59,2.65-.31,3.69l-11.41,13.34,18.46-10.11c1.66-.91,3.79-.37,4.74,1.2.83,1.37.52,3.12-.75,4.15l-6.68,5.42,10.09-5.52c1.61-.98,3.76-.52,4.79,1.02,1.03,1.53.55,3.57-1.07,4.55-.08.05-.16.1-.26.14l-42.47,23.29c-.52.29-1.12.45-1.74.44h.01Z"/>
        <path class="cls-6" d="m300.45,561.88c-1.91,0-3.47-1.47-3.47-3.29,0-.89.38-1.74,1.05-2.36l14.25-13.26-22.51,12.33c-1.66.92-3.79.38-4.74-1.2-.77-1.26-.58-2.86.48-3.91l16.31-16.47-14.75,8.13c-1.66.91-3.79.37-4.74-1.21-.83-1.37-.52-3.11.74-4.14l6.48-5.28-3.63,1.98c-1.69.86-3.8.26-4.7-1.34-.73-1.29-.47-2.91.65-3.92l9.92-8.45-7.63,4.18c-1.53.84-3.49.45-4.53-.91-1.05-1.35-.85-3.24.45-4.38l11.38-9.88-9.81,5.37c-1.66.92-3.77.39-4.74-1.18-.78-1.27-.58-2.89.5-3.95l22.5-22.35c-1.52-1.1-1.82-3.17-.67-4.62.28-.35.63-.64,1.03-.86l11.93-6.54c1.67-.91,3.79-.35,4.73,1.22.76,1.26.56,2.85-.49,3.9l-17.27,17.13,16.33-8.95c1.67-.9,3.79-.34,4.73,1.24.78,1.32.51,2.99-.65,4.02l-11.36,9.88,9.02-4.94c1.7-.86,3.8-.24,4.69,1.36.72,1.29.46,2.89-.65,3.9l-9.92,8.45,6.94-3.79c1.67-.9,3.79-.34,4.73,1.24.81,1.35.5,3.07-.73,4.1l-6.49,5.28,3.01-1.64c1.67-.91,3.79-.36,4.73,1.22.75,1.25.57,2.83-.47,3.88l-16.3,16.47,25.78-14.12c1.66-.91,3.79-.37,4.74,1.2.79,1.3.56,2.95-.58,4l-14.25,13.27,20.38-11.2c1.67-.91,3.79-.36,4.73,1.21.66,1.09.61,2.45-.13,3.49l-8.79,12.27,7.91-4.33c1.61-.98,3.76-.52,4.79,1.02,1.03,1.53.55,3.57-1.07,4.55-.08.05-.16.1-.26.14l-21.06,11.55c-1.67.91-3.79.36-4.73-1.21-.66-1.09-.61-2.45.13-3.49l8.78-12.27-30.97,16.97c-.52.3-1.12.46-1.74.46h-.01Z"/>
        <path class="cls-6" d="m125.4,499.84c-1.91,0-3.47-1.47-3.47-3.29,0-.72.25-1.4.69-1.98l9.71-12.08-10.78,5.93c-1.7.85-3.8.22-4.68-1.39-.83-1.51-.31-3.38,1.21-4.31l25.87-14.2c1.67-.91,3.79-.36,4.73,1.22.69,1.14.6,2.58-.25,3.63l-9.71,12.07,6.69-3.65c1.61-.98,3.76-.52,4.79,1.02,1.03,1.53.55,3.57-1.07,4.55-.08.05-.16.1-.26.14l-21.75,11.91c-.52.3-1.12.45-1.74.45h.01Z"/>
        <path class="cls-6" d="m89.17,507.75c-1.91,0-3.47-1.47-3.47-3.29,0-1.04.51-2.01,1.39-2.64l8.84-6.3-14.02,7.67c-1.67.9-3.79.34-4.73-1.24-.84-1.42-.47-3.22.89-4.22l17.25-12.52-20.06,10.99c-1.68.88-3.79.3-4.71-1.29-.83-1.43-.43-3.22.94-4.22l40.63-28.22-38.67,21.19c-1.68.88-3.79.3-4.71-1.29-.84-1.44-.42-3.25.97-4.24l33.89-22.93-21.65,11.86c-1.67.9-3.79.35-4.73-1.23-.85-1.43-.47-3.24.91-4.24l38.98-28.12-16.51,9.08c-1.67.9-3.79.33-4.72-1.25-.83-1.4-.47-3.17.84-4.18l36.66-27.38c-.34-.26-.63-.58-.84-.94-.96-1.57-.38-3.58,1.27-4.49l26-14.25c1.67-.9,3.79-.33,4.72,1.25.83,1.4.47,3.17-.84,4.18l-24.54,18.33,22.14-12.13c1.66-.92,3.77-.38,4.74,1.19.88,1.44.49,3.27-.91,4.28l-38.98,28.12,36.83-20.2c1.67-.91,3.79-.35,4.73,1.22.87,1.46.45,3.32-.99,4.31l-33.87,22.89,31.48-17.26c1.67-.9,3.79-.34,4.73,1.25.85,1.44.45,3.26-.95,4.26l-40.64,28.23,11.1-6.1c1.66-.91,3.79-.37,4.74,1.2.87,1.43.49,3.25-.89,4.26l-17.29,12.52,17.21-9.43c1.66-.91,3.79-.37,4.74,1.2.87,1.44.48,3.28-.93,4.28l-26.62,19.01c.19.18.34.38.47.6.96,1.57.39,3.59-1.27,4.5l-27.79,15.25c-.52.29-1.12.45-1.74.45l-.03.02Z"/>
        <path class="cls-6" d="m408.68,508.97c-1.91,0-3.47-1.48-3.47-3.3,0-.87.37-1.7,1.01-2.32l4.3-4.08-12.31,6.74c-1.53.85-3.5.45-4.54-.91-1.05-1.36-.84-3.25.48-4.39l8.1-6.94-10.69,5.85c-1.67.9-3.79.34-4.73-1.24-.74-1.25-.55-2.82.48-3.86l16.28-16.29-17.93,9.83c-1.66.92-3.77.4-4.75-1.17-.97-1.57-.41-3.58,1.23-4.51.01,0,.03,0,.04-.02l38.65-21.19c1.67-.9,3.79-.34,4.73,1.24.74,1.25.55,2.82-.48,3.86l-16.27,16.29,18.41-10.1c1.69-.87,3.79-.28,4.7,1.32.75,1.3.48,2.92-.65,3.95l-8.12,6.96,6.7-3.67c1.68-.88,3.79-.3,4.71,1.3.73,1.26.51,2.84-.55,3.88l-5.6,5.32c1.91,0,3.46,1.5,3.45,3.32,0,1.16-.67,2.24-1.74,2.83l-19.78,10.85c-.51.3-1.11.46-1.72.47l.02-.02Z"/>
        <path class="cls-6" d="m365.2,501.94c-1.91,0-3.47-1.47-3.47-3.29,0-1.04.51-2.01,1.39-2.64l12.54-9.13-16.19,8.88c-1.67.89-3.79.33-4.72-1.26-.85-1.44-.44-3.27.97-4.26l1.72-1.17c-1.65.94-3.77.43-4.76-1.13-.88-1.41-.55-3.22.8-4.26l24.5-20.24-18.89,10.35c-1.65.93-3.77.41-4.75-1.15-.89-1.44-.51-3.3.91-4.31l5.62-4.1c-1.9.17-3.6-1.15-3.79-2.97-.1-1.05.32-2.08,1.15-2.78l9.87-8.31-5,2.74c-1.66.92-3.77.38-4.74-1.19-.75-1.22-.6-2.76.38-3.82l11.7-12.8-17.05,9.35c-1.67.9-3.79.33-4.72-1.25-.76-1.28-.53-2.89.57-3.93l8.39-7.9-12.81,7.03c-1.66.91-3.79.36-4.74-1.21-.75-1.24-.58-2.8.44-3.86l10.94-11.39-12.31,6.75c-1.66.91-3.79.37-4.74-1.2-.82-1.35-.53-3.07.69-4.1l2.97-2.52c-1.9-.19-3.29-1.8-3.1-3.61.07-.67.35-1.28.8-1.79l4.28-4.77c-.87.07-1.75-.16-2.45-.66-1.11-.79-1.63-2.12-1.31-3.39l2.69-11.03c-.23-.22-.43-.46-.6-.73-.96-1.57-.38-3.59,1.28-4.5h0l2.02-1.08c1.2-.65,2.68-.57,3.81.21,1.11.78,1.63,2.11,1.31,3.38l-1.91,7.84,8.45-4.65c1.67-.91,3.79-.36,4.73,1.22.72,1.2.59,2.71-.36,3.76l-3.7,4.13,7.22-3.95c1.66-.91,3.79-.37,4.74,1.2.82,1.35.53,3.07-.69,4.1l-.59.5,2.69-1.47c1.66-.91,3.79-.36,4.74,1.21.75,1.24.58,2.8-.44,3.86l-10.94,11.38,16.36-8.97c1.68-.89,3.79-.31,4.72,1.28.75,1.27.52,2.87-.56,3.9l-8.36,7.94,11.99-6.59c1.66-.92,3.77-.38,4.74,1.19.75,1.22.6,2.76-.38,3.82l-11.7,12.8,16.65-9.13c1.66-.92,3.79-.37,4.74,1.2.82,1.35.53,3.08-.7,4.11l-9.85,8.31,12.4-6.8c1.67-.9,3.79-.33,4.72,1.25.84,1.41.46,3.21-.88,4.21l-3.72,2.73,4.81-2.64c1.67-.91,3.79-.36,4.73,1.22.82,1.36.51,3.09-.72,4.12l-24.5,20.23,28.45-15.59c1.67-.89,3.79-.33,4.72,1.26.85,1.44.44,3.27-.97,4.26l-1.7,1.16,1.93-1.07c1.67-.91,3.79-.36,4.73,1.21.86,1.42.48,3.23-.88,4.24l-35.88,26.19c.7,1.53.07,3.32-1.45,4.16l-17.22,9.45c-.53.3-1.15.46-1.77.46l-.02-.02Z"/>
        <path class="cls-1" d="m362.54,295.6c-1.91,0-3.47-1.47-3.47-3.29,0-1.17.66-2.27,1.74-2.86l42.04-23.06c1.61-.98,3.76-.53,4.79,1.02,1.03,1.53.56,3.57-1.07,4.55-.08.05-.16.1-.26.14l-42.04,23.06c-.52.29-1.12.45-1.74.45h0Z"/>
        <path class="cls-1" d="m254.13,370.74c-1.91,0-3.47-1.48-3.47-3.3,0-1.06.53-2.05,1.44-2.67l42.2-28.71-60.58,33.22c-1.69.86-3.8.26-4.7-1.34-.83-1.47-.37-3.3,1.08-4.26l86.21-53.37-101.63,55.74c-1.66.92-3.77.4-4.75-1.17-.95-1.53-.44-3.5,1.14-4.45l102.41-62.43-114.76,62.92c-1.66.91-3.79.37-4.74-1.2-.94-1.53-.42-3.49,1.16-4.44l83.26-49.48-90.79,49.8c-1.68.88-3.79.3-4.71-1.29-.88-1.52-.37-3.43,1.17-4.37l29.91-17.38-33.65,18.45c-1.65.93-3.77.42-4.75-1.15-.98-1.56-.43-3.58,1.21-4.52h0l33.36-19.34-36.29,19.89c-1.69.86-3.8.25-4.69-1.35-.84-1.5-.35-3.37,1.15-4.31l37.96-22.02-40.14,22.01c-1.7.85-3.8.24-4.69-1.37-.82-1.47-.35-3.3,1.1-4.25l124.2-74.73-128.19,70.28c-1.66.92-3.77.4-4.75-1.17-.95-1.53-.44-3.5,1.14-4.45l120.3-73.41-122.49,67.18c-1.69.86-3.8.25-4.69-1.35-.83-1.48-.36-3.33,1.11-4.28l74.35-44.56-73.76,40.42c-1.64.95-3.77.46-4.77-1.09s-.48-3.58,1.15-4.53l70.77-43.22-69.18,37.93c-1.68.89-3.79.32-4.72-1.26-.88-1.5-.4-3.4,1.12-4.36l27.37-16.52-34.21,18.75c-1.68.89-3.79.33-4.72-1.26-.89-1.51-.39-3.43,1.14-4.38l10.34-6.17-15.4,8.43c-1.64.96-3.76.47-4.77-1.08s-.49-3.58,1.14-4.53l57.81-35.8-65.44,35.88c-1.68.89-3.79.32-4.72-1.26-.87-1.49-.41-3.37,1.08-4.33l62.31-38.88-69.25,37.93c-1.67.9-3.79.33-4.72-1.25-.87-1.48-.42-3.34,1.04-4.32l74.57-48.11-82.06,44.98c-1.64.96-3.77.47-4.77-1.08s-.49-3.58,1.14-4.53l33.23-20.42-36.25,19.84c-1.67.91-3.79.36-4.73-1.21-.88-1.46-.46-3.31.97-4.3l40.78-28.04-45.05,24.69c-1.67.9-3.79.35-4.73-1.23-.86-1.45-.46-3.28.96-4.28l35.19-24.24-38.16,20.92c-1.67.91-3.79.36-4.73-1.22-.86-1.43-.47-3.26.92-4.26l33.81-24.12-36.18,19.84c-1.67.91-3.79.35-4.73-1.23-.84-1.4-.48-3.19.84-4.2l30.22-22.71-31.95,17.51c-1.67.91-3.79.36-4.73-1.22-.82-1.36-.51-3.09.72-4.12l24.84-20.55-25.9,14.2c-1.68.89-3.79.31-4.72-1.28-.75-1.27-.52-2.87.56-3.9l16.19-15.36-16.09,8.8c-1.66.92-3.79.38-4.74-1.2-.77-1.26-.58-2.86.48-3.91l5.83-5.85-4.06,2.23c-1.67.91-3.79.36-4.73-1.22-.69-1.13-.6-2.55.23-3.6l2.48-3.15c-1.84-.52-2.88-2.35-2.33-4.1.26-.81.82-1.49,1.58-1.91l10.32-5.62c1.66-.92,3.79-.38,4.74,1.2.7,1.14.61,2.57-.23,3.62l-.84,1.05,10-5.48c1.66-.92,3.79-.37,4.74,1.2.77,1.26.58,2.86-.48,3.92l-5.8,5.85,18.4-10.1c1.68-.89,3.79-.31,4.72,1.28.75,1.27.52,2.87-.56,3.9l-16.19,15.35,33.99-18.62c1.67-.91,3.79-.36,4.73,1.22.82,1.36.51,3.09-.72,4.12l-24.84,20.55,41.98-23.02c1.67-.91,3.79-.35,4.73,1.23.84,1.4.48,3.19-.84,4.2l-30.24,22.72,44.84-24.59c1.67-.91,3.79-.36,4.73,1.22.86,1.43.47,3.26-.92,4.26l-33.79,24.11,46.23-25.36c1.67-.9,3.79-.35,4.73,1.23.86,1.45.46,3.29-.96,4.28l-35.21,24.26,45.45-24.93c1.69-.88,3.79-.28,4.71,1.31.82,1.43.42,3.22-.95,4.2l-40.75,28.04,94.4-51.75c1.68-.89,3.79-.32,4.72,1.27.88,1.5.4,3.39-1.1,4.35l-33.2,20.42,47.7-26.14c1.66-.92,3.79-.38,4.74,1.19.92,1.49.45,3.4-1.05,4.38l-74.59,48.14,91.04-49.92c1.67-.9,3.79-.35,4.73,1.23.91,1.5.42,3.41-1.09,4.37l-62.29,38.88,72-39.44c1.66-.92,3.77-.38,4.74,1.19.93,1.52.44,3.46-1.11,4.42l-57.83,35.78,65.02-35.64c1.68-.89,3.79-.33,4.72,1.26.89,1.51.39,3.43-1.14,4.38l-10.33,6.17,13.46-7.39c1.69-.87,3.79-.27,4.7,1.32.85,1.49.37,3.35-1.11,4.3l-27.3,16.48,55.87-30.63c1.68-.88,3.79-.3,4.71,1.3.86,1.49.39,3.37-1.1,4.32l-70.74,43.22,100.45-55.11c1.68-.88,3.79-.3,4.71,1.3.87,1.5.38,3.38-1.12,4.33l-74.31,44.56,96.62-52.97c1.68-.88,3.79-.3,4.71,1.3.86,1.49.39,3.37-1.1,4.32l-120.41,73.45,147.2-80.7c1.7-.85,3.8-.24,4.69,1.37.82,1.47.35,3.3-1.1,4.25l-124.1,74.68,138.24-75.78c1.65-.93,3.77-.42,4.75,1.15s.43,3.58-1.21,4.52h0l-38.16,22.15,36.28-19.89c1.69-.86,3.8-.25,4.69,1.35.84,1.5.35,3.37-1.15,4.31l-33.22,19.24,26.76-14.67c1.67-.9,3.79-.35,4.73,1.23.93,1.54.4,3.5-1.19,4.44l-29.94,17.38,22.74-12.46c1.68-.89,3.79-.33,4.72,1.26.89,1.51.39,3.43-1.14,4.38l-83.26,49.47,73.11-40.07c1.67-.9,3.79-.35,4.73,1.23.91,1.51.42,3.43-1.12,4.39l-102.36,62.42,85.89-47.1c1.68-.88,3.79-.3,4.71,1.29.86,1.48.39,3.35-1.08,4.31l-86.26,53.37,10.49-5.74c1.67-.9,3.79-.34,4.73,1.24.86,1.45.45,3.29-.98,4.28l-42.2,28.68,34.47-18.89c1.67-.9,3.79-.33,4.72,1.25.83,1.4.47,3.17-.84,4.18l-28.78,21.61,14.03-7.67c1.67-.9,3.79-.35,4.73,1.23.94,1.56.38,3.56-1.27,4.47l-55.27,30.31c-1.67.91-3.79.36-4.73-1.22-.85-1.41-.49-3.21.85-4.21l28.77-21.59-54.72,30.01c-.53.28-1.13.42-1.74.41v-.02Z"/>
        <path class="cls-15" d="m356.96,269.88c-1.91,0-3.47-1.47-3.47-3.29,0-1.04.51-2.01,1.39-2.64l4.38-3.14-9.63,5.28c-1.68.89-3.79.31-4.72-1.27-.84-1.44-.44-3.24.95-4.24l14.04-9.67-12.49,6.83c-1.66.92-3.77.38-4.74-1.19-.86-1.41-.5-3.22.84-4.24l30.06-22.8-30.77,16.87c-1.66.92-3.77.39-4.74-1.18-.8-1.31-.57-2.98.59-4.03l18.53-17.13-20.84,11.48c-1.66.92-3.79.37-4.74-1.2-.35-.57-.5-1.22-.45-1.89l.69-8.94-3.75,2.06c-1.61.98-3.76.53-4.79-1.02-1.03-1.53-.56-3.57,1.07-4.55.08-.05.16-.1.26-.14l9.41-5.18c1.66-.92,3.79-.37,4.74,1.2.35.57.5,1.22.45,1.89l-.69,8.94,39.35-21.58c1.66-.92,3.77-.39,4.74,1.18.8,1.31.57,2.98-.59,4.03l-18.52,17.13,46.49-25.49c1.67-.9,3.79-.35,4.73,1.23.83,1.4.48,3.17-.83,4.18l-30.1,22.79,30.13-16.51c1.67-.9,3.79-.35,4.73,1.23.86,1.45.46,3.28-.96,4.28l-14.05,9.68.69-.38c1.66-.92,3.77-.4,4.75,1.17.89,1.44.49,3.3-.92,4.31l-17.34,12.41c1.57,1.05,1.95,3.1.86,4.59-.29.4-.67.73-1.11.97l-31.92,17.52c-.52.29-1.12.44-1.72.44h-.01Z"/>
        <path class="cls-15" d="m147.39,270.34c-1.91,0-3.47-1.47-3.47-3.29,0-.68.22-1.33.63-1.89l1.58-2.15-6.28,3.44c-1.67.91-3.79.35-4.73-1.22-.76-1.26-.56-2.86.5-3.91l10.33-10.11-17.42,9.57c-1.66.91-3.79.37-4.74-1.2-.83-1.37-.52-3.12.75-4.15l18.36-14.92-24.57,13.48c-1.65.93-3.77.4-4.75-1.16-.83-1.34-.57-3.06.65-4.1l18.85-16.72-24.54,13.48c-1.66.92-3.77.39-4.74-1.18-.8-1.31-.57-2.98.59-4.03l14.33-13.25-17.99,9.88c-1.65.93-3.77.41-4.75-1.15-.82-1.32-.58-3.01.59-4.06l7.5-6.89-8.8,4.82c-1.67.91-3.79.35-4.73-1.23-.74-1.23-.57-2.78.43-3.83l4.34-4.55-4.57,2.51c-1.66.93-3.77.4-4.75-1.16-.49-.8-.61-1.74-.33-2.63l2.16-6.88-.52.29c-1.61.98-3.76.53-4.79-1.02-1.03-1.53-.56-3.57,1.07-4.55.08-.05.16-.1.26-.14l8.09-4.44c1.66-.91,3.79-.37,4.74,1.2.47.79.6,1.72.32,2.59l-2.14,6.87,16.16-8.86c1.66-.91,3.79-.37,4.74,1.21.75,1.23.58,2.8-.43,3.85l-4.34,4.55,14.13-7.76c1.65-.93,3.77-.41,4.75,1.15.82,1.32.58,3.01-.59,4.06l-7.52,6.89,17.58-9.64c1.66-.92,3.77-.39,4.74,1.18.8,1.31.57,2.98-.59,4.03l-14.34,13.25,26.78-14.67c1.66-.92,3.79-.38,4.74,1.19.81,1.33.55,3.03-.65,4.08l-18.86,16.72,30.83-16.91c1.66-.91,3.79-.37,4.74,1.2.83,1.37.52,3.12-.75,4.15l-18.34,14.89,6.42-3.51c1.66-.91,3.79-.37,4.74,1.2.77,1.27.57,2.88-.5,3.93l-10.89,10.66c1.89-.31,3.68.91,4,2.7.15.86-.05,1.73-.58,2.44l-3.93,5.33c1.67.91,2.24,2.92,1.29,4.5-.31.51-.75.94-1.29,1.22l-7.76,4.24c-.52.29-1.12.44-1.73.44h0Z"/>
        <path class="cls-10" d="m292.4,297.85c-1.91,0-3.47-1.47-3.47-3.29,0-.66.21-1.3.6-1.84l3.38-4.77-11.54,6.33c-1.66.92-3.77.39-4.74-1.18-.8-1.31-.57-2.98.59-4.03l7.06-6.53-17.56,9.63c-1.66.91-3.79.37-4.74-1.21-.83-1.37-.52-3.11.74-4.14l13.45-11.01-28.93,15.86c-1.67.9-3.79.35-4.73-1.23-.85-1.43-.47-3.24.91-4.24l14.18-10.19-33.93,18.6c-1.67.91-3.79.35-4.73-1.23-.89-1.49-.43-3.38,1.06-4.35l.16-.11-11.98,6.59c-1.67.91-3.79.35-4.73-1.23-.89-1.49-.43-3.38,1.06-4.35l12.09-7.78-12.57,6.89c-1.66.92-3.79.38-4.74-1.19-.92-1.49-.45-3.4,1.05-4.38l14.57-9.46-14.12,7.74c-1.66.91-3.79.37-4.74-1.2-.89-1.47-.46-3.35,1-4.33l24.79-16.64-23.34,12.79c-1.67.9-3.79.35-4.73-1.23-.86-1.44-.46-3.26.93-4.26l29.14-20.48-25.67,14.07c-1.67.9-3.79.34-4.73-1.24-.83-1.4-.47-3.19.85-4.19l24.6-18.28-17.2,9.43c-1.68.88-3.79.3-4.71-1.29-.76-1.31-.49-2.95.65-3.97l14.92-12.86c-1.9-.18-3.3-1.79-3.11-3.6.11-1.06.75-2,1.72-2.53l23.72-13.01c1.68-.88,3.79-.3,4.71,1.29.76,1.31.49,2.95-.65,3.97l-12.64,10.91,31.92-17.52c1.67-.9,3.79-.35,4.73,1.23.84,1.41.47,3.21-.86,4.21l-24.61,18.32,35.54-19.51c1.68-.89,3.79-.32,4.72,1.27.83,1.43.44,3.22-.93,4.22l-29.09,20.47,35.98-19.72c1.66-.91,3.79-.37,4.74,1.2.89,1.47.46,3.35-1,4.33l-24.79,16.64,28.45-15.6c1.66-.92,3.79-.38,4.74,1.19.92,1.49.45,3.4-1.05,4.38l-14.57,9.46,15.96-8.74c1.67-.91,3.79-.35,4.73,1.23.89,1.49.43,3.38-1.06,4.35l-12.04,7.76,12.26-6.74c1.67-.91,3.79-.35,4.73,1.23.89,1.49.43,3.38-1.06,4.35l-.69.45c1.79-.64,3.8.22,4.46,1.92.53,1.36.07,2.9-1.14,3.77l-14.22,10.22,12.44-6.81c1.66-.92,3.77-.39,4.74,1.17.85,1.37.53,3.14-.74,4.17l-13.43,10.99,9.71-5.31c1.66-.92,3.77-.39,4.74,1.18.8,1.31.57,2.98-.59,4.03l-7.11,6.54.57-.31c1.4-.77,3.17-.52,4.28.61,1.1,1.12,1.24,2.82.33,4.09l-7.28,10.24c.08.1.15.21.23.32.96,1.57.39,3.59-1.27,4.5l-4.62,2.55c-.52.28-1.12.42-1.72.41h-.01Z"/>
        <path class="cls-1" d="m249.12,509.07c-1.91.02-3.49-1.43-3.51-3.25-.01-1.06.5-2.04,1.39-2.68l40.94-29.93-57.87,31.72c-1.68.89-3.79.32-4.72-1.26-.87-1.49-.41-3.37,1.08-4.33l9.65-6.04-14.82,8.15c-1.67.91-3.79.36-4.73-1.21-.89-1.47-.45-3.35,1.02-4.34l52.13-34.46-60.36,33.08c-1.67.91-3.79.36-4.73-1.21-.89-1.47-.45-3.35,1.02-4.34l66.61-44.08-73.97,40.54c-1.69.87-3.8.27-4.7-1.33-.83-1.46-.39-3.28,1.04-4.25l58.58-37.3-62.72,34.4c-1.67.89-3.79.33-4.72-1.26-.87-1.48-.42-3.36,1.06-4.32l61.48-39.1-64.61,35.43c-1.64.96-3.76.47-4.77-1.08s-.49-3.58,1.14-4.53l41.88-25.96-43.08,23.62c-1.71.83-3.8.17-4.66-1.45-.77-1.43-.33-3.2,1.04-4.14l50.13-31.7-51.03,27.97c-1.65.94-3.77.43-4.76-1.13-.97-1.53-.47-3.51,1.12-4.47l29.23-18.28-28.82,15.82c-1.67.9-3.79.34-4.73-1.25-.85-1.44-.45-3.26.95-4.26l51.34-35.67-51.42,28.19c-1.66.91-3.79.37-4.74-1.2-.87-1.44-.48-3.28.93-4.28l35.64-25.29-34.25,18.71c-1.67.9-3.79.34-4.72-1.25-.81-1.37-.49-3.11.77-4.12l27.82-22.08-25.21,13.84c-1.67.9-3.79.34-4.73-1.24-.84-1.42-.47-3.22.89-4.22l2.87-2.08c-1.85.45-3.74-.61-4.22-2.38-.29-1.06,0-2.17.75-2.99l9.37-10.12c-1.4.18-2.77-.46-3.47-1.61-.96-1.57-.39-3.59,1.27-4.5l16.49-9.04c1.67-.91,3.79-.36,4.73,1.22.74,1.22.58,2.75-.4,3.81l-8.85,9.57,27.35-15c1.67-.9,3.79-.34,4.73,1.24.84,1.42.47,3.22-.89,4.22l-2.08,1.51,12.73-6.98c1.67-.9,3.79-.33,4.72,1.25.81,1.37.49,3.11-.77,4.12l-27.82,22.08,50.07-27.45c1.66-.91,3.79-.37,4.74,1.2.87,1.44.48,3.28-.93,4.28l-35.64,25.3,56.16-30.79c1.67-.9,3.79-.34,4.73,1.25.85,1.44.45,3.26-.95,4.26l-51.34,35.68,75.16-41.2c1.68-.89,3.79-.32,4.72,1.26.87,1.49.41,3.37-1.08,4.33l-29.2,18.25,43.15-23.65c1.68-.88,3.79-.29,4.71,1.31.84,1.47.39,3.31-1.05,4.27l-50.1,31.69,59.17-32.45c1.66-.92,3.77-.38,4.74,1.19.93,1.52.44,3.46-1.11,4.42l-41.92,25.98,45.1-24.73c1.66-.92,3.79-.38,4.74,1.19.92,1.5.45,3.42-1.07,4.39l-61.48,39.1,62.05-34.03c1.67-.89,3.79-.33,4.72,1.26.87,1.48.42,3.36-1.06,4.32l-58.59,37.3,54.81-30.07c1.67-.91,3.79-.36,4.73,1.21.89,1.47.45,3.35-1.02,4.34l-66.61,44.07,60.85-33.36c1.68-.89,3.79-.32,4.72,1.26.86,1.46.43,3.3-1.01,4.29l-52.07,34.46,44.45-24.38c1.69-.87,3.8-.26,4.7,1.33.83,1.46.38,3.29-1.06,4.26l-9.71,6.09,2.23-1.22c1.64-.95,3.77-.45,4.76,1.1.94,1.46.53,3.35-.91,4.36l-40.94,29.93,25.26-13.84c1.67-.9,3.79-.35,4.73,1.23.83,1.4.48,3.17-.83,4.18l-18.54,14.09c1.74.76,2.5,2.72,1.7,4.37-.3.62-.79,1.13-1.42,1.47l-28.86,15.82c-1.67.9-3.79.35-4.73-1.23-.83-1.4-.48-3.17.83-4.18l10.94-8.32-30.69,16.85c-.52.29-1.12.45-1.74.44h-.03Z"/>
        <path class="cls-11" d="m249.52,291.62c-1.91,0-3.47-1.47-3.47-3.29,0-.89.37-1.73,1.04-2.35l9.83-9.16-18.7,10.25c-1.67.91-3.79.36-4.73-1.22-.83-1.37-.5-3.12.76-4.14l9.44-7.57-12.41,6.81c-1.67.91-3.79.36-4.73-1.22-.82-1.36-.51-3.09.72-4.12l11.88-9.81-12.33,6.77c-1.66.92-3.79.37-4.74-1.2-.85-1.41-.5-3.21.83-4.22l2.97-2.27-.23.11c-1.66.92-3.79.38-4.74-1.19-.73-1.2-.6-2.72.36-3.78l10.07-11.3c-1.82.57-3.79-.38-4.38-2.1-.51-1.48.14-3.1,1.56-3.88l16.49-9.04c1.66-.92,3.79-.38,4.74,1.19.73,1.2.6,2.72-.36,3.78l-9.95,11.15,21.95-12.02c1.67-.9,3.79-.34,4.73,1.24.83,1.39.48,3.16-.82,4.17l-2.94,2.25,4.51-2.47c1.67-.91,3.79-.36,4.73,1.22.82,1.36.51,3.09-.72,4.12l-11.88,9.81,15.09-8.27c1.67-.91,3.79-.36,4.73,1.22.83,1.37.5,3.12-.76,4.14l-9.45,7.57,8.59-4.71c1.66-.91,3.79-.37,4.74,1.2.79,1.3.56,2.95-.58,4l-9.83,9.16,2.99-1.64c1.61-.98,3.76-.53,4.79,1.02,1.03,1.53.56,3.57-1.07,4.55-.08.05-.16.1-.26.14l-26.72,14.67c-.52.29-1.12.45-1.74.44h-.01Z"/>
        <path class="cls-10" d="m258.44,263.54c-1.91,0-3.47-1.47-3.47-3.29,0-.72.25-1.4.69-1.98l5.93-7.4-7.76,4.24c-1.66.91-3.79.37-4.74-1.2-.7-1.15-.61-2.6.25-3.65l3.69-4.57c-1.89-.31-3.15-2.02-2.82-3.81.17-.96.79-1.79,1.68-2.28l11.52-6.31c1.67-.91,3.79-.36,4.73,1.22.69,1.14.6,2.58-.25,3.63l-2.42,2.98,7.63-4.17c1.66-.92,3.79-.38,4.74,1.2.7,1.15.61,2.59-.25,3.65l-5.93,7.4,5.6-3.07c1.7-.85,3.8-.22,4.68,1.39.83,1.51.31,3.38-1.21,4.31l-20.56,11.28c-.53.3-1.13.45-1.75.44h.01Z"/>
        <path class="cls-3" d="m455.99,187.93c-9.29-37.55-105.61-1.46-132.82,2.33-18.5,2.27-38.2-14.02-58.73-16.28-19.5-1.8-39.15,1.4-56.9,9.28-9.12,3.72-14.27,8.6-24.09,7.63-27.37-8.73-55.8-14.09-84.61-15.96-11.95-.93-35.62-6.76-46.21,1.75-22.82,18.32,19.43,73.02,33.25,86.91,13.43,13.37,29.77,23.79,47.88,30.55,10.88,6.42,10.2,11.14,15.26,22.73,9.9,21.17,28.3,37.72,51.08,46-19.07,1.17-35.95,6.75-40.85,25.47-38.51,20.14-69.73,50.82-89.59,88.07-12.1,29.28,37.94,47.44,48.84,17.18,3.38,7.81,12.81,11.54,21.03,8.32,2.78-1.08,5.17-2.89,6.93-5.2,9.52-11.2,3.55-31.16-3.4-43.33,5.87-6.33,12.72-11.78,20.33-16.13,4.86,14.32,12.42,27.7,22.33,39.46-4.18,14.79-6.46,30.02-6.79,45.33-25.07-3.48-41.63,36.32-11.72,40.5,12.33,0,27.02,2.33,39.08-.38,22.51-7.64,13.29-38.65,21.93-55.88,14.82,4.73,30.84,4.89,45.75.46,8.32,17.23-1.39,49.08,23.03,54.74,13.18,1.1,26.42,1.08,39.6-.07,29.59-6.38,13.55-40.91-11.72-38.48-.31-16.08-2.67-32.05-7.07-47.58,8.88-11.83,15.65-24.98,20.05-38.91,8.24,4.61,15.67,10.4,22.05,17.17-6.9,12.19-12.8,32.4-3.25,43.49,9.36,10.87,22.36,6.14,27.64-3.79,10.74,31.07,61.1,12.24,48.77-17.33-19.89-37.27-51.17-67.95-89.73-88.05-5.35-17.05-20.58-23.44-38.6-25.33,31.14-11.06,40.94-32.74,52.54-59.03,6-9.92,14-10.24,26.07-16.47,39.39-20.74,63.22-58.45,72.63-99.18h-.01ZM136.04,452.16c-1.1,1.07-1.21,2.75-.27,3.95,5.71,9.14,16.72,40.6-3.14,39.54-5.91-1.48-9.94-6.69-9.66-12.48-.15-1.9-1.25-2.48-2.54-2.28-1.21-.28-2.62.23-3.55,2.06-5.8,11.47-11.83,23.79-27.59,17.53-48.82-16.99,46.13-93.56,68.58-103.86-.86,11.56.34,23.16,3.55,34.33-9.74,5.55-18.35,12.74-25.4,21.2h.01Zm79.73,77.55c-1.83,34.76-19.72,23.77-46.57,25.29-6.35,0-11.5-4.87-11.51-10.9,0-1.3.25-2.6.72-3.82,3.01-9.27,13.66-11.46,22.66-10.67,2.45-.18,4.35-2.12,4.34-4.46.06-14.42,1.86-28.8,5.36-42.83,8.79,9.26,19.52,16.68,31.5,21.79-2.9,8.35-5.07,16.91-6.51,25.6h.01Zm100.9-3.75c1.74,5.28,10.26,1.53,14.79,4.29,3.83-.2,7.33,2.02,8.6,5.44,6.94,6.15,4.81,12.86-6.39,20.15-59.88,5.28-36.84-11.11-52.07-51.77,11.41-4.86,21.55-12.02,29.72-21,3.41,14.07,5.21,28.46,5.35,42.9h0Zm110.56-47.71c4.24,10.75-3.7,18.54-13.65,22.22-15.96,5.93-21.91-6.33-27.75-17.97-.95-1.88-2.24-2.22-3.33-1.75-1.19-.03-2.23.72-2.38,2.68.27,5.62-3.72,10.63-9.49,11.9-20.08,1.41-9.81-29.76-3.71-38.94.92-1.45.82-3.29-.23-4.67-7.44-8.83-16.52-16.29-26.79-22.01,2.96-10.8,4.59-21.89,4.85-33.06,35.2,19.07,63.85,47.4,82.49,81.57h0v.02Zm-88.71-83.54c1.95,75.46-78.86,151.09-145.95,78.61-.16-.58-.6-1.07-1.17-1.31-9.76-11.83-17.19-25.25-21.9-39.61.73-1.58.11-3.43-1.44-4.32-14.81-44.73,10.95-63.07,56.53-58.14,34.7,10.73,100.81-18.41,113.94,24.76h-.01Zm16.65-103.29c-2.08.4-3.69,1.97-4.06,3.95-5.67,36.66-34.14,58.65-67.89,66.64-56.01,8.41-121.42-7.64-131.49-68.86-35.37-12.21-66.79-33.66-83.39-67.5-40.08-75.61,77.91-34.19,113.21-27.54,20.21,1.72,20.01-9.55,47.31-15.78,32.2-7.44,56.7,3.71,83.51,18.45,18.13-1.19,132.86-43.49,136.11-10.54-13.36,46.62-42.37,87.56-93.31,101.21v-.03h.01Z"/>
        <path class="cls-3" d="m322.76,218.78c-1.51.66-3.01,2.54-1.58,4.02,12.53,12.85,20.67,29,23.35,46.32.48,2.13,2.71,3.48,4.95,3.03.08-.02.16-.04.26-.06,32-8.29,58.37-29.83,71.78-58.65,3.62-26.56-83.18-1.19-98.75,5.33h0Zm29.23,46.12c-3.04-15.62-10.35-30.21-21.18-42.32,18.37-5.54,82.44-19.94,82.31-9.16-12.34,24.21-34.34,42.74-61.14,51.47h0Z"/>
        <path class="cls-3" d="m178.47,217.63c-16.6-6.46-33.99-10.89-51.77-13.18-11.8-1.78-48.36-12.35-44.25,9.49,13.42,28.76,39.61,50.36,71.46,58.96,2.04.52,3.27-.86,3.56-2.64,2.56-17.02,10.49-32.9,22.75-45.55,1.69-1.94,1.4-4.83-.65-6.43-.34-.26-.71-.48-1.1-.65h-.01Zm-26.74,46.94c-27.43-8.22-50.13-26.73-62.83-51.24,1.59-8.33,61.32,3.7,82.65,9.71-10.16,12.05-16.97,26.33-19.82,41.53Z"/>
        <path class="cls-3" d="m300.55,293.41c24.02-36.83-.48-86.58-48.9-86.82-48.75-.24-73.99,50.46-48.75,87.46-3.33,1.63-6.48,3.57-9.41,5.8-4.22,3.29,1.32,6.73,4.94,3.87,2.91-2.22,6.09-4.1,9.47-5.61,1.75.28,3.5-.44,4.48-1.83,9.07-3.24,18.61-5.19,28.28-5.76,6.36,2,13.22,2.01,19.58.04,15.65.51,30.83,5.32,43.67,13.84,3.05,2.41,9.52-2.52,6.1-5.21-2.94-2.24-6.12-4.18-9.47-5.79h0Zm-90.65-2.45c-19.91-30.4-4.64-74.08,36.44-78.19,45.83-4.61,68.61,44,47.01,77.52-7.2-2.6-14.69-4.4-22.31-5.37,9.24-7.65,13.28-19.53,10.48-30.87,2.97-8.84-2.17-18.27-11.47-21.1-3.95-1.19-8.21-1.04-12.04.45-30.19-7.16-51.61,33.53-26.91,52.06-7.25,1.1-14.37,2.96-21.21,5.5h0Zm35.51-7.06c-26.14-6.24-22.65-45.59,5.62-44.09-8.72,13.84,8.24,35.06,24.59,22.68.41,9.77-6.22,18.56-16.1,21.35-4.7-.21-9.41-.19-14.11.07h0Zm19.94-25.59c-5.37,0-9.71-4.13-9.71-9.23s4.35-9.23,9.71-9.23h0c5.37,0,9.71,4.13,9.71,9.23s-4.35,9.23-9.71,9.23Z"/>
        <path class="cls-3" d="m250.08,318.61c-9.62.23-22.14,1.31-29.62,7.94-3.75,3.33,3.64,5.77,6.55,3.19,11.16-7.67,38.04-7.29,48.95.46,2.87,2.54,10.07-.99,6.56-4.1-7.95-7.05-22.42-7.73-32.44-7.5h0Z"/>
      </g>
    </g>
  </g>
  <g id="Capa_3" data-name="Capa 3">
    <g id="Capa_1-2" data-name="Capa 1">
      <g>
        <g>
          <g>
            <path class="cls-5" d="m311.27,20.77s-1.83,1.17-4.61,3.6c-2.79,2.43-6.49,6.19-10.19,11.56-3.7,5.32-7.35,12.12-10.19,20.48-2.84,8.31-4.77,18.15-5.48,29.56-.66,11.41,0,23.83,1.01,36,1.01,12.17,2.33,24.08,3.45,34.53,1.12,10.39,1.98,19.52,2.53,26.01.56,6.44.86,10.29.86,10.29,0,0,1.32-3.65,3.5-9.73,2.23-6.13,5.42-14.6,9.18-24.44,3.75-9.84,8.11-21.04,12.27-32.5,4.11-11.51,7.96-23.17,10.29-34.43,2.28-11.2,2.99-21.34,2.38-30.07-.56-8.77-2.38-16.27-4.56-22.36-2.18-6.13-4.82-10.8-6.9-13.84-2.08-3.09-3.55-4.66-3.55-4.66Z"/>
            <path class="cls-4" d="m325.92,78.67c-6.49,5.68-12.12,10.8-16.38,14.7-4.31,3.95-7.35,7-8.87,8.37-1.06-1.77-3.35-5.37-6.39-10.39-3.14-4.87-7.2-11.15-12.02-18.4-.15,1.17-.35,2.33-.51,3.5,5.42,8.21,9.84,14.96,12.88,19.77,3.04,4.87,4.82,7.76,4.82,7.81l.71,1.17,1.01-.96s2.54-2.38,6.69-6.29c4.21-3.8,10.24-9.33,17.59-15.77.15-1.22.3-2.38.41-3.55l.05.05Z"/>
            <path class="cls-13" d="m286.93,206.03s1.01-3.09,2.59-9.43c1.57-6.34,3.7-15.92,5.73-29,1.98-13.08,3.4-28.24,4.06-40.21.66-11.97.71-20.69.71-20.69,0,0-2.23,8.42-4.66,20.18-2.48,11.71-5.07,26.77-6.49,39.9s-1.83,22.97-1.98,29.46c-.1,6.54.05,9.73.05,9.73v.05Z"/>
            <path class="cls-9" d="m283.33,67.11c5.37,8.31,9.89,15.16,13.08,20.23,3.19,5.02,5.07,8.01,5.07,8.01,0,0,2.59-2.38,7-6.44,4.46-4.01,10.7-9.63,17.9-16.12.86-16.58-2.69-29.61-6.69-38.58-1.98-4.51-4.11-7.76-5.68-10.04-1.57-2.23-2.69-3.4-2.69-3.4,0,0-1.32.81-3.45,2.59-2.13,1.77-5.02,4.41-8.06,8.16-6.19,7.61-12.93,19.37-16.43,35.59h-.05Z"/>
            <path class="cls-12" d="m323.89,91.65c2.28-11.2,2.99-21.34,2.38-30.07-.56-8.77-2.38-16.27-4.56-22.36-2.18-6.13-4.82-10.8-6.9-13.84-2.08-3.09-3.55-4.66-3.55-4.66l-22.61,171.97s1.32-3.65,3.5-9.73c2.23-6.13,5.42-14.6,9.18-24.44,3.75-9.84,8.11-21.04,12.27-32.5,4.11-11.51,7.96-23.17,10.29-34.43v.05Z"/>
          </g>
          <g>
            <path class="cls-7" d="m372.92,51.8s-2.03.66-5.32,2.28c-3.3,1.67-7.76,4.31-12.62,8.42-4.87,4.16-10.09,9.73-14.86,16.98-4.77,7.25-9.13,16.12-12.57,26.82-3.5,10.7-5.93,22.66-8.01,34.53-2.08,11.81-3.8,23.47-5.37,33.72-1.57,10.24-3.04,19.16-4.11,25.45-1.06,6.24-1.72,9.99-1.72,9.99,0,0,2.18-3.14,5.78-8.42,3.6-5.17,8.77-12.47,14.86-20.94,6.03-8.42,13.03-18.1,19.82-27.89,6.74-9.84,13.38-20.08,18.4-30.17,5.02-10.09,8.16-19.52,9.84-28.04,1.67-8.57,1.83-16.07,1.27-22.41-.61-6.34-1.88-11.46-3.09-14.96-1.22-3.45-2.23-5.32-2.23-5.32l-.05-.05Z"/>
            <path class="cls-10" d="m372.31,110.71c-3.8,1.83-7.3,3.6-10.6,5.32-3.19,1.67-6.13,3.19-8.72,4.56-5.07,2.64-8.72,4.72-10.49,5.68-.61-1.93-1.83-5.93-3.5-11.46-1.72-5.58-4.11-12.42-6.84-20.53-.46,1.06-.91,2.13-1.37,3.19,1.52,4.51,2.94,8.67,4.21,12.42.61,1.83,1.17,3.55,1.72,5.17.51,1.62.96,3.14,1.42,4.51,1.67,5.37,2.64,8.57,2.69,8.62l.41,1.27,1.22-.66s.76-.41,2.13-1.17,3.3-1.77,5.78-3.09c2.54-1.32,5.53-2.89,8.97-4.72,1.77-.91,3.6-1.88,5.58-2.89,1.98-.96,4.01-1.98,6.13-2.99.46-1.12.86-2.18,1.27-3.24Z"/>
            <path class="cls-13" d="m303.31,222.15s1.72-2.69,4.82-8.37c3.09-5.68,7.5-14.25,12.67-26.16s10.34-26.11,13.94-37.32c3.65-11.2,5.83-19.47,5.83-19.47,0,0-4.26,7.45-9.48,18.05-5.27,10.55-11.51,24.23-16.17,36.4-4.66,12.17-7.5,21.4-9.23,27.58-1.72,6.19-2.38,9.28-2.38,9.28Z"/>
            <path class="cls-2" d="m334.64,88.96c3.04,9.23,5.68,16.83,7.45,22.51,1.77,5.53,2.84,8.82,2.84,8.82,0,0,.76-.41,2.18-1.17s3.5-1.88,6.03-3.19c2.59-1.37,5.73-2.99,9.23-4.82,3.55-1.88,7.55-3.95,11.81-6.08,5.02-15.72,4.92-28.95,3.3-38.43-1.57-9.53-4.61-14.91-4.61-14.91,0,0-5.98,1.83-13.69,7.4-7.76,5.58-17.24,15.21-24.59,29.76l.05.1Z"/>
            <path class="cls-12" d="m367.14,122.52c5.02-10.09,8.16-19.52,9.84-28.04,1.67-8.57,1.83-16.07,1.27-22.41-.61-6.34-1.88-11.46-3.09-14.96-1.22-3.45-2.23-5.32-2.23-5.32l-64.59,158.13s2.18-3.14,5.78-8.42c3.6-5.17,8.77-12.47,14.86-20.94,6.03-8.42,13.03-18.1,19.82-27.89,6.74-9.84,13.38-20.08,18.4-30.17h-.05Z"/>
          </g>
          <g>
            <path class="cls-5" d="m424.28,95.2s-1.98.1-5.27.81-7.96,2.03-13.23,4.51c-5.22,2.43-11.26,6.24-17.19,11.51-5.98,5.27-11.91,12.17-17.59,20.84-5.63,8.67-10.65,18.71-15.31,28.7-4.66,10.04-8.87,19.82-12.78,28.65-7.71,17.54-13.54,30.01-13.54,30.01,0,0,2.64-2.23,7.1-5.98,4.46-3.75,10.8-9.02,18.2-15.11,7.4-6.13,15.77-12.83,24.13-20.03,8.37-7.15,16.68-14.7,23.47-22.46,6.84-7.76,11.86-15.36,15.36-22.56,3.5-7.15,5.53-13.94,6.49-19.62.96-5.73,1.01-10.55.81-13.94-.2-3.4-.66-5.32-.66-5.32Z"/>
            <path class="cls-4" d="m409.67,147.31c-3.8.76-7.35,1.52-10.6,2.18-3.24.76-6.24,1.42-8.82,2.03-5.12,1.22-8.82,2.08-10.65,2.48-.1-1.88-.25-5.68-.46-10.9-.1-2.64-.2-5.73-.46-9.02-.25-3.35-.51-6.95-.76-10.85-.66.81-1.32,1.67-1.98,2.54.3,4.36.61,8.37.86,11.97.15,3.6.3,6.74.46,9.38.2,5.12.35,8.16.35,8.21v1.22l1.27-.25c.05,0,2.99-.71,8.01-1.88,2.53-.61,5.63-1.32,9.13-2.08,3.5-.71,7.45-1.52,11.71-2.43.66-.86,1.27-1.72,1.93-2.59Z"/>
            <path class="cls-13" d="m322.07,229.85s2.18-1.93,6.24-6.19c4.06-4.26,10.04-10.8,17.49-20.18,7.4-9.38,15.36-20.69,21.24-29.81,5.93-9.13,9.84-15.97,9.84-15.97,0,0-5.53,5.63-12.73,13.79-7.2,8.11-15.97,18.81-23.02,28.49-7,9.68-11.71,17.19-14.75,22.26-2.99,5.07-4.31,7.66-4.31,7.66v-.05Z"/>
            <path class="cls-9" d="m381.44,119.13c.25,4.36.56,8.47.76,12.12.2,3.65.35,6.9.46,9.63.3,5.32.46,8.47.46,8.47,0,0,3.09-.71,8.26-1.83,2.64-.61,5.83-1.32,9.38-2.13,3.6-.76,7.6-1.62,11.86-2.53,4.06-6.34,6.9-12.47,8.82-18.15s2.84-10.75,3.24-15.16c.41-4.36.25-7.96.05-10.44-.2-2.48-.56-3.9-.56-3.9,0,0-5.73.25-13.94,3.4-8.16,3.04-18.86,9.38-28.85,20.58l.05-.05Z"/>
            <path class="cls-12" d="m402.32,156.59c6.84-7.76,11.86-15.36,15.36-22.56,3.5-7.15,5.53-13.94,6.49-19.62.96-5.73,1.01-10.55.81-13.94-.2-3.4-.66-5.32-.66-5.32l-94.86,125.03s2.64-2.23,7.1-5.98c4.46-3.75,10.8-9.02,18.2-15.11,7.4-6.13,15.77-12.83,24.13-20.03,8.37-7.15,16.68-14.7,23.47-22.46h-.05Z"/>
          </g>
          <g>
            <path class="cls-7" d="m458.4,143.01s-1.77-.41-4.87-.56c-3.14-.1-7.6,0-12.93,1.06s-11.41,2.94-18,6.34-13.54,8.16-20.63,14.65c-7.1,6.49-13.89,14.3-20.38,22.16-6.44,7.81-12.67,15.82-18.1,22.76-5.48,6.95-10.19,12.88-13.59,17.09-3.45,4.21-5.48,6.74-5.48,6.74,0,0,2.89-1.42,7.76-3.75,4.87-2.33,11.86-5.63,19.82-9.33,7.96-3.7,17.09-7.86,26.26-12.37s18.35-9.38,26.26-14.8,14.15-11.05,18.91-16.68c4.77-5.63,8.11-11.15,10.39-16.12,2.23-4.92,3.35-9.18,3.9-12.27.56-3.04.61-4.87.61-4.87l.05-.05Z"/>
            <path class="cls-10" d="m433.3,186.3c-7.3-.3-13.44-.61-18.4-.66-4.87-.05-8.47-.15-10.19-.15.2-.86.51-2.13.86-3.8s.81-3.7,1.27-6.08c.96-4.77,2.33-11.05,3.55-18.05-.76.61-1.57,1.22-2.38,1.83-1.37,7.96-2.89,14.75-3.8,19.37-.51,2.33-.86,4.16-1.17,5.48-.3,1.27-.46,1.98-.46,2.03l-.25,1.12h1.17s2.89.1,7.66.15c1.22,0,2.53,0,4.01.05,1.42.05,2.99.1,4.61.15,3.35.15,7.1.3,11.15.46.76-.61,1.57-1.27,2.28-1.88h.1Z"/>
            <path class="cls-13" d="m335.65,240.2s2.38-1.27,7.05-4.11c4.61-2.89,11.51-7.4,20.33-14.04,8.82-6.69,18.51-15.01,25.91-21.85,7.4-6.79,12.47-12.02,12.47-12.02,0,0-6.24,3.75-14.55,9.38-8.31,5.58-18.71,13.13-27.23,20.18-8.52,7.05-14.45,12.67-18.35,16.58-3.9,3.85-5.68,5.93-5.68,5.93l.05-.05Z"/>
            <path class="cls-2" d="m414.54,154.62c-.35,1.98-.76,3.9-1.12,5.78-.35,1.88-.76,3.65-1.06,5.32-.66,3.3-1.27,6.24-1.77,8.67-.46,2.43-.86,4.31-1.17,5.68-.3,1.32-.41,2.08-.41,2.08,0,0,2.94.1,7.91.25,5.07.05,11.91.41,20.13.66,10.14-9.48,15.77-19.42,18.51-27.07,2.74-7.6,2.84-12.88,2.84-12.88,0,0-1.27-.25-3.55-.46s-5.63-.2-9.68.25c-8.11.91-18.96,3.95-30.62,11.76v-.05Z"/>
            <path class="cls-12" d="m424.58,192.94c7.91-5.42,14.15-11.05,18.91-16.68s8.11-11.15,10.39-16.12c2.23-4.92,3.35-9.18,3.9-12.27.56-3.04.61-4.87.61-4.87l-113.97,90.2s2.89-1.42,7.76-3.75c4.87-2.33,11.86-5.63,19.82-9.33,7.96-3.7,17.09-7.86,26.26-12.37,9.18-4.51,18.35-9.38,26.26-14.8h.05Z"/>
          </g>
          <g>
            <path class="cls-5" d="m483.6,192.03s-1.52-.81-4.36-1.72c-1.42-.46-3.14-.96-5.17-1.37-2.03-.41-4.41-.76-7-.96-5.22-.41-11.41-.15-18.3,1.27s-14.6,4.06-22.81,8.21c-8.21,4.16-16.48,9.63-24.59,15.26-8.06,5.63-15.77,11.41-22.61,16.43-3.4,2.48-6.59,4.82-9.43,6.9-2.89,2.08-5.42,3.9-7.55,5.48-4.21,3.04-6.74,4.82-6.74,4.82,0,0,3.04-.56,8.16-1.47,5.17-.96,12.37-2.18,20.74-3.55,8.37-1.37,17.9-2.94,27.53-4.77,9.63-1.88,19.32-4.01,28.04-7,8.67-2.99,15.97-6.69,21.8-10.65s10.29-8.21,13.64-12.22,5.58-7.71,6.84-10.34c1.32-2.69,1.83-4.31,1.83-4.31h0Z"/>
            <path class="cls-4" d="m449.32,225.65c-6.59-2.13-12.42-3.9-16.88-5.27-4.46-1.37-7.86-2.28-9.38-2.74.76-1.47,2.38-4.51,4.61-8.67,2.13-4.16,4.87-9.53,7.96-15.82-.86.35-1.77.71-2.64,1.06-3.45,7.05-6.44,12.88-8.52,16.93-2.18,4.11-3.45,6.49-3.45,6.54l-.51.96,1.06.3s2.69.76,7.1,2.08c4.36,1.37,10.65,3.24,18.1,5.68.86-.41,1.77-.76,2.64-1.17l-.1.1Z"/>
            <path class="cls-13" d="m345.08,250.64s2.53-.56,7.61-2.03c5.02-1.47,12.57-3.9,22.46-7.81,9.89-3.95,20.99-9.18,29.56-13.59s14.65-7.96,14.65-7.96c0,0-6.74,1.88-15.87,4.97-9.13,3.04-20.63,7.4-30.32,11.71-9.68,4.36-16.68,8.06-21.24,10.65s-6.74,4.06-6.74,4.06h-.1Z"/>
            <path class="cls-9" d="m440.09,191.58c-3.55,6.95-6.59,12.98-8.77,17.29-2.18,4.26-3.5,6.74-3.5,6.74,0,0,2.74.81,7.3,2.18,4.56,1.42,11,3.4,18.45,5.73,11.86-6.19,19.47-13.94,24.03-20.33,2.33-3.19,3.75-5.98,4.66-7.96.91-2.03,1.27-3.19,1.27-3.19,0,0-1.12-.56-3.19-1.32-2.08-.71-5.07-1.67-8.97-2.23-7.76-1.17-18.66-1.12-31.33,3.09h.05Z"/>
            <path class="cls-12" d="m439.49,229.6c8.67-2.99,15.97-6.69,21.8-10.65,5.83-3.95,10.29-8.21,13.64-12.22,3.35-4.01,5.58-7.71,6.84-10.34,1.32-2.69,1.83-4.31,1.83-4.31l-128.58,54.35s3.04-.56,8.16-1.47c5.17-.96,12.37-2.18,20.74-3.55,8.37-1.37,17.9-2.94,27.53-4.77,9.63-1.88,19.32-4.01,28.04-7v-.05Z"/>
          </g>
          <g>
            <path class="cls-7" d="m479.69,236.7s-1.32-.86-3.75-2.03c-2.43-1.12-6.03-2.53-10.55-3.5-4.61-.96-10.19-1.47-16.58-.96-6.39.46-13.54,1.93-21.34,4.66-7.86,2.79-15.92,6.69-23.78,10.8-7.86,4.11-15.41,8.37-22.11,12.02-13.49,7.45-23.27,12.67-23.27,12.67,0,0,2.79-.15,7.5-.35,4.72-.2,11.31-.46,18.91-.76,7.66-.3,16.43-.56,25.2-1.06,8.82-.56,17.75-1.37,25.91-3.04,8.11-1.67,15.06-4.11,20.79-7,5.78-2.89,10.19-6.19,13.64-9.33,3.45-3.19,5.83-6.24,7.35-8.47,1.52-2.23,2.13-3.65,2.13-3.65h-.05Z"/>
            <path class="cls-10" d="m445.06,262.81c-5.58-2.69-10.6-4.92-14.5-6.64-3.85-1.72-6.64-2.94-8.06-3.55,1.67-2.43,7.2-9.94,14.04-20.38-.81.2-1.67.41-2.48.66-3.95,5.93-7.15,10.75-9.63,14.15-2.38,3.4-3.8,5.37-3.8,5.42l-.56.81.91.41s.61.25,1.67.71c1.01.46,2.53,1.12,4.41,1.98,3.75,1.72,9.28,4.11,15.51,7.15.81-.25,1.67-.51,2.48-.71Z"/>
            <path class="cls-13" d="m348.94,273.05s2.38-.2,7.05-.91c4.66-.76,11.66-2.03,20.94-4.41,9.28-2.38,19.87-5.78,28.04-8.77,8.16-2.94,13.99-5.42,13.99-5.42,0,0-6.29.91-14.8,2.59-8.52,1.67-19.37,4.21-28.54,6.95-9.18,2.74-15.87,5.27-20.23,7.05-4.41,1.77-6.49,2.84-6.49,2.84l.05.1Z"/>
            <path class="cls-2" d="m440.8,231.32c-4.01,5.88-7.35,10.85-9.84,14.4-2.43,3.55-3.85,5.63-3.85,5.63,0,0,2.33,1.06,6.24,2.84,1.98.91,4.31,1.98,7,3.19,1.37.61,2.79,1.27,4.26,1.93,1.47.71,2.99,1.42,4.61,2.13,5.68-2.08,10.49-4.66,14.45-7.3,3.95-2.69,7.05-5.48,9.43-8.06s4.11-4.92,5.17-6.59c1.01-1.67,1.47-2.69,1.47-2.69,0,0-3.75-2.59-10.44-4.56-6.69-1.98-16.58-3.14-28.39-.86l-.1-.05Z"/>
            <path class="cls-12" d="m435.84,265.19c8.11-1.67,15.06-4.11,20.79-7,5.78-2.89,10.19-6.19,13.64-9.33,3.45-3.19,5.83-6.24,7.35-8.47,1.52-2.23,2.13-3.65,2.13-3.65l-121.38,33.72s2.79-.15,7.5-.35c4.72-.2,11.31-.46,18.91-.76,7.66-.3,16.43-.56,25.2-1.06,8.82-.56,17.75-1.37,25.91-3.04l-.05-.05Z"/>
          </g>
          <g>
            <path class="cls-5" d="m469.4,280.86s-.2-.25-.71-.71c-.46-.46-1.17-1.06-2.13-1.83-1.88-1.47-4.72-3.4-8.47-5.17-3.75-1.77-8.52-3.35-14.15-4.26-5.63-.91-12.17-1.12-19.52-.35-7.35.76-15.21,2.48-22.82,4.41-7.66,1.93-15.06,4.06-21.65,5.88-6.54,1.83-12.27,3.35-16.33,4.46-4.01,1.06-6.44,1.72-6.44,1.72,0,0,9.68,1.77,23.17,4.51,6.74,1.32,14.25,2.89,22.05,4.26,7.76,1.32,15.72,2.48,23.12,2.69,7.4.2,13.89-.46,19.42-1.83,5.53-1.32,10.24-3.24,13.79-5.27,3.6-2.03,6.29-4.16,8.06-5.78s2.64-2.74,2.64-2.74h-.05Z"/>
            <path class="cls-4" d="m434.01,296.32c-2.18-1.72-4.21-3.35-6.03-4.82s-3.6-2.79-5.12-3.95c-2.99-2.28-5.17-3.9-6.24-4.72,1.01-.86,3.04-2.69,5.83-5.17,1.42-1.27,3.04-2.74,4.82-4.31,1.72-1.62,3.65-3.4,5.68-5.27h-2.28c-2.28,2.13-4.36,4.11-6.29,5.83s-3.6,3.19-4.97,4.46c-2.74,2.43-4.36,3.9-4.41,3.9l-.66.61.71.56s1.77,1.32,4.66,3.6c1.47,1.12,3.3,2.48,5.32,4.06,2.03,1.62,4.26,3.4,6.69,5.32.76,0,1.52-.1,2.28-.1Z"/>
            <path class="cls-13" d="m348.53,285.37s2.08.35,6.24.66c4.21.3,10.55.66,19.11.51,8.57-.15,18.4-.91,26.11-1.83,7.71-.86,13.28-1.77,13.28-1.77,0,0-1.42-.1-3.75-.3-2.38-.15-5.73-.35-9.63-.51-7.76-.3-17.64-.35-26.21.15-8.52.51-14.8,1.32-19.01,1.93-4.16.66-6.19,1.12-6.19,1.12l.05.05Z"/>
            <path class="cls-9" d="m436.8,268.13c-4.56,4.26-8.67,7.86-11.51,10.44-2.84,2.54-4.51,4.06-4.51,4.06,0,0,1.77,1.37,4.77,3.75,1.52,1.17,3.35,2.59,5.48,4.21,2.08,1.62,4.36,3.45,6.79,5.37,10.7-1.32,18.76-4.92,23.88-8.42,5.17-3.5,7.71-6.69,7.71-6.69,0,0-.66-.76-2.03-1.88-1.37-1.12-3.4-2.69-6.13-4.21-2.74-1.52-6.08-3.09-10.19-4.31-4.11-1.22-8.87-2.08-14.25-2.33Z"/>
            <path class="cls-12" d="m425.49,296.47c7.4.2,13.89-.46,19.42-1.83,5.53-1.32,10.24-3.24,13.79-5.27,3.6-2.03,6.29-4.16,8.06-5.78,1.77-1.62,2.64-2.74,2.64-2.74l-112.2,4.21s9.68,1.77,23.17,4.51c6.74,1.32,14.25,2.89,22.05,4.26,7.76,1.32,15.72,2.48,23.12,2.69l-.05-.05Z"/>
          </g>
          <g>
            <path class="cls-5" d="m195.87,20.77s1.83,1.17,4.61,3.6c2.79,2.43,6.49,6.19,10.19,11.56,3.7,5.32,7.35,12.12,10.19,20.48,2.84,8.31,4.77,18.15,5.48,29.56.66,11.41,0,23.83-1.01,36-1.01,12.17-2.33,24.08-3.45,34.53-1.12,10.39-1.98,19.52-2.53,26.01-.56,6.44-.86,10.29-.86,10.29,0,0-1.32-3.65-3.5-9.73-2.23-6.13-5.42-14.6-9.18-24.44-3.75-9.84-8.11-21.04-12.27-32.5-4.11-11.51-7.96-23.17-10.29-34.43-2.28-11.2-2.99-21.34-2.38-30.07.56-8.77,2.38-16.27,4.56-22.36,2.18-6.13,4.82-10.8,6.9-13.84,2.08-3.09,3.55-4.66,3.55-4.66Z"/>
            <path class="cls-4" d="m181.27,78.67c6.49,5.68,12.12,10.8,16.38,14.7,4.31,3.95,7.35,7,8.87,8.37,1.06-1.77,3.35-5.37,6.39-10.39,3.14-4.87,7.2-11.15,12.02-18.4.15,1.17.35,2.33.51,3.5-5.42,8.21-9.84,14.96-12.88,19.77-3.04,4.87-4.82,7.76-4.82,7.81l-.71,1.17-1.01-.96s-2.54-2.38-6.69-6.29c-4.21-3.8-10.24-9.33-17.59-15.77-.15-1.22-.3-2.38-.41-3.55l-.05.05Z"/>
            <path class="cls-13" d="m220.26,206.03s-1.01-3.09-2.59-9.43c-1.57-6.34-3.7-15.92-5.73-29-1.98-13.08-3.4-28.24-4.06-40.21-.66-11.97-.71-20.69-.71-20.69,0,0,2.23,8.42,4.66,20.18,2.48,11.71,5.07,26.77,6.49,39.9,1.47,13.13,1.83,22.97,1.98,29.46.1,6.54-.05,9.73-.05,9.73v.05Z"/>
            <path class="cls-9" d="m223.86,67.11c-5.37,8.31-9.89,15.16-13.08,20.23-3.19,5.02-5.07,8.01-5.07,8.01,0,0-2.59-2.38-6.95-6.44-4.46-4.01-10.7-9.63-17.9-16.12-.86-16.58,2.69-29.61,6.69-38.58,1.98-4.51,4.11-7.76,5.68-10.04,1.57-2.23,2.69-3.4,2.69-3.4,0,0,1.32.81,3.45,2.59,2.13,1.77,5.02,4.41,8.06,8.16,6.19,7.61,12.93,19.37,16.43,35.59Z"/>
            <path class="cls-12" d="m183.3,91.65c-2.28-11.2-2.99-21.34-2.38-30.07.56-8.77,2.38-16.27,4.56-22.36,2.18-6.13,4.82-10.8,6.9-13.84,2.08-3.09,3.55-4.66,3.55-4.66l22.61,171.97s-1.32-3.65-3.5-9.73c-2.23-6.13-5.42-14.6-9.18-24.44-3.75-9.84-8.11-21.04-12.27-32.5-4.11-11.51-7.96-23.17-10.29-34.43v.05Z"/>
          </g>
          <g>
            <path class="cls-7" d="m134.27,51.8s2.03.66,5.32,2.28c3.3,1.67,7.76,4.31,12.62,8.42,4.87,4.16,10.09,9.73,14.86,16.98,4.77,7.25,9.13,16.12,12.57,26.82,3.5,10.7,5.93,22.66,8.01,34.53,2.08,11.81,3.8,23.47,5.37,33.72s3.04,19.16,4.11,25.45c1.06,6.24,1.72,9.99,1.72,9.99,0,0-2.18-3.14-5.78-8.42-3.6-5.17-8.77-12.47-14.86-20.94-6.03-8.42-13.03-18.1-19.82-27.89-6.74-9.84-13.38-20.08-18.4-30.17-5.02-10.09-8.16-19.52-9.84-28.04-1.67-8.57-1.83-16.07-1.27-22.41.61-6.34,1.88-11.46,3.09-14.96,1.22-3.45,2.23-5.32,2.23-5.32l.05-.05Z"/>
            <path class="cls-10" d="m134.88,110.71c3.8,1.83,7.3,3.6,10.6,5.32,3.19,1.67,6.13,3.19,8.72,4.56,5.07,2.64,8.72,4.72,10.49,5.68.61-1.93,1.83-5.93,3.5-11.46,1.72-5.58,4.11-12.42,6.84-20.53.46,1.06.91,2.13,1.37,3.19-1.52,4.51-2.94,8.67-4.21,12.42-.61,1.83-1.17,3.55-1.72,5.17-.51,1.62-.96,3.14-1.42,4.51-1.67,5.37-2.64,8.57-2.69,8.62l-.41,1.27-1.22-.66s-.76-.41-2.13-1.17c-1.37-.76-3.3-1.77-5.78-3.09-2.53-1.32-5.53-2.89-8.97-4.72-1.77-.91-3.6-1.88-5.58-2.89-1.98-.96-4.01-1.98-6.13-2.99-.46-1.12-.86-2.18-1.27-3.24Z"/>
            <path class="cls-13" d="m203.88,222.15s-1.72-2.69-4.82-8.37c-3.09-5.68-7.5-14.25-12.68-26.16-5.17-11.91-10.34-26.11-13.94-37.32-3.65-11.2-5.83-19.47-5.83-19.47,0,0,4.26,7.45,9.48,18.05,5.27,10.55,11.51,24.23,16.17,36.4,4.66,12.17,7.5,21.4,9.23,27.58,1.72,6.19,2.38,9.28,2.38,9.28Z"/>
            <path class="cls-2" d="m172.55,88.96c-3.04,9.23-5.68,16.83-7.45,22.51-1.77,5.53-2.84,8.82-2.84,8.82,0,0-.76-.41-2.18-1.17s-3.5-1.88-6.03-3.19c-2.59-1.37-5.73-2.99-9.23-4.82-3.55-1.88-7.55-3.95-11.81-6.08-5.02-15.72-4.92-28.95-3.3-38.43,1.57-9.53,4.61-14.91,4.61-14.91,0,0,5.98,1.83,13.69,7.4,7.76,5.58,17.24,15.21,24.59,29.76l-.05.1Z"/>
            <path class="cls-12" d="m140.05,122.52c-5.02-10.09-8.16-19.52-9.84-28.04-1.67-8.57-1.83-16.07-1.27-22.41.61-6.34,1.88-11.46,3.09-14.96,1.22-3.45,2.23-5.32,2.23-5.32l64.59,158.13s-2.18-3.14-5.78-8.42c-3.6-5.17-8.77-12.47-14.86-20.94-6.03-8.42-13.03-18.1-19.82-27.89-6.74-9.84-13.38-20.08-18.4-30.17h.05Z"/>
          </g>
          <g>
            <path class="cls-5" d="m82.91,95.2s1.98.1,5.27.81,7.96,2.03,13.23,4.51c5.22,2.43,11.26,6.24,17.19,11.51,5.98,5.27,11.91,12.17,17.59,20.84,5.63,8.67,10.65,18.71,15.31,28.7,4.66,10.04,8.87,19.82,12.78,28.65,7.71,17.54,13.54,30.01,13.54,30.01,0,0-2.64-2.23-7.1-5.98-4.46-3.75-10.8-9.02-18.2-15.11-7.4-6.13-15.77-12.83-24.13-20.03-8.37-7.15-16.68-14.7-23.47-22.46-6.84-7.76-11.86-15.36-15.36-22.56-3.5-7.15-5.53-13.94-6.49-19.62-.96-5.73-1.01-10.55-.81-13.94s.66-5.32.66-5.32Z"/>
            <path class="cls-4" d="m97.46,147.31c3.8.76,7.35,1.52,10.6,2.18,3.24.76,6.24,1.42,8.82,2.03,5.12,1.22,8.82,2.08,10.65,2.48.1-1.88.25-5.68.46-10.9.1-2.64.2-5.73.46-9.02.25-3.35.51-6.95.76-10.85.66.81,1.32,1.67,1.98,2.54-.3,4.36-.61,8.37-.86,11.97-.15,3.6-.3,6.74-.46,9.38-.2,5.12-.35,8.16-.35,8.21v1.22l-1.27-.25c-.05,0-2.99-.71-8.01-1.88-2.54-.61-5.63-1.32-9.13-2.08-3.5-.71-7.45-1.52-11.71-2.43-.66-.86-1.27-1.72-1.93-2.59Z"/>
            <path class="cls-13" d="m185.12,229.85s-2.18-1.93-6.24-6.19c-4.06-4.26-10.04-10.8-17.49-20.18-7.4-9.38-15.36-20.69-21.24-29.81-5.93-9.13-9.84-15.97-9.84-15.97,0,0,5.53,5.63,12.73,13.79,7.2,8.11,15.97,18.81,23.02,28.49,7,9.68,11.71,17.19,14.75,22.26,2.99,5.07,4.31,7.66,4.31,7.66v-.05Z"/>
            <path class="cls-9" d="m125.7,119.13c-.25,4.36-.56,8.47-.76,12.12-.2,3.65-.35,6.9-.46,9.63-.3,5.32-.46,8.47-.46,8.47,0,0-3.09-.71-8.26-1.83-2.64-.61-5.83-1.32-9.38-2.13-3.6-.76-7.6-1.62-11.86-2.53-4.06-6.34-6.9-12.47-8.82-18.15s-2.84-10.75-3.24-15.16c-.41-4.36-.25-7.96-.05-10.44.2-2.48.56-3.9.56-3.9,0,0,5.73.25,13.94,3.4,8.16,3.04,18.86,9.38,28.85,20.58l-.05-.05Z"/>
            <path class="cls-12" d="m104.87,156.59c-6.84-7.76-11.86-15.36-15.36-22.56-3.5-7.15-5.53-13.94-6.49-19.62-.96-5.73-1.01-10.55-.81-13.94.2-3.4.66-5.32.66-5.32l94.86,125.03s-2.64-2.23-7.1-5.98c-4.46-3.75-10.8-9.02-18.2-15.11-7.4-6.13-15.77-12.83-24.13-20.03-8.37-7.15-16.68-14.7-23.47-22.46h.05Z"/>
          </g>
          <g>
            <path class="cls-7" d="m48.79,143.01s1.77-.41,4.87-.56c3.14-.1,7.6,0,12.93,1.06s11.41,2.94,18,6.34c6.59,3.4,13.54,8.16,20.63,14.65,7.1,6.49,13.89,14.3,20.38,22.16,6.44,7.81,12.68,15.82,18.1,22.76,5.48,6.95,10.19,12.88,13.59,17.09,3.45,4.21,5.48,6.74,5.48,6.74,0,0-2.89-1.42-7.76-3.75-4.87-2.33-11.86-5.63-19.82-9.33-7.96-3.7-17.09-7.86-26.26-12.37-9.18-4.51-18.35-9.38-26.26-14.8-7.91-5.42-14.15-11.05-18.91-16.68-4.77-5.63-8.11-11.15-10.39-16.12-2.23-4.92-3.35-9.18-3.9-12.27-.56-3.04-.61-4.87-.61-4.87l-.05-.05Z"/>
            <path class="cls-10" d="m73.89,186.3c7.3-.3,13.44-.61,18.4-.66,4.87-.05,8.47-.15,10.19-.15-.2-.86-.51-2.13-.86-3.8s-.81-3.7-1.27-6.08c-.96-4.77-2.33-11.05-3.55-18.05.76.61,1.57,1.22,2.38,1.83,1.37,7.96,2.89,14.75,3.8,19.37.51,2.33.86,4.16,1.17,5.48.3,1.27.46,1.98.46,2.03l.25,1.12h-1.17s-2.89.1-7.66.15c-1.22,0-2.53,0-4.01.05-1.42.05-2.99.1-4.61.15-3.35.15-7.1.3-11.15.46-.76-.61-1.57-1.27-2.28-1.88h-.1Z"/>
            <path class="cls-13" d="m171.54,240.2s-2.38-1.27-7.05-4.11c-4.61-2.89-11.51-7.4-20.33-14.04-8.82-6.69-18.51-15.01-25.91-21.85-7.4-6.79-12.47-12.02-12.47-12.02,0,0,6.24,3.75,14.55,9.38,8.31,5.58,18.71,13.13,27.23,20.18,8.52,7.05,14.45,12.67,18.35,16.58,3.9,3.85,5.68,5.93,5.68,5.93l-.05-.05Z"/>
            <path class="cls-2" d="m92.65,154.62c.35,1.98.76,3.9,1.12,5.78.35,1.88.76,3.65,1.06,5.32.66,3.3,1.27,6.24,1.77,8.67.46,2.43.86,4.31,1.17,5.68.3,1.32.41,2.08.41,2.08,0,0-2.94.1-7.91.25-5.07.05-11.91.41-20.13.66-10.14-9.48-15.77-19.42-18.51-27.07-2.74-7.6-2.84-12.88-2.84-12.88,0,0,1.27-.25,3.55-.46s5.63-.2,9.68.25c8.11.91,18.96,3.95,30.62,11.76v-.05Z"/>
            <path class="cls-12" d="m82.61,192.94c-7.91-5.42-14.15-11.05-18.91-16.68-4.77-5.63-8.11-11.15-10.39-16.12-2.23-4.92-3.35-9.18-3.9-12.27-.56-3.04-.61-4.87-.61-4.87l113.97,90.2s-2.89-1.42-7.76-3.75c-4.87-2.33-11.86-5.63-19.82-9.33-7.96-3.7-17.09-7.86-26.26-12.37-9.18-4.51-18.35-9.38-26.26-14.8h-.05Z"/>
          </g>
          <g>
            <path class="cls-5" d="m23.59,192.03s1.52-.81,4.36-1.72c1.42-.46,3.14-.96,5.17-1.37s4.41-.76,7-.96c5.22-.41,11.41-.15,18.3,1.27s14.6,4.06,22.82,8.21,16.48,9.63,24.59,15.26c8.06,5.63,15.77,11.41,22.61,16.43,3.4,2.48,6.59,4.82,9.43,6.9,2.89,2.08,5.42,3.9,7.55,5.48,4.26,3.04,6.74,4.82,6.74,4.82,0,0-3.04-.56-8.16-1.47-5.17-.96-12.37-2.18-20.74-3.55-8.37-1.37-17.9-2.94-27.53-4.77-9.63-1.88-19.32-4.01-28.04-7-8.67-2.99-15.97-6.69-21.8-10.65-5.83-3.95-10.29-8.21-13.64-12.22-3.35-4.01-5.58-7.71-6.84-10.34-1.32-2.69-1.83-4.31-1.83-4.31Z"/>
            <path class="cls-4" d="m57.87,225.65c6.59-2.13,12.42-3.9,16.88-5.27,4.46-1.37,7.86-2.28,9.38-2.74-.76-1.47-2.38-4.51-4.61-8.67-2.13-4.16-4.87-9.53-7.96-15.82.86.35,1.77.71,2.64,1.06,3.45,7.05,6.44,12.88,8.52,16.93,2.18,4.11,3.45,6.49,3.45,6.54l.51.96-1.06.3s-2.69.76-7.1,2.08c-4.36,1.37-10.65,3.24-18.1,5.68-.86-.41-1.77-.76-2.64-1.17l.1.1Z"/>
            <path class="cls-13" d="m162.11,250.64s-2.53-.56-7.6-2.03c-5.02-1.47-12.57-3.9-22.46-7.81-9.89-3.95-20.99-9.18-29.56-13.59s-14.65-7.96-14.65-7.96c0,0,6.74,1.88,15.87,4.97,9.13,3.04,20.63,7.4,30.32,11.71,9.68,4.36,16.68,8.06,21.24,10.65s6.74,4.06,6.74,4.06h.1Z"/>
            <path class="cls-9" d="m67.1,191.58c3.55,6.95,6.59,12.98,8.77,17.29,2.18,4.26,3.5,6.74,3.5,6.74,0,0-2.74.81-7.3,2.18-4.56,1.42-11,3.4-18.45,5.73-11.86-6.19-19.47-13.94-24.03-20.33-2.33-3.19-3.75-5.98-4.66-7.96-.91-2.03-1.27-3.19-1.27-3.19,0,0,1.12-.56,3.19-1.32,2.08-.71,5.07-1.67,8.97-2.23,7.76-1.17,18.66-1.12,31.33,3.09h-.05Z"/>
            <path class="cls-12" d="m67.7,229.6c-8.67-2.99-15.97-6.69-21.8-10.65-5.83-3.95-10.29-8.21-13.64-12.22-3.35-4.01-5.58-7.71-6.84-10.34-1.32-2.69-1.83-4.31-1.83-4.31l128.58,54.35s-3.04-.56-8.16-1.47c-5.17-.96-12.37-2.18-20.74-3.55-8.37-1.37-17.9-2.94-27.53-4.77-9.63-1.88-19.32-4.01-28.04-7v-.05Z"/>
          </g>
          <g>
            <path class="cls-7" d="m27.5,236.7s1.32-.86,3.75-2.03c2.43-1.12,6.03-2.53,10.55-3.5,4.61-.96,10.19-1.47,16.58-.96,6.39.46,13.54,1.93,21.34,4.66,7.86,2.79,15.92,6.69,23.78,10.8,7.86,4.11,15.41,8.37,22.11,12.02,13.49,7.45,23.27,12.67,23.27,12.67,0,0-2.79-.15-7.5-.35-4.72-.2-11.31-.46-18.91-.76-7.66-.3-16.43-.56-25.2-1.06-8.82-.56-17.75-1.37-25.91-3.04-8.11-1.67-15.06-4.11-20.79-7-5.78-2.89-10.19-6.19-13.64-9.33-3.45-3.19-5.83-6.24-7.35-8.47s-2.13-3.65-2.13-3.65h.05Z"/>
            <path class="cls-10" d="m62.13,262.81c5.58-2.69,10.6-4.92,14.5-6.64,3.85-1.72,6.64-2.94,8.06-3.55-1.67-2.43-7.2-9.94-14.04-20.38.81.2,1.67.41,2.48.66,3.95,5.93,7.15,10.75,9.63,14.15,2.38,3.4,3.8,5.37,3.8,5.42l.56.81-.91.41s-.61.25-1.67.71c-1.01.46-2.54,1.12-4.41,1.98-3.75,1.72-9.28,4.11-15.51,7.15-.81-.25-1.67-.51-2.48-.71Z"/>
            <path class="cls-13" d="m158.25,273.05s-2.38-.2-7.05-.91c-4.66-.76-11.66-2.03-20.94-4.41-9.28-2.38-19.87-5.78-28.04-8.77-8.16-2.94-13.99-5.42-13.99-5.42,0,0,6.29.91,14.8,2.59,8.52,1.67,19.37,4.21,28.54,6.95,9.18,2.74,15.87,5.27,20.23,7.05,4.41,1.77,6.49,2.84,6.49,2.84l-.05.1Z"/>
            <path class="cls-2" d="m66.39,231.32c4.01,5.88,7.35,10.85,9.84,14.4,2.43,3.55,3.85,5.63,3.85,5.63,0,0-2.33,1.06-6.24,2.84-1.98.91-4.31,1.98-7,3.19-1.37.61-2.79,1.27-4.26,1.93-1.47.71-2.99,1.42-4.61,2.13-5.68-2.08-10.49-4.66-14.45-7.3-3.95-2.69-7.05-5.48-9.43-8.06-2.38-2.59-4.11-4.92-5.17-6.59-1.01-1.67-1.47-2.69-1.47-2.69,0,0,3.75-2.59,10.44-4.56,6.69-1.98,16.58-3.14,28.39-.86l.1-.05Z"/>
            <path class="cls-12" d="m71.35,265.19c-8.11-1.67-15.06-4.11-20.79-7-5.78-2.89-10.19-6.19-13.64-9.33-3.45-3.19-5.83-6.24-7.35-8.47s-2.13-3.65-2.13-3.65l121.38,33.72s-2.79-.15-7.5-.35c-4.72-.2-11.31-.46-18.91-.76-7.66-.3-16.43-.56-25.2-1.06-8.82-.56-17.74-1.37-25.91-3.04l.05-.05Z"/>
          </g>
          <g>
            <path class="cls-5" d="m37.79,280.86s.2-.25.71-.71c.46-.46,1.17-1.06,2.13-1.83,1.88-1.47,4.72-3.4,8.47-5.17,3.75-1.77,8.47-3.35,14.15-4.26,5.63-.91,12.17-1.12,19.52-.35,7.35.76,15.21,2.48,22.81,4.41,7.66,1.93,15.06,4.06,21.65,5.88,6.54,1.83,12.27,3.35,16.33,4.46,4.01,1.06,6.44,1.72,6.44,1.72,0,0-9.68,1.77-23.17,4.51-6.74,1.32-14.25,2.89-22.05,4.26-7.76,1.32-15.72,2.48-23.12,2.69-7.4.2-13.89-.46-19.42-1.83-5.53-1.32-10.24-3.24-13.79-5.27-3.6-2.03-6.29-4.16-8.06-5.78-1.77-1.62-2.64-2.74-2.64-2.74h.05Z"/>
            <path class="cls-4" d="m73.18,296.32c2.18-1.72,4.21-3.35,6.03-4.82s3.6-2.79,5.12-3.95c2.99-2.28,5.17-3.9,6.24-4.72-1.01-.86-3.04-2.69-5.83-5.17-1.42-1.27-3.04-2.74-4.82-4.31-1.72-1.62-3.65-3.4-5.68-5.27h2.28c2.28,2.13,4.36,4.11,6.29,5.83,1.93,1.72,3.6,3.19,4.97,4.46,2.74,2.43,4.36,3.9,4.41,3.9l.66.61-.71.56s-1.77,1.32-4.66,3.6c-1.47,1.12-3.3,2.48-5.32,4.06-2.03,1.62-4.26,3.4-6.69,5.32-.76,0-1.52-.1-2.28-.1Z"/>
            <path class="cls-13" d="m158.66,285.37s-2.08.35-6.24.66c-4.21.3-10.55.66-19.11.51-8.57-.15-18.4-.91-26.11-1.83-7.71-.86-13.28-1.77-13.28-1.77,0,0,1.42-.1,3.75-.3,2.38-.15,5.73-.35,9.63-.51,7.76-.3,17.64-.35,26.21.15,8.52.51,14.8,1.32,19.01,1.93,4.16.66,6.19,1.12,6.19,1.12l-.05.05Z"/>
            <path class="cls-9" d="m70.39,268.13c4.56,4.26,8.67,7.86,11.51,10.44,2.84,2.54,4.51,4.06,4.51,4.06,0,0-1.77,1.37-4.77,3.75-1.52,1.17-3.35,2.59-5.48,4.21-2.08,1.62-4.36,3.45-6.79,5.37-10.7-1.32-18.76-4.92-23.88-8.42-5.17-3.5-7.71-6.69-7.71-6.69,0,0,.66-.76,2.03-1.88,1.37-1.12,3.4-2.69,6.13-4.21,2.74-1.52,6.08-3.09,10.19-4.31,4.11-1.22,8.87-2.08,14.25-2.33Z"/>
            <path class="cls-12" d="m81.7,296.47c-7.4.2-13.89-.46-19.42-1.83-5.53-1.32-10.24-3.24-13.79-5.27-3.6-2.03-6.29-4.16-8.06-5.78-1.77-1.62-2.64-2.74-2.64-2.74l112.2,4.21s-9.68,1.77-23.17,4.51c-6.74,1.32-14.25,2.89-22.05,4.26-7.76,1.32-15.72,2.48-23.12,2.69l.05-.05Z"/>
          </g>
        </g>
        <g>
          <path class="cls-7" d="m253.57,5s-19.77,22.71-20.23,69.92c-.46,47.2,20.23,108.9,20.23,108.9,0,0,20.69-61.75,20.23-108.9-.46-47.2-20.23-69.92-20.23-69.92Z"/>
          <path class="cls-10" d="m273.14,61.43c-9.18,14.2-16.98,24.49-19.52,27.78-2.53-3.3-10.34-13.59-19.52-27.78-.1,1.22-.2,2.43-.3,3.65,10.49,16.02,18.86,26.52,18.96,26.67l.86,1.12.86-1.12s8.47-10.65,18.96-26.67c-.1-1.22-.2-2.43-.3-3.65Z"/>
          <path class="cls-13" d="m253.57,197.66s4.21-13.13,4.31-40.36c.1-27.23-4.31-62.87-4.31-62.87,0,0-4.41,35.64-4.31,62.87s4.31,40.36,4.31,40.36Z"/>
          <path class="cls-2" d="m234.76,55.35c10.09,16.22,18.81,27.18,18.81,27.18,0,0,8.77-11,18.86-27.18-4.56-33.87-18.86-50.35-18.86-50.35,0,0-14.25,16.43-18.81,50.35Z"/>
          <path class="cls-12" d="m273.8,74.92c-.46-47.2-20.23-69.92-20.23-69.92v178.82s20.69-61.75,20.23-108.9Z"/>
        </g>
        <g>
          <path class="cls-14" d="m370.13,278.37c0-1.06,0-2.18-.1-3.35s-.2-2.33-.3-3.55c-.15-2.48-.66-5.02-1.06-7.71-.56-2.64-1.06-5.42-1.88-8.16-.71-2.79-1.67-5.53-2.59-8.26-1.06-2.69-2.08-5.42-3.35-8.01-.61-1.32-1.22-2.59-1.88-3.85-.66-1.27-1.27-2.48-1.98-3.7-1.42-2.38-2.74-4.66-4.16-6.74-1.37-2.13-2.79-4.01-4.16-5.78-1.32-1.77-2.64-3.3-3.8-4.66-1.12-1.37-2.23-2.48-3.09-3.45-1.72-1.93-2.79-2.94-2.79-2.94,0,0-1.06-1.01-2.89-2.84-.96-.86-2.13-1.88-3.5-3.09-1.32-1.22-2.94-2.43-4.66-3.8-1.77-1.37-3.7-2.74-5.78-4.21-2.13-1.37-4.36-2.89-6.79-4.26-2.38-1.42-4.92-2.74-7.55-4.06-1.32-.66-2.64-1.22-4.01-1.83-1.32-.61-2.69-1.22-4.11-1.72-2.74-1.12-5.53-2.08-8.31-2.94-2.79-.86-5.53-1.62-8.26-2.23-2.69-.61-5.32-1.17-7.86-1.52-2.48-.46-4.87-.71-7.1-.91-2.18-.25-4.21-.3-6.03-.41-1.77-.1-3.35-.1-4.66-.1-2.59,0-4.06.05-4.06.05,0,0-1.47,0-4.06-.05-1.27,0-2.84,0-4.66.1-1.77.1-3.8.15-6.03.41-2.18.2-4.56.46-7.1.91-2.53.35-5.12.91-7.86,1.52-2.69.61-5.48,1.37-8.26,2.23-2.79.91-5.58,1.83-8.31,2.94-1.37.51-2.74,1.12-4.11,1.72-1.32.61-2.69,1.17-4.01,1.83-2.59,1.32-5.17,2.59-7.55,4.06-2.43,1.37-4.61,2.89-6.79,4.26-2.08,1.47-4.06,2.84-5.78,4.21-1.72,1.37-3.35,2.59-4.66,3.8s-2.53,2.23-3.5,3.09c-1.83,1.83-2.89,2.84-2.89,2.84,0,0-1.06,1.01-2.79,2.94-.86.96-1.98,2.08-3.09,3.45-1.12,1.37-2.48,2.89-3.8,4.66s-2.79,3.65-4.16,5.78c-1.42,2.08-2.79,4.36-4.16,6.74-.71,1.17-1.32,2.43-1.98,3.7s-1.32,2.53-1.88,3.85c-1.27,2.59-2.28,5.32-3.35,8.01-.96,2.74-1.93,5.48-2.59,8.26-.81,2.74-1.32,5.53-1.88,8.16-.41,2.69-.86,5.22-1.06,7.71-.1,1.22-.2,2.43-.3,3.55-.05,1.17-.1,2.28-.1,3.35-.1,2.13,0,4.11,0,5.83s.1,3.24.25,4.46c.25,2.43.41,3.85.41,3.85h19.72s.2-1.12.61-3.09c.15-.96.41-2.18.76-3.5.3-1.37.66-2.84,1.12-4.46.41-1.62.96-3.35,1.57-5.17.56-1.83,1.37-3.65,2.08-5.58.81-1.88,1.62-3.85,2.64-5.73.86-1.93,2.03-3.8,3.04-5.73,1.12-1.88,2.23-3.7,3.45-5.42,1.12-1.77,2.48-3.4,3.65-5.02,1.27-1.57,2.43-3.09,3.7-4.41,1.17-1.42,2.38-2.64,3.5-3.75,1.06-1.17,2.23-2.13,3.14-2.99.91-.91,1.83-1.57,2.48-2.23,1.37-1.22,2.23-1.88,2.23-1.88,0,0,.81-.66,2.28-1.83.76-.56,1.67-1.22,2.69-1.98,1.01-.76,2.28-1.52,3.6-2.43,1.32-.86,2.79-1.72,4.36-2.64,1.62-.86,3.24-1.83,5.02-2.64,1.72-.91,3.6-1.72,5.53-2.53,1.93-.76,3.85-1.62,5.83-2.28,1.01-.3,1.98-.71,2.99-1.01s1.98-.61,2.99-.91c1.98-.56,3.95-1.06,5.88-1.52,1.93-.41,3.75-.86,5.58-1.12,1.77-.35,3.45-.56,5.02-.76,1.57-.25,2.99-.35,4.31-.51,1.27-.15,2.38-.25,3.35-.3,1.88-.15,2.89-.2,2.89-.2,0,0,1.06.1,2.89.2.91,0,2.03.1,3.35.3,1.27.15,2.74.2,4.31.51,1.57.2,3.24.41,5.02.76,1.77.3,3.65.71,5.58,1.12,1.93.41,3.9.96,5.88,1.52,1.01.3,1.98.61,2.99.91s1.98.71,2.99,1.01c1.98.66,3.9,1.52,5.83,2.28,1.88.81,3.75,1.67,5.53,2.53,1.77.81,3.4,1.83,5.02,2.64,1.57.91,3.04,1.77,4.36,2.64,1.32.91,2.53,1.67,3.6,2.43,1.06.76,1.93,1.42,2.69,1.98,1.42,1.17,2.28,1.83,2.28,1.83,0,0,.86.61,2.23,1.88.71.61,1.57,1.32,2.48,2.23s2.03,1.88,3.14,2.99c1.12,1.17,2.33,2.38,3.5,3.75,1.27,1.32,2.43,2.84,3.7,4.41,1.17,1.62,2.53,3.24,3.65,5.02,1.22,1.72,2.33,3.6,3.45,5.42,1.01,1.88,2.13,3.75,3.04,5.73,1.01,1.93,1.77,3.85,2.64,5.73.71,1.93,1.52,3.75,2.08,5.58.61,1.83,1.17,3.55,1.57,5.17.51,1.62.86,3.09,1.12,4.46.3,1.32.56,2.53.76,3.5.35,1.98.61,3.09.61,3.09h19.72s.15-1.42.41-3.85c.15-1.22.25-2.74.25-4.46.05-1.72.15-3.7,0-5.83h.1Z"/>
          <path class="cls-5" d="m283.48,204.4s2.38-1.47,4.92-2.94c2.53-1.42,5.17-2.64,5.17-2.64,0,0,1.17,2.69,2.08,5.42.46,1.32.91,2.69,1.27,3.65.3,1.01.51,1.67.51,1.67,0,0-.81-.41-2.13-.91s-2.99-1.32-4.77-1.88c-1.72-.66-3.5-1.27-4.82-1.67-1.32-.41-2.23-.71-2.23-.71Z"/>
          <path class="cls-7" d="m322.32,206.63s-.71.05-1.83.25c-1.12.15-2.53.41-3.95.71-2.84.51-5.63,1.27-5.63,1.27,0,0-.15-.71-.41-1.77-.25-1.06-.61-2.48-1.01-3.9-.76-2.79-1.72-5.73-1.72-5.73,0,0,.91.51,2.33,1.32.71.41,1.52.86,2.38,1.37.86.51,1.77,1.12,2.69,1.67,1.83,1.12,3.6,2.38,4.92,3.3,1.32.91,2.18,1.57,2.18,1.57l.05-.05Z"/>
          <path class="cls-7" d="m283.79,188.13s-2.64,1.47-5.07,3.19c-1.22.81-2.43,1.67-3.35,2.28-.91.66-1.47,1.12-1.47,1.12,0,0-1.57-2.43-3.3-4.92-1.72-2.38-3.65-4.72-3.65-4.72,0,0,1.06.1,2.64.3,1.62.15,3.7.56,5.83.91,2.13.35,4.21.86,5.78,1.22.81.15,1.42.35,1.88.46s.71.2.71.2v-.05Z"/>
          <path class="cls-5" d="m342.24,249.07s2.48.76,4.87,1.72,4.72,2.13,4.72,2.13c0,0-.15.61-.46,1.57-.25.91-.61,2.13-.96,3.35-.35,1.17-.71,2.38-1.01,3.24s-.51,1.42-.51,1.42c0,0-.35-.86-.86-2.18-.61-1.27-1.37-2.99-2.18-4.66-.91-1.67-1.72-3.35-2.43-4.56-.71-1.22-1.17-2.03-1.17-2.03Z"/>
          <path class="cls-7" d="m363.79,279.44s-.35-.46-.91-1.22c-.56-.71-1.32-1.62-2.18-2.53-1.67-1.77-3.45-3.45-3.45-3.45,0,0,.96-2.28,1.88-4.61.51-1.22.91-2.38,1.27-3.3s.56-1.57.56-1.57c0,0,.25,1.01.66,2.59.35,1.52.76,3.65,1.17,5.68.3,2.08.61,4.16.81,5.73.15,1.57.2,2.64.2,2.64v.05Z"/>
          <path class="cls-7" d="m351.22,239.08s-.66-.2-1.57-.56c-.96-.35-2.23-.76-3.55-1.12-1.32-.35-2.64-.71-3.6-.91-.96-.25-1.67-.35-1.67-.35,0,0,.25-2.74.51-5.48.15-2.74.25-5.63.25-5.63,0,0,.66.86,1.67,2.08,1.01,1.22,2.23,2.99,3.45,4.72,1.22,1.77,2.33,3.6,3.19,4.92.81,1.37,1.32,2.33,1.32,2.33Z"/>
          <path class="cls-5" d="m223.71,204.4s-2.38-1.47-4.92-2.94c-2.53-1.42-5.17-2.64-5.17-2.64,0,0-1.17,2.69-2.08,5.42-.46,1.32-.91,2.69-1.27,3.65-.3,1.01-.51,1.67-.51,1.67,0,0,.81-.41,2.13-.91s2.99-1.32,4.77-1.88c1.72-.66,3.5-1.27,4.82-1.67,1.32-.41,2.23-.71,2.23-.71Z"/>
          <path class="cls-7" d="m184.87,206.63s.71.05,1.83.25c1.12.15,2.53.41,3.95.71,2.84.51,5.63,1.27,5.63,1.27,0,0,.15-.71.41-1.77.25-1.06.61-2.48,1.01-3.9.76-2.79,1.72-5.73,1.72-5.73,0,0-.91.51-2.33,1.32-.71.41-1.52.86-2.38,1.37-.86.51-1.77,1.12-2.69,1.67-1.83,1.12-3.6,2.38-4.92,3.3-1.32.91-2.18,1.57-2.18,1.57l-.05-.05Z"/>
          <path class="cls-7" d="m223.4,188.13s2.59,1.47,5.07,3.19c1.22.81,2.43,1.67,3.35,2.28.91.66,1.47,1.12,1.47,1.12,0,0,1.57-2.43,3.3-4.92,1.72-2.38,3.65-4.72,3.65-4.72,0,0-1.06.1-2.64.3-1.62.15-3.7.56-5.83.91-2.13.35-4.21.86-5.78,1.22-.81.15-1.42.35-1.88.46s-.71.2-.71.2v-.05Z"/>
          <g>
            <path class="cls-9" d="m372.46,274.62c-.1-1.17-.15-2.38-.25-3.65-.15-2.53-.61-5.17-.96-7.91-.51-2.74-1.01-5.58-1.77-8.42-.71-2.84-1.62-5.68-2.59-8.52-1.06-2.79-2.08-5.63-3.35-8.31-.61-1.37-1.22-2.69-1.88-3.95-.66-1.27-1.27-2.59-1.98-3.8-1.42-2.43-2.79-4.82-4.21-7s-2.84-4.16-4.21-5.98c-1.32-1.88-2.69-3.4-3.85-4.87s-2.28-2.59-3.14-3.6c-1.77-1.98-2.84-3.04-2.84-3.04,0,0-1.06-1.06-2.99-2.94-.96-.91-2.18-1.98-3.55-3.19-1.37-1.27-3.04-2.53-4.82-3.95s-3.8-2.84-5.93-4.36c-2.18-1.42-4.46-2.99-6.95-4.41-2.43-1.47-5.07-2.84-7.76-4.21-1.32-.71-2.74-1.27-4.11-1.93s-2.79-1.22-4.21-1.77c-2.84-1.17-5.73-2.13-8.57-3.04-2.89-.86-5.73-1.67-8.52-2.33-2.79-.61-5.48-1.22-8.06-1.57-2.59-.46-5.02-.71-7.3-.91-2.28-.25-4.36-.3-6.19-.41s-3.45-.1-4.77-.1c-2.64.05-4.16.1-4.16.1,0,0-1.52,0-4.16-.1-1.32,0-2.94,0-4.77.1-1.83.1-3.9.15-6.19.41-2.28.2-4.72.46-7.3.91-2.59.35-5.27.96-8.06,1.57-2.79.66-5.63,1.42-8.52,2.33-2.84.91-5.73,1.88-8.57,3.04-1.42.56-2.84,1.17-4.21,1.77s-2.79,1.22-4.11,1.93c-2.69,1.37-5.32,2.69-7.76,4.21-2.48,1.42-4.77,2.99-6.95,4.41-2.13,1.52-4.16,2.94-5.93,4.36s-3.45,2.69-4.82,3.95c-1.37,1.22-2.59,2.33-3.55,3.19-1.88,1.88-2.99,2.94-2.99,2.94,0,0-1.12,1.06-2.84,3.04-.86,1.01-1.98,2.13-3.14,3.6-1.17,1.42-2.53,2.99-3.85,4.87-1.37,1.83-2.79,3.8-4.21,5.98-1.47,2.13-2.79,4.56-4.21,7-.71,1.22-1.32,2.54-1.98,3.8s-1.32,2.64-1.88,3.95c-1.27,2.69-2.28,5.53-3.35,8.31-.96,2.84-1.88,5.68-2.59,8.52-.76,2.84-1.27,5.68-1.77,8.42-.35,2.74-.81,5.37-.96,7.91-.1,1.27-.15,2.48-.25,3.65-.05,1.17,0,2.33-.05,3.45-.05,2.18.05,4.21.15,5.98.05,1.77.2,3.3.41,4.56.3,2.48.51,3.9.51,3.9h4.16s-.1-1.37-.3-3.75c-.1-1.22-.15-2.69-.15-4.36s-.05-3.6.1-5.68c.05-1.06.1-2.13.2-3.24s.25-2.28.35-3.45c.2-2.38.71-4.87,1.17-7.5.56-2.59,1.12-5.22,1.93-7.91.71-2.69,1.67-5.32,2.64-8.01,1.06-2.64,2.13-5.27,3.35-7.76.61-1.27,1.22-2.53,1.88-3.7.66-1.22,1.27-2.43,1.98-3.55,1.37-2.28,2.69-4.51,4.11-6.49,1.37-2.03,2.79-3.85,4.06-5.58s2.59-3.14,3.7-4.51c1.12-1.32,2.18-2.38,3.04-3.35,1.67-1.83,2.74-2.79,2.74-2.79,0,0,1.01-1.01,2.84-2.74.96-.81,2.08-1.83,3.4-2.99s2.89-2.33,4.56-3.65c1.72-1.32,3.6-2.64,5.63-4.06,2.08-1.32,4.26-2.79,6.59-4.06,2.33-1.37,4.82-2.64,7.3-3.9,1.27-.66,2.59-1.17,3.85-1.77,1.32-.61,2.64-1.17,3.95-1.67,2.64-1.06,5.37-1.98,8.06-2.84,2.69-.81,5.37-1.57,8.01-2.18,2.64-.56,5.17-1.17,7.6-1.47,2.43-.46,4.72-.66,6.84-.91s4.11-.3,5.83-.41,3.24-.15,4.51-.1h7.81c1.27,0,2.79,0,4.51.1s3.7.15,5.83.41c2.13.2,4.46.46,6.84.91,2.43.35,4.97.91,7.6,1.47,2.64.61,5.27,1.37,8.01,2.18,2.69.86,5.42,1.77,8.06,2.84,1.32.51,2.69,1.06,3.95,1.67,1.32.61,2.64,1.12,3.85,1.77,2.53,1.27,5.02,2.48,7.3,3.9,2.33,1.32,4.51,2.74,6.59,4.06,2.03,1.42,3.9,2.74,5.63,4.06,1.67,1.32,3.24,2.48,4.56,3.65s2.43,2.13,3.4,2.99c1.83,1.72,2.84,2.74,2.84,2.74,0,0,1.06.96,2.74,2.79.86.91,1.93,1.98,3.04,3.35,1.12,1.32,2.43,2.79,3.7,4.51,1.32,1.67,2.74,3.5,4.06,5.58,1.42,1.98,2.74,4.21,4.11,6.49.71,1.17,1.32,2.38,1.98,3.55.66,1.22,1.27,2.43,1.88,3.7,1.27,2.48,2.28,5.12,3.35,7.76.96,2.69,1.93,5.32,2.64,8.01.81,2.64,1.37,5.32,1.93,7.91.46,2.59.96,5.07,1.17,7.5.1,1.22.25,2.33.35,3.45s.1,2.23.2,3.24c.15,2.08.1,4.01.1,5.68s0,3.14-.15,4.36c-.2,2.38-.3,3.75-.3,3.75h4.16s.2-1.42.51-3.9c.2-1.27.3-2.79.41-4.56.1-1.77.2-3.75.15-5.98,0-1.12,0-2.23-.05-3.45h.1Z"/>
            <path class="cls-9" d="m350.66,285.73c-.25-1.37-.56-2.94-1.01-4.61-.35-1.67-.86-3.45-1.47-5.32-.51-1.88-1.27-3.8-1.98-5.83-.81-1.98-1.57-4.01-2.53-5.98-.86-2.03-1.98-4.01-2.99-5.98-1.12-1.93-2.23-3.85-3.45-5.73-1.12-1.88-2.48-3.6-3.65-5.27-2.53-3.3-5.02-6.24-7.35-8.62-1.12-1.22-2.28-2.23-3.19-3.19-.91-.96-1.88-1.67-2.59-2.33-1.42-1.32-2.28-1.98-2.28-1.98,0,0-.86-.71-2.33-1.93-.76-.56-1.72-1.27-2.79-2.08s-2.33-1.62-3.7-2.54-2.89-1.83-4.51-2.79c-1.67-.91-3.35-1.93-5.22-2.84-1.83-.96-3.75-1.83-5.73-2.69-1.98-.81-4.01-1.72-6.08-2.38-1.01-.35-2.08-.76-3.09-1.06-1.01-.3-2.08-.66-3.09-.96-2.08-.61-4.11-1.17-6.13-1.57-1.98-.46-3.95-.86-5.78-1.17-1.83-.35-3.6-.56-5.27-.81-1.62-.25-3.14-.35-4.46-.46-1.32-.15-2.48-.2-3.45-.25-1.93-.1-3.04-.2-3.04-.2,0,0-1.12.05-3.04.2-.96,0-2.13.1-3.45.25-1.32.15-2.84.2-4.46.46-1.62.2-3.4.41-5.27.81-1.88.3-3.8.71-5.78,1.17s-4.06,1.01-6.13,1.57c-1.01.3-2.08.61-3.09.96s-2.08.71-3.09,1.06c-2.08.66-4.06,1.57-6.08,2.38-1.98.86-3.9,1.72-5.73,2.69-1.88.86-3.55,1.93-5.22,2.84-1.62.96-3.14,1.88-4.51,2.79-1.32.96-2.64,1.72-3.7,2.54s-2.03,1.47-2.79,2.08c-1.47,1.22-2.33,1.93-2.33,1.93,0,0-.86.66-2.28,1.98-.71.66-1.62,1.37-2.59,2.33-.91.96-2.08,1.98-3.19,3.19-2.28,2.38-4.82,5.32-7.35,8.62-1.17,1.67-2.54,3.4-3.65,5.27-1.22,1.83-2.33,3.75-3.45,5.73-1.01,1.98-2.13,3.95-2.99,5.98-.96,1.98-1.72,4.06-2.53,5.98-.71,1.98-1.42,3.9-1.98,5.83-.56,1.88-1.06,3.65-1.47,5.32-.46,1.67-.76,3.24-1.01,4.61-.3,1.37-.51,2.59-.61,3.6-.3,2.03-.51,3.19-.51,3.19h4.16s.25-1.12.71-3.04c.2-.96.51-2.13.86-3.4.3-1.32.71-2.74,1.27-4.31.46-1.57,1.06-3.24,1.67-4.97s1.42-3.55,2.18-5.37c.86-1.83,1.67-3.7,2.69-5.53.91-1.88,2.03-3.65,3.09-5.42,1.12-1.77,2.23-3.5,3.45-5.17,1.12-1.67,2.43-3.19,3.6-4.77,1.27-1.47,2.43-2.89,3.65-4.16,1.17-1.32,2.38-2.48,3.45-3.55,1.06-1.12,2.18-1.98,3.04-2.84.91-.86,1.77-1.52,2.43-2.08,1.32-1.17,2.18-1.72,2.18-1.72,0,0,.81-.61,2.18-1.72.71-.51,1.62-1.12,2.64-1.83s2.23-1.42,3.45-2.28c1.27-.81,2.74-1.62,4.21-2.48,1.52-.81,3.09-1.72,4.82-2.48,1.67-.86,3.45-1.62,5.27-2.38,1.88-.71,3.7-1.52,5.58-2.13l2.84-.96c.96-.3,1.93-.56,2.84-.86,1.88-.51,3.8-1.01,5.63-1.42,1.83-.41,3.6-.81,5.32-1.06,1.67-.35,3.35-.56,4.82-.76,1.47-.25,2.89-.35,4.11-.51s2.28-.25,3.19-.3c1.77-.15,2.79-.25,2.79-.25,0,0,1.01.1,2.79.25.86.05,1.98.15,3.19.3,1.22.15,2.64.25,4.11.51,1.52.2,3.14.41,4.82.76,1.72.25,3.5.66,5.32,1.06,1.83.41,3.7.91,5.63,1.42.96.3,1.93.56,2.84.86l2.84.96c1.93.61,3.75,1.42,5.58,2.13,1.83.76,3.6,1.57,5.27,2.38,1.72.76,3.3,1.67,4.82,2.48,1.52.86,2.94,1.67,4.21,2.48,1.27.86,2.48,1.52,3.45,2.28,1.01.71,1.88,1.32,2.64,1.83,1.42,1.06,2.18,1.72,2.18,1.72,0,0,.86.61,2.18,1.72.66.61,1.57,1.22,2.43,2.08s1.98,1.72,3.04,2.84c1.06,1.06,2.28,2.23,3.45,3.55,1.27,1.27,2.38,2.69,3.65,4.16,1.17,1.52,2.48,3.04,3.6,4.77,1.22,1.67,2.33,3.4,3.45,5.17,1.01,1.83,2.18,3.6,3.09,5.42,1.01,1.83,1.83,3.7,2.69,5.53.76,1.83,1.57,3.6,2.18,5.37.66,1.72,1.27,3.4,1.67,4.97.51,1.57.91,3.04,1.27,4.31.35,1.32.66,2.43.86,3.4.46,1.93.71,3.04.71,3.04h4.16s-.2-1.17-.51-3.19c-.1-1.01-.35-2.23-.61-3.6h.41Z"/>
          </g>
          <g>
            <path class="cls-7" d="m335.1,212.46s-1.77-.1-4.41-.1c-2.69.05-6.13.2-9.63.66-1.72.2-3.45.51-5.02.76-1.62.3-3.09.66-4.31.91-2.48.56-4.11,1.12-4.11,1.12,0,0-.35-1.77-.91-4.41-.66-2.59-1.57-6.24-2.79-9.84-.61-1.77-1.22-3.65-1.88-5.32-.66-1.67-1.32-3.24-1.93-4.66-.61-1.37-1.12-2.53-1.47-3.3-.35-.81-.61-1.22-.61-1.22,0,0-1.88.76-4.56,1.93-2.74,1.32-6.13,2.94-9.48,4.97-3.3,1.93-6.44,4.06-8.67,5.73-1.12.81-2.03,1.52-2.69,2.03-.61.51-.96.81-.96.81,0,0-.86-1.47-2.33-3.7-1.47-2.13-3.5-5.07-5.78-7.81-2.28-2.74-4.72-5.48-6.64-7.35-1.93-1.93-3.3-3.19-3.3-3.19v5.32s1.32,1.27,3.14,3.19c1.83,1.88,4.21,4.66,6.34,7.4,2.13,2.79,4.11,5.68,5.42,7.81,1.37,2.23,2.18,3.65,2.18,3.65,0,0,.35-.3.96-.81s1.47-1.22,2.54-2.03c2.13-1.67,5.12-3.85,8.31-5.78,3.19-2.08,6.49-3.75,9.13-5.12,2.59-1.22,4.41-1.98,4.41-1.98,0,0,.2.46.56,1.22s.86,1.88,1.37,3.24c.56,1.37,1.17,2.89,1.77,4.56s1.17,3.5,1.72,5.22c1.12,3.5,1.93,7.05,2.48,9.58.51,2.59.81,4.31.81,4.31,0,0,1.57-.56,4.01-1.22,1.22-.3,2.64-.71,4.21-1.06,1.52-.3,3.19-.61,4.92-.91,3.4-.56,6.79-.81,9.43-.91,2.59-.1,4.36,0,4.36,0l3.35-3.65.05-.05Z"/>
            <path class="cls-7" d="m364.55,289.27c-.91-1.93-2.54-4.36-4.26-6.69-1.83-2.33-3.7-4.46-5.37-5.98-1.62-1.52-2.74-2.43-2.74-2.43,0,0,.15-.35.41-.96s.61-1.47,1.01-2.53c.91-2.18,1.98-5.12,3.09-8.26,1.01-3.14,2.13-6.49,2.79-9.08.35-1.32.66-2.38.86-3.19.2-.76.3-1.22.3-1.22,0,0-1.52-.91-3.8-2.13-2.28-1.22-5.48-2.69-8.72-3.85-1.62-.56-3.3-1.12-4.82-1.57-1.57-.41-3.04-.76-4.31-1.01-2.48-.56-4.21-.76-4.21-.76,0,0,.15-1.57.41-3.95.15-2.33.41-5.68.46-9.08v-5.07c-.1-1.67-.15-3.19-.2-4.51-.15-2.74-.35-4.51-.35-4.51l-3.35,3.65s.2,1.72.25,4.36c0,1.27.1,2.79.15,4.36,0,1.57,0,3.3-.05,4.92-.05,3.24-.35,6.49-.56,8.72-.25,2.28-.46,3.8-.46,3.8,0,0,1.72.15,4.21.61,1.27.2,2.69.51,4.26.86,1.52.41,3.14.86,4.82,1.37,3.24,1.06,6.44,2.33,8.72,3.5,2.28,1.12,3.8,1.98,3.8,1.98,0,0-.1.41-.3,1.17-.2.76-.51,1.77-.86,3.04-.66,2.48-1.72,5.73-2.69,8.72-1.12,3.04-2.13,5.88-2.99,7.96-.41,1.01-.71,1.88-.96,2.43s-.41.91-.41.91c0,0,1.17.86,2.79,2.33,1.67,1.42,3.65,3.5,5.58,5.73,1.77,2.23,3.5,4.61,4.51,6.44,1.06,1.83,1.67,3.14,1.67,3.14h2.84s-.56-1.32-1.57-3.24l.05.05Z"/>
            <path class="cls-7" d="m243.63,190.97c-2.28,2.79-4.31,5.68-5.78,7.81-1.42,2.23-2.33,3.7-2.33,3.7,0,0-.35-.3-.96-.81-.66-.51-1.57-1.22-2.69-2.03-2.23-1.62-5.37-3.8-8.67-5.73-3.3-2.03-6.74-3.65-9.48-4.97-2.69-1.17-4.56-1.93-4.56-1.93,0,0-.2.46-.61,1.22-.41.76-.91,1.93-1.47,3.3-.61,1.37-1.27,2.94-1.93,4.66-.66,1.72-1.27,3.55-1.88,5.32-1.22,3.6-2.13,7.2-2.79,9.84-.56,2.64-.91,4.41-.91,4.41,0,0-1.62-.51-4.11-1.12-1.27-.3-2.74-.61-4.31-.91-1.57-.25-3.3-.51-5.02-.76-3.5-.46-6.95-.61-9.63-.66-2.64,0-4.41.1-4.41.1l3.35,3.65h4.36c2.64.15,6.03.35,9.43.91,1.67.25,3.35.56,4.92.91s2.99.71,4.21,1.06c2.43.66,4.01,1.22,4.01,1.22,0,0,.3-1.72.81-4.31.56-2.53,1.42-6.08,2.48-9.58.56-1.77,1.12-3.55,1.72-5.22.61-1.67,1.22-3.19,1.77-4.56.56-1.37,1.01-2.48,1.37-3.24.35-.76.56-1.22.56-1.22,0,0,1.83.76,4.41,1.98,2.64,1.37,5.93,3.04,9.13,5.12,3.19,1.98,6.19,4.16,8.31,5.78,1.06.81,1.93,1.52,2.54,2.03.61.51.96.81.96.81,0,0,.81-1.47,2.18-3.65,1.37-2.13,3.3-5.02,5.42-7.81,2.13-2.74,4.46-5.53,6.34-7.4,1.83-1.93,3.14-3.19,3.14-3.19v-5.32s-1.37,1.27-3.3,3.19c-1.93,1.88-4.41,4.61-6.64,7.35l.05.05Z"/>
            <path class="cls-7" d="m175.09,229.8c0-1.62-.05-3.35-.05-4.92s.1-3.09.15-4.36c.1-2.64.25-4.36.25-4.36l-3.35-3.65s-.2,1.77-.35,4.51c-.05,1.32-.15,2.84-.2,4.51v5.07c0,3.4.25,6.69.46,9.08.25,2.38.41,3.95.41,3.95,0,0-1.72.2-4.21.76-1.27.25-2.74.61-4.31,1.01-1.52.46-3.19.96-4.82,1.57-3.24,1.17-6.44,2.59-8.72,3.85-2.28,1.22-3.8,2.13-3.8,2.13,0,0,.1.46.3,1.22.2.76.51,1.88.86,3.19.66,2.59,1.77,5.93,2.79,9.08,1.17,3.19,2.18,6.13,3.09,8.26.41,1.06.76,1.93,1.01,2.53.25.61.41.96.41.96,0,0-1.12.91-2.74,2.43-1.62,1.52-3.55,3.65-5.37,5.98-1.72,2.33-3.35,4.77-4.26,6.69-1.01,1.93-1.57,3.24-1.57,3.24h2.84s.61-1.27,1.67-3.14c1.01-1.88,2.74-4.21,4.51-6.44,1.93-2.23,3.85-4.31,5.58-5.73,1.67-1.42,2.79-2.33,2.79-2.33,0,0-.15-.35-.41-.91-.25-.61-.56-1.42-.96-2.43-.86-2.08-1.88-4.92-2.99-7.96-.96-2.99-2.08-6.24-2.69-8.72-.35-1.27-.66-2.33-.86-3.04-.2-.76-.3-1.17-.3-1.17,0,0,1.52-.86,3.8-1.98,2.28-1.17,5.48-2.43,8.72-3.5,1.62-.51,3.3-.96,4.82-1.37,1.57-.35,3.04-.66,4.26-.86,2.48-.46,4.21-.61,4.21-.61,0,0-.2-1.52-.46-3.8-.2-2.28-.51-5.48-.56-8.72l.05-.05Z"/>
          </g>
          <path class="cls-5" d="m164.95,249.07s-2.48.76-4.87,1.72c-2.38.96-4.72,2.13-4.72,2.13,0,0,.15.61.46,1.57.25.91.61,2.13.96,3.35.35,1.17.71,2.38,1.01,3.24.3.86.51,1.42.51,1.42,0,0,.35-.86.86-2.18.61-1.27,1.37-2.99,2.18-4.66.91-1.67,1.72-3.35,2.43-4.56.71-1.22,1.17-2.03,1.17-2.03Z"/>
          <path class="cls-7" d="m143.4,279.44s.35-.46.91-1.22c.56-.71,1.32-1.62,2.18-2.53,1.67-1.77,3.45-3.45,3.45-3.45,0,0-.96-2.28-1.88-4.61-.51-1.22-.91-2.38-1.27-3.3s-.56-1.57-.56-1.57c0,0-.25,1.01-.66,2.59-.35,1.52-.76,3.65-1.17,5.68-.3,2.08-.61,4.16-.81,5.73-.15,1.57-.2,2.64-.2,2.64v.05Z"/>
          <path class="cls-7" d="m155.97,239.08s.66-.2,1.57-.56c.96-.35,2.23-.76,3.55-1.12s2.64-.71,3.6-.91c.96-.25,1.67-.35,1.67-.35,0,0-.25-2.74-.51-5.48-.15-2.74-.25-5.63-.25-5.63,0,0-.66.86-1.67,2.08s-2.23,2.99-3.45,4.72c-1.22,1.77-2.33,3.6-3.19,4.92-.81,1.37-1.32,2.33-1.32,2.33Z"/>
          <g>
            <path class="cls-4" d="m322.52,220.42c-2.79.3-5.48.71-5.48.71,0,0,1.47,1.17,2.94,2.28,1.42,1.17,2.84,2.43,2.84,2.43l5.27-5.78s-2.79.05-5.58.35Z"/>
            <path class="cls-4" d="m257.47,195.83c-1.88-2.18-3.85-4.31-3.85-4.31v8.37s1.88.1,3.75.15c.91,0,1.88.05,2.53.15.71.05,1.17.1,1.17.1,0,0-.46-.56-1.06-1.42-.66-.86-1.57-1.98-2.48-3.04h-.05Z"/>
            <path class="cls-4" d="m357.71,288.57c-.61-.96-1.37-1.88-1.93-2.53s-.91-1.12-.91-1.12c0,0,.05.46.15,1.17s.25,1.67.3,2.59c.15,1.93.35,3.8.35,3.8h4.51s-1.17-2.03-2.43-3.9h-.05Z"/>
            <path class="cls-4" d="m328.2,221.84c-.05-1.06-.1-1.72-.1-1.72l-5.27,5.78s.35.3.86.76,1.17,1.12,1.88,1.72c.66.66,1.37,1.27,1.88,1.77.51.51.81.86.81.86,0,0,0-.66.05-1.67v-3.7c0-1.37,0-2.74-.1-3.8h0Z"/>
            <path class="cls-4" d="m179.09,220.12l5.27,5.78s1.42-1.22,2.84-2.43c1.47-1.17,2.94-2.28,2.94-2.28,0,0-2.69-.46-5.48-.71-2.74-.25-5.58-.35-5.58-.35Z"/>
            <path class="cls-4" d="m247.23,198.88c-.66.86-1.06,1.42-1.06,1.42,0,0,.46,0,1.17-.1.71-.05,1.62-.15,2.54-.15,1.88-.1,3.75-.15,3.75-.15v-8.37s-2.03,2.13-3.85,4.31c-.91,1.06-1.83,2.18-2.48,3.04h-.05Z"/>
            <path class="cls-4" d="m149.48,288.57c-1.32,1.88-2.43,3.9-2.43,3.9h4.51s.15-1.93.35-3.8c.05-.96.2-1.88.3-2.59.1-.71.15-1.17.15-1.17,0,0-.35.46-.91,1.12s-1.27,1.62-1.93,2.53h-.05Z"/>
            <path class="cls-4" d="m178.99,221.84c0,1.06-.05,2.43-.1,3.8v3.7c0,1.01.05,1.67.05,1.67,0,0,.3-.35.81-.86s1.17-1.12,1.88-1.77c.66-.66,1.37-1.27,1.88-1.72s.86-.76.86-.76l-5.27-5.78s0,.71-.1,1.72Z"/>
          </g>
        </g>
        <g>
          <g>
            <path class="cls-2" d="m149.94,312.29c0,1.47-1.22,2.69-2.69,2.69h0c-1.47,0-2.69-1.22-2.69-2.69v-17.09c0-1.47,1.22-2.69,2.69-2.69h0c1.47,0,2.69,1.22,2.69,2.69v17.09Z"/>
            <g>
              <path class="cls-5" d="m147.25,512s19.77-22.71,20.23-69.92c.46-47.15-20.23-108.9-20.23-108.9,0,0-20.69,61.75-20.23,108.9.46,47.2,20.23,69.92,20.23,69.92Z"/>
              <path class="cls-4" d="m127.73,455.57c9.18-14.2,16.98-24.49,19.52-27.78,2.54,3.3,10.34,13.59,19.52,27.78.1-1.22.2-2.43.3-3.65-10.49-16.02-18.86-26.52-18.96-26.67l-.86-1.12-.86,1.12s-8.47,10.65-18.96,26.67c.1,1.22.2,2.43.3,3.65Z"/>
              <path class="cls-13" d="m147.25,319.34s-4.21,13.13-4.31,40.36c-.1,27.23,4.31,62.87,4.31,62.87,0,0,4.41-35.64,4.31-62.87s-4.31-40.36-4.31-40.36Z"/>
              <path class="cls-9" d="m166.11,461.65c-10.09-16.22-18.81-27.18-18.81-27.18,0,0-8.77,11-18.86,27.18,4.56,33.87,18.86,50.35,18.86,50.35,0,0,14.25-16.43,18.81-50.35Z"/>
              <path class="cls-12" d="m127.02,442.08c.46,47.2,20.23,69.92,20.23,69.92v-178.82s-20.69,61.75-20.23,108.9Z"/>
            </g>
            <path class="cls-9" d="m155.31,333.49c0,2.79-2.28,5.07-5.07,5.07h-5.98c-2.79,0-5.07-2.28-5.07-5.07h0c0-2.79,2.28-5.07,5.07-5.07h5.98c2.79,0,5.07,2.28,5.07,5.07h0Z"/>
            <path class="cls-2" d="m161.04,323.35c0,2.79-2.28,5.07-5.07,5.07h-17.44c-2.79,0-5.07-2.28-5.07-5.07h0c0-2.79,2.28-5.07,5.07-5.07h17.44c2.79,0,5.07,2.28,5.07,5.07h0Z"/>
            <path class="cls-9" d="m155.31,313.15c0,2.79-2.28,5.07-5.07,5.07h-5.98c-2.79,0-5.07-2.28-5.07-5.07h0c0-2.79,2.28-5.07,5.07-5.07h5.98c2.79,0,5.07,2.28,5.07,5.07h0Z"/>
          </g>
          <g>
            <path class="cls-2" d="m136.05,308.69c-.46,1.17-1.77,1.72-2.89,1.27h0c-1.17-.46-1.72-1.77-1.27-2.89l5.22-13.18c.46-1.17,1.77-1.72,2.89-1.27h0c1.17.46,1.67,1.72,1.27,2.89l-5.22,13.18Z"/>
            <g>
              <path class="cls-7" d="m72.77,461.71s22.21-11.46,37.01-47.66c14.8-36.2,17.85-90.09,17.85-90.09,0,0-34.83,41.22-48.98,77.67-14.09,36.45-5.88,60.03-5.88,60.03v.05Z"/>
              <path class="cls-10" d="m75,412.27c11.41-8.11,20.58-13.69,23.58-15.41.96,3.3,3.8,13.64,6.49,27.38.46-.86.91-1.77,1.32-2.74-3.14-15.56-6.39-26.21-6.44-26.31l-.35-1.12-1.01.56s-9.79,5.58-22.76,14.7c-.3.96-.61,1.93-.91,2.89l.1.05Z"/>
              <path class="cls-13" d="m131.84,313.31s-7.25,8.82-15.67,29.76-15.97,49.74-15.97,49.74c0,0,14.3-26.11,22.61-47.1,8.26-20.99,9.08-32.4,9.08-32.4h-.05Z"/>
              <path class="cls-2" d="m102.69,428.7c-2.79-15.56-6.19-26.72-6.19-26.72,0,0-10.14,5.78-22.87,15.16-6.9,27.48-.91,44.51-.91,44.51,0,0,16.02-8.26,29.91-32.96h.05Z"/>
              <path class="cls-12" d="m78.6,401.63c-14.09,36.45-5.88,60.03-5.88,60.03l54.81-137.7s-34.83,41.22-48.98,77.67h.05Z"/>
            </g>
            <path class="cls-9" d="m133.71,326.69c-.86,2.18-3.3,3.19-5.48,2.33l-4.61-1.83c-2.18-.86-3.19-3.3-2.33-5.48h0c.86-2.18,3.3-3.19,5.48-2.33l4.61,1.83c2.18.86,3.19,3.3,2.33,5.48h0Z"/>
            <path class="cls-2" d="m141.22,320.61c-.86,2.18-3.3,3.19-5.48,2.33l-13.44-5.32c-2.18-.86-3.19-3.3-2.33-5.48h0c.86-2.18,3.3-3.19,5.48-2.33l13.44,5.32c2.18.86,3.19,3.3,2.33,5.48h0Z"/>
            <path class="cls-9" d="m139.95,311.03c-.86,2.18-3.3,3.19-5.48,2.33l-4.61-1.83c-2.18-.86-3.19-3.3-2.33-5.48h0c.86-2.18,3.3-3.19,5.48-2.33l4.61,1.83c2.18.86,3.19,3.3,2.33,5.48h0Z"/>
          </g>
          <path class="cls-2" d="m163.12,293.08c0,1.57-1.27,2.84-2.84,2.84h-26.06c-1.57,0-2.84-1.27-2.84-2.84h0c0-1.57,1.27-2.84,2.84-2.84h26.06c1.57,0,2.84,1.27,2.84,2.84h0Z"/>
          <g>
            <path class="cls-2" d="m357.25,312.29c0,1.47,1.22,2.69,2.69,2.69h0c1.47,0,2.69-1.22,2.69-2.69v-17.09c0-1.47-1.22-2.69-2.69-2.69h0c-1.47,0-2.69,1.22-2.69,2.69v17.09Z"/>
            <g>
              <path class="cls-5" d="m359.94,512s-19.77-22.71-20.23-69.92c-.46-47.15,20.23-108.9,20.23-108.9,0,0,20.69,61.75,20.23,108.9-.46,47.2-20.23,69.92-20.23,69.92Z"/>
              <path class="cls-4" d="m379.46,455.57c-9.18-14.2-16.98-24.49-19.52-27.78-2.53,3.3-10.34,13.59-19.52,27.78-.1-1.22-.2-2.43-.3-3.65,10.49-16.02,18.86-26.52,18.96-26.67l.86-1.12.86,1.12s8.47,10.65,18.96,26.67c-.1,1.22-.2,2.43-.3,3.65Z"/>
              <path class="cls-13" d="m359.94,319.34s4.21,13.13,4.31,40.36c.1,27.23-4.31,62.87-4.31,62.87,0,0-4.41-35.64-4.31-62.87.1-27.23,4.31-40.36,4.31-40.36Z"/>
              <path class="cls-9" d="m341.08,461.65c10.09-16.22,18.81-27.18,18.81-27.18,0,0,8.77,11,18.86,27.18-4.56,33.87-18.86,50.35-18.86,50.35,0,0-14.25-16.43-18.81-50.35Z"/>
              <path class="cls-12" d="m380.17,442.08c-.46,47.2-20.23,69.92-20.23,69.92v-178.82s20.69,61.75,20.23,108.9Z"/>
            </g>
            <path class="cls-9" d="m351.88,333.49c0,2.79,2.28,5.07,5.07,5.07h5.98c2.79,0,5.07-2.28,5.07-5.07h0c0-2.79-2.28-5.07-5.07-5.07h-5.98c-2.79,0-5.07,2.28-5.07,5.07h0Z"/>
            <path class="cls-2" d="m346.15,323.35c0,2.79,2.28,5.07,5.07,5.07h17.44c2.79,0,5.07-2.28,5.07-5.07h0c0-2.79-2.28-5.07-5.07-5.07h-17.44c-2.79,0-5.07,2.28-5.07,5.07h0Z"/>
            <path class="cls-9" d="m351.88,313.15c0,2.79,2.28,5.07,5.07,5.07h5.98c2.79,0,5.07-2.28,5.07-5.07h0c0-2.79-2.28-5.07-5.07-5.07h-5.98c-2.79,0-5.07,2.28-5.07,5.07h0Z"/>
          </g>
          <g>
            <path class="cls-2" d="m371.09,308.69c.46,1.17,1.77,1.72,2.89,1.27h0c1.17-.46,1.72-1.77,1.27-2.89l-5.22-13.18c-.46-1.17-1.77-1.72-2.89-1.27h0c-1.17.46-1.67,1.72-1.27,2.89l5.22,13.18Z"/>
            <g>
              <path class="cls-7" d="m434.42,461.71s-22.21-11.46-37.01-47.66c-14.8-36.2-17.85-90.09-17.85-90.09,0,0,34.83,41.22,48.98,77.67,14.09,36.45,5.88,60.03,5.88,60.03v.05Z"/>
              <path class="cls-10" d="m432.14,412.27c-11.41-8.11-20.58-13.69-23.58-15.41-.96,3.3-3.8,13.64-6.49,27.38-.46-.86-.91-1.77-1.32-2.74,3.14-15.56,6.39-26.21,6.44-26.31l.35-1.12,1.01.56s9.79,5.58,22.76,14.7c.3.96.61,1.93.91,2.89l-.1.05Z"/>
              <path class="cls-13" d="m375.35,313.31s7.25,8.82,15.67,29.76c8.42,20.94,15.97,49.74,15.97,49.74,0,0-14.3-26.11-22.61-47.1-8.26-20.99-9.08-32.4-9.08-32.4h.05Z"/>
              <path class="cls-2" d="m404.5,428.7c2.79-15.56,6.19-26.72,6.19-26.72,0,0,10.14,5.78,22.87,15.16,6.9,27.48.91,44.51.91,44.51,0,0-16.02-8.26-29.91-32.96h-.05Z"/>
              <path class="cls-12" d="m428.54,401.63c14.09,36.45,5.88,60.03,5.88,60.03l-54.81-137.7s34.83,41.22,48.98,77.67h-.05Z"/>
            </g>
            <path class="cls-9" d="m373.48,326.69c.86,2.18,3.3,3.19,5.48,2.33l4.61-1.83c2.18-.86,3.19-3.3,2.33-5.48h0c-.86-2.18-3.3-3.19-5.48-2.33l-4.61,1.83c-2.18.86-3.19,3.3-2.33,5.48h0Z"/>
            <path class="cls-2" d="m365.97,320.61c.86,2.18,3.3,3.19,5.48,2.33l13.44-5.32c2.18-.86,3.19-3.3,2.33-5.48h0c-.86-2.18-3.3-3.19-5.48-2.33l-13.44,5.32c-2.18.86-3.19,3.3-2.33,5.48h0Z"/>
            <path class="cls-9" d="m367.24,311.03c.86,2.18,3.3,3.19,5.48,2.33l4.61-1.83c2.18-.86,3.19-3.3,2.33-5.48h0c-.86-2.18-3.3-3.19-5.48-2.33l-4.61,1.83c-2.18.86-3.19,3.3-2.33,5.48h0Z"/>
          </g>
          <path class="cls-2" d="m344.07,293.08c0,1.57,1.27,2.84,2.84,2.84h26.06c1.57,0,2.84-1.27,2.84-2.84h0c0-1.57-1.27-2.84-2.84-2.84h-26.06c-1.57,0-2.84,1.27-2.84,2.84h0Z"/>
        </g>
      </g>
    </g>
  </g>
</svg>