<?xml version="1.0" encoding="UTF-8"?>
<svg xmlns="http://www.w3.org/2000/svg" viewBox="0 0 500 575">
  <defs>
    <style>
      .cls-1 {
        fill: #3e748a;
      }

      .cls-1, .cls-2, .cls-3, .cls-4, .cls-5, .cls-6, .cls-7, .cls-8, .cls-9 {
        stroke-width: 0px;
      }

      .cls-2 {
        fill: #262626;
      }

      .cls-3 {
        fill: #241816;
      }

      .cls-4 {
        fill: #fff;
      }

      .cls-5 {
        fill: #5da0ff;
      }

      .cls-6 {
        fill: #f4d075;
      }

      .cls-7 {
        fill: #7fb2c1;
      }

      .cls-8 {
        fill: #e7d8b4;
      }

      .cls-9 {
        fill: #cf9e76;
      }

      .cls-10 {
        fill: #fcd770;
        stroke: #000;
        stroke-miterlimit: 10;
      }
    </style>
  </defs>
  <g id="Capa_1" data-name="Capa 1">
    <g>
      <path class="cls-8" d="m250,573c-66.51,0-129.04-25.9-176.07-72.93C26.9,453.04,1,390.51,1,324s25.9-129.04,72.93-176.07c47.03-47.03,109.56-72.93,176.07-72.93s129.04,25.9,176.07,72.93c47.03,47.03,72.93,109.56,72.93,176.07s-25.9,129.04-72.93,176.07c-47.03,47.03-109.56,72.93-176.07,72.93Z"/>
      <path class="cls-3" d="m250,76c33.48,0,65.96,6.56,96.53,19.49,29.53,12.49,56.05,30.37,78.83,53.15,22.78,22.78,40.66,49.3,53.15,78.83,12.93,30.57,19.49,63.05,19.49,96.53s-6.56,65.96-19.49,96.53c-12.49,29.53-30.37,56.05-53.15,78.83-22.78,22.78-49.3,40.66-78.83,53.15-30.57,12.93-63.05,19.49-96.53,19.49s-65.96-6.56-96.53-19.49c-29.53-12.49-56.05-30.37-78.83-53.15-22.78-22.78-40.66-49.3-53.15-78.83-12.93-30.57-19.49-63.05-19.49-96.53s6.56-65.96,19.49-96.53c12.49-29.53,30.37-56.05,53.15-78.83s49.3-40.66,78.83-53.15c30.57-12.93,63.05-19.49,96.53-19.49m0-2C111.93,74,0,185.93,0,324s111.93,250,250,250,250-111.93,250-250-111.93-250-250-250h0Z"/>
    </g>
  </g>
  <g id="Capa_2" data-name="Capa 2">
    <g>
      <path class="cls-1" d="m295.15,562.05c-1.87,0-3.4-1.51-3.4-3.38,0-1.05.48-2.04,1.31-2.69l11.53-9-20.12,11.62c-1.62.93-3.7.38-4.63-1.25-.83-1.44-.49-3.28.81-4.33l33.15-26.61-39.6,22.85c-1.63.92-3.7.33-4.62-1.3-.83-1.49-.43-3.37.94-4.38l26.37-18.99-26.46,15.28c-1.56.9-3.55.43-4.54-1.08-.99-1.51-.62-3.53.83-4.59l37.81-27.74-34.67,20.02c-1.62.93-3.7.37-4.63-1.25-.86-1.5-.45-3.41.95-4.43l37.54-27.21-34.02,19.67c-1.65.89-3.7.28-4.6-1.37-.81-1.51-.38-3.38,1.01-4.37l6.87-4.6-5.27,3.04c-1.64.9-3.7.3-4.6-1.34-.82-1.49-.41-3.36.96-4.36l31.2-21.84-33.91,19.57c-1.62.93-3.7.37-4.63-1.25-.87-1.52-.44-3.46.99-4.46l37.57-26.23-48.43,27.96c-1.62.95-3.69.4-4.64-1.21-.95-1.62-.4-3.69,1.21-4.64.01,0,.03-.01.04-.02l116.71-67.42c1.61-.96,3.69-.43,4.65,1.18.91,1.54.47,3.52-1,4.53l-37.55,26.25,33.07-19.1c1.63-.92,3.7-.35,4.62,1.28.86,1.51.43,3.43-.98,4.43l-31.2,21.82,26.35-15.21c1.65-.89,3.7-.28,4.6,1.37.81,1.51.38,3.38-1.01,4.37l-6.83,4.58,2.14-1.23c1.62-.93,3.7-.37,4.63,1.25.86,1.5.45,3.41-.95,4.43l-37.54,27.2,31.63-18.26c1.62-.94,3.7-.38,4.63,1.24.87,1.5.46,3.41-.93,4.43l-37.83,27.75,31.2-18.01c1.63-.92,3.7-.33,4.62,1.3.83,1.49.43,3.37-.94,4.38l-26.38,18.99,19.59-11.31c1.62-.93,3.7-.38,4.63,1.25.83,1.44.49,3.28-.81,4.33l-33.15,26.61,24.13-13.93c1.62-.94,3.7-.39,4.63,1.24.85,1.47.49,3.33-.85,4.37l-11.53,8.99,3.39-1.95c1.64-.9,3.7-.3,4.61,1.34.74,1.35.48,3.03-.63,4.09l-7.46,6.74c1.87.06,3.34,1.63,3.28,3.5-.04,1.17-.68,2.24-1.7,2.83l-23.86,13.79c-1.64.9-3.7.3-4.61-1.34-.74-1.35-.48-3.03.63-4.09l5.62-5.09-18.25,10.52c-.51.31-1.1.47-1.7.47h0Z"/>
      <path class="cls-1" d="m409.81,439.51c-1.87,0-3.39-1.52-3.39-3.39,0-.99.43-1.93,1.18-2.57l6.84-5.89-14.11,8.14c-1.62.93-3.7.37-4.63-1.26-.85-1.48-.47-3.36.89-4.39l.68-.5-3.39,1.97c-1.65.89-3.71.27-4.59-1.38-.72-1.34-.46-2.99.63-4.04l21.8-19.57-29.16,16.83c-1.62.94-3.69.39-4.64-1.23-.85-1.46-.5-3.31.82-4.36l15.15-12.04-19.86,11.46c-1.63.92-3.7.35-4.62-1.27-.83-1.46-.47-3.3.85-4.33l14.44-11.24-18.88,10.9c-1.58,1-3.68.54-4.68-1.04-1-1.58-.54-3.68,1.04-4.68.08-.05.16-.1.25-.14l61.45-35.49c1.62-.94,3.69-.4,4.64,1.22.86,1.47.49,3.35-.86,4.39l-14.46,11.26,16.85-9.74c1.61-.96,3.69-.44,4.65,1.17.88,1.47.52,3.37-.84,4.42l-15.14,12.04,17.69-10.21c1.65-.89,3.71-.27,4.59,1.38.72,1.34.46,2.99-.63,4.04l-21.79,19.56,23.06-13.32c1.62-.93,3.7-.37,4.63,1.26.85,1.48.47,3.36-.89,4.39l-1.93,1.45c1.3-.23,2.61.3,3.39,1.36,1.01,1.43.77,3.39-.56,4.53l-6.86,5.9.43-.24c1.66-.87,3.71-.23,4.58,1.43.82,1.56.3,3.49-1.19,4.43l-31.73,18.31c-.51.31-1.09.47-1.68.48h0Z"/>
      <path class="cls-1" d="m188.75,562.05c-1.87,0-3.39-1.52-3.39-3.39,0-.94.39-1.83,1.07-2.47l17.37-16.45-32.02,18.49c-1.62.93-3.7.37-4.63-1.26-.82-1.44-.49-3.26.8-4.31l23.88-19.38-29.11,16.8c-1.65.88-3.71.26-4.59-1.39-.82-1.52-.35-3.42,1.07-4.4l78.42-50.29-79.71,46.03c-1.64.9-3.7.3-4.61-1.34-.85-1.55-.37-3.49,1.1-4.46l129.72-82.37-130.84,75.53c-1.64.9-3.7.31-4.61-1.33-.86-1.56-.37-3.51,1.12-4.48l83.53-51.86-83.12,47.99c-1.6.97-3.69.45-4.66-1.16-.97-1.6-.45-3.69,1.16-4.66l102.31-64.19-101.93,58.86c-1.65.89-3.7.28-4.6-1.36-.84-1.55-.35-3.49,1.12-4.45l51.54-31.74-50.18,28.98c-1.65.89-3.7.28-4.6-1.37-.83-1.53-.36-3.45,1.08-4.43l116.01-73.74-115.29,66.56c-1.66.87-3.71.24-4.58-1.42-.81-1.53-.33-3.42,1.1-4.39l80.59-50.35-79.03,45.59c-1.61.96-3.69.43-4.65-1.18-.96-1.61-.43-3.69,1.18-4.65h0l33.68-20.7-31.51,18.19c-1.65.89-3.7.28-4.6-1.37-.83-1.53-.36-3.45,1.08-4.43l99.41-63.07-97.55,56.3c-1.63.92-3.7.34-4.62-1.29-.89-1.57-.38-3.56,1.14-4.53l56.04-34.85-53.57,30.93c-1.65.89-3.7.28-4.6-1.37-.83-1.53-.36-3.45,1.08-4.43l92.91-59-90.39,52.18c-1.61.96-3.69.44-4.66-1.16-.96-1.61-.44-3.69,1.16-4.66l58.9-36.71-55.97,32.31c-1.61.96-3.69.44-4.65-1.17-.96-1.61-.44-3.69,1.17-4.65h0l30.56-18.84-27.38,15.81c-1.58,1-3.68.54-4.68-1.04-1-1.58-.54-3.68,1.04-4.68.08-.05.16-.1.25-.14l229.99-132.78c1.65-.89,3.7-.28,4.6,1.36.84,1.55.35,3.49-1.12,4.45l-30.62,18.88,27.13-15.67c1.64-.9,3.7-.31,4.61,1.33.86,1.56.37,3.51-1.12,4.48l-58.91,36.72,55.66-32.12c1.64-.9,3.7-.3,4.61,1.34.85,1.55.37,3.49-1.1,4.46l-92.85,59,93.86-54.19c1.64-.9,3.7-.31,4.61,1.33.86,1.56.37,3.51-1.12,4.48l-55.89,34.76,58.32-33.67c1.63-.93,3.7-.36,4.63,1.26.9,1.57.41,3.56-1.11,4.54l-99.43,63.08,103.8-59.93c1.61-.96,3.69-.43,4.65,1.18.96,1.61.43,3.69-1.18,4.65l-33.77,20.76,35.59-20.54c1.65-.89,3.7-.28,4.6,1.37.84,1.54.36,3.47-1.1,4.44l-80.57,50.33,83.85-48.41c1.63-.91,3.7-.33,4.61,1.31.87,1.55.39,3.51-1.09,4.49l-115.97,73.73,120.94-69.85c1.61-.97,3.71-.44,4.67,1.17s.44,3.71-1.17,4.67h0l-51.64,31.81,53.84-31.09c1.6-.97,3.69-.45,4.66,1.16.97,1.6.45,3.69-1.16,4.66l-102.36,64.18,106.4-61.43c1.65-.88,3.71-.26,4.59,1.39.82,1.54.34,3.45-1.11,4.42l-83.53,51.87,86.72-50.08c1.66-.87,3.71-.24,4.58,1.41.8,1.52.34,3.4-1.08,4.38l-129.78,82.41,66.75-38.54c1.62-.95,3.69-.4,4.64,1.21.92,1.58.43,3.6-1.11,4.58l-134.03,85.94v.04c1,1.46.7,3.45-.68,4.56l-23.87,19.36,19.87-11.47c1.6-.97,3.69-.46,4.66,1.14.85,1.4.58,3.2-.64,4.29l-17.39,16.46,12.84-7.41c1.62-.94,3.7-.38,4.63,1.24.77,1.34.54,3.03-.56,4.11l-6.69,6.56c.65.29,1.2.78,1.55,1.4.94,1.62.38,3.69-1.23,4.63l-16.11,9.3c-1.62.94-3.7.38-4.63-1.24-.77-1.34-.54-3.03.56-4.11l2.71-2.63-14.57,8.38c-.51.31-1.1.47-1.7.47h0Z"/>
      <path class="cls-1" d="m81.92,439.82c-1.87,0-3.39-1.52-3.39-3.39,0-1.16.6-2.24,1.58-2.86l136.58-86.28-150.29,86.8c-1.63.92-3.7.33-4.62-1.3-.87-1.56-.39-3.53,1.12-4.5l148.09-93.26-154.01,88.89c-1.61.96-3.69.43-4.65-1.18-.96-1.61-.43-3.69,1.18-4.65l78.94-48.3-78.84,45.54c-1.64.9-3.7.31-4.61-1.33-.86-1.56-.37-3.51,1.12-4.48l127-78.92-123.47,71.31c-1.64.9-3.7.3-4.61-1.34-.85-1.54-.38-3.47,1.08-4.45l146.82-92.23-126.38,72.9c-1.64.9-3.7.31-4.61-1.33-.86-1.56-.37-3.51,1.12-4.48l100.04-62.12-74.95,43.27c-1.62.94-3.7.38-4.63-1.24-.91-1.58-.41-3.6,1.14-4.57l85.58-53.39-61.16,35.31c-1.63.91-3.7.33-4.61-1.31-.87-1.55-.39-3.51,1.09-4.49l93.4-59.41-70.2,40.53c-1.63.93-3.7.36-4.62-1.27-.89-1.56-.41-3.53,1.09-4.52l84.89-55-79.93,46.12c-1.63.91-3.7.33-4.61-1.31-.86-1.54-.39-3.49,1.07-4.47l71.5-46.37-67.97,39.25c-1.65.89-3.7.28-4.6-1.37-.83-1.53-.36-3.45,1.08-4.43l34.28-21.8-30.77,17.76c-1.62.94-3.7.38-4.63-1.24-.91-1.58-.41-3.6,1.14-4.57l2.71-1.72c-1.47.4-3.03-.2-3.84-1.49-.96-1.57-.49-3.62,1.05-4.62l24.55-15.86-21.02,12.13c-1.64.9-3.7.31-4.61-1.33-.83-1.5-.4-3.39.99-4.39l45.04-30.89-38.36,22.15c-1.63.92-3.7.35-4.62-1.28-.86-1.51-.43-3.43.98-4.43l30.8-21.61-21.8,12.58c-1.62.94-3.69.39-4.63-1.23-.88-1.51-.46-3.44.96-4.46l15.42-11.07-7.15,4.12c-1.63.93-3.7.36-4.62-1.27-.75-1.31-.54-2.96.52-4.04l17.16-17.42-4.28,2.47c-1.66.87-3.71.23-4.58-1.43-.82-1.56-.3-3.49,1.19-4.43l25.97-14.99c1.62-.94,3.7-.38,4.63,1.24.76,1.32.55,2.98-.51,4.07l-17.16,17.45,44.62-25.77c1.56-.9,3.56-.42,4.54,1.09.98,1.52.6,3.54-.87,4.6l-15.45,11.07,29.07-16.76c1.64-.9,3.7-.3,4.6,1.34.82,1.49.41,3.36-.96,4.36l-30.76,21.58,47.28-27.28c1.64-.9,3.7-.31,4.61,1.33.83,1.5.4,3.39-.99,4.39l-45.03,30.9,63.46-36.62c1.63-.91,3.7-.33,4.61,1.31.86,1.54.39,3.49-1.07,4.47l-24.49,15.79,37.41-21.57c1.65-.89,3.7-.28,4.6,1.37.84,1.54.36,3.47-1.1,4.44l-.47.3,10.13-5.86c1.63-.91,3.7-.33,4.61,1.31.87,1.55.39,3.51-1.09,4.49l-34.38,21.86,43.71-25.23c1.6-.98,3.68-.48,4.66,1.12s.48,3.68-1.12,4.66l-71.4,46.32,81.03-46.79c1.6-.98,3.68-.48,4.66,1.12.98,1.6.48,3.68-1.12,4.66l-84.99,55.07,92.51-53.41c1.6-.97,3.69-.46,4.66,1.14s.46,3.69-1.14,4.66h0l-93.33,59.36,96.62-55.78c1.65-.89,3.7-.28,4.6,1.37.84,1.54.36,3.47-1.1,4.44l-85.67,53.44,85.72-49.51c1.61-.96,3.69-.44,4.65,1.17s.44,3.69-1.17,4.65l-100.02,62.12,100.2-57.85c1.63-.92,3.7-.33,4.62,1.3.87,1.56.39,3.53-1.12,4.5l-146.77,92.23,147.89-85.38c1.64-.9,3.7-.31,4.61,1.33.86,1.56.37,3.51-1.12,4.48l-126.99,78.91,127.54-73.63c1.64-.91,3.7-.31,4.61,1.33.87,1.57.37,3.54-1.14,4.5l-79.05,48.37,77.61-44.81c1.63-.92,3.7-.33,4.62,1.3.87,1.56.39,3.53-1.12,4.5l-148.09,93.25,144.59-83.49c1.63-.92,3.7-.33,4.62,1.3.87,1.56.39,3.53-1.12,4.5l-136.56,86.25,133.06-76.82c1.63-.93,3.7-.36,4.62,1.27.92,1.61.37,3.66-1.23,4.6L83.64,439.33c-.52.31-1.12.48-1.72.48h0Z"/>
      <path class="cls-6" d="m128.1,241.53c-1.87,0-3.39-1.52-3.39-3.39,0-.91.37-1.79,1.02-2.43l18.31-17.81-28.67,16.56c-1.62.94-3.7.38-4.63-1.24-.85-1.48-.48-3.35.88-4.39l8.63-6.58-12.34,7.12c-1.62.93-3.7.37-4.63-1.25-.84-1.47-.47-3.33.87-4.37l10.85-8.33-13.87,7.95c-1.65.89-3.71.27-4.59-1.38-.72-1.34-.46-2.99.63-4.04l15.8-14.17-19,10.96c-1.62.94-3.69.39-4.63-1.23-.75-1.29-.57-2.91.44-4l13.56-14.76-15.68,9.07c-1.63.92-3.7.34-4.62-1.3-.71-1.27-.53-2.86.45-3.94l7.19-7.81-6.63,3.82c-1.62.93-3.7.38-4.63-1.25-.65-1.12-.6-2.52.13-3.59l5.43-8.06-3.68,2.14c-1.26.72-2.84.57-3.94-.39-1.1-.97-1.45-2.53-.87-3.87l2.56-6.04c-1.86.24-3.56-1.07-3.8-2.93-.18-1.36.48-2.69,1.67-3.37l7.33-4.23c1.62-.93,3.7-.38,4.63,1.25.53.92.6,2.03.18,3.01l-2.39,5.65,7.73-4.46c1.62-.93,3.7-.38,4.63,1.25.65,1.12.6,2.52-.13,3.59l-5.43,8.05,13.12-7.59c1.63-.92,3.7-.35,4.62,1.27.72,1.27.55,2.87-.44,3.95l-7.2,7.82,15.63-9.03c1.62-.94,3.69-.39,4.64,1.23.75,1.29.57,2.91-.44,4l-13.6,14.77,28.04-16.19c1.62-.94,3.7-.38,4.63,1.24.8,1.39.52,3.14-.67,4.21l-15.8,14.17,29.84-17.22c1.63-.92,3.7-.34,4.62,1.29.82,1.46.45,3.3-.86,4.33l-10.81,8.31,13.83-7.98c1.63-.92,3.7-.35,4.62,1.28.83,1.46.46,3.32-.87,4.35l-8.63,6.58,6.42-3.7c1.62-.95,3.69-.4,4.64,1.22.79,1.35.55,3.06-.57,4.15l-18.28,17.81,7.87-4.54c1.66-.87,3.71-.23,4.58,1.43.82,1.56.3,3.49-1.19,4.43l-31.42,18.13c-.51.3-1.1.46-1.7.45Z"/>
      <path class="cls-6" d="m357.29,243.13c-1.87,0-3.39-1.52-3.39-3.39,0-1.07.5-2.07,1.36-2.71l7.65-5.71-12.27,7.04c-1.63.93-3.7.36-4.62-1.27-.85-1.49-.45-3.39.93-4.41l12.99-9.44-15.71,9.07c-1.62.93-3.7.37-4.63-1.26-.85-1.49-.46-3.38.92-4.41l25.09-18.46-27.53,15.88c-1.63.92-3.7.35-4.62-1.28-.86-1.51-.43-3.43.98-4.43l14.67-10.29-14.74,8.5c-1.63.92-3.7.34-4.62-1.3-.8-1.43-.47-3.22.79-4.26l6.9-5.62-5.56,3.21c-1.62.94-3.69.4-4.64-1.22-.64-1.1-.61-2.46.07-3.53l5.17-8.23c-1.71.76-3.72-.02-4.47-1.73-.7-1.59-.09-3.45,1.41-4.31l11.49-6.63c1.62-.94,3.7-.38,4.63,1.24.63,1.09.61,2.44-.07,3.51l-5.15,8.19,30.52-17.63c1.63-.92,3.7-.34,4.62,1.3.8,1.43.47,3.22-.79,4.26l-6.91,5.63,44.49-25.68c1.63-.92,3.7-.35,4.62,1.28.86,1.51.43,3.43-.98,4.43l-14.69,10.31,13.73-7.93c1.62-.93,3.7-.37,4.63,1.26.85,1.49.46,3.38-.92,4.41l-25.09,18.47,18.69-10.78c1.63-.93,3.7-.36,4.62,1.27.85,1.49.45,3.39-.93,4.41l-12.96,9.43,4.75-2.75c1.62-.93,3.7-.37,4.63,1.26.85,1.48.47,3.36-.89,4.39l-10.58,7.98c1.87,0,3.39,1.52,3.39,3.39,0,1.21-.65,2.33-1.7,2.94l-43.58,25.16c-.52.3-1.11.46-1.71.45Z"/>
      <path class="cls-4" d="m251.35,392.51c-1.87,0-3.39-1.52-3.39-3.39,0-.86.33-1.69.92-2.32l.86-.92-10.09,5.83c-1.63.93-3.7.37-4.63-1.26-.8-1.4-.51-3.16.7-4.23l3.73-3.26-7.22,4.16c-1.64.9-3.7.3-4.61-1.34-.74-1.35-.48-3.03.63-4.09l9.6-8.73-8.67,5c-1.6.97-3.69.46-4.66-1.14-.85-1.4-.58-3.2.64-4.29l2.32-2.2c-1.87,0-3.39-1.53-3.38-3.4,0-.3.04-.6.12-.89l1.8-6.58c-.61-.29-1.12-.77-1.46-1.36-.93-1.62-.38-3.69,1.23-4.63l3.39-1.97c1.62-.94,3.7-.39,4.63,1.24.45.78.58,1.72.34,2.59l-1.25,4.56,14.72-8.48c1.59-.99,3.68-.49,4.67,1.1.87,1.4.6,3.23-.64,4.33l-.9.85,10.95-6.33c1.64-.91,3.7-.32,4.61,1.31.75,1.35.49,3.05-.63,4.11l-9.59,8.72,9.99-5.76c1.63-.92,3.7-.34,4.62,1.29.78,1.39.49,3.13-.69,4.19l-3.76,3.3c1.67-.84,3.71-.17,4.55,1.51.64,1.27.42,2.8-.55,3.84l-2.67,2.84c1.85.3,3.1,2.04,2.8,3.89-.16,1-.77,1.88-1.65,2.39l-15.7,9.03c-.51.31-1.1.47-1.7.47h0Z"/>
      <path class="cls-7" d="m179.38,439.94c-1.87,0-3.39-1.52-3.39-3.39,0-.78.27-1.53.76-2.13l2.23-2.75-6.3,3.63c-1.63.93-3.7.36-4.62-1.27-.75-1.31-.54-2.97.52-4.05l2.71-2.71-2.29,1.32c-1.62.93-3.7.37-4.63-1.25-.6-1.04-.6-2.33,0-3.37l6.62-11.58c-1.67.85-3.71.19-4.56-1.48-.81-1.59-.25-3.54,1.29-4.45l10.8-6.23c1.32-.77,2.99-.55,4.07.54,1.07,1.08,1.3,2.74.54,4.07l-6.65,11.58,13.24-7.64c1.63-.93,3.7-.36,4.62,1.27.75,1.31.54,2.97-.52,4.05l-2.71,2.75.32-.18c1.63-.93,3.7-.36,4.63,1.26.69,1.21.57,2.72-.3,3.8l-4.4,5.43c.74.27,1.35.8,1.74,1.48.94,1.62.38,3.7-1.24,4.63l-10.8,6.23c-.5.3-1.08.46-1.67.47h0Z"/>
      <path class="cls-7" d="m183.48,507.33c-1.87,0-3.39-1.51-3.39-3.39,0-.85.32-1.68.9-2.3l1.3-1.42-3.57,2.03c-1.62.94-3.7.38-4.63-1.24-.69-1.19-.59-2.67.24-3.76l8.08-10.5-7.46,4.31c-1.62.93-3.7.37-4.63-1.26-.69-1.21-.58-2.71.29-3.8l4.49-5.6c-1.77-.61-2.71-2.54-2.1-4.31.27-.77.8-1.43,1.51-1.83l10.8-6.23c1.62-.93,3.7-.37,4.63,1.26.69,1.21.58,2.71-.29,3.8l-2.48,3.1,6.65-3.85c1.39-.83,3.18-.55,4.25.68,1.07,1.22,1.13,3.02.14,4.3l-8.08,10.48,8.02-4.62c1.62-.93,3.7-.37,4.63,1.25.74,1.28.56,2.89-.44,3.98l-3.19,3.47c1.84.36,3.04,2.13,2.69,3.97-.19.97-.78,1.8-1.63,2.29l-15.02,8.67c-.51.32-1.09.5-1.7.52Z"/>
      <path class="cls-7" d="m303.65,506.53c-1.87,0-3.39-1.52-3.39-3.39,0-.66.19-1.3.55-1.85l8.36-12.81-11.64,6.71c-1.62.94-3.69.4-4.64-1.22-.64-1.1-.61-2.46.07-3.53l6.22-10.02c-1.8.51-3.67-.55-4.18-2.35-.42-1.49.23-3.08,1.58-3.86l10.8-6.23c1.34-.79,3.05-.56,4.13.57,1.08,1.12,1.26,2.83.44,4.15l-6.1,9.83,12.21-7.05c1.62-.94,3.7-.38,4.63,1.24.64,1.11.6,2.48-.1,3.55l-8.33,12.81,5.38-3.11c1.58-1,3.68-.54,4.68,1.04,1,1.58.54,3.68-1.04,4.68-.08.05-.16.1-.25.14l-17.68,10.21c-.51.31-1.1.47-1.7.47h0Z"/>
      <path class="cls-7" d="m308.24,437.3c-1.87,0-3.39-1.53-3.38-3.4,0-.78.27-1.53.76-2.13l6.85-8.4-8.04,4.64c-1.62.94-3.69.39-4.63-1.23-.62-1.07-.61-2.38.02-3.44l6.46-10.8c-1.73.71-3.71-.12-4.42-1.85-.65-1.59-.01-3.42,1.49-4.25l10.8-6.23c1.33-.79,3.03-.56,4.11.56,1.08,1.1,1.29,2.79.5,4.12l-6.42,10.74,12.79-7.38c1.63-.93,3.7-.36,4.62,1.27.69,1.21.57,2.72-.31,3.81l-6.84,8.38,4.35-2.51c1.63-.93,3.7-.36,4.62,1.27.92,1.61.37,3.66-1.23,4.6l-20.4,11.79c-.51.3-1.1.46-1.7.45h0Z"/>
      <path class="cls-7" d="m250.21,453.37c-1.87,0-3.39-1.52-3.39-3.39,0-.76.26-1.5.73-2.1l5.72-7.21-15.86,9.16c-1.62.93-3.7.38-4.63-1.25-.73-1.27-.56-2.88.43-3.97l9.67-10.64-12.75,7.36c-1.62.93-3.7.38-4.63-1.25-.67-1.17-.59-2.62.21-3.7l6.23-8.42h-.06c-1.58,1-3.68.54-4.68-1.04-1-1.58-.54-3.68,1.04-4.68.08-.05.16-.1.25-.14l14.17-8.19c1.63-.93,3.7-.37,4.63,1.26.66,1.16.58,2.6-.21,3.68l-6.23,8.45,17.44-10.07c1.62-.93,3.7-.38,4.63,1.25.73,1.27.56,2.88-.43,3.97l-9.66,10.64,12.48-7.2c1.62-.93,3.7-.38,4.63,1.25.69,1.2.58,2.7-.28,3.79l-5.76,7.22c1.69-.82,3.71-.11,4.53,1.57.78,1.6.18,3.53-1.36,4.42l-15.19,8.78c-.51.3-1.08.45-1.67.45h0Z"/>
      <path class="cls-7" d="m139.11,385.73c-1.87,0-3.39-1.51-3.39-3.39,0-.78.27-1.54.76-2.15l7.05-8.65-16.21,9.37c-1.63.92-3.7.34-4.62-1.29-.74-1.32-.52-2.97.55-4.05l7.2-7.12-8.82,5.08c-1.62.93-3.7.38-4.63-1.25-.67-1.17-.59-2.62.21-3.7l6.23-8.44-.07.04c-1.58,1-3.68.54-4.68-1.04s-.54-3.68,1.04-4.68c.08-.05.16-.1.25-.14l14.17-8.19c1.63-.93,3.7-.37,4.63,1.26.66,1.16.58,2.6-.21,3.68l-6.23,8.42,17.46-10.08c1.63-.92,3.7-.34,4.62,1.29.74,1.32.52,2.97-.55,4.05l-7.19,7.11,9.43-5.43c1.62-.93,3.7-.38,4.63,1.25.7,1.22.58,2.74-.3,3.83l-7.08,8.67,2.86-1.65c1.58-1,3.68-.54,4.68,1.04,1,1.58.54,3.68-1.04,4.68-.08.05-.16.1-.25.14l-18.83,10.85c-.5.3-1.07.47-1.66.48h0Z"/>
      <path class="cls-7" d="m357.65,385.63c-1.87,0-3.39-1.52-3.39-3.39,0-.82.3-1.62.84-2.24l4.44-5.06-12.93,7.46c-1.64.91-3.7.32-4.61-1.32-.73-1.31-.51-2.95.54-4.02l7.17-7.12-10.06,5.82c-1.62.94-3.69.4-4.64-1.22-.64-1.1-.61-2.46.07-3.53l7.63-12.21-2.37,1.36c-1.58,1-3.68.54-4.68-1.04s-.54-3.68,1.04-4.68c.08-.05.16-.1.25-.14l14.17-8.19c1.62-.94,3.7-.38,4.63,1.24.63,1.09.61,2.44-.07,3.51l-7.64,12.21,20.83-12.01c1.64-.91,3.7-.32,4.61,1.32.73,1.31.51,2.95-.54,4.02l-7.15,7.11,8.14-4.71c1.62-.94,3.69-.39,4.63,1.23.73,1.26.57,2.85-.39,3.94l-4.7,5.34c1.81-.47,3.66.62,4.13,2.43.38,1.47-.26,3.01-1.57,3.78l-16.74,9.67c-.51.29-1.08.44-1.66.43h0Z"/>
      <path class="cls-4" d="m287.63,303.88c-1.87,0-3.39-1.51-3.39-3.39,0-.7.21-1.38.61-1.95l2.29-3.26-9.04,5.21c-1.62.94-3.7.38-4.63-1.24-.72-1.25-.57-2.81.37-3.9l12.25-14.24-28.63,16.52c-1.63.92-3.7.34-4.62-1.29-.82-1.46-.45-3.3.86-4.33l4.43-3.39-15.45,8.92c-1.62.94-3.69.39-4.64-1.23-.83-1.42-.51-3.24.75-4.3l27.51-23.22-59.68,34.46c-1.62.94-3.69.4-4.64-1.22-.89-1.53-.46-3.48.99-4.49l26.66-18.74-28.27,16.28c-1.61.95-3.69.42-4.65-1.19-.92-1.55-.46-3.56,1.04-4.56l10.44-7.07-9.92,5.73c-1.6.97-3.69.47-4.66-1.13-.95-1.56-.49-3.58,1.02-4.59l18.62-12.92-17.23,9.94c-1.63.92-3.7.34-4.62-1.3-.84-1.5-.43-3.4.97-4.41l17.18-12.06-14.3,8.28c-1.63.92-3.7.35-4.62-1.28-.86-1.51-.43-3.43.98-4.43l9.69-6.78-5.13,2.96c-1.63.93-3.7.36-4.62-1.27-.85-1.49-.45-3.39.93-4.41l8.04-5.85-1.07.61c-1.63.93-3.7.36-4.62-1.27-.79-1.39-.51-3.14.68-4.21l13.52-11.95c-1.82-.45-2.92-2.29-2.47-4.11.22-.89.8-1.65,1.59-2.11l23.17-13.41c1.63-.93,3.7-.36,4.62,1.27.79,1.39.51,3.14-.68,4.21l-9.93,8.81,27.46-15.87c1.63-.93,3.7-.36,4.62,1.27.85,1.49.45,3.39-.93,4.41l-8.04,5.85,15.37-8.87c1.63-.92,3.7-.35,4.62,1.28.86,1.51.43,3.43-.98,4.43l-9.69,6.83,14.78-8.54c1.64-.9,3.7-.3,4.6,1.34.82,1.49.41,3.36-.96,4.36l-17.17,12.06,21.36-12.34c1.62-.94,3.69-.39,4.64,1.23.89,1.53.45,3.49-1.01,4.5l-18.65,12.94,21.45-12.38c1.63-.93,3.7-.36,4.62,1.27.87,1.53.43,3.48-1.03,4.48l-10.38,7.03,11.37-6.56c1.62-.94,3.69-.4,4.64,1.22.89,1.53.46,3.48-.99,4.49l-26.69,18.83,27.54-15.9c1.63-.92,3.7-.34,4.62,1.3.79,1.4.48,3.17-.74,4.22l-27.51,23.19,27.13-15.67c1.62-.94,3.7-.38,4.63,1.24.85,1.48.48,3.35-.88,4.39l-4.42,3.39,1.16-.68c1.62-.94,3.7-.38,4.63,1.24.72,1.25.57,2.81-.37,3.9l-12.25,14.24,5.07-2.92c1.63-.93,3.7-.36,4.63,1.26.65,1.13.59,2.54-.16,3.61l-6.56,9.35.12.21c.94,1.62.38,3.69-1.23,4.63l-4.52,2.62c-.5.28-1.07.44-1.64.44h0Z"/>
      <path class="cls-5" d="m250.43,297.38c-1.87,0-3.39-1.53-3.38-3.4,0-.88.35-1.73.96-2.36l6.63-6.78-16.79,9.7c-1.6.97-3.69.45-4.65-1.16-.82-1.37-.58-3.13.58-4.22l15.37-14.79-21.21,12.21c-1.63.93-3.7.36-4.62-1.27-.79-1.39-.51-3.14.68-4.21l12.53-11.06-13.12,7.57c-1.63.93-3.7.37-4.63-1.26-.78-1.37-.52-3.09.63-4.17l12.38-11.39-9.09,5.24c-1.63.93-3.7.36-4.62-1.27-.75-1.31-.54-2.96.52-4.04l7.3-7.46c-1.79-.54-2.81-2.44-2.26-4.23.25-.82.8-1.52,1.54-1.95l16.11-9.3c1.62-.94,3.7-.38,4.63,1.24.76,1.32.55,2.98-.51,4.07l-4.51,4.59,14-8.08c1.63-.93,3.7-.37,4.63,1.26.78,1.37.52,3.09-.63,4.17l-12.36,11.45,15.98-9.22c1.63-.93,3.7-.36,4.62,1.27.79,1.39.51,3.14-.68,4.21l-12.52,11.05,15.91-9.18c1.6-.97,3.69-.45,4.65,1.16.82,1.37.58,3.13-.58,4.22l-15.37,14.8,14.17-8.2c1.62-.94,3.69-.4,4.64,1.22.77,1.32.56,3-.51,4.09l-7.62,7.77c1.25,0,2.42.63,3.09,1.7.94,1.62.38,3.7-1.24,4.63l-18.93,10.93c-.51.31-1.1.47-1.7.47Z"/>
      <path class="cls-4" d="m254,268.31c-1.87,0-3.39-1.53-3.38-3.4,0-.89.35-1.73.97-2.37l.72-.74-1.36.79c-1.63.93-3.7.36-4.62-1.27-.61-1.06-.59-2.37.04-3.42l4.87-8.02c-1.7.78-3.72.03-4.49-1.67-.72-1.57-.14-3.43,1.33-4.32l11.24-6.48c1.63-.93,3.7-.36,4.62,1.27.61,1.06.59,2.37-.04,3.42l-4.85,7.99,11.53-6.68c1.62-.94,3.7-.38,4.63,1.24.76,1.32.55,2.99-.52,4.07l-1.06,1.08c1.82-.45,3.66.65,4.11,2.47.36,1.46-.28,2.99-1.58,3.75l-20.48,11.82c-.51.3-1.09.46-1.68.45Z"/>
      <g>
        <path class="cls-2" d="m364.76,413.69c7.38.42,21.9,15.88,28.25,20.47,34.74,23.06,71.59-20.6,45.5-51.99l-56.73-64.73c-19.48-22.23-16.15-46.5-15.86-74.54,16.75-4.96,31.17-15.76,40.64-30.45,5.65-8.58,26.65-56.82.47-49.75-19.28,11.15-40.89,17.65-63.12,19.01-28.65-23.13-61.12-19.23-96.2-19.23s-67.76-3.95-96.3,19.08c-22.73-1.64-44.84-8.17-64.81-19.14-22.94-4.21-4.18,40.21,1.15,48.69,9.46,15.36,24.25,26.7,41.54,31.84.27,28.04,3.77,51.89-15.68,74.09-19.08,21.8-38.28,43.65-57.3,65.44-25.95,30.92,12.78,75.44,46.39,51.49,8.06-5.97,17.27-15.6,26.64-18.73,4.07,40.73,6.49,84.26,23.55,122.56,14.53,34.06,71.76,36.76,77.39-5.17.08-6.83,0-13.72.03-20.58.62-9.54,8.85-16.78,18.39-16.16,8.96.58,15.98,7.91,16.19,16.88,0,19.86-.99,42.05,22.42,49.11,18.94,5.72,42.05,1.09,52.02-16.56,17.43-34.59,22.54-76.9,25.45-115.01-.17-7.47-2.86-16.77-.03-16.61h0Zm-4.92-226.09c16.99-2.73,33.32-8.6,48.15-17.31,11.74-3.19-3.47,33.55-4.29,34.96-10.24,16.04-33.16,37.62-53.1,26.67-4.86-3.73-8.94-8.38-12-13.69-5.87-9.69-5.54-10.85,2.21-20.3,7.91-9.63,8.66-8.53,19.03-10.33Zm-265.49,22.01c-2.24-3.17-18.99-42.48-7.25-39.33,11.63,6.93,24.26,12.03,37.44,15.12,7.86,1.91,22.27.68,28.94,4.33,17.56,9.58,3.74,32.55-6.99,40.38-18.69,13.05-40.61-5.53-52.14-20.51Zm265.41,197.22c-2.96,43.53-.36,149.94-63.18,147.97-23.93-3.97-25.58-23.47-25.58-42.47-.92-31.87-44.34-34.02-46.75-1.82-.07,6.78,0,13.67-.03,20.5-2.92,20.65-31.87,28.99-48.47,22.73-33.05-16.79-38.07-111.31-40.26-146.25-.09-2.53-2.43-4.92-4.82-3.19l-31.53,22.85c-26.02,18-58.77-13.41-38.22-39.09,21.42-24.41,44.24-48.15,64.43-73.55,15.34-19.31,10.67-46.83,10.08-70.75,22.82-.31,48.48-46,24.22-59.76,26.42-19.47,56.46-15.42,87.87-15.42s61.92-3.93,88.16,15.41c-24.58,13.79,1.36,59.37,24.16,59.68-.5,24.54-5.12,51.54,10.74,71.42,20.13,25.25,42.77,48.83,64.05,73.11,21.15,25.88-13.27,57.39-39,38.74-5.87-2.2-35.56-31.2-35.86-20.1h0Z"/>
        <path class="cls-2" d="m179.35,440.79c21.96-.68,22.91-41.27.5-41.91-21.53,1.3-22.49,40.66-.5,41.91Zm1.17-33.81c13.17,1.8,12.89,26.68-1.42,25.73-13.24-1.84-12.93-26.65,1.42-25.75v.02Z"/>
        <path class="cls-2" d="m186.41,467.66c-22.71.63-23.06,39.29-.2,39.98,23.29.15,23.59-40.03.2-39.98Zm-.5,33.84c-12.21-2.37-11.83-27.49,1.36-27.68,12.12,2.31,11.76,27.54-1.37,27.68h.01Z"/>
        <path class="cls-2" d="m308.94,467.38c-21.99.96-24.01,39.79-1.06,40.59,22.47-.28,24.5-40.51,1.06-40.59Zm-1.29,33.59c-11.86-2.92-12.14-28.39,1.99-26.61,11.8,2.86,12.08,28.44-1.99,26.61Z"/>
        <path class="cls-2" d="m332.49,418.26c-1.55-27.58-34.36-22.77-34.14,2.71,1.32,28.37,34.42,23.4,34.14-2.71Zm-17.44,14.78c-12.94-1.99-13.06-29.03,1.84-26.05,11.37,3.18,11.77,26.91-1.84,26.05Z"/>
        <path class="cls-2" d="m224.22,433.35c-.18,26.94,42.36,27.2,46.43,2.2.52-1.35.52-2.84,0-4.19-4.04-25.01-46.24-24.94-46.43,1.99Zm6.1.11c-.17-17.27,33.41-17.17,34.59-.11-1.18,17.09-34.42,17.37-34.59.11Z"/>
        <path class="cls-2" d="m162.47,365.15c-1.85-26.75-47.06-27.07-46.75.33.25,27.75,46.58,27.46,46.75-.33Zm-40.41.09c1.36-16.95,32.24-16.48,34.25.11-1.76,17.31-35.65,17.47-34.25-.11Z"/>
        <path class="cls-2" d="m380.54,365.81c-1.81-26.14-48.48-27.13-48.83-.45-.33,26.52,47,26.67,48.83.45Zm-40.69,0c-.16-18.34,31.3-18.61,32.55-.45-1.24,18.03-32.4,18.91-32.55.45Z"/>
        <path class="cls-2" d="m194.52,311.08c3.03-2.44,6.33-4.51,9.85-6.18,1.22-.02,2.39-.53,3.24-1.41,10.64-4.23,21.93-6.58,33.37-6.94,4.62,1.07,9.42,1.11,14.05.12,11.09.62,22,3.11,32.25,7.37.54.75,1.44,1.15,2.36,1.04,3.6,1.7,6.99,3.83,10.08,6.33,3.05,2.53,7.43-4.31,4.27-6.92-2.79-2.24-5.8-4.18-8.99-5.79,22.87-38.26.24-91.55-49.17-89.19-45.93,2.2-68.87,53.13-46.12,90.28-2.66,1.45-5.19,3.13-7.55,5.02-3.15,2.62-1.74,9.64,2.35,6.27Zm35.4-28.09c-12.51-14.21-1.5-40.64,18-39.37-5.86,6.81-5.09,17.09,1.72,22.95,2.49,2.14,5.56,3.48,8.83,3.84,3.96.37,7.94-.58,11.3-2.71.42,9.17-4.86,17.64-13.29,21.29-6.08-.36-12.18-.28-18.25.22-3.23-1.37-6.08-3.51-8.31-6.22Zm40.64-26.12c-.85.7-1.24,1.81-1.03,2.9-9.05,13.01-27.04-7.62-13.03-15.37.68-.04,1.34-.28,1.9-.68,6.03-.77,11.53,3.49,12.3,9.52.15,1.21.11,2.44-.14,3.64Zm-21.17-40.05c28.43,1.82,50.01,26.35,48.19,54.78-.56,8.74-3.34,17.2-8.07,24.57-6.9-2.78-14.1-4.74-21.46-5.83,10.17-7.68,11.07-20.03,9.32-31.5,3.11-8.51-1.27-17.94-9.78-21.05-4.04-1.48-8.49-1.31-12.41.47-15.87-4.65-32.5,4.44-37.15,20.31-3.43,11.71.59,24.34,10.16,31.91-7.27,1.14-14.39,3.11-21.21,5.86-21.54-33.66-1.96-81.87,42.41-79.51h0Z"/>
        <path class="cls-2" d="m300.36,338.87c-18.08,18.05-86.7,17.45-104.59-.22-2.98-3.13-7.51,3.59-4.81,6.4,9.12,7.87,20.6,12.47,32.63,13.07-1.8,21.19-.55,36.66,24.94,34.72,22.16,1.13,25.09-16.89,23.15-35.03,11.71-.72,22.86-5.29,31.7-13,2.85-2.96.65-9.75-3.01-5.95Zm-36.02,34.8c.9,11.07-8.2,13.25-17.63,12.11-16.68,1.43-16.61-14.49-15.81-26.92,11.14.68,22.32.59,33.45-.26.02,5.03.07,10.04,0,15.07h0Z"/>
      </g>
    </g>
  </g>
  <g id="Capa_3" data-name="Capa 3">
    <g>
      <path class="cls-9" d="m462,116.11c0,45.6-70.88,140.85-212.43,140.85S37.1,161.71,37.1,116.11s59.25,31.03,210.46,31.03c151.34.09,214.45-76.63,214.45-31.03Z"/>
      <path class="cls-3" d="m249.57,262c-80.32,0-132.68-29.63-162.53-54.47-37.92-31.6-54.95-68.69-54.95-91.42,0-12.95,5-19.49,14.79-19.49,7.72,0,18.04,4.17,33.58,10.4,32.52,13.17,86.99,35.11,167.18,35.11s135.36-21.81,168.63-34.85c15.89-6.19,27.39-10.71,35.55-10.71,10.14,0,15.27,6.54,15.27,19.49,0,22.74-16.94,59.78-54.95,91.42-29.85,24.84-82.21,54.47-162.53,54.47l-.04.04ZM46.89,106.67c-2.19,0-4.7,0-4.7,9.44,0,20.32,15.84,54.12,51.31,83.7,28.57,23.79,78.83,52.14,156.12,52.14s127.55-28.35,156.12-52.14c35.46-29.58,51.31-63.33,51.31-83.7,0-9.44-2.68-9.44-5.22-9.44-6.28,0-17.6,4.43-31.86,10.01-34.02,13.3-90.81,35.55-172.32,35.55s-137.69-22.47-170.91-35.81c-13.43-5.4-24.05-9.7-29.85-9.7v-.04Z"/>
      <path class="cls-9" d="m289.69,8.05c-9.09,0-20.85,17.47-41.61,17.47s-33.44-17.47-44.29-17.47c-15.27,0-33.66,45.91-46.52,80.23-12.86,34.37-16.77,63.07-16.77,73.6,0,19.71,34.28,47.36,107.53,47.36s107.53-28.66,107.53-47.36c0-10.27-4.43-38.36-18.52-73.34-11.76-29.36-30.42-80.54-47.45-80.54l.09.04Z"/>
      <path class="cls-3" d="m248.12,214.29c-42.71,0-69.04-9.22-83.61-16.9-18.17-9.66-29.01-22.87-29.01-35.55,0-10.27,3.6-39.33,17.12-75.4C171.4,36.4,187.34,3.04,203.84,3.04c5.97,0,11.41,3.47,17.73,7.37,7.46,4.7,15.89,10.05,26.55,10.05s19.09-5.57,26.25-10.49c5.49-3.73,10.23-6.98,15.36-6.98,17.6,0,31.95,32.74,48.94,75.45,1.14,2.9,2.24,5.62,3.25,8.16,14.92,37.18,18.87,65.44,18.87,75.23,0,12.33-10.84,25.5-28.92,35.2-14.7,7.81-41.17,17.16-83.7,17.16l-.04.09ZM203.84,13.05c-1.67,0-7.94,1.76-19.71,24.49-8.03,15.54-15.71,35.24-22.16,52.45-12.11,32.17-16.46,60.61-16.46,71.85,0,6.85,6.19,17.38,23.66,26.69,13.61,7.2,38.27,15.76,78.92,15.76s65.27-8.73,78.92-16.06c17.47-9.35,23.66-20.06,23.66-26.33,0-10.58-4.87-38.27-18.17-71.45-1.05-2.59-2.11-5.35-3.29-8.25-5.79-14.57-12.95-32.65-20.5-46.79-10.71-20.15-16.9-22.3-19.09-22.3-2.06,0-5.93,2.68-9.7,5.22-7.55,5.14-17.86,12.25-31.86,12.25s-23.7-6.41-31.86-11.63c-4.65-3.03-9.13-5.93-12.25-5.93l-.09.04Z"/>
      <g>
        <path class="cls-3" d="m248.12,183.08c-63.69,0-97.92-20.98-105.78-39.33-1.27,8.03-1.76,14.31-1.76,18.08,0,19.71,34.28,47.36,107.53,47.36s107.53-28.66,107.53-47.36c0-3.73-.61-9.88-2.06-17.82-8.25,17.86-42.44,39.06-105.51,39.06h.04Z"/>
        <path class="cls-3" d="m248.12,214.29c-42.71,0-69.04-9.22-83.61-16.9-18.17-9.66-29.01-22.87-29.01-35.55,0-4.65.61-11.32,1.84-18.87.35-2.19,2.11-3.95,4.35-4.21s4.35.97,5.22,3.03c7.46,17.47,42.31,36.34,101.17,36.34s92.92-18.74,100.99-36.17c.92-1.98,3.03-3.12,5.22-2.9,2.19.26,3.95,1.89,4.3,4.08,1.32,7.55,2.11,14.22,2.11,18.74,0,12.33-10.84,25.5-28.92,35.2-14.66,7.9-41.13,17.25-83.61,17.25l-.04-.04Zm-102.4-56.75c-.13,1.62-.13,3.12-.13,4.35,0,6.85,6.19,17.38,23.66,26.69,13.61,7.2,38.27,15.76,78.92,15.76s65.27-8.73,78.92-16.06c17.47-9.35,23.66-20.06,23.66-26.33,0-1.32-.09-2.94-.22-4.7-16.11,16.68-50.83,30.99-102.35,30.99-54.6-.09-87.3-14.79-102.4-30.68h-.04Z"/>
      </g>
      <path class="cls-3" d="m353.68,149.73c-1.27,2.59-2.59,5.22-4.43,7.55-2.41,2.9-4.92,5.57-7.81,7.94-5.97,5-12.68,8.95-19.71,12.16-14.57,6.67-30.46,10.14-46.3,12.03-16.42,1.98-33.14,1.98-49.64.57-15.84-1.32-32.22-4.43-46.96-10.58-7.81-3.25-15.76-7.02-22.3-12.47-3.25-2.68-6.32-5.49-9-8.78-2.19-2.68-3.73-5.62-5.14-8.73,3.16,5.49,7.11,10.36,12.25,14.09,6.06,4.43,12.47,7.9,19.36,10.84,14.44,6.14,30.42,9.22,45.95,10.84,16.33,1.67,32.74,1.84,49.11.7,8.08-.57,16.2-1.62,24.05-3.16,7.55-1.54,15.14-3.29,22.38-5.97,7.94-2.94,16.06-6.28,23-11.28,3.38-2.41,6.54-5,9.44-8.03,2.24-2.41,3.99-5,5.71-7.72h.04Z"/>
      <path class="cls-3" d="m316.73,71.38c-8.16.35-15.27-4.3-20.41-10.36-6.06-7.11-9.48-16.46-9.92-25.76-.22-4.3.35-8.65,1.98-12.6,3.38,6.98,5.97,14.22,9.35,21.2,3.25,6.76,6.85,13.21,11.28,19.27,2.33,3.12,5.14,5.57,7.72,8.25Z"/>
      <path class="cls-3" d="m176.67,71.38c1.32-1.32,2.77-2.59,3.99-3.99,1.67-1.89,3.29-3.95,4.7-6.06,2.77-3.99,5.22-8.38,7.33-12.73,2.24-4.65,4.43-9.44,6.5-14.13,1.67-3.86,3.16-7.94,5-11.76,3.16,7.55,2.55,16.81-.09,24.4-2.9,8.51-7.94,16.24-15.71,21.11-3.6,2.24-7.59,3.29-11.76,3.16h.04Z"/>
      <path class="cls-3" d="m53.29,129.19c8.43,21.59,24.97,38.62,42.22,53.63,18.39,15.98,38.98,29.14,60.39,40.69,9.88,5.35,20.15,9.92,30.33,14.48-22.82-4.08-44.55-12.95-64.34-25.06-21.2-12.95-40.91-29.63-54.95-50.26-6.85-10.14-12.03-21.33-13.65-33.49Z"/>
      <path class="cls-3" d="m443.79,129.19c-2.94,22.82-18.52,42.57-34.76,57.94-18.21,17.16-39.77,31.03-62.94,40.56-11.41,4.65-23.17,8.16-35.24,10.27,20.15-8.87,39.68-18.79,58.16-30.81,20.28-13.21,39.63-28.49,55.48-46.88,8.08-9.35,14.84-19.49,19.36-31.03l-.04-.04Z"/>
      <path class="cls-3" d="m221.83,47.02c8.38,3.99,16.68,8.08,26.2,8.08s17.95-4.08,26.33-8.08c-4.21,7.9-12.95,13.61-21.68,14.92-7.46,1.14-15.14-.61-21.42-4.87-3.73-2.55-7.33-5.97-9.44-10.05Z"/>
      <path class="cls-10" d="m278.37,139.9c-.61,0-1.19.22-1.67.48l-8.03-13.96,8.03-13.96c.48.26,1.05.48,1.67.48,1.89,0,3.47-1.54,3.47-3.47s-1.54-3.47-3.47-3.47-3.47,1.54-3.47,3.47h-16.11l-8.51-14.79c1.05-.57,1.76-1.67,1.76-2.94,0-1.89-1.54-3.47-3.47-3.47s-3.47,1.54-3.47,3.47c0,1.27.7,2.41,1.76,2.94l-8.51,14.79h-16.11c0-1.89-1.54-3.47-3.47-3.47s-3.47,1.54-3.47,3.47,1.54,3.47,3.47,3.47c.61,0,1.19-.22,1.67-.48l8.03,13.96-8.03,13.96c-.48-.26-1.05-.48-1.67-.48-1.89,0-3.47,1.54-3.47,3.47s1.54,3.47,3.47,3.47,3.47-1.54,3.47-3.47h16.11l8.51,14.79c-1.05.57-1.76,1.67-1.76,2.94,0,1.89,1.54,3.47,3.47,3.47s3.47-1.54,3.47-3.47c0-1.27-.7-2.41-1.76-2.94l8.51-14.79h16.11c0,1.89,1.54,3.47,3.47,3.47s3.47-1.54,3.47-3.47-1.54-3.47-3.47-3.47Z"/>
      <g>
        <path class="cls-3" d="m353.81,136.65c-6.32,5.93-12.95,11.28-20.5,15.63-8.3,4.78-17.34,8.38-26.55,10.93-3.99,1.05-8.08,2.06-12.16,2.46,7.81-2.11,15.41-5.79,22.47-9.79,7.81-4.52,15.05-10.05,21.42-16.46,2.9-2.94,5.4-6.28,7.94-9.48,2.41,2.24,4.92,4.52,7.37,6.76v-.04Z"/>
        <path class="cls-3" d="m350.87,125.37c-5.97,5.49-12.25,10.23-19.44,14.09-6.41,3.47-13.3,6.14-20.32,8.03-3.12.83-6.32,1.62-9.57,2.06,8.43-2.77,16.55-7.33,23.7-12.51,3.38-2.46,6.63-5.14,9.57-8.08,3.16-3.25,5.97-6.63,8.65-10.27,2.41,2.24,4.92,4.52,7.37,6.76l.04-.09Z"/>
        <path class="cls-3" d="m347.93,114.13c-11.1,9.66-24.71,16.9-39.41,19.14,6.19-2.55,12.11-6.19,17.38-10.36,5.71-4.52,10.4-9.7,14.66-15.63,2.46,2.33,4.92,4.56,7.37,6.85Z"/>
        <path class="cls-3" d="m344.95,102.85c-8.6,6.89-18.65,12.11-29.58,14.22,9-5,16.55-12.38,22.12-20.98,2.55,2.33,5,4.52,7.46,6.76Z"/>
        <path class="cls-3" d="m342.05,91.57c-6.06,4.17-12.6,7.37-19.71,9.3,5-4.56,9-10.01,12.16-15.98,2.46,2.24,5,4.43,7.55,6.67Z"/>
      </g>
      <g>
        <path class="cls-3" d="m149.19,129.89c4.92,6.32,10.23,12.11,16.46,17.16,7.24,5.84,15.36,10.58,23.79,14.35,3.73,1.67,7.59,3.25,11.54,4.3-8.08-.92-16.11-3.38-23.7-6.28-9.09-3.47-17.69-8.25-25.41-14-3.6-2.68-6.85-5.71-10.05-8.78,2.46-2.24,4.92-4.52,7.37-6.76Z"/>
        <path class="cls-3" d="m152.18,118.61c2.77,3.6,5.49,7.02,8.65,10.27,2.94,2.94,6.19,5.62,9.57,8.08,7.11,5.22,15.27,9.79,23.7,12.51-14.13-1.84-28.09-8.03-39.77-16.11-3.47-2.41-6.5-5.14-9.57-7.94,2.46-2.33,4.92-4.56,7.37-6.85l.04.04Z"/>
        <path class="cls-3" d="m155.12,107.37c4.21,5.93,8.95,11.1,14.66,15.63,5.27,4.17,11.19,7.81,17.38,10.36-14.7-2.24-28.31-9.48-39.41-19.14,2.46-2.33,4.92-4.56,7.37-6.85Z"/>
        <path class="cls-3" d="m158.06,96.18c5.62,8.6,13.08,15.98,22.12,20.98-10.93-2.11-20.98-7.33-29.58-14.22,2.46-2.33,5-4.52,7.46-6.76Z"/>
        <path class="cls-3" d="m161.05,84.9c3.16,5.97,7.2,11.41,12.16,15.98-7.11-1.89-13.65-5.22-19.71-9.3,2.55-2.24,5.05-4.43,7.55-6.67Z"/>
      </g>
      <g>
        <polygon class="cls-3" points="141.38 155.52 97.49 134.19 144.85 146.08 141.38 155.52"/>
        <polygon class="cls-3" points="138.88 169.3 114.78 152.05 143.31 160.3 138.88 169.3"/>
        <polygon class="cls-3" points="350.79 146.08 398.19 134.19 354.25 155.52 350.79 146.08"/>
        <polygon class="cls-3" points="352.37 160.3 380.85 152.05 356.71 169.3 352.37 160.3"/>
      </g>
    </g>
  </g>
</svg>