<?xml version="1.0" encoding="UTF-8"?>
<svg xmlns="http://www.w3.org/2000/svg" viewBox="0 0 500 575">
  <defs>
    <style>
      .cls-1 {
        fill: #a54759;
      }

      .cls-1, .cls-2, .cls-3, .cls-4, .cls-5, .cls-6, .cls-7, .cls-8, .cls-9, .cls-10 {
        stroke-width: 0px;
      }

      .cls-2 {
        fill: #262626;
      }

      .cls-3 {
        fill: #241816;
      }

      .cls-4 {
        fill: #cd596b;
      }

      .cls-5 {
        fill: #fff;
      }

      .cls-6 {
        fill: #5da0ff;
      }

      .cls-7 {
        fill: #f4d075;
      }

      .cls-8 {
        fill: #e7d8b4;
      }

      .cls-9 {
        fill: #cf9e76;
      }

      .cls-10 {
        fill: #773f4d;
      }

      .cls-11 {
        fill: #fcd770;
        stroke: #000;
        stroke-miterlimit: 10;
      }
    </style>
  </defs>
  <g id="Capa_1" data-name="Capa 1">
    <g>
      <path class="cls-8" d="m250,573c-66.51,0-129.04-25.9-176.07-72.93C26.9,453.04,1,390.51,1,324s25.9-129.04,72.93-176.07c47.03-47.03,109.56-72.93,176.07-72.93s129.04,25.9,176.07,72.93c47.03,47.03,72.93,109.56,72.93,176.07s-25.9,129.04-72.93,176.07c-47.03,47.03-109.56,72.93-176.07,72.93Z"/>
      <path class="cls-3" d="m250,76c33.48,0,65.96,6.56,96.53,19.49,29.53,12.49,56.05,30.37,78.83,53.15,22.78,22.78,40.66,49.3,53.15,78.83,12.93,30.57,19.49,63.05,19.49,96.53s-6.56,65.96-19.49,96.53c-12.49,29.53-30.37,56.05-53.15,78.83-22.78,22.78-49.3,40.66-78.83,53.15-30.57,12.93-63.05,19.49-96.53,19.49s-65.96-6.56-96.53-19.49c-29.53-12.49-56.05-30.37-78.83-53.15-22.78-22.78-40.66-49.3-53.15-78.83-12.93-30.57-19.49-63.05-19.49-96.53s6.56-65.96,19.49-96.53c12.49-29.53,30.37-56.05,53.15-78.83s49.3-40.66,78.83-53.15c30.57-12.93,63.05-19.49,96.53-19.49m0-2C111.93,74,0,185.93,0,324s111.93,250,250,250,250-111.93,250-250-111.93-250-250-250h0Z"/>
    </g>
  </g>
  <g id="Capa_2" data-name="Capa 2">
    <g>
      <g>
        <path class="cls-1" d="m81.47,286.94c-2.16-.02-3.9-1.78-3.89-3.94,0-.82.27-1.62.75-2.28l10.39-14.19-14.63,8.41c-1.86,1.1-4.26.48-5.36-1.39-.96-1.63-.62-3.7.8-4.94l15.78-13.91-18.31,10.58c-1.89,1.06-4.27.39-5.33-1.5-.92-1.65-.54-3.72.91-4.92l31.69-25.84-35.06,20.25c-1.88,1.07-4.27.41-5.34-1.47-.99-1.74-.5-3.96,1.13-5.12l16.01-11.22-16.58,9.57c-1.9,1.04-4.28.35-5.32-1.55-.95-1.72-.47-3.88,1.11-5.04l35.33-24.82-36.51,21.07c-1.88,1.06-4.27.39-5.33-1.49-.95-1.68-.53-3.81.99-5l44.55-34.27-46.47,26.83c-1.88,1.06-4.27.4-5.33-1.48-.95-1.67-.54-3.79.97-4.99l36.68-28.82-37.4,21.59c-1.82,1.16-4.24.63-5.41-1.19-1.16-1.82-.63-4.24,1.19-5.41l1.61-1.11c-1.92,1-4.28.26-5.28-1.66-.89-1.71-.41-3.81,1.14-4.96l17.7-13.46-16.15,9.33c-1.88,1.07-4.27.42-5.34-1.46-.93-1.63-.57-3.69.85-4.91l23.61-20.03-21.76,12.58c-1.88,1.07-4.27.42-5.34-1.46-.96-1.69-.54-3.83.99-5.02l5.85-4.53-2.72,1.57c-1.88,1.07-4.27.41-5.34-1.47-.91-1.6-.58-3.61.78-4.84l14.83-13.27-11.02,6.36c-1.88,1.07-4.27.41-5.34-1.47-.92-1.62-.57-3.66.83-4.88l5.17-4.43-.56.33c-1.88,1.07-4.27.42-5.34-1.46-.92-1.61-.58-3.64.8-4.87l3.43-3.01c-1.25,0-2.45-.55-3.24-1.52-1.2-1.55-1.07-3.75.31-5.14l5.24-5.32c-2.12.44-4.19-.92-4.63-3.04-.2-.95-.03-1.95.46-2.79l7.49-12.65c-2.1-.52-3.37-2.65-2.85-4.75.26-1.03.92-1.91,1.84-2.44l8.89-5.13c1.53-.89,3.48-.64,4.74.61,1.25,1.27,1.5,3.22.59,4.75l-6.33,10.74,10.39-6.01c1.87-1.08,4.27-.44,5.35,1.44.88,1.52.63,3.44-.59,4.7l-4.7,4.8,5.84-3.37c1.87-1.09,4.27-.45,5.35,1.42.94,1.62.6,3.68-.81,4.92l-1.75,1.53,2.8-1.61c1.88-1.07,4.27-.41,5.34,1.47.92,1.62.57,3.66-.83,4.88l-5.16,4.42,7.33-4.25c1.91-1.01,4.28-.29,5.29,1.63.81,1.54.52,3.43-.73,4.64l-14.88,13.26,19.94-11.51c1.89-1.06,4.27-.38,5.33,1.5.94,1.68.52,3.79-.98,4.98l-5.81,4.49,9.29-5.29c1.88-1.07,4.27-.42,5.34,1.46.93,1.63.57,3.69-.85,4.91l-23.62,20.02,32.1-18.51c1.87-1.09,4.27-.45,5.35,1.42,1,1.71.56,3.9-1.02,5.09l-17.75,13.45,24.71-14.26c1.88-1.08,4.27-.43,5.34,1.45,1.01,1.76.51,3.99-1.15,5.15l-1.57,1.1,6.46-3.73c1.88-1.06,4.27-.4,5.33,1.48.95,1.67.54,3.79-.97,4.99l-36.67,28.82,50.17-28.97c1.88-1.08,4.27-.43,5.34,1.45.97,1.7.55,3.85-1,5.04l-44.57,34.28,61.59-35.53c1.9-1.04,4.28-.35,5.32,1.55.95,1.72.47,3.88-1.11,5.04l-35.4,24.84,17.35-10.01c1.88-1.07,4.27-.41,5.34,1.47.99,1.74.5,3.96-1.13,5.12l-15.97,11.2.23-.13c1.88-1.07,4.27-.42,5.34,1.46.95,1.66.56,3.75-.91,4.96l-31.67,25.84,9.93-5.73c1.88-1.07,4.27-.42,5.34,1.46.91,1.6.58,3.63-.79,4.86l-17.28,15.25c1.2-.05,2.36.43,3.19,1.29,1.23,1.38,1.34,3.43.24,4.93l-17.14,23.38c.63,1.78-.09,3.75-1.72,4.7l-3.71,2.15c-.59.35-1.27.54-1.96.54h0Z"/>
        <path class="cls-1" d="m420.82,285.06c-2.16,0-3.91-1.75-3.91-3.92,0-.97.36-1.9,1-2.61l9.5-10.56-11.27,6.5c-1.88,1.06-4.27.39-5.33-1.49-.9-1.6-.57-3.61.8-4.83l13.15-11.52-14.77,8.53c-1.88,1.08-4.27.43-5.34-1.45-.93-1.62-.59-3.66.82-4.89l28.7-24.94-32.45,18.73c-1.89,1.05-4.27.37-5.32-1.52-.93-1.68-.51-3.79,1-4.98l23.95-18.23-26.02,15.02c-1.88,1.07-4.27.41-5.34-1.47-.97-1.7-.53-3.85,1.02-5.04l33.73-25.6-36.64,21.14c-1.87,1.09-4.27.45-5.35-1.42-1.03-1.78-.51-4.05,1.19-5.2l7.05-4.83-7.58,4.37c-1.89,1.05-4.27.36-5.32-1.53-.96-1.73-.48-3.9,1.12-5.06l22.71-15.82-24.1,13.91c-1.89,1.06-4.27.39-5.33-1.5-.99-1.76-.47-3.99,1.2-5.14l1.7-1.14-1.95,1.13c-1.87,1.09-4.27.45-5.35-1.41-1.03-1.77-.52-4.03,1.16-5.19l29.57-20.49-31.32,18.08c-1.89,1.05-4.27.36-5.32-1.53-.96-1.73-.48-3.9,1.12-5.06l36.43-25.39-38.62,22.29c-1.88,1.07-4.27.42-5.34-1.46-1.01-1.77-.49-4.02,1.19-5.17l25.46-17.23-26.83,15.5c-1.87,1.08-4.27.44-5.35-1.43-.26-.45-.43-.94-.49-1.45l-1.09-8.35-.38.2c-1.88,1.07-4.27.41-5.34-1.47-1.06-1.86-.42-4.23,1.42-5.31l5.43-3.13c1.87-1.09,4.27-.45,5.35,1.42.26.45.43.95.5,1.46l1.08,8.35,116.76-67.39c1.86-1.1,4.26-.49,5.36,1.37,1.06,1.79.53,4.11-1.21,5.26l-25.45,17.23,23.4-13.51c1.88-1.08,4.27-.43,5.34,1.45,1.01,1.76.51,3.99-1.15,5.15l-36.47,25.4,33.75-19.48c1.85-1.12,4.26-.54,5.38,1.31,1.09,1.8.57,4.14-1.18,5.3l-29.57,20.48,25.9-14.95c1.9-1.04,4.28-.34,5.31,1.56.95,1.75.44,3.93-1.19,5.08l-3.35,2.24c2.08-.58,4.24.64,4.82,2.73.44,1.6-.17,3.3-1.52,4.25l-22.62,15.78,17.36-9.98c1.88-1.07,4.27-.42,5.34,1.46,1.01,1.76.5,4-1.17,5.16l-7.05,4.83,1.32-.78c1.88-1.07,4.27-.41,5.34,1.47.97,1.7.53,3.85-1.02,5.04l-33.8,25.59,25.44-14.68c1.89-1.05,4.27-.37,5.32,1.52.93,1.68.51,3.79-1,4.98l-23.92,18.21,14.27-8.24c1.88-1.06,4.27-.4,5.33,1.49.9,1.6.57,3.62-.81,4.85l-28.7,24.95,14.15-8.17c1.88-1.07,4.27-.42,5.34,1.45.92,1.61.58,3.65-.81,4.88l-13.95,12.22c2.12-.41,4.18.98,4.59,3.1.23,1.2-.11,2.44-.92,3.35l-16.62,18.52c.13.16.25.32.34.5,1.08,1.87.44,4.26-1.43,5.35l-9.22,5.32c-.59.35-1.27.53-1.96.52h0Z"/>
        <path class="cls-1" d="m433.81,128.84c-2.16,0-3.92-1.75-3.92-3.91,0-1.05.42-2.06,1.17-2.79l22.39-22.13c-.93-1.86-.24-4.12,1.57-5.15l9.23-5.32c1.88-1.07,4.27-.41,5.34,1.47.87,1.54.61,3.47-.64,4.71l-10.73,10.61,13.31-7.67c1.92-1,4.28-.26,5.28,1.65.94,1.8.35,4.03-1.37,5.12l-39.68,22.88c-.59.35-1.27.53-1.96.53Z"/>
        <path class="cls-1" d="m309.57,550.33c-2.16,0-3.92-1.75-3.92-3.91,0-1.05.42-2.06,1.17-2.8l15.73-15.45-26.07,15.05c-1.88,1.07-4.27.42-5.34-1.46-.86-1.5-.63-3.38.56-4.63l17.43-18.31-16.05,9.28c-1.88,1.07-4.27.42-5.34-1.46-.86-1.5-.63-3.39.56-4.64l19.43-20.23-16.84,9.72c-1.87,1.08-4.27.44-5.35-1.43-.95-1.65-.58-3.75.89-4.97l3.84-3.18-1.14.66c-1.87,1.08-4.27.44-5.35-1.44-.47-.82-.63-1.79-.45-2.72l2.41-11.95-.85.49c-1.92,1-4.28.26-5.28-1.65-.94-1.8-.35-4.03,1.37-5.12l8.35-4.82c1.87-1.08,4.27-.44,5.35,1.44.47.82.63,1.79.45,2.72l-2.45,11.94,33.9-19.58c1.87-1.08,4.27-.44,5.35,1.43.95,1.65.58,3.75-.89,4.97l-3.81,3.13.45-.26c1.87-1.08,4.27-.44,5.35,1.43.87,1.51.64,3.41-.56,4.67l-19.43,20.24,15.78-9.11c1.88-1.06,4.27-.4,5.33,1.48.84,1.49.62,3.35-.55,4.6l-17.43,18.33,29.11-16.8c1.88-1.07,4.27-.41,5.34,1.47.87,1.54.61,3.47-.64,4.71l-15.72,15.46,22-12.7c1.88-1.07,4.27-.42,5.34,1.45.83,1.45.65,3.27-.46,4.53l-8.92,10.07,7.83-4.53c1.82-1.16,4.24-.62,5.4,1.2,1.16,1.82.62,4.24-1.2,5.4-.09.06-.19.11-.29.16l-28.67,16.55c-1.88,1.07-4.27.41-5.34-1.47-.82-1.44-.64-3.25.45-4.5l8.91-10.06-27.8,16.04c-.59.36-1.27.54-1.96.55h0Z"/>
        <path class="cls-1" d="m179.78,550.33c-2.16,0-3.92-1.74-3.92-3.91,0-1,.38-1.97,1.07-2.7l18.7-19.87-41.95,24.22c-1.87,1.09-4.26.46-5.36-1.4-.99-1.69-.58-3.85.96-5.06l27.3-21.67-30.89,17.83c-1.88,1.07-4.27.42-5.34-1.46-.78-1.37-.67-3.07.29-4.32l8.5-11.02c-1.74.5-3.6-.24-4.52-1.8-1.08-1.87-.43-4.26,1.43-5.34l16.15-9.33c1.87-1.08,4.27-.44,5.35,1.44.79,1.37.68,3.09-.29,4.34l-8.32,10.8,59.71-34.45c1.88-1.07,4.27-.42,5.34,1.46.95,1.67.55,3.79-.95,4.99l-27.33,21.69,19.03-10.96c1.87-1.09,4.26-.47,5.36,1.4.88,1.51.66,3.41-.54,4.68l-18.71,19.87,11.44-6.62c1.87-1.08,4.27-.44,5.35,1.43.8,1.38.68,3.11-.31,4.37l-4.87,6.2c2.1.5,3.4,2.61,2.9,4.72-.25,1.05-.92,1.94-1.85,2.48l-12.9,7.45c-1.62.95-3.68.62-4.92-.78-1.23-1.42-1.29-3.51-.13-4.99l3.13-3.96-16.97,9.7c-.59.36-1.27.54-1.96.55h0Z"/>
        <path class="cls-1" d="m174.84,502.49c-1.13,0-2.21-.49-2.95-1.35-1.23-1.41-1.29-3.49-.14-4.97l7.9-10.12-1.8,1.04c-1.87,1.08-4.27.45-5.35-1.42-.55-.95-.68-2.09-.35-3.13l3.07-9.78c-1.62-1.43-1.78-3.9-.34-5.53.28-.32.61-.59.98-.8l2.96-1.71c1.87-1.08,4.27-.44,5.35,1.43.55.95.67,2.09.34,3.13l-1.88,6.01,10.52-6.08c1.87-1.08,4.27-.44,5.35,1.43.8,1.38.68,3.11-.31,4.37l-7.89,10.1,18.86-10.88c1.92-1,4.28-.26,5.28,1.65.94,1.8.35,4.03-1.37,5.12l-36.29,20.95c-.59.35-1.26.53-1.95.52h0Z"/>
        <path class="cls-1" d="m104.16,472.01c-2.16,0-3.92-1.75-3.92-3.92,0-.85.27-1.67.78-2.35l3.69-4.89-14.49,8.35c-1.88,1.07-4.27.42-5.34-1.46-.92-1.61-.58-3.64.8-4.87l1.42-1.24-2.64,1.52c-1.88,1.07-4.27.42-5.34-1.46-.91-1.6-.58-3.63.79-4.86l8.14-7.22-5.38,3.13c-1.89,1.05-4.27.37-5.33-1.51-.87-1.56-.57-3.52.73-4.75l9.4-8.57-4.7,2.72c-1.88,1.07-4.27.42-5.34-1.46-.85-1.5-.63-3.37.55-4.63l11.65-12.22-6.5,3.75c-1.87,1.08-4.27.44-5.35-1.43-.84-1.46-.66-3.29.46-4.56l8.72-9.86-3.2,1.85c-1.88,1.07-4.27.42-5.34-1.45-.83-1.45-.65-3.27.46-4.53l4.23-4.78c-2.14.34-4.14-1.11-4.48-3.25-.17-1.04.1-2.11.72-2.95l4.06-5.48c-2.16-.03-3.89-1.81-3.86-3.97,0-.71.21-1.4.58-2l2.98-4.82c-.31-.12-.61-.28-.88-.48-1.26-.9-1.88-2.46-1.57-3.98l2.4-11.49-.08-.12c-1.09-1.87-.45-4.27,1.42-5.35h0s1.28-.75,1.28-.75c1.34-.77,3.01-.69,4.26.22,1.26.9,1.88,2.46,1.57,3.98l-1.37,6.54.91-.52c1.87-1.09,4.26-.46,5.35,1.41.74,1.27.71,2.84-.08,4.07l-1.35,2.22h.05c1.87-1.08,4.27-.44,5.35,1.44.78,1.35.68,3.03-.24,4.28l-3.19,4.24,2.62-1.51c1.88-1.07,4.27-.42,5.34,1.45.83,1.45.65,3.27-.46,4.53l-3.7,4.17,3.13-1.81c1.88-1.08,4.27-.43,5.34,1.45.83,1.45.65,3.27-.45,4.53l-8.7,9.9,9.29-5.35c1.88-1.07,4.27-.42,5.34,1.46.85,1.5.63,3.37-.55,4.63l-11.65,12.22,12.61-7.27c1.89-1.05,4.27-.37,5.33,1.51.87,1.56.57,3.52-.73,4.75l-9.4,8.56,7.53-4.34c1.89-1.06,4.27-.39,5.33,1.5.89,1.59.57,3.59-.78,4.81l-8.13,7.2,3.36-1.94c1.87-1.09,4.27-.45,5.35,1.42.94,1.62.6,3.68-.81,4.92l-2.96,2.59c1.21-.08,2.39.41,3.2,1.32,1.23,1.39,1.31,3.46.2,4.95l-4.91,6.52c2.14.28,3.66,2.24,3.39,4.38-.15,1.21-.86,2.27-1.91,2.88l-12.99,7.49c-.61.35-1.3.54-2,.52h0Z"/>
        <path class="cls-1" d="m407.46,472.03c-2.16,0-3.92-1.75-3.92-3.91,0-.72.2-1.44.58-2.05l9.11-14.8-22.71,13.1c-1.9,1.04-4.28.35-5.32-1.55-.84-1.52-.57-3.41.66-4.65l12.39-11.86-10.23,5.9c-1.87,1.08-4.27.45-5.35-1.43-.96-1.66-.58-3.77.9-4.99l2.95-2.43c-1.47.18-2.91-.45-3.78-1.64-1.16-1.67-.84-3.96.73-5.25l2.77-2.28c-1.4.15-2.77-.44-3.62-1.57-1.18-1.63-.92-3.89.59-5.22l7.89-6.96-1.46.83c-1.88,1.06-4.27.4-5.34-1.48-.84-1.49-.62-3.35.54-4.6l15.78-16.63c-1.48.34-3.03-.19-3.98-1.38-1.2-1.52-1.11-3.69.21-5.11l8.17-8.71c-.18-.13-.36-.28-.52-.45-1.23-1.26-1.47-3.18-.59-4.7l9.27-15.72c-.42-1.69.33-3.46,1.84-4.34l1.98-1.15c1.87-1.09,4.27-.45,5.35,1.42.71,1.22.71,2.73-.01,3.95l-4.12,6.99.41-.24c1.87-1.08,4.27-.44,5.35,1.43.87,1.5.65,3.38-.53,4.64l-2.98,3.19c2.06-.64,4.26.51,4.9,2.57.42,1.35.08,2.82-.89,3.85l-15.39,16.22,11.89-6.86c1.88-1.07,4.27-.42,5.34,1.46.91,1.6.58,3.63-.79,4.86l-7.89,6.96,4.01-2.35c1.87-1.08,4.27-.44,5.35,1.43.95,1.65.58,3.75-.89,4.97l-2.61,2.15c1.46-.23,2.93.41,3.75,1.64,1.16,1.67.84,3.96-.73,5.25l-2.8,2.35c2.13-.35,4.15,1.1,4.49,3.23.21,1.27-.22,2.56-1.15,3.45l-12.39,11.87,8.01-4.63c1.87-1.08,4.27-.43,5.35,1.44.71,1.24.69,2.77-.05,3.99l-9.11,14.8,2.41-1.39c1.82-1.16,4.24-.62,5.4,1.2,1.16,1.82.62,4.24-1.2,5.4-.09.06-.19.11-.29.16l-15.81,9.03c-.59.36-1.27.54-1.96.55h0Z"/>
      </g>
      <path class="cls-4" d="m254.22,487.65c-2.16,0-3.91-1.76-3.91-3.92,0-1.32.67-2.55,1.78-3.27l32.43-21.14-46.75,27.05c-1.85,1.13-4.26.54-5.38-1.3s-.54-4.26,1.3-5.38h0l40.58-26.06-52.61,30.34c-1.89,1.05-4.27.38-5.33-1.51-1-1.79-.45-4.05,1.26-5.18l52.46-33.49-63.33,36.55c-1.89,1.04-4.28.35-5.32-1.54-.98-1.78-.44-4,1.25-5.14l80.47-51.75-91.95,53.1c-1.86,1.11-4.26.51-5.37-1.35s-.51-4.26,1.35-5.37l19.67-12.18-25.39,14.66c-1.85,1.12-4.26.52-5.38-1.34-1.12-1.85-.52-4.26,1.34-5.38h0l64.99-40.76-72.21,41.68c-1.89,1.04-4.28.35-5.32-1.54-.98-1.78-.44-4,1.25-5.14l117.1-75.23-126.82,73.21c-1.91,1.02-4.28.3-5.3-1.61-.95-1.78-.39-3.98,1.28-5.1l62.55-38.86-67.46,38.94c-1.88,1.07-4.27.42-5.34-1.46-1.03-1.81-.47-4.11,1.29-5.24l112.76-71.37-119.29,68.84c-1.88,1.07-4.27.42-5.34-1.46-1.03-1.81-.47-4.11,1.29-5.24l128.66-81.9-135.02,77.97c-1.9,1.03-4.28.32-5.31-1.58-.96-1.78-.41-4,1.27-5.12l91.83-57.29-95.24,55.02c-1.88,1.06-4.27.39-5.33-1.49-1.02-1.82-.44-4.11,1.32-5.23l73.7-45.62-75.9,43.85c-1.85,1.12-4.26.53-5.38-1.32-1.12-1.85-.53-4.26,1.32-5.38l140.74-89.81-144.77,83.57c-1.88,1.06-4.27.39-5.33-1.49-1.02-1.82-.44-4.11,1.32-5.23l70.64-43.67-71.41,41.23c-1.89,1.04-4.28.35-5.32-1.54-.99-1.8-.42-4.05,1.29-5.17l89.63-55.78-90.2,52.07c-1.89,1.04-4.28.35-5.32-1.54-.99-1.8-.42-4.05,1.29-5.17l77.89-48.32-77.63,44.82c-1.85,1.12-4.26.52-5.38-1.34-1.12-1.85-.52-4.26,1.34-5.38h0l104.22-65.43-103.77,59.9c-1.91,1.01-4.28.28-5.29-1.63-.93-1.76-.39-3.93,1.24-5.05l118.24-75.03-117.14,67.61c-1.9,1.03-4.28.32-5.31-1.58-.96-1.78-.41-4,1.27-5.12l82.12-51.42-79.61,46c-1.84,1.13-4.25.55-5.38-1.3-1.13-1.84-.55-4.25,1.3-5.38h0l124.6-80.48-121.29,70.02c-1.91,1.01-4.28.28-5.29-1.63-.93-1.76-.39-3.93,1.24-5.05l86.49-54.91-81.73,47.19c-1.89,1.04-4.28.35-5.32-1.54-.98-1.79-.43-4.03,1.27-5.15l60.63-38.24-54.87,31.7c-1.88,1.07-4.27.41-5.34-1.47-1.02-1.8-.47-4.08,1.26-5.21l79.59-51.33-71.87,41.5c-1.89,1.06-4.27.38-5.33-1.51-.99-1.77-.46-4.01,1.22-5.15l75.17-49.33-64.87,37.48c-1.89,1.06-4.27.39-5.33-1.5-.99-1.76-.47-3.99,1.2-5.14l60.68-40.44-47.12,27.21c-1.84,1.14-4.25.57-5.39-1.26-1.14-1.84-.57-4.25,1.26-5.39l27.48-18.24-11.6,6.7c-1.94.95-4.29.15-5.24-1.79-.78-1.59-.4-3.5.93-4.67l33.2-25.61c-2.15-.22-3.72-2.14-3.5-4.29.13-1.25.85-2.36,1.93-2.99l44.51-25.69c1.88-1.06,4.27-.39,5.33,1.49.95,1.68.53,3.81-.99,5l-28.8,22.16,68.44-39.51c1.87-1.08,4.27-.45,5.35,1.42,1.04,1.8.5,4.09-1.23,5.23l-27.37,18.15,44.73-25.84c1.88-1.07,4.27-.41,5.34,1.47,1.01,1.78.48,4.04-1.21,5.18l-60.73,40.47,78.66-45.35c1.88-1.07,4.27-.41,5.34,1.47,1.02,1.79.48,4.06-1.24,5.19l-75.13,49.26,90.18-52.07c1.89-1.04,4.28-.35,5.32,1.54.98,1.78.44,4-1.25,5.14l-79.66,51.36,91.67-52.93c1.89-1.04,4.28-.35,5.32,1.54.98,1.79.43,4.03-1.27,5.15l-60.58,38.18,68.81-39.72c1.91-1.01,4.28-.28,5.29,1.63.93,1.76.39,3.93-1.24,5.05l-86.6,54.96,95.4-55.05c1.89-1.05,4.27-.38,5.33,1.51,1,1.78.46,4.03-1.24,5.16l-124.54,80.49,134.93-77.91c1.85-1.12,4.26-.52,5.38,1.34,1.12,1.85.52,4.26-1.34,5.38l-82.22,51.44,87.84-50.71c1.9-1.03,4.28-.32,5.31,1.58.96,1.77.42,3.98-1.25,5.11l-118.2,74.98,124.88-72.09c1.85-1.12,4.26-.52,5.38,1.34,1.12,1.85.52,4.26-1.34,5.38l-104.14,65.4,108.93-62.89c1.89-1.04,4.28-.35,5.32,1.54.99,1.8.43,4.05-1.29,5.17l-77.91,48.34,80.83-46.67c1.86-1.11,4.26-.51,5.38,1.34,1.11,1.86.51,4.26-1.34,5.38l-89.52,55.7,92.18-53.25c1.86-1.11,4.26-.5,5.37,1.36,1.11,1.86.5,4.26-1.36,5.37l-70.82,43.85,72.38-41.78c1.88-1.07,4.27-.42,5.34,1.46,1.03,1.81.47,4.11-1.29,5.24l-140.74,89.73,143.87-83.06c1.88-1.06,4.27-.39,5.33,1.49,1.02,1.82.44,4.11-1.32,5.23l-73.64,45.59,73.88-42.68c1.9-1.03,4.28-.32,5.31,1.58.96,1.78.41,4-1.27,5.13l-91.96,57.36,91.94-53.1c1.85-1.12,4.26-.53,5.38,1.32s.53,4.26-1.32,5.38l-128.61,81.9,128.64-74.27c1.85-1.12,4.26-.52,5.38,1.33,1.12,1.85.52,4.26-1.33,5.38l-112.75,71.37,111.28-64.21c1.91-1.02,4.28-.3,5.3,1.61.95,1.78.39,3.98-1.28,5.1l-62.5,38.81,59.77-34.5c1.87-1.09,4.26-.47,5.36,1.4,1.07,1.82.5,4.16-1.29,5.29l-117.15,75.26,113.72-65.65c1.87-1.08,4.27-.44,5.35,1.44,1.05,1.83.47,4.16-1.31,5.27l-64.91,40.72,60.29-34.8c1.88-1.06,4.27-.39,5.33,1.49,1.02,1.82.44,4.11-1.32,5.23l-19.65,12.18,14.45-8.35c1.85-1.13,4.26-.54,5.38,1.3,1.13,1.85.54,4.26-1.3,5.38l-80.5,51.76,73.28-42.28c1.89-1.06,4.27-.38,5.33,1.51,1,1.79.45,4.05-1.26,5.18l-52.4,33.46,43.99-25.4c1.85-1.13,4.26-.54,5.38,1.3s.54,4.26-1.3,5.38l-40.6,26.04,30.47-17.59c1.91-1.02,4.28-.31,5.3,1.6.94,1.75.42,3.93-1.21,5.07l-32.43,21.14,19.86-11.46c1.89-1.06,4.27-.39,5.33,1.5.99,1.76.47,3.99-1.2,5.14l-27.52,18.48,10.25-5.95c1.86-1.09,4.26-.47,5.36,1.39,1.03,1.76.54,4.01-1.12,5.18l-24.27,17.32c2.03.75,3.07,3,2.32,5.03-.31.85-.91,1.56-1.69,2.02l-54.92,31.71c-1.86,1.09-4.26.47-5.36-1.39-1.03-1.76-.54-4.01,1.12-5.18l12.57-8.98-40.51,23.39c-1.89,1.06-4.27.39-5.33-1.5-.99-1.76-.47-3.99,1.2-5.14l27.54-18.49-46.58,26.96c-.6.34-1.27.51-1.96.51h0Z"/>
      <path class="cls-10" d="m245.2,440.36c-2.16,0-3.92-1.75-3.91-3.92,0-1.27.62-2.46,1.65-3.19l22.03-15.61-33.44,19.3c-1.9,1.04-4.28.35-5.32-1.55-.95-1.74-.45-3.92,1.17-5.07l17.93-12.14-25.35,14.63c-1.84,1.14-4.25.57-5.39-1.27-1.14-1.84-.57-4.25,1.27-5.39l9.2-6.05-14.02,8.1c-1.88,1.08-4.27.43-5.34-1.45-1-1.73-.52-3.94,1.09-5.11l59.42-42.98-68.69,39.64c-1.89,1.04-4.28.35-5.32-1.54-.96-1.74-.46-3.91,1.14-5.07l33.09-22.71-36.86,21.27c-1.87,1.09-4.27.45-5.35-1.42-1.03-1.78-.51-4.05,1.19-5.2l17.04-11.58-18.58,10.71c-1.87,1.08-4.27.45-5.35-1.42-1.01-1.74-.53-3.97,1.11-5.15l25.26-18.16-26.62,15.38c-1.88,1.06-4.27.4-5.33-1.48-.95-1.67-.54-3.79.97-4.99l26.21-20.59-26.75,15.43c-1.89,1.05-4.27.36-5.32-1.53-.94-1.69-.5-3.81,1.03-4.99l4.13-3.09-2.15,1.25c-1.89,1.05-4.27.38-5.33-1.51-.92-1.65-.53-3.73.93-4.93l2.51-2c-1.99.84-4.29-.09-5.13-2.08-.47-1.1-.4-2.36.17-3.41l7.54-13.48-.64.37c-1.92,1-4.28.26-5.28-1.65-.94-1.8-.35-4.03,1.37-5.12l12.97-7.49c1.52-.9,3.45-.65,4.7.6,1.25,1.24,1.53,3.16.67,4.7l-7.56,13.47,32.54-18.79c1.89-1.05,4.27-.38,5.33,1.51.92,1.65.53,3.73-.93,4.93l-2.4,1.91,14.5-8.35c1.88-1.06,4.27-.4,5.33,1.48.96,1.7.52,3.85-1.04,5.04l-4.13,3.08,16.65-9.6c1.88-1.06,4.27-.4,5.33,1.48.95,1.67.54,3.79-.97,4.98l-26.19,20.55,46.83-27.01c1.87-1.08,4.27-.45,5.35,1.42,1.01,1.74.53,3.97-1.11,5.15l-25.29,18.18,42.89-24.75c1.9-1.03,4.28-.33,5.31,1.57.94,1.73.45,3.89-1.15,5.05l-17.02,11.58,31.53-18.2c1.89-1.04,4.28-.35,5.32,1.54.96,1.74.46,3.91-1.14,5.07l-33.07,22.71,47.87-27.63c1.89-1.05,4.27-.37,5.32,1.52.95,1.71.49,3.86-1.07,5.04l-59.42,42.96,63.5-36.67c1.85-1.11,4.26-.51,5.37,1.35,1.09,1.82.53,4.18-1.26,5.32l-9.22,6.06,4.63-2.67c1.86-1.1,4.26-.49,5.36,1.37,1.06,1.79.53,4.11-1.21,5.26l-17.95,12.16,11.69-6.75c1.87-1.08,4.27-.44,5.35,1.44,1.01,1.75.52,3.98-1.13,5.15l-22,15.58,12.36-7.13c1.86-1.1,4.26-.48,5.36,1.38.96,1.63.62,3.72-.81,4.95l-23.21,20.36c1.6-.25,3.18.51,3.99,1.91,1.08,1.87.44,4.26-1.43,5.35l-31.9,18.45c-1.87,1.09-4.27.45-5.35-1.42-.94-1.62-.6-3.68.81-4.92l22.19-19.5-51.1,29.5c-.59.35-1.27.53-1.96.53h0Z"/>
      <path class="cls-5" d="m209.59,376.73c-2.16,0-3.92-1.75-3.92-3.92,0-.85.27-1.67.78-2.35l12.64-16.52-15.04,8.68c-1.88,1.08-4.27.43-5.34-1.45-.7-1.22-.69-2.72.02-3.93l6.45-10.85-7.09,4.08c-1.87,1.08-4.27.44-5.35-1.44-.24-.42-.4-.88-.48-1.36l-.99-6.49c-2.16-.02-3.9-1.79-3.88-3.95.01-1.39.76-2.67,1.97-3.37l3.05-1.75c1.12-.64,2.49-.69,3.66-.13,1.16.56,1.97,1.66,2.17,2.94l.9,5.91,15.12-8.73c1.88-1.08,4.27-.43,5.34,1.45.7,1.22.69,2.72-.02,3.93l-6.44,10.85,19.04-10.96c1.61-.94,3.66-.61,4.9.78,1.23,1.4,1.31,3.48.17,4.96l-14.42,18.82c1.02.26,1.89.93,2.4,1.84,1.08,1.87.44,4.26-1.43,5.34l-12.26,7.05c-.59.36-1.27.56-1.96.57Z"/>
      <path class="cls-5" d="m285.7,373.85c-2.16,0-3.92-1.75-3.92-3.91,0-.96.35-1.89.99-2.61l11.31-12.68-12.14,7.05c-1.86,1.09-4.26.47-5.36-1.39-.88-1.49-.67-3.38.51-4.65l3.63-3.92-2.87,1.64c-1.07.63-2.39.71-3.53.2-1.14-.5-1.98-1.52-2.25-2.74l-2.11-9.71c-2.16.17-4.04-1.44-4.21-3.59-.12-1.51.65-2.96,1.97-3.71l3.05-1.75c1.08-.62,2.39-.69,3.53-.2,1.14.5,1.98,1.52,2.25,2.74l2.05,9.27,20.44-11.79c1.88-1.08,4.27-.43,5.34,1.45.85,1.48.64,3.33-.51,4.59l-3.63,3.92,11.03-6.35c1.88-1.07,4.27-.42,5.34,1.46.83,1.46.65,3.28-.46,4.54l-12.83,14.37c2.15.19,3.75,2.09,3.55,4.25-.11,1.27-.84,2.41-1.94,3.04l-17.29,9.98c-.59.35-1.27.53-1.96.52h0Z"/>
      <path class="cls-5" d="m150.68,296.72c-2.16,0-3.91-1.76-3.91-3.92,0-1.26.61-2.44,1.63-3.17l7.32-5.25-12.02,6.94c-1.88,1.07-4.27.42-5.34-1.46-.96-1.69-.54-3.83.99-5.02l27.45-21.27-27.84,16.08c-1.88,1.07-4.27.42-5.34-1.46-.95-1.67-.55-3.79.95-4.99l24.88-19.69-21.88,12.62c-1.87,1.08-4.27.43-5.35-1.44-.95-1.65-.57-3.74.88-4.95l17.95-14.95-10.18,5.86c-1.88,1.06-4.27.4-5.34-1.48-.91-1.61-.57-3.65.83-4.87l9.8-8.42c-.49-.33-.89-.76-1.18-1.28-1.08-1.87-.44-4.27,1.43-5.35l22.99-13.31c1.88-1.06,4.27-.4,5.34,1.48.91,1.61.57,3.65-.83,4.87l-.7.61,13.5-7.79c1.87-1.09,4.26-.46,5.36,1.4.97,1.66.59,3.77-.89,5l-17.95,14.94,28.62-16.52c1.88-1.07,4.27-.43,5.34,1.45.96,1.68.55,3.81-.96,5.01l-24.86,19.69,31.48-18.17c1.87-1.09,4.27-.46,5.35,1.41.99,1.7.57,3.87-.99,5.07l-27.48,21.27,30.89-17.79c1.88-1.06,4.27-.4,5.33,1.48.98,1.73.5,3.92-1.1,5.09l-7.34,5.27,6.78-3.92c1.87-1.08,4.27-.45,5.35,1.43.96,1.66.58,3.77-.9,4.99l-16.74,13.87,14.88-8.57c1.86-1.11,4.26-.5,5.37,1.36.99,1.67.62,3.81-.89,5.04l-3.92,3.28c2.07-.64,4.26.52,4.9,2.58.32,1.05.19,2.18-.36,3.12l-7.65,13.04c.47.33.86.75,1.14,1.25,1.08,1.87.44,4.26-1.43,5.35l-6.26,3.62c-1.87,1.08-4.27.44-5.35-1.43-.7-1.22-.7-2.72,0-3.93l5.3-9.1-25.12,14.5c-1.87,1.09-4.26.46-5.36-1.4-.97-1.66-.59-3.77.89-5l3.48-2.91-16.15,9.33c-1.86,1.1-4.26.48-5.36-1.38-.99-1.67-.6-3.81.91-5.03l16.8-13.88-35.24,20.36c-.59.33-1.26.49-1.93.48h0Z"/>
      <path class="cls-5" d="m306.54,296.7c-2.16,0-3.91-1.76-3.9-3.93,0-1.19.55-2.32,1.48-3.06l16.75-13.21-33.33,19.24c-1.89,1.04-4.28.35-5.32-1.54-.93-1.68-.5-3.79,1.02-4.97l22.64-17-23.82,13.75c-1.88,1.08-4.27.43-5.34-1.45-.95-1.66-.56-3.77.92-4.98l31.15-25.28-30.15,17.41c-1.88,1.07-4.27.42-5.34-1.45-.98-1.72-.53-3.9,1.06-5.09l7.83-5.79-3.17,1.82c-1.88,1.08-4.27.43-5.34-1.45-.85-1.48-.64-3.33.51-4.59l18.01-19.65-.88.51c-1.82,1.16-4.24.62-5.4-1.2s-.62-4.24,1.2-5.4c.09-.06.19-.11.29-.17l22.99-13.31c1.88-1.07,4.27-.41,5.34,1.47.84,1.47.63,3.31-.5,4.56l-18.01,19.65,41.12-23.74c1.88-1.07,4.27-.42,5.34,1.45.98,1.72.53,3.9-1.06,5.09l-7.83,5.79,12.87-7.42c1.87-1.09,4.26-.46,5.36,1.41.98,1.67.58,3.81-.92,5.02l-31.16,25.31,37.37-21.56c1.89-1.04,4.28-.35,5.32,1.54.93,1.68.5,3.79-1.02,4.97l-22.62,16.98,24.06-13.89c1.88-1.06,4.27-.39,5.33,1.49.94,1.67.53,3.77-.95,4.97l-16.8,13.25,15.66-9.04c1.87-1.08,4.27-.43,5.35,1.44.85,1.47.65,3.32-.49,4.58l-15.97,17.59,10.96-6.33c1.89-1.06,4.27-.38,5.33,1.5.7,1.24.66,2.77-.09,3.98l-6.62,10.18c.29.27.54.59.74.93,1.08,1.87.44,4.26-1.43,5.35l-6.26,3.62c-1.87,1.08-4.27.43-5.35-1.44-.73-1.27-.69-2.84.11-4.08l3.34-5.13-18.5,10.68c-1.87,1.09-4.27.45-5.35-1.41-.86-1.48-.66-3.34.49-4.61l15.98-17.59-41.01,23.7c-.59.35-1.27.53-1.96.52h0Z"/>
      <path class="cls-7" d="m254.87,440.63c-2.16,0-3.91-1.75-3.91-3.92,0-1.11.47-2.17,1.3-2.91l8.37-7.52-21.53,12.43c-1.87,1.08-4.27.45-5.35-1.43-.96-1.66-.58-3.77.9-4.99l4.96-4.06-12.68,7.32c-1.87,1.08-4.27.44-5.35-1.43-.82-1.42-.67-3.19.37-4.45l14.3-17.34-26.39,15.22c-1.87,1.08-4.27.44-5.35-1.44-.57-.99-.68-2.18-.3-3.26l3.61-10.18-10.32,5.94c-1.92,1-4.28.26-5.28-1.65-.94-1.8-.35-4.03,1.37-5.12l19.5-11.24c1.87-1.08,4.27-.44,5.35,1.44.57.99.68,2.18.3,3.26l-3.6,10.18,35.93-20.73c1.87-1.08,4.27-.44,5.35,1.43.82,1.42.67,3.19-.37,4.45l-14.26,17.34,35.48-20.48c1.87-1.09,4.27-.45,5.35,1.42.97,1.67.58,3.79-.91,5l-4.95,4.05,12.44-7.18c1.91-1.02,4.28-.31,5.3,1.6.83,1.54.53,3.45-.73,4.67l-8.35,7.5,15.47-8.93c1.89-1.05,4.27-.37,5.32,1.52.84,1.52.59,3.4-.63,4.64l-2.48,2.47,5.22-3.01c1.92-1,4.28-.26,5.28,1.65.94,1.8.35,4.03-1.37,5.12l-31.31,18.1c-1.91,1.01-4.28.27-5.29-1.64-.77-1.47-.54-3.27.59-4.48l2.48-2.47-21.92,12.64c-.59.32-1.25.49-1.92.49h0Z"/>
      <path class="cls-6" d="m217.14,295.93c-2.16,0-3.91-1.76-3.91-3.92,0-.67.17-1.34.51-1.92l4.14-7.32-16.52,9.54c-1.87,1.08-4.27.44-5.35-1.44-.85-1.47-.65-3.31.48-4.57l9.46-10.52-18.79,10.86c-1.87,1.08-4.27.43-5.35-1.44-.93-1.62-.59-3.68.83-4.91l3.01-2.61-.99.57c-1.87,1.08-4.27.44-5.35-1.43-.81-1.4-.67-3.15.34-4.41l7.83-9.76c-2.15.2-4.06-1.38-4.27-3.53-.14-1.51.6-2.97,1.92-3.74l16.04-9.26c1.87-1.08,4.27-.44,5.35,1.43.81,1.4.67,3.15-.34,4.41l-7.27,9.03,18.46-10.66c1.87-1.09,4.26-.46,5.36,1.41.95,1.63.6,3.71-.83,4.94l-3,2.6,4.53-2.62c1.88-1.07,4.27-.42,5.34,1.46.83,1.46.64,3.28-.47,4.54l-9.46,10.52,7.57-4.36c1.52-.9,3.45-.65,4.7.6,1.25,1.24,1.52,3.16.66,4.7l-6.93,12.28c.24.23.45.5.63.78,1.08,1.87.44,4.27-1.43,5.35l-4.92,2.84c-.6.36-1.28.55-1.97.56h0Z"/>
      <path class="cls-6" d="m283.69,293.44c-2.16,0-3.92-1.75-3.92-3.91,0-1.16.51-2.27,1.41-3.01l.85-.7c-1.85,1.12-4.26.54-5.38-1.31-.98-1.61-.67-3.7.74-4.95l7.36-6.97-5.58,3.22c-1.87,1.08-4.27.43-5.35-1.44-.83-1.44-.66-3.26.44-4.52l6.26-7.21c-1.19-.16-2.24-.87-2.83-1.92-1.08-1.87-.44-4.26,1.43-5.35l16.07-9.26c1.87-1.08,4.27-.43,5.35,1.44.83,1.44.66,3.26-.44,4.52l-4.58,5.27,14.16-8.17c1.85-1.12,4.26-.54,5.38,1.31.98,1.61.67,3.7-.74,4.95l-7.36,6.96,10.27-5.93c1.86-1.11,4.26-.5,5.37,1.36.99,1.67.62,3.81-.89,5.04l-.95.78c1.98-.88,4.29.01,5.17,1.99.58,1.31.4,2.83-.47,3.97l-4.82,6.26c2.05-.68,4.27.44,4.94,2.49.58,1.76-.15,3.68-1.75,4.61l-16.25,9.4c-1.88,1.07-4.27.42-5.34-1.45-.78-1.37-.67-3.07.28-4.32l4.7-6.09-21.56,12.45c-.59.33-1.26.5-1.94.49h0Z"/>
      <path class="cls-2" d="m451.09,98.65c-32,32.43-59.67,52.35-105.33,63.73-52.64-35.15-132.17-34.84-185.41.35-27.12-5.53-52.83-16.55-75.55-32.37-13.12-9.8-20.77-25.67-32.9-35.04-8.66-6.69-14.43-9.09-22.54.31-15.54,17.91-8.94,65.27-4.38,86.52,9.05,38.2,27.23,73.63,52.97,103.27-3.79,24.03-2.4,48.59,4.06,72.04-3.35,23.19-5.29,46.57-5.79,69.99-.43,15.47-4.7,36.14,13.31,43.15,28.11,8.79,38.87-11.21,35.45-37.89,13.93,14.54,30.21,26.64,48.14,35.79-1.94,11.79-3.03,23.71-3.28,35.66-34.85-1.25-46.2,46.44-5.26,46.01,65.5,7.53,49.77-15.05,62.49-64.41,17.36,2.53,34.99,2.44,52.32-.26,10.28,20.79-2.07,60.75,27.54,65.84h39.7c34.16-4.6,17.58-53.39-12.19-48.55-.22-11.42-1.27-22.82-3.13-34.09,18.42-9.38,35.05-21.93,49.13-37.06-3.85,26.75,7.63,47.91,36.27,38.75,17.44-6.87,13.08-27.91,12.66-42.67-.29-24.13-2.45-48.19-6.46-71.98,6.73-22.47,8.17-46.19,4.23-69.31,25.98-29.75,44.31-65.39,53.4-103.82,4.46-20.81,11.25-69.06-4.8-86.97-9.83-10.99-16.27-5.5-24.64,3h0ZM33.36,177.27c-2.82-15.03-8.99-85.51,15.52-71.63,13.02,7.38,23.69,25.84,37.21,34.75,20.42,12.83,42.85,22.16,66.35,27.59-16.4,11.44-30.8,25.51-42.63,41.63-18.32-12.72-38.37-28.56-48.6-48.55-2.03-3.97-10.72-.67-8.43,3.84,10.91,21.35,32.89,38.32,52.23,51.6-11.85,17.78-20.32,37.59-25.01,58.44-23.21-28.31-39.21-61.82-46.64-97.67h0Zm81.36,276.41c-2.52,7.46-10,12.06-17.79,10.96-22.07-4.38-7.73-69.12-8.15-87.47,6.66,16.18,15.67,31.28,26.75,44.82-.05,9.15,2.17,23.08-.81,31.71v-.02Zm95.4,69.23c.16,15.73-7.42,22.51-23.97,20.19-8.26.85-16.59.85-24.85,0-10.54-2.42-18.28-15.72-8.94-24.97,6.16-5.24,14.17-7.81,22.23-7.13,2.25.14,4.24-1.47,4.56-3.71.09-11.6,1.01-23.18,2.72-34.65,11.55,5.13,23.63,8.99,36.02,11.51-3.76,12.67-6.36,25.65-7.77,38.78v-.02Zm117.41-15.46c-.19,6.47,7.05,4.49,11.29,4.75,7.5.08,14.38,4.19,18.01,10.75,10.67,28.97-34.23,16.44-49.72,19-15.36-1.73-13.23-25.93-15.41-37.63-1.31-6.79-3-13.51-5.07-20.12,13.11-2.61,25.87-6.73,38.02-12.27,1.88,11.75,2.84,23.62,2.87,35.52h0Zm0-44.85c-.85.11-1.64.51-2.23,1.14-13.04,6.42-26.89,11.03-41.17,13.73-1.16-1.23-2.7-.65-3.86.7C46.26,504.62,11.42,163.26,246.9,143.24c179.89-2.54,237.37,237.85,80.65,319.36h-.03Zm92.44-34.24c.31,10.64,3.45,34.24-12.91,36.47-7.93.03-14.81-5.49-16.49-13.24-2.76-8.81.2-22.04-.69-30.89,11.01-13.89,19.95-29.31,26.53-45.77,2.01,17.74,3.13,35.57,3.59,53.43h-.03Zm52.99-256.26c-6.92,37.9-23.47,73.39-48.07,103.04-4.74-20.66-13.01-40.34-24.43-58.19,19.31-13.37,40.44-30.19,51.25-51.36,2.08-4.06-3.78-10.45-6.45-5.23-10.38,20.32-31.44,36.33-49.91,49.03-11.4-16.01-25.39-30.02-41.38-41.46,24.62-5.66,48.01-15.71,69.06-29.68,12.09-8.43,22.07-25.93,33.93-32.55,23.42-13.06,18.68,49.78,16.03,66.41h-.03Z"/>
      <path class="cls-2" d="m250.4,331.52c-19.4,0-73.46-10.7-86.06,11.35-11.35,19.83,7.72,54.03,20.63,68.31,33.44,37.32,86.68,37.41,126.76,6.46,1.52-.43,2.82-1.43,3.62-2.8,20.23-16.28,33.9-39.07,27.99-65.26-7.05-31.2-70.41-18.06-92.94-18.06h0Zm59.43,7.05c-20.42,42.6-15.89,40.12-35.54-1.06,11.85-.85,23.76-.48,35.53,1.08v-.02Zm-79.4-.27c-21.7,45.2-14.16,37.59-34.99-1.9,11.69-.13,23.38.51,34.99,1.92v-.02Zm23.37,95c-19.32-.09-37.99-6.98-52.74-19.46,32.46-16.72,71.08-16.38,103.24.9-14.51,11.28-32.16,17.77-50.51,18.57v-.02Zm78.67-64.06c-3.18,14.89-10.59,28.54-21.35,39.32-36.03-19.7-79.64-19.58-115.57.31-14.5-13.62-42.04-62.85-8.99-71.17l11.02,22.43c3.51,7.16,6.34,17.23,15.82,17.76,9.48.53,12.23-8.85,15.66-15.85l11.36-23.14c7.89.15,16.09-.45,24.63-.9,3.85,8.13,7.95,16.19,11.88,24.27,3.13,6.34,6.04,17.11,14.88,16.52,8.42-.56,11.45-10.96,14.56-17.27,3.51-7.16,7.03-14.33,10.56-21.5,13.38,3.7,19.46,11.29,15.54,29.24v-.02Z"/>
      <path class="cls-2" d="m217.85,296.68c.59.58,1.4.87,2.22.78,2.93.92,5.83,1.87,8.55,3.03,4.96,2.11,5.33-7.05,1.26-8.77-1.35-.57-2.83-.99-4.23-1.5,2.77-5.44,4.63-11.29,5.48-17.34,4.7-1.04,1.57-6.9.56-9.78-7.31-85.11-127.38-50.82-93.18,26.9-1.47.54-3.04.98-4.46,1.57-4.34,1.84-1.72,10.85,2.51,9.05,25.97-10,54.47-11.38,81.28-3.94h0Zm-27.96-13.62c-14.06-27.03,27.86-44.79,34.52-13.41-.68,6.35-2.7,12.49-5.93,18.01-9.33-2.59-18.92-4.13-28.59-4.6Zm-5.48-60.47c17.6.58,32.91,12.21,38.19,29.01-21.35-17.49-53.94,5.55-42.18,31.15-11.58.04-23.1,1.6-34.27,4.64-12.43-19.82-6.43-45.97,13.4-58.39,7.42-4.65,16.09-6.89,24.83-6.4h.04Z"/>
      <path class="cls-2" d="m371.36,292.75c-1.57-.67-3.3-1.16-4.93-1.75,36.4-79.79-88.62-113.46-92.65-25.46-.92,2.35-2.44,7.24.66,7.95.92,5.93,2.81,11.68,5.58,17.01-2.04.71-4.16,1.34-6.09,2.16-5.4,2.29.42,8.68,4.64,6.89,2.01-.85,4.2-1.57,6.33-2.26,1.23.44,2.61-.05,3.29-1.17,8.45-2.49,17.15-4.04,25.93-4.64,1.44,1.3,3.65,1.2,4.96-.23,13.2-.59,26.41.89,39.15,4.38,1.05,1.64,2.72,2.56,4.28,1.46,2.22.74,4.47,1.44,6.56,2.35,5.4,2.26,7.63-4.43,2.29-6.7h0Zm-50.15-70.17c23.39-1.21,43.34,16.77,44.56,40.16.47,9.1-2,18.11-7.04,25.69-11.34-3.07-23.03-4.67-34.77-4.75,6.73-12.95,1.69-28.9-11.26-35.63-9.79-5.09-21.7-3.56-29.89,3.83,5.22-16.98,20.65-28.76,38.41-29.32Zm-40.37,45.17c8.17-28.76,50.18-8.69,34.89,16.18-9.61.38-19.16,1.8-28.46,4.24-3.74-6.2-5.95-13.2-6.43-20.42h0Z"/>
    </g>
  </g>
  <g id="Capa_3" data-name="Capa 3">
    <g>
      <path class="cls-9" d="m462,113.11c0,45.6-70.88,140.85-212.43,140.85S37.1,158.71,37.1,113.11s59.25,31.03,210.46,31.03c151.34.09,214.45-76.63,214.45-31.03Z"/>
      <path class="cls-3" d="m249.57,259c-80.32,0-132.68-29.63-162.53-54.47-37.92-31.6-54.95-68.69-54.95-91.42,0-12.95,5-19.49,14.79-19.49,7.72,0,18.04,4.17,33.58,10.4,32.52,13.17,86.99,35.11,167.18,35.11s135.36-21.81,168.63-34.85c15.89-6.19,27.39-10.71,35.55-10.71,10.14,0,15.27,6.54,15.27,19.49,0,22.74-16.94,59.78-54.95,91.42-29.85,24.84-82.21,54.47-162.53,54.47l-.04.04ZM46.89,103.67c-2.19,0-4.7,0-4.7,9.44,0,20.32,15.84,54.12,51.31,83.7,28.57,23.79,78.83,52.14,156.12,52.14s127.55-28.35,156.12-52.14c35.46-29.58,51.31-63.33,51.31-83.7,0-9.44-2.68-9.44-5.22-9.44-6.28,0-17.6,4.43-31.86,10.01-34.02,13.3-90.81,35.55-172.32,35.55s-137.69-22.47-170.91-35.81c-13.43-5.4-24.05-9.7-29.85-9.7v-.04Z"/>
      <path class="cls-9" d="m289.69,5.05c-9.09,0-20.85,17.47-41.61,17.47s-33.44-17.47-44.29-17.47c-15.27,0-33.66,45.91-46.52,80.23-12.86,34.37-16.77,63.07-16.77,73.6,0,19.71,34.28,47.36,107.53,47.36s107.53-28.66,107.53-47.36c0-10.27-4.43-38.36-18.52-73.34-11.76-29.36-30.42-80.54-47.45-80.54l.09.04Z"/>
      <path class="cls-3" d="m248.12,211.29c-42.71,0-69.04-9.22-83.61-16.9-18.17-9.66-29.01-22.87-29.01-35.55,0-10.27,3.6-39.33,17.12-75.4C171.4,33.4,187.34.04,203.84.04c5.97,0,11.41,3.47,17.73,7.37,7.46,4.7,15.89,10.05,26.55,10.05s19.09-5.57,26.25-10.49c5.49-3.73,10.23-6.98,15.36-6.98,17.6,0,31.95,32.74,48.94,75.45,1.14,2.9,2.24,5.62,3.25,8.16,14.92,37.18,18.87,65.44,18.87,75.23,0,12.33-10.84,25.5-28.92,35.2-14.7,7.81-41.17,17.16-83.7,17.16l-.04.09ZM203.84,10.05c-1.67,0-7.94,1.76-19.71,24.49-8.03,15.54-15.71,35.24-22.16,52.45-12.11,32.17-16.46,60.61-16.46,71.85,0,6.85,6.19,17.38,23.66,26.69,13.61,7.2,38.27,15.76,78.92,15.76s65.27-8.73,78.92-16.06c17.47-9.35,23.66-20.06,23.66-26.33,0-10.58-4.87-38.27-18.17-71.45-1.05-2.59-2.11-5.35-3.29-8.25-5.79-14.57-12.95-32.65-20.5-46.79-10.71-20.15-16.9-22.3-19.09-22.3-2.06,0-5.93,2.68-9.7,5.22-7.55,5.14-17.86,12.25-31.86,12.25s-23.7-6.41-31.86-11.63c-4.65-3.03-9.13-5.93-12.25-5.93l-.09.04Z"/>
      <g>
        <path class="cls-3" d="m248.12,180.08c-63.69,0-97.92-20.98-105.78-39.33-1.27,8.03-1.76,14.31-1.76,18.08,0,19.71,34.28,47.36,107.53,47.36s107.53-28.66,107.53-47.36c0-3.73-.61-9.88-2.06-17.82-8.25,17.86-42.44,39.06-105.51,39.06h.04Z"/>
        <path class="cls-3" d="m248.12,211.29c-42.71,0-69.04-9.22-83.61-16.9-18.17-9.66-29.01-22.87-29.01-35.55,0-4.65.61-11.32,1.84-18.87.35-2.19,2.11-3.95,4.35-4.21s4.35.97,5.22,3.03c7.46,17.47,42.31,36.34,101.17,36.34s92.92-18.74,100.99-36.17c.92-1.98,3.03-3.12,5.22-2.9,2.19.26,3.95,1.89,4.3,4.08,1.32,7.55,2.11,14.22,2.11,18.74,0,12.33-10.84,25.5-28.92,35.2-14.66,7.9-41.13,17.25-83.61,17.25l-.04-.04Zm-102.4-56.75c-.13,1.62-.13,3.12-.13,4.35,0,6.85,6.19,17.38,23.66,26.69,13.61,7.2,38.27,15.76,78.92,15.76s65.27-8.73,78.92-16.06c17.47-9.35,23.66-20.06,23.66-26.33,0-1.32-.09-2.94-.22-4.7-16.11,16.68-50.83,30.99-102.35,30.99-54.6-.09-87.3-14.79-102.4-30.68h-.04Z"/>
      </g>
      <path class="cls-3" d="m353.68,146.73c-1.27,2.59-2.59,5.22-4.43,7.55-2.41,2.9-4.92,5.57-7.81,7.94-5.97,5-12.68,8.95-19.71,12.16-14.57,6.67-30.46,10.14-46.3,12.03-16.42,1.98-33.14,1.98-49.64.57-15.84-1.32-32.22-4.43-46.96-10.58-7.81-3.25-15.76-7.02-22.3-12.47-3.25-2.68-6.32-5.49-9-8.78-2.19-2.68-3.73-5.62-5.14-8.73,3.16,5.49,7.11,10.36,12.25,14.09,6.06,4.43,12.47,7.9,19.36,10.84,14.44,6.14,30.42,9.22,45.95,10.84,16.33,1.67,32.74,1.84,49.11.7,8.08-.57,16.2-1.62,24.05-3.16,7.55-1.54,15.14-3.29,22.38-5.97,7.94-2.94,16.06-6.28,23-11.28,3.38-2.41,6.54-5,9.44-8.03,2.24-2.41,3.99-5,5.71-7.72h.04Z"/>
      <path class="cls-3" d="m316.73,68.38c-8.16.35-15.27-4.3-20.41-10.36-6.06-7.11-9.48-16.46-9.92-25.76-.22-4.3.35-8.65,1.98-12.6,3.38,6.98,5.97,14.22,9.35,21.2,3.25,6.76,6.85,13.21,11.28,19.27,2.33,3.12,5.14,5.57,7.72,8.25Z"/>
      <path class="cls-3" d="m176.67,68.38c1.32-1.32,2.77-2.59,3.99-3.99,1.67-1.89,3.29-3.95,4.7-6.06,2.77-3.99,5.22-8.38,7.33-12.73,2.24-4.65,4.43-9.44,6.5-14.13,1.67-3.86,3.16-7.94,5-11.76,3.16,7.55,2.55,16.81-.09,24.4-2.9,8.51-7.94,16.24-15.71,21.11-3.6,2.24-7.59,3.29-11.76,3.16h.04Z"/>
      <path class="cls-3" d="m53.29,126.19c8.43,21.59,24.97,38.62,42.22,53.63,18.39,15.98,38.98,29.14,60.39,40.69,9.88,5.35,20.15,9.92,30.33,14.48-22.82-4.08-44.55-12.95-64.34-25.06-21.2-12.95-40.91-29.63-54.95-50.26-6.85-10.14-12.03-21.33-13.65-33.49Z"/>
      <path class="cls-3" d="m443.79,126.19c-2.94,22.82-18.52,42.57-34.76,57.94-18.21,17.16-39.77,31.03-62.94,40.56-11.41,4.65-23.17,8.16-35.24,10.27,20.15-8.87,39.68-18.79,58.16-30.81,20.28-13.21,39.63-28.49,55.48-46.88,8.08-9.35,14.84-19.49,19.36-31.03l-.04-.04Z"/>
      <path class="cls-3" d="m221.83,44.02c8.38,3.99,16.68,8.08,26.2,8.08s17.95-4.08,26.33-8.08c-4.21,7.9-12.95,13.61-21.68,14.92-7.46,1.14-15.14-.61-21.42-4.87-3.73-2.55-7.33-5.97-9.44-10.05Z"/>
      <path class="cls-11" d="m278.37,136.9c-.61,0-1.19.22-1.67.48l-8.03-13.96,8.03-13.96c.48.26,1.05.48,1.67.48,1.89,0,3.47-1.54,3.47-3.47s-1.54-3.47-3.47-3.47-3.47,1.54-3.47,3.47h-16.11l-8.51-14.79c1.05-.57,1.76-1.67,1.76-2.94,0-1.89-1.54-3.47-3.47-3.47s-3.47,1.54-3.47,3.47c0,1.27.7,2.41,1.76,2.94l-8.51,14.79h-16.11c0-1.89-1.54-3.47-3.47-3.47s-3.47,1.54-3.47,3.47,1.54,3.47,3.47,3.47c.61,0,1.19-.22,1.67-.48l8.03,13.96-8.03,13.96c-.48-.26-1.05-.48-1.67-.48-1.89,0-3.47,1.54-3.47,3.47s1.54,3.47,3.47,3.47,3.47-1.54,3.47-3.47h16.11l8.51,14.79c-1.05.57-1.76,1.67-1.76,2.94,0,1.89,1.54,3.47,3.47,3.47s3.47-1.54,3.47-3.47c0-1.27-.7-2.41-1.76-2.94l8.51-14.79h16.11c0,1.89,1.54,3.47,3.47,3.47s3.47-1.54,3.47-3.47-1.54-3.47-3.47-3.47Z"/>
      <g>
        <path class="cls-3" d="m353.81,133.65c-6.32,5.93-12.95,11.28-20.5,15.63-8.3,4.78-17.34,8.38-26.55,10.93-3.99,1.05-8.08,2.06-12.16,2.46,7.81-2.11,15.41-5.79,22.47-9.79,7.81-4.52,15.05-10.05,21.42-16.46,2.9-2.94,5.4-6.28,7.94-9.48,2.41,2.24,4.92,4.52,7.37,6.76v-.04Z"/>
        <path class="cls-3" d="m350.87,122.37c-5.97,5.49-12.25,10.23-19.44,14.09-6.41,3.47-13.3,6.14-20.32,8.03-3.12.83-6.32,1.62-9.57,2.06,8.43-2.77,16.55-7.33,23.7-12.51,3.38-2.46,6.63-5.14,9.57-8.08,3.16-3.25,5.97-6.63,8.65-10.27,2.41,2.24,4.92,4.52,7.37,6.76l.04-.09Z"/>
        <path class="cls-3" d="m347.93,111.13c-11.1,9.66-24.71,16.9-39.41,19.14,6.19-2.55,12.11-6.19,17.38-10.36,5.71-4.52,10.4-9.7,14.66-15.63,2.46,2.33,4.92,4.56,7.37,6.85Z"/>
        <path class="cls-3" d="m344.95,99.85c-8.6,6.89-18.65,12.11-29.58,14.22,9-5,16.55-12.38,22.12-20.98,2.55,2.33,5,4.52,7.46,6.76Z"/>
        <path class="cls-3" d="m342.05,88.57c-6.06,4.17-12.6,7.37-19.71,9.3,5-4.56,9-10.01,12.16-15.98,2.46,2.24,5,4.43,7.55,6.67Z"/>
      </g>
      <g>
        <path class="cls-3" d="m149.19,126.89c4.92,6.32,10.23,12.11,16.46,17.16,7.24,5.84,15.36,10.58,23.79,14.35,3.73,1.67,7.59,3.25,11.54,4.3-8.08-.92-16.11-3.38-23.7-6.28-9.09-3.47-17.69-8.25-25.41-14-3.6-2.68-6.85-5.71-10.05-8.78,2.46-2.24,4.92-4.52,7.37-6.76Z"/>
        <path class="cls-3" d="m152.18,115.61c2.77,3.6,5.49,7.02,8.65,10.27,2.94,2.94,6.19,5.62,9.57,8.08,7.11,5.22,15.27,9.79,23.7,12.51-14.13-1.84-28.09-8.03-39.77-16.11-3.47-2.41-6.5-5.14-9.57-7.94,2.46-2.33,4.92-4.56,7.37-6.85l.04.04Z"/>
        <path class="cls-3" d="m155.12,104.37c4.21,5.93,8.95,11.1,14.66,15.63,5.27,4.17,11.19,7.81,17.38,10.36-14.7-2.24-28.31-9.48-39.41-19.14,2.46-2.33,4.92-4.56,7.37-6.85Z"/>
        <path class="cls-3" d="m158.06,93.18c5.62,8.6,13.08,15.98,22.12,20.98-10.93-2.11-20.98-7.33-29.58-14.22,2.46-2.33,5-4.52,7.46-6.76Z"/>
        <path class="cls-3" d="m161.05,81.9c3.16,5.97,7.2,11.41,12.16,15.98-7.11-1.89-13.65-5.22-19.71-9.3,2.55-2.24,5.05-4.43,7.55-6.67Z"/>
      </g>
      <g>
        <polygon class="cls-3" points="141.38 152.52 97.49 131.19 144.85 143.08 141.38 152.52"/>
        <polygon class="cls-3" points="138.88 166.3 114.78 149.05 143.31 157.3 138.88 166.3"/>
        <polygon class="cls-3" points="350.79 143.08 398.19 131.19 354.25 152.52 350.79 143.08"/>
        <polygon class="cls-3" points="352.37 157.3 380.85 149.05 356.71 166.3 352.37 157.3"/>
      </g>
    </g>
  </g>
</svg>