<?xml version="1.0" encoding="UTF-8"?>
<svg xmlns="http://www.w3.org/2000/svg" viewBox="0 0 500 575">
  <defs>
    <style>
      .cls-1 {
        fill: #4d4d4d;
      }

      .cls-1, .cls-2, .cls-3, .cls-4, .cls-5, .cls-6, .cls-7, .cls-8, .cls-9, .cls-10, .cls-11, .cls-12, .cls-13, .cls-14, .cls-15 {
        stroke-width: 0px;
      }

      .cls-2 {
        fill: #262626;
      }

      .cls-3 {
        fill: #e384b0;
      }

      .cls-4 {
        fill: #ffb5e9;
      }

      .cls-5 {
        fill: #4ce0c8;
      }

      .cls-6 {
        fill: #241816;
      }

      .cls-7 {
        fill: #416b80;
      }

      .cls-8 {
        fill: #fff;
      }

      .cls-9 {
        fill: #38689b;
      }

      .cls-10 {
        fill: #5da0ff;
      }

      .cls-11 {
        fill: #dee3d7;
      }

      .cls-12 {
        fill: #e2e6eb;
      }

      .cls-13 {
        fill: #f2f1eb;
      }

      .cls-14 {
        fill: #4580c6;
      }

      .cls-15 {
        fill: #e7d8b4;
      }
    </style>
  </defs>
  <g id="Capa_1" data-name="Capa 1">
    <g>
      <path class="cls-15" d="m250,573c-66.51,0-129.04-25.9-176.07-72.93C26.9,453.04,1,390.51,1,324s25.9-129.04,72.93-176.07c47.03-47.03,109.56-72.93,176.07-72.93s129.04,25.9,176.07,72.93c47.03,47.03,72.93,109.56,72.93,176.07s-25.9,129.04-72.93,176.07c-47.03,47.03-109.56,72.93-176.07,72.93Z"/>
      <path class="cls-6" d="m250,76c33.48,0,65.96,6.56,96.53,19.49,29.53,12.49,56.05,30.37,78.83,53.15,22.78,22.78,40.66,49.3,53.15,78.83,12.93,30.57,19.49,63.05,19.49,96.53s-6.56,65.96-19.49,96.53c-12.49,29.53-30.37,56.05-53.15,78.83-22.78,22.78-49.3,40.66-78.83,53.15-30.57,12.93-63.05,19.49-96.53,19.49s-65.96-6.56-96.53-19.49c-29.53-12.49-56.05-30.37-78.83-53.15-22.78-22.78-40.66-49.3-53.15-78.83-12.93-30.57-19.49-63.05-19.49-96.53s6.56-65.96,19.49-96.53c12.49-29.53,30.37-56.05,53.15-78.83s49.3-40.66,78.83-53.15c30.57-12.93,63.05-19.49,96.53-19.49m0-2C111.93,74,0,185.93,0,324s111.93,250,250,250,250-111.93,250-250-111.93-250-250-250h0Z"/>
    </g>
  </g>
  <g id="Capa_2" data-name="Capa 2">
    <g id="Capa_2-2" data-name="Capa 2">
      <g>
        <path class="cls-14" d="m132.26,276.73c-.84,0-1.64-.39-2.18-1.06-.9-1.11-.93-2.74-.06-3.88l4.02-5.19-8.62,5.23c-1.32.93-3.1.55-3.98-.83-.84-1.33-.56-3.11.63-4.08l12.81-12.01-15.98,9.76c-1.38.82-3.13.32-3.92-1.13-.72-1.34-.38-3.03.79-3.94l2.63-2.03-2.38,1.45c-1.38.82-3.13.31-3.92-1.14-.7-1.31-.39-2.96.73-3.88l8.38-6.76-7.07,4.31c-1.38.82-3.13.31-3.92-1.14-.7-1.31-.39-2.96.73-3.88l4.2-3.41-1,.61c-1.38.84-3.13.35-3.93-1.1-.63-1.15-.48-2.61.39-3.59l9.71-11.01c-1.21.26-2.44-.33-3.06-1.46-.79-1.45-.32-3.29,1.06-4.13l15.41-9.39c1.38-.83,3.13-.33,3.92,1.12.62,1.15.47,2.59-.39,3.56l-9.36,10.63,22.48-13.68c1.39-.81,3.14-.28,3.9,1.19.68,1.3.37,2.91-.72,3.83l-4.21,3.41,7.47-4.56c1.38-.83,3.13-.34,3.93,1.1.72,1.32.4,3-.74,3.92l-8.34,6.75,10.43-6.36c1.37-.84,3.13-.36,3.93,1.09.74,1.35.4,3.07-.8,3.98l-7.08,5.45c1.58.2,2.69,1.72,2.5,3.38-.08.73-.42,1.4-.95,1.89l-13.87,13.02c.91-.05,1.78.34,2.38,1.06.9,1.11.92,2.74.06,3.87l-9.66,12.55c.57,1.41.06,3.05-1.2,3.81l-3.72,2.27c-.43.27-.93.42-1.43.42h0Z"/>
        <path class="cls-14" d="m362.99,272.15c-1.59,0-2.87-1.36-2.87-3.03,0-.84.33-1.65.92-2.22l6.89-6.84-7.93,4.85c-1.38.83-3.13.33-3.92-1.13-.7-1.28-.41-2.9.67-3.84l1.15-.98-1.25.76c-1.39.82-3.13.31-3.91-1.15-.68-1.28-.4-2.88.67-3.82l1.46-1.25-1.62.98c-1.39.82-3.13.31-3.91-1.15-.65-1.22-.43-2.74.53-3.7l9.22-8.96-10.62,6.46c-1.39.79-3.14.24-3.89-1.23-.59-1.15-.4-2.57.44-3.51l9.69-10.43-11.54,7.04c-1.38.83-3.13.33-3.92-1.12-.51-.95-.5-2.11.02-3.04l6.07-10.75-5.84,3.55c-1.34.9-3.11.48-3.96-.93s-.46-3.28.88-4.18c.06-.05.14-.09.21-.13l15.39-9.37c1.38-.84,3.13-.35,3.93,1.1.52.95.51,2.13-.02,3.07l-6.07,10.75,20.55-12.53c1.39-.79,3.14-.24,3.89,1.23.59,1.15.4,2.57-.44,3.51l-9.75,10.4,14.45-8.81c1.39-.82,3.13-.31,3.91,1.15.65,1.22.43,2.74-.53,3.7l-9.19,8.97,10.68-6.51c1.37-.84,3.13-.37,3.93,1.07.72,1.3.43,2.96-.69,3.9l-1.48,1.26.33-.2c1.38-.83,3.13-.32,3.92,1.13.69,1.28.41,2.88-.66,3.82l-1.66,1.43c1.54-.41,3.1.58,3.49,2.21.26,1.06-.06,2.2-.83,2.94l-6.89,6.83,1.95-1.18c1.38-.82,3.13-.32,3.92,1.13.78,1.44.31,3.27-1.05,4.11l-23.29,14.2c-.44.26-.94.41-1.43.4v.03Z"/>
        <path class="cls-14" d="m108.03,465.95c-1.59,0-2.87-1.36-2.87-3.03,0-.77.28-1.51.78-2.07l1.84-2.06-10.19,6.2c-1.38.83-3.13.33-3.92-1.12-.68-1.25-.43-2.83.6-3.78l4.55-4.17-8.13,4.95c-1.37.85-3.13.37-3.94-1.07-.69-1.24-.47-2.81.54-3.78l16.01-15.79-17.76,10.83c-1.38.82-3.13.32-3.92-1.14-.7-1.3-.39-2.94.72-3.87l6.99-5.74-4.02,2.47c-1.3.96-3.09.62-4-.75-.91-1.37-.59-3.26.71-4.22l14.26-12.38-10.59,6.46c-1.4.78-3.14.22-3.88-1.26-.62-1.25-.35-2.8.67-3.72l11.03-9.23-7.05,4.26c-1.38.82-3.13.32-3.92-1.14-.7-1.3-.39-2.94.72-3.87l9.12-7.48-4.73,2.88c-1.37.84-3.13.35-3.93-1.09-.71-1.29-.42-2.93.67-3.87l15.17-13.12-9.84,6.01c-1.38.83-3.13.33-3.92-1.12-.68-1.25-.43-2.84.6-3.79l16.81-15.42-10.19,6.22c-1.38.84-3.13.34-3.93-1.1-.69-1.25-.44-2.83.58-3.79l14.02-13.11-6.28,3.81c-1.39.81-3.14.29-3.91-1.18-.61-1.17-.43-2.63.46-3.59l14.07-14.74-3.57,2.17c-1.36.86-3.12.4-3.95-1.04-.7-1.22-.5-2.8.5-3.78l7.67-7.73c-1.5-.53-2.32-2.25-1.82-3.83.11-.34.27-.65.48-.93l11.29-15.03c-.39-1.35.16-2.79,1.31-3.49l2.87-1.76c1.38-.83,3.13-.34,3.92,1.11.59,1.07.5,2.42-.24,3.39l-5.34,7.11,2.46-1.49c1.38-.83,3.13-.32,3.92,1.13.65,1.2.44,2.72-.5,3.68l-4.71,4.73,1.95-1.21c1.39-.81,3.14-.29,3.91,1.18.61,1.17.43,2.63-.46,3.59l-14.08,14.75,11.64-7.04c1.38-.82,3.13-.32,3.92,1.13.67,1.24.43,2.8-.58,3.75l-14.03,13.13,11.54-7.03c1.38-.83,3.13-.33,3.92,1.12.68,1.25.43,2.84-.6,3.79l-16.81,15.43,14.43-8.79c1.37-.85,3.13-.38,3.94,1.06.72,1.3.44,2.96-.67,3.91l-15.17,13.12,10.55-6.43c1.38-.82,3.13-.32,3.92,1.14.7,1.3.39,2.94-.72,3.87l-9.11,7.48,4.68-2.86c1.38-.83,3.13-.32,3.92,1.13.7,1.3.4,2.93-.7,3.86l-11.03,9.23,6.76-4.12c1.38-.82,3.13-.32,3.92,1.14.69,1.27.41,2.88-.65,3.81l-14.26,12.38,10.14-6.18c1.38-.82,3.13-.32,3.92,1.14.7,1.3.39,2.94-.72,3.87l-6.99,5.74,3.34-2.03c1.36-.86,3.13-.39,3.94,1.05.71,1.24.48,2.84-.54,3.8l-16.01,15.76,12.23-7.45c1.37-.84,3.13-.35,3.93,1.09.7,1.26.44,2.87-.61,3.81l-4.55,4.17,1.15-.69c1.38-.83,3.13-.33,3.92,1.12.62,1.15.47,2.59-.39,3.56l-4.38,4.93c.61.24,1.13.71,1.45,1.31.79,1.44.32,3.29-1.05,4.13l-11.81,7.18c-.43.26-.92.41-1.41.41h0Z"/>
        <path class="cls-14" d="m393.64,466.04c-1.59,0-2.87-1.36-2.87-3.03,0-.75.26-1.46.72-2.01l11.04-13.15-19.49,11.87c-1.38.83-3.13.32-3.92-1.13-.69-1.28-.41-2.88.66-3.82l7.13-6.17-7.47,4.54c-1.38.82-3.13.31-3.92-1.14-.7-1.31-.39-2.96.73-3.88l1.8-1.44c-1.5.53-3.13-.31-3.64-1.9-.39-1.23,0-2.58.97-3.37l4.71-3.86-1.57.95c-1.39.82-3.13.3-3.91-1.15-.7-1.31-.39-2.94.72-3.87l2.22-1.82c-1.54.39-3.09-.62-3.46-2.25-.26-1.11.11-2.28.95-3.02l10.08-8.9-7.18,4.38c-1.38.83-3.13.33-3.92-1.13-.7-1.28-.41-2.9.67-3.84l6.24-5.37-3.52,2.14c-1.39.82-3.13.3-3.91-1.15-.63-1.18-.44-2.66.47-3.62l15.54-16.25-13.21,8.06c-1.35.87-3.12.43-3.95-1.01-.72-1.23-.5-2.83.5-3.8l11.98-12.08-9.88,6.02c-1.38.83-3.13.34-3.93-1.1-.69-1.27-.43-2.87.62-3.81l4.54-4.1-2.36,1.43c-1.39.8-3.14.27-3.9-1.19-.62-1.2-.41-2.7.53-3.65l6.32-6.06-3.33,2.02c-1.38.83-3.13.32-3.92-1.13-.63-1.17-.46-2.64.43-3.61l7.93-8.55-3.55,2.16c-1.37.85-3.13.39-3.94-1.06-.65-1.16-.5-2.63.37-3.62l5.29-6.11-.91.55c-1.38.83-3.13.34-3.92-1.11-.56-1.02-.5-2.28.14-3.24l4.69-7.05c-1.37.84-3.13.36-3.93-1.09-.54-.98-.52-2.2.06-3.16l2.33-3.96c-.31-.09-.61-.24-.88-.45-.91-.69-1.36-1.87-1.15-3.03l1.32-7.27c-.08-.12-.16-.23-.22-.35-.79-1.45-.3-3.3,1.07-4.13h0l1.11-.68c1.38-.83,3.13-.34,3.92,1.11.35.63.46,1.37.33,2.09l-.71,3.86,1.25-.76c1.14-.7,2.59-.48,3.51.51s1.07,2.53.38,3.71l-1.34,2.29,1.35-.82c1.38-.83,3.13-.33,3.92,1.12.55,1.02.5,2.27-.14,3.23l-4.69,7.06,5.72-3.49c1.38-.83,3.13-.34,3.92,1.11.62,1.14.48,2.58-.37,3.55l-5.29,6.11,5.67-3.46c1.37-.84,3.13-.36,3.93,1.08.65,1.18.48,2.68-.44,3.66l-7.96,8.55,8.35-5.08c1.39-.8,3.14-.27,3.9,1.19.62,1.2.41,2.7-.53,3.65l-6.32,6.06,6-3.64c1.37-.85,3.13-.37,3.93,1.07.71,1.27.45,2.89-.62,3.85l-4.54,4.1,3.76-2.29c1.35-.87,3.12-.43,3.95,1.01.72,1.23.5,2.83-.5,3.8l-12.01,12.08,11.74-7.14c1.39-.82,3.13-.3,3.91,1.15.63,1.18.44,2.66-.47,3.62l-15.51,16.25,15.22-9.27c1.36-.85,3.13-.39,3.94,1.06.73,1.31.45,2.98-.68,3.92l-6.26,5.37,4.63-2.82c1.38-.83,3.13-.33,3.92,1.12.69,1.27.42,2.88-.64,3.82l-10.05,8.91,8.31-5.06c1.39-.82,3.13-.3,3.91,1.15.7,1.31.39,2.94-.72,3.87l-1.77,1.43c1.49-.58,3.14.22,3.69,1.79.43,1.24.06,2.63-.94,3.45l-4.73,3.88,2.36-1.43c1.39-.81,3.14-.28,3.91,1.18.69,1.3.38,2.93-.73,3.85l-1.95,1.57c1.52-.46,3.12.46,3.55,2.07.32,1.17-.06,2.43-.95,3.19l-7.13,6.16,4.3-2.61c1.38-.83,3.13-.33,3.92,1.12.61,1.12.48,2.54-.34,3.5l-11.04,13.15,7.1-4.33c1.38-.82,3.13-.32,3.92,1.13.78,1.44.31,3.27-1.05,4.11l-22.4,13.65c-.44.27-.95.41-1.47.41h.04Z"/>
        <path class="cls-10" d="m349.78,544.75c-1.59,0-2.87-1.36-2.87-3.03,0-.85.34-1.67.94-2.24l6.94-6.67-15.82,9.63c-1.39.82-3.14.3-3.91-1.16-.67-1.26-.4-2.83.62-3.78l14.32-12.77-19.96,12.16c-1.39.82-3.13.3-3.91-1.15-.67-1.26-.4-2.85.63-3.79l19.16-16.97-23.04,14.04c-1.38.83-3.13.33-3.92-1.12-.72-1.32-.4-2.98.73-3.9l12.76-10.3-13.95,8.48c-1.38.82-3.13.32-3.92-1.13-.78-1.44-.31-3.27,1.05-4.11l51.92-31.62c1.39-.82,3.13-.3,3.91,1.15.7,1.31.39,2.94-.72,3.87l-12.74,10.3,13.42-8.17c1.37-.84,3.13-.36,3.93,1.09.71,1.28.43,2.9-.64,3.85l-19.16,16.97,19.53-11.9c1.38-.83,3.13-.33,3.92,1.12.69,1.27.42,2.87-.63,3.81l-14.32,12.77,11.18-6.8c1.39-.8,3.14-.27,3.9,1.19.62,1.2.41,2.7-.53,3.65l-7.27,6.95c1.52-.45,3.11.49,3.54,2.1.36,1.34-.2,2.76-1.34,3.45l-22.27,13.56c-.43.28-.93.43-1.43.43l-.04.02Z"/>
        <path class="cls-10" d="m265.6,544.86c-1.59,0-2.87-1.36-2.87-3.03,0-1,.47-1.94,1.26-2.51l29.87-21.45-43.69,26.56c-1.39.8-3.14.27-3.9-1.19-.7-1.35-.34-3.03.84-3.92l41.78-30.25-57.9,35.27c-1.39.81-3.14.29-3.91-1.16-.73-1.38-.33-3.14.93-4.01l12.75-8.63-20.39,12.42c-1.39.79-3.14.24-3.89-1.23-.69-1.35-.31-3.03.87-3.91l51.98-36.16-61.04,37.2c-1.36.87-3.12.42-3.95-1.02-.83-1.43-.39-3.29.96-4.16l40.5-27.27-45.77,27.87c-1.38.83-3.13.32-3.92-1.13-.75-1.39-.35-3.16.93-4.04l65.71-44.79-71.12,43.31c-1.39.78-3.14.23-3.89-1.25-.7-1.37-.29-3.08.94-3.95l22.31-14.63-24.32,14.82c-1.4.77-3.14.2-3.87-1.28-.69-1.39-.26-3.12,1-3.96l178.06-108.47c1.36-.86,3.13-.4,3.94,1.05s.38,3.3-.99,4.15l-22.28,14.59,16.65-10.16c1.39-.81,3.14-.29,3.91,1.17.73,1.37.33,3.12-.91,4l-65.75,44.84,58.27-35.49c1.39-.81,3.14-.29,3.91,1.16.73,1.38.33,3.14-.93,4.01l-40.49,27.27,33.23-20.24c1.39-.81,3.14-.29,3.91,1.16.72,1.37.34,3.1-.89,3.99l-52,36.17,43.28-26.36c1.39-.79,3.14-.23,3.89,1.24.69,1.36.3,3.05-.91,3.93l-12.75,8.63,14.98-9.13c1.38-.83,3.13-.33,3.92,1.12.74,1.36.37,3.1-.85,4l-41.75,30.22,46.36-28.24c1.39-.82,3.13-.3,3.91,1.15.72,1.36.35,3.08-.86,3.97l-29.87,21.48,32.5-19.79c1.37-.85,3.13-.38,3.94,1.06.78,1.38.39,3.17-.87,4.06l-51.31,37.24c.71,1.44.22,3.21-1.11,4.03l-27.6,16.81c-1.38.83-3.13.33-3.92-1.12-.74-1.36-.37-3.1.85-4l20.07-14.54-36.33,22.09c-.43.27-.93.42-1.43.43h.03Z"/>
        <path class="cls-10" d="m159.35,544.19c-1.59,0-2.86-1.37-2.85-3.04,0-1.05.51-2.01,1.36-2.57l23.78-15.4-33.58,20.45c-1.38.83-3.13.32-3.92-1.13-.77-1.42-.33-3.22.99-4.08l11.42-7.3-15.8,9.62c-1.39.78-3.14.23-3.89-1.25-.7-1.37-.29-3.08.94-3.95l77.64-50.9-82.08,49.99c-1.39.78-3.14.23-3.89-1.25-.7-1.36-.29-3.07.93-3.94l115.12-76.59-118.05,71.9c-1.39.8-3.14.27-3.9-1.19-.72-1.38-.31-3.12.93-3.99l122.63-81.53-121.65,74.09c-1.39.8-3.14.27-3.9-1.19-.72-1.39-.31-3.14.95-4l103.76-68.11-96.66,58.88c-1.36.86-3.13.4-3.95-1.04s-.38-3.3.98-4.16l114.61-75.82-95.64,58.25c-1.38.83-3.13.32-3.92-1.13-.77-1.42-.33-3.22.99-4.08l20.22-12.98-8.62,5.26c-1.39.78-3.14.23-3.89-1.24-.7-1.38-.28-3.1.95-3.96l14.98-9.63-14.48,8.8c-1.36.86-3.12.41-3.95-1.03s-.39-3.29.97-4.16l95.93-63.68-96.65,58.89c-1.39.81-3.14.28-3.9-1.18-.73-1.4-.31-3.16.96-4.02l28.21-18.18-27.52,16.76c-1.37.85-3.13.38-3.94-1.06s-.36-3.3,1.01-4.15h0l2.39-1.53-1.38.84c-1.39.78-3.14.23-3.89-1.25-.7-1.37-.29-3.08.94-3.95l66.2-43.2-65.79,40.06c-1.36.86-3.12.41-3.95-1.03s-.39-3.29.97-4.16l106.53-71.17-106.69,64.99c-1.39.78-3.14.23-3.89-1.25-.7-1.37-.29-3.08.94-3.95l69.91-45.75-69.18,42.13c-1.36.86-3.13.39-3.94-1.06-.82-1.43-.37-3.3,1-4.15l55.24-35.94-54.16,32.98c-1.39.8-3.14.27-3.9-1.19-.72-1.38-.31-3.12.93-3.99l98.19-65.48-97.52,59.39c-1.38.83-3.13.33-3.92-1.12-.76-1.4-.34-3.18.95-4.06l98.68-66.05-97.79,59.59c-1.39.8-3.14.27-3.9-1.19-.72-1.39-.31-3.14.95-4l58.06-38.02-56.48,34.42c-1.39.82-3.13.31-3.91-1.15-.75-1.4-.33-3.18.96-4.05l55.51-36.36-53.77,32.73c-1.38.83-3.13.32-3.92-1.13-.77-1.42-.33-3.22.99-4.08l4.47-2.88-2.35,1.43c-1.39.8-3.14.27-3.9-1.19-.72-1.37-.32-3.1.92-3.98l90.75-61.33-88.72,54.04c-1.39.82-3.13.31-3.91-1.15-.75-1.4-.33-3.18.96-4.05l20.28-13.19-17.43,10.62c-1.39.8-3.14.27-3.9-1.19-.72-1.39-.31-3.14.95-4l35.13-23.03-31.8,19.39c-1.39.79-3.14.25-3.89-1.22-.71-1.37-.3-3.08.92-3.96l59.98-40.22-55.72,33.93c-1.37.84-3.13.36-3.93-1.08-.78-1.41-.37-3.22.95-4.09l61.21-41.55-55.72,33.93c-1.39.82-3.14.3-3.91-1.16-.72-1.36-.35-3.09.88-3.98l69.79-49.15-61.6,37.46c-1.36.87-3.12.42-3.95-1.02-.83-1.43-.39-3.29.96-4.16h0l18.96-12.76-11.32,6.89c-1.35.89-3.13.45-3.97-.97s-.43-3.3.92-4.19h0l39.59-28.39-26.97,16.42c-1.38.82-3.13.32-3.92-1.14-.7-1.29-.4-2.91.69-3.85l28.72-24.11c-1.5.53-3.13-.32-3.63-1.91-.42-1.34.08-2.81,1.22-3.54l32.65-19.88c1.39-.81,3.14-.29,3.91,1.17.68,1.28.39,2.88-.69,3.81l-28.48,23.94,61.35-37.37c1.39-.8,3.14-.25,3.89,1.22.69,1.34.33,3.01-.84,3.9l-39.63,28.42,54.75-33.34c1.37-.84,3.13-.36,3.93,1.08.78,1.41.37,3.22-.95,4.09l-18.9,12.73,26.93-16.39c1.39-.8,3.14-.26,3.9,1.21.7,1.36.33,3.05-.87,3.93l-69.82,49.18,82.49-50.25c1.39-.8,3.14-.27,3.9,1.19.72,1.37.32,3.1-.92,3.98l-61.16,41.53,69.37-42.26c1.39-.79,3.14-.25,3.89,1.22.71,1.37.3,3.08-.92,3.96l-59.93,40.18,66.46-40.48c1.37-.85,3.13-.38,3.94,1.06s.36,3.3-1.01,4.15h0l-35.1,23.03,39.22-23.89c1.36-.86,3.13-.39,3.94,1.05.82,1.43.37,3.3-.99,4.15h0l-20.4,13.22,23.45-14.28c1.39-.79,3.14-.23,3.89,1.24.69,1.36.3,3.05-.91,3.93l-90.73,61.33,96.86-59c1.37-.85,3.13-.38,3.94,1.06.81,1.44.36,3.3-1,4.15l-4.6,2.94,6.29-3.79c1.36-.86,3.13-.4,3.94,1.05s.38,3.3-.99,4.15l-55.48,36.36,58.24-35.5c1.36-.86,3.13-.4,3.94,1.05s.38,3.3-.99,4.15h0l-58.13,38.06,60.52-36.88c1.43-.73,3.15-.1,3.84,1.41.6,1.3.24,2.87-.85,3.73l-98.64,66.05,102.15-62.25c1.36-.86,3.12-.41,3.95,1.03.82,1.43.39,3.29-.97,4.16l-98.21,65.48,100.86-61.42c1.39-.82,3.13-.31,3.91,1.15.75,1.4.33,3.18-.96,4.05l-55.26,35.96,56-34.11c1.39-.78,3.14-.23,3.89,1.25.7,1.37.29,3.08-.94,3.95l-69.98,45.79,70.62-43.02c1.36-.86,3.12-.41,3.95,1.03.82,1.43.39,3.29-.97,4.16h0l-106.51,71.16,107.58-65.53c1.39-.82,3.13-.31,3.91,1.15.75,1.4.33,3.18-.96,4.05l-66.09,43.14,65.56-39.96c1.38-.83,3.13-.32,3.92,1.13.76,1.42.33,3.22-.99,4.08l-2.73,1.74,1.28-.78c1.39-.78,3.14-.23,3.89,1.25.7,1.38.28,3.1-.95,3.96l-28.06,18.07,26.47-16.13c1.39-.81,3.14-.3,3.91,1.16.74,1.39.33,3.16-.95,4.03l-96.01,63.75,94.41-57.5c1.39-.78,3.14-.23,3.89,1.25.7,1.38.28,3.1-.95,3.96l-14.94,9.59,12.42-7.57c1.38-.83,3.13-.32,3.92,1.13.76,1.42.33,3.22-.99,4.08l-20.03,12.87,17.23-10.48c1.36-.86,3.13-.4,3.95,1.04.82,1.43.38,3.3-.98,4.16l-114.67,75.81,110.91-67.55c1.39-.8,3.14-.27,3.9,1.19.72,1.39.31,3.14-.95,4l-103.75,68.13,99.25-60.45c1.39-.81,3.14-.3,3.91,1.16.74,1.39.33,3.16-.95,4.03l-122.64,81.55,117.34-71.45c1.39-.8,3.14-.27,3.9,1.19.72,1.38.31,3.12-.93,3.99l-115.18,76.62,109.4-66.66c1.39-.8,3.14-.27,3.9,1.19.72,1.39.31,3.14-.95,4l-77.61,50.86,72.01-43.86c1.38-.83,3.13-.32,3.92,1.13.76,1.42.33,3.22-.99,4.08l-11.41,7.34,6.38-3.89c1.39-.79,3.14-.25,3.89,1.22.72,1.38.29,3.12-.95,3.98l-187.56,121.48c-.25.58-.66,1.06-1.18,1.38l-16.09,9.79c-.43.26-.92.41-1.42.41l.06.07Z"/>
        <path class="cls-9" d="m244.9,484.04c-1.59,0-2.87-1.36-2.87-3.03,0-1.01.47-1.95,1.26-2.52l.4-.29-6.4,3.9c-1.39.79-3.14.25-3.89-1.22-.68-1.33-.33-2.98.82-3.88l20.67-15.19-27.7,16.87c-1.39.81-3.14.29-3.91-1.16-.72-1.37-.34-3.1.89-3.99l7.76-5.41-11.49,7c-1.38.82-3.13.32-3.92-1.13-.74-1.37-.36-3.13.89-4.01l18.77-13.22-22.5,13.7c-1.38.83-3.13.34-3.93-1.1-.73-1.34-.39-3.04.79-3.96l41.65-32.22-47.29,28.8c-1.38.83-3.13.32-3.92-1.13-.72-1.35-.38-3.05.82-3.96l26.42-19.89-28.85,17.57c-1.38.83-3.13.34-3.93-1.1-.72-1.32-.4-3,.74-3.92l25.68-20.73-27.37,16.67c-1.39.81-3.14.29-3.91-1.17-.69-1.31-.38-2.94.74-3.86l13.26-10.59-12.98,7.94c-1.37.84-3.13.35-3.93-1.09-.7-1.28-.43-2.89.63-3.84l11.64-10.36-10.43,6.34c-1.38.82-3.13.31-3.92-1.14-.67-1.25-.41-2.83.61-3.77l2.59-2.36-.06.04c-1.37.84-3.13.36-3.93-1.09-.57-1.04-.51-2.33.16-3.3l3.77-5.53c-1.59-.03-2.85-1.41-2.83-3.08.02-1.06.56-2.03,1.42-2.57l9.52-5.79c1.38-.83,3.13-.33,3.92,1.12.56,1.03.5,2.3-.16,3.27l-3.19,4.68,14.94-9.09c1.38-.82,3.13-.31,3.92,1.14.67,1.25.41,2.83-.61,3.77l-2.59,2.36,11.95-7.27c1.39-.82,3.14-.3,3.91,1.16.67,1.26.4,2.83-.62,3.78l-11.63,10.36,25.1-15.31c1.38-.83,3.13-.32,3.92,1.13.71,1.32.39,2.98-.74,3.9l-13.27,10.59,25.66-15.62c1.38-.83,3.13-.34,3.93,1.1.72,1.32.4,3-.74,3.92l-25.67,20.72,42.28-25.75c1.38-.83,3.13-.32,3.92,1.13.72,1.35.38,3.05-.82,3.96l-26.46,19.91,41.05-25.01c1.38-.83,3.13-.34,3.93,1.1.73,1.34.39,3.04-.79,3.96l-41.64,32.22,53.21-32.43c1.38-.82,3.13-.32,3.92,1.13.74,1.37.36,3.13-.89,4.01l-18.76,13.24,17.91-10.91c1.39-.79,3.14-.24,3.89,1.23.69,1.35.31,3.03-.87,3.91l-7.76,5.42,4.21-2.57c1.39-.81,3.14-.29,3.91,1.17.72,1.35.36,3.04-.84,3.94l-20.73,15.21,15.46-9.42c1.37-.85,3.13-.38,3.94,1.06.78,1.38.39,3.18-.88,4.07l-4.89,3.5c1.59.02,2.86,1.38,2.84,3.06,0,.86-.37,1.68-.98,2.26l-16.86,15.6c1.12-.09,2.18.49,2.76,1.5.79,1.45.32,3.3-1.06,4.14l-23.13,14.09c-1.37.84-3.13.35-3.93-1.09-.69-1.26-.44-2.85.6-3.8l15.88-14.69-36.96,22.51c-.44.27-.94.41-1.44.41h0Z"/>
        <path class="cls-8" d="m234.97,435.79c-1.59,0-2.87-1.36-2.87-3.03,0-.91.39-1.77,1.06-2.34l7.42-6.41-17.2,10.47c-1.38.83-3.13.33-3.92-1.12-.72-1.32-.4-2.98.73-3.9l1.28-1.05-4.07,2.48c-1.39.82-3.13.3-3.91-1.15-.67-1.26-.4-2.85.63-3.79l3.6-3.18-4.33,2.64c-1.39.81-3.14.29-3.91-1.18-.61-1.17-.43-2.63.46-3.59l3.41-3.58-1.73,1.06c-1.38.83-3.13.34-3.92-1.11-.37-.67-.48-1.45-.3-2.21l1.66-7.42c-.59-.25-1.08-.71-1.4-1.29-.79-1.45-.32-3.3,1.06-4.14l2.87-1.75c1-.59,2.23-.51,3.16.19.92.73,1.35,1.96,1.08,3.14l-1.31,5.84,15.1-9.2c1.39-.81,3.14-.29,3.91,1.18.61,1.17.43,2.63-.46,3.59l-3.41,3.58,13.78-8.38c1.39-.82,3.13-.3,3.91,1.15.67,1.26.4,2.85-.63,3.79l-3.6,3.19,13.36-8.16c1.39-.82,3.13-.3,3.91,1.15.7,1.31.39,2.94-.72,3.87l-1.28,1.04,9.99-6.06c1.38-.83,3.13-.33,3.92,1.13.7,1.28.41,2.9-.67,3.84l-7.42,6.41,18.74-11.41c1.36-.87,3.12-.42,3.95,1.02.72,1.25.5,2.86-.54,3.83l-12.33,12.24,14.74-8.96c1.36-.86,3.13-.39,3.94,1.05.71,1.24.48,2.84-.54,3.8l-4.1,4.07.07-.05c1.34-.9,3.11-.48,3.96.93s.46,3.28-.88,4.18c-.06.05-.14.09-.21.13l-21.59,13.09c-1.36.86-3.13.39-3.94-1.05-.71-1.24-.48-2.84.54-3.8l4.09-4.06-14.6,8.91c-1.36.87-3.12.42-3.95-1.02-.72-1.25-.5-2.86.54-3.83l12.32-12.23-28.03,17.08c-.43.27-.92.42-1.41.43v-.03Z"/>
        <path class="cls-8" d="m223.93,308.58c-1.59,0-2.88-1.35-2.88-3.02,0-1,.46-1.94,1.24-2.51l18.52-13.66-29.87,18.18c-1.39.82-3.14.3-3.91-1.16-.7-1.32-.37-2.98.77-3.9l39.41-30.58-43.36,26.41c-1.37.85-3.13.38-3.94-1.06-.79-1.39-.39-3.2.9-4.09l9.55-6.72-8.58,5.23c-1.39.8-3.14.26-3.9-1.21-.69-1.34-.34-3,.83-3.9l20.83-15.15-19.21,11.69c-1.39.8-3.14.25-3.89-1.22-.69-1.34-.33-3.01.84-3.9l10.43-7.49-7.54,4.59c-1.38.83-3.13.33-3.92-1.12-.71-1.3-.4-2.94.71-3.87l29.57-24.63-23.47,14.27c-1.35.88-3.12.44-3.95-.99-.73-1.26-.5-2.88.54-3.86l16.25-16.26c-1.33.57-2.85.02-3.57-1.29-.79-1.45-.32-3.29,1.06-4.13l20.63-12.57c1.35-.88,3.12-.44,3.95.99.73,1.26.5,2.88-.54,3.86l-16.16,16.19,36.76-22.38c1.38-.83,3.13-.33,3.92,1.12.71,1.3.4,2.94-.71,3.87l-29.58,24.64,40.44-24.64c1.38-.84,3.13-.35,3.93,1.1.75,1.37.38,3.14-.87,4.03l-10.44,7.48,13.87-8.44c1.39-.8,3.14-.26,3.9,1.21.69,1.34.34,3-.83,3.9l-20.83,15.15,24.09-14.67c1.39-.8,3.14-.26,3.9,1.21.7,1.36.33,3.05-.87,3.93l-9.54,6.72,10.91-6.63c1.39-.8,3.14-.27,3.9,1.2.68,1.31.36,2.95-.77,3.86l-39.41,30.59,42.19-25.7c1.38-.83,3.13-.33,3.92,1.12.74,1.36.38,3.09-.84,3.99l-18.56,13.69,18.25-11.11c1.38-.83,3.13-.33,3.92,1.12.71,1.3.4,2.94-.71,3.87l-23.89,19.84,22.74-13.84c1.38-.82,3.13-.32,3.92,1.14.69,1.27.41,2.88-.65,3.81l-13.62,11.87,10.23-6.22c1.38-.83,3.13-.33,3.92,1.12.57,1.05.5,2.34-.18,3.31l-8.89,12.55.97-.61c1.4-.77,3.14-.2,3.87,1.28.69,1.39.26,3.12-1,3.96l-13.08,7.97c-1.38.83-3.13.33-3.92-1.12-.57-1.05-.5-2.34.18-3.31l8.89-12.54-27.9,17c-1.38.82-3.13.32-3.92-1.14-.69-1.27-.41-2.88.65-3.81l13.6-11.87-27.64,16.83c-1.38.83-3.13.33-3.92-1.12-.71-1.3-.4-2.94.71-3.87l23.89-19.84-40.78,24.84c-.44.27-.95.42-1.47.42h0Z"/>
        <path class="cls-8" d="m174.86,381.21c-1.59,0-2.87-1.36-2.87-3.03,0-.86.35-1.67.95-2.26l8.54-8.09-16.65,10.16c-1.37.84-3.13.35-3.93-1.09-.73-1.34-.4-3.04.77-3.96l.96-.76-3.45,2.11c-1.38.83-3.13.32-3.92-1.13-.68-1.26-.42-2.86.62-3.8l18.32-16.36-21.71,13.21c-1.38.83-3.13.33-3.92-1.12-.68-1.25-.43-2.83.6-3.78l20.14-18.57-20.58,12.52c-1.38.83-3.13.32-3.92-1.13-.71-1.31-.39-2.96.72-3.89l5.43-4.42-2.42,1.46c-1.38.83-3.13.32-3.92-1.13-.61-1.13-.47-2.56.36-3.52l10.14-11.7c-1.52.47-3.12-.44-3.57-2.03-.38-1.33.15-2.75,1.28-3.47l15.4-9.38c1.38-.83,3.13-.34,3.92,1.11.62,1.14.48,2.58-.37,3.55l-9.99,11.51,23.55-14.36c1.39-.81,3.14-.3,3.91,1.16.69,1.3.39,2.93-.72,3.85l-5.44,4.42,8.77-5.33c1.37-.84,3.13-.35,3.93,1.09.69,1.26.44,2.85-.6,3.8l-20.14,18.58,23.9-14.54c1.37-.84,3.13-.35,3.93,1.09.7,1.28.43,2.89-.63,3.84l-18.32,16.36,18.3-11.14c1.37-.84,3.13-.35,3.93,1.09.73,1.34.4,3.04-.77,3.96l-2.05,1.62c1.56-.31,3.06.77,3.35,2.42.18,1.04-.16,2.1-.9,2.82l-8.53,8.08,1.77-1.07c1.4-.77,3.14-.2,3.87,1.28.69,1.39.26,3.12-1,3.96l-25.62,15.64c-.44.26-.94.4-1.43.39l.02-.02Z"/>
        <path class="cls-8" d="m330.66,380.58c-1.59,0-2.87-1.36-2.87-3.03,0-.82.32-1.61.88-2.18l4.96-5.05-15.27,9.29c-1.38.83-3.13.33-3.92-1.12-.72-1.32-.4-2.98.73-3.9l1.67-1.36-5.31,3.24c-1.37.85-3.13.37-3.94-1.07-.72-1.28-.45-2.91.63-3.86l17.09-15.31-21.48,13.08c-1.38.83-3.13.34-3.93-1.1-.73-1.34-.39-3.04.79-3.96l3.7-2.86-3.84,2.34c-1.37.84-3.13.35-3.93-1.09-.71-1.29-.42-2.93.67-3.87l15.31-13.17-14.63,8.91c-1.38.83-3.13.33-3.92-1.12-.69-1.27-.42-2.88.64-3.82l11.59-10.25-7.84,4.76c-1.38.83-3.13.32-3.92-1.13-.64-1.19-.45-2.68.47-3.65l8.04-8.32c-1.55-.36-2.53-1.97-2.19-3.61.17-.83.67-1.55,1.37-1.97l15.4-9.38c1.38-.83,3.13-.32,3.92,1.13.64,1.19.45,2.68-.47,3.65l-5.92,6.12,16.71-10.17c1.38-.83,3.13-.33,3.92,1.12.69,1.27.42,2.88-.64,3.82l-11.57,10.24,17.1-10.42c1.37-.84,3.13-.36,3.93,1.08.72,1.3.43,2.94-.68,3.89l-15.31,13.17,18.34-11.16c1.38-.83,3.13-.34,3.93,1.1.73,1.34.39,3.04-.79,3.96l-3.66,2.83,3.45-2.1c1.38-.83,3.13-.34,3.93,1.1.69,1.27.43,2.87-.62,3.81l-17.09,15.32,15.84-9.65c1.38-.83,3.13-.33,3.92,1.12.72,1.32.4,2.98-.73,3.9l-2.95,2.39c1.04-.13,2.06.33,2.69,1.21.87,1.22.74,2.94-.3,4.01l-7.65,7.78c1.52.47,2.39,2.17,1.93,3.77-.21.75-.68,1.36-1.31,1.75l-15.4,9.38c-.43.25-.93.39-1.42.38l-.03.03Z"/>
        <path class="cls-10" d="m186.62,368.7c-1.59,0-2.87-1.36-2.87-3.03,0-.8.3-1.58.85-2.15l1.2-1.26-4.1,2.5c-1.38.83-3.13.33-3.92-1.12-.62-1.15-.47-2.6.39-3.57l5.89-6.55-6.49,3.95c-1.38.83-3.13.34-3.93-1.1-.57-1.04-.5-2.32.16-3.28l5.01-7.38c-1.25.32-2.53-.26-3.18-1.43-.79-1.45-.32-3.29,1.06-4.13l10.67-6.51c1.37-.84,3.13-.36,3.93,1.09.57,1.04.51,2.33-.16,3.3l-4.85,7.12,12.03-7.33c1.38-.83,3.13-.33,3.92,1.12.62,1.15.47,2.6-.39,3.57l-5.89,6.55,6.32-3.84c1.39-.82,3.13-.3,3.91,1.15.63,1.18.44,2.66-.47,3.62l-2.47,2.57c1.59.07,2.82,1.47,2.76,3.15-.04,1.05-.58,1.98-1.44,2.51l-16.52,10.06c-.43.28-.94.44-1.44.45h.02Z"/>
        <path class="cls-10" d="m306.39,368.47c-1.59,0-2.87-1.36-2.87-3.03,0-.76.27-1.49.75-2.04l4.6-5.3-8.08,4.92c-1.38.83-3.13.32-3.92-1.13-.63-1.17-.46-2.63.42-3.6l5.21-5.67-4.45,2.7c-1.38.84-3.13.35-3.93-1.1-.6-1.09-.5-2.47.27-3.45l3.88-4.99c-.88-.13-1.65-.68-2.08-1.48-.8-1.45-.33-3.3,1.05-4.14l10.75-6.55c1.38-.84,3.13-.35,3.93,1.1.6,1.09.5,2.47-.27,3.45l-2.79,3.58,8.62-5.24c1.38-.83,3.13-.32,3.92,1.13.63,1.17.46,2.63-.42,3.6l-5.21,5.66,6.41-3.9c1.38-.83,3.13-.33,3.92,1.12.62,1.14.47,2.58-.37,3.55l-4.6,5.29,1.66-1.02c1.34-.9,3.11-.48,3.96.93s.46,3.28-.88,4.18c-.06.05-.14.09-.21.13l-17.85,10.91c-.44.26-.93.39-1.43.38h0Z"/>
        <path class="cls-14" d="m254.56,332.56c-1.59,0-2.87-1.35-2.88-3.02,0-.87.35-1.69.96-2.27l10.73-10.08-22.78,13.87c-1.39.82-3.13.3-3.91-1.15-.63-1.18-.44-2.66.47-3.62l11.61-12.12-20.3,12.35c-1.38.82-3.13.31-3.92-1.14-.67-1.25-.42-2.84.61-3.78l3.18-2.89-6.23,3.79c-1.37.84-3.13.36-3.93-1.08-.67-1.21-.47-2.74.49-3.71l3.11-3.2-5.28,3.2c-1.38.83-3.13.33-3.92-1.12-.61-1.12-.48-2.54.34-3.51l1.03-1.21-1.79,1.08c-1.38.84-3.13.34-3.93-1.1-.08-.15-.15-.3-.2-.46l-2.57-7.27c-1.23.27-2.49-.31-3.12-1.45-.79-1.45-.32-3.3,1.06-4.13h0l2.18-1.32c1.38-.83,3.13-.34,3.92,1.11.08.15.15.3.2.45l2.52,7.17,14.38-8.75c1.38-.83,3.13-.33,3.92,1.12.61,1.12.48,2.54-.34,3.51l-1.04,1.21,9.63-5.86c1.37-.84,3.13-.36,3.93,1.08.67,1.21.47,2.74-.49,3.71l-3.11,3.19,13.08-7.98c1.38-.83,3.13-.34,3.92,1.11.69,1.26.43,2.86-.61,3.8l-3.2,2.89,12.84-7.82c1.39-.82,3.13-.3,3.91,1.15.63,1.18.44,2.66-.47,3.62l-11.62,12.12,27.76-16.89c1.4-.78,3.14-.22,3.88,1.26.6,1.19.38,2.65-.53,3.59l-10.73,10.09,13.58-8.27c1.4-.77,3.14-.2,3.87,1.28.69,1.39.26,3.12-1,3.96l-37.81,23.03c-.44.28-.95.43-1.45.44h.05Z"/>
        <path class="cls-10" d="m244.55,301.72c-1.59,0-2.87-1.36-2.87-3.03,0-.77.28-1.52.78-2.08l13.86-15.52-21.53,13.11c-1.27.77-2.88.42-3.75-.82-.87-1.25-.71-2.98.38-4.03l12.3-11.87-13.65,8.31c-1.37.85-3.13.38-3.94-1.06-.68-1.21-.48-2.77.49-3.74l12.39-12.6-9.94,6.06c-1.38.83-3.13.32-3.92-1.13-.63-1.17-.46-2.64.43-3.61l6.26-6.75c-1.52-.45-2.41-2.13-1.98-3.74.2-.76.68-1.4,1.33-1.8l13.65-8.32c1.38-.83,3.13-.34,3.93,1.11.64,1.17.47,2.65-.43,3.63l-4.02,4.32,12.13-7.38c1.37-.85,3.13-.38,3.94,1.06.68,1.21.48,2.77-.49,3.74l-12.37,12.6,16.12-9.83c1.39-.82,3.13-.31,3.91,1.15.65,1.22.43,2.74-.53,3.7l-12.3,11.87,15.7-9.55c1.38-.83,3.13-.33,3.92,1.12.62,1.15.47,2.6-.39,3.57l-13.85,15.51,10.57-6.44c1.34-.9,3.11-.48,3.96.93s.46,3.28-.88,4.18c-.06.05-.14.09-.21.13l-27.53,16.78c-.44.28-.95.43-1.45.43h0Z"/>
        <path class="cls-8" d="m256.48,276.91c-1.59,0-2.87-1.36-2.88-3.02,0-.79.29-1.55.81-2.11l.82-.89-1.83,1.11c-1.11.7-2.53.5-3.45-.46-.92-.96-1.12-2.45-.5-3.64l4.46-8.48-.51.31c-1.4.77-3.14.2-3.87-1.28-.69-1.39-.26-3.12,1-3.96l9.52-5.79c1.11-.7,2.53-.5,3.45.46.92.96,1.12,2.45.5,3.64l-4.46,8.45,10.53-6.42c1.38-.83,3.13-.34,3.93,1.11.64,1.17.47,2.65-.42,3.62l-1.2,1.31c1.2-.25,2.43.34,3.04,1.46.79,1.45.32,3.29-1.06,4.13l-16.44,10.05c-.44.26-.94.41-1.43.41v-.02Z"/>
        <path class="cls-2" d="m248.41,399.76c-14.26,0-53.87-8.28-63.1,8.84-8.29,15.37,5.67,41.77,15.17,52.86,12.57,14.51,30.33,22.81,48.96,22.86,30.26-1.72,75.6-31.38,67.21-70.59-5.2-24.11-51.72-13.96-68.23-13.96h0Zm-6.46,5.77c14.09,0,30.71-2.42,45.29-.97,2.71,10.61-6.71,21.98-15.51,25.32-6.71,2.01-16.76,0-23.77,0-20.83,2.47-37.05-.98-34.82-26.38,10.11.15,21.64,2.03,28.8,2.03h0Zm66.7,23.49c-9.11,50.53-75.49,66.57-104.64,25.75-10.28-12.57-25.85-50.6,2.76-51.02-3.02,35.69,19.53,34.34,45.6,32.28,23.07,2.46,43.22-.83,41.18-30.53,12.3,2.3,18.37,7.98,15.09,23.53h0Z"/>
        <path class="cls-2" d="m204.62,360.91c.62-1,1.73-2.42,1.34-3.64,11.49-48.92-59.55-58.74-62.57-9.03-.27,38.34,48.49,41.63,61.23,12.67h0Zm-3.94-11.55c.83,19.5-23.69,17.49-21.48-1.21,2.61-12.63,20.85-11.56,21.48,1.21Zm-50.55-1.38c-.62-27.47,35.39-37.6,47-13.12-28.54-10.22-35.43,35.75-4.86,33.75-14.94,16.42-42.83,1.48-42.11-20.63h-.03Z"/>
        <path class="cls-2" d="m323.98,314.77c-17.99,1.24-31.7,17.5-30.77,36.5.26,2.47.76,4.91,1.49,7.27,10.51,36.32,61.9,26.27,61.99-11.37-.23-18.16-14.37-32.68-31.58-32.44-.38,0-.74.02-1.12.04h0Zm-22.69,42.51c-8.81-17.88,15.55-25.9,20.11-7.88,2.79,13.5-13.71,17.88-20.11,7.88Zm21.55,17.69c-4.85-.55-9.46-2.54-13.29-5.73,29.35-3.13,20.57-46.28-7.61-33.64,10.62-22.82,48.25-16.45,48.49,13.46-.06,14.47-11.24,26.15-24.96,26.07-.88,0-1.75-.06-2.62-.16h0Z"/>
        <path class="cls-2" d="m379.05,315.62c-.95-13.6-3.9-26.97-8.77-39.6,48.61-23.55,3.03-90.46-34.95-52.83-45.51-46.28-124.7-46.58-170.27-.37-37.49-37.53-83,30.22-35.32,53.55-4.8,12.76-7.72,26.22-8.66,39.9-23.81,29.01-54.64,103.12-37.4,139.69,8.15,11.01,22.89,13.68,34.05,6.17,8.5-5.95,8.38-13.21,9.07-23.33.95-14.14,1.65-28.06,2.95-42.01,2.91,12.63,6.25,25.14,10.24,37.44,2.05,6.3,11.29,22.51,8.25,30.22-10.68,8.74-19.25,20.01-25.04,32.9-13.29,34.67,26.76,60.78,52.68,38.4,8.45-9.28,7.18-8.75,17.61-3.96,16.37,10.52,35.57,15.07,54.64,12.97,20.74,1.42,41.43-.43,59.01-12.89,10.97-5.5,8.56-6.97,18.18,3.67,11.45,10.61,28.14,12.02,41.05,3.49,28.95-21.21,7.22-58.03-14.27-74.86-3.89-10.36,15.79-54.12,18.28-66.16,3,20.67-4.14,54.13,14.74,66.32,12.09,5.78,26.34.93,32.96-11.2,12.86-39.26-14.52-107.28-39.01-137.52h0Zm3.06-82.25c6,14.04.07,30.54-13.23,36.86-.23.11-.46.21-.69.32-6.81-15.99-16.37-30.51-28.2-42.83,8.63-11.31,24.32-13.1,35.03-4,3.05,2.58,5.47,5.89,7.08,9.64h0Zm-264.23-.28c8.04-18.65,30.16-18.95,42.21-5.26-11.64,12.19-21.07,26.53-27.82,42.3-13.53-5.69-20.13-21.88-14.74-36.15.11-.3.23-.59.35-.88h0Zm2.08,204.68c-6.5,31.21-30.36,27.45-32.48-7.07,1.23-37.02,12.75-72.84,33.14-102.98.03,16.12,1.6,32.19,4.68,47.98-2.98,20.21-1.25,42.41-5.34,62.07Zm222.82,24.54c-.47,1.25.06,2.67,1.19,3.27,11.9,8.48,21.43,20.18,27.57,33.88,10.18,26.5-19.12,51.72-40.95,32.9l-11.02-14.95c-1.29-1.93-3.83-2.39-5.65-1.03-.08.07-.17.13-.25.2-28.78,31.86-97.47,32.42-126.68.8-6.89-4.85-11.91,10.86-16.69,14.76-11.16,9.74-27.69,8.09-36.93-3.68-6.33-8.07-7.8-19.23-3.79-28.82,6.07-13.5,15.41-25.08,27.06-33.59,1.09-.6,1.52-2.02.95-3.18,0,0,0,0,0-.02-11.25-26.97-19.88-55.07-25.74-83.88.14-2.12,1.39-5-1.06-6.13-19.04-81.58,28.91-173.79,112.25-179.35,90.52-5.99,147.62,92.31,126.37,180.06-1.06,1.18-1.39,2.89-.85,4.41-5.87,28.95-14.51,57.18-25.78,84.29v.03h0Zm70.57-26.73c-2.75,27.02-27,36.11-33.25-1.61-3.14-18.9-2.43-38.86-5.17-58.06,3.06-15.82,4.62-31.92,4.64-48.06,21.37,31.45,33.14,69.02,33.78,107.71v.03h0Z"/>
        <path class="cls-2" d="m203.1,303.09c25.1,53.15,101.72,30.79,101.34-27.63.02-30.6-22.44-55.98-51.38-58.07-40.21-3.12-69.04,44.71-51.7,81.84-.39,1.77.08,3.59,1.73,3.87h0Zm6.72.1h82.14c-17.67,28.74-62.92,28.64-82.14,0Zm51.17-48.91c10.28.17,12.59,17.33,1.33,17.98-5.17-.43-9.02-5.19-8.62-10.64.16-2.14.97-4.17,2.32-5.78,1.27.15,2.72,0,3.18-1.4.59-.11,1.17-.15,1.77-.15h0Zm-1.32,24.04c3.53.35,7.07-.7,9.91-2.93,1.89,17.4-21.83,27.44-33.39,14.94-13.21-11.71-3.5-36.54,13.4-34.67-4.31,6.58-2.74,15.61,3.5,20.15,1.95,1.42,4.22,2.28,6.59,2.51h0Zm39.63-3.03c.09,7.12-1.17,14.17-3.72,20.76h-28.24c6.74-6.98,9.54-17.17,7.37-26.88,3.39-7.22.59-15.97-6.25-19.55-3.32-1.73-7.16-1.99-10.65-.72-13.92-4.12-28.37,4.44-32.28,19.14-2.7,10.14.3,21.01,7.74,28.03h-27.4c-29.51-74.12,92.09-101.09,93.41-20.76l.03-.03h0Z"/>
      </g>
    </g>
  </g>
  <g id="Capa_3" data-name="Capa 3">
    <g id="Capa_1-2" data-name="Capa 1">
      <g>
        <g>
          <g>
            <path class="cls-4" d="m310.27,18.77s-1.83,1.17-4.61,3.6c-2.79,2.43-6.49,6.19-10.19,11.56-3.7,5.32-7.35,12.12-10.19,20.48-2.84,8.31-4.77,18.15-5.48,29.56-.66,11.41,0,23.83,1.01,36,1.01,12.17,2.33,24.08,3.45,34.53,1.12,10.39,1.98,19.52,2.53,26.01.56,6.44.86,10.29.86,10.29,0,0,1.32-3.65,3.5-9.73,2.23-6.13,5.42-14.6,9.18-24.44,3.75-9.84,8.11-21.04,12.27-32.5,4.11-11.51,7.96-23.17,10.29-34.43,2.28-11.2,2.99-21.34,2.38-30.07-.56-8.77-2.38-16.27-4.56-22.36-2.18-6.13-4.82-10.8-6.9-13.84-2.08-3.09-3.55-4.66-3.55-4.66Z"/>
            <path class="cls-3" d="m324.92,76.67c-6.49,5.68-12.12,10.8-16.38,14.7-4.31,3.95-7.35,7-8.87,8.37-1.06-1.77-3.35-5.37-6.39-10.39-3.14-4.87-7.2-11.15-12.02-18.4-.15,1.17-.35,2.33-.51,3.5,5.42,8.21,9.84,14.96,12.88,19.77,3.04,4.87,4.82,7.76,4.82,7.81l.71,1.17,1.01-.96s2.54-2.38,6.69-6.29c4.21-3.8,10.24-9.33,17.59-15.77.15-1.22.3-2.38.41-3.55l.05.05Z"/>
            <path class="cls-12" d="m285.93,204.03s1.01-3.09,2.59-9.43c1.57-6.34,3.7-15.92,5.73-29,1.98-13.08,3.4-28.24,4.06-40.21.66-11.97.71-20.69.71-20.69,0,0-2.23,8.42-4.66,20.18-2.48,11.71-5.07,26.77-6.49,39.9s-1.83,22.97-1.98,29.46c-.1,6.54.05,9.73.05,9.73v.05Z"/>
            <path class="cls-7" d="m282.33,65.11c5.37,8.31,9.89,15.16,13.08,20.23,3.19,5.02,5.07,8.01,5.07,8.01,0,0,2.59-2.38,7-6.44,4.46-4.01,10.7-9.63,17.9-16.12.86-16.58-2.69-29.61-6.69-38.58-1.98-4.51-4.11-7.76-5.68-10.04-1.57-2.23-2.69-3.4-2.69-3.4,0,0-1.32.81-3.45,2.59-2.13,1.77-5.02,4.41-8.06,8.16-6.19,7.61-12.93,19.37-16.43,35.59h-.05Z"/>
            <path class="cls-11" d="m322.89,89.65c2.28-11.2,2.99-21.34,2.38-30.07-.56-8.77-2.38-16.27-4.56-22.36-2.18-6.13-4.82-10.8-6.9-13.84-2.08-3.09-3.55-4.66-3.55-4.66l-22.61,171.97s1.32-3.65,3.5-9.73c2.23-6.13,5.42-14.6,9.18-24.44,3.75-9.84,8.11-21.04,12.27-32.5,4.11-11.51,7.96-23.17,10.29-34.43v.05Z"/>
          </g>
          <g>
            <path class="cls-5" d="m371.92,49.8s-2.03.66-5.32,2.28c-3.3,1.67-7.76,4.31-12.62,8.42-4.87,4.16-10.09,9.73-14.86,16.98-4.77,7.25-9.13,16.12-12.57,26.82-3.5,10.7-5.93,22.66-8.01,34.53-2.08,11.81-3.8,23.47-5.37,33.72-1.57,10.24-3.04,19.16-4.11,25.45-1.06,6.24-1.72,9.99-1.72,9.99,0,0,2.18-3.14,5.78-8.42,3.6-5.17,8.77-12.47,14.86-20.94,6.03-8.42,13.03-18.1,19.82-27.89,6.74-9.84,13.38-20.08,18.4-30.17,5.02-10.09,8.16-19.52,9.84-28.04,1.67-8.57,1.83-16.07,1.27-22.41-.61-6.34-1.88-11.46-3.09-14.96-1.22-3.45-2.23-5.32-2.23-5.32l-.05-.05Z"/>
            <path class="cls-8" d="m371.31,108.71c-3.8,1.83-7.3,3.6-10.6,5.32-3.19,1.67-6.13,3.19-8.72,4.56-5.07,2.64-8.72,4.72-10.49,5.68-.61-1.93-1.83-5.93-3.5-11.46-1.72-5.58-4.11-12.42-6.84-20.53-.46,1.06-.91,2.13-1.37,3.19,1.52,4.51,2.94,8.67,4.21,12.42.61,1.83,1.17,3.55,1.72,5.17.51,1.62.96,3.14,1.42,4.51,1.67,5.37,2.64,8.57,2.69,8.62l.41,1.27,1.22-.66s.76-.41,2.13-1.17,3.3-1.77,5.78-3.09c2.54-1.32,5.53-2.89,8.97-4.72,1.77-.91,3.6-1.88,5.58-2.89,1.98-.96,4.01-1.98,6.13-2.99.46-1.12.86-2.18,1.27-3.24Z"/>
            <path class="cls-12" d="m302.31,220.15s1.72-2.69,4.82-8.37c3.09-5.68,7.5-14.25,12.67-26.16s10.34-26.11,13.94-37.32c3.65-11.2,5.83-19.47,5.83-19.47,0,0-4.26,7.45-9.48,18.05-5.27,10.55-11.51,24.23-16.17,36.4-4.66,12.17-7.5,21.4-9.23,27.58-1.72,6.19-2.38,9.28-2.38,9.28Z"/>
            <path class="cls-1" d="m333.64,86.96c3.04,9.23,5.68,16.83,7.45,22.51,1.77,5.53,2.84,8.82,2.84,8.82,0,0,.76-.41,2.18-1.17s3.5-1.88,6.03-3.19c2.59-1.37,5.73-2.99,9.23-4.82,3.55-1.88,7.55-3.95,11.81-6.08,5.02-15.72,4.92-28.95,3.3-38.43-1.57-9.53-4.61-14.91-4.61-14.91,0,0-5.98,1.83-13.69,7.4-7.76,5.58-17.24,15.21-24.59,29.76l.05.1Z"/>
            <path class="cls-11" d="m366.14,120.52c5.02-10.09,8.16-19.52,9.84-28.04,1.67-8.57,1.83-16.07,1.27-22.41-.61-6.34-1.88-11.46-3.09-14.96-1.22-3.45-2.23-5.32-2.23-5.32l-64.59,158.13s2.18-3.14,5.78-8.42c3.6-5.17,8.77-12.47,14.86-20.94,6.03-8.42,13.03-18.1,19.82-27.89,6.74-9.84,13.38-20.08,18.4-30.17h-.05Z"/>
          </g>
          <g>
            <path class="cls-4" d="m423.28,93.2s-1.98.1-5.27.81-7.96,2.03-13.23,4.51c-5.22,2.43-11.26,6.24-17.19,11.51-5.98,5.27-11.91,12.17-17.59,20.84-5.63,8.67-10.65,18.71-15.31,28.7-4.66,10.04-8.87,19.82-12.78,28.65-7.71,17.54-13.54,30.01-13.54,30.01,0,0,2.64-2.23,7.1-5.98,4.46-3.75,10.8-9.02,18.2-15.11,7.4-6.13,15.77-12.83,24.13-20.03,8.37-7.15,16.68-14.7,23.47-22.46,6.84-7.76,11.86-15.36,15.36-22.56,3.5-7.15,5.53-13.94,6.49-19.62.96-5.73,1.01-10.55.81-13.94-.2-3.4-.66-5.32-.66-5.32Z"/>
            <path class="cls-3" d="m408.67,145.31c-3.8.76-7.35,1.52-10.6,2.18-3.24.76-6.24,1.42-8.82,2.03-5.12,1.22-8.82,2.08-10.65,2.48-.1-1.88-.25-5.68-.46-10.9-.1-2.64-.2-5.73-.46-9.02-.25-3.35-.51-6.95-.76-10.85-.66.81-1.32,1.67-1.98,2.54.3,4.36.61,8.37.86,11.97.15,3.6.3,6.74.46,9.38.2,5.12.35,8.16.35,8.21v1.22l1.27-.25c.05,0,2.99-.71,8.01-1.88,2.53-.61,5.63-1.32,9.13-2.08,3.5-.71,7.45-1.52,11.71-2.43.66-.86,1.27-1.72,1.93-2.59Z"/>
            <path class="cls-12" d="m321.07,227.85s2.18-1.93,6.24-6.19c4.06-4.26,10.04-10.8,17.49-20.18,7.4-9.38,15.36-20.69,21.24-29.81,5.93-9.13,9.84-15.97,9.84-15.97,0,0-5.53,5.63-12.73,13.79-7.2,8.11-15.97,18.81-23.02,28.49-7,9.68-11.71,17.19-14.75,22.26-2.99,5.07-4.31,7.66-4.31,7.66v-.05Z"/>
            <path class="cls-7" d="m380.44,117.13c.25,4.36.56,8.47.76,12.12.2,3.65.35,6.9.46,9.63.3,5.32.46,8.47.46,8.47,0,0,3.09-.71,8.26-1.83,2.64-.61,5.83-1.32,9.38-2.13,3.6-.76,7.6-1.62,11.86-2.53,4.06-6.34,6.9-12.47,8.82-18.15s2.84-10.75,3.24-15.16c.41-4.36.25-7.96.05-10.44-.2-2.48-.56-3.9-.56-3.9,0,0-5.73.25-13.94,3.4-8.16,3.04-18.86,9.38-28.85,20.58l.05-.05Z"/>
            <path class="cls-11" d="m401.32,154.59c6.84-7.76,11.86-15.36,15.36-22.56,3.5-7.15,5.53-13.94,6.49-19.62.96-5.73,1.01-10.55.81-13.94-.2-3.4-.66-5.32-.66-5.32l-94.86,125.03s2.64-2.23,7.1-5.98c4.46-3.75,10.8-9.02,18.2-15.11,7.4-6.13,15.77-12.83,24.13-20.03,8.37-7.15,16.68-14.7,23.47-22.46h-.05Z"/>
          </g>
          <g>
            <path class="cls-5" d="m457.4,141.01s-1.77-.41-4.87-.56c-3.14-.1-7.6,0-12.93,1.06s-11.41,2.94-18,6.34-13.54,8.16-20.63,14.65c-7.1,6.49-13.89,14.3-20.38,22.16-6.44,7.81-12.67,15.82-18.1,22.76-5.48,6.95-10.19,12.88-13.59,17.09-3.45,4.21-5.48,6.74-5.48,6.74,0,0,2.89-1.42,7.76-3.75,4.87-2.33,11.86-5.63,19.82-9.33,7.96-3.7,17.09-7.86,26.26-12.37s18.35-9.38,26.26-14.8,14.15-11.05,18.91-16.68c4.77-5.63,8.11-11.15,10.39-16.12,2.23-4.92,3.35-9.18,3.9-12.27.56-3.04.61-4.87.61-4.87l.05-.05Z"/>
            <path class="cls-8" d="m432.3,184.3c-7.3-.3-13.44-.61-18.4-.66-4.87-.05-8.47-.15-10.19-.15.2-.86.51-2.13.86-3.8s.81-3.7,1.27-6.08c.96-4.77,2.33-11.05,3.55-18.05-.76.61-1.57,1.22-2.38,1.83-1.37,7.96-2.89,14.75-3.8,19.37-.51,2.33-.86,4.16-1.17,5.48-.3,1.27-.46,1.98-.46,2.03l-.25,1.12h1.17s2.89.1,7.66.15c1.22,0,2.53,0,4.01.05,1.42.05,2.99.1,4.61.15,3.35.15,7.1.3,11.15.46.76-.61,1.57-1.27,2.28-1.88h.1Z"/>
            <path class="cls-12" d="m334.65,238.2s2.38-1.27,7.05-4.11c4.61-2.89,11.51-7.4,20.33-14.04,8.82-6.69,18.51-15.01,25.91-21.85,7.4-6.79,12.47-12.02,12.47-12.02,0,0-6.24,3.75-14.55,9.38-8.31,5.58-18.71,13.13-27.23,20.18-8.52,7.05-14.45,12.67-18.35,16.58-3.9,3.85-5.68,5.93-5.68,5.93l.05-.05Z"/>
            <path class="cls-1" d="m413.54,152.62c-.35,1.98-.76,3.9-1.12,5.78-.35,1.88-.76,3.65-1.06,5.32-.66,3.3-1.27,6.24-1.77,8.67-.46,2.43-.86,4.31-1.17,5.68-.3,1.32-.41,2.08-.41,2.08,0,0,2.94.1,7.91.25,5.07.05,11.91.41,20.13.66,10.14-9.48,15.77-19.42,18.51-27.07,2.74-7.6,2.84-12.88,2.84-12.88,0,0-1.27-.25-3.55-.46s-5.63-.2-9.68.25c-8.11.91-18.96,3.95-30.62,11.76v-.05Z"/>
            <path class="cls-11" d="m423.58,190.94c7.91-5.42,14.15-11.05,18.91-16.68s8.11-11.15,10.39-16.12c2.23-4.92,3.35-9.18,3.9-12.27.56-3.04.61-4.87.61-4.87l-113.97,90.2s2.89-1.42,7.76-3.75c4.87-2.33,11.86-5.63,19.82-9.33,7.96-3.7,17.09-7.86,26.26-12.37,9.18-4.51,18.35-9.38,26.26-14.8h.05Z"/>
          </g>
          <g>
            <path class="cls-4" d="m482.6,190.03s-1.52-.81-4.36-1.72c-1.42-.46-3.14-.96-5.17-1.37-2.03-.41-4.41-.76-7-.96-5.22-.41-11.41-.15-18.3,1.27s-14.6,4.06-22.81,8.21c-8.21,4.16-16.48,9.63-24.59,15.26-8.06,5.63-15.77,11.41-22.61,16.43-3.4,2.48-6.59,4.82-9.43,6.9-2.89,2.08-5.42,3.9-7.55,5.48-4.21,3.04-6.74,4.82-6.74,4.82,0,0,3.04-.56,8.16-1.47,5.17-.96,12.37-2.18,20.74-3.55,8.37-1.37,17.9-2.94,27.53-4.77,9.63-1.88,19.32-4.01,28.04-7,8.67-2.99,15.97-6.69,21.8-10.65s10.29-8.21,13.64-12.22,5.58-7.71,6.84-10.34c1.32-2.69,1.83-4.31,1.83-4.31h0Z"/>
            <path class="cls-3" d="m448.32,223.65c-6.59-2.13-12.42-3.9-16.88-5.27-4.46-1.37-7.86-2.28-9.38-2.74.76-1.47,2.38-4.51,4.61-8.67,2.13-4.16,4.87-9.53,7.96-15.82-.86.35-1.77.71-2.64,1.06-3.45,7.05-6.44,12.88-8.52,16.93-2.18,4.11-3.45,6.49-3.45,6.54l-.51.96,1.06.3s2.69.76,7.1,2.08c4.36,1.37,10.65,3.24,18.1,5.68.86-.41,1.77-.76,2.64-1.17l-.1.1Z"/>
            <path class="cls-12" d="m344.08,248.64s2.53-.56,7.61-2.03c5.02-1.47,12.57-3.9,22.46-7.81,9.89-3.95,20.99-9.18,29.56-13.59s14.65-7.96,14.65-7.96c0,0-6.74,1.88-15.87,4.97-9.13,3.04-20.63,7.4-30.32,11.71-9.68,4.36-16.68,8.06-21.24,10.65s-6.74,4.06-6.74,4.06h-.1Z"/>
            <path class="cls-7" d="m439.09,189.58c-3.55,6.95-6.59,12.98-8.77,17.29-2.18,4.26-3.5,6.74-3.5,6.74,0,0,2.74.81,7.3,2.18,4.56,1.42,11,3.4,18.45,5.73,11.86-6.19,19.47-13.94,24.03-20.33,2.33-3.19,3.75-5.98,4.66-7.96.91-2.03,1.27-3.19,1.27-3.19,0,0-1.12-.56-3.19-1.32-2.08-.71-5.07-1.67-8.97-2.23-7.76-1.17-18.66-1.12-31.33,3.09h.05Z"/>
            <path class="cls-11" d="m438.49,227.6c8.67-2.99,15.97-6.69,21.8-10.65,5.83-3.95,10.29-8.21,13.64-12.22,3.35-4.01,5.58-7.71,6.84-10.34,1.32-2.69,1.83-4.31,1.83-4.31l-128.58,54.35s3.04-.56,8.16-1.47c5.17-.96,12.37-2.18,20.74-3.55,8.37-1.37,17.9-2.94,27.53-4.77,9.63-1.88,19.32-4.01,28.04-7v-.05Z"/>
          </g>
          <g>
            <path class="cls-5" d="m478.69,234.7s-1.32-.86-3.75-2.03c-2.43-1.12-6.03-2.53-10.55-3.5-4.61-.96-10.19-1.47-16.58-.96-6.39.46-13.54,1.93-21.34,4.66-7.86,2.79-15.92,6.69-23.78,10.8-7.86,4.11-15.41,8.37-22.11,12.02-13.49,7.45-23.27,12.67-23.27,12.67,0,0,2.79-.15,7.5-.35,4.72-.2,11.31-.46,18.91-.76,7.66-.3,16.43-.56,25.2-1.06,8.82-.56,17.75-1.37,25.91-3.04,8.11-1.67,15.06-4.11,20.79-7,5.78-2.89,10.19-6.19,13.64-9.33,3.45-3.19,5.83-6.24,7.35-8.47,1.52-2.23,2.13-3.65,2.13-3.65h-.05Z"/>
            <path class="cls-8" d="m444.06,260.81c-5.58-2.69-10.6-4.92-14.5-6.64-3.85-1.72-6.64-2.94-8.06-3.55,1.67-2.43,7.2-9.94,14.04-20.38-.81.2-1.67.41-2.48.66-3.95,5.93-7.15,10.75-9.63,14.15-2.38,3.4-3.8,5.37-3.8,5.42l-.56.81.91.41s.61.25,1.67.71c1.01.46,2.53,1.12,4.41,1.98,3.75,1.72,9.28,4.11,15.51,7.15.81-.25,1.67-.51,2.48-.71Z"/>
            <path class="cls-12" d="m347.94,271.05s2.38-.2,7.05-.91c4.66-.76,11.66-2.03,20.94-4.41,9.28-2.38,19.87-5.78,28.04-8.77,8.16-2.94,13.99-5.42,13.99-5.42,0,0-6.29.91-14.8,2.59-8.52,1.67-19.37,4.21-28.54,6.95-9.18,2.74-15.87,5.27-20.23,7.05-4.41,1.77-6.49,2.84-6.49,2.84l.05.1Z"/>
            <path class="cls-1" d="m439.8,229.32c-4.01,5.88-7.35,10.85-9.84,14.4-2.43,3.55-3.85,5.63-3.85,5.63,0,0,2.33,1.06,6.24,2.84,1.98.91,4.31,1.98,7,3.19,1.37.61,2.79,1.27,4.26,1.93,1.47.71,2.99,1.42,4.61,2.13,5.68-2.08,10.49-4.66,14.45-7.3,3.95-2.69,7.05-5.48,9.43-8.06s4.11-4.92,5.17-6.59c1.01-1.67,1.47-2.69,1.47-2.69,0,0-3.75-2.59-10.44-4.56-6.69-1.98-16.58-3.14-28.39-.86l-.1-.05Z"/>
            <path class="cls-11" d="m434.84,263.19c8.11-1.67,15.06-4.11,20.79-7,5.78-2.89,10.19-6.19,13.64-9.33,3.45-3.19,5.83-6.24,7.35-8.47,1.52-2.23,2.13-3.65,2.13-3.65l-121.38,33.72s2.79-.15,7.5-.35c4.72-.2,11.31-.46,18.91-.76,7.66-.3,16.43-.56,25.2-1.06,8.82-.56,17.75-1.37,25.91-3.04l-.05-.05Z"/>
          </g>
          <g>
            <path class="cls-4" d="m468.4,278.86s-.2-.25-.71-.71c-.46-.46-1.17-1.06-2.13-1.83-1.88-1.47-4.72-3.4-8.47-5.17-3.75-1.77-8.52-3.35-14.15-4.26-5.63-.91-12.17-1.12-19.52-.35-7.35.76-15.21,2.48-22.82,4.41-7.66,1.93-15.06,4.06-21.65,5.88-6.54,1.83-12.27,3.35-16.33,4.46-4.01,1.06-6.44,1.72-6.44,1.72,0,0,9.68,1.77,23.17,4.51,6.74,1.32,14.25,2.89,22.05,4.26,7.76,1.32,15.72,2.48,23.12,2.69,7.4.2,13.89-.46,19.42-1.83,5.53-1.32,10.24-3.24,13.79-5.27,3.6-2.03,6.29-4.16,8.06-5.78s2.64-2.74,2.64-2.74h-.05Z"/>
            <path class="cls-3" d="m433.01,294.32c-2.18-1.72-4.21-3.35-6.03-4.82s-3.6-2.79-5.12-3.95c-2.99-2.28-5.17-3.9-6.24-4.72,1.01-.86,3.04-2.69,5.83-5.17,1.42-1.27,3.04-2.74,4.82-4.31,1.72-1.62,3.65-3.4,5.68-5.27h-2.28c-2.28,2.13-4.36,4.11-6.29,5.83s-3.6,3.19-4.97,4.46c-2.74,2.43-4.36,3.9-4.41,3.9l-.66.61.71.56s1.77,1.32,4.66,3.6c1.47,1.12,3.3,2.48,5.32,4.06,2.03,1.62,4.26,3.4,6.69,5.32.76,0,1.52-.1,2.28-.1Z"/>
            <path class="cls-12" d="m347.53,283.37s2.08.35,6.24.66c4.21.3,10.55.66,19.11.51,8.57-.15,18.4-.91,26.11-1.83,7.71-.86,13.28-1.77,13.28-1.77,0,0-1.42-.1-3.75-.3-2.38-.15-5.73-.35-9.63-.51-7.76-.3-17.64-.35-26.21.15-8.52.51-14.8,1.32-19.01,1.93-4.16.66-6.19,1.12-6.19,1.12l.05.05Z"/>
            <path class="cls-7" d="m435.8,266.13c-4.56,4.26-8.67,7.86-11.51,10.44-2.84,2.54-4.51,4.06-4.51,4.06,0,0,1.77,1.37,4.77,3.75,1.52,1.17,3.35,2.59,5.48,4.21,2.08,1.62,4.36,3.45,6.79,5.37,10.7-1.32,18.76-4.92,23.88-8.42,5.17-3.5,7.71-6.69,7.71-6.69,0,0-.66-.76-2.03-1.88-1.37-1.12-3.4-2.69-6.13-4.21-2.74-1.52-6.08-3.09-10.19-4.31-4.11-1.22-8.87-2.08-14.25-2.33Z"/>
            <path class="cls-11" d="m424.49,294.47c7.4.2,13.89-.46,19.42-1.83,5.53-1.32,10.24-3.24,13.79-5.27,3.6-2.03,6.29-4.16,8.06-5.78,1.77-1.62,2.64-2.74,2.64-2.74l-112.2,4.21s9.68,1.77,23.17,4.51c6.74,1.32,14.25,2.89,22.05,4.26,7.76,1.32,15.72,2.48,23.12,2.69l-.05-.05Z"/>
          </g>
          <g>
            <path class="cls-4" d="m194.87,18.77s1.83,1.17,4.61,3.6c2.79,2.43,6.49,6.19,10.19,11.56,3.7,5.32,7.35,12.12,10.19,20.48,2.84,8.31,4.77,18.15,5.48,29.56.66,11.41,0,23.83-1.01,36-1.01,12.17-2.33,24.08-3.45,34.53-1.12,10.39-1.98,19.52-2.53,26.01-.56,6.44-.86,10.29-.86,10.29,0,0-1.32-3.65-3.5-9.73-2.23-6.13-5.42-14.6-9.18-24.44-3.75-9.84-8.11-21.04-12.27-32.5-4.11-11.51-7.96-23.17-10.29-34.43-2.28-11.2-2.99-21.34-2.38-30.07.56-8.77,2.38-16.27,4.56-22.36,2.18-6.13,4.82-10.8,6.9-13.84,2.08-3.09,3.55-4.66,3.55-4.66Z"/>
            <path class="cls-3" d="m180.27,76.67c6.49,5.68,12.12,10.8,16.38,14.7,4.31,3.95,7.35,7,8.87,8.37,1.06-1.77,3.35-5.37,6.39-10.39,3.14-4.87,7.2-11.15,12.02-18.4.15,1.17.35,2.33.51,3.5-5.42,8.21-9.84,14.96-12.88,19.77-3.04,4.87-4.82,7.76-4.82,7.81l-.71,1.17-1.01-.96s-2.54-2.38-6.69-6.29c-4.21-3.8-10.24-9.33-17.59-15.77-.15-1.22-.3-2.38-.41-3.55l-.05.05Z"/>
            <path class="cls-12" d="m219.26,204.03s-1.01-3.09-2.59-9.43c-1.57-6.34-3.7-15.92-5.73-29-1.98-13.08-3.4-28.24-4.06-40.21-.66-11.97-.71-20.69-.71-20.69,0,0,2.23,8.42,4.66,20.18,2.48,11.71,5.07,26.77,6.49,39.9,1.47,13.13,1.83,22.97,1.98,29.46.1,6.54-.05,9.73-.05,9.73v.05Z"/>
            <path class="cls-7" d="m222.86,65.11c-5.37,8.31-9.89,15.16-13.08,20.23-3.19,5.02-5.07,8.01-5.07,8.01,0,0-2.59-2.38-6.95-6.44-4.46-4.01-10.7-9.63-17.9-16.12-.86-16.58,2.69-29.61,6.69-38.58,1.98-4.51,4.11-7.76,5.68-10.04,1.57-2.23,2.69-3.4,2.69-3.4,0,0,1.32.81,3.45,2.59,2.13,1.77,5.02,4.41,8.06,8.16,6.19,7.61,12.93,19.37,16.43,35.59Z"/>
            <path class="cls-11" d="m182.3,89.65c-2.28-11.2-2.99-21.34-2.38-30.07.56-8.77,2.38-16.27,4.56-22.36,2.18-6.13,4.82-10.8,6.9-13.84,2.08-3.09,3.55-4.66,3.55-4.66l22.61,171.97s-1.32-3.65-3.5-9.73c-2.23-6.13-5.42-14.6-9.18-24.44-3.75-9.84-8.11-21.04-12.27-32.5-4.11-11.51-7.96-23.17-10.29-34.43v.05Z"/>
          </g>
          <g>
            <path class="cls-5" d="m133.27,49.8s2.03.66,5.32,2.28c3.3,1.67,7.76,4.31,12.62,8.42,4.87,4.16,10.09,9.73,14.86,16.98,4.77,7.25,9.13,16.12,12.57,26.82,3.5,10.7,5.93,22.66,8.01,34.53,2.08,11.81,3.8,23.47,5.37,33.72s3.04,19.16,4.11,25.45c1.06,6.24,1.72,9.99,1.72,9.99,0,0-2.18-3.14-5.78-8.42-3.6-5.17-8.77-12.47-14.86-20.94-6.03-8.42-13.03-18.1-19.82-27.89-6.74-9.84-13.38-20.08-18.4-30.17-5.02-10.09-8.16-19.52-9.84-28.04-1.67-8.57-1.83-16.07-1.27-22.41.61-6.34,1.88-11.46,3.09-14.96,1.22-3.45,2.23-5.32,2.23-5.32l.05-.05Z"/>
            <path class="cls-8" d="m133.88,108.71c3.8,1.83,7.3,3.6,10.6,5.32,3.19,1.67,6.13,3.19,8.72,4.56,5.07,2.64,8.72,4.72,10.49,5.68.61-1.93,1.83-5.93,3.5-11.46,1.72-5.58,4.11-12.42,6.84-20.53.46,1.06.91,2.13,1.37,3.19-1.52,4.51-2.94,8.67-4.21,12.42-.61,1.83-1.17,3.55-1.72,5.17-.51,1.62-.96,3.14-1.42,4.51-1.67,5.37-2.64,8.57-2.69,8.62l-.41,1.27-1.22-.66s-.76-.41-2.13-1.17c-1.37-.76-3.3-1.77-5.78-3.09-2.53-1.32-5.53-2.89-8.97-4.72-1.77-.91-3.6-1.88-5.58-2.89-1.98-.96-4.01-1.98-6.13-2.99-.46-1.12-.86-2.18-1.27-3.24Z"/>
            <path class="cls-12" d="m202.88,220.15s-1.72-2.69-4.82-8.37c-3.09-5.68-7.5-14.25-12.68-26.16-5.17-11.91-10.34-26.11-13.94-37.32-3.65-11.2-5.83-19.47-5.83-19.47,0,0,4.26,7.45,9.48,18.05,5.27,10.55,11.51,24.23,16.17,36.4,4.66,12.17,7.5,21.4,9.23,27.58,1.72,6.19,2.38,9.28,2.38,9.28Z"/>
            <path class="cls-1" d="m171.55,86.96c-3.04,9.23-5.68,16.83-7.45,22.51-1.77,5.53-2.84,8.82-2.84,8.82,0,0-.76-.41-2.18-1.17s-3.5-1.88-6.03-3.19c-2.59-1.37-5.73-2.99-9.23-4.82-3.55-1.88-7.55-3.95-11.81-6.08-5.02-15.72-4.92-28.95-3.3-38.43,1.57-9.53,4.61-14.91,4.61-14.91,0,0,5.98,1.83,13.69,7.4,7.76,5.58,17.24,15.21,24.59,29.76l-.05.1Z"/>
            <path class="cls-11" d="m139.05,120.52c-5.02-10.09-8.16-19.52-9.84-28.04-1.67-8.57-1.83-16.07-1.27-22.41.61-6.34,1.88-11.46,3.09-14.96,1.22-3.45,2.23-5.32,2.23-5.32l64.59,158.13s-2.18-3.14-5.78-8.42c-3.6-5.17-8.77-12.47-14.86-20.94-6.03-8.42-13.03-18.1-19.82-27.89-6.74-9.84-13.38-20.08-18.4-30.17h.05Z"/>
          </g>
          <g>
            <path class="cls-4" d="m81.91,93.2s1.98.1,5.27.81,7.96,2.03,13.23,4.51c5.22,2.43,11.26,6.24,17.19,11.51,5.98,5.27,11.91,12.17,17.59,20.84,5.63,8.67,10.65,18.71,15.31,28.7,4.66,10.04,8.87,19.82,12.78,28.65,7.71,17.54,13.54,30.01,13.54,30.01,0,0-2.64-2.23-7.1-5.98-4.46-3.75-10.8-9.02-18.2-15.11-7.4-6.13-15.77-12.83-24.13-20.03-8.37-7.15-16.68-14.7-23.47-22.46-6.84-7.76-11.86-15.36-15.36-22.56-3.5-7.15-5.53-13.94-6.49-19.62-.96-5.73-1.01-10.55-.81-13.94s.66-5.32.66-5.32Z"/>
            <path class="cls-3" d="m96.46,145.31c3.8.76,7.35,1.52,10.6,2.18,3.24.76,6.24,1.42,8.82,2.03,5.12,1.22,8.82,2.08,10.65,2.48.1-1.88.25-5.68.46-10.9.1-2.64.2-5.73.46-9.02.25-3.35.51-6.95.76-10.85.66.81,1.32,1.67,1.98,2.54-.3,4.36-.61,8.37-.86,11.97-.15,3.6-.3,6.74-.46,9.38-.2,5.12-.35,8.16-.35,8.21v1.22l-1.27-.25c-.05,0-2.99-.71-8.01-1.88-2.54-.61-5.63-1.32-9.13-2.08-3.5-.71-7.45-1.52-11.71-2.43-.66-.86-1.27-1.72-1.93-2.59Z"/>
            <path class="cls-12" d="m184.12,227.85s-2.18-1.93-6.24-6.19c-4.06-4.26-10.04-10.8-17.49-20.18-7.4-9.38-15.36-20.69-21.24-29.81-5.93-9.13-9.84-15.97-9.84-15.97,0,0,5.53,5.63,12.73,13.79,7.2,8.11,15.97,18.81,23.02,28.49,7,9.68,11.71,17.19,14.75,22.26,2.99,5.07,4.31,7.66,4.31,7.66v-.05Z"/>
            <path class="cls-7" d="m124.7,117.13c-.25,4.36-.56,8.47-.76,12.12-.2,3.65-.35,6.9-.46,9.63-.3,5.32-.46,8.47-.46,8.47,0,0-3.09-.71-8.26-1.83-2.64-.61-5.83-1.32-9.38-2.13-3.6-.76-7.6-1.62-11.86-2.53-4.06-6.34-6.9-12.47-8.82-18.15s-2.84-10.75-3.24-15.16c-.41-4.36-.25-7.96-.05-10.44.2-2.48.56-3.9.56-3.9,0,0,5.73.25,13.94,3.4,8.16,3.04,18.86,9.38,28.85,20.58l-.05-.05Z"/>
            <path class="cls-11" d="m103.87,154.59c-6.84-7.76-11.86-15.36-15.36-22.56-3.5-7.15-5.53-13.94-6.49-19.62-.96-5.73-1.01-10.55-.81-13.94.2-3.4.66-5.32.66-5.32l94.86,125.03s-2.64-2.23-7.1-5.98c-4.46-3.75-10.8-9.02-18.2-15.11-7.4-6.13-15.77-12.83-24.13-20.03-8.37-7.15-16.68-14.7-23.47-22.46h.05Z"/>
          </g>
          <g>
            <path class="cls-5" d="m47.79,141.01s1.77-.41,4.87-.56c3.14-.1,7.6,0,12.93,1.06s11.41,2.94,18,6.34c6.59,3.4,13.54,8.16,20.63,14.65,7.1,6.49,13.89,14.3,20.38,22.16,6.44,7.81,12.68,15.82,18.1,22.76,5.48,6.95,10.19,12.88,13.59,17.09,3.45,4.21,5.48,6.74,5.48,6.74,0,0-2.89-1.42-7.76-3.75-4.87-2.33-11.86-5.63-19.82-9.33-7.96-3.7-17.09-7.86-26.26-12.37-9.18-4.51-18.35-9.38-26.26-14.8-7.91-5.42-14.15-11.05-18.91-16.68-4.77-5.63-8.11-11.15-10.39-16.12-2.23-4.92-3.35-9.18-3.9-12.27-.56-3.04-.61-4.87-.61-4.87l-.05-.05Z"/>
            <path class="cls-8" d="m72.89,184.3c7.3-.3,13.44-.61,18.4-.66,4.87-.05,8.47-.15,10.19-.15-.2-.86-.51-2.13-.86-3.8s-.81-3.7-1.27-6.08c-.96-4.77-2.33-11.05-3.55-18.05.76.61,1.57,1.22,2.38,1.83,1.37,7.96,2.89,14.75,3.8,19.37.51,2.33.86,4.16,1.17,5.48.3,1.27.46,1.98.46,2.03l.25,1.12h-1.17s-2.89.1-7.66.15c-1.22,0-2.53,0-4.01.05-1.42.05-2.99.1-4.61.15-3.35.15-7.1.3-11.15.46-.76-.61-1.57-1.27-2.28-1.88h-.1Z"/>
            <path class="cls-12" d="m170.54,238.2s-2.38-1.27-7.05-4.11c-4.61-2.89-11.51-7.4-20.33-14.04-8.82-6.69-18.51-15.01-25.91-21.85-7.4-6.79-12.47-12.02-12.47-12.02,0,0,6.24,3.75,14.55,9.38,8.31,5.58,18.71,13.13,27.23,20.18,8.52,7.05,14.45,12.67,18.35,16.58,3.9,3.85,5.68,5.93,5.68,5.93l-.05-.05Z"/>
            <path class="cls-1" d="m91.65,152.62c.35,1.98.76,3.9,1.12,5.78.35,1.88.76,3.65,1.06,5.32.66,3.3,1.27,6.24,1.77,8.67.46,2.43.86,4.31,1.17,5.68.3,1.32.41,2.08.41,2.08,0,0-2.94.1-7.91.25-5.07.05-11.91.41-20.13.66-10.14-9.48-15.77-19.42-18.51-27.07-2.74-7.6-2.84-12.88-2.84-12.88,0,0,1.27-.25,3.55-.46s5.63-.2,9.68.25c8.11.91,18.96,3.95,30.62,11.76v-.05Z"/>
            <path class="cls-11" d="m81.61,190.94c-7.91-5.42-14.15-11.05-18.91-16.68-4.77-5.63-8.11-11.15-10.39-16.12-2.23-4.92-3.35-9.18-3.9-12.27-.56-3.04-.61-4.87-.61-4.87l113.97,90.2s-2.89-1.42-7.76-3.75c-4.87-2.33-11.86-5.63-19.82-9.33-7.96-3.7-17.09-7.86-26.26-12.37-9.18-4.51-18.35-9.38-26.26-14.8h-.05Z"/>
          </g>
          <g>
            <path class="cls-4" d="m22.59,190.03s1.52-.81,4.36-1.72c1.42-.46,3.14-.96,5.17-1.37s4.41-.76,7-.96c5.22-.41,11.41-.15,18.3,1.27s14.6,4.06,22.82,8.21,16.48,9.63,24.59,15.26c8.06,5.63,15.77,11.41,22.61,16.43,3.4,2.48,6.59,4.82,9.43,6.9,2.89,2.08,5.42,3.9,7.55,5.48,4.26,3.04,6.74,4.82,6.74,4.82,0,0-3.04-.56-8.16-1.47-5.17-.96-12.37-2.18-20.74-3.55-8.37-1.37-17.9-2.94-27.53-4.77-9.63-1.88-19.32-4.01-28.04-7-8.67-2.99-15.97-6.69-21.8-10.65-5.83-3.95-10.29-8.21-13.64-12.22-3.35-4.01-5.58-7.71-6.84-10.34-1.32-2.69-1.83-4.31-1.83-4.31Z"/>
            <path class="cls-3" d="m56.87,223.65c6.59-2.13,12.42-3.9,16.88-5.27,4.46-1.37,7.86-2.28,9.38-2.74-.76-1.47-2.38-4.51-4.61-8.67-2.13-4.16-4.87-9.53-7.96-15.82.86.35,1.77.71,2.64,1.06,3.45,7.05,6.44,12.88,8.52,16.93,2.18,4.11,3.45,6.49,3.45,6.54l.51.96-1.06.3s-2.69.76-7.1,2.08c-4.36,1.37-10.65,3.24-18.1,5.68-.86-.41-1.77-.76-2.64-1.17l.1.1Z"/>
            <path class="cls-12" d="m161.11,248.64s-2.53-.56-7.6-2.03c-5.02-1.47-12.57-3.9-22.46-7.81-9.89-3.95-20.99-9.18-29.56-13.59s-14.65-7.96-14.65-7.96c0,0,6.74,1.88,15.87,4.97,9.13,3.04,20.63,7.4,30.32,11.71,9.68,4.36,16.68,8.06,21.24,10.65s6.74,4.06,6.74,4.06h.1Z"/>
            <path class="cls-7" d="m66.1,189.58c3.55,6.95,6.59,12.98,8.77,17.29,2.18,4.26,3.5,6.74,3.5,6.74,0,0-2.74.81-7.3,2.18-4.56,1.42-11,3.4-18.45,5.73-11.86-6.19-19.47-13.94-24.03-20.33-2.33-3.19-3.75-5.98-4.66-7.96-.91-2.03-1.27-3.19-1.27-3.19,0,0,1.12-.56,3.19-1.32,2.08-.71,5.07-1.67,8.97-2.23,7.76-1.17,18.66-1.12,31.33,3.09h-.05Z"/>
            <path class="cls-11" d="m66.7,227.6c-8.67-2.99-15.97-6.69-21.8-10.65-5.83-3.95-10.29-8.21-13.64-12.22-3.35-4.01-5.58-7.71-6.84-10.34-1.32-2.69-1.83-4.31-1.83-4.31l128.58,54.35s-3.04-.56-8.16-1.47c-5.17-.96-12.37-2.18-20.74-3.55-8.37-1.37-17.9-2.94-27.53-4.77-9.63-1.88-19.32-4.01-28.04-7v-.05Z"/>
          </g>
          <g>
            <path class="cls-5" d="m26.5,234.7s1.32-.86,3.75-2.03c2.43-1.12,6.03-2.53,10.55-3.5,4.61-.96,10.19-1.47,16.58-.96,6.39.46,13.54,1.93,21.34,4.66,7.86,2.79,15.92,6.69,23.78,10.8,7.86,4.11,15.41,8.37,22.11,12.02,13.49,7.45,23.27,12.67,23.27,12.67,0,0-2.79-.15-7.5-.35-4.72-.2-11.31-.46-18.91-.76-7.66-.3-16.43-.56-25.2-1.06-8.82-.56-17.75-1.37-25.91-3.04-8.11-1.67-15.06-4.11-20.79-7-5.78-2.89-10.19-6.19-13.64-9.33-3.45-3.19-5.83-6.24-7.35-8.47s-2.13-3.65-2.13-3.65h.05Z"/>
            <path class="cls-8" d="m61.13,260.81c5.58-2.69,10.6-4.92,14.5-6.64,3.85-1.72,6.64-2.94,8.06-3.55-1.67-2.43-7.2-9.94-14.04-20.38.81.2,1.67.41,2.48.66,3.95,5.93,7.15,10.75,9.63,14.15,2.38,3.4,3.8,5.37,3.8,5.42l.56.81-.91.41s-.61.25-1.67.71c-1.01.46-2.54,1.12-4.41,1.98-3.75,1.72-9.28,4.11-15.51,7.15-.81-.25-1.67-.51-2.48-.71Z"/>
            <path class="cls-12" d="m157.25,271.05s-2.38-.2-7.05-.91c-4.66-.76-11.66-2.03-20.94-4.41-9.28-2.38-19.87-5.78-28.04-8.77-8.16-2.94-13.99-5.42-13.99-5.42,0,0,6.29.91,14.8,2.59,8.52,1.67,19.37,4.21,28.54,6.95,9.18,2.74,15.87,5.27,20.23,7.05,4.41,1.77,6.49,2.84,6.49,2.84l-.05.1Z"/>
            <path class="cls-1" d="m65.39,229.32c4.01,5.88,7.35,10.85,9.84,14.4,2.43,3.55,3.85,5.63,3.85,5.63,0,0-2.33,1.06-6.24,2.84-1.98.91-4.31,1.98-7,3.19-1.37.61-2.79,1.27-4.26,1.93-1.47.71-2.99,1.42-4.61,2.13-5.68-2.08-10.49-4.66-14.45-7.3-3.95-2.69-7.05-5.48-9.43-8.06-2.38-2.59-4.11-4.92-5.17-6.59-1.01-1.67-1.47-2.69-1.47-2.69,0,0,3.75-2.59,10.44-4.56,6.69-1.98,16.58-3.14,28.39-.86l.1-.05Z"/>
            <path class="cls-11" d="m70.35,263.19c-8.11-1.67-15.06-4.11-20.79-7-5.78-2.89-10.19-6.19-13.64-9.33-3.45-3.19-5.83-6.24-7.35-8.47s-2.13-3.65-2.13-3.65l121.38,33.72s-2.79-.15-7.5-.35c-4.72-.2-11.31-.46-18.91-.76-7.66-.3-16.43-.56-25.2-1.06-8.82-.56-17.74-1.37-25.91-3.04l.05-.05Z"/>
          </g>
          <g>
            <path class="cls-4" d="m36.79,278.86s.2-.25.71-.71c.46-.46,1.17-1.06,2.13-1.83,1.88-1.47,4.72-3.4,8.47-5.17,3.75-1.77,8.47-3.35,14.15-4.26,5.63-.91,12.17-1.12,19.52-.35,7.35.76,15.21,2.48,22.81,4.41,7.66,1.93,15.06,4.06,21.65,5.88,6.54,1.83,12.27,3.35,16.33,4.46,4.01,1.06,6.44,1.72,6.44,1.72,0,0-9.68,1.77-23.17,4.51-6.74,1.32-14.25,2.89-22.05,4.26-7.76,1.32-15.72,2.48-23.12,2.69-7.4.2-13.89-.46-19.42-1.83-5.53-1.32-10.24-3.24-13.79-5.27-3.6-2.03-6.29-4.16-8.06-5.78-1.77-1.62-2.64-2.74-2.64-2.74h.05Z"/>
            <path class="cls-3" d="m72.18,294.32c2.18-1.72,4.21-3.35,6.03-4.82s3.6-2.79,5.12-3.95c2.99-2.28,5.17-3.9,6.24-4.72-1.01-.86-3.04-2.69-5.83-5.17-1.42-1.27-3.04-2.74-4.82-4.31-1.72-1.62-3.65-3.4-5.68-5.27h2.28c2.28,2.13,4.36,4.11,6.29,5.83,1.93,1.72,3.6,3.19,4.97,4.46,2.74,2.43,4.36,3.9,4.41,3.9l.66.61-.71.56s-1.77,1.32-4.66,3.6c-1.47,1.12-3.3,2.48-5.32,4.06-2.03,1.62-4.26,3.4-6.69,5.32-.76,0-1.52-.1-2.28-.1Z"/>
            <path class="cls-12" d="m157.66,283.37s-2.08.35-6.24.66c-4.21.3-10.55.66-19.11.51-8.57-.15-18.4-.91-26.11-1.83-7.71-.86-13.28-1.77-13.28-1.77,0,0,1.42-.1,3.75-.3,2.38-.15,5.73-.35,9.63-.51,7.76-.3,17.64-.35,26.21.15,8.52.51,14.8,1.32,19.01,1.93,4.16.66,6.19,1.12,6.19,1.12l-.05.05Z"/>
            <path class="cls-7" d="m69.39,266.13c4.56,4.26,8.67,7.86,11.51,10.44,2.84,2.54,4.51,4.06,4.51,4.06,0,0-1.77,1.37-4.77,3.75-1.52,1.17-3.35,2.59-5.48,4.21-2.08,1.62-4.36,3.45-6.79,5.37-10.7-1.32-18.76-4.92-23.88-8.42-5.17-3.5-7.71-6.69-7.71-6.69,0,0,.66-.76,2.03-1.88,1.37-1.12,3.4-2.69,6.13-4.21,2.74-1.52,6.08-3.09,10.19-4.31,4.11-1.22,8.87-2.08,14.25-2.33Z"/>
            <path class="cls-11" d="m80.7,294.47c-7.4.2-13.89-.46-19.42-1.83-5.53-1.32-10.24-3.24-13.79-5.27-3.6-2.03-6.29-4.16-8.06-5.78-1.77-1.62-2.64-2.74-2.64-2.74l112.2,4.21s-9.68,1.77-23.17,4.51c-6.74,1.32-14.25,2.89-22.05,4.26-7.76,1.32-15.72,2.48-23.12,2.69l.05-.05Z"/>
          </g>
        </g>
        <g>
          <path class="cls-5" d="m252.57,3s-19.77,22.71-20.23,69.92c-.46,47.2,20.23,108.9,20.23,108.9,0,0,20.69-61.75,20.23-108.9-.46-47.2-20.23-69.92-20.23-69.92Z"/>
          <path class="cls-8" d="m272.14,59.43c-9.18,14.2-16.98,24.49-19.52,27.78-2.53-3.3-10.34-13.59-19.52-27.78-.1,1.22-.2,2.43-.3,3.65,10.49,16.02,18.86,26.52,18.96,26.67l.86,1.12.86-1.12s8.47-10.65,18.96-26.67c-.1-1.22-.2-2.43-.3-3.65Z"/>
          <path class="cls-12" d="m252.57,195.66s4.21-13.13,4.31-40.36c.1-27.23-4.31-62.87-4.31-62.87,0,0-4.41,35.64-4.31,62.87s4.31,40.36,4.31,40.36Z"/>
          <path class="cls-1" d="m233.76,53.35c10.09,16.22,18.81,27.18,18.81,27.18,0,0,8.77-11,18.86-27.18-4.56-33.87-18.86-50.35-18.86-50.35,0,0-14.25,16.43-18.81,50.35Z"/>
          <path class="cls-11" d="m272.8,72.92c-.46-47.2-20.23-69.92-20.23-69.92v178.82s20.69-61.75,20.23-108.9Z"/>
        </g>
        <g>
          <path class="cls-13" d="m369.13,276.37c0-1.06,0-2.18-.1-3.35s-.2-2.33-.3-3.55c-.15-2.48-.66-5.02-1.06-7.71-.56-2.64-1.06-5.42-1.88-8.16-.71-2.79-1.67-5.53-2.59-8.26-1.06-2.69-2.08-5.42-3.35-8.01-.61-1.32-1.22-2.59-1.88-3.85-.66-1.27-1.27-2.48-1.98-3.7-1.42-2.38-2.74-4.66-4.16-6.74-1.37-2.13-2.79-4.01-4.16-5.78-1.32-1.77-2.64-3.3-3.8-4.66-1.12-1.37-2.23-2.48-3.09-3.45-1.72-1.93-2.79-2.94-2.79-2.94,0,0-1.06-1.01-2.89-2.84-.96-.86-2.13-1.88-3.5-3.09-1.32-1.22-2.94-2.43-4.66-3.8-1.77-1.37-3.7-2.74-5.78-4.21-2.13-1.37-4.36-2.89-6.79-4.26-2.38-1.42-4.92-2.74-7.55-4.06-1.32-.66-2.64-1.22-4.01-1.83-1.32-.61-2.69-1.22-4.11-1.72-2.74-1.12-5.53-2.08-8.31-2.94-2.79-.86-5.53-1.62-8.26-2.23-2.69-.61-5.32-1.17-7.86-1.52-2.48-.46-4.87-.71-7.1-.91-2.18-.25-4.21-.3-6.03-.41-1.77-.1-3.35-.1-4.66-.1-2.59,0-4.06.05-4.06.05,0,0-1.47,0-4.06-.05-1.27,0-2.84,0-4.66.1-1.77.1-3.8.15-6.03.41-2.18.2-4.56.46-7.1.91-2.53.35-5.12.91-7.86,1.52-2.69.61-5.48,1.37-8.26,2.23-2.79.91-5.58,1.83-8.31,2.94-1.37.51-2.74,1.12-4.11,1.72-1.32.61-2.69,1.17-4.01,1.83-2.59,1.32-5.17,2.59-7.55,4.06-2.43,1.37-4.61,2.89-6.79,4.26-2.08,1.47-4.06,2.84-5.78,4.21-1.72,1.37-3.35,2.59-4.66,3.8s-2.53,2.23-3.5,3.09c-1.83,1.83-2.89,2.84-2.89,2.84,0,0-1.06,1.01-2.79,2.94-.86.96-1.98,2.08-3.09,3.45-1.12,1.37-2.48,2.89-3.8,4.66s-2.79,3.65-4.16,5.78c-1.42,2.08-2.79,4.36-4.16,6.74-.71,1.17-1.32,2.43-1.98,3.7s-1.32,2.53-1.88,3.85c-1.27,2.59-2.28,5.32-3.35,8.01-.96,2.74-1.93,5.48-2.59,8.26-.81,2.74-1.32,5.53-1.88,8.16-.41,2.69-.86,5.22-1.06,7.71-.1,1.22-.2,2.43-.3,3.55-.05,1.17-.1,2.28-.1,3.35-.1,2.13,0,4.11,0,5.83s.1,3.24.25,4.46c.25,2.43.41,3.85.41,3.85h19.72s.2-1.12.61-3.09c.15-.96.41-2.18.76-3.5.3-1.37.66-2.84,1.12-4.46.41-1.62.96-3.35,1.57-5.17.56-1.83,1.37-3.65,2.08-5.58.81-1.88,1.62-3.85,2.64-5.73.86-1.93,2.03-3.8,3.04-5.73,1.12-1.88,2.23-3.7,3.45-5.42,1.12-1.77,2.48-3.4,3.65-5.02,1.27-1.57,2.43-3.09,3.7-4.41,1.17-1.42,2.38-2.64,3.5-3.75,1.06-1.17,2.23-2.13,3.14-2.99.91-.91,1.83-1.57,2.48-2.23,1.37-1.22,2.23-1.88,2.23-1.88,0,0,.81-.66,2.28-1.83.76-.56,1.67-1.22,2.69-1.98,1.01-.76,2.28-1.52,3.6-2.43,1.32-.86,2.79-1.72,4.36-2.64,1.62-.86,3.24-1.83,5.02-2.64,1.72-.91,3.6-1.72,5.53-2.53,1.93-.76,3.85-1.62,5.83-2.28,1.01-.3,1.98-.71,2.99-1.01s1.98-.61,2.99-.91c1.98-.56,3.95-1.06,5.88-1.52,1.93-.41,3.75-.86,5.58-1.12,1.77-.35,3.45-.56,5.02-.76,1.57-.25,2.99-.35,4.31-.51,1.27-.15,2.38-.25,3.35-.3,1.88-.15,2.89-.2,2.89-.2,0,0,1.06.1,2.89.2.91,0,2.03.1,3.35.3,1.27.15,2.74.2,4.31.51,1.57.2,3.24.41,5.02.76,1.77.3,3.65.71,5.58,1.12,1.93.41,3.9.96,5.88,1.52,1.01.3,1.98.61,2.99.91s1.98.71,2.99,1.01c1.98.66,3.9,1.52,5.83,2.28,1.88.81,3.75,1.67,5.53,2.53,1.77.81,3.4,1.83,5.02,2.64,1.57.91,3.04,1.77,4.36,2.64,1.32.91,2.53,1.67,3.6,2.43,1.06.76,1.93,1.42,2.69,1.98,1.42,1.17,2.28,1.83,2.28,1.83,0,0,.86.61,2.23,1.88.71.61,1.57,1.32,2.48,2.23s2.03,1.88,3.14,2.99c1.12,1.17,2.33,2.38,3.5,3.75,1.27,1.32,2.43,2.84,3.7,4.41,1.17,1.62,2.53,3.24,3.65,5.02,1.22,1.72,2.33,3.6,3.45,5.42,1.01,1.88,2.13,3.75,3.04,5.73,1.01,1.93,1.77,3.85,2.64,5.73.71,1.93,1.52,3.75,2.08,5.58.61,1.83,1.17,3.55,1.57,5.17.51,1.62.86,3.09,1.12,4.46.3,1.32.56,2.53.76,3.5.35,1.98.61,3.09.61,3.09h19.72s.15-1.42.41-3.85c.15-1.22.25-2.74.25-4.46.05-1.72.15-3.7,0-5.83h.1Z"/>
          <path class="cls-4" d="m282.48,202.4s2.38-1.47,4.92-2.94c2.53-1.42,5.17-2.64,5.17-2.64,0,0,1.17,2.69,2.08,5.42.46,1.32.91,2.69,1.27,3.65.3,1.01.51,1.67.51,1.67,0,0-.81-.41-2.13-.91s-2.99-1.32-4.77-1.88c-1.72-.66-3.5-1.27-4.82-1.67-1.32-.41-2.23-.71-2.23-.71Z"/>
          <path class="cls-5" d="m321.32,204.63s-.71.05-1.83.25c-1.12.15-2.53.41-3.95.71-2.84.51-5.63,1.27-5.63,1.27,0,0-.15-.71-.41-1.77-.25-1.06-.61-2.48-1.01-3.9-.76-2.79-1.72-5.73-1.72-5.73,0,0,.91.51,2.33,1.32.71.41,1.52.86,2.38,1.37.86.51,1.77,1.12,2.69,1.67,1.83,1.12,3.6,2.38,4.92,3.3,1.32.91,2.18,1.57,2.18,1.57l.05-.05Z"/>
          <path class="cls-5" d="m282.79,186.13s-2.64,1.47-5.07,3.19c-1.22.81-2.43,1.67-3.35,2.28-.91.66-1.47,1.12-1.47,1.12,0,0-1.57-2.43-3.3-4.92-1.72-2.38-3.65-4.72-3.65-4.72,0,0,1.06.1,2.64.3,1.62.15,3.7.56,5.83.91,2.13.35,4.21.86,5.78,1.22.81.15,1.42.35,1.88.46s.71.2.71.2v-.05Z"/>
          <path class="cls-4" d="m341.24,247.07s2.48.76,4.87,1.72,4.72,2.13,4.72,2.13c0,0-.15.61-.46,1.57-.25.91-.61,2.13-.96,3.35-.35,1.17-.71,2.38-1.01,3.24s-.51,1.42-.51,1.42c0,0-.35-.86-.86-2.18-.61-1.27-1.37-2.99-2.18-4.66-.91-1.67-1.72-3.35-2.43-4.56-.71-1.22-1.17-2.03-1.17-2.03Z"/>
          <path class="cls-5" d="m362.79,277.44s-.35-.46-.91-1.22c-.56-.71-1.32-1.62-2.18-2.53-1.67-1.77-3.45-3.45-3.45-3.45,0,0,.96-2.28,1.88-4.61.51-1.22.91-2.38,1.27-3.3s.56-1.57.56-1.57c0,0,.25,1.01.66,2.59.35,1.52.76,3.65,1.17,5.68.3,2.08.61,4.16.81,5.73.15,1.57.2,2.64.2,2.64v.05Z"/>
          <path class="cls-5" d="m350.22,237.08s-.66-.2-1.57-.56c-.96-.35-2.23-.76-3.55-1.12-1.32-.35-2.64-.71-3.6-.91-.96-.25-1.67-.35-1.67-.35,0,0,.25-2.74.51-5.48.15-2.74.25-5.63.25-5.63,0,0,.66.86,1.67,2.08,1.01,1.22,2.23,2.99,3.45,4.72,1.22,1.77,2.33,3.6,3.19,4.92.81,1.37,1.32,2.33,1.32,2.33Z"/>
          <path class="cls-4" d="m222.71,202.4s-2.38-1.47-4.92-2.94c-2.53-1.42-5.17-2.64-5.17-2.64,0,0-1.17,2.69-2.08,5.42-.46,1.32-.91,2.69-1.27,3.65-.3,1.01-.51,1.67-.51,1.67,0,0,.81-.41,2.13-.91s2.99-1.32,4.77-1.88c1.72-.66,3.5-1.27,4.82-1.67,1.32-.41,2.23-.71,2.23-.71Z"/>
          <path class="cls-5" d="m183.87,204.63s.71.05,1.83.25c1.12.15,2.53.41,3.95.71,2.84.51,5.63,1.27,5.63,1.27,0,0,.15-.71.41-1.77.25-1.06.61-2.48,1.01-3.9.76-2.79,1.72-5.73,1.72-5.73,0,0-.91.51-2.33,1.32-.71.41-1.52.86-2.38,1.37-.86.51-1.77,1.12-2.69,1.67-1.83,1.12-3.6,2.38-4.92,3.3-1.32.91-2.18,1.57-2.18,1.57l-.05-.05Z"/>
          <path class="cls-5" d="m222.4,186.13s2.59,1.47,5.07,3.19c1.22.81,2.43,1.67,3.35,2.28.91.66,1.47,1.12,1.47,1.12,0,0,1.57-2.43,3.3-4.92,1.72-2.38,3.65-4.72,3.65-4.72,0,0-1.06.1-2.64.3-1.62.15-3.7.56-5.83.91-2.13.35-4.21.86-5.78,1.22-.81.15-1.42.35-1.88.46s-.71.2-.71.2v-.05Z"/>
          <g>
            <path class="cls-7" d="m371.46,272.62c-.1-1.17-.15-2.38-.25-3.65-.15-2.53-.61-5.17-.96-7.91-.51-2.74-1.01-5.58-1.77-8.42-.71-2.84-1.62-5.68-2.59-8.52-1.06-2.79-2.08-5.63-3.35-8.31-.61-1.37-1.22-2.69-1.88-3.95-.66-1.27-1.27-2.59-1.98-3.8-1.42-2.43-2.79-4.82-4.21-7s-2.84-4.16-4.21-5.98c-1.32-1.88-2.69-3.4-3.85-4.87s-2.28-2.59-3.14-3.6c-1.77-1.98-2.84-3.04-2.84-3.04,0,0-1.06-1.06-2.99-2.94-.96-.91-2.18-1.98-3.55-3.19-1.37-1.27-3.04-2.53-4.82-3.95s-3.8-2.84-5.93-4.36c-2.18-1.42-4.46-2.99-6.95-4.41-2.43-1.47-5.07-2.84-7.76-4.21-1.32-.71-2.74-1.27-4.11-1.93s-2.79-1.22-4.21-1.77c-2.84-1.17-5.73-2.13-8.57-3.04-2.89-.86-5.73-1.67-8.52-2.33-2.79-.61-5.48-1.22-8.06-1.57-2.59-.46-5.02-.71-7.3-.91-2.28-.25-4.36-.3-6.19-.41s-3.45-.1-4.77-.1c-2.64.05-4.16.1-4.16.1,0,0-1.52,0-4.16-.1-1.32,0-2.94,0-4.77.1-1.83.1-3.9.15-6.19.41-2.28.2-4.72.46-7.3.91-2.59.35-5.27.96-8.06,1.57-2.79.66-5.63,1.42-8.52,2.33-2.84.91-5.73,1.88-8.57,3.04-1.42.56-2.84,1.17-4.21,1.77s-2.79,1.22-4.11,1.93c-2.69,1.37-5.32,2.69-7.76,4.21-2.48,1.42-4.77,2.99-6.95,4.41-2.13,1.52-4.16,2.94-5.93,4.36s-3.45,2.69-4.82,3.95c-1.37,1.22-2.59,2.33-3.55,3.19-1.88,1.88-2.99,2.94-2.99,2.94,0,0-1.12,1.06-2.84,3.04-.86,1.01-1.98,2.13-3.14,3.6-1.17,1.42-2.53,2.99-3.85,4.87-1.37,1.83-2.79,3.8-4.21,5.98-1.47,2.13-2.79,4.56-4.21,7-.71,1.22-1.32,2.54-1.98,3.8s-1.32,2.64-1.88,3.95c-1.27,2.69-2.28,5.53-3.35,8.31-.96,2.84-1.88,5.68-2.59,8.52-.76,2.84-1.27,5.68-1.77,8.42-.35,2.74-.81,5.37-.96,7.91-.1,1.27-.15,2.48-.25,3.65-.05,1.17,0,2.33-.05,3.45-.05,2.18.05,4.21.15,5.98.05,1.77.2,3.3.41,4.56.3,2.48.51,3.9.51,3.9h4.16s-.1-1.37-.3-3.75c-.1-1.22-.15-2.69-.15-4.36s-.05-3.6.1-5.68c.05-1.06.1-2.13.2-3.24s.25-2.28.35-3.45c.2-2.38.71-4.87,1.17-7.5.56-2.59,1.12-5.22,1.93-7.91.71-2.69,1.67-5.32,2.64-8.01,1.06-2.64,2.13-5.27,3.35-7.76.61-1.27,1.22-2.53,1.88-3.7.66-1.22,1.27-2.43,1.98-3.55,1.37-2.28,2.69-4.51,4.11-6.49,1.37-2.03,2.79-3.85,4.06-5.58s2.59-3.14,3.7-4.51c1.12-1.32,2.18-2.38,3.04-3.35,1.67-1.83,2.74-2.79,2.74-2.79,0,0,1.01-1.01,2.84-2.74.96-.81,2.08-1.83,3.4-2.99s2.89-2.33,4.56-3.65c1.72-1.32,3.6-2.64,5.63-4.06,2.08-1.32,4.26-2.79,6.59-4.06,2.33-1.37,4.82-2.64,7.3-3.9,1.27-.66,2.59-1.17,3.85-1.77,1.32-.61,2.64-1.17,3.95-1.67,2.64-1.06,5.37-1.98,8.06-2.84,2.69-.81,5.37-1.57,8.01-2.18,2.64-.56,5.17-1.17,7.6-1.47,2.43-.46,4.72-.66,6.84-.91s4.11-.3,5.83-.41,3.24-.15,4.51-.1h7.81c1.27,0,2.79,0,4.51.1s3.7.15,5.83.41c2.13.2,4.46.46,6.84.91,2.43.35,4.97.91,7.6,1.47,2.64.61,5.27,1.37,8.01,2.18,2.69.86,5.42,1.77,8.06,2.84,1.32.51,2.69,1.06,3.95,1.67,1.32.61,2.64,1.12,3.85,1.77,2.53,1.27,5.02,2.48,7.3,3.9,2.33,1.32,4.51,2.74,6.59,4.06,2.03,1.42,3.9,2.74,5.63,4.06,1.67,1.32,3.24,2.48,4.56,3.65s2.43,2.13,3.4,2.99c1.83,1.72,2.84,2.74,2.84,2.74,0,0,1.06.96,2.74,2.79.86.91,1.93,1.98,3.04,3.35,1.12,1.32,2.43,2.79,3.7,4.51,1.32,1.67,2.74,3.5,4.06,5.58,1.42,1.98,2.74,4.21,4.11,6.49.71,1.17,1.32,2.38,1.98,3.55.66,1.22,1.27,2.43,1.88,3.7,1.27,2.48,2.28,5.12,3.35,7.76.96,2.69,1.93,5.32,2.64,8.01.81,2.64,1.37,5.32,1.93,7.91.46,2.59.96,5.07,1.17,7.5.1,1.22.25,2.33.35,3.45s.1,2.23.2,3.24c.15,2.08.1,4.01.1,5.68s0,3.14-.15,4.36c-.2,2.38-.3,3.75-.3,3.75h4.16s.2-1.42.51-3.9c.2-1.27.3-2.79.41-4.56.1-1.77.2-3.75.15-5.98,0-1.12,0-2.23-.05-3.45h.1Z"/>
            <path class="cls-7" d="m349.66,283.73c-.25-1.37-.56-2.94-1.01-4.61-.35-1.67-.86-3.45-1.47-5.32-.51-1.88-1.27-3.8-1.98-5.83-.81-1.98-1.57-4.01-2.53-5.98-.86-2.03-1.98-4.01-2.99-5.98-1.12-1.93-2.23-3.85-3.45-5.73-1.12-1.88-2.48-3.6-3.65-5.27-2.53-3.3-5.02-6.24-7.35-8.62-1.12-1.22-2.28-2.23-3.19-3.19-.91-.96-1.88-1.67-2.59-2.33-1.42-1.32-2.28-1.98-2.28-1.98,0,0-.86-.71-2.33-1.93-.76-.56-1.72-1.27-2.79-2.08s-2.33-1.62-3.7-2.54-2.89-1.83-4.51-2.79c-1.67-.91-3.35-1.93-5.22-2.84-1.83-.96-3.75-1.83-5.73-2.69-1.98-.81-4.01-1.72-6.08-2.38-1.01-.35-2.08-.76-3.09-1.06-1.01-.3-2.08-.66-3.09-.96-2.08-.61-4.11-1.17-6.13-1.57-1.98-.46-3.95-.86-5.78-1.17-1.83-.35-3.6-.56-5.27-.81-1.62-.25-3.14-.35-4.46-.46-1.32-.15-2.48-.2-3.45-.25-1.93-.1-3.04-.2-3.04-.2,0,0-1.12.05-3.04.2-.96,0-2.13.1-3.45.25-1.32.15-2.84.2-4.46.46-1.62.2-3.4.41-5.27.81-1.88.3-3.8.71-5.78,1.17s-4.06,1.01-6.13,1.57c-1.01.3-2.08.61-3.09.96s-2.08.71-3.09,1.06c-2.08.66-4.06,1.57-6.08,2.38-1.98.86-3.9,1.72-5.73,2.69-1.88.86-3.55,1.93-5.22,2.84-1.62.96-3.14,1.88-4.51,2.79-1.32.96-2.64,1.72-3.7,2.54s-2.03,1.47-2.79,2.08c-1.47,1.22-2.33,1.93-2.33,1.93,0,0-.86.66-2.28,1.98-.71.66-1.62,1.37-2.59,2.33-.91.96-2.08,1.98-3.19,3.19-2.28,2.38-4.82,5.32-7.35,8.62-1.17,1.67-2.54,3.4-3.65,5.27-1.22,1.83-2.33,3.75-3.45,5.73-1.01,1.98-2.13,3.95-2.99,5.98-.96,1.98-1.72,4.06-2.53,5.98-.71,1.98-1.42,3.9-1.98,5.83-.56,1.88-1.06,3.65-1.47,5.32-.46,1.67-.76,3.24-1.01,4.61-.3,1.37-.51,2.59-.61,3.6-.3,2.03-.51,3.19-.51,3.19h4.16s.25-1.12.71-3.04c.2-.96.51-2.13.86-3.4.3-1.32.71-2.74,1.27-4.31.46-1.57,1.06-3.24,1.67-4.97s1.42-3.55,2.18-5.37c.86-1.83,1.67-3.7,2.69-5.53.91-1.88,2.03-3.65,3.09-5.42,1.12-1.77,2.23-3.5,3.45-5.17,1.12-1.67,2.43-3.19,3.6-4.77,1.27-1.47,2.43-2.89,3.65-4.16,1.17-1.32,2.38-2.48,3.45-3.55,1.06-1.12,2.18-1.98,3.04-2.84.91-.86,1.77-1.52,2.43-2.08,1.32-1.17,2.18-1.72,2.18-1.72,0,0,.81-.61,2.18-1.72.71-.51,1.62-1.12,2.64-1.83s2.23-1.42,3.45-2.28c1.27-.81,2.74-1.62,4.21-2.48,1.52-.81,3.09-1.72,4.82-2.48,1.67-.86,3.45-1.62,5.27-2.38,1.88-.71,3.7-1.52,5.58-2.13l2.84-.96c.96-.3,1.93-.56,2.84-.86,1.88-.51,3.8-1.01,5.63-1.42,1.83-.41,3.6-.81,5.32-1.06,1.67-.35,3.35-.56,4.82-.76,1.47-.25,2.89-.35,4.11-.51s2.28-.25,3.19-.3c1.77-.15,2.79-.25,2.79-.25,0,0,1.01.1,2.79.25.86.05,1.98.15,3.19.3,1.22.15,2.64.25,4.11.51,1.52.2,3.14.41,4.82.76,1.72.25,3.5.66,5.32,1.06,1.83.41,3.7.91,5.63,1.42.96.3,1.93.56,2.84.86l2.84.96c1.93.61,3.75,1.42,5.58,2.13,1.83.76,3.6,1.57,5.27,2.38,1.72.76,3.3,1.67,4.82,2.48,1.52.86,2.94,1.67,4.21,2.48,1.27.86,2.48,1.52,3.45,2.28,1.01.71,1.88,1.32,2.64,1.83,1.42,1.06,2.18,1.72,2.18,1.72,0,0,.86.61,2.18,1.72.66.61,1.57,1.22,2.43,2.08s1.98,1.72,3.04,2.84c1.06,1.06,2.28,2.23,3.45,3.55,1.27,1.27,2.38,2.69,3.65,4.16,1.17,1.52,2.48,3.04,3.6,4.77,1.22,1.67,2.33,3.4,3.45,5.17,1.01,1.83,2.18,3.6,3.09,5.42,1.01,1.83,1.83,3.7,2.69,5.53.76,1.83,1.57,3.6,2.18,5.37.66,1.72,1.27,3.4,1.67,4.97.51,1.57.91,3.04,1.27,4.31.35,1.32.66,2.43.86,3.4.46,1.93.71,3.04.71,3.04h4.16s-.2-1.17-.51-3.19c-.1-1.01-.35-2.23-.61-3.6h.41Z"/>
          </g>
          <g>
            <path class="cls-5" d="m334.1,210.46s-1.77-.1-4.41-.1c-2.69.05-6.13.2-9.63.66-1.72.2-3.45.51-5.02.76-1.62.3-3.09.66-4.31.91-2.48.56-4.11,1.12-4.11,1.12,0,0-.35-1.77-.91-4.41-.66-2.59-1.57-6.24-2.79-9.84-.61-1.77-1.22-3.65-1.88-5.32-.66-1.67-1.32-3.24-1.93-4.66-.61-1.37-1.12-2.53-1.47-3.3-.35-.81-.61-1.22-.61-1.22,0,0-1.88.76-4.56,1.93-2.74,1.32-6.13,2.94-9.48,4.97-3.3,1.93-6.44,4.06-8.67,5.73-1.12.81-2.03,1.52-2.69,2.03-.61.51-.96.81-.96.81,0,0-.86-1.47-2.33-3.7-1.47-2.13-3.5-5.07-5.78-7.81-2.28-2.74-4.72-5.48-6.64-7.35-1.93-1.93-3.3-3.19-3.3-3.19v5.32s1.32,1.27,3.14,3.19c1.83,1.88,4.21,4.66,6.34,7.4,2.13,2.79,4.11,5.68,5.42,7.81,1.37,2.23,2.18,3.65,2.18,3.65,0,0,.35-.3.96-.81s1.47-1.22,2.54-2.03c2.13-1.67,5.12-3.85,8.31-5.78,3.19-2.08,6.49-3.75,9.13-5.12,2.59-1.22,4.41-1.98,4.41-1.98,0,0,.2.46.56,1.22s.86,1.88,1.37,3.24c.56,1.37,1.17,2.89,1.77,4.56s1.17,3.5,1.72,5.22c1.12,3.5,1.93,7.05,2.48,9.58.51,2.59.81,4.31.81,4.31,0,0,1.57-.56,4.01-1.22,1.22-.3,2.64-.71,4.21-1.06,1.52-.3,3.19-.61,4.92-.91,3.4-.56,6.79-.81,9.43-.91,2.59-.1,4.36,0,4.36,0l3.35-3.65.05-.05Z"/>
            <path class="cls-5" d="m363.55,287.27c-.91-1.93-2.54-4.36-4.26-6.69-1.83-2.33-3.7-4.46-5.37-5.98-1.62-1.52-2.74-2.43-2.74-2.43,0,0,.15-.35.41-.96s.61-1.47,1.01-2.53c.91-2.18,1.98-5.12,3.09-8.26,1.01-3.14,2.13-6.49,2.79-9.08.35-1.32.66-2.38.86-3.19.2-.76.3-1.22.3-1.22,0,0-1.52-.91-3.8-2.13-2.28-1.22-5.48-2.69-8.72-3.85-1.62-.56-3.3-1.12-4.82-1.57-1.57-.41-3.04-.76-4.31-1.01-2.48-.56-4.21-.76-4.21-.76,0,0,.15-1.57.41-3.95.15-2.33.41-5.68.46-9.08v-5.07c-.1-1.67-.15-3.19-.2-4.51-.15-2.74-.35-4.51-.35-4.51l-3.35,3.65s.2,1.72.25,4.36c0,1.27.1,2.79.15,4.36,0,1.57,0,3.3-.05,4.92-.05,3.24-.35,6.49-.56,8.72-.25,2.28-.46,3.8-.46,3.8,0,0,1.72.15,4.21.61,1.27.2,2.69.51,4.26.86,1.52.41,3.14.86,4.82,1.37,3.24,1.06,6.44,2.33,8.72,3.5,2.28,1.12,3.8,1.98,3.8,1.98,0,0-.1.41-.3,1.17-.2.76-.51,1.77-.86,3.04-.66,2.48-1.72,5.73-2.69,8.72-1.12,3.04-2.13,5.88-2.99,7.96-.41,1.01-.71,1.88-.96,2.43s-.41.91-.41.91c0,0,1.17.86,2.79,2.33,1.67,1.42,3.65,3.5,5.58,5.73,1.77,2.23,3.5,4.61,4.51,6.44,1.06,1.83,1.67,3.14,1.67,3.14h2.84s-.56-1.32-1.57-3.24l.05.05Z"/>
            <path class="cls-5" d="m242.63,188.97c-2.28,2.79-4.31,5.68-5.78,7.81-1.42,2.23-2.33,3.7-2.33,3.7,0,0-.35-.3-.96-.81-.66-.51-1.57-1.22-2.69-2.03-2.23-1.62-5.37-3.8-8.67-5.73-3.3-2.03-6.74-3.65-9.48-4.97-2.69-1.17-4.56-1.93-4.56-1.93,0,0-.2.46-.61,1.22-.41.76-.91,1.93-1.47,3.3-.61,1.37-1.27,2.94-1.93,4.66-.66,1.72-1.27,3.55-1.88,5.32-1.22,3.6-2.13,7.2-2.79,9.84-.56,2.64-.91,4.41-.91,4.41,0,0-1.62-.51-4.11-1.12-1.27-.3-2.74-.61-4.31-.91-1.57-.25-3.3-.51-5.02-.76-3.5-.46-6.95-.61-9.63-.66-2.64,0-4.41.1-4.41.1l3.35,3.65h4.36c2.64.15,6.03.35,9.43.91,1.67.25,3.35.56,4.92.91s2.99.71,4.21,1.06c2.43.66,4.01,1.22,4.01,1.22,0,0,.3-1.72.81-4.31.56-2.53,1.42-6.08,2.48-9.58.56-1.77,1.12-3.55,1.72-5.22.61-1.67,1.22-3.19,1.77-4.56.56-1.37,1.01-2.48,1.37-3.24.35-.76.56-1.22.56-1.22,0,0,1.83.76,4.41,1.98,2.64,1.37,5.93,3.04,9.13,5.12,3.19,1.98,6.19,4.16,8.31,5.78,1.06.81,1.93,1.52,2.54,2.03.61.51.96.81.96.81,0,0,.81-1.47,2.18-3.65,1.37-2.13,3.3-5.02,5.42-7.81,2.13-2.74,4.46-5.53,6.34-7.4,1.83-1.93,3.14-3.19,3.14-3.19v-5.32s-1.37,1.27-3.3,3.19c-1.93,1.88-4.41,4.61-6.64,7.35l.05.05Z"/>
            <path class="cls-5" d="m174.09,227.8c0-1.62-.05-3.35-.05-4.92s.1-3.09.15-4.36c.1-2.64.25-4.36.25-4.36l-3.35-3.65s-.2,1.77-.35,4.51c-.05,1.32-.15,2.84-.2,4.51v5.07c0,3.4.25,6.69.46,9.08.25,2.38.41,3.95.41,3.95,0,0-1.72.2-4.21.76-1.27.25-2.74.61-4.31,1.01-1.52.46-3.19.96-4.82,1.57-3.24,1.17-6.44,2.59-8.72,3.85-2.28,1.22-3.8,2.13-3.8,2.13,0,0,.1.46.3,1.22.2.76.51,1.88.86,3.19.66,2.59,1.77,5.93,2.79,9.08,1.17,3.19,2.18,6.13,3.09,8.26.41,1.06.76,1.93,1.01,2.53.25.61.41.96.41.96,0,0-1.12.91-2.74,2.43-1.62,1.52-3.55,3.65-5.37,5.98-1.72,2.33-3.35,4.77-4.26,6.69-1.01,1.93-1.57,3.24-1.57,3.24h2.84s.61-1.27,1.67-3.14c1.01-1.88,2.74-4.21,4.51-6.44,1.93-2.23,3.85-4.31,5.58-5.73,1.67-1.42,2.79-2.33,2.79-2.33,0,0-.15-.35-.41-.91-.25-.61-.56-1.42-.96-2.43-.86-2.08-1.88-4.92-2.99-7.96-.96-2.99-2.08-6.24-2.69-8.72-.35-1.27-.66-2.33-.86-3.04-.2-.76-.3-1.17-.3-1.17,0,0,1.52-.86,3.8-1.98,2.28-1.17,5.48-2.43,8.72-3.5,1.62-.51,3.3-.96,4.82-1.37,1.57-.35,3.04-.66,4.26-.86,2.48-.46,4.21-.61,4.21-.61,0,0-.2-1.52-.46-3.8-.2-2.28-.51-5.48-.56-8.72l.05-.05Z"/>
          </g>
          <path class="cls-4" d="m163.95,247.07s-2.48.76-4.87,1.72c-2.38.96-4.72,2.13-4.72,2.13,0,0,.15.61.46,1.57.25.91.61,2.13.96,3.35.35,1.17.71,2.38,1.01,3.24.3.86.51,1.42.51,1.42,0,0,.35-.86.86-2.18.61-1.27,1.37-2.99,2.18-4.66.91-1.67,1.72-3.35,2.43-4.56.71-1.22,1.17-2.03,1.17-2.03Z"/>
          <path class="cls-5" d="m142.4,277.44s.35-.46.91-1.22c.56-.71,1.32-1.62,2.18-2.53,1.67-1.77,3.45-3.45,3.45-3.45,0,0-.96-2.28-1.88-4.61-.51-1.22-.91-2.38-1.27-3.3s-.56-1.57-.56-1.57c0,0-.25,1.01-.66,2.59-.35,1.52-.76,3.65-1.17,5.68-.3,2.08-.61,4.16-.81,5.73-.15,1.57-.2,2.64-.2,2.64v.05Z"/>
          <path class="cls-5" d="m154.97,237.08s.66-.2,1.57-.56c.96-.35,2.23-.76,3.55-1.12s2.64-.71,3.6-.91c.96-.25,1.67-.35,1.67-.35,0,0-.25-2.74-.51-5.48-.15-2.74-.25-5.63-.25-5.63,0,0-.66.86-1.67,2.08s-2.23,2.99-3.45,4.72c-1.22,1.77-2.33,3.6-3.19,4.92-.81,1.37-1.32,2.33-1.32,2.33Z"/>
          <g>
            <path class="cls-3" d="m321.52,218.42c-2.79.3-5.48.71-5.48.71,0,0,1.47,1.17,2.94,2.28,1.42,1.17,2.84,2.43,2.84,2.43l5.27-5.78s-2.79.05-5.58.35Z"/>
            <path class="cls-3" d="m256.47,193.83c-1.88-2.18-3.85-4.31-3.85-4.31v8.37s1.88.1,3.75.15c.91,0,1.88.05,2.53.15.71.05,1.17.1,1.17.1,0,0-.46-.56-1.06-1.42-.66-.86-1.57-1.98-2.48-3.04h-.05Z"/>
            <path class="cls-3" d="m356.71,286.57c-.61-.96-1.37-1.88-1.93-2.53s-.91-1.12-.91-1.12c0,0,.05.46.15,1.17s.25,1.67.3,2.59c.15,1.93.35,3.8.35,3.8h4.51s-1.17-2.03-2.43-3.9h-.05Z"/>
            <path class="cls-3" d="m327.2,219.84c-.05-1.06-.1-1.72-.1-1.72l-5.27,5.78s.35.3.86.76,1.17,1.12,1.88,1.72c.66.66,1.37,1.27,1.88,1.77.51.51.81.86.81.86,0,0,0-.66.05-1.67v-3.7c0-1.37,0-2.74-.1-3.8h0Z"/>
            <path class="cls-3" d="m178.09,218.12l5.27,5.78s1.42-1.22,2.84-2.43c1.47-1.17,2.94-2.28,2.94-2.28,0,0-2.69-.46-5.48-.71-2.74-.25-5.58-.35-5.58-.35Z"/>
            <path class="cls-3" d="m246.23,196.88c-.66.86-1.06,1.42-1.06,1.42,0,0,.46,0,1.17-.1.71-.05,1.62-.15,2.54-.15,1.88-.1,3.75-.15,3.75-.15v-8.37s-2.03,2.13-3.85,4.31c-.91,1.06-1.83,2.18-2.48,3.04h-.05Z"/>
            <path class="cls-3" d="m148.48,286.57c-1.32,1.88-2.43,3.9-2.43,3.9h4.51s.15-1.93.35-3.8c.05-.96.2-1.88.3-2.59.1-.71.15-1.17.15-1.17,0,0-.35.46-.91,1.12s-1.27,1.62-1.93,2.53h-.05Z"/>
            <path class="cls-3" d="m177.99,219.84c0,1.06-.05,2.43-.1,3.8v3.7c0,1.01.05,1.67.05,1.67,0,0,.3-.35.81-.86s1.17-1.12,1.88-1.77c.66-.66,1.37-1.27,1.88-1.72s.86-.76.86-.76l-5.27-5.78s0,.71-.1,1.72Z"/>
          </g>
        </g>
        <g>
          <g>
            <path class="cls-1" d="m148.94,310.29c0,1.47-1.22,2.69-2.69,2.69h0c-1.47,0-2.69-1.22-2.69-2.69v-17.09c0-1.47,1.22-2.69,2.69-2.69h0c1.47,0,2.69,1.22,2.69,2.69v17.09Z"/>
            <g>
              <path class="cls-4" d="m146.25,510s19.77-22.71,20.23-69.92c.46-47.15-20.23-108.9-20.23-108.9,0,0-20.69,61.75-20.23,108.9.46,47.2,20.23,69.92,20.23,69.92Z"/>
              <path class="cls-3" d="m126.73,453.57c9.18-14.2,16.98-24.49,19.52-27.78,2.54,3.3,10.34,13.59,19.52,27.78.1-1.22.2-2.43.3-3.65-10.49-16.02-18.86-26.52-18.96-26.67l-.86-1.12-.86,1.12s-8.47,10.65-18.96,26.67c.1,1.22.2,2.43.3,3.65Z"/>
              <path class="cls-12" d="m146.25,317.34s-4.21,13.13-4.31,40.36c-.1,27.23,4.31,62.87,4.31,62.87,0,0,4.41-35.64,4.31-62.87s-4.31-40.36-4.31-40.36Z"/>
              <path class="cls-7" d="m165.11,459.65c-10.09-16.22-18.81-27.18-18.81-27.18,0,0-8.77,11-18.86,27.18,4.56,33.87,18.86,50.35,18.86,50.35,0,0,14.25-16.43,18.81-50.35Z"/>
              <path class="cls-11" d="m126.02,440.08c.46,47.2,20.23,69.92,20.23,69.92v-178.82s-20.69,61.75-20.23,108.9Z"/>
            </g>
            <path class="cls-7" d="m154.31,331.49c0,2.79-2.28,5.07-5.07,5.07h-5.98c-2.79,0-5.07-2.28-5.07-5.07h0c0-2.79,2.28-5.07,5.07-5.07h5.98c2.79,0,5.07,2.28,5.07,5.07h0Z"/>
            <path class="cls-1" d="m160.04,321.35c0,2.79-2.28,5.07-5.07,5.07h-17.44c-2.79,0-5.07-2.28-5.07-5.07h0c0-2.79,2.28-5.07,5.07-5.07h17.44c2.79,0,5.07,2.28,5.07,5.07h0Z"/>
            <path class="cls-7" d="m154.31,311.15c0,2.79-2.28,5.07-5.07,5.07h-5.98c-2.79,0-5.07-2.28-5.07-5.07h0c0-2.79,2.28-5.07,5.07-5.07h5.98c2.79,0,5.07,2.28,5.07,5.07h0Z"/>
          </g>
          <g>
            <path class="cls-1" d="m135.05,306.69c-.46,1.17-1.77,1.72-2.89,1.27h0c-1.17-.46-1.72-1.77-1.27-2.89l5.22-13.18c.46-1.17,1.77-1.72,2.89-1.27h0c1.17.46,1.67,1.72,1.27,2.89l-5.22,13.18Z"/>
            <g>
              <path class="cls-5" d="m71.77,459.71s22.21-11.46,37.01-47.66c14.8-36.2,17.85-90.09,17.85-90.09,0,0-34.83,41.22-48.98,77.67-14.09,36.45-5.88,60.03-5.88,60.03v.05Z"/>
              <path class="cls-8" d="m74,410.27c11.41-8.11,20.58-13.69,23.58-15.41.96,3.3,3.8,13.64,6.49,27.38.46-.86.91-1.77,1.32-2.74-3.14-15.56-6.39-26.21-6.44-26.31l-.35-1.12-1.01.56s-9.79,5.58-22.76,14.7c-.3.96-.61,1.93-.91,2.89l.1.05Z"/>
              <path class="cls-12" d="m130.84,311.31s-7.25,8.82-15.67,29.76-15.97,49.74-15.97,49.74c0,0,14.3-26.11,22.61-47.1,8.26-20.99,9.08-32.4,9.08-32.4h-.05Z"/>
              <path class="cls-1" d="m101.69,426.7c-2.79-15.56-6.19-26.72-6.19-26.72,0,0-10.14,5.78-22.87,15.16-6.9,27.48-.91,44.51-.91,44.51,0,0,16.02-8.26,29.91-32.96h.05Z"/>
              <path class="cls-11" d="m77.6,399.63c-14.09,36.45-5.88,60.03-5.88,60.03l54.81-137.7s-34.83,41.22-48.98,77.67h.05Z"/>
            </g>
            <path class="cls-7" d="m132.71,324.69c-.86,2.18-3.3,3.19-5.48,2.33l-4.61-1.83c-2.18-.86-3.19-3.3-2.33-5.48h0c.86-2.18,3.3-3.19,5.48-2.33l4.61,1.83c2.18.86,3.19,3.3,2.33,5.48h0Z"/>
            <path class="cls-1" d="m140.22,318.61c-.86,2.18-3.3,3.19-5.48,2.33l-13.44-5.32c-2.18-.86-3.19-3.3-2.33-5.48h0c.86-2.18,3.3-3.19,5.48-2.33l13.44,5.32c2.18.86,3.19,3.3,2.33,5.48h0Z"/>
            <path class="cls-7" d="m138.95,309.03c-.86,2.18-3.3,3.19-5.48,2.33l-4.61-1.83c-2.18-.86-3.19-3.3-2.33-5.48h0c.86-2.18,3.3-3.19,5.48-2.33l4.61,1.83c2.18.86,3.19,3.3,2.33,5.48h0Z"/>
          </g>
          <path class="cls-1" d="m162.12,291.08c0,1.57-1.27,2.84-2.84,2.84h-26.06c-1.57,0-2.84-1.27-2.84-2.84h0c0-1.57,1.27-2.84,2.84-2.84h26.06c1.57,0,2.84,1.27,2.84,2.84h0Z"/>
          <g>
            <path class="cls-1" d="m356.25,310.29c0,1.47,1.22,2.69,2.69,2.69h0c1.47,0,2.69-1.22,2.69-2.69v-17.09c0-1.47-1.22-2.69-2.69-2.69h0c-1.47,0-2.69,1.22-2.69,2.69v17.09Z"/>
            <g>
              <path class="cls-4" d="m358.94,510s-19.77-22.71-20.23-69.92c-.46-47.15,20.23-108.9,20.23-108.9,0,0,20.69,61.75,20.23,108.9-.46,47.2-20.23,69.92-20.23,69.92Z"/>
              <path class="cls-3" d="m378.46,453.57c-9.18-14.2-16.98-24.49-19.52-27.78-2.53,3.3-10.34,13.59-19.52,27.78-.1-1.22-.2-2.43-.3-3.65,10.49-16.02,18.86-26.52,18.96-26.67l.86-1.12.86,1.12s8.47,10.65,18.96,26.67c-.1,1.22-.2,2.43-.3,3.65Z"/>
              <path class="cls-12" d="m358.94,317.34s4.21,13.13,4.31,40.36c.1,27.23-4.31,62.87-4.31,62.87,0,0-4.41-35.64-4.31-62.87.1-27.23,4.31-40.36,4.31-40.36Z"/>
              <path class="cls-7" d="m340.08,459.65c10.09-16.22,18.81-27.18,18.81-27.18,0,0,8.77,11,18.86,27.18-4.56,33.87-18.86,50.35-18.86,50.35,0,0-14.25-16.43-18.81-50.35Z"/>
              <path class="cls-11" d="m379.17,440.08c-.46,47.2-20.23,69.92-20.23,69.92v-178.82s20.69,61.75,20.23,108.9Z"/>
            </g>
            <path class="cls-7" d="m350.88,331.49c0,2.79,2.28,5.07,5.07,5.07h5.98c2.79,0,5.07-2.28,5.07-5.07h0c0-2.79-2.28-5.07-5.07-5.07h-5.98c-2.79,0-5.07,2.28-5.07,5.07h0Z"/>
            <path class="cls-1" d="m345.15,321.35c0,2.79,2.28,5.07,5.07,5.07h17.44c2.79,0,5.07-2.28,5.07-5.07h0c0-2.79-2.28-5.07-5.07-5.07h-17.44c-2.79,0-5.07,2.28-5.07,5.07h0Z"/>
            <path class="cls-7" d="m350.88,311.15c0,2.79,2.28,5.07,5.07,5.07h5.98c2.79,0,5.07-2.28,5.07-5.07h0c0-2.79-2.28-5.07-5.07-5.07h-5.98c-2.79,0-5.07,2.28-5.07,5.07h0Z"/>
          </g>
          <g>
            <path class="cls-1" d="m370.09,306.69c.46,1.17,1.77,1.72,2.89,1.27h0c1.17-.46,1.72-1.77,1.27-2.89l-5.22-13.18c-.46-1.17-1.77-1.72-2.89-1.27h0c-1.17.46-1.67,1.72-1.27,2.89l5.22,13.18Z"/>
            <g>
              <path class="cls-5" d="m433.42,459.71s-22.21-11.46-37.01-47.66c-14.8-36.2-17.85-90.09-17.85-90.09,0,0,34.83,41.22,48.98,77.67,14.09,36.45,5.88,60.03,5.88,60.03v.05Z"/>
              <path class="cls-8" d="m431.14,410.27c-11.41-8.11-20.58-13.69-23.58-15.41-.96,3.3-3.8,13.64-6.49,27.38-.46-.86-.91-1.77-1.32-2.74,3.14-15.56,6.39-26.21,6.44-26.31l.35-1.12,1.01.56s9.79,5.58,22.76,14.7c.3.96.61,1.93.91,2.89l-.1.05Z"/>
              <path class="cls-12" d="m374.35,311.31s7.25,8.82,15.67,29.76c8.42,20.94,15.97,49.74,15.97,49.74,0,0-14.3-26.11-22.61-47.1-8.26-20.99-9.08-32.4-9.08-32.4h.05Z"/>
              <path class="cls-1" d="m403.5,426.7c2.79-15.56,6.19-26.72,6.19-26.72,0,0,10.14,5.78,22.87,15.16,6.9,27.48.91,44.51.91,44.51,0,0-16.02-8.26-29.91-32.96h-.05Z"/>
              <path class="cls-11" d="m427.54,399.63c14.09,36.45,5.88,60.03,5.88,60.03l-54.81-137.7s34.83,41.22,48.98,77.67h-.05Z"/>
            </g>
            <path class="cls-7" d="m372.48,324.69c.86,2.18,3.3,3.19,5.48,2.33l4.61-1.83c2.18-.86,3.19-3.3,2.33-5.48h0c-.86-2.18-3.3-3.19-5.48-2.33l-4.61,1.83c-2.18.86-3.19,3.3-2.33,5.48h0Z"/>
            <path class="cls-1" d="m364.97,318.61c.86,2.18,3.3,3.19,5.48,2.33l13.44-5.32c2.18-.86,3.19-3.3,2.33-5.48h0c-.86-2.18-3.3-3.19-5.48-2.33l-13.44,5.32c-2.18.86-3.19,3.3-2.33,5.48h0Z"/>
            <path class="cls-7" d="m366.24,309.03c.86,2.18,3.3,3.19,5.48,2.33l4.61-1.83c2.18-.86,3.19-3.3,2.33-5.48h0c-.86-2.18-3.3-3.19-5.48-2.33l-4.61,1.83c-2.18.86-3.19,3.3-2.33,5.48h0Z"/>
          </g>
          <path class="cls-1" d="m343.07,291.08c0,1.57,1.27,2.84,2.84,2.84h26.06c1.57,0,2.84-1.27,2.84-2.84h0c0-1.57-1.27-2.84-2.84-2.84h-26.06c-1.57,0-2.84,1.27-2.84,2.84h0Z"/>
        </g>
      </g>
    </g>
  </g>
</svg>