<?xml version="1.0" encoding="UTF-8"?>
<svg xmlns="http://www.w3.org/2000/svg" viewBox="0 0 500 575">
  <defs>
    <style>
      .cls-1 {
        fill: #5c608c;
      }

      .cls-1, .cls-2, .cls-3, .cls-4, .cls-5, .cls-6, .cls-7, .cls-8, .cls-9 {
        stroke-width: 0px;
      }

      .cls-2 {
        fill: #262626;
      }

      .cls-3 {
        fill: #8486d0;
      }

      .cls-4 {
        fill: #241816;
      }

      .cls-5 {
        fill: #9e9ceb;
      }

      .cls-6 {
        fill: #fff;
      }

      .cls-7 {
        fill: #5da0ff;
      }

      .cls-8 {
        fill: #e7d8b4;
      }

      .cls-9 {
        fill: #cf9e76;
      }

      .cls-10 {
        fill: #fcd770;
        stroke: #000;
        stroke-miterlimit: 10;
      }
    </style>
  </defs>
  <g id="Capa_1" data-name="Capa 1">
    <g>
      <path class="cls-8" d="m250,573c-66.51,0-129.04-25.9-176.07-72.93C26.9,453.04,1,390.51,1,324s25.9-129.04,72.93-176.07c47.03-47.03,109.56-72.93,176.07-72.93s129.04,25.9,176.07,72.93c47.03,47.03,72.93,109.56,72.93,176.07s-25.9,129.04-72.93,176.07c-47.03,47.03-109.56,72.93-176.07,72.93Z"/>
      <path class="cls-4" d="m250,76c33.48,0,65.96,6.56,96.53,19.49,29.53,12.49,56.05,30.37,78.83,53.15,22.78,22.78,40.66,49.3,53.15,78.83,12.93,30.57,19.49,63.05,19.49,96.53s-6.56,65.96-19.49,96.53c-12.49,29.53-30.37,56.05-53.15,78.83-22.78,22.78-49.3,40.66-78.83,53.15-30.57,12.93-63.05,19.49-96.53,19.49s-65.96-6.56-96.53-19.49c-29.53-12.49-56.05-30.37-78.83-53.15-22.78-22.78-40.66-49.3-53.15-78.83-12.93-30.57-19.49-63.05-19.49-96.53s6.56-65.96,19.49-96.53c12.49-29.53,30.37-56.05,53.15-78.83s49.3-40.66,78.83-53.15c30.57-12.93,63.05-19.49,96.53-19.49m0-2C111.93,74,0,185.93,0,324s111.93,250,250,250,250-111.93,250-250-111.93-250-250-250h0Z"/>
    </g>
  </g>
  <g id="Capa_2" data-name="Capa 2">
    <g>
      <path class="cls-3" d="m69.3,549.89c-2.01,0-3.64-1.63-3.64-3.64,0-1.07.47-2.09,1.29-2.79l25.8-21.85-40.57,23.39c-1.74,1.01-3.97.41-4.97-1.33-.93-1.61-.5-3.66,1-4.76l22.39-16.46-22.45,12.96c-1.75.99-3.97.38-4.97-1.36-.66-1.16-.63-2.6.08-3.73l6.15-9.57c-1.93.56-3.95-.56-4.51-2.49-.46-1.6.22-3.31,1.66-4.15l12.08-6.98c1.75-.99,3.97-.37,4.96,1.38.65,1.16.62,2.59-.08,3.72l-6.02,9.4,66.65-38.48c1.74-1.01,3.97-.41,4.97,1.33.93,1.61.5,3.66-1,4.76l-22.4,16.44,18.42-10.63c1.74-1.01,3.97-.42,4.98,1.32.89,1.53.55,3.48-.8,4.62l-25.8,21.85,21.63-12.48c1.75-1,3.97-.39,4.97,1.36.78,1.36.59,3.07-.45,4.23l-14.04,15.48,5.96-3.43c1.7-1.08,3.95-.58,5.03,1.12,1.08,1.7.58,3.95-1.12,5.03-.09.05-.17.11-.27.15l-26.1,15.09c-1.74,1-3.97.41-4.97-1.34-.79-1.37-.61-3.08.45-4.26l14.04-15.48-36.51,21.07c-.55.33-1.18.51-1.82.51Z"/>
      <path class="cls-3" d="m89.98,506.21c-2.01,0-3.64-1.63-3.64-3.64,0-1.1.49-2.13,1.34-2.82l2.48-2.02c-1.24.03-2.42-.55-3.16-1.54-1.08-1.55-.81-3.67.64-4.88l4.21-3.54h-.05c-1.77.95-3.98.29-4.93-1.48-.74-1.38-.52-3.09.56-4.23l17.01-17.24-12.61,7.28c-1.75,1-3.97.39-4.97-1.36-.8-1.41-.58-3.17.55-4.34l17.48-17.94-13.11,7.55c-1.75,1-3.97.39-4.97-1.36-.8-1.4-.58-3.16.54-4.33l17.63-18.1-13.18,7.63c-1.75.98-3.97.36-4.96-1.4-.84-1.5-.51-3.39.78-4.52l5.2-4.42-1.03.59c-1.74,1-3.97.4-4.97-1.34-.77-1.35-.61-3.03.41-4.2l9.72-11.09-5.16,2.98c-1.75,1-3.97.39-4.97-1.36-.7-1.22-.63-2.73.17-3.88l4.06-5.75c-1.06.32-2.22.15-3.14-.47-1.15-.79-1.75-2.17-1.54-3.55l1.31-8.67c-.35-.29-.64-.63-.87-1.02-1.01-1.74-.42-3.97,1.32-4.98,0,0,0,0,0,0l2-1.15c1.74-1,3.97-.41,4.97,1.34.41.72.57,1.55.44,2.37l-.87,5.72,6.93-4c1.74-1,3.97-.4,4.97,1.35.7,1.23.63,2.75-.18,3.9l-3.93,5.57,9.92-5.73c1.74-1.01,3.97-.42,4.98,1.32.78,1.35.62,3.06-.42,4.23l-9.75,11.09,16.88-9.74c1.75-.98,3.97-.36,4.96,1.4.84,1.5.51,3.39-.78,4.52l-5.2,4.42,1.03-.59c1.75-1,3.97-.39,4.97,1.36.8,1.4.58,3.16-.54,4.33l-17.63,18.09,13.2-7.61c1.75-1,3.97-.39,4.97,1.36.8,1.41.58,3.17-.55,4.34l-17.48,17.92,13.11-7.55c1.77-.95,3.98-.29,4.93,1.48.74,1.38.52,3.09-.56,4.23l-17.01,17.25,12.61-7.28c1.75-.99,3.97-.36,4.96,1.39.85,1.51.52,3.42-.8,4.55l-4.21,3.53h.05c1.74-1,3.97-.4,4.97,1.35.89,1.55.52,3.5-.86,4.63l-2.48,2.02c2.01-.1,3.72,1.45,3.81,3.46.07,1.36-.63,2.64-1.81,3.33l-35.97,20.76c-.55.32-1.18.5-1.82.5Z"/>
      <path class="cls-3" d="m175.52,549.89c-2.01,0-3.64-1.63-3.64-3.64,0-1.09.49-2.12,1.33-2.81l25.97-21.43-38.45,22.19c-1.75,1-3.97.39-4.97-1.35-.84-1.47-.56-3.32.68-4.48l9.42-8.74-8.51,4.91c-1.74,1-3.97.4-4.97-1.34-.69-1.2-.64-2.68.13-3.83l5.72-8.55c-1.98.33-3.86-1.01-4.19-3-.25-1.49.45-2.98,1.76-3.74l12.08-6.97c1.74-1,3.97-.4,4.97,1.34.69,1.2.64,2.68-.13,3.83l-5.44,8.12,23.18-13.38c1.75-1,3.97-.39,4.97,1.35.84,1.47.56,3.32-.68,4.48l-9.42,8.74,48.07-27.75c1.74-1.01,3.97-.41,4.98,1.33.89,1.54.54,3.51-.84,4.64l-25.97,21.43,21.85-12.6c1.75-.99,3.97-.38,4.97,1.36.85,1.49.54,3.36-.73,4.51l-12,10.62,6.87-3.96c1.75-.99,3.97-.38,4.97,1.37.99,1.73.4,3.93-1.32,4.94l-37.98,21.91c-1.76.97-3.98.33-4.95-1.44-.8-1.45-.52-3.25.68-4.39l11.97-10.62-28.54,16.45c-.55.33-1.18.51-1.82.51Z"/>
      <path class="cls-3" d="m199.23,502.04c-2.01,0-3.65-1.62-3.65-3.63,0-1.03.43-2.01,1.18-2.7l11.76-10.82-7.47,4.31c-1.76.98-3.97.35-4.95-1.41-.81-1.45-.53-3.27.68-4.42l11.04-10.05-6.77,3.9c-1.75.99-3.97.36-4.96-1.39-.84-1.49-.53-3.36.74-4.5l8.06-7.06-3.84,2.18c-1.64,1.17-3.92.78-5.09-.86s-.78-3.92.86-5.09l6.78-5.83-2.59,1.46c-1.74,1-3.97.41-4.97-1.34-.83-1.44-.58-3.26.6-4.42l15.6-15.35-11.23,6.48c-1.72,1.04-3.96.5-5-1.22-.91-1.5-.62-3.44.68-4.61l13.24-12.48-8.92,5.15c-1.75,1-3.97.4-4.97-1.35-.79-1.38-.59-3.12.49-4.29l5.59-5.99-1.11.64c-1.74,1-3.97.41-4.97-1.34-.48-.83-.61-1.82-.37-2.75l1.87-6.99c-.64-.32-1.16-.83-1.5-1.46-1-1.74-.41-3.96,1.33-4.97l3.53-2.05c1.74-1.01,3.97-.41,4.97,1.33.48.84.61,1.83.36,2.76l-1.27,4.73,14.69-8.48c1.74-1.01,3.97-.41,4.98,1.33.81,1.39.6,3.15-.5,4.32l-5.59,5.98,14.8-8.54c1.73-1.03,3.96-.47,4.99,1.25.89,1.49.61,3.41-.68,4.57l-13.25,12.49,8.94-5.16c1.75-1,3.97-.38,4.97,1.36.81,1.43.57,3.22-.6,4.38l-15.6,15.35,11.23-6.47c1.75-.99,3.97-.37,4.96,1.38.85,1.5.53,3.39-.77,4.53l-6.75,5.83,2.56-1.46c1.75-.99,3.97-.36,4.96,1.39.84,1.49.53,3.36-.74,4.5l-8.06,7.06,3.84-2.18c1.76-.98,3.97-.35,4.95,1.41.81,1.45.53,3.27-.68,4.42l-11.06,10.07,6.78-3.91c1.75-1,3.97-.39,4.97,1.35.84,1.47.56,3.32-.68,4.48l-11.69,10.84,7.46-4.3c1.75-.99,3.97-.38,4.97,1.37.99,1.73.4,3.93-1.32,4.94l-35.98,20.77c-.56.34-1.2.53-1.85.53Z"/>
      <path class="cls-3" d="m422.29,549.89c-2.01,0-3.64-1.63-3.64-3.64,0-.87.31-1.7.87-2.36l13.43-15.78-35.29,20.39c-1.75.99-3.97.38-4.96-1.37-.87-1.53-.52-3.46.83-4.59l8.79-7.25-14.65,8.44c-1.74,1-3.97.4-4.97-1.34-.87-1.51-.55-3.42.77-4.56l6-5.18-8.12,4.68c-1.75,1-3.97.39-4.97-1.35-.86-1.5-.54-3.4.75-4.54l3.59-3.14-3.13,1.81c-1.76.98-3.98.34-4.95-1.41-.78-1.41-.55-3.17.58-4.32l14.57-14.5-11.87,6.85c-1.75.99-3.97.38-4.97-1.36-.87-1.53-.52-3.47.84-4.6l2.91-2.37c-1.99.32-3.85-1.03-4.17-3.02-.2-1.22.24-2.46,1.16-3.29l9.89-8.86-5.64,3.26c-1.74,1-3.97.4-4.97-1.34-.87-1.51-.55-3.42.77-4.56l7.12-6.16-2.91,1.68c-1.75.99-3.97.36-4.96-1.39-.85-1.51-.52-3.42.8-4.55l4.01-3.36c-1.58.8-3.51.36-4.59-1.06-1.1-1.48-.93-3.54.41-4.81l13.86-13.3-9.64,5.56c-1.74,1.01-3.97.41-4.97-1.33-.81-1.41-.59-3.19.55-4.36l17.71-18.21-13.26,7.6c-1.74,1-3.97.41-4.97-1.34-.83-1.44-.58-3.26.6-4.42l15.29-14.93-10.92,6.3c-1.72,1.04-3.96.5-5-1.22-.91-1.5-.62-3.44.68-4.61l13.62-12.93-9.3,5.37c-1.74,1.01-3.97.43-4.98-1.31-.84-1.43-.6-3.25.57-4.42l2.72-2.73c-1.34,0-2.58-.68-3.28-1.82-1-1.74-.41-3.96,1.33-4.97l20.75-11.98c1.74-1,3.97-.41,4.97,1.34.82,1.42.59,3.22-.57,4.38l-1.57,1.59,12.38-7.15c1.75-.99,3.97-.37,4.96,1.39.81,1.44.55,3.25-.64,4.4l-13.62,12.92,9.3-5.36c1.74-1,3.97-.41,4.97,1.34.83,1.44.58,3.26-.6,4.42l-15.29,14.92,10.92-6.29c1.74-1.01,3.97-.41,4.97,1.33.81,1.41.59,3.19-.55,4.36l-17.71,18.21,13.28-7.67c1.75-.99,3.97-.37,4.96,1.39.81,1.44.55,3.24-.63,4.4l-13.93,13.42,9.61-5.59c1.74-1,3.97-.4,4.97,1.35.87,1.53.53,3.46-.81,4.59l-3.99,3.35c1.8-.9,3.99-.18,4.89,1.61.75,1.48.4,3.29-.86,4.38l-7.12,6.16,2.91-1.68c1.77-.95,3.98-.29,4.93,1.49.77,1.44.49,3.21-.68,4.34l-9.89,8.86,5.64-3.25c1.74-1.01,3.97-.42,4.98,1.32.9,1.55.54,3.52-.85,4.65l-2.91,2.38c1.33-.24,2.67.3,3.47,1.38,1.11,1.45.97,3.5-.32,4.79l-14.57,14.5,11.23-6.49c1.75-1,3.97-.39,4.97,1.35.86,1.5.54,3.4-.75,4.54l-3.64,3.15,9.32-5.25c1.75-.99,3.97-.37,4.96,1.38.85,1.5.53,3.38-.76,4.52l-5.99,5.19,19.2-11.09c1.74-1.01,3.97-.41,4.97,1.33.89,1.54.54,3.49-.83,4.62l-8.79,7.28,15.72-9.07c1.74-1.01,3.97-.41,4.98,1.33.77,1.33.62,3.01-.38,4.18l-13.44,15.77,13.11-7.58c1.75-.99,3.97-.38,4.97,1.37.72,1.28.61,2.86-.28,4.02l-4.18,5.35c1.96.43,3.21,2.37,2.78,4.34-.22,1-.85,1.86-1.73,2.37l-12.08,6.97c-1.75.99-3.97.38-4.97-1.37-.72-1.28-.61-2.86.28-4.02l2.61-3.36-15.18,8.74c-.55.31-1.16.47-1.79.47Z"/>
      <path class="cls-3" d="m293.85,549.89c-2.01,0-3.64-1.63-3.64-3.64,0-1.02.43-2,1.18-2.68l14.29-13.05-25.29,14.57c-1.78.94-3.98.25-4.92-1.52-.77-1.46-.46-3.25.75-4.37l5.16-4.3-7.75,4.48c-1.74,1-3.97.4-4.97-1.35-.87-1.53-.53-3.46.81-4.59l.41-.35-.3.17c-1.74,1-3.97.4-4.97-1.35-.79-1.38-.6-3.11.48-4.28l16.5-17.76-15.03,8.67c-1.75.99-3.97.37-4.96-1.38-.86-1.52-.52-3.43.81-4.56l3.69-3.08c-1.87.75-3.99-.17-4.73-2.03-.57-1.44-.17-3.08,1-4.1l7.24-6.28-3.04,1.75c-1.73,1.02-3.97.44-4.99-1.29-.87-1.48-.59-3.38.68-4.54l12.49-11.64-8.19,4.72c-1.73,1.02-3.97.44-4.99-1.29-.87-1.48-.59-3.38.68-4.54l12.6-11.73-8.27,4.76c-1.75,1-3.97.39-4.97-1.36-.8-1.41-.58-3.19.56-4.35l16.88-17.05-12.47,7.2c-1.75.99-3.97.37-4.96-1.38-.85-1.5-.53-3.39.77-4.53l6.45-5.54-2.25,1.3c-1.74,1.01-3.97.42-4.98-1.32-.87-1.5-.56-3.41.75-4.56l8.82-7.79-4.59,2.64c-1.75.99-3.97.37-4.96-1.38-.86-1.52-.52-3.43.81-4.56l3.78-3.16c-1.84.81-3.99-.03-4.8-1.87-.63-1.44-.27-3.12.89-4.17l2.3-2.08c-2.01-.08-3.57-1.78-3.49-3.79.01-.28.05-.55.13-.82l2.05-7.41c-1.84-.81-2.68-2.96-1.87-4.8.31-.71.84-1.3,1.52-1.69l3.85-2.18c1.28-.74,2.87-.63,4.04.27,1.17.9,1.68,2.43,1.29,3.85l-1.46,5.38,17.57-10.15c1.76-.98,3.97-.35,4.95,1.41.81,1.45.53,3.27-.68,4.42l-.34.3,6.77-3.9c1.75-.99,3.97-.37,4.96,1.38.86,1.52.52,3.43-.81,4.56l-3.77,3.15c1.86-.76,3.99.13,4.75,1.99.58,1.42.21,3.06-.94,4.09l-8.82,7.79,4.59-2.64c1.74-1,3.97-.4,4.97,1.34.87,1.51.55,3.44-.78,4.58l-6.45,5.54,2.25-1.29c1.75-1,3.97-.39,4.97,1.36.8,1.41.58,3.19-.56,4.35l-16.88,17.05,12.47-7.2c1.73-1.02,3.97-.44,4.99,1.29.87,1.48.59,3.38-.68,4.54l-12.57,11.7,8.27-4.76c1.73-1.02,3.97-.44,4.99,1.29.87,1.48.59,3.38-.68,4.54l-12.51,11.65,8.2-4.73c1.74-1,3.97-.4,4.97,1.34.87,1.51.55,3.42-.77,4.56l-7.24,6.28,3.04-1.75c1.75-.99,3.97-.37,4.96,1.38.86,1.52.52,3.43-.81,4.56l-3.68,3.07c1.49-.59,3.2-.14,4.2,1.12,1.12,1.41,1.05,3.42-.17,4.74l-16.5,17.76,15.51-8.94c1.75-1,3.97-.39,4.97,1.36.87,1.52.53,3.45-.8,4.58l-.41.34,8.74-5.03c1.75-.99,3.97-.37,4.96,1.38.86,1.52.52,3.44-.82,4.57l-5.18,4.31,17.25-9.96c1.76-.98,3.97-.35,4.95,1.41.81,1.45.53,3.27-.68,4.42l-14.34,13.06,19.91-11.49c1.75-1,3.97-.39,4.97,1.35.75,1.31.61,2.95-.34,4.12l-10.49,12.67,7.51-4.33c1.78-.93,3.98-.24,4.91,1.54.88,1.68.32,3.75-1.27,4.76l-25.05,14.44c-1.75,1-3.97.39-4.97-1.35-.75-1.31-.61-2.95.34-4.12l10.49-12.67-31.43,18.14c-.55.33-1.18.5-1.82.51Z"/>
      <path class="cls-3" d="m348.9,181.73c-2.01.02-3.66-1.59-3.69-3.6-.01-1.16.53-2.26,1.46-2.96l8.01-6.21-11.38,6.55c-1.77.96-3.98.31-4.94-1.46-.76-1.39-.53-3.11.57-4.26l11.97-12.02-1.18.67c-1.78.93-3.98.24-4.91-1.54-.88-1.68-.32-3.75,1.27-4.76l24.94-14.35c1.74-1,3.97-.41,4.97,1.34.82,1.42.59,3.22-.57,4.38l-11.97,12.02,34.67-20.01c1.75-1,3.97-.39,4.97,1.36.9,1.57.5,3.56-.92,4.67l-8.01,6.21,10.76-6.21c1.39-.82,3.15-.61,4.31.5,1.16,1.11,1.46,2.85.73,4.28l-5.97,11.97,1.01-.58c1.7-1.08,3.95-.58,5.03,1.12,1.08,1.7.58,3.95-1.12,5.03-.09.05-.18.11-.27.15l-11.49,6.62c-1.73,1.02-3.97.44-4.99-1.29-.63-1.07-.67-2.38-.11-3.49l5.99-11.97-47.34,27.32c-.55.32-1.17.5-1.8.51Z"/>
      <path class="cls-5" d="m430.24,185.62c-2.01,0-3.64-1.63-3.64-3.64,0-.93.36-1.83,1-2.51l13.28-14.01-24.25,14c-1.74,1.01-3.97.43-4.98-1.31-.92-1.57-.54-3.58.9-4.7l4.58-3.64-6.42,3.7c-1.74,1-3.97.4-4.97-1.35-.87-1.53-.53-3.46.81-4.59l12.38-10.39-12.72,7.37c-1.74,1.01-3.97.43-4.98-1.31-.89-1.52-.56-3.45.77-4.6l11.09-9.62-7.94,4.58c-1.74,1.01-3.97.42-4.98-1.32-.8-1.39-.61-3.13.48-4.31l8.91-9.62c-2.01-.15-3.51-1.9-3.36-3.9.09-1.2.77-2.28,1.82-2.88l17.31-9.99c1.74-1.01,3.97-.42,4.98,1.32.8,1.39.61,3.13-.48,4.31l-7.46,8.05,19.91-11.49c1.74-1,3.97-.4,4.97,1.35.86,1.5.54,3.41-.76,4.55l-11.07,9.62,15.8-9.12c1.75-.99,3.97-.36,4.96,1.39.85,1.51.52,3.42-.8,4.55l-12.37,10.4,13.79-7.96c1.75-1,3.97-.4,4.97,1.35.89,1.56.52,3.54-.89,4.66l-4.57,3.64,2.64-1.52c1.74-1.01,3.97-.41,4.98,1.33.81,1.39.6,3.15-.5,4.32l-13.29,13.97,6.08-3.52c1.75-.99,3.97-.38,4.97,1.37.98,1.73.39,3.93-1.32,4.94l-27.76,16.06c-.56.33-1.19.49-1.84.49Z"/>
      <path class="cls-3" d="m144.3,183.63c-2.01,0-3.64-1.63-3.64-3.64,0-.79.26-1.55.73-2.18l2.56-3.34-9.3,5.37c-1.75.99-3.97.38-4.97-1.37-.78-1.37-.59-3.08.46-4.24l3.36-3.64-6.28,3.64c-1.74,1-3.97.4-4.97-1.34-.77-1.34-.61-3.02.4-4.2l4.83-5.56-13.33,7.68c-1.75,1-3.97.39-4.97-1.36-.8-1.41-.58-3.18.55-4.34l4.37-4.44-17.8,10.22c-1.74,1-3.97.4-4.97-1.34-.72-1.25-.63-2.81.22-3.98l10.8-14.68-7.22,4.16c-1.74,1-3.97.4-4.97-1.34-.49-.84-.61-1.85-.35-2.79l1.88-6.73c-1.8-.9-2.54-3.08-1.64-4.88.32-.64.82-1.18,1.44-1.53l3.64-2.1c1.74-1.01,3.97-.41,4.98,1.33.49.85.62,1.86.36,2.8l-1.25,4.48,14.57-8.43c1.74-1,3.97-.4,4.97,1.34.72,1.25.63,2.81-.22,3.98l-10.79,14.68,25.94-14.97c1.74-1,3.97-.41,4.97,1.34.82,1.42.59,3.2-.55,4.37l-4.37,4.44,8.86-5.13c1.74-1,3.97-.4,4.97,1.34.77,1.34.61,3.02-.4,4.2l-4.83,5.57,8.09-4.66c1.75-.99,3.97-.38,4.97,1.37.78,1.37.59,3.08-.46,4.24l-3.35,3.64,4.61-2.66c1.74-1.01,3.97-.41,4.97,1.33.74,1.27.63,2.87-.26,4.04l-2.72,3.55c1.93-.58,3.96.52,4.53,2.45.48,1.61-.2,3.34-1.65,4.19l-14.95,8.66c-.55.33-1.18.5-1.82.5Z"/>
      <path class="cls-5" d="m238.54,418.76c-2.01,0-3.65-1.62-3.65-3.63,0-1.24.63-2.4,1.68-3.08l68.9-44.24-86.84,50.14c-1.75.99-3.97.37-4.96-1.39-.95-1.69-.41-3.83,1.22-4.86l22.23-13.81-33.86,19.54c-1.77.96-3.98.3-4.94-1.46-.89-1.64-.4-3.69,1.14-4.74l108.72-70.23-129.85,74.97c-1.77.95-3.98.28-4.93-1.5-.88-1.65-.37-3.71,1.19-4.75l49.2-30.44-60.82,35.11c-1.76.97-3.98.34-4.95-1.42-.93-1.68-.39-3.8,1.23-4.83l26.95-16.51-36.22,20.91c-1.75,1-3.97.39-4.97-1.35-.96-1.68-.44-3.83,1.2-4.87l122.66-77.69-138.27,79.82c-1.75.99-3.97.37-4.96-1.39-.95-1.69-.41-3.83,1.22-4.86l98.91-61.54-109.55,63.25c-1.73,1.03-3.96.46-4.99-1.26-1.03-1.73-.46-3.96,1.26-4.99l67.64-41.55-74.61,43.07c-1.77.96-3.98.3-4.94-1.47-.9-1.66-.38-3.72,1.19-4.77l116.87-72.9-124.82,72.1c-1.75.98-3.97.36-4.96-1.4-.94-1.68-.41-3.79,1.2-4.84l140.29-88.41-147.18,84.98c-1.76.97-3.98.33-4.95-1.44-.91-1.66-.4-3.74,1.18-4.79l136.2-85.64-140.44,81.06c-1.74,1-3.97.41-4.97-1.34-.98-1.7-.44-3.87,1.22-4.91l117.25-73.15-118.84,68.6c-1.72,1.04-3.96.49-5-1.23s-.49-3.96,1.23-5l131-82.62-131.22,75.76c-1.73,1.03-3.96.47-5-1.25-1.03-1.73-.47-3.96,1.25-5l88.08-54.68-86.33,49.85c-1.77.96-3.98.3-4.94-1.47-.9-1.66-.38-3.72,1.19-4.77l100.87-63.31-98.19,56.67c-1.73,1.03-3.96.47-5-1.25-1.03-1.73-.47-3.96,1.25-5h0l56.18-34.78-52.5,30.3c-1.75,1-3.97.39-4.97-1.35-.96-1.68-.44-3.83,1.2-4.87l92.08-58.39-87.52,50.54c-1.77.96-3.98.3-4.94-1.46-.89-1.64-.4-3.69,1.14-4.74l98.8-64.03-92.59,53.44c-1.75.98-3.97.36-4.96-1.4-.94-1.68-.41-3.79,1.2-4.84l44.01-27.8-37.3,21.54c-1.74,1-3.97.41-4.97-1.34-.98-1.7-.44-3.87,1.22-4.91l6.71-4.2c-1.88.72-3.98-.21-4.71-2.09-.61-1.59-.04-3.39,1.37-4.33l60.61-40.63-48.41,27.95c-1.77.96-3.98.31-4.94-1.46-.88-1.61-.42-3.62,1.07-4.69l34.03-23.18-17.95,10.36c-1.75,1-3.97.4-4.97-1.35-.92-1.6-.49-3.63.99-4.73l24.45-18.08c-.7-.31-1.29-.84-1.67-1.51-1-1.74-.41-3.96,1.33-4.97l41.84-24.16c1.75-1,3.97-.4,4.97,1.35.92,1.6.49,3.63-.99,4.73l-13.77,10.16,47.19-27.24c1.77-.96,3.98-.31,4.94,1.46.88,1.61.42,3.62-1.07,4.69l-34.04,23.2,57.59-33.25c1.75-.98,3.97-.36,4.96,1.4.92,1.64.44,3.71-1.11,4.78l-60.6,40.6,83.27-48.07c1.73-1.04,3.97-.48,5,1.25,1.04,1.73.48,3.97-1.25,5h0l-5.65,3.54,16.54-9.55c1.76-.97,3.98-.33,4.95,1.44.91,1.66.4,3.74-1.18,4.79l-44.01,27.81,56.98-32.9c1.75-.99,3.97-.38,4.97,1.36.95,1.67.44,3.8-1.17,4.85l-98.83,64.04,116.63-67.33c1.76-.97,3.98-.33,4.95,1.44.91,1.66.4,3.74-1.18,4.79l-92.12,58.42,105.52-60.93c1.73-1.03,3.96-.47,5,1.25s.47,3.96-1.25,5l-56.12,34.75,64.82-37.41c1.72-1.04,3.96-.48,5,1.24,1.04,1.72.48,3.96-1.24,5h0l-100.84,63.27,111.3-64.26c1.73-1.03,3.96-.47,5,1.25s.47,3.96-1.25,5l-88.05,54.69,96.2-55.56c1.72-1.04,3.96-.49,5,1.23s.49,3.96-1.23,5h0l-131.06,82.64,140.8-81.24c1.76-.97,3.98-.33,4.95,1.43.92,1.67.4,3.77-1.2,4.81l-117.09,73.06,124.33-71.8c1.72-1.04,3.96-.49,5,1.23,1.04,1.72.49,3.96-1.23,5h0l-136.31,85.7,143.48-82.85c1.76-.97,3.98-.33,4.95,1.44.91,1.66.4,3.74-1.18,4.79l-140.28,88.38,146.46-84.55c1.76-.97,3.98-.33,4.95,1.43.92,1.67.4,3.77-1.2,4.81l-116.79,72.83,120.69-69.69c1.73-1.03,3.96-.46,4.99,1.26,1.03,1.73.46,3.96-1.26,4.99l-67.79,41.65,69.48-40.11c1.77-.95,3.98-.28,4.93,1.5.88,1.65.37,3.71-1.19,4.75l-98.92,61.56,100.87-58.27c1.72-1.04,3.96-.49,5,1.23,1.04,1.72.49,3.96-1.23,5h0l-122.58,77.7,124.54-71.92c1.76-.97,3.98-.34,4.95,1.42.93,1.68.39,3.8-1.23,4.83l-27.03,16.57,26.29-15.18c1.77-.95,3.98-.28,4.93,1.5.88,1.65.37,3.71-1.19,4.75l-49.08,30.37,48.19-27.84c1.77-.96,3.98-.3,4.94,1.46.89,1.64.4,3.69-1.14,4.74l-108.75,70.27,108.34-62.55c1.77-.95,3.98-.28,4.93,1.5.88,1.65.37,3.71-1.19,4.75l-22.18,13.76,19.91-11.49c1.76-.97,3.98-.33,4.95,1.44.91,1.65.41,3.72-1.16,4.78l-68.85,44.21,66.36-38.31c1.77-.96,3.98-.31,4.94,1.46.89,1.63.4,3.67-1.12,4.73l-68.46,44.87,65.21-37.64c1.77-.96,3.98-.31,4.94,1.45.88,1.61.43,3.61-1.05,4.69l-73.39,50.78,68.63-39.62c1.76-.98,3.97-.35,4.96,1.4.9,1.62.45,3.66-1.06,4.74l-47.6,33.06,41.11-23.73c1.77-.96,3.98-.31,4.94,1.45.87,1.59.43,3.58-1.02,4.66l-26.35,18.6,17.55-10.13c1.75-.99,3.97-.37,4.96,1.38.85,1.5.53,3.38-.76,4.52l-19.48,16.89c1.98-.36,3.87.95,4.23,2.93.27,1.51-.43,3.03-1.75,3.8l-31.04,17.92c-1.75.99-3.97.37-4.96-1.38-.85-1.5-.53-3.38.76-4.52l18.66-16.19-53.9,31.13c-1.77.96-3.98.31-4.94-1.45-.87-1.59-.43-3.58,1.02-4.66l26.35-18.59-47.28,27.28c-1.74,1.01-3.97.42-4.98-1.32-.96-1.65-.49-3.75,1.08-4.83l47.59-33.04-70.29,40.58c-1.77.96-3.98.31-4.94-1.45-.88-1.61-.43-3.61,1.05-4.69l73.41-50.79-99.63,57.54c-1.77.96-3.98.31-4.94-1.46-.89-1.63-.4-3.67,1.12-4.73l68.4-44.83-88.38,51.02c-.56.31-1.18.48-1.82.47Z"/>
      <path class="cls-5" d="m66.69,185.66c-2.01.02-3.66-1.59-3.68-3.6-.01-1,.39-1.96,1.11-2.66l9.98-9.85-19.61,11.35c-1.74,1.01-3.97.42-4.98-1.32-.89-1.53-.55-3.48.8-4.62l11.04-9.4-14.57,8.4c-1.75.99-3.97.37-4.96-1.39-.88-1.57-.49-3.54.92-4.65l2.35-1.81-2.13,1.23c-1.75,1-3.97.39-4.97-1.36-.8-1.4-.58-3.16.54-4.33l18.76-19.27-16.07,9.27c-1.74,1.01-3.97.43-4.98-1.31-.83-1.43-.6-3.24.57-4.41l7.7-7.76c-.84-.28-1.56-.86-2-1.63-1-1.74-.4-3.97,1.34-4.97,0,0,0,0,0,0l17.29-9.99c1.74-1.01,3.97-.43,4.98,1.31.83,1.43.6,3.24-.57,4.41l-4.42,4.45,15.15-8.74c1.74-1.01,3.97-.43,4.98,1.31.83,1.42.6,3.22-.55,4.39l-18.73,19.28,27.02-15.58c1.73-1.02,3.96-.45,4.99,1.28.94,1.6.54,3.65-.95,4.76l-2.33,1.8,2.1-1.22c1.75-1,3.97-.39,4.97,1.36.86,1.52.53,3.43-.79,4.57l-11.09,9.37,9.01-5.2c1.75-.99,3.97-.36,4.96,1.39.8,1.42.56,3.19-.59,4.35l-9.96,9.86,2.37-1.35c1.75-.99,3.97-.38,4.97,1.37.98,1.73.39,3.93-1.32,4.94l-26.86,15.49c-.55.32-1.18.49-1.82.49Z"/>
      <path class="cls-1" d="m252.45,382.21c-2.01,0-3.64-1.63-3.64-3.64,0-.87.31-1.71.88-2.37l5.15-5.98-14.47,8.35c-1.74,1-3.97.4-4.97-1.34-.74-1.29-.63-2.9.3-4.07l12.65-15.97-17.03,9.83c-1.74,1-3.97.4-4.97-1.34-.66-1.15-.64-2.58.05-3.71l5.1-8.34c-1.79.91-3.98.2-4.9-1.59-.87-1.71-.27-3.8,1.38-4.78l12.32-7.12c1.44-.83,3.27-.58,4.43.61,1.16,1.19,1.37,3.02.5,4.44l-5.1,8.34,21.12-12.18c1.74-1,3.97-.4,4.97,1.34.74,1.29.63,2.9-.3,4.07l-12.66,15.97,16.53-9.53c1.74-1,3.97-.41,4.97,1.34.77,1.34.61,3.02-.39,4.19l-6.55,7.61c2,.23,3.43,2.04,3.2,4.03-.13,1.14-.79,2.15-1.79,2.73l-14.93,8.62c-.56.33-1.2.5-1.84.49Z"/>
      <path class="cls-6" d="m369.83,301.25c-2.01,0-3.64-1.63-3.64-3.65,0-.69.2-1.37.57-1.96l1.19-1.86-6.99,4.03c-1.75.99-3.97.38-4.97-1.37-.78-1.37-.59-3.08.46-4.24l5.67-6.18-16.08,9.29c-1.74,1.02-3.97.43-4.98-1.31-.82-1.41-.61-3.19.52-4.37l16.97-17.72-40.48,23.37c-1.75,1-3.97.4-4.97-1.35-.89-1.56-.52-3.54.89-4.66l18.5-14.57-43.5,25.11c-1.75.99-3.97.37-4.96-1.38-.91-1.61-.47-3.64,1.02-4.73l21.8-15.63-22.31,12.89c-1.75,1-3.97.39-4.97-1.36-.92-1.62-.48-3.67,1.03-4.76l17.97-12.82-16.61,9.59c-1.73,1.02-3.96.45-4.99-1.29-.92-1.55-.56-3.54.84-4.68l34.23-28.2-30.22,17.44c-1.74,1.01-3.97.41-4.98-1.33-.91-1.57-.52-3.58.91-4.7l13.18-10.3-5.1,2.91c-1.73,1.03-3.96.46-4.99-1.26-.93-1.55-.57-3.55.83-4.69l10.29-8.6c-.45-.3-.82-.7-1.09-1.17-1.01-1.74-.41-3.97,1.33-4.97l23.13-13.36c1.74-1.02,3.97-.43,4.98,1.3.9,1.54.55,3.51-.82,4.65l-1.03.85,14.27-8.24c1.74-1.01,3.97-.41,4.98,1.33.91,1.57.52,3.58-.91,4.7l-13.2,10.33,22.72-13.11c1.74-1.01,3.97-.41,4.98,1.33.89,1.54.54,3.51-.84,4.64l-34.21,28.19,44.33-25.6c1.73-1.02,3.97-.44,4.98,1.3.96,1.63.5,3.73-1.04,4.82l-17.98,12.83,20.83-12.01c1.75-.99,3.97-.37,4.96,1.38.91,1.61.47,3.64-1.02,4.73l-21.85,15.64,23.4-13.51c1.75-1,3.97-.4,4.97,1.35.89,1.56.52,3.54-.89,4.66l-18.51,14.57,18.52-10.68c1.74-1.01,3.97-.41,4.98,1.33.81,1.4.6,3.17-.52,4.34l-16.94,17.71,14.49-8.36c1.74-1,3.97-.4,4.97,1.34.79,1.37.6,3.1-.47,4.27l-5.75,6.29c1.88-.71,3.98.24,4.69,2.12.4,1.07.28,2.26-.32,3.23l-5.1,8.01c.05.09.11.16.15.25,1.01,1.74.41,3.97-1.33,4.97l-4.19,2.42c-.55.31-1.17.46-1.81.45Z"/>
      <path class="cls-6" d="m208.31,300.84c-.95,0-1.86-.36-2.53-1.03-1.17-1.13-1.44-2.9-.67-4.33l6.02-11.21-20.31,11.72c-1.75,1-3.97.39-4.97-1.36-.8-1.41-.58-3.19.56-4.35l11.87-12-28.27,16.32c-1.74,1.01-3.97.41-4.97-1.33-.86-1.49-.56-3.39.73-4.54l21.56-19.26-53.17,30.71c-1.74,1-3.97.41-4.97-1.34-.94-1.63-.48-3.7,1.05-4.79l15.62-11.11-20.04,11.57c-1.75.98-3.97.36-4.96-1.4-.87-1.56-.49-3.52.91-4.63l35.36-27.28-35.42,20.45c-1.75.99-3.97.37-4.96-1.38-.89-1.58-.48-3.58.96-4.69l23.04-17.18-19.62,11.3c-1.75,1-3.97.39-4.97-1.36-.89-1.55-.51-3.52.88-4.64l20.23-16.02-12.91,7.46c-1.77.95-3.98.29-4.93-1.49-.77-1.44-.49-3.21.68-4.34l13.2-11.85c-.9-.26-1.66-.86-2.12-1.67-1.01-1.74-.41-3.97,1.33-4.97l23.21-13.39c1.77-.95,3.98-.29,4.93,1.49.77,1.44.49,3.21-.68,4.34l-9.09,8.16,25.74-14.86c1.75-.98,3.97-.36,4.96,1.4.87,1.54.49,3.49-.88,4.6l-20.22,16.02,30.2-17.44c1.75-.99,3.97-.37,4.96,1.38.89,1.58.48,3.58-.96,4.69l-23.03,17.19,29.01-16.75c1.75-.98,3.97-.36,4.96,1.4.87,1.56.49,3.52-.91,4.63l-35.37,27.29,40.45-23.31c1.73-1.03,3.96-.46,4.99,1.26.98,1.65.52,3.77-1.06,4.86l-15.6,11.06,16.12-9.3c1.78-.94,3.98-.27,4.92,1.51.76,1.43.48,3.19-.68,4.31l-21.56,19.27,21.19-12.24c1.74-1,3.97-.41,4.97,1.34.82,1.42.59,3.21-.56,4.37l-11.86,12.02,7.93-4.57c1.74-1,3.97-.4,4.97,1.35.62,1.09.64,2.42.05,3.53l-7.41,13.79c1.83.84,2.64,3,1.8,4.83-.31.69-.84,1.26-1.49,1.64l-6.37,3.64c-.56.33-1.19.51-1.84.51Z"/>
      <path class="cls-7" d="m286.28,298.9c-2.01,0-3.64-1.63-3.64-3.64,0-.98.39-1.91,1.09-2.6l17.75-17.44-18.57,10.72c-1.73,1.02-3.97.44-4.98-1.3-.91-1.55-.56-3.53.83-4.66l4.22-3.51-1.54.88c-1.75,1-3.97.39-4.97-1.36-.75-1.31-.61-2.95.35-4.12l8.79-10.62c-1.96.43-3.91-.81-4.34-2.77-.34-1.55.36-3.14,1.73-3.93l16.21-9.36c1.74-1.01,3.97-.41,4.97,1.33.76,1.32.62,2.97-.35,4.14l-8.49,10.25,20.92-12.05c1.75-.99,3.97-.37,4.96,1.38.86,1.52.52,3.44-.82,4.57l-4.19,3.49,6.44-3.71c1.75-1,3.97-.38,4.97,1.36.81,1.43.57,3.22-.6,4.38l-17.76,17.44,18.59-10.73c1.74-1,3.97-.41,4.97,1.34.63,1.09.65,2.43.05,3.54l-6.6,12.22c1.94.53,3.08,2.54,2.54,4.48-.25.92-.86,1.71-1.69,2.19l-7.38,4.26c-1.75,1-3.97.39-4.97-1.35-.62-1.09-.64-2.42-.05-3.53l5.62-10.41-32.26,18.62c-.56.33-1.19.5-1.84.5Z"/>
      <path class="cls-7" d="m209.67,301.21c-2.01,0-3.64-1.63-3.64-3.64,0-.63.16-1.24.47-1.79l3.37-5.99-12.52,7.23c-1.73,1.02-3.97.44-4.99-1.29-.87-1.48-.59-3.38.68-4.54l1.51-1.4-9.37,5.4c-1.75,1-3.97.39-4.97-1.35-.84-1.47-.56-3.32.68-4.48l9.83-9.08-15.29,8.84c-1.76.97-3.98.33-4.95-1.44-.8-1.45-.52-3.25.68-4.39l11.35-10.31-10.38,5.99c-1.5.88-3.42.58-4.57-.73-1.15-1.32-1.2-3.27-.12-4.64l9.96-12.72h0c-1.78.93-3.98.24-4.91-1.54-.88-1.68-.32-3.75,1.27-4.76l16.28-9.4c1.75-1,3.97-.39,4.97,1.35.73,1.28.62,2.88-.29,4.05l-9.99,12.69,23.57-13.61c1.76-.97,3.98-.33,4.95,1.44.8,1.45.52,3.25-.68,4.39l-11.36,10.33,14.22-8.21c1.75-1,3.97-.39,4.97,1.35.84,1.47.56,3.32-.68,4.48l-9.83,9.07,8.74-5.05c1.73-1.02,3.97-.44,4.99,1.29.87,1.48.59,3.38-.68,4.54l-3.27,3.04c2.01.06,3.6,1.73,3.54,3.74-.02.59-.18,1.17-.47,1.69l-6.21,11.02c.15.18.29.37.41.58,1.01,1.74.41,3.97-1.33,4.97l-4.12,2.38c-.55.32-1.17.48-1.8.48Z"/>
      <path class="cls-2" d="m405.3,172.11c16.58,27.54,60.2,11.65,59.42-19.66.66-31.87-42.69-44.43-58.99-17.55-26.11-2.47-53.62,5.17-68.56,28.03-56.51-19.9-118.08-20.13-174.73-.65-14.72-23.2-42.24-30.52-68.41-27.98-16.58-26.71-59.1-13.34-58.57,18.07-1.03,31.64,42.24,47.44,59.14,19.66,12.21-.11,24.44-1.13,33.9,6.69-65.46,37.17-103.19,153.14-42.74,210.05v84.01c0,8.48,3.98,28.13-3.72,33.58-7.09,5.02-22.24-2.66-31.07,3.41-8.3,6.52-11.45,17.65-7.79,27.55,4.57,12.96,14.03,12.14,25.78,12.83,28.01,1.64,56.81-.43,61.29-33.69v-106.4c21.21,4.95,42.83,7.98,64.58,9.05v45.37c0,12.38,5.4,37.14-6.44,42.1-13.05,5.46-28.31-5.83-36.01,12.29-5.27,10.78-.8,23.78,9.97,29.05,1.93.94,3.98,1.59,6.09,1.93,29.13,5.35,67.95,1.13,71.23-34.23,2.91-31.17.37-63.77.06-95.24,6.85,0,13.68-.09,20.5-.26,2.67,61.55-25.96,147.12,70.51,129.54,11.53-1.2,19.9-11.52,18.7-23.05-.1-.95-.26-1.9-.49-2.83-3.92-23.07-20.76-12.11-35.82-17.07-13.75-4.53-7.87-30.02-7.87-42.97v-45.27c22.06-.73,43.95-4.01,65.25-9.78v86.75c0,25.67.73,51.71,32.58,55.4,16.88-2.42,40.58,7.1,51.71-9.47,9.47-25.11-4.57-39.33-30.22-35.64-12.92,0-11.12-6.06-11.12-16.02-.17-34.46.33-69.02-.18-103.42,58.91-53.63,21.05-171.54-42.86-206.9,9.67-8.51,22.35-7.39,34.89-7.28Zm52.44-18.16c.2,32.99-49.53,29.97-51.25-1.51,1.73-32.81,51.02-30.24,51.21,1.46l.04.05Zm-384.72,23.47c-13.5,3.12-26.98-5.3-30.1-18.8-.35-1.53-.56-3.09-.62-4.66.15-32.05,49.19-33.84,51.34-1.46-.44,12.01-8.9,22.23-20.62,24.91Zm25.64-14.02c2.34-6.65,2.21-13.92-.39-20.48,22.51.28,43.05,2.97,57.67,21.85-6.88,2.84-13.59,6.09-20.09,9.73-10.2-10.95-23.33-11.22-37.23-11.1h.04Zm23.54,354.79c-2.8,20.9-37.81,30.16-55.78,24.59-13.28-4.12-26.22-19.81-5.28-29.05,3.26-1.46,11.11.36,14.57,0,32.93-.44,16.44-54.72,18.13-75.64v-43.26c8.8,5.63,18.34,9.99,28.36,12.95v110.41Zm109.05-3.1c-5.5,12.8-15.9,22.85-28.87,27.91-12.16,2.4-46.61,2.73-42.8-17.31,4.12-21.43,27.15-5.91,38.6-14.76,5.59-4.33,4.6-9.83,5.1-16.07,1.99-24.73.36-50.25.09-75.19,9.27.44,18.57.62,27.87.68-.36,31.51.44,63.41-.04,94.73h.04Zm74.46-2.18c12.85,1.52,35-1.66,34.71,17.98-.91,16.75-34.36,13.44-45.28,12.26-24.58-2.66-26.22-23.74-26.22-42.73v-80.52c9.31-.28,18.57-.61,27.77-1.01-.12,25.03-1.09,50.25,0,75.25.39,8.86-.89,15.05,8.98,18.75h.04Zm119.3,1.51c12.99-1.46,28.51-.22,25.69,17.06-4.62,19.06-33.5,8.27-47.87,10.62-35.11-4.04-25.69-51.33-25.69-75.54v-59.86c10.66-3.54,20.72-8.67,29.86-15.2v79.31c-.04,18.25-6.83,43.6,17.98,43.6h.04Zm11.06-201.41c-2.28,101.6-108.94,98.03-186.15,98.05-74.65,0-186.34,4.14-185.89-97.27-1.32-208.2,372.39-209.23,372.01-.79h.04Zm-92.41-147.65c14.51-20.02,35.31-22.79,58.27-23.02-1.72,4.26-2.47,8.85-2.18,13.44.26,2.58.78,5.12,1.56,7.59-14.04-.09-27.27.33-37.41,11.92-6.52-3.75-13.28-7.07-20.23-9.93Z"/>
      <path class="cls-2" d="m274.82,355.17c-1.94-23.79-50.25-23.49-49.95,1.84-.48,13.83,10.35,25.42,24.18,25.9,13.83.48,25.42-10.35,25.9-24.18.04-1.19,0-2.38-.13-3.56Zm-43.39,2.02c.42-14.7,36.33-14.71,37.14-.19-1.22,22.61-37.8,22.88-37.14.19Z"/>
      <path class="cls-2" d="m176.57,294.54c17.05.71,33.66,5.65,48.32,14.38,3.49,2.23,10.33-3.18,6.55-5.61-4.32-2.74-8.87-5.1-13.6-7.06,3.66-6.91,5.82-14.51,6.36-22.32-.23-92.92-140.47-66.07-101.88,22.85-4.26,1.83-8.37,3.99-12.29,6.46-4.54,2.91-1.46,8.69,3.18,5.74,4.61-2.88,9.49-5.31,14.57-7.24,1.36.04,2.68-.45,3.68-1.38,14.53-4.82,29.85-6.8,45.12-5.83Zm3.02-6.95c-20.35-28.12,24.03-53.98,35.95-20.15.31,8.97-1.61,17.87-5.61,25.9-9.84-3.17-20.03-5.1-30.34-5.75h0Zm-4.96-65.1c16.43,1.32,30.72,11.77,36.96,27.04-24.29-17.13-57.38,11.85-41.98,37.78-13.46.03-26.83,2.22-39.59,6.49-16.61-32.36,4.36-75.39,44.62-71.3Z"/>
      <path class="cls-2" d="m273.42,309.93c25.9-16.52,66.02-19.22,96.58-8.1.54.77,1.5,1.13,2.42.9,4.96,1.91,9.72,4.3,14.22,7.12,4.28,2.73,6.95-5.25,3.47-7.47-4.09-2.59-8.39-4.85-12.85-6.74,34.86-80.01-83.57-117.44-100.12-33.12-.94,3.21-4.01,8.39-.59,11.1.39,7.76,2.32,15.37,5.68,22.37-4.14,1.8-8.14,3.91-11.96,6.31-3.47,2.22-1.13,10.36,3.15,7.62Zm58.44-86.88c26.35,1.51,46.48,24.09,44.98,50.44-.4,6.94-2.3,13.71-5.59,19.84-12.93-4.51-26.53-6.83-40.23-6.87,13.78-25.86-19.47-53.74-43.12-36.9,7.51-17.3,25.16-27.94,43.96-26.5Zm-48.14,48.03c8.01-37.05,57.65-15.48,36.96,15.73-10.54.71-20.94,2.81-30.94,6.23-3.64-6.77-5.69-14.28-6.02-21.96Z"/>
    </g>
  </g>
  <g id="Capa_3" data-name="Capa 3">
    <g>
      <path class="cls-9" d="m462,116.11c0,45.6-70.88,140.85-212.43,140.85S37.1,161.71,37.1,116.11s59.25,31.03,210.46,31.03c151.34.09,214.45-76.63,214.45-31.03Z"/>
      <path class="cls-4" d="m249.57,262c-80.32,0-132.68-29.63-162.53-54.47-37.92-31.6-54.95-68.69-54.95-91.42,0-12.95,5-19.49,14.79-19.49,7.72,0,18.04,4.17,33.58,10.4,32.52,13.17,86.99,35.11,167.18,35.11s135.36-21.81,168.63-34.85c15.89-6.19,27.39-10.71,35.55-10.71,10.14,0,15.27,6.54,15.27,19.49,0,22.74-16.94,59.78-54.95,91.42-29.85,24.84-82.21,54.47-162.53,54.47l-.04.04ZM46.89,106.67c-2.19,0-4.7,0-4.7,9.44,0,20.32,15.84,54.12,51.31,83.7,28.57,23.79,78.83,52.14,156.12,52.14s127.55-28.35,156.12-52.14c35.46-29.58,51.31-63.33,51.31-83.7,0-9.44-2.68-9.44-5.22-9.44-6.28,0-17.6,4.43-31.86,10.01-34.02,13.3-90.81,35.55-172.32,35.55s-137.69-22.47-170.91-35.81c-13.43-5.4-24.05-9.7-29.85-9.7v-.04Z"/>
      <path class="cls-9" d="m289.69,8.05c-9.09,0-20.85,17.47-41.61,17.47s-33.44-17.47-44.29-17.47c-15.27,0-33.66,45.91-46.52,80.23-12.86,34.37-16.77,63.07-16.77,73.6,0,19.71,34.28,47.36,107.53,47.36s107.53-28.66,107.53-47.36c0-10.27-4.43-38.36-18.52-73.34-11.76-29.36-30.42-80.54-47.45-80.54l.09.04Z"/>
      <path class="cls-4" d="m248.12,214.29c-42.71,0-69.04-9.22-83.61-16.9-18.17-9.66-29.01-22.87-29.01-35.55,0-10.27,3.6-39.33,17.12-75.4C171.4,36.4,187.34,3.04,203.84,3.04c5.97,0,11.41,3.47,17.73,7.37,7.46,4.7,15.89,10.05,26.55,10.05s19.09-5.57,26.25-10.49c5.49-3.73,10.23-6.98,15.36-6.98,17.6,0,31.95,32.74,48.94,75.45,1.14,2.9,2.24,5.62,3.25,8.16,14.92,37.18,18.87,65.44,18.87,75.23,0,12.33-10.84,25.5-28.92,35.2-14.7,7.81-41.17,17.16-83.7,17.16l-.04.09ZM203.84,13.05c-1.67,0-7.94,1.76-19.71,24.49-8.03,15.54-15.71,35.24-22.16,52.45-12.11,32.17-16.46,60.61-16.46,71.85,0,6.85,6.19,17.38,23.66,26.69,13.61,7.2,38.27,15.76,78.92,15.76s65.27-8.73,78.92-16.06c17.47-9.35,23.66-20.06,23.66-26.33,0-10.58-4.87-38.27-18.17-71.45-1.05-2.59-2.11-5.35-3.29-8.25-5.79-14.57-12.95-32.65-20.5-46.79-10.71-20.15-16.9-22.3-19.09-22.3-2.06,0-5.93,2.68-9.7,5.22-7.55,5.14-17.86,12.25-31.86,12.25s-23.7-6.41-31.86-11.63c-4.65-3.03-9.13-5.93-12.25-5.93l-.09.04Z"/>
      <g>
        <path class="cls-4" d="m248.12,183.08c-63.69,0-97.92-20.98-105.78-39.33-1.27,8.03-1.76,14.31-1.76,18.08,0,19.71,34.28,47.36,107.53,47.36s107.53-28.66,107.53-47.36c0-3.73-.61-9.88-2.06-17.82-8.25,17.86-42.44,39.06-105.51,39.06h.04Z"/>
        <path class="cls-4" d="m248.12,214.29c-42.71,0-69.04-9.22-83.61-16.9-18.17-9.66-29.01-22.87-29.01-35.55,0-4.65.61-11.32,1.84-18.87.35-2.19,2.11-3.95,4.35-4.21s4.35.97,5.22,3.03c7.46,17.47,42.31,36.34,101.17,36.34s92.92-18.74,100.99-36.17c.92-1.98,3.03-3.12,5.22-2.9,2.19.26,3.95,1.89,4.3,4.08,1.32,7.55,2.11,14.22,2.11,18.74,0,12.33-10.84,25.5-28.92,35.2-14.66,7.9-41.13,17.25-83.61,17.25l-.04-.04Zm-102.4-56.75c-.13,1.62-.13,3.12-.13,4.35,0,6.85,6.19,17.38,23.66,26.69,13.61,7.2,38.27,15.76,78.92,15.76s65.27-8.73,78.92-16.06c17.47-9.35,23.66-20.06,23.66-26.33,0-1.32-.09-2.94-.22-4.7-16.11,16.68-50.83,30.99-102.35,30.99-54.6-.09-87.3-14.79-102.4-30.68h-.04Z"/>
      </g>
      <path class="cls-4" d="m353.68,149.73c-1.27,2.59-2.59,5.22-4.43,7.55-2.41,2.9-4.92,5.57-7.81,7.94-5.97,5-12.68,8.95-19.71,12.16-14.57,6.67-30.46,10.14-46.3,12.03-16.42,1.98-33.14,1.98-49.64.57-15.84-1.32-32.22-4.43-46.96-10.58-7.81-3.25-15.76-7.02-22.3-12.47-3.25-2.68-6.32-5.49-9-8.78-2.19-2.68-3.73-5.62-5.14-8.73,3.16,5.49,7.11,10.36,12.25,14.09,6.06,4.43,12.47,7.9,19.36,10.84,14.44,6.14,30.42,9.22,45.95,10.84,16.33,1.67,32.74,1.84,49.11.7,8.08-.57,16.2-1.62,24.05-3.16,7.55-1.54,15.14-3.29,22.38-5.97,7.94-2.94,16.06-6.28,23-11.28,3.38-2.41,6.54-5,9.44-8.03,2.24-2.41,3.99-5,5.71-7.72h.04Z"/>
      <path class="cls-4" d="m316.73,71.38c-8.16.35-15.27-4.3-20.41-10.36-6.06-7.11-9.48-16.46-9.92-25.76-.22-4.3.35-8.65,1.98-12.6,3.38,6.98,5.97,14.22,9.35,21.2,3.25,6.76,6.85,13.21,11.28,19.27,2.33,3.12,5.14,5.57,7.72,8.25Z"/>
      <path class="cls-4" d="m176.67,71.38c1.32-1.32,2.77-2.59,3.99-3.99,1.67-1.89,3.29-3.95,4.7-6.06,2.77-3.99,5.22-8.38,7.33-12.73,2.24-4.65,4.43-9.44,6.5-14.13,1.67-3.86,3.16-7.94,5-11.76,3.16,7.55,2.55,16.81-.09,24.4-2.9,8.51-7.94,16.24-15.71,21.11-3.6,2.24-7.59,3.29-11.76,3.16h.04Z"/>
      <path class="cls-4" d="m53.29,129.19c8.43,21.59,24.97,38.62,42.22,53.63,18.39,15.98,38.98,29.14,60.39,40.69,9.88,5.35,20.15,9.92,30.33,14.48-22.82-4.08-44.55-12.95-64.34-25.06-21.2-12.95-40.91-29.63-54.95-50.26-6.85-10.14-12.03-21.33-13.65-33.49Z"/>
      <path class="cls-4" d="m443.79,129.19c-2.94,22.82-18.52,42.57-34.76,57.94-18.21,17.16-39.77,31.03-62.94,40.56-11.41,4.65-23.17,8.16-35.24,10.27,20.15-8.87,39.68-18.79,58.16-30.81,20.28-13.21,39.63-28.49,55.48-46.88,8.08-9.35,14.84-19.49,19.36-31.03l-.04-.04Z"/>
      <path class="cls-4" d="m221.83,47.02c8.38,3.99,16.68,8.08,26.2,8.08s17.95-4.08,26.33-8.08c-4.21,7.9-12.95,13.61-21.68,14.92-7.46,1.14-15.14-.61-21.42-4.87-3.73-2.55-7.33-5.97-9.44-10.05Z"/>
      <path class="cls-10" d="m278.37,139.9c-.61,0-1.19.22-1.67.48l-8.03-13.96,8.03-13.96c.48.26,1.05.48,1.67.48,1.89,0,3.47-1.54,3.47-3.47s-1.54-3.47-3.47-3.47-3.47,1.54-3.47,3.47h-16.11l-8.51-14.79c1.05-.57,1.76-1.67,1.76-2.94,0-1.89-1.54-3.47-3.47-3.47s-3.47,1.54-3.47,3.47c0,1.27.7,2.41,1.76,2.94l-8.51,14.79h-16.11c0-1.89-1.54-3.47-3.47-3.47s-3.47,1.54-3.47,3.47,1.54,3.47,3.47,3.47c.61,0,1.19-.22,1.67-.48l8.03,13.96-8.03,13.96c-.48-.26-1.05-.48-1.67-.48-1.89,0-3.47,1.54-3.47,3.47s1.54,3.47,3.47,3.47,3.47-1.54,3.47-3.47h16.11l8.51,14.79c-1.05.57-1.76,1.67-1.76,2.94,0,1.89,1.54,3.47,3.47,3.47s3.47-1.54,3.47-3.47c0-1.27-.7-2.41-1.76-2.94l8.51-14.79h16.11c0,1.89,1.54,3.47,3.47,3.47s3.47-1.54,3.47-3.47-1.54-3.47-3.47-3.47Z"/>
      <g>
        <path class="cls-4" d="m353.81,136.65c-6.32,5.93-12.95,11.28-20.5,15.63-8.3,4.78-17.34,8.38-26.55,10.93-3.99,1.05-8.08,2.06-12.16,2.46,7.81-2.11,15.41-5.79,22.47-9.79,7.81-4.52,15.05-10.05,21.42-16.46,2.9-2.94,5.4-6.28,7.94-9.48,2.41,2.24,4.92,4.52,7.37,6.76v-.04Z"/>
        <path class="cls-4" d="m350.87,125.37c-5.97,5.49-12.25,10.23-19.44,14.09-6.41,3.47-13.3,6.14-20.32,8.03-3.12.83-6.32,1.62-9.57,2.06,8.43-2.77,16.55-7.33,23.7-12.51,3.38-2.46,6.63-5.14,9.57-8.08,3.16-3.25,5.97-6.63,8.65-10.27,2.41,2.24,4.92,4.52,7.37,6.76l.04-.09Z"/>
        <path class="cls-4" d="m347.93,114.13c-11.1,9.66-24.71,16.9-39.41,19.14,6.19-2.55,12.11-6.19,17.38-10.36,5.71-4.52,10.4-9.7,14.66-15.63,2.46,2.33,4.92,4.56,7.37,6.85Z"/>
        <path class="cls-4" d="m344.95,102.85c-8.6,6.89-18.65,12.11-29.58,14.22,9-5,16.55-12.38,22.12-20.98,2.55,2.33,5,4.52,7.46,6.76Z"/>
        <path class="cls-4" d="m342.05,91.57c-6.06,4.17-12.6,7.37-19.71,9.3,5-4.56,9-10.01,12.16-15.98,2.46,2.24,5,4.43,7.55,6.67Z"/>
      </g>
      <g>
        <path class="cls-4" d="m149.19,129.89c4.92,6.32,10.23,12.11,16.46,17.16,7.24,5.84,15.36,10.58,23.79,14.35,3.73,1.67,7.59,3.25,11.54,4.3-8.08-.92-16.11-3.38-23.7-6.28-9.09-3.47-17.69-8.25-25.41-14-3.6-2.68-6.85-5.71-10.05-8.78,2.46-2.24,4.92-4.52,7.37-6.76Z"/>
        <path class="cls-4" d="m152.18,118.61c2.77,3.6,5.49,7.02,8.65,10.27,2.94,2.94,6.19,5.62,9.57,8.08,7.11,5.22,15.27,9.79,23.7,12.51-14.13-1.84-28.09-8.03-39.77-16.11-3.47-2.41-6.5-5.14-9.57-7.94,2.46-2.33,4.92-4.56,7.37-6.85l.04.04Z"/>
        <path class="cls-4" d="m155.12,107.37c4.21,5.93,8.95,11.1,14.66,15.63,5.27,4.17,11.19,7.81,17.38,10.36-14.7-2.24-28.31-9.48-39.41-19.14,2.46-2.33,4.92-4.56,7.37-6.85Z"/>
        <path class="cls-4" d="m158.06,96.18c5.62,8.6,13.08,15.98,22.12,20.98-10.93-2.11-20.98-7.33-29.58-14.22,2.46-2.33,5-4.52,7.46-6.76Z"/>
        <path class="cls-4" d="m161.05,84.9c3.16,5.97,7.2,11.41,12.16,15.98-7.11-1.89-13.65-5.22-19.71-9.3,2.55-2.24,5.05-4.43,7.55-6.67Z"/>
      </g>
      <g>
        <polygon class="cls-4" points="141.38 155.52 97.49 134.19 144.85 146.08 141.38 155.52"/>
        <polygon class="cls-4" points="138.88 169.3 114.78 152.05 143.31 160.3 138.88 169.3"/>
        <polygon class="cls-4" points="350.79 146.08 398.19 134.19 354.25 155.52 350.79 146.08"/>
        <polygon class="cls-4" points="352.37 160.3 380.85 152.05 356.71 169.3 352.37 160.3"/>
      </g>
    </g>
  </g>
</svg>