<?xml version="1.0" encoding="UTF-8"?>
<svg xmlns="http://www.w3.org/2000/svg" viewBox="0 0 500 575">
  <defs>
    <style>
      .cls-1 {
        fill: #4d4d4d;
      }

      .cls-1, .cls-2, .cls-3, .cls-4, .cls-5, .cls-6, .cls-7, .cls-8, .cls-9, .cls-10, .cls-11, .cls-12, .cls-13, .cls-14, .cls-15, .cls-16 {
        stroke-width: 0px;
      }

      .cls-2 {
        fill: #262626;
      }

      .cls-3 {
        fill: #e384b0;
      }

      .cls-4 {
        fill: #ffb5e9;
      }

      .cls-5 {
        fill: #4ce0c8;
      }

      .cls-6 {
        fill: #241816;
      }

      .cls-7 {
        fill: #416b80;
      }

      .cls-8 {
        fill: #67afaa;
      }

      .cls-9 {
        fill: #fff;
      }

      .cls-10 {
        fill: #5da0ff;
      }

      .cls-11 {
        fill: #f4d075;
      }

      .cls-12 {
        fill: #dee3d7;
      }

      .cls-13 {
        fill: #e2e6eb;
      }

      .cls-14 {
        fill: #f2f1eb;
      }

      .cls-15 {
        fill: #e7d8b4;
      }

      .cls-16 {
        fill: #73c6c2;
      }
    </style>
  </defs>
  <g id="Capa_1" data-name="Capa 1">
    <g>
      <path class="cls-15" d="m250,573c-66.51,0-129.04-25.9-176.07-72.93C26.9,453.04,1,390.51,1,324s25.9-129.04,72.93-176.07c47.03-47.03,109.56-72.93,176.07-72.93s129.04,25.9,176.07,72.93c47.03,47.03,72.93,109.56,72.93,176.07s-25.9,129.04-72.93,176.07c-47.03,47.03-109.56,72.93-176.07,72.93Z"/>
      <path class="cls-6" d="m250,76c33.48,0,65.96,6.56,96.53,19.49,29.53,12.49,56.05,30.37,78.83,53.15,22.78,22.78,40.66,49.3,53.15,78.83,12.93,30.57,19.49,63.05,19.49,96.53s-6.56,65.96-19.49,96.53c-12.49,29.53-30.37,56.05-53.15,78.83-22.78,22.78-49.3,40.66-78.83,53.15-30.57,12.93-63.05,19.49-96.53,19.49s-65.96-6.56-96.53-19.49c-29.53-12.49-56.05-30.37-78.83-53.15-22.78-22.78-40.66-49.3-53.15-78.83-12.93-30.57-19.49-63.05-19.49-96.53s6.56-65.96,19.49-96.53c12.49-29.53,30.37-56.05,53.15-78.83s49.3-40.66,78.83-53.15c30.57-12.93,63.05-19.49,96.53-19.49m0-2C111.93,74,0,185.93,0,324s111.93,250,250,250,250-111.93,250-250-111.93-250-250-250h0Z"/>
    </g>
  </g>
  <g id="Capa_2" data-name="Capa 2">
    <g>
      <path class="cls-11" d="m88.68,291.29c-1.95,0-3.52-1.58-3.52-3.52,0-1.11.52-2.15,1.41-2.82l27.38-20.94-38.3,22.13c-1.7.95-3.85.35-4.8-1.35-.86-1.53-.46-3.45.92-4.52l30.23-22.74-29.85,17.23c-1.68.98-3.84.4-4.82-1.28-.91-1.57-.48-3.58,1-4.63l15.88-11.42-8.97,5.16c-1.7.95-3.85.35-4.8-1.35-.85-1.51-.47-3.41.89-4.48l20.15-15.51-29.57,17.04c-1.69.96-3.84.37-4.81-1.32-.88-1.54-.47-3.49.94-4.56l16.72-12.38-16.92,9.76c-1.68.99-3.84.42-4.82-1.25-.92-1.56-.5-3.56.96-4.63l12.17-9.02c-1.95-.07-3.47-1.7-3.4-3.65.03-.8.33-1.57.85-2.17l10.38-12.07-24.78,14.3c-1.68.98-3.84.4-4.82-1.28-.78-1.35-.58-3.04.48-4.18l6.79-7.21-7.68,4.43c-1.69.97-3.84.38-4.81-1.3-.73-1.27-.6-2.85.33-3.98l3.37-4.1c-.8-.27-1.47-.83-1.89-1.56-.97-1.68-.39-3.83,1.29-4.81l11.68-6.74c1.69-.97,3.84-.38,4.81,1.3.73,1.27.6,2.85-.33,3.98l-1.16,1.41,11.62-6.7c1.69-.97,3.84-.38,4.81,1.31.77,1.34.57,3.03-.48,4.15l-6.81,7.23,21.98-12.69c1.69-.97,3.84-.4,4.81,1.29.75,1.29.6,2.92-.37,4.05l-10.38,12.05,30.04-17.34c1.69-.97,3.84-.38,4.81,1.31.89,1.55.48,3.51-.95,4.58l-8.31,6.15,16.34-9.42c1.69-.96,3.84-.37,4.81,1.32.88,1.54.47,3.49-.94,4.56l-16.72,12.41,22.06-12.73c1.69-.96,3.84-.38,4.81,1.31.87,1.52.49,3.44-.89,4.52l-20.16,15.55,24.44-14.1c1.68-.98,3.84-.4,4.82,1.28.91,1.57.48,3.58-1,4.63l-15.85,11.39,19.03-11c1.7-.95,3.85-.35,4.8,1.35.86,1.53.46,3.45-.92,4.52l-30.27,22.77,35.47-20.44c1.69-.96,3.84-.36,4.8,1.33.86,1.52.48,3.45-.91,4.52l-27.4,20.91,28.2-16.29c1.69-.96,3.84-.37,4.8,1.33.83,1.46.51,3.3-.75,4.4l-21.96,18.78,21.15-12.21c1.7-.95,3.85-.34,4.8,1.36.82,1.47.49,3.32-.8,4.41l-5.2,4.28,3.3-1.9c1.72-.92,3.85-.28,4.77,1.44.75,1.39.48,3.1-.66,4.2l-1.3,1.17c.87-.21,1.78-.08,2.55.37,1.09.62,1.77,1.77,1.78,3.02l.12,10.57c1.95,0,3.52,1.59,3.52,3.53,0,1.26-.68,2.42-1.77,3.05l-3.45,1.98c-1.69.97-3.84.39-4.81-1.3-.3-.52-.46-1.11-.47-1.71l-.12-9.99-22.52,12.98c-1.72.92-3.85.28-4.77-1.44-.75-1.39-.48-3.1.66-4.2l.75-.7-11,6.34c-1.7.95-3.85.34-4.8-1.36-.82-1.47-.49-3.32.8-4.41l5.2-4.28-17.41,10.04c-1.69.96-3.84.37-4.8-1.33-.83-1.46-.51-3.3.75-4.4l22.02-18.81-42.51,24.53c-.53.32-1.14.49-1.76.49h0Z"/>
      <path class="cls-11" d="m411.81,263.09c-1.95,0-3.52-1.58-3.52-3.52,0-1.26.67-2.42,1.76-3.05l24.4-14.1c1.64-1.04,3.82-.56,4.87,1.08,1.04,1.64.56,3.82-1.08,4.87-.08.05-.17.1-.26.15l-24.4,14.1c-.54.31-1.14.48-1.76.48Z"/>
      <path class="cls-11" d="m425.91,234.9c-1.95,0-3.52-1.58-3.52-3.52,0-1.26.67-2.42,1.76-3.05l24.4-14.1c1.64-1.04,3.82-.56,4.87,1.08,1.04,1.64.56,3.82-1.08,4.87-.08.05-.17.1-.26.15l-24.4,14.1c-.54.31-1.14.48-1.76.48Z"/>
      <path class="cls-11" d="m320.37,291.54c-1.95,0-3.52-1.58-3.52-3.53,0-1.15.56-2.22,1.5-2.88l54.85-38.57-50.65,29.23c-1.7.94-3.85.33-4.79-1.38-.86-1.56-.43-3.51,1.01-4.56l31.64-22.07-24.27,14.01c-1.69.97-3.84.39-4.81-1.3-.88-1.53-.49-3.46.9-4.54l29.36-22.56-21.3,12.28c-1.67.99-3.84.44-4.83-1.24-.87-1.47-.56-3.36.74-4.47l24.29-21.18c-.45-.3-.83-.7-1.09-1.17-.97-1.68-.4-3.84,1.28-4.81l19.9-11.53c1.68-.98,3.84-.41,4.82,1.27.85,1.46.54,3.33-.74,4.44l-16.61,14.54,36.32-20.95c1.69-.97,3.84-.39,4.81,1.3.88,1.53.49,3.46-.9,4.54l-29.38,22.56,49.26-28.4c1.69-.96,3.84-.37,4.8,1.33.89,1.57.45,3.56-1.02,4.61l-31.63,22.06,47.73-27.55c1.69-.96,3.84-.37,4.8,1.33.89,1.57.45,3.56-1.02,4.61l-54.83,38.56,60.9-35.2c1.68-.98,3.84-.4,4.82,1.28.93,1.61.46,3.66-1.09,4.7l-26.43,17.83,4.02-2.32c1.69-.97,3.84-.38,4.81,1.31.88,1.54.48,3.49-.93,4.56l-25.16,18.95c1.88-.5,3.81.63,4.31,2.51.32,1.21-.03,2.5-.91,3.38l-9.14,9.25,15.51-8.93c1.69-.97,3.84-.4,4.81,1.29.62,1.07.63,2.39.03,3.48l-6.01,10.74,2.39-1.41c1.72-.9,3.85-.24,4.76,1.49.85,1.62.31,3.63-1.23,4.61l-13.47,7.78c-1.69.97-3.84.4-4.81-1.29-.62-1.07-.63-2.39-.03-3.48l5.97-10.74-26.98,15.58c-1.69.97-3.84.39-4.81-1.29-.79-1.37-.57-3.1.54-4.23l9.11-9.23-25.67,14.8c-1.69.97-3.84.38-4.81-1.31-.88-1.54-.48-3.49.93-4.56l24.31-18.33-41.99,24.24c-1.68.98-3.84.4-4.82-1.28-.93-1.61-.46-3.66,1.09-4.7l26.49-17.85-41.37,23.88c-.53.33-1.14.52-1.76.54h0Z"/>
      <path class="cls-16" d="m411.62,498.04c-1.95,0-3.53-1.57-3.53-3.52,0-.95.38-1.87,1.06-2.53l18.79-18.38-10.62,6.1c-1.59.92-3.62.46-4.67-1.05-1.04-1.52-.73-3.58.7-4.74l2.33-1.88c-1.18.05-2.31-.51-2.98-1.49-1.05-1.48-.8-3.52.58-4.71l6.28-5.39-2.22,1.27c-1.69.96-3.84.36-4.8-1.34-.82-1.45-.51-3.27.73-4.37l6.8-5.91-2.75,1.59c-1.68.98-3.84.4-4.82-1.28-.85-1.48-.53-3.35.77-4.45l5.29-4.5-1.25.7c-1.7.95-3.85.35-4.8-1.34-.77-1.37-.54-3.09.57-4.21l15.33-15.15-11.1,6.4c-1.69.96-3.84.37-4.81-1.32-.84-1.47-.51-3.32.77-4.42l5.03-4.27-.99.57c-1.69.97-3.84.39-4.81-1.3-.85-1.48-.52-3.36.79-4.46l3.52-2.92c-1.82.68-3.85-.24-4.54-2.07-.46-1.24-.19-2.64.7-3.62l15.56-16.88-11.2,6.46c-1.7.95-3.85.34-4.8-1.35-.63-1.12-.6-2.49.08-3.58l8.1-12.45-.36.2c-1.64,1.04-3.82.56-4.87-1.08s-.56-3.82,1.08-4.87c.08-.05.17-.1.26-.15l13.09-7.56c1.69-.97,3.84-.39,4.81,1.3.66,1.14.62,2.56-.1,3.67l-8.09,12.45,18.49-10.67c1.69-.97,3.84-.39,4.81,1.3.76,1.33.58,3.01-.46,4.14l-15.55,16.88,14.8-8.54c1.69-.97,3.84-.39,4.81,1.3.85,1.48.52,3.36-.79,4.46l-3.52,2.93c1.82-.69,3.85.23,4.54,2.05.53,1.39.12,2.97-1.02,3.93l-5.03,4.27.99-.57c1.7-.95,3.85-.35,4.8,1.34.77,1.37.54,3.09-.57,4.21l-15.32,15.13,11.08-6.39c1.58-.91,3.59-.47,4.64,1.02,1.05,1.49.79,3.53-.59,4.72l-5.29,4.5,1.25-.7c1.69-.96,3.84-.36,4.8,1.34.82,1.45.51,3.27-.73,4.37l-6.82,5.9,2.75-1.58c1.69-.96,3.84-.36,4.8,1.33.82,1.45.51,3.28-.74,4.38l-6.28,5.4,2.22-1.28c1.69-.97,3.84-.38,4.81,1.3.86,1.5.51,3.39-.83,4.48l-2.33,1.88c1.14-.04,2.24.49,2.91,1.41,1.07,1.42.93,3.41-.35,4.65l-18.79,18.4,14.54-8.4c1.69-.96,3.84-.37,4.81,1.32.95,1.68.38,3.81-1.28,4.78l-38.73,22.36c-.54.31-1.15.46-1.78.46h0Z"/>
      <path class="cls-16" d="m320.71,573.25c-1.95,0-3.52-1.58-3.53-3.52,0-1.18.59-2.29,1.58-2.94l33.14-21.95-48.39,27.92c-1.69.96-3.84.37-4.81-1.32-.88-1.55-.47-3.52.97-4.58l23.07-16.8-39.33,22.7c-1.71.93-3.85.3-4.78-1.41-.84-1.54-.42-3.47.99-4.51l16.59-11.7-30.57,17.62c-1.71.94-3.85.31-4.79-1.39-.85-1.55-.42-3.49,1-4.54l20.78-14.61-34.02,19.64c-1.7.95-3.85.35-4.8-1.34-.89-1.58-.43-3.58,1.06-4.62l14.27-9.66-22.78,13.15c-1.69.96-3.84.38-4.81-1.32-.89-1.57-.46-3.55,1-4.61l40.32-28.77-51.05,29.47c-1.69.97-3.84.39-4.81-1.3-.91-1.58-.46-3.59,1.03-4.64l43.86-30.64-52.16,30.12c-1.7.95-3.85.35-4.8-1.35-.89-1.59-.42-3.59,1.08-4.63l36.34-24.41-41.59,24.02c-1.7.94-3.85.33-4.79-1.38-.87-1.58-.42-3.56,1.06-4.6l44.15-29.61-48.77,28.16c-1.68.98-3.84.42-4.82-1.26-.96-1.64-.45-3.75,1.16-4.76l9.65-6.17-11.23,6.48c-1.68.98-3.84.41-4.82-1.27-.95-1.63-.45-3.71,1.13-4.73l35.1-22.88-37.18,21.46c-1.71.93-3.85.3-4.78-1.41-.86-1.58-.39-3.55,1.09-4.58l48.72-32-50.53,29.22c-1.7.95-3.85.35-4.8-1.34-.89-1.58-.43-3.58,1.06-4.62l74.42-50.35-76.39,44.08c-1.69.96-3.84.37-4.81-1.32-.91-1.59-.44-3.62,1.07-4.65l78.65-53.07-79.02,45.62c-1.67.99-3.84.44-4.83-1.23-.97-1.63-.48-3.72,1.11-4.75l75.71-50.51-74.13,42.79c-1.71.93-3.85.29-4.78-1.42-.86-1.59-.38-3.59,1.13-4.6l25.81-16.38-22.56,13.02c-1.71.93-3.85.3-4.78-1.41-.86-1.58-.39-3.55,1.09-4.58l64.64-42.37-60.94,35.18c-1.71.93-3.85.29-4.78-1.42-.86-1.59-.38-3.59,1.13-4.6l28.99-18.43-25.33,14.63c-1.71.94-3.85.32-4.79-1.39-.88-1.61-.39-3.62,1.14-4.64l15.08-9.51-11.44,6.6c-1.68.98-3.84.4-4.82-1.28-.94-1.62-.45-3.68,1.11-4.71l70.6-46.61-66.89,38.61c-1.69.96-3.84.37-4.81-1.32-.91-1.6-.44-3.63,1.09-4.66l73.31-48.55-69.57,40.18c-1.71.93-3.85.29-4.78-1.42-.86-1.59-.38-3.59,1.13-4.6l28.44-18.12-24.81,14.34c-1.66,1.02-3.83.49-4.85-1.17s-.49-3.83,1.17-4.85l50.9-32.9-47.23,27.26c-1.7.95-3.85.35-4.8-1.35-.91-1.62-.4-3.67,1.16-4.68l6.34-3.97-2.68,1.55c-1.71.94-3.85.32-4.79-1.39-.88-1.61-.39-3.62,1.14-4.64l14.94-9.43-11.32,6.53c-1.67,1-3.83.47-4.84-1.2s-.47-3.83,1.2-4.84h0l3.47-2.17c-1.74.87-3.86.17-4.73-1.57-.8-1.6-.28-3.54,1.21-4.52l69.08-45.51-65.39,37.77c-1.7.95-3.85.35-4.8-1.35-.91-1.62-.4-3.67,1.16-4.68l10.45-6.56-6.81,3.92c-1.7.95-3.85.34-4.8-1.36-.89-1.6-.42-3.61,1.1-4.64l64.7-42.48-61,35.25c-1.71.94-3.85.31-4.78-1.4-.86-1.57-.41-3.53,1.05-4.57l80.13-54.07-76.39,44.05c-1.69.96-3.84.37-4.81-1.32-.91-1.61-.43-3.65,1.11-4.68l54.23-35.51-50.53,29.18c-1.68.98-3.84.4-4.82-1.28-.93-1.6-.46-3.64,1.07-4.68l75.79-51.87-72.05,41.59c-1.67,1.01-3.83.47-4.84-1.19s-.47-3.83,1.19-4.84l2.82-1.78c-1.89.47-3.8-.68-4.27-2.57-.36-1.44.22-2.95,1.45-3.78l3-1.9c-1.85.62-3.84-.38-4.46-2.23-.51-1.52.08-3.2,1.43-4.07l26.56-17.33-22.87,13.19c-1.65,1.03-3.83.53-4.86-1.12-1.03-1.65-.53-3.83,1.12-4.86h0l39.97-26.88-36.09,20.84c-1.69.96-3.84.36-4.8-1.33-.88-1.56-.45-3.53.99-4.58l52.08-37.4-45.76,26.41c-1.69.97-3.84.38-4.81-1.31-.88-1.54-.48-3.49.93-4.56l40.99-30.86-29.55,17.07c-1.69.96-3.84.37-4.8-1.33-.83-1.46-.51-3.3.75-4.4l22.03-18.86c-1.3.03-2.52-.64-3.19-1.76-.97-1.68-.39-3.83,1.29-4.81l29.7-17.15c1.69-.96,3.84-.37,4.8,1.33.83,1.46.51,3.3-.75,4.4l-20.34,17.42,46.75-26.98c1.7-.95,3.85-.35,4.8,1.35.86,1.53.46,3.45-.92,4.52l-40.98,30.83,57.04-32.93c1.64-1.06,3.82-.58,4.87,1.05,1.06,1.64.58,3.82-1.05,4.87l-52.11,37.4,63.62-36.7c1.7-.94,3.85-.33,4.79,1.38.87,1.58.42,3.56-1.06,4.6l-39.95,26.85,46-26.55c1.68-.98,3.84-.41,4.82,1.28.95,1.63.45,3.71-1.13,4.73l-26.56,17.33,29.99-17.31c1.7-.95,3.85-.34,4.8,1.36.9,1.61.4,3.65-1.14,4.66l-1.66,1.06,3.15-1.82c1.71-.94,3.85-.32,4.79,1.39.88,1.61.39,3.62-1.14,4.64l-.21.13,1.11-.64c1.66-1.01,3.83-.49,4.84,1.17.99,1.63.51,3.75-1.09,4.79l-75.84,51.88,79.61-45.95c1.72-.91,3.85-.26,4.77,1.46.83,1.57.37,3.51-1.08,4.53l-54.14,35.46,54.74-31.61c1.7-.94,3.85-.33,4.79,1.38.87,1.58.42,3.56-1.06,4.6l-80.15,54.09,80.13-46.27c1.67-1,3.83-.46,4.83,1.21.98,1.64.48,3.76-1.13,4.79l-64.74,42.5,62.35-35.99c1.71-.94,3.85-.32,4.79,1.39.88,1.61.39,3.62-1.14,4.64l-10.26,6.45,6.7-3.87c1.67-1,3.83-.46,4.83,1.21.98,1.64.48,3.76-1.13,4.79l-69.08,45.51,65.37-37.74c1.69-.97,3.84-.39,4.81,1.29.95,1.64.42,3.74-1.18,4.75l-3.52,2.21c1.74-.87,3.86-.17,4.73,1.57.8,1.6.28,3.54-1.21,4.52l-14.83,9.35,11.21-6.46c1.71-.93,3.85-.29,4.78,1.42.87,1.6.37,3.6-1.15,4.61l-6.45,4.05,2.82-1.62c1.71-.93,3.85-.29,4.78,1.42.86,1.59.38,3.57-1.11,4.59l-50.83,32.86,47.16-27.22c1.69-.97,3.84-.38,4.81,1.31.93,1.63.42,3.7-1.16,4.72l-28.59,18.17,24.94-14.39c1.7-.94,3.85-.32,4.79,1.38.87,1.58.41,3.57-1.08,4.6l-73.24,48.52,69.53-40.14c1.7-.95,3.85-.34,4.8,1.36.89,1.6.42,3.61-1.1,4.64l-70.6,46.61,66.9-38.62c1.7-.95,3.85-.35,4.8,1.35.91,1.62.4,3.67-1.16,4.68l-15.2,9.58,11.57-6.67c1.71-.93,3.85-.29,4.78,1.42.86,1.59.38,3.59-1.13,4.6l-28.99,18.43,25.33-14.63c1.69-.96,3.84-.37,4.81,1.32.91,1.61.43,3.65-1.11,4.68l-64.58,42.34,60.89-35.15c1.72-.91,3.85-.25,4.76,1.47.84,1.58.35,3.54-1.12,4.55l-25.82,16.38,22.18-12.79c1.69-.96,3.84-.37,4.81,1.32.91,1.6.44,3.63-1.09,4.66l-75.76,50.53,72.03-41.59c1.7-.94,3.85-.33,4.79,1.38.87,1.58.42,3.56-1.06,4.6l-78.64,53.09,74.92-43.25c1.69-.96,3.84-.37,4.81,1.32.91,1.59.44,3.62-1.07,4.65l-74.43,50.35,70.69-40.81c1.69-.96,3.84-.37,4.81,1.32.91,1.61.43,3.65-1.11,4.68l-48.64,31.97,44.97-25.96c1.72-.92,3.85-.28,4.77,1.44.85,1.58.38,3.54-1.09,4.56l-35.13,22.89,31.45-18.16c1.7-.95,3.85-.34,4.8,1.36.9,1.61.4,3.65-1.14,4.66l-9.61,6.15,5.95-3.44c1.7-.95,3.85-.35,4.8,1.35.89,1.59.42,3.59-1.08,4.63l-44.17,29.61,40.45-23.34c1.71-.93,3.85-.29,4.78,1.42.85,1.56.39,3.51-1.05,4.55l-36.34,24.42,33.07-19.1c1.69-.97,3.84-.39,4.81,1.3.91,1.58.46,3.59-1.03,4.64l-43.87,30.65,43.82-25.31c1.69-.96,3.84-.38,4.81,1.32.89,1.57.46,3.55-1,4.61l-40.29,28.73,43.75-25.26c1.71-.94,3.85-.31,4.78,1.4.86,1.57.41,3.53-1.05,4.57l-14.25,9.67,17.93-10.36c1.68-.98,3.84-.41,4.82,1.27.93,1.59.48,3.62-1.03,4.67l-20.83,14.63,29.01-16.73c1.7-.95,3.85-.35,4.8,1.35.88,1.56.44,3.53-1.01,4.58l-16.63,11.74,30.05-17.34c1.69-.96,3.84-.37,4.81,1.32.88,1.55.47,3.52-.97,4.58l-23.09,16.78,90.16-52.02c1.7-.94,3.85-.32,4.79,1.38.87,1.58.41,3.57-1.08,4.6l-33.13,21.96,26.96-15.56c1.68-.98,3.84-.41,4.82,1.27.91,1.57.49,3.57-.98,4.63l-46.42,33.84,34.96-20.23c1.69-.96,3.84-.38,4.81,1.32.89,1.57.46,3.55-1,4.61l-13.94,9.95c1.74-.87,3.86-.16,4.73,1.58.82,1.65.23,3.65-1.35,4.6l-63.09,36.42c-1.69.96-3.84.38-4.81-1.32-.89-1.57-.46-3.55,1-4.61l13.88-9.91-29.21,16.85c-1.7.95-3.85.35-4.8-1.35-.86-1.54-.46-3.47.95-4.53l46.43-33.84-68.81,39.72c-.53.32-1.14.49-1.76.49h0Z"/>
      <path class="cls-9" d="m253.38,397.01c-1.95,0-3.52-1.58-3.53-3.52,0-.7.21-1.39.6-1.97l5.27-7.88-20.32,11.74c-1.67,1-3.83.46-4.83-1.21-.86-1.44-.59-3.3.66-4.42l11.09-10.38-14.36,8.29c-1.68.98-3.84.4-4.82-1.28-.74-1.27-.61-2.86.32-4l10.09-12.37-6.57,3.79c-1.69.97-3.84.39-4.81-1.29-.47-.81-.59-1.77-.35-2.67l1.9-7.13c-1.76-.83-2.52-2.93-1.69-4.69.31-.65.81-1.2,1.43-1.56l3.52-2.05c1.69-.97,3.84-.39,4.81,1.29.46.81.59,1.76.35,2.66l-1.35,5.08,15.82-9.13c1.68-.98,3.84-.4,4.82,1.28.74,1.27.61,2.86-.32,4l-10.09,12.37,24.28-14.01c1.67-1,3.83-.46,4.83,1.21.86,1.44.59,3.3-.66,4.42l-11.06,10.4,6.92-3.98c1.69-.97,3.84-.39,4.81,1.3.67,1.16.62,2.6-.12,3.71l-5.53,8.26c1.46-.26,2.92.42,3.64,1.71.97,1.68.4,3.83-1.28,4.81l-11.69,6.75c-.54.32-1.15.48-1.78.48h0Z"/>
      <path class="cls-9" d="m244.09,304.47c-1.95,0-3.52-1.58-3.52-3.52,0-1.11.52-2.15,1.41-2.82l15.55-11.94-22.64,13.07c-1.7.95-3.85.34-4.79-1.36-.85-1.53-.45-3.45.94-4.51l18.93-14.03-26.17,15.11c-1.69.97-3.84.38-4.81-1.31-.89-1.55-.48-3.51.95-4.58l26.94-19.86-35.4,20.44c-1.69.96-3.84.37-4.81-1.32-.87-1.53-.48-3.47.92-4.54l38.77-29.32-48.13,27.78c-1.7.95-3.85.33-4.79-1.37-.86-1.54-.44-3.48.97-4.53l35.05-25.43-35.55,20.52c-1.69.96-3.84.36-4.8-1.34-.89-1.58-.44-3.57,1.04-4.61l15.95-11.02-13.9,8.02c-1.68.98-3.84.4-4.82-1.28-.88-1.52-.51-3.46.88-4.55l35.72-27.94-31.38,18.09c-1.69.96-3.84.37-4.81-1.32-.88-1.55-.47-3.52.97-4.58l8.82-6.4-1.82,1.04c-1.72.92-3.85.28-4.77-1.44-.75-1.39-.48-3.1.66-4.2l14.87-13.39c-1.93-.27-3.27-2.06-3-3.98.15-1.07.79-2.02,1.73-2.56l24-13.92c1.72-.92,3.85-.28,4.77,1.44.75,1.39.48,3.1-.66,4.2l-12.16,11.01,31.3-18.08c1.7-.94,3.85-.32,4.79,1.38.85,1.53.44,3.46-.95,4.51l-8.83,6.41,16.41-9.46c1.7-.94,3.85-.33,4.79,1.37.83,1.5.47,3.37-.87,4.45l-35.72,27.94,45.54-26.29c1.65-1.03,3.83-.53,4.86,1.12,1.03,1.65.53,3.83-1.12,4.86h0l-15.94,11,19.08-11c1.69-.96,3.84-.37,4.81,1.32.88,1.55.47,3.52-.97,4.58l-35.05,25.43,38.45-22.19c1.7-.95,3.85-.34,4.8,1.36.85,1.52.46,3.43-.91,4.5l-38.73,29.32,40.55-23.4c1.69-.97,3.84-.38,4.81,1.31.89,1.55.48,3.51-.95,4.58l-26.89,19.86,25.6-14.8c1.71-.93,3.85-.3,4.78,1.41.82,1.51.43,3.4-.92,4.46l-18.97,14.06,15.51-8.93c1.69-.97,3.84-.39,4.81,1.3.88,1.53.49,3.46-.9,4.54l-15.56,11.98,9.49-5.48c1.72-.9,3.85-.24,4.76,1.49.85,1.62.31,3.63-1.23,4.61l-55.93,32.28c-.54.31-1.16.46-1.78.45h0Z"/>
      <path class="cls-10" d="m246.08,284.24c-1.95,0-3.53-1.57-3.53-3.52,0-.87.32-1.71.9-2.36l13.14-14.65-25.23,14.57c-1.7.96-3.85.36-4.8-1.34-.84-1.49-.49-3.36.83-4.45l6.16-4.99-8.2,4.73c-1.69.97-3.84.38-4.81-1.3-.86-1.5-.51-3.39.83-4.48l6.71-5.46-6.58,3.79c-1.69.97-3.84.39-4.81-1.29-.84-1.47-.53-3.32.75-4.43l9.39-8.08-6.82,3.93c-1.69.97-3.84.39-4.81-1.3-.75-1.3-.59-2.93.39-4.07l9.74-11.22c-1.91.37-3.76-.88-4.13-2.79-.29-1.48.4-2.97,1.7-3.72l16.75-9.67c1.68-.98,3.84-.41,4.82,1.28.76,1.31.6,2.95-.39,4.09l-9.37,10.78,21.15-12.19c1.69-.96,3.84-.36,4.8,1.33.82,1.45.51,3.28-.74,4.38l-9.38,8.07,12.11-6.99c1.7-.95,3.85-.35,4.8,1.35.83,1.48.49,3.34-.82,4.43l-6.7,5.46,8.85-5.1c1.69-.97,3.84-.38,4.81,1.3.86,1.5.51,3.39-.83,4.48l-6.15,4.98,5.64-3.24c1.69-.97,3.84-.39,4.81,1.29.76,1.32.59,2.98-.43,4.11l-13.19,14.65,5.18-2.99c1.72-.9,3.85-.24,4.76,1.49.85,1.62.31,3.63-1.23,4.61l-24.31,14.02c-.53.32-1.14.49-1.76.49h0Z"/>
      <path class="cls-9" d="m258.85,255.93c-1.95,0-3.52-1.58-3.52-3.53,0-.73.23-1.45.65-2.04l4.58-6.44-9.87,5.7c-1.67,1-3.83.46-4.84-1.21-.63-1.05-.67-2.36-.1-3.45l5.73-11.19-1.35.77c-1.64,1.04-3.82.56-4.87-1.08-1.04-1.64-.56-3.82,1.08-4.87.08-.05.17-.1.26-.15l11.69-6.74c1.35-.8,3.06-.59,4.19.49,1.13,1.08,1.42,2.77.7,4.16l-5.74,11.19,13.58-7.83c1.69-.97,3.84-.39,4.81,1.3.69,1.19.62,2.68-.18,3.8l-4.57,6.43c1.64-1.04,3.82-.56,4.87,1.08,1.04,1.64.56,3.82-1.08,4.87-.08.05-.17.1-.26.15l-14.1,8.13c-.51.29-1.09.45-1.68.45h0Z"/>
      <path class="cls-8" d="m239.15,311.94c-1.95,0-3.52-1.58-3.52-3.52,0-.95.39-1.87,1.07-2.53l7.61-7.36-16.68,9.63c-1.69.97-3.84.39-4.81-1.3-.7-1.21-.61-2.73.22-3.85l7.65-10.25-15.3,8.83c-1.67.99-3.84.44-4.83-1.23-.68-1.15-.66-2.58.06-3.7l3.4-5.51-6.41,3.7c-.87.5-1.92.61-2.88.3-.95-.32-1.72-1.03-2.11-1.96l-3.07-7.15c-1.89.47-3.8-.67-4.28-2.56-.39-1.53.3-3.13,1.67-3.92l2.58-1.49c1.69-.97,3.84-.39,4.81,1.29.07.12.13.24.18.37l3.01,7.05,15.05-8.66c1.67-.99,3.84-.44,4.83,1.23.68,1.15.66,2.58-.06,3.7l-3.4,5.51,18.04-10.45c1.45-.83,3.28-.54,4.39.7,1.11,1.25,1.19,3.11.2,4.45l-7.65,10.25,26.68-15.4c1.67-.99,3.84-.44,4.83,1.23.84,1.41.59,3.22-.6,4.35l-7.63,7.37,22.42-12.95c1.69-.97,3.84-.38,4.81,1.31.84,1.47.51,3.33-.78,4.43l-1.78,1.49,1.55-.9c1.64-1.04,3.82-.56,4.87,1.08s.56,3.82-1.08,4.87c-.08.05-.17.1-.26.15l-36.02,20.78c-1.68.98-3.84.41-4.82-1.28-.86-1.48-.53-3.37.78-4.47l1.78-1.49-12.79,7.38c-.53.31-1.14.48-1.76.47h0Z"/>
      <g>
        <path class="cls-2" d="m411.11,382.96c-.85,29.86,1.41,60.26,0,89.89-7.54,41.7-36.61,44.05-59.99,25.85-19.85-15.46-16.14-26.14-16.14-49.03-.18-52.56.15-104.9.79-157.53h72.61c9.99-.52,17.67-9.03,17.15-19.02-.17-3.33-1.26-6.54-3.14-9.29,9.88-.38,17.58-8.69,17.2-18.57-.14-3.62-1.37-7.11-3.53-10.01,8.92-1.09,16.76-4.61,17.7-15.99,1.56-18.7-16.57-20.05-29.96-20.05-39.14-2.66-64.24-4-91.55,29.05-21.32-92.88-151.55-93.46-171.06.7-30.79-37.09-62.2-30.45-105.2-29.57-22.49,1.59-23.63,36.04.13,36.14-5.88,7.76-4.36,18.81,3.4,24.69,3.06,2.32,6.8,3.58,10.64,3.58-5.84,7.78-4.27,18.83,3.51,24.67,2.91,2.19,6.44,3.42,10.08,3.52h73.53c-.09,38.3.07,76.62.07,114.9-9.34,106.64,18.09,169.74,135.03,166.2,54.62,0,113.09,5.5,146.75-47.73,25.2-39.83,15.67-97.19,15.67-142.05-1.45-26.9-42.23-27.5-43.7-.37h0Zm-18.85-175.4c14.72-1.08,29.49-1.08,44.2,0,6.13,16.4,3.25,21.06-7.36,19.86-3.34,1.08-10.38-2.16-9.87,4.09,0,2.11,1.13,4.23,3.16,4.23,5.47-.2,10.18,3.81,10.87,9.24-.43,5.77-5.1,10.31-10.88,10.57-5.15,1.88-16.78-3.75-17.28,4.14,0,2.11,1.13,4.23,3.15,4.23,5.69-.28,10.53,4.11,10.81,9.81,0,.13.01.26.01.39-1.09,5.83-6.32,9.96-12.24,9.66h-71.05c.24-15.47-.35-30.94-1.75-46.35,18.21-16.48,32-29.89,58.23-29.89h0Zm-306.42,76.39c-14.1.23-17.57-19.43-1.99-20.18,3.45-.19,5.34-8.01,1.22-8.01-9.13-.21-23.84,2.4-25.71-9.95-.63-6.29,4.74-9.91,10.4-10.23,2.23-.13,3.52-2.69,3.48-4.88.23-6.28-12.14-1.66-16.37-3.18-5.75-.09-10.62-4.26-11.59-9.93-3.31-17.62,51.01-8.22,63.33-10.16,21.68.7,35.69,17.52,50.69,31.14-1.9,15.05-2.56,30.23-1.97,45.38h-71.48Zm353.81,222.6c-26.62,67.35-97.47,60.22-156.45,60.22-63.67,0-115.5-30.1-117.4-99.74-.17-72.73-1.2-145.76,0-218.43,9.03-114.79,160.86-111.01,160.72,6.12,1.73,73.31-8.32,150.28,0,223.1,4.6,40.31,65.37,57.01,87.58,20.01,8.56-14.25,5.46-34.48,5.46-50.27v-64.23c-.14-7.62,5.67-14.02,13.27-14.63,7.62.33,13.61,6.64,13.53,14.27,0,38.25,7.66,87.25-6.7,123.59h0Z"/>
        <path class="cls-2" d="m185.54,252.87c.15,64.46,80.94,74.29,110.58,31.9,1-.6,1.68-1.62,1.85-2.78,47.14-86.96-110.2-127.68-112.43-29.13h0Zm60.52,53.08c-16.11-.19-31.2-7.91-40.78-20.86h81.66c-9.42,13.2-24.67,20.98-40.88,20.86Zm14.26-57.45c-5.45.03-9.89-4.36-9.93-9.81-.03-5.45,4.36-9.89,9.81-9.93s9.89,4.36,9.93,9.81c.03,5.45-4.36,9.89-9.81,9.93Zm-.11,8.46c3.94-.21,7.71-1.7,10.74-4.23.7,20.37-26.17,31.23-41,18.16-17.39-13.05-5.95-43.43,15.35-41.12-4.92,8.85-1.73,20.01,7.12,24.92,2.39,1.33,5.06,2.11,7.79,2.27Zm31.83,19.8h-24.9c8.35-8.16,11.83-20.1,9.16-31.47,5.73-13.31-8.1-29.9-22.15-23.73-32.26-8.16-52.87,33.37-28.84,55.19h-25.27c-13.28-26.1-2.89-58.03,23.21-71.31,5.49-2.79,11.43-4.61,17.54-5.37,40.72-5.51,70.36,42.08,51.25,76.68h0Z"/>
        <path class="cls-2" d="m119.69,228.36h-21.15c-4.82,0-6.34,6.46-.83,6.46h21.15c4.82,0,6.38-6.46.83-6.46Z"/>
        <path class="cls-2" d="m133.6,255.62h-21.15c-4.01,0-4.99,8.32-.44,8.32h21.15c4.01,0,4.99-8.32.44-8.32Z"/>
        <path class="cls-2" d="m373.75,235.76h21.15c4.1,0,2.89-8.35-1.35-8.35h-21.15c-4.13,0-2.92,8.35,1.35,8.35Z"/>
        <path class="cls-2" d="m359.65,263.95h21.15c4.1,0,2.82-8.35-1.41-8.35h-21.15c-4.09,0-2.82,8.35,1.41,8.35Z"/>
        <path class="cls-2" d="m300.14,341.2c-19,18.58-90.28,18.17-108.89-.26-3.57-3.74-5.7,3.99-2.95,6.87,9.06,7.9,20.47,12.6,32.46,13.39-2.11,21.25.84,36.94,25.71,35.73,25.38,1.51,26.79-14.8,25.07-35.76,12.35-.72,24.11-5.52,33.43-13.65,2.76-2.85-1.44-9.87-4.84-6.32h0Zm-36.99,34.7c1.06,11.18-6.9,16.09-17.3,14.57-3.81.5-7.68.15-11.33-1.01-8.97-5.89-4.23-18.38-5.34-27.35,11.32.72,22.67.69,33.98-.11.01,4.63.05,9.26,0,13.89Z"/>
      </g>
    </g>
  </g>
  <g id="Capa_3" data-name="Capa 3">
    <g id="Capa_1-2" data-name="Capa 1">
      <g>
        <g>
          <g>
            <path class="cls-4" d="m305.27,16.77s-1.83,1.17-4.61,3.6c-2.79,2.43-6.49,6.19-10.19,11.56-3.7,5.32-7.35,12.12-10.19,20.48-2.84,8.31-4.77,18.15-5.48,29.56-.66,11.41,0,23.83,1.01,36,1.01,12.17,2.33,24.08,3.45,34.53,1.12,10.39,1.98,19.52,2.53,26.01.56,6.44.86,10.29.86,10.29,0,0,1.32-3.65,3.5-9.73,2.23-6.13,5.42-14.6,9.18-24.44,3.75-9.84,8.11-21.04,12.27-32.5,4.11-11.51,7.96-23.17,10.29-34.43,2.28-11.2,2.99-21.34,2.38-30.07-.56-8.77-2.38-16.27-4.56-22.36-2.18-6.13-4.82-10.8-6.9-13.84-2.08-3.09-3.55-4.66-3.55-4.66Z"/>
            <path class="cls-3" d="m319.92,74.67c-6.49,5.68-12.12,10.8-16.38,14.7-4.31,3.95-7.35,7-8.87,8.37-1.06-1.77-3.35-5.37-6.39-10.39-3.14-4.87-7.2-11.15-12.02-18.4-.15,1.17-.35,2.33-.51,3.5,5.42,8.21,9.84,14.96,12.88,19.77,3.04,4.87,4.82,7.76,4.82,7.81l.71,1.17,1.01-.96s2.54-2.38,6.69-6.29c4.21-3.8,10.24-9.33,17.59-15.77.15-1.22.3-2.38.41-3.55l.05.05Z"/>
            <path class="cls-13" d="m280.93,202.03s1.01-3.09,2.59-9.43c1.57-6.34,3.7-15.92,5.73-29,1.98-13.08,3.4-28.24,4.06-40.21.66-11.97.71-20.69.71-20.69,0,0-2.23,8.42-4.66,20.18-2.48,11.71-5.07,26.77-6.49,39.9s-1.83,22.97-1.98,29.46c-.1,6.54.05,9.73.05,9.73v.05Z"/>
            <path class="cls-7" d="m277.33,63.11c5.37,8.31,9.89,15.16,13.08,20.23,3.19,5.02,5.07,8.01,5.07,8.01,0,0,2.59-2.38,7-6.44,4.46-4.01,10.7-9.63,17.9-16.12.86-16.58-2.69-29.61-6.69-38.58-1.98-4.51-4.11-7.76-5.68-10.04-1.57-2.23-2.69-3.4-2.69-3.4,0,0-1.32.81-3.45,2.59-2.13,1.77-5.02,4.41-8.06,8.16-6.19,7.61-12.93,19.37-16.43,35.59h-.05Z"/>
            <path class="cls-12" d="m317.89,87.65c2.28-11.2,2.99-21.34,2.38-30.07-.56-8.77-2.38-16.27-4.56-22.36-2.18-6.13-4.82-10.8-6.9-13.84-2.08-3.09-3.55-4.66-3.55-4.66l-22.61,171.97s1.32-3.65,3.5-9.73c2.23-6.13,5.42-14.6,9.18-24.44,3.75-9.84,8.11-21.04,12.27-32.5,4.11-11.51,7.96-23.17,10.29-34.43v.05Z"/>
          </g>
          <g>
            <path class="cls-5" d="m366.92,47.8s-2.03.66-5.32,2.28c-3.3,1.67-7.76,4.31-12.62,8.42-4.87,4.16-10.09,9.73-14.86,16.98-4.77,7.25-9.13,16.12-12.57,26.82-3.5,10.7-5.93,22.66-8.01,34.53-2.08,11.81-3.8,23.47-5.37,33.72-1.57,10.24-3.04,19.16-4.11,25.45-1.06,6.24-1.72,9.99-1.72,9.99,0,0,2.18-3.14,5.78-8.42,3.6-5.17,8.77-12.47,14.86-20.94,6.03-8.42,13.03-18.1,19.82-27.89,6.74-9.84,13.38-20.08,18.4-30.17,5.02-10.09,8.16-19.52,9.84-28.04,1.67-8.57,1.83-16.07,1.27-22.41-.61-6.34-1.88-11.46-3.09-14.96-1.22-3.45-2.23-5.32-2.23-5.32l-.05-.05Z"/>
            <path class="cls-9" d="m366.31,106.71c-3.8,1.83-7.3,3.6-10.6,5.32-3.19,1.67-6.13,3.19-8.72,4.56-5.07,2.64-8.72,4.72-10.49,5.68-.61-1.93-1.83-5.93-3.5-11.46-1.72-5.58-4.11-12.42-6.84-20.53-.46,1.06-.91,2.13-1.37,3.19,1.52,4.51,2.94,8.67,4.21,12.42.61,1.83,1.17,3.55,1.72,5.17.51,1.62.96,3.14,1.42,4.51,1.67,5.37,2.64,8.57,2.69,8.62l.41,1.27,1.22-.66s.76-.41,2.13-1.17,3.3-1.77,5.78-3.09c2.54-1.32,5.53-2.89,8.97-4.72,1.77-.91,3.6-1.88,5.58-2.89,1.98-.96,4.01-1.98,6.13-2.99.46-1.12.86-2.18,1.27-3.24Z"/>
            <path class="cls-13" d="m297.31,218.15s1.72-2.69,4.82-8.37c3.09-5.68,7.5-14.25,12.67-26.16s10.34-26.11,13.94-37.32c3.65-11.2,5.83-19.47,5.83-19.47,0,0-4.26,7.45-9.48,18.05-5.27,10.55-11.51,24.23-16.17,36.4-4.66,12.17-7.5,21.4-9.23,27.58-1.72,6.19-2.38,9.28-2.38,9.28Z"/>
            <path class="cls-1" d="m328.64,84.96c3.04,9.23,5.68,16.83,7.45,22.51,1.77,5.53,2.84,8.82,2.84,8.82,0,0,.76-.41,2.18-1.17s3.5-1.88,6.03-3.19c2.59-1.37,5.73-2.99,9.23-4.82,3.55-1.88,7.55-3.95,11.81-6.08,5.02-15.72,4.92-28.95,3.3-38.43-1.57-9.53-4.61-14.91-4.61-14.91,0,0-5.98,1.83-13.69,7.4-7.76,5.58-17.24,15.21-24.59,29.76l.05.1Z"/>
            <path class="cls-12" d="m361.14,118.52c5.02-10.09,8.16-19.52,9.84-28.04,1.67-8.57,1.83-16.07,1.27-22.41-.61-6.34-1.88-11.46-3.09-14.96-1.22-3.45-2.23-5.32-2.23-5.32l-64.59,158.13s2.18-3.14,5.78-8.42c3.6-5.17,8.77-12.47,14.86-20.94,6.03-8.42,13.03-18.1,19.82-27.89,6.74-9.84,13.38-20.08,18.4-30.17h-.05Z"/>
          </g>
          <g>
            <path class="cls-4" d="m418.28,91.2s-1.98.1-5.27.81-7.96,2.03-13.23,4.51c-5.22,2.43-11.26,6.24-17.19,11.51-5.98,5.27-11.91,12.17-17.59,20.84-5.63,8.67-10.65,18.71-15.31,28.7-4.66,10.04-8.87,19.82-12.78,28.65-7.71,17.54-13.54,30.01-13.54,30.01,0,0,2.64-2.23,7.1-5.98,4.46-3.75,10.8-9.02,18.2-15.11,7.4-6.13,15.77-12.83,24.13-20.03,8.37-7.15,16.68-14.7,23.47-22.46,6.84-7.76,11.86-15.36,15.36-22.56,3.5-7.15,5.53-13.94,6.49-19.62.96-5.73,1.01-10.55.81-13.94-.2-3.4-.66-5.32-.66-5.32Z"/>
            <path class="cls-3" d="m403.67,143.31c-3.8.76-7.35,1.52-10.6,2.18-3.24.76-6.24,1.42-8.82,2.03-5.12,1.22-8.82,2.08-10.65,2.48-.1-1.88-.25-5.68-.46-10.9-.1-2.64-.2-5.73-.46-9.02-.25-3.35-.51-6.95-.76-10.85-.66.81-1.32,1.67-1.98,2.54.3,4.36.61,8.37.86,11.97.15,3.6.3,6.74.46,9.38.2,5.12.35,8.16.35,8.21v1.22l1.27-.25c.05,0,2.99-.71,8.01-1.88,2.53-.61,5.63-1.32,9.13-2.08,3.5-.71,7.45-1.52,11.71-2.43.66-.86,1.27-1.72,1.93-2.59Z"/>
            <path class="cls-13" d="m316.07,225.85s2.18-1.93,6.24-6.19c4.06-4.26,10.04-10.8,17.49-20.18,7.4-9.38,15.36-20.69,21.24-29.81,5.93-9.13,9.84-15.97,9.84-15.97,0,0-5.53,5.63-12.73,13.79-7.2,8.11-15.97,18.81-23.02,28.49-7,9.68-11.71,17.19-14.75,22.26-2.99,5.07-4.31,7.66-4.31,7.66v-.05Z"/>
            <path class="cls-7" d="m375.44,115.13c.25,4.36.56,8.47.76,12.12.2,3.65.35,6.9.46,9.63.3,5.32.46,8.47.46,8.47,0,0,3.09-.71,8.26-1.83,2.64-.61,5.83-1.32,9.38-2.13,3.6-.76,7.6-1.62,11.86-2.53,4.06-6.34,6.9-12.47,8.82-18.15s2.84-10.75,3.24-15.16c.41-4.36.25-7.96.05-10.44-.2-2.48-.56-3.9-.56-3.9,0,0-5.73.25-13.94,3.4-8.16,3.04-18.86,9.38-28.85,20.58l.05-.05Z"/>
            <path class="cls-12" d="m396.32,152.59c6.84-7.76,11.86-15.36,15.36-22.56,3.5-7.15,5.53-13.94,6.49-19.62.96-5.73,1.01-10.55.81-13.94-.2-3.4-.66-5.32-.66-5.32l-94.86,125.03s2.64-2.23,7.1-5.98c4.46-3.75,10.8-9.02,18.2-15.11,7.4-6.13,15.77-12.83,24.13-20.03,8.37-7.15,16.68-14.7,23.47-22.46h-.05Z"/>
          </g>
          <g>
            <path class="cls-5" d="m452.4,139.01s-1.77-.41-4.87-.56c-3.14-.1-7.6,0-12.93,1.06-5.32,1.06-11.41,2.94-18,6.34s-13.54,8.16-20.63,14.65c-7.1,6.49-13.89,14.3-20.38,22.16-6.44,7.81-12.67,15.82-18.1,22.76-5.48,6.95-10.19,12.88-13.59,17.09-3.45,4.21-5.48,6.74-5.48,6.74,0,0,2.89-1.42,7.76-3.75,4.87-2.33,11.86-5.63,19.82-9.33,7.96-3.7,17.09-7.86,26.26-12.37s18.35-9.38,26.26-14.8,14.15-11.05,18.91-16.68c4.77-5.63,8.11-11.15,10.39-16.12,2.23-4.92,3.35-9.18,3.9-12.27.56-3.04.61-4.87.61-4.87l.05-.05Z"/>
            <path class="cls-9" d="m427.3,182.3c-7.3-.3-13.44-.61-18.4-.66-4.87-.05-8.47-.15-10.19-.15.2-.86.51-2.13.86-3.8s.81-3.7,1.27-6.08c.96-4.77,2.33-11.05,3.55-18.05-.76.61-1.57,1.22-2.38,1.83-1.37,7.96-2.89,14.75-3.8,19.37-.51,2.33-.86,4.16-1.17,5.48-.3,1.27-.46,1.98-.46,2.03l-.25,1.12h1.17s2.89.1,7.66.15c1.22,0,2.53,0,4.01.05,1.42.05,2.99.1,4.61.15,3.35.15,7.1.3,11.15.46.76-.61,1.57-1.27,2.28-1.88h.1Z"/>
            <path class="cls-13" d="m329.65,236.2s2.38-1.27,7.05-4.11c4.61-2.89,11.51-7.4,20.33-14.04,8.82-6.69,18.51-15.01,25.91-21.85,7.4-6.79,12.47-12.02,12.47-12.02,0,0-6.24,3.75-14.55,9.38-8.31,5.58-18.71,13.13-27.23,20.18-8.52,7.05-14.45,12.68-18.35,16.58-3.9,3.85-5.68,5.93-5.68,5.93l.05-.05Z"/>
            <path class="cls-1" d="m408.54,150.62c-.35,1.98-.76,3.9-1.12,5.78-.35,1.88-.76,3.65-1.06,5.32-.66,3.3-1.27,6.24-1.77,8.67-.46,2.43-.86,4.31-1.17,5.68-.3,1.32-.41,2.08-.41,2.08,0,0,2.94.1,7.91.25,5.07.05,11.91.41,20.13.66,10.14-9.48,15.77-19.42,18.51-27.07,2.74-7.6,2.84-12.88,2.84-12.88,0,0-1.27-.25-3.55-.46s-5.63-.2-9.68.25c-8.11.91-18.96,3.95-30.62,11.76v-.05Z"/>
            <path class="cls-12" d="m418.58,188.94c7.91-5.42,14.15-11.05,18.91-16.68s8.11-11.15,10.39-16.12c2.23-4.92,3.35-9.18,3.9-12.27.56-3.04.61-4.87.61-4.87l-113.97,90.2s2.89-1.42,7.76-3.75c4.87-2.33,11.86-5.63,19.82-9.33,7.96-3.7,17.09-7.86,26.26-12.37s18.35-9.38,26.26-14.8h.05Z"/>
          </g>
          <g>
            <path class="cls-4" d="m477.6,188.03s-1.52-.81-4.36-1.72c-1.42-.46-3.14-.96-5.17-1.37-2.03-.41-4.41-.76-7-.96-5.22-.41-11.41-.15-18.3,1.27s-14.6,4.06-22.81,8.21c-8.21,4.16-16.48,9.63-24.59,15.26-8.06,5.63-15.77,11.41-22.61,16.43-3.4,2.48-6.59,4.82-9.43,6.9-2.89,2.08-5.42,3.9-7.55,5.48-4.21,3.04-6.74,4.82-6.74,4.82,0,0,3.04-.56,8.16-1.47,5.17-.96,12.37-2.18,20.74-3.55s17.9-2.94,27.53-4.77c9.63-1.88,19.32-4.01,28.04-7,8.67-2.99,15.97-6.69,21.8-10.65s10.29-8.21,13.64-12.22,5.58-7.71,6.84-10.34c1.32-2.69,1.83-4.31,1.83-4.31h0Z"/>
            <path class="cls-3" d="m443.32,221.65c-6.59-2.13-12.42-3.9-16.88-5.27-4.46-1.37-7.86-2.28-9.38-2.74.76-1.47,2.38-4.51,4.61-8.67,2.13-4.16,4.87-9.53,7.96-15.82-.86.35-1.77.71-2.64,1.06-3.45,7.05-6.44,12.88-8.52,16.93-2.18,4.11-3.45,6.49-3.45,6.54l-.51.96,1.06.3s2.69.76,7.1,2.08c4.36,1.37,10.65,3.24,18.1,5.68.86-.41,1.77-.76,2.64-1.17l-.1.1Z"/>
            <path class="cls-13" d="m339.08,246.64s2.53-.56,7.61-2.03c5.02-1.47,12.57-3.9,22.46-7.81,9.89-3.95,20.99-9.18,29.56-13.59s14.65-7.96,14.65-7.96c0,0-6.74,1.88-15.87,4.97-9.13,3.04-20.63,7.4-30.32,11.71-9.68,4.36-16.68,8.06-21.24,10.65s-6.74,4.06-6.74,4.06h-.1Z"/>
            <path class="cls-7" d="m434.09,187.58c-3.55,6.95-6.59,12.98-8.77,17.29-2.18,4.26-3.5,6.74-3.5,6.74,0,0,2.74.81,7.3,2.18,4.56,1.42,11,3.4,18.45,5.73,11.86-6.19,19.47-13.94,24.03-20.33,2.33-3.19,3.75-5.98,4.66-7.96.91-2.03,1.27-3.19,1.27-3.19,0,0-1.12-.56-3.19-1.32-2.08-.71-5.07-1.67-8.97-2.23-7.76-1.17-18.66-1.12-31.33,3.09h.05Z"/>
            <path class="cls-12" d="m433.49,225.6c8.67-2.99,15.97-6.69,21.8-10.65,5.83-3.95,10.29-8.21,13.64-12.22s5.58-7.71,6.84-10.34c1.32-2.69,1.83-4.31,1.83-4.31l-128.58,54.35s3.04-.56,8.16-1.47c5.17-.96,12.37-2.18,20.74-3.55s17.9-2.94,27.53-4.77c9.63-1.88,19.32-4.01,28.04-7v-.05Z"/>
          </g>
          <g>
            <path class="cls-5" d="m473.69,232.7s-1.32-.86-3.75-2.03c-2.43-1.12-6.03-2.54-10.55-3.5-4.61-.96-10.19-1.47-16.58-.96-6.39.46-13.54,1.93-21.34,4.66-7.86,2.79-15.92,6.69-23.78,10.8-7.86,4.11-15.41,8.37-22.11,12.02-13.49,7.45-23.27,12.67-23.27,12.67,0,0,2.79-.15,7.5-.35s11.31-.46,18.91-.76c7.66-.3,16.43-.56,25.2-1.06,8.82-.56,17.75-1.37,25.91-3.04,8.11-1.67,15.06-4.11,20.79-7,5.78-2.89,10.19-6.19,13.64-9.33,3.45-3.19,5.83-6.24,7.35-8.47,1.52-2.23,2.13-3.65,2.13-3.65h-.05Z"/>
            <path class="cls-9" d="m439.06,258.81c-5.58-2.69-10.6-4.92-14.5-6.64-3.85-1.72-6.64-2.94-8.06-3.55,1.67-2.43,7.2-9.94,14.04-20.38-.81.2-1.67.41-2.48.66-3.95,5.93-7.15,10.75-9.63,14.15-2.38,3.4-3.8,5.37-3.8,5.42l-.56.81.91.41s.61.25,1.67.71c1.01.46,2.53,1.12,4.41,1.98,3.75,1.72,9.28,4.11,15.51,7.15.81-.25,1.67-.51,2.48-.71Z"/>
            <path class="cls-13" d="m342.94,269.05s2.38-.2,7.05-.91c4.66-.76,11.66-2.03,20.94-4.41,9.28-2.38,19.87-5.78,28.04-8.77,8.16-2.94,13.99-5.42,13.99-5.42,0,0-6.29.91-14.8,2.59-8.52,1.67-19.37,4.21-28.54,6.95-9.18,2.74-15.87,5.27-20.23,7.05-4.41,1.77-6.49,2.84-6.49,2.84l.05.1Z"/>
            <path class="cls-1" d="m434.8,227.32c-4.01,5.88-7.35,10.85-9.84,14.4-2.43,3.55-3.85,5.63-3.85,5.63,0,0,2.33,1.06,6.24,2.84,1.98.91,4.31,1.98,7,3.19,1.37.61,2.79,1.27,4.26,1.93,1.47.71,2.99,1.42,4.61,2.13,5.68-2.08,10.49-4.66,14.45-7.3,3.95-2.69,7.05-5.48,9.43-8.06s4.11-4.92,5.17-6.59c1.01-1.67,1.47-2.69,1.47-2.69,0,0-3.75-2.59-10.44-4.56-6.69-1.98-16.58-3.14-28.39-.86l-.1-.05Z"/>
            <path class="cls-12" d="m429.84,261.19c8.11-1.67,15.06-4.11,20.79-7,5.78-2.89,10.19-6.19,13.64-9.33,3.45-3.19,5.83-6.24,7.35-8.47,1.52-2.23,2.13-3.65,2.13-3.65l-121.38,33.72s2.79-.15,7.5-.35,11.31-.46,18.91-.76c7.66-.3,16.43-.56,25.2-1.06,8.82-.56,17.75-1.37,25.91-3.04l-.05-.05Z"/>
          </g>
          <g>
            <path class="cls-4" d="m463.4,276.86s-.2-.25-.71-.71c-.46-.46-1.17-1.06-2.13-1.83-1.88-1.47-4.72-3.4-8.47-5.17-3.75-1.77-8.52-3.35-14.15-4.26s-12.17-1.12-19.52-.35c-7.35.76-15.21,2.48-22.82,4.41-7.66,1.93-15.06,4.06-21.65,5.88-6.54,1.83-12.27,3.35-16.33,4.46-4.01,1.06-6.44,1.72-6.44,1.72,0,0,9.68,1.77,23.17,4.51,6.74,1.32,14.25,2.89,22.05,4.26,7.76,1.32,15.72,2.48,23.12,2.69,7.4.2,13.89-.46,19.42-1.83,5.53-1.32,10.24-3.24,13.79-5.27,3.6-2.03,6.29-4.16,8.06-5.78s2.64-2.74,2.64-2.74h-.05Z"/>
            <path class="cls-3" d="m428.01,292.32c-2.18-1.72-4.21-3.35-6.03-4.82s-3.6-2.79-5.12-3.95c-2.99-2.28-5.17-3.9-6.24-4.72,1.01-.86,3.04-2.69,5.83-5.17,1.42-1.27,3.04-2.74,4.82-4.31,1.72-1.62,3.65-3.4,5.68-5.27h-2.28c-2.28,2.13-4.36,4.11-6.29,5.83s-3.6,3.19-4.97,4.46c-2.74,2.43-4.36,3.9-4.41,3.9l-.66.61.71.56s1.77,1.32,4.66,3.6c1.47,1.12,3.3,2.48,5.32,4.06,2.03,1.62,4.26,3.4,6.69,5.32.76,0,1.52-.1,2.28-.1Z"/>
            <path class="cls-13" d="m342.53,281.37s2.08.35,6.24.66c4.21.3,10.55.66,19.11.51,8.57-.15,18.4-.91,26.11-1.83,7.71-.86,13.28-1.77,13.28-1.77,0,0-1.42-.1-3.75-.3-2.38-.15-5.73-.35-9.63-.51-7.76-.3-17.64-.35-26.21.15-8.52.51-14.8,1.32-19.01,1.93-4.16.66-6.19,1.12-6.19,1.12l.05.05Z"/>
            <path class="cls-7" d="m430.8,264.13c-4.56,4.26-8.67,7.86-11.51,10.44-2.84,2.54-4.51,4.06-4.51,4.06,0,0,1.77,1.37,4.77,3.75,1.52,1.17,3.35,2.59,5.48,4.21,2.08,1.62,4.36,3.45,6.79,5.37,10.7-1.32,18.76-4.92,23.88-8.42,5.17-3.5,7.71-6.69,7.71-6.69,0,0-.66-.76-2.03-1.88-1.37-1.12-3.4-2.69-6.13-4.21-2.74-1.52-6.08-3.09-10.19-4.31-4.11-1.22-8.87-2.08-14.25-2.33Z"/>
            <path class="cls-12" d="m419.49,292.47c7.4.2,13.89-.46,19.42-1.83,5.53-1.32,10.24-3.24,13.79-5.27,3.6-2.03,6.29-4.16,8.06-5.78s2.64-2.74,2.64-2.74l-112.2,4.21s9.68,1.77,23.17,4.51c6.74,1.32,14.25,2.89,22.05,4.26,7.76,1.32,15.72,2.48,23.12,2.69l-.05-.05Z"/>
          </g>
          <g>
            <path class="cls-4" d="m189.87,16.77s1.83,1.17,4.61,3.6c2.79,2.43,6.49,6.19,10.19,11.56,3.7,5.32,7.35,12.12,10.19,20.48,2.84,8.31,4.77,18.15,5.48,29.56.66,11.41,0,23.83-1.01,36-1.01,12.17-2.33,24.08-3.45,34.53-1.12,10.39-1.98,19.52-2.53,26.01-.56,6.44-.86,10.29-.86,10.29,0,0-1.32-3.65-3.5-9.73-2.23-6.13-5.42-14.6-9.18-24.44-3.75-9.84-8.11-21.04-12.27-32.5-4.11-11.51-7.96-23.17-10.29-34.43-2.28-11.2-2.99-21.34-2.38-30.07.56-8.77,2.38-16.27,4.56-22.36,2.18-6.13,4.82-10.8,6.9-13.84,2.08-3.09,3.55-4.66,3.55-4.66Z"/>
            <path class="cls-3" d="m175.27,74.67c6.49,5.68,12.12,10.8,16.38,14.7,4.31,3.95,7.35,7,8.87,8.37,1.06-1.77,3.35-5.37,6.39-10.39,3.14-4.87,7.2-11.15,12.02-18.4.15,1.17.35,2.33.51,3.5-5.42,8.21-9.84,14.96-12.88,19.77-3.04,4.87-4.82,7.76-4.82,7.81l-.71,1.17-1.01-.96s-2.54-2.38-6.69-6.29c-4.21-3.8-10.24-9.33-17.59-15.77-.15-1.22-.3-2.38-.41-3.55l-.05.05Z"/>
            <path class="cls-13" d="m214.26,202.03s-1.01-3.09-2.59-9.43c-1.57-6.34-3.7-15.92-5.73-29-1.98-13.08-3.4-28.24-4.06-40.21-.66-11.97-.71-20.69-.71-20.69,0,0,2.23,8.42,4.66,20.18,2.48,11.71,5.07,26.77,6.49,39.9,1.47,13.13,1.83,22.97,1.98,29.46.1,6.54-.05,9.73-.05,9.73v.05Z"/>
            <path class="cls-7" d="m217.86,63.11c-5.37,8.31-9.89,15.16-13.08,20.23-3.19,5.02-5.07,8.01-5.07,8.01,0,0-2.59-2.38-6.95-6.44-4.46-4.01-10.7-9.63-17.9-16.12-.86-16.58,2.69-29.61,6.69-38.58,1.98-4.51,4.11-7.76,5.68-10.04,1.57-2.23,2.69-3.4,2.69-3.4,0,0,1.32.81,3.45,2.59,2.13,1.77,5.02,4.41,8.06,8.16,6.19,7.61,12.93,19.37,16.43,35.59Z"/>
            <path class="cls-12" d="m177.3,87.65c-2.28-11.2-2.99-21.34-2.38-30.07.56-8.77,2.38-16.27,4.56-22.36,2.18-6.13,4.82-10.8,6.9-13.84,2.08-3.09,3.55-4.66,3.55-4.66l22.61,171.97s-1.32-3.65-3.5-9.73c-2.23-6.13-5.42-14.6-9.18-24.44-3.75-9.84-8.11-21.04-12.27-32.5-4.11-11.51-7.96-23.17-10.29-34.43v.05Z"/>
          </g>
          <g>
            <path class="cls-5" d="m128.27,47.8s2.03.66,5.32,2.28c3.3,1.67,7.76,4.31,12.62,8.42,4.87,4.16,10.09,9.73,14.86,16.98,4.77,7.25,9.13,16.12,12.57,26.82,3.5,10.7,5.93,22.66,8.01,34.53,2.08,11.81,3.8,23.47,5.37,33.72s3.04,19.16,4.11,25.45c1.06,6.24,1.72,9.99,1.72,9.99,0,0-2.18-3.14-5.78-8.42-3.6-5.17-8.77-12.47-14.86-20.94-6.03-8.42-13.03-18.1-19.82-27.89-6.74-9.84-13.38-20.08-18.4-30.17-5.02-10.09-8.16-19.52-9.84-28.04-1.67-8.57-1.83-16.07-1.27-22.41.61-6.34,1.88-11.46,3.09-14.96,1.22-3.45,2.23-5.32,2.23-5.32l.05-.05Z"/>
            <path class="cls-9" d="m128.88,106.71c3.8,1.83,7.3,3.6,10.6,5.32,3.19,1.67,6.13,3.19,8.72,4.56,5.07,2.64,8.72,4.72,10.49,5.68.61-1.93,1.83-5.93,3.5-11.46,1.72-5.58,4.11-12.42,6.84-20.53.46,1.06.91,2.13,1.37,3.19-1.52,4.51-2.94,8.67-4.21,12.42-.61,1.83-1.17,3.55-1.72,5.17-.51,1.62-.96,3.14-1.42,4.51-1.67,5.37-2.64,8.57-2.69,8.62l-.41,1.27-1.22-.66s-.76-.41-2.13-1.17c-1.37-.76-3.3-1.77-5.78-3.09-2.53-1.32-5.53-2.89-8.97-4.72-1.77-.91-3.6-1.88-5.58-2.89-1.98-.96-4.01-1.98-6.13-2.99-.46-1.12-.86-2.18-1.27-3.24Z"/>
            <path class="cls-13" d="m197.88,218.15s-1.72-2.69-4.82-8.37c-3.09-5.68-7.5-14.25-12.68-26.16-5.17-11.91-10.34-26.11-13.94-37.32-3.65-11.2-5.83-19.47-5.83-19.47,0,0,4.26,7.45,9.48,18.05,5.27,10.55,11.51,24.23,16.17,36.4,4.66,12.17,7.5,21.4,9.23,27.58,1.72,6.19,2.38,9.28,2.38,9.28Z"/>
            <path class="cls-1" d="m166.55,84.96c-3.04,9.23-5.68,16.83-7.45,22.51-1.77,5.53-2.84,8.82-2.84,8.82,0,0-.76-.41-2.18-1.17s-3.5-1.88-6.03-3.19c-2.59-1.37-5.73-2.99-9.23-4.82-3.55-1.88-7.55-3.95-11.81-6.08-5.02-15.72-4.92-28.95-3.3-38.43,1.57-9.53,4.61-14.91,4.61-14.91,0,0,5.98,1.83,13.69,7.4,7.76,5.58,17.24,15.21,24.59,29.76l-.05.1Z"/>
            <path class="cls-12" d="m134.05,118.52c-5.02-10.09-8.16-19.52-9.84-28.04-1.67-8.57-1.83-16.07-1.27-22.41.61-6.34,1.88-11.46,3.09-14.96,1.22-3.45,2.23-5.32,2.23-5.32l64.59,158.13s-2.18-3.14-5.78-8.42c-3.6-5.17-8.77-12.47-14.86-20.94-6.03-8.42-13.03-18.1-19.82-27.89-6.74-9.84-13.38-20.08-18.4-30.17h.05Z"/>
          </g>
          <g>
            <path class="cls-4" d="m76.91,91.2s1.98.1,5.27.81,7.96,2.03,13.23,4.51c5.22,2.43,11.26,6.24,17.19,11.51,5.98,5.27,11.91,12.17,17.59,20.84,5.63,8.67,10.65,18.71,15.31,28.7,4.66,10.04,8.87,19.82,12.78,28.65,7.71,17.54,13.54,30.01,13.54,30.01,0,0-2.64-2.23-7.1-5.98-4.46-3.75-10.8-9.02-18.2-15.11-7.4-6.13-15.77-12.83-24.13-20.03-8.37-7.15-16.68-14.7-23.47-22.46-6.84-7.76-11.86-15.36-15.36-22.56-3.5-7.15-5.53-13.94-6.49-19.62-.96-5.73-1.01-10.55-.81-13.94s.66-5.32.66-5.32Z"/>
            <path class="cls-3" d="m91.46,143.31c3.8.76,7.35,1.52,10.6,2.18,3.24.76,6.24,1.42,8.82,2.03,5.12,1.22,8.82,2.08,10.65,2.48.1-1.88.25-5.68.46-10.9.1-2.64.2-5.73.46-9.02.25-3.35.51-6.95.76-10.85.66.81,1.32,1.67,1.98,2.54-.3,4.36-.61,8.37-.86,11.97-.15,3.6-.3,6.74-.46,9.38-.2,5.12-.35,8.16-.35,8.21v1.22l-1.27-.25c-.05,0-2.99-.71-8.01-1.88-2.54-.61-5.63-1.32-9.13-2.08-3.5-.71-7.45-1.52-11.71-2.43-.66-.86-1.27-1.72-1.93-2.59Z"/>
            <path class="cls-13" d="m179.12,225.85s-2.18-1.93-6.24-6.19c-4.06-4.26-10.04-10.8-17.49-20.18-7.4-9.38-15.36-20.69-21.24-29.81-5.93-9.13-9.84-15.97-9.84-15.97,0,0,5.53,5.63,12.73,13.79,7.2,8.11,15.97,18.81,23.02,28.49,7,9.68,11.71,17.19,14.75,22.26,2.99,5.07,4.31,7.66,4.31,7.66v-.05Z"/>
            <path class="cls-7" d="m119.7,115.13c-.25,4.36-.56,8.47-.76,12.12-.2,3.65-.35,6.9-.46,9.63-.3,5.32-.46,8.47-.46,8.47,0,0-3.09-.71-8.26-1.83-2.64-.61-5.83-1.32-9.38-2.13-3.6-.76-7.6-1.62-11.86-2.53-4.06-6.34-6.9-12.47-8.82-18.15s-2.84-10.75-3.24-15.16c-.41-4.36-.25-7.96-.05-10.44.2-2.48.56-3.9.56-3.9,0,0,5.73.25,13.94,3.4,8.16,3.04,18.86,9.38,28.85,20.58l-.05-.05Z"/>
            <path class="cls-12" d="m98.87,152.59c-6.84-7.76-11.86-15.36-15.36-22.56-3.5-7.15-5.53-13.94-6.49-19.62-.96-5.73-1.01-10.55-.81-13.94.2-3.4.66-5.32.66-5.32l94.86,125.03s-2.64-2.23-7.1-5.98-10.8-9.02-18.2-15.11c-7.4-6.13-15.77-12.83-24.13-20.03-8.37-7.15-16.68-14.7-23.47-22.46h.05Z"/>
          </g>
          <g>
            <path class="cls-5" d="m42.79,139.01s1.77-.41,4.87-.56c3.14-.1,7.6,0,12.93,1.06,5.32,1.06,11.41,2.94,18,6.34,6.59,3.4,13.54,8.16,20.63,14.65,7.1,6.49,13.89,14.3,20.38,22.16,6.44,7.81,12.68,15.82,18.1,22.76,5.48,6.95,10.19,12.88,13.59,17.09,3.45,4.21,5.48,6.74,5.48,6.74,0,0-2.89-1.42-7.76-3.75-4.87-2.33-11.86-5.63-19.82-9.33-7.96-3.7-17.09-7.86-26.26-12.37-9.18-4.51-18.35-9.38-26.26-14.8-7.91-5.42-14.15-11.05-18.91-16.68-4.77-5.63-8.11-11.15-10.39-16.12-2.23-4.92-3.35-9.18-3.9-12.27-.56-3.04-.61-4.87-.61-4.87l-.05-.05Z"/>
            <path class="cls-9" d="m67.89,182.3c7.3-.3,13.44-.61,18.4-.66,4.87-.05,8.47-.15,10.19-.15-.2-.86-.51-2.13-.86-3.8s-.81-3.7-1.27-6.08c-.96-4.77-2.33-11.05-3.55-18.05.76.61,1.57,1.22,2.38,1.83,1.37,7.96,2.89,14.75,3.8,19.37.51,2.33.86,4.16,1.17,5.48.3,1.27.46,1.98.46,2.03l.25,1.12h-1.17s-2.89.1-7.66.15c-1.22,0-2.53,0-4.01.05-1.42.05-2.99.1-4.61.15-3.35.15-7.1.3-11.15.46-.76-.61-1.57-1.27-2.28-1.88h-.1Z"/>
            <path class="cls-13" d="m165.54,236.2s-2.38-1.27-7.05-4.11c-4.61-2.89-11.51-7.4-20.33-14.04-8.82-6.69-18.51-15.01-25.91-21.85-7.4-6.79-12.47-12.02-12.47-12.02,0,0,6.24,3.75,14.55,9.38,8.31,5.58,18.71,13.13,27.23,20.18,8.52,7.05,14.45,12.68,18.35,16.58,3.9,3.85,5.68,5.93,5.68,5.93l-.05-.05Z"/>
            <path class="cls-1" d="m86.65,150.62c.35,1.98.76,3.9,1.12,5.78.35,1.88.76,3.65,1.06,5.32.66,3.3,1.27,6.24,1.77,8.67.46,2.43.86,4.31,1.17,5.68.3,1.32.41,2.08.41,2.08,0,0-2.94.1-7.91.25-5.07.05-11.91.41-20.13.66-10.14-9.48-15.77-19.42-18.51-27.07-2.74-7.6-2.84-12.88-2.84-12.88,0,0,1.27-.25,3.55-.46s5.63-.2,9.68.25c8.11.91,18.96,3.95,30.62,11.76v-.05Z"/>
            <path class="cls-12" d="m76.61,188.94c-7.91-5.42-14.15-11.05-18.91-16.68-4.77-5.63-8.11-11.15-10.39-16.12-2.23-4.92-3.35-9.18-3.9-12.27-.56-3.04-.61-4.87-.61-4.87l113.97,90.2s-2.89-1.42-7.76-3.75c-4.87-2.33-11.86-5.63-19.82-9.33-7.96-3.7-17.09-7.86-26.26-12.37-9.18-4.51-18.35-9.38-26.26-14.8h-.05Z"/>
          </g>
          <g>
            <path class="cls-4" d="m17.59,188.03s1.52-.81,4.36-1.72c1.42-.46,3.14-.96,5.17-1.37s4.41-.76,7-.96c5.22-.41,11.41-.15,18.3,1.27s14.6,4.06,22.82,8.21c8.21,4.16,16.48,9.63,24.59,15.26,8.06,5.63,15.77,11.41,22.61,16.43,3.4,2.48,6.59,4.82,9.43,6.9,2.89,2.08,5.42,3.9,7.55,5.48,4.26,3.04,6.74,4.82,6.74,4.82,0,0-3.04-.56-8.16-1.47-5.17-.96-12.37-2.18-20.74-3.55-8.37-1.37-17.9-2.94-27.53-4.77-9.63-1.88-19.32-4.01-28.04-7-8.67-2.99-15.97-6.69-21.8-10.65-5.83-3.95-10.29-8.21-13.64-12.22-3.35-4.01-5.58-7.71-6.84-10.34-1.32-2.69-1.83-4.31-1.83-4.31Z"/>
            <path class="cls-3" d="m51.87,221.65c6.59-2.13,12.42-3.9,16.88-5.27,4.46-1.37,7.86-2.28,9.38-2.74-.76-1.47-2.38-4.51-4.61-8.67-2.13-4.16-4.87-9.53-7.96-15.82.86.35,1.77.71,2.64,1.06,3.45,7.05,6.44,12.88,8.52,16.93,2.18,4.11,3.45,6.49,3.45,6.54l.51.96-1.06.3s-2.69.76-7.1,2.08c-4.36,1.37-10.65,3.24-18.1,5.68-.86-.41-1.77-.76-2.64-1.17l.1.1Z"/>
            <path class="cls-13" d="m156.11,246.64s-2.53-.56-7.6-2.03c-5.02-1.47-12.57-3.9-22.46-7.81-9.89-3.95-20.99-9.18-29.56-13.59s-14.65-7.96-14.65-7.96c0,0,6.74,1.88,15.87,4.97,9.13,3.04,20.63,7.4,30.32,11.71,9.68,4.36,16.68,8.06,21.24,10.65,4.56,2.59,6.74,4.06,6.74,4.06h.1Z"/>
            <path class="cls-7" d="m61.1,187.58c3.55,6.95,6.59,12.98,8.77,17.29,2.18,4.26,3.5,6.74,3.5,6.74,0,0-2.74.81-7.3,2.18-4.56,1.42-11,3.4-18.45,5.73-11.86-6.19-19.47-13.94-24.03-20.33-2.33-3.19-3.75-5.98-4.66-7.96-.91-2.03-1.27-3.19-1.27-3.19,0,0,1.12-.56,3.19-1.32,2.08-.71,5.07-1.67,8.97-2.23,7.76-1.17,18.66-1.12,31.33,3.09h-.05Z"/>
            <path class="cls-12" d="m61.7,225.6c-8.67-2.99-15.97-6.69-21.8-10.65-5.83-3.95-10.29-8.21-13.64-12.22-3.35-4.01-5.58-7.71-6.84-10.34-1.32-2.69-1.83-4.31-1.83-4.31l128.58,54.35s-3.04-.56-8.16-1.47c-5.17-.96-12.37-2.18-20.74-3.55s-17.9-2.94-27.53-4.77c-9.63-1.88-19.32-4.01-28.04-7v-.05Z"/>
          </g>
          <g>
            <path class="cls-5" d="m21.5,232.7s1.32-.86,3.75-2.03c2.43-1.12,6.03-2.54,10.55-3.5,4.61-.96,10.19-1.47,16.58-.96,6.39.46,13.54,1.93,21.34,4.66,7.86,2.79,15.92,6.69,23.78,10.8,7.86,4.11,15.41,8.37,22.11,12.02,13.49,7.45,23.27,12.67,23.27,12.67,0,0-2.79-.15-7.5-.35s-11.31-.46-18.91-.76c-7.66-.3-16.43-.56-25.2-1.06-8.82-.56-17.75-1.37-25.91-3.04-8.11-1.67-15.06-4.11-20.79-7-5.78-2.89-10.19-6.19-13.64-9.33-3.45-3.19-5.83-6.24-7.35-8.47s-2.13-3.65-2.13-3.65h.05Z"/>
            <path class="cls-9" d="m56.13,258.81c5.58-2.69,10.6-4.92,14.5-6.64,3.85-1.72,6.64-2.94,8.06-3.55-1.67-2.43-7.2-9.94-14.04-20.38.81.2,1.67.41,2.48.66,3.95,5.93,7.15,10.75,9.63,14.15,2.38,3.4,3.8,5.37,3.8,5.42l.56.81-.91.41s-.61.25-1.67.71c-1.01.46-2.54,1.12-4.41,1.98-3.75,1.72-9.28,4.11-15.51,7.15-.81-.25-1.67-.51-2.48-.71Z"/>
            <path class="cls-13" d="m152.25,269.05s-2.38-.2-7.05-.91c-4.66-.76-11.66-2.03-20.94-4.41-9.28-2.38-19.87-5.78-28.04-8.77-8.16-2.94-13.99-5.42-13.99-5.42,0,0,6.29.91,14.8,2.59,8.52,1.67,19.37,4.21,28.54,6.95,9.18,2.74,15.87,5.27,20.23,7.05,4.41,1.77,6.49,2.84,6.49,2.84l-.05.1Z"/>
            <path class="cls-1" d="m60.39,227.32c4.01,5.88,7.35,10.85,9.84,14.4,2.43,3.55,3.85,5.63,3.85,5.63,0,0-2.33,1.06-6.24,2.84-1.98.91-4.31,1.98-7,3.19-1.37.61-2.79,1.27-4.26,1.93-1.47.71-2.99,1.42-4.61,2.13-5.68-2.08-10.49-4.66-14.45-7.3-3.95-2.69-7.05-5.48-9.43-8.06-2.38-2.59-4.11-4.92-5.17-6.59-1.01-1.67-1.47-2.69-1.47-2.69,0,0,3.75-2.59,10.44-4.56,6.69-1.98,16.58-3.14,28.39-.86l.1-.05Z"/>
            <path class="cls-12" d="m65.35,261.19c-8.11-1.67-15.06-4.11-20.79-7-5.78-2.89-10.19-6.19-13.64-9.33-3.45-3.19-5.83-6.24-7.35-8.47s-2.13-3.65-2.13-3.65l121.38,33.72s-2.79-.15-7.5-.35-11.31-.46-18.91-.76c-7.66-.3-16.43-.56-25.2-1.06-8.82-.56-17.74-1.37-25.91-3.04l.05-.05Z"/>
          </g>
          <g>
            <path class="cls-4" d="m31.79,276.86s.2-.25.71-.71c.46-.46,1.17-1.06,2.13-1.83,1.88-1.47,4.72-3.4,8.47-5.17,3.75-1.77,8.47-3.35,14.15-4.26,5.63-.91,12.17-1.12,19.52-.35,7.35.76,15.21,2.48,22.81,4.41,7.66,1.93,15.06,4.06,21.65,5.88,6.54,1.83,12.27,3.35,16.33,4.46,4.01,1.06,6.44,1.72,6.44,1.72,0,0-9.68,1.77-23.17,4.51-6.74,1.32-14.25,2.89-22.05,4.26-7.76,1.32-15.72,2.48-23.12,2.69-7.4.2-13.89-.46-19.42-1.83-5.53-1.32-10.24-3.24-13.79-5.27-3.6-2.03-6.29-4.16-8.06-5.78-1.77-1.62-2.64-2.74-2.64-2.74h.05Z"/>
            <path class="cls-3" d="m67.18,292.32c2.18-1.72,4.21-3.35,6.03-4.82s3.6-2.79,5.12-3.95c2.99-2.28,5.17-3.9,6.24-4.72-1.01-.86-3.04-2.69-5.83-5.17-1.42-1.27-3.04-2.74-4.82-4.31-1.72-1.62-3.65-3.4-5.68-5.27h2.28c2.28,2.13,4.36,4.11,6.29,5.83,1.93,1.72,3.6,3.19,4.97,4.46,2.74,2.43,4.36,3.9,4.41,3.9l.66.61-.71.56s-1.77,1.32-4.66,3.6c-1.47,1.12-3.3,2.48-5.32,4.06-2.03,1.62-4.26,3.4-6.69,5.32-.76,0-1.52-.1-2.28-.1Z"/>
            <path class="cls-13" d="m152.66,281.37s-2.08.35-6.24.66c-4.21.3-10.55.66-19.11.51-8.57-.15-18.4-.91-26.11-1.83-7.71-.86-13.28-1.77-13.28-1.77,0,0,1.42-.1,3.75-.3,2.38-.15,5.73-.35,9.63-.51,7.76-.3,17.64-.35,26.21.15,8.52.51,14.8,1.32,19.01,1.93,4.16.66,6.19,1.12,6.19,1.12l-.05.05Z"/>
            <path class="cls-7" d="m64.39,264.13c4.56,4.26,8.67,7.86,11.51,10.44,2.84,2.54,4.51,4.06,4.51,4.06,0,0-1.77,1.37-4.77,3.75-1.52,1.17-3.35,2.59-5.48,4.21-2.08,1.62-4.36,3.45-6.79,5.37-10.7-1.32-18.76-4.92-23.88-8.42-5.17-3.5-7.71-6.69-7.71-6.69,0,0,.66-.76,2.03-1.88,1.37-1.12,3.4-2.69,6.13-4.21,2.74-1.52,6.08-3.09,10.19-4.31,4.11-1.22,8.87-2.08,14.25-2.33Z"/>
            <path class="cls-12" d="m75.7,292.47c-7.4.2-13.89-.46-19.42-1.83-5.53-1.32-10.24-3.24-13.79-5.27-3.6-2.03-6.29-4.16-8.06-5.78-1.77-1.62-2.64-2.74-2.64-2.74l112.2,4.21s-9.68,1.77-23.17,4.51c-6.74,1.32-14.25,2.89-22.05,4.26-7.76,1.32-15.72,2.48-23.12,2.69l.05-.05Z"/>
          </g>
        </g>
        <g>
          <path class="cls-5" d="m247.57,1s-19.77,22.71-20.23,69.92c-.46,47.2,20.23,108.9,20.23,108.9,0,0,20.69-61.75,20.23-108.9-.46-47.2-20.23-69.92-20.23-69.92Z"/>
          <path class="cls-9" d="m267.14,57.43c-9.18,14.2-16.98,24.49-19.52,27.78-2.53-3.3-10.34-13.59-19.52-27.78-.1,1.22-.2,2.43-.3,3.65,10.49,16.02,18.86,26.52,18.96,26.67l.86,1.12.86-1.12s8.47-10.65,18.96-26.67c-.1-1.22-.2-2.43-.3-3.65Z"/>
          <path class="cls-13" d="m247.57,193.66s4.21-13.13,4.31-40.36c.1-27.23-4.31-62.87-4.31-62.87,0,0-4.41,35.64-4.31,62.87s4.31,40.36,4.31,40.36Z"/>
          <path class="cls-1" d="m228.76,51.35c10.09,16.22,18.81,27.18,18.81,27.18,0,0,8.77-11,18.86-27.18-4.56-33.87-18.86-50.35-18.86-50.35,0,0-14.25,16.43-18.81,50.35Z"/>
          <path class="cls-12" d="m267.8,70.92c-.46-47.2-20.23-69.92-20.23-69.92v178.82s20.69-61.75,20.23-108.9Z"/>
        </g>
        <g>
          <path class="cls-14" d="m364.13,274.37c0-1.06,0-2.18-.1-3.35s-.2-2.33-.3-3.55c-.15-2.48-.66-5.02-1.06-7.71-.56-2.64-1.06-5.42-1.88-8.16-.71-2.79-1.67-5.53-2.59-8.26-1.06-2.69-2.08-5.42-3.35-8.01-.61-1.32-1.22-2.59-1.88-3.85-.66-1.27-1.27-2.48-1.98-3.7-1.42-2.38-2.74-4.66-4.16-6.74-1.37-2.13-2.79-4.01-4.16-5.78-1.32-1.77-2.64-3.3-3.8-4.66-1.12-1.37-2.23-2.48-3.09-3.45-1.72-1.93-2.79-2.94-2.79-2.94,0,0-1.06-1.01-2.89-2.84-.96-.86-2.13-1.88-3.5-3.09-1.32-1.22-2.94-2.43-4.66-3.8-1.77-1.37-3.7-2.74-5.78-4.21-2.13-1.37-4.36-2.89-6.79-4.26-2.38-1.42-4.92-2.74-7.55-4.06-1.32-.66-2.64-1.22-4.01-1.83-1.32-.61-2.69-1.22-4.11-1.72-2.74-1.12-5.53-2.08-8.31-2.94-2.79-.86-5.53-1.62-8.26-2.23-2.69-.61-5.32-1.17-7.86-1.52-2.48-.46-4.87-.71-7.1-.91-2.18-.25-4.21-.3-6.03-.41-1.77-.1-3.35-.1-4.66-.1-2.59,0-4.06.05-4.06.05,0,0-1.47,0-4.06-.05-1.27,0-2.84,0-4.66.1-1.77.1-3.8.15-6.03.41-2.18.2-4.56.46-7.1.91-2.53.35-5.12.91-7.86,1.52-2.69.61-5.48,1.37-8.26,2.23-2.79.91-5.58,1.83-8.31,2.94-1.37.51-2.74,1.12-4.11,1.72-1.32.61-2.69,1.17-4.01,1.83-2.59,1.32-5.17,2.59-7.55,4.06-2.43,1.37-4.61,2.89-6.79,4.26-2.08,1.47-4.06,2.84-5.78,4.21-1.72,1.37-3.35,2.59-4.66,3.8s-2.53,2.23-3.5,3.09c-1.83,1.83-2.89,2.84-2.89,2.84,0,0-1.06,1.01-2.79,2.94-.86.96-1.98,2.08-3.09,3.45-1.12,1.37-2.48,2.89-3.8,4.66s-2.79,3.65-4.16,5.78c-1.42,2.08-2.79,4.36-4.16,6.74-.71,1.17-1.32,2.43-1.98,3.7s-1.32,2.54-1.88,3.85c-1.27,2.59-2.28,5.32-3.35,8.01-.96,2.74-1.93,5.48-2.59,8.26-.81,2.74-1.32,5.53-1.88,8.16-.41,2.69-.86,5.22-1.06,7.71-.1,1.22-.2,2.43-.3,3.55-.05,1.17-.1,2.28-.1,3.35-.1,2.13,0,4.11,0,5.83s.1,3.24.25,4.46c.25,2.43.41,3.85.41,3.85h19.72s.2-1.12.61-3.09c.15-.96.41-2.18.76-3.5.3-1.37.66-2.84,1.12-4.46.41-1.62.96-3.35,1.57-5.17.56-1.83,1.37-3.65,2.08-5.58.81-1.88,1.62-3.85,2.64-5.73.86-1.93,2.03-3.8,3.04-5.73,1.12-1.88,2.23-3.7,3.45-5.42,1.12-1.77,2.48-3.4,3.65-5.02,1.27-1.57,2.43-3.09,3.7-4.41,1.17-1.42,2.38-2.64,3.5-3.75,1.06-1.17,2.23-2.13,3.14-2.99.91-.91,1.83-1.57,2.48-2.23,1.37-1.22,2.23-1.88,2.23-1.88,0,0,.81-.66,2.28-1.83.76-.56,1.67-1.22,2.69-1.98,1.01-.76,2.28-1.52,3.6-2.43,1.32-.86,2.79-1.72,4.36-2.64,1.62-.86,3.24-1.83,5.02-2.64,1.72-.91,3.6-1.72,5.53-2.54,1.93-.76,3.85-1.62,5.83-2.28,1.01-.3,1.98-.71,2.99-1.01s1.98-.61,2.99-.91c1.98-.56,3.95-1.06,5.88-1.52,1.93-.41,3.75-.86,5.58-1.12,1.77-.35,3.45-.56,5.02-.76,1.57-.25,2.99-.35,4.31-.51,1.27-.15,2.38-.25,3.35-.3,1.88-.15,2.89-.2,2.89-.2,0,0,1.06.1,2.89.2.91,0,2.03.1,3.35.3,1.27.15,2.74.2,4.31.51,1.57.2,3.24.41,5.02.76,1.77.3,3.65.71,5.58,1.12,1.93.41,3.9.96,5.88,1.52,1.01.3,1.98.61,2.99.91s1.98.71,2.99,1.01c1.98.66,3.9,1.52,5.83,2.28,1.88.81,3.75,1.67,5.53,2.54,1.77.81,3.4,1.83,5.02,2.64,1.57.91,3.04,1.77,4.36,2.64,1.32.91,2.53,1.67,3.6,2.43,1.06.76,1.93,1.42,2.69,1.98,1.42,1.17,2.28,1.83,2.28,1.83,0,0,.86.61,2.23,1.88.71.61,1.57,1.32,2.48,2.23s2.03,1.88,3.14,2.99c1.12,1.17,2.33,2.38,3.5,3.75,1.27,1.32,2.43,2.84,3.7,4.41,1.17,1.62,2.53,3.24,3.65,5.02,1.22,1.72,2.33,3.6,3.45,5.42,1.01,1.88,2.13,3.75,3.04,5.73,1.01,1.93,1.77,3.85,2.64,5.73.71,1.93,1.52,3.75,2.08,5.58.61,1.83,1.17,3.55,1.57,5.17.51,1.62.86,3.09,1.12,4.46.3,1.32.56,2.53.76,3.5.35,1.98.61,3.09.61,3.09h19.72s.15-1.42.41-3.85c.15-1.22.25-2.74.25-4.46.05-1.72.15-3.7,0-5.83h.1Z"/>
          <path class="cls-4" d="m277.48,200.4s2.38-1.47,4.92-2.94c2.53-1.42,5.17-2.64,5.17-2.64,0,0,1.17,2.69,2.08,5.42.46,1.32.91,2.69,1.27,3.65.3,1.01.51,1.67.51,1.67,0,0-.81-.41-2.13-.91s-2.99-1.32-4.77-1.88c-1.72-.66-3.5-1.27-4.82-1.67-1.32-.41-2.23-.71-2.23-.71Z"/>
          <path class="cls-5" d="m316.32,202.63s-.71.05-1.83.25c-1.12.15-2.53.41-3.95.71-2.84.51-5.63,1.27-5.63,1.27,0,0-.15-.71-.41-1.77-.25-1.06-.61-2.48-1.01-3.9-.76-2.79-1.72-5.73-1.72-5.73,0,0,.91.51,2.33,1.32.71.41,1.52.86,2.38,1.37.86.51,1.77,1.12,2.69,1.67,1.83,1.12,3.6,2.38,4.92,3.3,1.32.91,2.18,1.57,2.18,1.57l.05-.05Z"/>
          <path class="cls-5" d="m277.79,184.13s-2.64,1.47-5.07,3.19c-1.22.81-2.43,1.67-3.35,2.28-.91.66-1.47,1.12-1.47,1.12,0,0-1.57-2.43-3.3-4.92-1.72-2.38-3.65-4.72-3.65-4.72,0,0,1.06.1,2.64.3,1.62.15,3.7.56,5.83.91,2.13.35,4.21.86,5.78,1.22.81.15,1.42.35,1.88.46s.71.2.71.2v-.05Z"/>
          <path class="cls-4" d="m336.24,245.07s2.48.76,4.87,1.72,4.72,2.13,4.72,2.13c0,0-.15.61-.46,1.57-.25.91-.61,2.13-.96,3.35-.35,1.17-.71,2.38-1.01,3.24s-.51,1.42-.51,1.42c0,0-.35-.86-.86-2.18-.61-1.27-1.37-2.99-2.18-4.66-.91-1.67-1.72-3.35-2.43-4.56-.71-1.22-1.17-2.03-1.17-2.03Z"/>
          <path class="cls-5" d="m357.79,275.44s-.35-.46-.91-1.22c-.56-.71-1.32-1.62-2.18-2.53-1.67-1.77-3.45-3.45-3.45-3.45,0,0,.96-2.28,1.88-4.61.51-1.22.91-2.38,1.27-3.3s.56-1.57.56-1.57c0,0,.25,1.01.66,2.59.35,1.52.76,3.65,1.17,5.68.3,2.08.61,4.16.81,5.73.15,1.57.2,2.64.2,2.64v.05Z"/>
          <path class="cls-5" d="m345.22,235.08s-.66-.2-1.57-.56c-.96-.35-2.23-.76-3.55-1.12-1.32-.35-2.64-.71-3.6-.91-.96-.25-1.67-.35-1.67-.35,0,0,.25-2.74.51-5.48.15-2.74.25-5.63.25-5.63,0,0,.66.86,1.67,2.08,1.01,1.22,2.23,2.99,3.45,4.72,1.22,1.77,2.33,3.6,3.19,4.92.81,1.37,1.32,2.33,1.32,2.33Z"/>
          <path class="cls-4" d="m217.71,200.4s-2.38-1.47-4.92-2.94c-2.53-1.42-5.17-2.64-5.17-2.64,0,0-1.17,2.69-2.08,5.42-.46,1.32-.91,2.69-1.27,3.65-.3,1.01-.51,1.67-.51,1.67,0,0,.81-.41,2.13-.91s2.99-1.32,4.77-1.88c1.72-.66,3.5-1.27,4.82-1.67,1.32-.41,2.23-.71,2.23-.71Z"/>
          <path class="cls-5" d="m178.87,202.63s.71.05,1.83.25c1.12.15,2.53.41,3.95.71,2.84.51,5.63,1.27,5.63,1.27,0,0,.15-.71.41-1.77.25-1.06.61-2.48,1.01-3.9.76-2.79,1.72-5.73,1.72-5.73,0,0-.91.51-2.33,1.32-.71.41-1.52.86-2.38,1.37-.86.51-1.77,1.12-2.69,1.67-1.83,1.12-3.6,2.38-4.92,3.3-1.32.91-2.18,1.57-2.18,1.57l-.05-.05Z"/>
          <path class="cls-5" d="m217.4,184.13s2.59,1.47,5.07,3.19c1.22.81,2.43,1.67,3.35,2.28.91.66,1.47,1.12,1.47,1.12,0,0,1.57-2.43,3.3-4.92,1.72-2.38,3.65-4.72,3.65-4.72,0,0-1.06.1-2.64.3-1.62.15-3.7.56-5.83.91-2.13.35-4.21.86-5.78,1.22-.81.15-1.42.35-1.88.46s-.71.2-.71.2v-.05Z"/>
          <g>
            <path class="cls-7" d="m366.46,270.62c-.1-1.17-.15-2.38-.25-3.65-.15-2.53-.61-5.17-.96-7.91-.51-2.74-1.01-5.58-1.77-8.42-.71-2.84-1.62-5.68-2.59-8.52-1.06-2.79-2.08-5.63-3.35-8.31-.61-1.37-1.22-2.69-1.88-3.95-.66-1.27-1.27-2.59-1.98-3.8-1.42-2.43-2.79-4.82-4.21-7s-2.84-4.16-4.21-5.98c-1.32-1.88-2.69-3.4-3.85-4.87s-2.28-2.59-3.14-3.6c-1.77-1.98-2.84-3.04-2.84-3.04,0,0-1.06-1.06-2.99-2.94-.96-.91-2.18-1.98-3.55-3.19-1.37-1.27-3.04-2.53-4.82-3.95s-3.8-2.84-5.93-4.36c-2.18-1.42-4.46-2.99-6.95-4.41-2.43-1.47-5.07-2.84-7.76-4.21-1.32-.71-2.74-1.27-4.11-1.93s-2.79-1.22-4.21-1.77c-2.84-1.17-5.73-2.13-8.57-3.04-2.89-.86-5.73-1.67-8.52-2.33-2.79-.61-5.48-1.22-8.06-1.57-2.59-.46-5.02-.71-7.3-.91-2.28-.25-4.36-.3-6.19-.41s-3.45-.1-4.77-.1c-2.64.05-4.16.1-4.16.1,0,0-1.52,0-4.16-.1-1.32,0-2.94,0-4.77.1-1.83.1-3.9.15-6.19.41-2.28.2-4.72.46-7.3.91-2.59.35-5.27.96-8.06,1.57-2.79.66-5.63,1.42-8.52,2.33-2.84.91-5.73,1.88-8.57,3.04-1.42.56-2.84,1.17-4.21,1.77s-2.79,1.22-4.11,1.93c-2.69,1.37-5.32,2.69-7.76,4.21-2.48,1.42-4.77,2.99-6.95,4.41-2.13,1.52-4.16,2.94-5.93,4.36s-3.45,2.69-4.82,3.95c-1.37,1.22-2.59,2.33-3.55,3.19-1.88,1.88-2.99,2.94-2.99,2.94,0,0-1.12,1.06-2.84,3.04-.86,1.01-1.98,2.13-3.14,3.6-1.17,1.42-2.53,2.99-3.85,4.87-1.37,1.83-2.79,3.8-4.21,5.98-1.47,2.13-2.79,4.56-4.21,7-.71,1.22-1.32,2.54-1.98,3.8s-1.32,2.64-1.88,3.95c-1.27,2.69-2.28,5.53-3.35,8.31-.96,2.84-1.88,5.68-2.59,8.52-.76,2.84-1.27,5.68-1.77,8.42-.35,2.74-.81,5.37-.96,7.91-.1,1.27-.15,2.48-.25,3.65-.05,1.17,0,2.33-.05,3.45-.05,2.18.05,4.21.15,5.98.05,1.77.2,3.3.41,4.56.3,2.48.51,3.9.51,3.9h4.16s-.1-1.37-.3-3.75c-.1-1.22-.15-2.69-.15-4.36s-.05-3.6.1-5.68c.05-1.06.1-2.13.2-3.24s.25-2.28.35-3.45c.2-2.38.71-4.87,1.17-7.5.56-2.59,1.12-5.22,1.93-7.91.71-2.69,1.67-5.32,2.64-8.01,1.06-2.64,2.13-5.27,3.35-7.76.61-1.27,1.22-2.53,1.88-3.7.66-1.22,1.27-2.43,1.98-3.55,1.37-2.28,2.69-4.51,4.11-6.49,1.37-2.03,2.79-3.85,4.06-5.58s2.59-3.14,3.7-4.51c1.12-1.32,2.18-2.38,3.04-3.35,1.67-1.83,2.74-2.79,2.74-2.79,0,0,1.01-1.01,2.84-2.74.96-.81,2.08-1.83,3.4-2.99s2.89-2.33,4.56-3.65c1.72-1.32,3.6-2.64,5.63-4.06,2.08-1.32,4.26-2.79,6.59-4.06,2.33-1.37,4.82-2.64,7.3-3.9,1.27-.66,2.59-1.17,3.85-1.77,1.32-.61,2.64-1.17,3.95-1.67,2.64-1.06,5.37-1.98,8.06-2.84,2.69-.81,5.37-1.57,8.01-2.18,2.64-.56,5.17-1.17,7.6-1.47,2.43-.46,4.72-.66,6.84-.91s4.11-.3,5.83-.41,3.24-.15,4.51-.1h7.81c1.27,0,2.79,0,4.51.1s3.7.15,5.83.41c2.13.2,4.46.46,6.84.91,2.43.35,4.97.91,7.6,1.47,2.64.61,5.27,1.37,8.01,2.18,2.69.86,5.42,1.77,8.06,2.84,1.32.51,2.69,1.06,3.95,1.67,1.32.61,2.64,1.12,3.85,1.77,2.53,1.27,5.02,2.48,7.3,3.9,2.33,1.32,4.51,2.74,6.59,4.06,2.03,1.42,3.9,2.74,5.63,4.06,1.67,1.32,3.24,2.48,4.56,3.65s2.43,2.13,3.4,2.99c1.83,1.72,2.84,2.74,2.84,2.74,0,0,1.06.96,2.74,2.79.86.91,1.93,1.98,3.04,3.35,1.12,1.32,2.43,2.79,3.7,4.51,1.32,1.67,2.74,3.5,4.06,5.58,1.42,1.98,2.74,4.21,4.11,6.49.71,1.17,1.32,2.38,1.98,3.55.66,1.22,1.27,2.43,1.88,3.7,1.27,2.48,2.28,5.12,3.35,7.76.96,2.69,1.93,5.32,2.64,8.01.81,2.64,1.37,5.32,1.93,7.91.46,2.59.96,5.07,1.17,7.5.1,1.22.25,2.33.35,3.45s.1,2.23.2,3.24c.15,2.08.1,4.01.1,5.68s0,3.14-.15,4.36c-.2,2.38-.3,3.75-.3,3.75h4.16s.2-1.42.51-3.9c.2-1.27.3-2.79.41-4.56.1-1.77.2-3.75.15-5.98,0-1.12,0-2.23-.05-3.45h.1Z"/>
            <path class="cls-7" d="m344.66,281.73c-.25-1.37-.56-2.94-1.01-4.61-.35-1.67-.86-3.45-1.47-5.32-.51-1.88-1.27-3.8-1.98-5.83-.81-1.98-1.57-4.01-2.53-5.98-.86-2.03-1.98-4.01-2.99-5.98-1.12-1.93-2.23-3.85-3.45-5.73-1.12-1.88-2.48-3.6-3.65-5.27-2.53-3.3-5.02-6.24-7.35-8.62-1.12-1.22-2.28-2.23-3.19-3.19-.91-.96-1.88-1.67-2.59-2.33-1.42-1.32-2.28-1.98-2.28-1.98,0,0-.86-.71-2.33-1.93-.76-.56-1.72-1.27-2.79-2.08s-2.33-1.62-3.7-2.54-2.89-1.83-4.51-2.79c-1.67-.91-3.35-1.93-5.22-2.84-1.83-.96-3.75-1.83-5.73-2.69-1.98-.81-4.01-1.72-6.08-2.38-1.01-.35-2.08-.76-3.09-1.06-1.01-.3-2.08-.66-3.09-.96-2.08-.61-4.11-1.17-6.13-1.57-1.98-.46-3.95-.86-5.78-1.17-1.83-.35-3.6-.56-5.27-.81-1.62-.25-3.14-.35-4.46-.46-1.32-.15-2.48-.2-3.45-.25-1.93-.1-3.04-.2-3.04-.2,0,0-1.12.05-3.04.2-.96,0-2.13.1-3.45.25-1.32.15-2.84.2-4.46.46-1.62.2-3.4.41-5.27.81-1.88.3-3.8.71-5.78,1.17s-4.06,1.01-6.13,1.57c-1.01.3-2.08.61-3.09.96s-2.08.71-3.09,1.06c-2.08.66-4.06,1.57-6.08,2.38-1.98.86-3.9,1.72-5.73,2.69-1.88.86-3.55,1.93-5.22,2.84-1.62.96-3.14,1.88-4.51,2.79-1.32.96-2.64,1.72-3.7,2.54s-2.03,1.47-2.79,2.08c-1.47,1.22-2.33,1.93-2.33,1.93,0,0-.86.66-2.28,1.98-.71.66-1.62,1.37-2.59,2.33-.91.96-2.08,1.98-3.19,3.19-2.28,2.38-4.82,5.32-7.35,8.62-1.17,1.67-2.54,3.4-3.65,5.27-1.22,1.83-2.33,3.75-3.45,5.73-1.01,1.98-2.13,3.95-2.99,5.98-.96,1.98-1.72,4.06-2.53,5.98-.71,1.98-1.42,3.9-1.98,5.83-.56,1.88-1.06,3.65-1.47,5.32-.46,1.67-.76,3.24-1.01,4.61-.3,1.37-.51,2.59-.61,3.6-.3,2.03-.51,3.19-.51,3.19h4.16s.25-1.12.71-3.04c.2-.96.51-2.13.86-3.4.3-1.32.71-2.74,1.27-4.31.46-1.57,1.06-3.24,1.67-4.97s1.42-3.55,2.18-5.37c.86-1.83,1.67-3.7,2.69-5.53.91-1.88,2.03-3.65,3.09-5.42,1.12-1.77,2.23-3.5,3.45-5.17,1.12-1.67,2.43-3.19,3.6-4.77,1.27-1.47,2.43-2.89,3.65-4.16,1.17-1.32,2.38-2.48,3.45-3.55,1.06-1.12,2.18-1.98,3.04-2.84.91-.86,1.77-1.52,2.43-2.08,1.32-1.17,2.18-1.72,2.18-1.72,0,0,.81-.61,2.18-1.72.71-.51,1.62-1.12,2.64-1.83s2.23-1.42,3.45-2.28c1.27-.81,2.74-1.62,4.21-2.48,1.52-.81,3.09-1.72,4.82-2.48,1.67-.86,3.45-1.62,5.27-2.38,1.88-.71,3.7-1.52,5.58-2.13l2.84-.96c.96-.3,1.93-.56,2.84-.86,1.88-.51,3.8-1.01,5.63-1.42,1.83-.41,3.6-.81,5.32-1.06,1.67-.35,3.35-.56,4.82-.76,1.47-.25,2.89-.35,4.11-.51s2.28-.25,3.19-.3c1.77-.15,2.79-.25,2.79-.25,0,0,1.01.1,2.79.25.86.05,1.98.15,3.19.3,1.22.15,2.64.25,4.11.51,1.52.2,3.14.41,4.82.76,1.72.25,3.5.66,5.32,1.06,1.83.41,3.7.91,5.63,1.42.96.3,1.93.56,2.84.86l2.84.96c1.93.61,3.75,1.42,5.58,2.13,1.83.76,3.6,1.57,5.27,2.38,1.72.76,3.3,1.67,4.82,2.48,1.52.86,2.94,1.67,4.21,2.48,1.27.86,2.48,1.52,3.45,2.28,1.01.71,1.88,1.32,2.64,1.83,1.42,1.06,2.18,1.72,2.18,1.72,0,0,.86.61,2.18,1.72.66.61,1.57,1.22,2.43,2.08s1.98,1.72,3.04,2.84c1.06,1.06,2.28,2.23,3.45,3.55,1.27,1.27,2.38,2.69,3.65,4.16,1.17,1.52,2.48,3.04,3.6,4.77,1.22,1.67,2.33,3.4,3.45,5.17,1.01,1.83,2.18,3.6,3.09,5.42,1.01,1.83,1.83,3.7,2.69,5.53.76,1.83,1.57,3.6,2.18,5.37.66,1.72,1.27,3.4,1.67,4.97.51,1.57.91,3.04,1.27,4.31.35,1.32.66,2.43.86,3.4.46,1.93.71,3.04.71,3.04h4.16s-.2-1.17-.51-3.19c-.1-1.01-.35-2.23-.61-3.6h.41Z"/>
          </g>
          <g>
            <path class="cls-5" d="m329.1,208.46s-1.77-.1-4.41-.1c-2.69.05-6.13.2-9.63.66-1.72.2-3.45.51-5.02.76-1.62.3-3.09.66-4.31.91-2.48.56-4.11,1.12-4.11,1.12,0,0-.35-1.77-.91-4.41-.66-2.59-1.57-6.24-2.79-9.84-.61-1.77-1.22-3.65-1.88-5.32-.66-1.67-1.32-3.24-1.93-4.66-.61-1.37-1.12-2.53-1.47-3.3-.35-.81-.61-1.22-.61-1.22,0,0-1.88.76-4.56,1.93-2.74,1.32-6.13,2.94-9.48,4.97-3.3,1.93-6.44,4.06-8.67,5.73-1.12.81-2.03,1.52-2.69,2.03-.61.51-.96.81-.96.81,0,0-.86-1.47-2.33-3.7-1.47-2.13-3.5-5.07-5.78-7.81-2.28-2.74-4.72-5.48-6.64-7.35-1.93-1.93-3.3-3.19-3.3-3.19v5.32s1.32,1.27,3.14,3.19c1.83,1.88,4.21,4.66,6.34,7.4,2.13,2.79,4.11,5.68,5.42,7.81,1.37,2.23,2.18,3.65,2.18,3.65,0,0,.35-.3.96-.81s1.47-1.22,2.54-2.03c2.13-1.67,5.12-3.85,8.31-5.78,3.19-2.08,6.49-3.75,9.13-5.12,2.59-1.22,4.41-1.98,4.41-1.98,0,0,.2.46.56,1.22s.86,1.88,1.37,3.24c.56,1.37,1.17,2.89,1.77,4.56s1.17,3.5,1.72,5.22c1.12,3.5,1.93,7.05,2.48,9.58.51,2.59.81,4.31.81,4.31,0,0,1.57-.56,4.01-1.22,1.22-.3,2.64-.71,4.21-1.06,1.52-.3,3.19-.61,4.92-.91,3.4-.56,6.79-.81,9.43-.91,2.59-.1,4.36,0,4.36,0l3.35-3.65.05-.05Z"/>
            <path class="cls-5" d="m358.55,285.27c-.91-1.93-2.54-4.36-4.26-6.69-1.83-2.33-3.7-4.46-5.37-5.98-1.62-1.52-2.74-2.43-2.74-2.43,0,0,.15-.35.41-.96s.61-1.47,1.01-2.53c.91-2.18,1.98-5.12,3.09-8.26,1.01-3.14,2.13-6.49,2.79-9.08.35-1.32.66-2.38.86-3.19.2-.76.3-1.22.3-1.22,0,0-1.52-.91-3.8-2.13-2.28-1.22-5.48-2.69-8.72-3.85-1.62-.56-3.3-1.12-4.82-1.57-1.57-.41-3.04-.76-4.31-1.01-2.48-.56-4.21-.76-4.21-.76,0,0,.15-1.57.41-3.95.15-2.33.41-5.68.46-9.08v-5.07c-.1-1.67-.15-3.19-.2-4.51-.15-2.74-.35-4.51-.35-4.51l-3.35,3.65s.2,1.72.25,4.36c0,1.27.1,2.79.15,4.36,0,1.57,0,3.3-.05,4.92-.05,3.24-.35,6.49-.56,8.72-.25,2.28-.46,3.8-.46,3.8,0,0,1.72.15,4.21.61,1.27.2,2.69.51,4.26.86,1.52.41,3.14.86,4.82,1.37,3.24,1.06,6.44,2.33,8.72,3.5,2.28,1.12,3.8,1.98,3.8,1.98,0,0-.1.41-.3,1.17-.2.76-.51,1.77-.86,3.04-.66,2.48-1.72,5.73-2.69,8.72-1.12,3.04-2.13,5.88-2.99,7.96-.41,1.01-.71,1.88-.96,2.43s-.41.91-.41.91c0,0,1.17.86,2.79,2.33,1.67,1.42,3.65,3.5,5.58,5.73,1.77,2.23,3.5,4.61,4.51,6.44,1.06,1.83,1.67,3.14,1.67,3.14h2.84s-.56-1.32-1.57-3.24l.05.05Z"/>
            <path class="cls-5" d="m237.63,186.97c-2.28,2.79-4.31,5.68-5.78,7.81-1.42,2.23-2.33,3.7-2.33,3.7,0,0-.35-.3-.96-.81-.66-.51-1.57-1.22-2.69-2.03-2.23-1.62-5.37-3.8-8.67-5.73-3.3-2.03-6.74-3.65-9.48-4.97-2.69-1.17-4.56-1.93-4.56-1.93,0,0-.2.46-.61,1.22-.41.76-.91,1.93-1.47,3.3-.61,1.37-1.27,2.94-1.93,4.66-.66,1.72-1.27,3.55-1.88,5.32-1.22,3.6-2.13,7.2-2.79,9.84-.56,2.64-.91,4.41-.91,4.41,0,0-1.62-.51-4.11-1.12-1.27-.3-2.74-.61-4.31-.91-1.57-.25-3.3-.51-5.02-.76-3.5-.46-6.95-.61-9.63-.66-2.64,0-4.41.1-4.41.1l3.35,3.65h4.36c2.64.15,6.03.35,9.43.91,1.67.25,3.35.56,4.92.91s2.99.71,4.21,1.06c2.43.66,4.01,1.22,4.01,1.22,0,0,.3-1.72.81-4.31.56-2.53,1.42-6.08,2.48-9.58.56-1.77,1.12-3.55,1.72-5.22.61-1.67,1.22-3.19,1.77-4.56.56-1.37,1.01-2.48,1.37-3.24.35-.76.56-1.22.56-1.22,0,0,1.83.76,4.41,1.98,2.64,1.37,5.93,3.04,9.13,5.12,3.19,1.98,6.19,4.16,8.31,5.78,1.06.81,1.93,1.52,2.54,2.03.61.51.96.81.96.81,0,0,.81-1.47,2.18-3.65,1.37-2.13,3.3-5.02,5.42-7.81,2.13-2.74,4.46-5.53,6.34-7.4,1.83-1.93,3.14-3.19,3.14-3.19v-5.32s-1.37,1.27-3.3,3.19c-1.93,1.88-4.41,4.61-6.64,7.35l.05.05Z"/>
            <path class="cls-5" d="m169.09,225.8c0-1.62-.05-3.35-.05-4.92s.1-3.09.15-4.36c.1-2.64.25-4.36.25-4.36l-3.35-3.65s-.2,1.77-.35,4.51c-.05,1.32-.15,2.84-.2,4.51v5.07c0,3.4.25,6.69.46,9.08.25,2.38.41,3.95.41,3.95,0,0-1.72.2-4.21.76-1.27.25-2.74.61-4.31,1.01-1.52.46-3.19.96-4.82,1.57-3.24,1.17-6.44,2.59-8.72,3.85-2.28,1.22-3.8,2.13-3.8,2.13,0,0,.1.46.3,1.22.2.76.51,1.88.86,3.19.66,2.59,1.77,5.93,2.79,9.08,1.17,3.19,2.18,6.13,3.09,8.26.41,1.06.76,1.93,1.01,2.53.25.61.41.96.41.96,0,0-1.12.91-2.74,2.43-1.62,1.52-3.55,3.65-5.37,5.98-1.72,2.33-3.35,4.77-4.26,6.69-1.01,1.93-1.57,3.24-1.57,3.24h2.84s.61-1.27,1.67-3.14c1.01-1.88,2.74-4.21,4.51-6.44,1.93-2.23,3.85-4.31,5.58-5.73,1.67-1.42,2.79-2.33,2.79-2.33,0,0-.15-.35-.41-.91-.25-.61-.56-1.42-.96-2.43-.86-2.08-1.88-4.92-2.99-7.96-.96-2.99-2.08-6.24-2.69-8.72-.35-1.27-.66-2.33-.86-3.04-.2-.76-.3-1.17-.3-1.17,0,0,1.52-.86,3.8-1.98,2.28-1.17,5.48-2.43,8.72-3.5,1.62-.51,3.3-.96,4.82-1.37,1.57-.35,3.04-.66,4.26-.86,2.48-.46,4.21-.61,4.21-.61,0,0-.2-1.52-.46-3.8-.2-2.28-.51-5.48-.56-8.72l.05-.05Z"/>
          </g>
          <path class="cls-4" d="m158.95,245.07s-2.48.76-4.87,1.72c-2.38.96-4.72,2.13-4.72,2.13,0,0,.15.61.46,1.57.25.91.61,2.13.96,3.35.35,1.17.71,2.38,1.01,3.24.3.86.51,1.42.51,1.42,0,0,.35-.86.86-2.18.61-1.27,1.37-2.99,2.18-4.66.91-1.67,1.72-3.35,2.43-4.56.71-1.22,1.17-2.03,1.17-2.03Z"/>
          <path class="cls-5" d="m137.4,275.44s.35-.46.91-1.22c.56-.71,1.32-1.62,2.18-2.53,1.67-1.77,3.45-3.45,3.45-3.45,0,0-.96-2.28-1.88-4.61-.51-1.22-.91-2.38-1.27-3.3s-.56-1.57-.56-1.57c0,0-.25,1.01-.66,2.59-.35,1.52-.76,3.65-1.17,5.68-.3,2.08-.61,4.16-.81,5.73-.15,1.57-.2,2.64-.2,2.64v.05Z"/>
          <path class="cls-5" d="m149.97,235.08s.66-.2,1.57-.56c.96-.35,2.23-.76,3.55-1.12s2.64-.71,3.6-.91c.96-.25,1.67-.35,1.67-.35,0,0-.25-2.74-.51-5.48-.15-2.74-.25-5.63-.25-5.63,0,0-.66.86-1.67,2.08s-2.23,2.99-3.45,4.72c-1.22,1.77-2.33,3.6-3.19,4.92-.81,1.37-1.32,2.33-1.32,2.33Z"/>
          <g>
            <path class="cls-3" d="m316.52,216.42c-2.79.3-5.48.71-5.48.71,0,0,1.47,1.17,2.94,2.28,1.42,1.17,2.84,2.43,2.84,2.43l5.27-5.78s-2.79.05-5.58.35Z"/>
            <path class="cls-3" d="m251.47,191.83c-1.88-2.18-3.85-4.31-3.85-4.31v8.37s1.88.1,3.75.15c.91,0,1.88.05,2.53.15.71.05,1.17.1,1.17.1,0,0-.46-.56-1.06-1.42-.66-.86-1.57-1.98-2.48-3.04h-.05Z"/>
            <path class="cls-3" d="m351.71,284.57c-.61-.96-1.37-1.88-1.93-2.53s-.91-1.12-.91-1.12c0,0,.05.46.15,1.17s.25,1.67.3,2.59c.15,1.93.35,3.8.35,3.8h4.51s-1.17-2.03-2.43-3.9h-.05Z"/>
            <path class="cls-3" d="m322.2,217.84c-.05-1.06-.1-1.72-.1-1.72l-5.27,5.78s.35.3.86.76,1.17,1.12,1.88,1.72c.66.66,1.37,1.27,1.88,1.77.51.51.81.86.81.86,0,0,0-.66.05-1.67v-3.7c0-1.37,0-2.74-.1-3.8h0Z"/>
            <path class="cls-3" d="m173.09,216.12l5.27,5.78s1.42-1.22,2.84-2.43c1.47-1.17,2.94-2.28,2.94-2.28,0,0-2.69-.46-5.48-.71-2.74-.25-5.58-.35-5.58-.35Z"/>
            <path class="cls-3" d="m241.23,194.88c-.66.86-1.06,1.42-1.06,1.42,0,0,.46,0,1.17-.1.71-.05,1.62-.15,2.54-.15,1.88-.1,3.75-.15,3.75-.15v-8.37s-2.03,2.13-3.85,4.31c-.91,1.06-1.83,2.18-2.48,3.04h-.05Z"/>
            <path class="cls-3" d="m143.48,284.57c-1.32,1.88-2.43,3.9-2.43,3.9h4.51s.15-1.93.35-3.8c.05-.96.2-1.88.3-2.59.1-.71.15-1.17.15-1.17,0,0-.35.46-.91,1.12s-1.27,1.62-1.93,2.53h-.05Z"/>
            <path class="cls-3" d="m172.99,217.84c0,1.06-.05,2.43-.1,3.8v3.7c0,1.01.05,1.67.05,1.67,0,0,.3-.35.81-.86s1.17-1.12,1.88-1.77c.66-.66,1.37-1.27,1.88-1.72s.86-.76.86-.76l-5.27-5.78s0,.71-.1,1.72Z"/>
          </g>
        </g>
        <g>
          <g>
            <path class="cls-1" d="m143.94,308.29c0,1.47-1.22,2.69-2.69,2.69h0c-1.47,0-2.69-1.22-2.69-2.69v-17.09c0-1.47,1.22-2.69,2.69-2.69h0c1.47,0,2.69,1.22,2.69,2.69v17.09Z"/>
            <g>
              <path class="cls-4" d="m141.25,508s19.77-22.71,20.23-69.92c.46-47.15-20.23-108.9-20.23-108.9,0,0-20.69,61.75-20.23,108.9.46,47.2,20.23,69.92,20.23,69.92Z"/>
              <path class="cls-3" d="m121.73,451.57c9.18-14.2,16.98-24.49,19.52-27.78,2.54,3.3,10.34,13.59,19.52,27.78.1-1.22.2-2.43.3-3.65-10.49-16.02-18.86-26.52-18.96-26.67l-.86-1.12-.86,1.12s-8.47,10.65-18.96,26.67c.1,1.22.2,2.43.3,3.65Z"/>
              <path class="cls-13" d="m141.25,315.34s-4.21,13.13-4.31,40.36c-.1,27.23,4.31,62.87,4.31,62.87,0,0,4.41-35.64,4.31-62.87s-4.31-40.36-4.31-40.36Z"/>
              <path class="cls-7" d="m160.11,457.65c-10.09-16.22-18.81-27.18-18.81-27.18,0,0-8.77,11-18.86,27.18,4.56,33.87,18.86,50.35,18.86,50.35,0,0,14.25-16.43,18.81-50.35Z"/>
              <path class="cls-12" d="m121.02,438.08c.46,47.2,20.23,69.92,20.23,69.92v-178.82s-20.69,61.75-20.23,108.9Z"/>
            </g>
            <path class="cls-7" d="m149.31,329.49c0,2.79-2.28,5.07-5.07,5.07h-5.98c-2.79,0-5.07-2.28-5.07-5.07h0c0-2.79,2.28-5.07,5.07-5.07h5.98c2.79,0,5.07,2.28,5.07,5.07h0Z"/>
            <path class="cls-1" d="m155.04,319.35c0,2.79-2.28,5.07-5.07,5.07h-17.44c-2.79,0-5.07-2.28-5.07-5.07h0c0-2.79,2.28-5.07,5.07-5.07h17.44c2.79,0,5.07,2.28,5.07,5.07h0Z"/>
            <path class="cls-7" d="m149.31,309.15c0,2.79-2.28,5.07-5.07,5.07h-5.98c-2.79,0-5.07-2.28-5.07-5.07h0c0-2.79,2.28-5.07,5.07-5.07h5.98c2.79,0,5.07,2.28,5.07,5.07h0Z"/>
          </g>
          <g>
            <path class="cls-1" d="m130.05,304.69c-.46,1.17-1.77,1.72-2.89,1.27h0c-1.17-.46-1.72-1.77-1.27-2.89l5.22-13.18c.46-1.17,1.77-1.72,2.89-1.27h0c1.17.46,1.67,1.72,1.27,2.89l-5.22,13.18Z"/>
            <g>
              <path class="cls-5" d="m66.77,457.71s22.21-11.46,37.01-47.66c14.8-36.2,17.85-90.09,17.85-90.09,0,0-34.83,41.22-48.98,77.67-14.09,36.45-5.88,60.03-5.88,60.03v.05Z"/>
              <path class="cls-9" d="m69,408.27c11.41-8.11,20.58-13.69,23.58-15.41.96,3.3,3.8,13.64,6.49,27.38.46-.86.91-1.77,1.32-2.74-3.14-15.56-6.39-26.21-6.44-26.31l-.35-1.12-1.01.56s-9.79,5.58-22.76,14.7c-.3.96-.61,1.93-.91,2.89l.1.05Z"/>
              <path class="cls-13" d="m125.84,309.31s-7.25,8.82-15.67,29.76c-8.42,20.94-15.97,49.74-15.97,49.74,0,0,14.3-26.11,22.61-47.1,8.26-20.99,9.08-32.4,9.08-32.4h-.05Z"/>
              <path class="cls-1" d="m96.69,424.7c-2.79-15.56-6.19-26.72-6.19-26.72,0,0-10.14,5.78-22.87,15.16-6.9,27.48-.91,44.51-.91,44.51,0,0,16.02-8.26,29.91-32.96h.05Z"/>
              <path class="cls-12" d="m72.6,397.63c-14.09,36.45-5.88,60.03-5.88,60.03l54.81-137.7s-34.83,41.22-48.98,77.67h.05Z"/>
            </g>
            <path class="cls-7" d="m127.71,322.69c-.86,2.18-3.3,3.19-5.48,2.33l-4.61-1.83c-2.18-.86-3.19-3.3-2.33-5.48h0c.86-2.18,3.3-3.19,5.48-2.33l4.61,1.83c2.18.86,3.19,3.3,2.33,5.48h0Z"/>
            <path class="cls-1" d="m135.22,316.61c-.86,2.18-3.3,3.19-5.48,2.33l-13.44-5.32c-2.18-.86-3.19-3.3-2.33-5.48h0c.86-2.18,3.3-3.19,5.48-2.33l13.44,5.32c2.18.86,3.19,3.3,2.33,5.48h0Z"/>
            <path class="cls-7" d="m133.95,307.03c-.86,2.18-3.3,3.19-5.48,2.33l-4.61-1.83c-2.18-.86-3.19-3.3-2.33-5.48h0c.86-2.18,3.3-3.19,5.48-2.33l4.61,1.83c2.18.86,3.19,3.3,2.33,5.48h0Z"/>
          </g>
          <path class="cls-1" d="m157.12,289.08c0,1.57-1.27,2.84-2.84,2.84h-26.06c-1.57,0-2.84-1.27-2.84-2.84h0c0-1.57,1.27-2.84,2.84-2.84h26.06c1.57,0,2.84,1.27,2.84,2.84h0Z"/>
          <g>
            <path class="cls-1" d="m351.25,308.29c0,1.47,1.22,2.69,2.69,2.69h0c1.47,0,2.69-1.22,2.69-2.69v-17.09c0-1.47-1.22-2.69-2.69-2.69h0c-1.47,0-2.69,1.22-2.69,2.69v17.09Z"/>
            <g>
              <path class="cls-4" d="m353.94,508s-19.77-22.71-20.23-69.92c-.46-47.15,20.23-108.9,20.23-108.9,0,0,20.69,61.75,20.23,108.9-.46,47.2-20.23,69.92-20.23,69.92Z"/>
              <path class="cls-3" d="m373.46,451.57c-9.18-14.2-16.98-24.49-19.52-27.78-2.53,3.3-10.34,13.59-19.52,27.78-.1-1.22-.2-2.43-.3-3.65,10.49-16.02,18.86-26.52,18.96-26.67l.86-1.12.86,1.12s8.47,10.65,18.96,26.67c-.1,1.22-.2,2.43-.3,3.65Z"/>
              <path class="cls-13" d="m353.94,315.34s4.21,13.13,4.31,40.36c.1,27.23-4.31,62.87-4.31,62.87,0,0-4.41-35.64-4.31-62.87.1-27.23,4.31-40.36,4.31-40.36Z"/>
              <path class="cls-7" d="m335.08,457.65c10.09-16.22,18.81-27.18,18.81-27.18,0,0,8.77,11,18.86,27.18-4.56,33.87-18.86,50.35-18.86,50.35,0,0-14.25-16.43-18.81-50.35Z"/>
              <path class="cls-12" d="m374.17,438.08c-.46,47.2-20.23,69.92-20.23,69.92v-178.82s20.69,61.75,20.23,108.9Z"/>
            </g>
            <path class="cls-7" d="m345.88,329.49c0,2.79,2.28,5.07,5.07,5.07h5.98c2.79,0,5.07-2.28,5.07-5.07h0c0-2.79-2.28-5.07-5.07-5.07h-5.98c-2.79,0-5.07,2.28-5.07,5.07h0Z"/>
            <path class="cls-1" d="m340.15,319.35c0,2.79,2.28,5.07,5.07,5.07h17.44c2.79,0,5.07-2.28,5.07-5.07h0c0-2.79-2.28-5.07-5.07-5.07h-17.44c-2.79,0-5.07,2.28-5.07,5.07h0Z"/>
            <path class="cls-7" d="m345.88,309.15c0,2.79,2.28,5.07,5.07,5.07h5.98c2.79,0,5.07-2.28,5.07-5.07h0c0-2.79-2.28-5.07-5.07-5.07h-5.98c-2.79,0-5.07,2.28-5.07,5.07h0Z"/>
          </g>
          <g>
            <path class="cls-1" d="m365.09,304.69c.46,1.17,1.77,1.72,2.89,1.27h0c1.17-.46,1.72-1.77,1.27-2.89l-5.22-13.18c-.46-1.17-1.77-1.72-2.89-1.27h0c-1.17.46-1.67,1.72-1.27,2.89l5.22,13.18Z"/>
            <g>
              <path class="cls-5" d="m428.42,457.71s-22.21-11.46-37.01-47.66c-14.8-36.2-17.85-90.09-17.85-90.09,0,0,34.83,41.22,48.98,77.67,14.09,36.45,5.88,60.03,5.88,60.03v.05Z"/>
              <path class="cls-9" d="m426.14,408.27c-11.41-8.11-20.58-13.69-23.58-15.41-.96,3.3-3.8,13.64-6.49,27.38-.46-.86-.91-1.77-1.32-2.74,3.14-15.56,6.39-26.21,6.44-26.31l.35-1.12,1.01.56s9.79,5.58,22.76,14.7c.3.96.61,1.93.91,2.89l-.1.05Z"/>
              <path class="cls-13" d="m369.35,309.31s7.25,8.82,15.67,29.76c8.42,20.94,15.97,49.74,15.97,49.74,0,0-14.3-26.11-22.61-47.1-8.26-20.99-9.08-32.4-9.08-32.4h.05Z"/>
              <path class="cls-1" d="m398.5,424.7c2.79-15.56,6.19-26.72,6.19-26.72,0,0,10.14,5.78,22.87,15.16,6.9,27.48.91,44.51.91,44.51,0,0-16.02-8.26-29.91-32.96h-.05Z"/>
              <path class="cls-12" d="m422.54,397.63c14.09,36.45,5.88,60.03,5.88,60.03l-54.81-137.7s34.83,41.22,48.98,77.67h-.05Z"/>
            </g>
            <path class="cls-7" d="m367.48,322.69c.86,2.18,3.3,3.19,5.48,2.33l4.61-1.83c2.18-.86,3.19-3.3,2.33-5.48h0c-.86-2.18-3.3-3.19-5.48-2.33l-4.61,1.83c-2.18.86-3.19,3.3-2.33,5.48h0Z"/>
            <path class="cls-1" d="m359.97,316.61c.86,2.18,3.3,3.19,5.48,2.33l13.44-5.32c2.18-.86,3.19-3.3,2.33-5.48h0c-.86-2.18-3.3-3.19-5.48-2.33l-13.44,5.32c-2.18.86-3.19,3.3-2.33,5.48h0Z"/>
            <path class="cls-7" d="m361.24,307.03c.86,2.18,3.3,3.19,5.48,2.33l4.61-1.83c2.18-.86,3.19-3.3,2.33-5.48h0c-.86-2.18-3.3-3.19-5.48-2.33l-4.61,1.83c-2.18.86-3.19,3.3-2.33,5.48h0Z"/>
          </g>
          <path class="cls-1" d="m338.07,289.08c0,1.57,1.27,2.84,2.84,2.84h26.06c1.57,0,2.84-1.27,2.84-2.84h0c0-1.57-1.27-2.84-2.84-2.84h-26.06c-1.57,0-2.84,1.27-2.84,2.84h0Z"/>
        </g>
      </g>
    </g>
  </g>
</svg>