<?xml version="1.0" encoding="UTF-8"?>
<svg xmlns="http://www.w3.org/2000/svg" viewBox="0 0 500 575">
  <defs>
    <style>
      .cls-1 {
        fill: #65ccaa;
      }

      .cls-1, .cls-2, .cls-3, .cls-4, .cls-5, .cls-6, .cls-7, .cls-8, .cls-9 {
        stroke-width: 0px;
      }

      .cls-2 {
        fill: #262626;
      }

      .cls-3 {
        fill: #241816;
      }

      .cls-4 {
        fill: #fff;
      }

      .cls-5 {
        fill: #5da0ff;
      }

      .cls-6 {
        fill: #487c69;
      }

      .cls-7 {
        fill: #55b595;
      }

      .cls-8 {
        fill: #e7d8b4;
      }

      .cls-9 {
        fill: #cf9e76;
      }

      .cls-10 {
        fill: #fcd770;
        stroke: #000;
        stroke-miterlimit: 10;
      }
    </style>
  </defs>
  <g id="Capa_1" data-name="Capa 1">
    <g>
      <path class="cls-8" d="m250,573c-66.51,0-129.04-25.9-176.07-72.93C26.9,453.04,1,390.51,1,324s25.9-129.04,72.93-176.07c47.03-47.03,109.56-72.93,176.07-72.93s129.04,25.9,176.07,72.93c47.03,47.03,72.93,109.56,72.93,176.07s-25.9,129.04-72.93,176.07c-47.03,47.03-109.56,72.93-176.07,72.93Z"/>
      <path class="cls-3" d="m250,76c33.48,0,65.96,6.56,96.53,19.49,29.53,12.49,56.05,30.37,78.83,53.15,22.78,22.78,40.66,49.3,53.15,78.83,12.93,30.57,19.49,63.05,19.49,96.53s-6.56,65.96-19.49,96.53c-12.49,29.53-30.37,56.05-53.15,78.83-22.78,22.78-49.3,40.66-78.83,53.15-30.57,12.93-63.05,19.49-96.53,19.49s-65.96-6.56-96.53-19.49c-29.53-12.49-56.05-30.37-78.83-53.15-22.78-22.78-40.66-49.3-53.15-78.83-12.93-30.57-19.49-63.05-19.49-96.53s6.56-65.96,19.49-96.53c12.49-29.53,30.37-56.05,53.15-78.83s49.3-40.66,78.83-53.15c30.57-12.93,63.05-19.49,96.53-19.49m0-2C111.93,74,0,185.93,0,324s111.93,250,250,250,250-111.93,250-250-111.93-250-250-250h0Z"/>
    </g>
  </g>
  <g id="Capa_2" data-name="Capa 2">
    <g>
      <path class="cls-7" d="m158.37,533.93c-2.36,0-4.26-1.93-4.25-4.28,0-1.24.55-2.42,1.49-3.23l36.29-30.83-60.71,35.05c-2.04,1.19-4.65.5-5.83-1.54-1.08-1.85-.62-4.22,1.08-5.53l37.28-28.95-50.7,29.27c-2.04,1.18-4.65.48-5.83-1.56-1.09-1.88-.58-4.29,1.17-5.57l28.74-21.05-36.01,20.8c-2.06,1.15-4.66.41-5.8-1.65-1.03-1.85-.55-4.18,1.14-5.46l30.98-22.95-36.38,21.02c-2.05,1.17-4.65.45-5.82-1.6-1.05-1.85-.58-4.2,1.11-5.49l32.66-24.75-36.27,20.94c-2.05,1.16-4.66.43-5.81-1.63-1.03-1.83-.57-4.15,1.08-5.45l30.94-23.8-32.01,18.48c-2.04,1.18-4.65.49-5.83-1.54-1.09-1.87-.61-4.25,1.11-5.55l22.07-16.77-20.1,11.6c-2.04,1.17-4.65.47-5.82-1.58-1.08-1.89-.57-4.29,1.19-5.57l3.49-2.56c-2.26.66-4.63-.63-5.3-2.89-.49-1.67.08-3.47,1.45-4.55l13.65-10.84-6.05,3.5c-2.05,1.16-4.66.43-5.81-1.63-.93-1.66-.65-3.74.69-5.1l19.84-19.63c-2.34-.24-4.05-2.33-3.81-4.68.14-1.36.92-2.57,2.1-3.26l23.71-13.65c1.85-1.07,4.22-.61,5.52,1.09,1.31,1.71,1.14,4.12-.39,5.63l-17.5,17.32,27.15-15.68c2.04-1.18,4.65-.49,5.83,1.54,1.07,1.83.62,4.17-1.04,5.49l-13.59,10.81,19.96-11.53c2.04-1.17,4.65-.47,5.82,1.58,1.08,1.89.57,4.29-1.19,5.57l-2.61,1.89,6.9-3.99c2.05-1.17,4.65-.45,5.82,1.6,1.05,1.85.58,4.2-1.11,5.49l-22.04,16.8,29.43-16.98c2.05-1.16,4.66-.43,5.81,1.63,1.03,1.83.57,4.15-1.08,5.45l-30.92,23.78,39.95-23.04c2.05-1.17,4.65-.45,5.82,1.6,1.05,1.85.58,4.2-1.11,5.49l-32.69,24.75,41.68-24.06c2.05-1.16,4.65-.45,5.82,1.6,1.06,1.86.57,4.23-1.14,5.52l-30.96,22.93,39.3-22.78c2.04-1.18,4.65-.48,5.83,1.56,1.09,1.88.58,4.29-1.17,5.57l-28.77,21.11,36.6-21.13c2.06-1.15,4.66-.41,5.8,1.65,1.01,1.82.57,4.11-1.06,5.41l-37.28,28.92,47.61-27.49c2.05-1.17,4.65-.45,5.82,1.59,1.01,1.78.62,4.02-.93,5.35l-36.29,30.82,26.4-15.24c1.99-1.26,4.63-.68,5.89,1.31,1.26,1.99.68,4.63-1.31,5.89-.1.06-.2.12-.31.18l-67.26,38.84c-.65.38-1.38.58-2.13.57h0Z"/>
      <path class="cls-7" d="m354.1,533.96c-2.36,0-4.27-1.91-4.27-4.27,0-1.29.58-2.51,1.59-3.32l31.45-25.23-52.39,30.24c-2.04,1.17-4.65.46-5.82-1.58-1.07-1.86-.59-4.22,1.12-5.52l45.92-34.81-60.85,35.14c-2.04,1.18-4.65.49-5.83-1.55-1.12-1.94-.56-4.41,1.29-5.67l21.66-14.75-27.61,15.94c-2.06,1.14-4.66.4-5.8-1.67-1.04-1.89-.52-4.25,1.23-5.52l40.96-28.61-47.01,27.14c-2.03,1.19-4.65.51-5.84-1.52-1.12-1.91-.59-4.37,1.22-5.65l51.52-36.81-56.4,32.55c-2.04,1.17-4.65.47-5.82-1.58-1.08-1.89-.57-4.29,1.19-5.57l52.05-37.55-54.13,31.25c-2.04,1.18-4.65.49-5.83-1.55-1.13-1.95-.55-4.43,1.32-5.68l10.96-7.34-8.89,5.12c-1.99,1.26-4.63.68-5.89-1.31-1.26-1.99-.68-4.63,1.31-5.89.1-.06.2-.12.31-.18l119.74-69.12c2.07-1.12,4.66-.35,5.78,1.72,1.02,1.89.48,4.25-1.28,5.5l-10.94,7.34,15.98-9.22c2.06-1.15,4.66-.41,5.8,1.65,1.04,1.86.54,4.21-1.17,5.49l-52.05,37.55,59.89-34.58c2.03-1.19,4.65-.51,5.84,1.52,1.12,1.91.59,4.37-1.22,5.65l-51.55,36.84,56.23-32.43c2.06-1.14,4.66-.4,5.8,1.67,1.04,1.89.52,4.25-1.23,5.52l-40.98,28.57,42.15-24.34c2.04-1.18,4.65-.49,5.83,1.55,1.12,1.94.56,4.41-1.29,5.67l-21.64,14.74,19.97-11.54c2.05-1.17,4.65-.45,5.82,1.6,1.05,1.85.58,4.2-1.11,5.49l-45.94,34.82,41.58-24c2.04-1.18,4.65-.47,5.83,1.57,1.05,1.82.62,4.13-1.01,5.45l-31.43,25.22,19.63-11.35c1.99-1.26,4.63-.68,5.89,1.31,1.26,1.99.68,4.63-1.31,5.89-.1.06-.2.12-.31.18l-67.92,39.21c-.63.38-1.35.59-2.09.6Z"/>
      <path class="cls-1" d="m246.86,474.32c-2.36,0-4.27-1.91-4.27-4.26,0-1.4.69-2.71,1.84-3.51l77.91-53.84-100.88,58.25c-2.02,1.22-4.64.57-5.86-1.45-1.22-2.02-.57-4.64,1.45-5.86l12.76-8.05-21.41,12.36c-2.01,1.23-4.64.59-5.87-1.42s-.59-4.64,1.42-5.87l63.67-40.96-74.89,43.23c-2.01,1.23-4.64.61-5.87-1.4-1.23-2.01-.61-4.64,1.4-5.87l99.04-64.61-111.53,64.39c-2.08,1.11-4.66.33-5.77-1.75-1.03-1.94-.43-4.34,1.4-5.56l7.98-4.94-12.66,7.3c-2.06,1.14-4.66.38-5.79-1.68-1.07-1.95-.47-4.39,1.38-5.61l64.33-40.46-70.74,40.86c-2.02,1.22-4.65.56-5.86-1.46-1.22-2.02-.56-4.65,1.46-5.86l32.19-19.94-36.32,20.98c-2.09,1.09-4.67.28-5.75-1.81-1-1.92-.4-4.28,1.39-5.5l35.84-22.19-39.53,22.83c-2.03,1.19-4.65.51-5.84-1.52-1.16-1.98-.54-4.53,1.4-5.76l124.95-80.27-132.01,76.19c-2.02,1.21-4.64.54-5.85-1.48-1.21-2.02-.54-4.64,1.48-5.85h0l32.5-20.04-34.6,19.99c-2.02,1.22-4.64.56-5.86-1.45-1.22-2.02-.56-4.64,1.45-5.86l88.1-55.24-91.31,52.69c-2.06,1.15-4.66.41-5.81-1.64-1.09-1.95-.49-4.41,1.38-5.64l121.52-77.37-125.08,72.21c-2.07,1.12-4.66.35-5.78-1.72-1.05-1.93-.46-4.34,1.36-5.57l119.53-76.02-121.98,70.42c-2.02,1.21-4.65.55-5.85-1.48-1.21-2.02-.55-4.65,1.48-5.85l40.92-25.24-40.6,23.43c-2.06,1.14-4.66.39-5.8-1.67-1.09-1.97-.46-4.45,1.44-5.66l5.4-3.31-4.16,2.41c-2.02,1.22-4.64.56-5.86-1.45-1.22-2.02-.56-4.64,1.45-5.86l84.11-52.76-83.34,48.11c-2.06,1.15-4.66.42-5.81-1.64-1.1-1.96-.49-4.44,1.4-5.67l77.65-48.64-75.95,43.85c-2.07,1.12-4.66.35-5.78-1.72-1.05-1.93-.46-4.34,1.36-5.57l92.5-58.62-90.09,51.98c-2.04,1.18-4.65.48-5.83-1.57-1.15-1.99-.51-4.53,1.43-5.75l45.07-28.08-41.53,23.94c-2.02,1.21-4.64.55-5.85-1.47-1.19-1.98-.58-4.55,1.37-5.79l119.47-78.41-114.6,66.15c-2.06,1.15-4.66.41-5.81-1.64-1.08-1.94-.5-4.39,1.35-5.63l88.22-57.17-81.59,47.09c-2.05,1.17-4.65.45-5.82-1.6-1.12-1.96-.51-4.45,1.37-5.68l59.09-37.97-51.05,29.47c-2.05,1.17-4.65.46-5.82-1.59-1.13-1.97-.51-4.48,1.4-5.71l29.24-18.65-20,11.56c-2.06,1.15-4.66.42-5.81-1.64-1.08-1.93-.5-4.37,1.33-5.61l46.77-30.91-33.89,19.57c-2.07,1.13-4.66.38-5.79-1.69-1.04-1.9-.49-4.27,1.27-5.53l33.48-22.61-16.31,9.39c-2.04,1.17-4.65.47-5.82-1.58-1.06-1.85-.6-4.19,1.09-5.5l33-25.4c-1.19-.25-2.21-.99-2.81-2.04-1.18-2.04-.48-4.65,1.56-5.83l46.17-26.65c2.04-1.17,4.65-.47,5.82,1.58,1.06,1.85.6,4.19-1.09,5.5l-26.41,20.33,65.34-37.67c2.05-1.17,4.65-.45,5.82,1.59,1.1,1.93.54,4.38-1.3,5.63l-33.57,22.64,51.81-29.87c2.04-1.18,4.65-.49,5.83,1.55,1.13,1.96.55,4.46-1.34,5.7l-46.69,30.85,63.74-36.8c2.07-1.12,4.66-.35,5.78,1.72,1.05,1.93.46,4.34-1.36,5.57l-29.3,18.71,39.67-22.9c2.06-1.14,4.66-.38,5.79,1.68,1.06,1.94.48,4.36-1.36,5.6l-59.03,37.95,70.1-40.47c2.06-1.15,4.66-.41,5.81,1.64,1.08,1.94.5,4.39-1.35,5.63l-88.29,57.19,100.01-57.73c2.07-1.13,4.66-.36,5.79,1.71,1.04,1.91.47,4.3-1.32,5.54l-119.42,78.4,132-76.21c2.04-1.18,4.65-.48,5.83,1.56,1.15,1.99.51,4.53-1.43,5.75l-45.05,28.06,50.14-28.94c2.07-1.12,4.66-.35,5.78,1.72,1.05,1.93.46,4.34-1.36,5.57l-92.48,58.6,99.1-57.17c2.02-1.22,4.64-.56,5.86,1.45,1.22,2.02.56,4.64-1.45,5.86h0l-77.65,48.64,82.3-47.51c2.07-1.12,4.66-.35,5.78,1.72,1.05,1.94.45,4.36-1.39,5.59l-84.14,52.8,88.28-51.01c2.08-1.11,4.66-.33,5.77,1.75,1.04,1.95.42,4.37-1.42,5.58l-5.18,3.17,6.42-3.68c2.05-1.16,4.65-.43,5.81,1.62,1.11,1.98.48,4.48-1.43,5.7l-41.07,25.35,42.67-24.6c2.01-1.22,4.64-.58,5.86,1.43s.58,4.64-1.43,5.86l-119.47,75.99,122.76-70.88c2.01-1.22,4.64-.58,5.86,1.43s.58,4.64-1.43,5.86l-121.51,77.35,123.86-71.53c2.02-1.22,4.64-.56,5.86,1.45,1.22,2.02.56,4.64-1.45,5.86l-88.17,55.29,88.53-51.11c2.05-1.16,4.65-.43,5.81,1.62,1.11,1.98.48,4.48-1.43,5.7l-32.36,19.94,31.14-17.97c2.05-1.17,4.65-.45,5.82,1.6,1.12,1.96.51,4.45-1.37,5.68l-124.94,80.26,124.51-71.89c2.09-1.09,4.67-.28,5.76,1.81,1,1.92.4,4.28-1.39,5.5l-35.84,22.19,33.28-19.21c2.08-1.11,4.66-.33,5.77,1.75,1.03,1.94.43,4.34-1.4,5.56l-32.22,19.97,29.01-16.75c2.02-1.22,4.64-.57,5.86,1.45,1.22,2.02.57,4.64-1.45,5.86l-64.26,40.41,60.43-34.89c2.07-1.12,4.66-.35,5.78,1.72,1.06,1.95.44,4.39-1.42,5.6l-8.12,5.02,3.5-2.01c2.01-1.23,4.64-.61,5.87,1.4s.61,4.64-1.4,5.87l-98.99,64.6,92.53-53.42c2.01-1.23,4.64-.59,5.87,1.42s.59,4.64-1.42,5.87l-63.71,40.96,55.8-32.2c2.02-1.22,4.64-.57,5.86,1.45,1.22,2.02.57,4.64-1.45,5.86l-12.8,8.06,4.48-2.56c2.05-1.16,4.65-.43,5.81,1.62,1.08,1.91.53,4.32-1.26,5.58l-77.93,53.84,62.1-35.84c2.05-1.16,4.65-.44,5.82,1.61,1.08,1.9.55,4.31-1.23,5.58l-44.31,31.11,23.04-13.28c2.04-1.19,4.65-.5,5.84,1.54,1.11,1.9.59,4.32-1.18,5.61l-25.6,18.6c.51.35.94.82,1.25,1.37,1.17,2.04.47,4.64-1.56,5.82l-46.18,26.67c-2.04,1.19-4.65.5-5.84-1.54-1.11-1.9-.59-4.32,1.18-5.61l6.68-4.86-36.83,21.27c-2.05,1.16-4.65.44-5.82-1.61-1.08-1.9-.55-4.31,1.23-5.58l44.37-31.16-69.84,40.34c-.65.37-1.38.57-2.13.57h0Z"/>
      <path class="cls-7" d="m257.05,158.7c-2.36,0-4.27-1.91-4.27-4.26,0-.79.22-1.56.63-2.23l1.75-2.86-14.07,8.12c-2.04,1.18-4.65.48-5.83-1.57-.96-1.67-.69-3.77.66-5.13l6.4-6.45-6.42,3.7c-2.01,1.22-4.64.58-5.86-1.43-1.07-1.76-.73-4.03.8-5.4l8.32-7.88-3.41,1.99c-1.76,1.02-3.99.67-5.34-.85-1.34-1.53-1.42-3.8-.17-5.42l12.89-16.7-8,4.63c-2.04,1.18-4.65.49-5.83-1.55-.54-.93-.71-2.02-.47-3.07l1.78-8c-2.19-.88-3.25-3.36-2.37-5.55.36-.9,1.02-1.65,1.87-2.13l4.16-2.39c2.04-1.17,4.65-.47,5.82,1.58.53.92.7,2.01.46,3.05l-1.29,5.79,18.29-10.57c2.04-1.18,4.65-.49,5.83,1.55.87,1.5.75,3.39-.32,4.76l-12.9,16.73,16.05-9.26c2-1.24,4.63-.62,5.87,1.38,1.09,1.77.75,4.07-.8,5.44l-8.32,7.87,2.73-1.56c2.07-1.13,4.66-.36,5.79,1.71.89,1.63.62,3.65-.67,4.99l-6.41,6.47.95-.55c2.04-1.18,4.65-.49,5.83,1.55.79,1.36.77,3.03-.05,4.37l-3.11,5.12c2.28.61,3.63,2.95,3.02,5.22-.29,1.09-1.01,2.03-1.99,2.59l-9.91,5.72c-.64.35-1.37.52-2.1.49h0Z"/>
      <path class="cls-6" d="m237.35,423.02c-2.36,0-4.27-1.91-4.27-4.27,0-1.34.63-2.61,1.71-3.41l32.79-24.58-47.56,27.45c-2.05,1.16-4.66.43-5.81-1.63-1.08-1.92-.52-4.34,1.28-5.59l9.77-6.66-15.51,8.96c-2.03,1.19-4.65.52-5.84-1.52-1.09-1.85-.63-4.22,1.06-5.53l38.67-30.54-47.27,27.31c-2.04,1.18-4.65.49-5.83-1.55-1.1-1.9-.58-4.33,1.21-5.61l9.7-6.99-11.55,6.67c-2.03,1.2-4.64.54-5.85-1.49-1.08-1.81-.67-4.14.96-5.47l21.4-18.01-23.52,13.58c-2.05,1.17-4.65.45-5.82-1.59-.94-1.65-.68-3.72.65-5.09l15.08-15.36-14.67,8.47c-2.03,1.19-4.65.5-5.84-1.53-.64-1.09-.76-2.4-.33-3.59l4.66-13.36c-2.04,1.18-4.65.48-5.83-1.57-1.18-2.04-.48-4.65,1.57-5.83l9.91-5.72c2.03-1.19,4.65-.5,5.84,1.53.64,1.09.76,2.4.33,3.59l-4.66,13.36,32-18.43c2.05-1.17,4.65-.45,5.82,1.59.94,1.65.68,3.72-.65,5.09l-15.06,15.31,38.09-21.99c2.05-1.17,4.65-.46,5.82,1.59,1.02,1.78.62,4.04-.94,5.37l-21.41,18.02,43.27-24.98c2.04-1.18,4.65-.49,5.83,1.55,1.1,1.9.58,4.33-1.21,5.61l-9.71,6.99,24.52-14.15c2.05-1.16,4.66-.43,5.81,1.63,1.02,1.82.58,4.11-1.04,5.41l-38.66,30.51,63.86-36.86c2.07-1.12,4.66-.36,5.79,1.71,1.03,1.89.49,4.24-1.25,5.5l-9.74,6.64,10.09-5.82c2.04-1.18,4.65-.48,5.83,1.56,1.08,1.87.59,4.25-1.13,5.55l-32.8,24.62,25.89-14.94c2.05-1.16,4.65-.44,5.81,1.61,1,1.76.62,3.98-.9,5.31l-24.02,20.69,8.19-4.73c2.05-1.16,4.65-.45,5.82,1.6,1.15,2.03.46,4.61-1.55,5.79l-47.52,27.43c-2.04,1.18-4.65.47-5.83-1.57-1.02-1.77-.64-4.02.91-5.36l24.04-20.7-48.22,27.85c-.65.38-1.4.58-2.16.57h0Z"/>
      <path class="cls-4" d="m322.28,295.04c-2.36,0-4.26-1.92-4.26-4.27,0-1.08.41-2.12,1.15-2.91l19.2-20.48-37.9,21.87c-2.08,1.1-4.66.31-5.77-1.77-.89-1.67-.56-3.73.79-5.06l28.67-25.6-36.75,21.21c-2.05,1.17-4.65.46-5.82-1.59-1.03-1.8-.61-4.09.99-5.41l24.03-19.51-25.6,14.77c-2.06,1.15-4.66.41-5.8-1.65-.95-1.7-.62-3.84.8-5.18l28.65-26.19-25.8,14.9c-2.04,1.18-4.65.48-5.83-1.56-.92-1.6-.71-3.61.52-4.98l15.7-17.53c-2.13,1.02-4.67.12-5.69-2.01-.95-1.99-.23-4.38,1.67-5.51l22.88-13.21c2.04-1.18,4.65-.48,5.83,1.56.92,1.6.71,3.61-.52,4.98l-15.68,17.49,36.59-21.12c2.06-1.15,4.66-.41,5.8,1.65.95,1.7.62,3.84-.8,5.18l-28.67,26.21,38.25-22.08c2.05-1.15,4.66-.42,5.81,1.63,1.01,1.79.59,4.05-.99,5.37l-24.02,19.51,26.19-15.11c2.04-1.18,4.65-.48,5.83,1.56,1.01,1.75.65,3.97-.85,5.32l-28.67,25.6,26.92-15.55c2.05-1.17,4.65-.46,5.82,1.58.93,1.62.69,3.66-.58,5.03l-19.2,20.48,6.47-3.73c1.99-1.26,4.63-.68,5.89,1.31s.68,4.63-1.31,5.89c-.1.06-.21.12-.31.18l-31.49,18.18c-.65.37-1.39.55-2.13.54h0Z"/>
      <path class="cls-4" d="m184.35,295.12c-2.36,0-4.27-1.91-4.27-4.26,0-1.23.53-2.4,1.45-3.21l7.26-6.37-18.77,10.84c-2.04,1.18-4.65.49-5.83-1.54-1.06-1.82-.63-4.13.99-5.45l15.45-12.6-22.46,12.96c-2.05,1.16-4.66.43-5.81-1.63-.98-1.74-.62-3.93.87-5.27l29.96-26.27-35.69,20.6c-2.05,1.16-4.65.44-5.82-1.61-1.02-1.79-.61-4.05.97-5.37l24.87-20.53-24.75,14.28c-2.01,1.22-4.64.58-5.86-1.43-1.07-1.76-.73-4.03.8-5.4l25.05-23.64-18.88,10.91c-2.04,1.17-4.65.46-5.82-1.58-.99-1.72-.66-3.89.8-5.24l10.04-9.22c-.74-.39-1.36-.98-1.77-1.71-1.18-2.04-.48-4.65,1.56-5.83l22.88-13.21c2.04-1.17,4.65-.46,5.82,1.58.99,1.72.66,3.89-.8,5.24l-3.53,3.25,17.07-9.86c2.01-1.22,4.64-.58,5.86,1.43,1.07,1.76.73,4.03-.8,5.4l-25.07,23.66,37.41-21.6c2.03-1.2,4.65-.52,5.84,1.51,1.07,1.82.65,4.15-.99,5.48l-24.87,20.58,29.11-16.8c2.05-1.17,4.65-.46,5.82,1.58,1.01,1.76.64,3.98-.88,5.32l-29.99,26.21,30.57-17.64c2.04-1.18,4.65-.49,5.83,1.54,1.06,1.82.63,4.13-.99,5.45l-15.44,12.6,10.38-5.97c2.04-1.18,4.65-.49,5.83,1.55,1.03,1.77.66,4.01-.88,5.36l-9.01,7.91c2.35-.13,4.36,1.68,4.49,4.03.09,1.6-.73,3.11-2.11,3.91l-33.73,19.48c-.65.37-1.39.56-2.13.55h0Z"/>
      <path class="cls-4" d="m239.29,380.57c-2.36.02-4.28-1.87-4.31-4.23,0-.96.31-1.89.89-2.65l12.89-16.66-32.62,18.82c-2.04,1.17-4.65.46-5.82-1.58-.85-1.49-.73-3.34.3-4.7l9.63-12.59-9.96,5.75c-2.04,1.17-4.65.47-5.83-1.57-.56-.97-.71-2.12-.43-3.21l2.34-8.95c-2.14-.99-3.07-3.53-2.08-5.66.37-.79.97-1.46,1.73-1.9l4.27-2.47c2.04-1.18,4.65-.48,5.83,1.56.56.97.72,2.12.43,3.21l-1.71,6.5,19.63-11.35c2.04-1.17,4.65-.46,5.82,1.58.85,1.49.73,3.34-.3,4.7l-9.56,12.6,32.84-18.96c2.04-1.18,4.65-.47,5.83,1.57.86,1.5.74,3.36-.31,4.73l-12.89,16.67,34.99-20.19c2.04-1.17,4.65-.47,5.82,1.58.83,1.45.74,3.24-.23,4.6l-10.73,14.97,4.5-2.56c1.99-1.26,4.63-.68,5.89,1.31,1.26,1.99.68,4.63-1.31,5.89-.1.06-.2.12-.31.18l-21.58,12.41c-2.05,1.17-4.65.46-5.82-1.59-.82-1.44-.73-3.22.22-4.58l10.72-14.98-36.64,21.15c-.64.39-1.38.59-2.13.6h0Z"/>
      <path class="cls-1" d="m245.79,107.13c-2.36,0-4.27-1.9-4.27-4.26,0-1.12.44-2.2,1.23-3l16.21-16.44-27.58,15.91c-2.04,1.18-4.65.48-5.83-1.56-1.01-1.75-.65-3.97.85-5.32l19.09-17.07-22.81,13.16c-2.04,1.18-4.65.47-5.83-1.57-1.05-1.82-.62-4.13,1.01-5.45l8.84-7.06-7.3,4.22c-2.04,1.18-4.65.47-5.83-1.57-1.02-1.77-.64-4.02.91-5.36l9.39-8.11-4.27,2.45c-2.02,1.22-4.64.56-5.86-1.45-1.04-1.72-.73-3.94.74-5.31l8.07-7.77c-.72-.38-1.31-.95-1.71-1.66-1.18-2.04-.48-4.65,1.55-5.83l20.29-11.75c2.02-1.22,4.64-.56,5.86,1.45,1.04,1.72.73,3.94-.74,5.31l-2.19,2.12,13.35-7.7c2.04-1.17,4.65-.47,5.83,1.57,1.02,1.77.64,4.01-.9,5.35l-9.45,8.14,15.57-8.99c2.04-1.18,4.65-.47,5.83,1.57,1.05,1.82.62,4.13-1.01,5.45l-8.8,7.09,10.89-6.28c2.05-1.16,4.65-.45,5.82,1.6.99,1.74.64,3.92-.84,5.27l-19.08,17.07,19.06-11.01c2.04-1.18,4.65-.48,5.83,1.56.96,1.66.69,3.76-.66,5.13l-16.16,16.39,8.99-5.18c2.09-1.09,4.67-.29,5.76,1.8,1.03,1.96.38,4.39-1.49,5.58l-36.23,20.92c-.65.38-1.38.58-2.13.58h0Z"/>
      <path class="cls-5" d="m294.51,277.93c-2.36,0-4.26-1.92-4.26-4.28,0-1.1.43-2.16,1.19-2.95l2.67-2.76-8.01,4.63c-2.04,1.18-4.65.48-5.83-1.56-.85-1.47-.75-3.29.26-4.66l12.8-17.45-14.4,8.31c-2.04,1.18-4.65.48-5.83-1.56-.92-1.59-.72-3.59.5-4.97l4.96-5.58c-2.21-.82-3.33-3.28-2.51-5.49.34-.92.99-1.7,1.84-2.19l15.97-9.22c2.04-1.18,4.65-.48,5.83,1.56.92,1.59.72,3.59-.5,4.97l-1.71,1.96,9.17-5.29c2.04-1.19,4.65-.5,5.83,1.54.86,1.47.76,3.31-.25,4.68l-12.8,17.45,16.72-9.65c2.05-1.17,4.65-.46,5.82,1.59.94,1.64.68,3.7-.62,5.06l-4.2,4.35c2.36.05,4.23,1.99,4.18,4.35-.03,1.49-.84,2.86-2.13,3.61l-22.54,12.98c-.66.38-1.41.58-2.17.57h0Z"/>
      <path class="cls-5" d="m205.2,278.05c-1.25,0-2.44-.55-3.25-1.5-1.34-1.57-1.36-3.86-.06-5.46l4.67-5.72-13.58,7.83c-2.04,1.17-4.65.47-5.82-1.58-.86-1.5-.73-3.37.33-4.74l12.44-16.02-14.95,8.64c-2.04,1.18-4.65.48-5.83-1.56-.88-1.52-.73-3.43.37-4.81l6.33-7.87c-2.34-.24-4.05-2.33-3.81-4.68.14-1.36.92-2.57,2.1-3.26l15.85-9.16c2.04-1.18,4.65-.48,5.83,1.56.88,1.52.73,3.43-.37,4.81l-4.95,6.15,14.05-8.12c2.04-1.17,4.65-.47,5.83,1.57.86,1.5.73,3.37-.32,4.73l-12.47,16.02,14.83-8.53c2.04-1.18,4.65-.49,5.83,1.55.89,1.54.74,3.47-.39,4.84l-6.25,7.68c2.34.31,3.98,2.45,3.67,4.79-.17,1.31-.94,2.47-2.09,3.13l-15.88,9.17c-.65.36-1.39.53-2.13.51h0Z"/>
      <g>
        <path class="cls-2" d="m394.24,398.4c76.75-103.73,4.92-257.25-121.11-272.21.11-9.19.7-18.38,1.34-27.55,9.42-8.04,14.7-19.91,14.37-32.29-12.99-74.72-115.04-16.51-62.08,33.73.54,8.91,1.32,17.76,1.17,26.69-125.36,17.16-198.05,168.29-121.17,272.71-47.19,23.82-53.88,91.38-8.46,119.35,48.21,32.55,122.32,12.36,138.04-44.81,9.29.93,18.66.9,27.95-.09,14.11,60.84,94.09,77.3,140.86,41.81,30.65-21.88,37.76-64.47,15.88-95.12-6.85-9.6-16.08-17.25-26.77-22.22h0ZM220.86,68.26c-.23-39.19,57.51-34.59,59.49,2.2-2.1,39.01-59.27,34.87-59.49-2.2Zm30.33,39.79c4.43-.25,8.78-1.26,12.87-3-.44,7.17-.85,14.34-1.08,21.51-.15,4.84,1.71,21.56-3.35,24.27-3.06.49-6.19.49-9.25,0-13.81,3.46-12.36-10.68-11.95-19.98-.19-8.32-.55-16.63-1.04-24.94,4.42,1.59,9.1,2.31,13.8,2.13Zm-138.87,407.29c-16.32-8.04-28.65-22.39-34.13-39.73-5.32-19.23,6.97-68.41,33.51-69.33,28.24,36.76,69.88,60.83,115.82,66.97-12.16,49.44-73.64,64.49-115.2,42.09Zm-23.04-177.92c-22.92-96.17,43.18-186.94,138.4-202.35-1.83,17.92,5.71,25.4,23.16,23.53,15.94,1.78,24.75-6.38,22.6-22.98,197.68,35.6,185.38,315.92-15.81,330.25-79.35,2.11-149.45-51.36-168.39-128.44h.03Zm286.85,184.56c-41.35,12.75-89.87-6.96-101.96-49.18,45.01-6.84,85.73-30.55,113.91-66.31,17.92,2.32,33.94,35.08,35.89,48.73,4.54,31.64-18.55,57.73-47.85,66.76Z"/>
        <path class="cls-2" d="m305.05,338.05h-9c-.92-.5-2.03-.5-2.94,0h-56.28c-16.42,0-62.98-9.86-67.69,14.14-3.74,47.15,46.55,76.62,88.85,71.42,22.4-.47,43.48-10.65,57.79-27.89,15.59-19.7,33.72-64.62-10.73-57.67h0Zm-15.74,8.76c4.19,29.35-19.49,26.08-41.18,24.75-21.91,2.65-39.35-.07-36.23-26,27.96,2.45,50.23.8,77.41,1.25Zm19.73,44.8c-28.32,33.77-92.83,32.2-118.41-4.17-11.32-20.85-29.01-46.08,13.25-42.3-4.27,38.79,17.98,39.09,49.19,36.39,27.44,2.95,47.79-2.46,44.31-34.72,41.79-5.61,24.76,24.08,11.65,44.8Z"/>
        <path class="cls-2" d="m223.81,269.2c1.53-2.08,4.96-5.54,3.46-8.33.87-2.75,1.52-5.57,1.94-8.43,5.71-63.4-95.34-66.16-94.44-2.73.03,48.58,68.99,62.09,89.05,19.49Zm-4-18.3c1.21,8.94-5.05,17.17-13.99,18.38-8.94,1.21-17.17-5.05-18.38-13.99-.29-2.11-.16-4.25.38-6.31,1.58-8.77,9.97-14.6,18.74-13.03,7.34,1.32,12.82,7.5,13.25,14.95Zm-75.23-3.5c-1.21-37.97,53.67-50.81,69.85-17.51-42.56-14.19-52.36,50.06-7.03,47.59-22.49,22.93-64.31,1.39-62.81-30.08h0Z"/>
        <path class="cls-2" d="m319.47,200.77c-26.51.6-47.52,22.58-46.92,49.09.03,1.52.14,3.05.32,4.56.41,2.7,1.03,5.36,1.85,7.97,14.44,51.59,90.16,40.62,90.64-14.11.18-25.69-20.21-46.8-45.89-47.51h0Zm-36.81,58.97c-1.14-3.13-1.89-6.39-2.24-9.7,1.49-19.08,31.33-17.01,33.84.68,4.1,19.72-23.04,24.15-31.6,9.05v-.03Zm15.26,18.84c40.6-6.66,27.9-65.23-12.14-48.2,17.92-29.12,72.11-23.52,71.68,18.38-.33,34.63-36.75,43.97-59.54,29.86v-.03Z"/>
      </g>
    </g>
  </g>
  <g id="Capa_3" data-name="Capa 3">
    <g>
      <path class="cls-9" d="m472,116.11c0,45.6-70.88,140.85-212.43,140.85S47.1,161.71,47.1,116.11s59.25,31.03,210.46,31.03c151.34.09,214.45-76.63,214.45-31.03Z"/>
      <path class="cls-3" d="m259.57,262c-80.32,0-132.68-29.63-162.53-54.47-37.92-31.6-54.95-68.69-54.95-91.42,0-12.95,5-19.49,14.79-19.49,7.72,0,18.04,4.17,33.58,10.4,32.52,13.17,86.99,35.11,167.18,35.11s135.36-21.81,168.63-34.85c15.89-6.19,27.39-10.71,35.55-10.71,10.14,0,15.27,6.54,15.27,19.49,0,22.74-16.94,59.78-54.95,91.42-29.85,24.84-82.21,54.47-162.53,54.47l-.04.04ZM56.89,106.67c-2.19,0-4.7,0-4.7,9.44,0,20.32,15.84,54.12,51.31,83.7,28.57,23.79,78.83,52.14,156.12,52.14s127.55-28.35,156.12-52.14c35.46-29.58,51.31-63.33,51.31-83.7,0-9.44-2.68-9.44-5.22-9.44-6.28,0-17.6,4.43-31.86,10.01-34.02,13.3-90.81,35.55-172.32,35.55s-137.69-22.47-170.91-35.81c-13.43-5.4-24.05-9.7-29.85-9.7v-.04Z"/>
      <path class="cls-9" d="m299.69,8.05c-9.09,0-20.85,17.47-41.61,17.47s-33.44-17.47-44.29-17.47c-15.27,0-33.66,45.91-46.52,80.23-12.86,34.37-16.77,63.07-16.77,73.6,0,19.71,34.28,47.36,107.53,47.36s107.53-28.66,107.53-47.36c0-10.27-4.43-38.36-18.52-73.34-11.76-29.36-30.42-80.54-47.45-80.54l.09.04Z"/>
      <path class="cls-3" d="m258.12,214.29c-42.71,0-69.04-9.22-83.61-16.9-18.17-9.66-29.01-22.87-29.01-35.55,0-10.27,3.6-39.33,17.12-75.4C181.4,36.4,197.34,3.04,213.84,3.04c5.97,0,11.41,3.47,17.73,7.37,7.46,4.7,15.89,10.05,26.55,10.05s19.09-5.57,26.25-10.49c5.49-3.73,10.23-6.98,15.36-6.98,17.6,0,31.95,32.74,48.94,75.45,1.14,2.9,2.24,5.62,3.25,8.16,14.92,37.18,18.87,65.44,18.87,75.23,0,12.33-10.84,25.5-28.92,35.2-14.7,7.81-41.17,17.16-83.7,17.16l-.04.09ZM213.84,13.05c-1.67,0-7.94,1.76-19.71,24.49-8.03,15.54-15.71,35.24-22.16,52.45-12.11,32.17-16.46,60.61-16.46,71.85,0,6.85,6.19,17.38,23.66,26.69,13.61,7.2,38.27,15.76,78.92,15.76s65.27-8.73,78.92-16.06c17.47-9.35,23.66-20.06,23.66-26.33,0-10.58-4.87-38.27-18.17-71.45-1.05-2.59-2.11-5.35-3.29-8.25-5.79-14.57-12.95-32.65-20.5-46.79-10.71-20.15-16.9-22.3-19.09-22.3-2.06,0-5.93,2.68-9.7,5.22-7.55,5.14-17.86,12.25-31.86,12.25s-23.7-6.41-31.86-11.63c-4.65-3.03-9.13-5.93-12.25-5.93l-.09.04Z"/>
      <g>
        <path class="cls-3" d="m258.12,183.08c-63.69,0-97.92-20.98-105.78-39.33-1.27,8.03-1.76,14.31-1.76,18.08,0,19.71,34.28,47.36,107.53,47.36s107.53-28.66,107.53-47.36c0-3.73-.61-9.88-2.06-17.82-8.25,17.86-42.44,39.06-105.51,39.06h.04Z"/>
        <path class="cls-3" d="m258.12,214.29c-42.71,0-69.04-9.22-83.61-16.9-18.17-9.66-29.01-22.87-29.01-35.55,0-4.65.61-11.32,1.84-18.87.35-2.19,2.11-3.95,4.35-4.21s4.35.97,5.22,3.03c7.46,17.47,42.31,36.34,101.17,36.34s92.92-18.74,100.99-36.17c.92-1.98,3.03-3.12,5.22-2.9,2.19.26,3.95,1.89,4.3,4.08,1.32,7.55,2.11,14.22,2.11,18.74,0,12.33-10.84,25.5-28.92,35.2-14.66,7.9-41.13,17.25-83.61,17.25l-.04-.04Zm-102.4-56.75c-.13,1.62-.13,3.12-.13,4.35,0,6.85,6.19,17.38,23.66,26.69,13.61,7.2,38.27,15.76,78.92,15.76s65.27-8.73,78.92-16.06c17.47-9.35,23.66-20.06,23.66-26.33,0-1.32-.09-2.94-.22-4.7-16.11,16.68-50.83,30.99-102.35,30.99-54.6-.09-87.3-14.79-102.4-30.68h-.04Z"/>
      </g>
      <path class="cls-3" d="m363.68,149.73c-1.27,2.59-2.59,5.22-4.43,7.55-2.41,2.9-4.92,5.57-7.81,7.94-5.97,5-12.68,8.95-19.71,12.16-14.57,6.67-30.46,10.14-46.3,12.03-16.42,1.98-33.14,1.98-49.64.57-15.84-1.32-32.22-4.43-46.96-10.58-7.81-3.25-15.76-7.02-22.3-12.47-3.25-2.68-6.32-5.49-9-8.78-2.19-2.68-3.73-5.62-5.14-8.73,3.16,5.49,7.11,10.36,12.25,14.09,6.06,4.43,12.47,7.9,19.36,10.84,14.44,6.14,30.42,9.22,45.95,10.84,16.33,1.67,32.74,1.84,49.11.7,8.08-.57,16.2-1.62,24.05-3.16,7.55-1.54,15.14-3.29,22.38-5.97,7.94-2.94,16.06-6.28,23-11.28,3.38-2.41,6.54-5,9.44-8.03,2.24-2.41,3.99-5,5.71-7.72h.04Z"/>
      <path class="cls-3" d="m326.73,71.38c-8.16.35-15.27-4.3-20.41-10.36-6.06-7.11-9.48-16.46-9.92-25.76-.22-4.3.35-8.65,1.98-12.6,3.38,6.98,5.97,14.22,9.35,21.2,3.25,6.76,6.85,13.21,11.28,19.27,2.33,3.12,5.14,5.57,7.72,8.25Z"/>
      <path class="cls-3" d="m186.67,71.38c1.32-1.32,2.77-2.59,3.99-3.99,1.67-1.89,3.29-3.95,4.7-6.06,2.77-3.99,5.22-8.38,7.33-12.73,2.24-4.65,4.43-9.44,6.5-14.13,1.67-3.86,3.16-7.94,5-11.76,3.16,7.55,2.55,16.81-.09,24.4-2.9,8.51-7.94,16.24-15.71,21.11-3.6,2.24-7.59,3.29-11.76,3.16h.04Z"/>
      <path class="cls-3" d="m63.29,129.19c8.43,21.59,24.97,38.62,42.22,53.63,18.39,15.98,38.98,29.14,60.39,40.69,9.88,5.35,20.15,9.92,30.33,14.48-22.82-4.08-44.55-12.95-64.34-25.06-21.2-12.95-40.91-29.63-54.95-50.26-6.85-10.14-12.03-21.33-13.65-33.49Z"/>
      <path class="cls-3" d="m453.79,129.19c-2.94,22.82-18.52,42.57-34.76,57.94-18.21,17.16-39.77,31.03-62.94,40.56-11.41,4.65-23.17,8.16-35.24,10.27,20.15-8.87,39.68-18.79,58.16-30.81,20.28-13.21,39.63-28.49,55.48-46.88,8.08-9.35,14.84-19.49,19.36-31.03l-.04-.04Z"/>
      <path class="cls-3" d="m231.83,47.02c8.38,3.99,16.68,8.08,26.2,8.08s17.95-4.08,26.33-8.08c-4.21,7.9-12.95,13.61-21.68,14.92-7.46,1.14-15.14-.61-21.42-4.87-3.73-2.55-7.33-5.97-9.44-10.05Z"/>
      <path class="cls-10" d="m288.37,139.9c-.61,0-1.19.22-1.67.48l-8.03-13.96,8.03-13.96c.48.26,1.05.48,1.67.48,1.89,0,3.47-1.54,3.47-3.47s-1.54-3.47-3.47-3.47-3.47,1.54-3.47,3.47h-16.11l-8.51-14.79c1.05-.57,1.76-1.67,1.76-2.94,0-1.89-1.54-3.47-3.47-3.47s-3.47,1.54-3.47,3.47c0,1.27.7,2.41,1.76,2.94l-8.51,14.79h-16.11c0-1.89-1.54-3.47-3.47-3.47s-3.47,1.54-3.47,3.47,1.54,3.47,3.47,3.47c.61,0,1.19-.22,1.67-.48l8.03,13.96-8.03,13.96c-.48-.26-1.05-.48-1.67-.48-1.89,0-3.47,1.54-3.47,3.47s1.54,3.47,3.47,3.47,3.47-1.54,3.47-3.47h16.11l8.51,14.79c-1.05.57-1.76,1.67-1.76,2.94,0,1.89,1.54,3.47,3.47,3.47s3.47-1.54,3.47-3.47c0-1.27-.7-2.41-1.76-2.94l8.51-14.79h16.11c0,1.89,1.54,3.47,3.47,3.47s3.47-1.54,3.47-3.47-1.54-3.47-3.47-3.47Z"/>
      <g>
        <path class="cls-3" d="m363.81,136.65c-6.32,5.93-12.95,11.28-20.5,15.63-8.3,4.78-17.34,8.38-26.55,10.93-3.99,1.05-8.08,2.06-12.16,2.46,7.81-2.11,15.41-5.79,22.47-9.79,7.81-4.52,15.05-10.05,21.42-16.46,2.9-2.94,5.4-6.28,7.94-9.48,2.41,2.24,4.92,4.52,7.37,6.76v-.04Z"/>
        <path class="cls-3" d="m360.87,125.37c-5.97,5.49-12.25,10.23-19.44,14.09-6.41,3.47-13.3,6.14-20.32,8.03-3.12.83-6.32,1.62-9.57,2.06,8.43-2.77,16.55-7.33,23.7-12.51,3.38-2.46,6.63-5.14,9.57-8.08,3.16-3.25,5.97-6.63,8.65-10.27,2.41,2.24,4.92,4.52,7.37,6.76l.04-.09Z"/>
        <path class="cls-3" d="m357.93,114.13c-11.1,9.66-24.71,16.9-39.41,19.14,6.19-2.55,12.11-6.19,17.38-10.36,5.71-4.52,10.4-9.7,14.66-15.63,2.46,2.33,4.92,4.56,7.37,6.85Z"/>
        <path class="cls-3" d="m354.95,102.85c-8.6,6.89-18.65,12.11-29.58,14.22,9-5,16.55-12.38,22.12-20.98,2.55,2.33,5,4.52,7.46,6.76Z"/>
        <path class="cls-3" d="m352.05,91.57c-6.06,4.17-12.6,7.37-19.71,9.3,5-4.56,9-10.01,12.16-15.98,2.46,2.24,5,4.43,7.55,6.67Z"/>
      </g>
      <g>
        <path class="cls-3" d="m159.19,129.89c4.92,6.32,10.23,12.11,16.46,17.16,7.24,5.84,15.36,10.58,23.79,14.35,3.73,1.67,7.59,3.25,11.54,4.3-8.08-.92-16.11-3.38-23.7-6.28-9.09-3.47-17.69-8.25-25.41-14-3.6-2.68-6.85-5.71-10.05-8.78,2.46-2.24,4.92-4.52,7.37-6.76Z"/>
        <path class="cls-3" d="m162.18,118.61c2.77,3.6,5.49,7.02,8.65,10.27,2.94,2.94,6.19,5.62,9.57,8.08,7.11,5.22,15.27,9.79,23.7,12.51-14.13-1.84-28.09-8.03-39.77-16.11-3.47-2.41-6.5-5.14-9.57-7.94,2.46-2.33,4.92-4.56,7.37-6.85l.04.04Z"/>
        <path class="cls-3" d="m165.12,107.37c4.21,5.93,8.95,11.1,14.66,15.63,5.27,4.17,11.19,7.81,17.38,10.36-14.7-2.24-28.31-9.48-39.41-19.14,2.46-2.33,4.92-4.56,7.37-6.85Z"/>
        <path class="cls-3" d="m168.06,96.18c5.62,8.6,13.08,15.98,22.12,20.98-10.93-2.11-20.98-7.33-29.58-14.22,2.46-2.33,5-4.52,7.46-6.76Z"/>
        <path class="cls-3" d="m171.05,84.9c3.16,5.97,7.2,11.41,12.16,15.98-7.11-1.89-13.65-5.22-19.71-9.3,2.55-2.24,5.05-4.43,7.55-6.67Z"/>
      </g>
      <g>
        <polygon class="cls-3" points="151.38 155.52 107.49 134.19 154.85 146.08 151.38 155.52"/>
        <polygon class="cls-3" points="148.88 169.3 124.78 152.05 153.31 160.3 148.88 169.3"/>
        <polygon class="cls-3" points="360.79 146.08 408.19 134.19 364.25 155.52 360.79 146.08"/>
        <polygon class="cls-3" points="362.37 160.3 390.85 152.05 366.71 169.3 362.37 160.3"/>
      </g>
    </g>
  </g>
</svg>