<?xml version="1.0" encoding="UTF-8"?>
<svg xmlns="http://www.w3.org/2000/svg" viewBox="0 0 500 575">
  <defs>
    <style>
      .cls-1 {
        fill: #4d4d4d;
      }

      .cls-1, .cls-2, .cls-3, .cls-4, .cls-5, .cls-6, .cls-7, .cls-8, .cls-9, .cls-10, .cls-11, .cls-12, .cls-13 {
        stroke-width: 0px;
      }

      .cls-2 {
        fill: #262626;
      }

      .cls-3 {
        fill: #e384b0;
      }

      .cls-4 {
        fill: #ffb5e9;
      }

      .cls-5 {
        fill: #4ce0c8;
      }

      .cls-6 {
        fill: #241816;
      }

      .cls-7 {
        fill: #416b80;
      }

      .cls-8 {
        fill: #fff;
      }

      .cls-9 {
        fill: #5da0ff;
      }

      .cls-10 {
        fill: #dee3d7;
      }

      .cls-11 {
        fill: #e2e6eb;
      }

      .cls-12 {
        fill: #f2f1eb;
      }

      .cls-13 {
        fill: #e7d8b4;
      }
    </style>
  </defs>
  <g id="Capa_1" data-name="Capa 1">
    <g>
      <path class="cls-13" d="m250,573c-66.51,0-129.04-25.9-176.07-72.93C26.9,453.04,1,390.51,1,324s25.9-129.04,72.93-176.07c47.03-47.03,109.56-72.93,176.07-72.93s129.04,25.9,176.07,72.93c47.03,47.03,72.93,109.56,72.93,176.07s-25.9,129.04-72.93,176.07c-47.03,47.03-109.56,72.93-176.07,72.93Z"/>
      <path class="cls-6" d="m250,76c33.48,0,65.96,6.56,96.53,19.49,29.53,12.49,56.05,30.37,78.83,53.15,22.78,22.78,40.66,49.3,53.15,78.83,12.93,30.57,19.49,63.05,19.49,96.53s-6.56,65.96-19.49,96.53c-12.49,29.53-30.37,56.05-53.15,78.83-22.78,22.78-49.3,40.66-78.83,53.15-30.57,12.93-63.05,19.49-96.53,19.49s-65.96-6.56-96.53-19.49c-29.53-12.49-56.05-30.37-78.83-53.15-22.78-22.78-40.66-49.3-53.15-78.83-12.93-30.57-19.49-63.05-19.49-96.53s6.56-65.96,19.49-96.53c12.49-29.53,30.37-56.05,53.15-78.83s49.3-40.66,78.83-53.15c30.57-12.93,63.05-19.49,96.53-19.49m0-2C111.93,74,0,185.93,0,324s111.93,250,250,250,250-111.93,250-250-111.93-250-250-250h0Z"/>
    </g>
  </g>
  <g id="Capa_2" data-name="Capa 2">
    <g>
      <g>
        <path class="cls-9" d="m146.61,474.39c-1.79,0-3.24-1.37-3.24-3.07,0-.92.43-1.8,1.18-2.39l11.43-8.98-21.27,11.7c-1.55.85-3.53.33-4.42-1.14-.81-1.35-.44-3.07.88-4l9.43-6.62-14.29,7.85c-1.55.85-3.53.34-4.42-1.13-.7-1.16-.54-2.61.4-3.6l4.01-4.24-6.88,3.78c-1.55.85-3.53.34-4.42-1.14-.63-1.04-.56-2.34.17-3.32l6.63-8.82-9.12,5.01c-1.55.85-3.53.34-4.42-1.14-.67-1.11-.55-2.49.3-3.48l8.45-9.82-8.61,4.74c-1.55.84-3.53.33-4.41-1.15-.71-1.18-.52-2.67.47-3.65l8.16-8.08-5.68,3.12c-1.55.84-3.53.33-4.41-1.15-.75-1.26-.48-2.85.65-3.82l2.45-2.06c-1.11.11-2.2-.32-2.89-1.16-.99-1.21-.9-2.93.21-4.03l9.62-9.51-5.67,3.11c-1.55.85-3.53.35-4.42-1.12-.7-1.15-.55-2.59.37-3.58l12.59-13.67-8.54,4.69c-1.56.83-3.53.31-4.41-1.17-.71-1.2-.5-2.7.52-3.68l7.47-7.04-3.58,1.97c-1.55.85-3.53.34-4.42-1.13-.7-1.15-.54-2.6.39-3.6l9.27-9.86-5.32,2.94c-1.55.85-3.53.34-4.42-1.13-.73-1.2-.52-2.71.49-3.69l2.89-2.8-1.6.87c-1.55.85-3.53.35-4.42-1.13-.61-1-.57-2.25.09-3.22l6.81-9.94-17.05,9.33c-1.42.78-3.23.43-4.21-.83-.98-1.26-.82-3.01.38-4.08l1.94-1.75-10.77,5.92c-1.55.85-3.53.34-4.42-1.14-.66-1.09-.55-2.46.27-3.45l8.98-10.63-13.18,7.22c-1.33.73-3,.47-4.02-.62-1.02-1.09-1.11-2.71-.2-3.88l3.64-4.71c-1.78-.13-3.12-1.6-2.99-3.3.08-1.01.68-1.92,1.6-2.43l10.73-5.9c1.32-.74,3.01-.49,4.02.62,1.02,1.09,1.11,2.71.2,3.88l-2.82,3.65,14.6-8.01c1.55-.85,3.53-.35,4.42,1.12.67,1.1.56,2.48-.27,3.47l-8.94,10.63,20.1-11.04c1.53-.87,3.52-.4,4.44,1.06.79,1.26.54,2.88-.61,3.87l-1.94,1.75,4.61-2.53c1.55-.85,3.53-.35,4.42,1.13.61,1,.57,2.25-.09,3.22l-6.83,9.91,10.41-5.72c1.4-.77,3.18-.44,4.17.78,1,1.22.89,2.95-.25,4.05l-2.89,2.8,2.35-1.29c1.55-.84,3.53-.33,4.41,1.15.69,1.15.53,2.58-.39,3.57l-9.27,9.86,7.77-4.26c1.56-.83,3.53-.31,4.41,1.17.71,1.2.5,2.7-.52,3.68l-7.47,7.03,3.74-2.06c1.37-.75,3.11-.45,4.12.71,1.01,1.17.98,2.86-.06,3.99l-12.59,13.65,8.54-4.69c1.55-.85,3.53-.35,4.42,1.13.72,1.19.53,2.68-.47,3.67l-9.61,9.51,5.66-3.11c1.55-.85,3.53-.35,4.42,1.12.77,1.27.5,2.88-.65,3.85l-2.47,2.08c1.1-.1,2.18.34,2.87,1.16,1,1.21.91,2.93-.21,4.04l-8.17,8.11,4.21-2.32c1.55-.85,3.53-.35,4.42,1.12.68,1.11.56,2.51-.3,3.5l-8.46,9.79,6.7-3.7c1.55-.85,3.53-.35,4.42,1.12.64,1.05.57,2.35-.17,3.34l-6.64,8.82,11.65-6.39c1.55-.85,3.53-.34,4.42,1.13.7,1.16.54,2.61-.4,3.6l-4.01,4.23,46.59-25.59c1.55-.85,3.53-.33,4.42,1.14.81,1.35.44,3.07-.88,4l-9.41,6.6,4.9-2.69c1.55-.85,3.53-.34,4.42,1.13.79,1.3.48,2.95-.74,3.91l-11.44,8.98,3.5-1.92c1.51-.91,3.51-.49,4.47.95.96,1.44.51,3.34-.99,4.25-.08.05-.16.09-.24.13l-37.18,20.43c-.49.27-1.05.41-1.61.41h0Z"/>
        <path class="cls-9" d="m148.13,535.88c-1.79,0-3.23-1.38-3.23-3.08,0-1.02.53-1.98,1.42-2.55l7.31-4.7-17.54,9.64c-1.53.87-3.52.4-4.44-1.06-.9-1.43-.44-3.29,1.04-4.18l8.27-5.17-16.18,8.88c-1.55.85-3.53.34-4.42-1.13-.66-1.09-.56-2.46.26-3.44l8.11-9.74-18.55,10.2c-1.57.82-3.53.27-4.39-1.22-.68-1.18-.48-2.65.51-3.63l3.2-3.08-7.6,4.17c-1.55.85-3.53.34-4.42-1.14-.66-1.09-.55-2.46.27-3.45l5.71-6.83-10.66,5.85c-1.55.85-3.53.35-4.42-1.12-.64-1.05-.57-2.35.17-3.34l6.21-8.28-10.41,5.74c-1.55.84-3.53.32-4.41-1.16-.69-1.16-.52-2.61.42-3.6l2.26-2.28-3.24,1.77c-1.55.85-3.53.34-4.42-1.13-.61-1.01-.57-2.27.11-3.24l7.56-10.82-10.09,5.54c-1.33.73-3.01.47-4.03-.62-1.02-1.09-1.1-2.71-.19-3.88l7.12-9.24-7.25,3.99c-1.55.85-3.53.35-4.42-1.13-.68-1.12-.55-2.51.31-3.5l3.02-3.47c-1.67-.6-2.52-2.38-1.89-3.97.26-.66.76-1.22,1.4-1.58l10.75-5.88c1.55-.85,3.53-.35,4.42,1.13.68,1.12.55,2.51-.31,3.5l-.85.99,5.05-2.78c1.55-.84,3.53-.33,4.42,1.14.63,1.05.56,2.37-.2,3.35l-7.12,9.24,8.62-4.73c1.55-.85,3.53-.34,4.42,1.13.61,1.01.57,2.27-.11,3.24l-7.59,10.76,10.53-5.78c1.55-.84,3.53-.33,4.41,1.14.71,1.17.52,2.65-.45,3.64l-2.28,2.29,4.06-2.23c1.55-.85,3.53-.35,4.42,1.12.64,1.05.57,2.35-.17,3.34l-6.2,8.32,12.51-6.88c1.55-.85,3.53-.34,4.42,1.14.66,1.09.55,2.46-.27,3.45l-5.71,6.84,14.04-7.71c1.57-.82,3.53-.27,4.39,1.22.68,1.18.48,2.65-.51,3.63l-3.2,3.08,12.03-6.61c1.55-.84,3.53-.33,4.41,1.15.65,1.09.55,2.44-.27,3.43l-8.1,9.73,98.27-54.06c1.57-.81,3.53-.26,4.39,1.23.79,1.38.36,3.11-1,4l-8.27,5.18.83-.46c1.57-.8,3.54-.24,4.38,1.26.77,1.36.36,3.05-.96,3.95l-9,5.79c1.74-.38,3.48.66,3.87,2.32.27,1.15-.17,2.35-1.13,3.09l-20.27,15.4c1.73.41,2.79,2.08,2.36,3.73-.21.81-.76,1.5-1.52,1.92l-30.26,16.63c-1.55.84-3.53.32-4.41-1.16-.78-1.31-.45-2.96.77-3.91l15.53-11.77-40.09,21.99c-.49.27-1.04.41-1.6.41h0Z"/>
        <path class="cls-9" d="m406.56,496.89c-1.79,0-3.24-1.38-3.24-3.08,0-.79.31-1.54.88-2.11l11.54-11.65c-.33-.25-.61-.55-.82-.91-.89-1.47-.36-3.35,1.18-4.2l10.72-5.88c1.55-.85,3.53-.33,4.42,1.14.7,1.17.53,2.64-.44,3.63l-6.76,6.82,12.87-7.07c1.51-.91,3.51-.49,4.47.95.96,1.44.51,3.34-.99,4.25-.08.05-.16.09-.24.13l-31.97,17.57c-.49.27-1.05.42-1.62.41h0Z"/>
        <path class="cls-9" d="m415.38,369.72c-1.79,0-3.24-1.38-3.24-3.08,0-1.1.62-2.12,1.62-2.67l25.79-14.17c1.55-.85,3.53-.35,4.42,1.12.69,1.13.55,2.55-.34,3.54l-2.79,3.12c1.67.61,2.5,2.4,1.85,3.98-.27.66-.76,1.21-1.41,1.56l-11.12,6.11c-1.55.85-3.53.35-4.42-1.12-.69-1.13-.55-2.55.34-3.54l.47-.52-9.57,5.25c-.49.27-1.05.41-1.62.41h0Z"/>
        <path class="cls-9" d="m374.17,443.36c-1.79,0-3.23-1.38-3.23-3.08,0-.87.39-1.7,1.07-2.28l5.95-5.11c-1.72.47-3.51-.47-4.01-2.1-.35-1.14.03-2.38.97-3.16l2.59-2.21c-1.16.14-2.31-.3-3.03-1.17-.99-1.22-.88-2.96.27-4.05l8.48-8.13-4.53,2.5c-1.54.86-3.52.36-4.42-1.11-.78-1.28-.5-2.91.68-3.88l2.14-1.77c-1.79,0-3.24-1.37-3.24-3.07,0-.88.39-1.71,1.07-2.3l3-2.56c-1.73.43-3.5-.55-3.95-2.2-.31-1.13.07-2.32.99-3.09l2.47-2.06c-1.21.14-2.4-.4-3.05-1.38-.94-1.37-.59-3.2.8-4.17l14-9.79-10.46,5.75c-1.55.84-3.53.32-4.41-1.16-.78-1.31-.45-2.96.77-3.91l16.52-12.6-11.31,6.22c-1.52.89-3.51.45-4.45-1-.83-1.28-.57-2.94.61-3.93l10.71-9.7c-1.76-.31-2.92-1.91-2.6-3.58.17-.89.74-1.66,1.57-2.11l18.99-10.44c1.55-.85,3.53-.35,4.42,1.13.75,1.23.51,2.79-.57,3.77l-8.34,7.55,24.59-13.49c1.55-.85,3.53-.35,4.42,1.12.8,1.32.47,2.99-.78,3.95l-16.53,12.6,24.45-13.44c1.55-.85,3.53-.35,4.42,1.13.83,1.36.44,3.09-.89,4.02l-34.38,24.06.07.1c.97,1.29.75,3.06-.5,4.11l-2.93,2.46c1.05,0,2.04.47,2.69,1.27.98,1.27.78,3.05-.45,4.1l-3.01,2.57c1.3-.31,2.68.16,3.47,1.19.97,1.29.75,3.07-.5,4.11l-2.14,1.77c.99.08,1.91.5,2.59,1.2.99,1.22.88,2.96-.27,4.05l-8.46,8.13,4.53-2.49c1.55-.84,3.53-.32,4.41,1.15.75,1.26.48,2.84-.65,3.81l-2.63,2.22c1.77-.25,3.42.91,3.68,2.59.16,1.02-.23,2.06-1.03,2.75l-5.59,4.79,1.81-.99c1.58-.79,3.54-.21,4.37,1.3.78,1.42.29,3.17-1.13,4.03l-28.44,15.62c-.49.28-1.05.42-1.62.42h0Z"/>
        <path class="cls-9" d="m355.13,474.07c-1.79,0-3.24-1.38-3.24-3.08,0-.89.4-1.74,1.11-2.33l22-18.2-33.73,18.53c-1.55.85-3.53.35-4.42-1.12-.72-1.18-.53-2.67.45-3.66l4.05-4.08-7.2,4c-1.29.73-2.95.5-3.97-.55-1.03-1.04-1.18-2.61-.36-3.8l7.16-10.37-10.41,5.72c-1.55.84-3.53.33-4.41-1.15-.67-1.11-.54-2.51.32-3.49l7.53-8.54-7.44,4.08c-1.55.84-3.53.33-4.41-1.15-.71-1.19-.51-2.69.5-3.68l6.41-6.16-4.26,2.34c-1.57.81-3.53.26-4.39-1.24-.7-1.22-.45-2.73.6-3.69l2.68-2.3c-1.3.41-2.74-.02-3.57-1.05-.99-1.23-.87-2.97.29-4.07l7.87-7.39-8.04,4.42c-1.55.84-3.53.33-4.41-1.15-.76-1.26-.48-2.86.66-3.83l4.98-4.16-10.5,5.76c-1.58.79-3.54.21-4.37-1.3-.78-1.42-.29-3.17,1.13-4.03l38.94-21.4c1.55-.85,3.53-.36,4.42,1.12.78,1.28.5,2.9-.67,3.87l-5,4.17,1.25-.68c1.56-.83,3.53-.31,4.41,1.17.71,1.2.5,2.7-.52,3.68l-7.86,7.42,3.97-2.18c1.57-.81,3.53-.26,4.39,1.24.7,1.22.45,2.73-.6,3.69l-2.92,2.51c1.24-.28,2.53.16,3.31,1.11.99,1.22.88,2.95-.26,4.05l-6.39,6.16,2.48-1.36c1.55-.85,3.53-.34,4.42,1.13.68,1.12.55,2.52-.32,3.51l-7.54,8.54,6.3-3.46c1.55-.85,3.53-.34,4.42,1.13.61,1.01.57,2.25-.1,3.22l-7.12,10.36,14.57-8.01c1.55-.85,3.53-.35,4.42,1.12.72,1.18.53,2.67-.45,3.66l-4.06,4.09,43.7-24.02c1.54-.86,3.52-.36,4.43,1.11.79,1.28.5,2.92-.69,3.89l-21.99,18.12,15.1-8.3c1.54-.86,3.52-.36,4.43,1.11.79,1.28.5,2.92-.69,3.89l-9.16,7.54c.49.27.9.66,1.18,1.13.89,1.47.37,3.35-1.18,4.21l-19.82,10.88c-1.56.84-3.53.31-4.41-1.17-.75-1.27-.47-2.86.67-3.82l2.67-2.21-14.73,8.11c-.49.27-1.05.41-1.62.41Z"/>
        <path class="cls-9" d="m357.16,535.79c-1.79,0-3.24-1.38-3.23-3.08,0-.87.39-1.71,1.07-2.29l10.94-9.34-22.08,12.15c-1.56.83-3.53.29-4.4-1.2-.7-1.19-.49-2.68.52-3.65l5.69-5.41-13,7.14c-1.55.85-3.53.34-4.42-1.14-.65-1.08-.55-2.43.25-3.42l6.63-8.13-14.16,7.79c-1.55.85-3.53.35-4.42-1.12-.7-1.15-.55-2.59.38-3.58l4.48-4.83-8.83,4.85c-1.55.85-3.53.34-4.42-1.13-.61-1.01-.57-2.27.11-3.24l6.47-9.24-11.98,6.58c-1.55.85-3.53.34-4.42-1.14-.68-1.12-.55-2.52.33-3.51l4.46-5.01-6.94,3.81c-1.55.85-3.53.34-4.42-1.14-.63-1.04-.56-2.34.17-3.32l6.41-8.49-9.34,5.14c-1.55.85-3.53.35-4.42-1.13-.65-1.07-.56-2.4.21-3.39l6.63-8.45-8.41,4.63c-1.55.85-3.53.34-4.42-1.13-.74-1.22-.52-2.75.54-3.74l.47-.44c-1.6.76-3.54.13-4.34-1.39-.55-1.06-.42-2.33.35-3.27l7.7-9.41-8.06,4.43c-1.54.87-3.52.38-4.43-1.08-.77-1.23-.54-2.81.55-3.8l1.76-1.61-.2.1c-1.55.85-3.53.34-4.42-1.13-.69-1.13-.54-2.56.35-3.55l8.88-9.77-7.44,4.08c-1.55.84-3.53.33-4.41-1.15-.68-1.13-.54-2.54.34-3.52l11.65-12.99-9.03,4.97c-1.55.85-3.53.34-4.42-1.13-.83-1.38-.43-3.13.93-4.05l20.05-13.51-17.91,9.86c-1.56.83-3.53.31-4.41-1.17-.78-1.32-.43-2.99.82-3.93l38.97-28.42-47.68,26.17c-1.51.91-3.51.49-4.47-.95-.96-1.44-.51-3.34.99-4.25.08-.05.16-.09.24-.13l90.72-49.85c1.56-.82,3.53-.28,4.4,1.21.76,1.32.42,2.96-.82,3.9l-38.96,28.41,35.38-19.45c1.55-.85,3.53-.34,4.42,1.13.83,1.38.43,3.13-.93,4.05l-50.73,34.19c.56,1.1.38,2.41-.45,3.34l-11.65,13,7.77-4.24c1.55-.85,3.53-.34,4.42,1.13.69,1.13.54,2.56-.35,3.55l-8.92,9.78,6.3-3.46c1.54-.87,3.52-.38,4.43,1.08.77,1.23.54,2.81-.55,3.8l-1.78,1.64c1.63-.69,3.54.02,4.27,1.57.48,1.03.33,2.22-.38,3.11l-7.7,9.42,7.73-4.25c1.55-.85,3.53-.34,4.42,1.13.74,1.22.52,2.75-.54,3.74l-.5.46c1.6-.76,3.54-.14,4.34,1.38.55,1.05.43,2.3-.31,3.23l-6.63,8.44,8.72-4.79c1.55-.85,3.53-.35,4.42,1.13.64,1.05.57,2.36-.18,3.34l-6.41,8.5,10.01-5.5c1.55-.85,3.53-.35,4.42,1.12.69,1.13.55,2.54-.33,3.54l-4.45,5,7.89-4.31c1.55-.85,3.53-.33,4.42,1.14.61,1.01.57,2.26-.11,3.23l-6.47,9.24,13.96-7.68c1.55-.85,3.53-.35,4.42,1.12.7,1.15.55,2.59-.38,3.58l-4.48,4.83,11.35-6.23c1.55-.84,3.53-.33,4.41,1.15.64,1.08.55,2.42-.25,3.4l-6.63,8.13,19.9-10.93c1.57-.82,3.53-.27,4.39,1.22.68,1.18.48,2.65-.51,3.63l-5.69,5.43,27.83-15.3c1.57-.8,3.54-.24,4.38,1.26.68,1.21.44,2.71-.6,3.67l-10.9,9.36,56.86-31.26c1.54-.86,3.52-.38,4.43,1.09.82,1.33.49,3.03-.78,3.98l-25.66,19.61,11.08-6.09c1.58-.79,3.54-.21,4.37,1.3.78,1.42.29,3.17-1.13,4.03l-47.68,26.17c-1.55.85-3.53.34-4.42-1.13-.79-1.31-.47-2.98.77-3.93l25.68-19.63-47.24,25.97c-.49.27-1.04.42-1.61.42h0Z"/>
        <path class="cls-9" d="m191.79,494.15c-1.79,0-3.23-1.38-3.23-3.08,0-.93.44-1.8,1.19-2.39l17.96-13.9c-1.12.12-2.22-.35-2.85-1.23-.98-1.26-.8-3.02.4-4.08l12.26-10.84-2.8,1.53c-1.56.84-3.53.31-4.41-1.17-.82-1.38-.41-3.12.95-4.03l64.68-42.44-59.08,32.46c-1.57.82-3.53.27-4.39-1.22-.79-1.37-.38-3.09.96-3.99l53.24-34.25-49.77,27.33c-1.54.86-3.53.36-4.42-1.11-.87-1.42-.41-3.24,1.04-4.13l28.21-17.49-26.63,14.65c-1.56.83-3.53.31-4.41-1.17-.82-1.38-.4-3.13.97-4.04l56.83-36.73-65.05,35.77c-1.51.91-3.51.49-4.47-.95-.96-1.44-.51-3.34.99-4.25.08-.05.16-.09.24-.13l142.49-78.3c1.55-.84,3.53-.33,4.41,1.15.83,1.39.41,3.16-.98,4.07l-56.81,36.68,53.38-29.34c1.56-.83,3.53-.3,4.4,1.19.82,1.4.38,3.17-1.02,4.06l-28.26,17.53,24.88-13.67c1.57-.82,3.53-.27,4.39,1.22.79,1.37.38,3.09-.96,3.99l-53.25,34.26,49.83-27.38c1.56-.84,3.53-.31,4.41,1.17.82,1.38.41,3.12-.95,4.03l-102.44,67.22c.51,1.19.2,2.56-.79,3.43l-12.26,10.83,7.48-4.11c1.56-.83,3.53-.31,4.41,1.18.76,1.29.45,2.92-.75,3.87l-16.44,12.73,10.02-5.51c1.51-.91,3.51-.49,4.47.95.96,1.44.51,3.34-.99,4.25-.08.05-.16.09-.24.13l-45.23,24.86c-.48.27-1.03.41-1.59.41h0Z"/>
        <path class="cls-9" d="m162.03,440.98c-1.79,0-3.24-1.37-3.24-3.07,0-1.05.56-2.03,1.49-2.6l68.81-42.12-63.94,35.11c-1.57.82-3.53.28-4.39-1.21-.8-1.39-.37-3.14,1.01-4.03l80.6-50.01-77.22,42.46c-1.57.81-3.53.26-4.39-1.24-.79-1.39-.35-3.12,1.02-4.01l73.06-44.97-69.69,38.29c-1.55.85-3.53.34-4.42-1.13-.87-1.44-.39-3.27,1.09-4.15l26.49-15.78-23.16,12.73c-1.57.81-3.53.26-4.39-1.23-.79-1.38-.36-3.11,1-4l86.87-54.32-83.48,45.91c-1.55.84-3.53.32-4.41-1.16-.84-1.41-.39-3.19,1.02-4.09l85.78-53.56-82.39,45.25c-1.57.82-3.53.28-4.39-1.21-.81-1.4-.36-3.15,1.03-4.04l63.55-38.81-60.18,33.07c-1.53.88-3.52.41-4.44-1.04s-.43-3.35,1.1-4.23l43.59-26.24-40.25,22.14c-1.56.83-3.53.3-4.4-1.18-.83-1.42-.37-3.21,1.07-4.09l33.09-19.82-29.77,16.36c-1.54.86-3.52.37-4.43-1.1-.88-1.43-.41-3.27,1.06-4.16l59-36.06-55.65,30.57c-1.56.83-3.53.3-4.4-1.18-.82-1.39-.38-3.15,1.01-4.05l76.74-48.09-73.31,40.31c-1.57.82-3.53.28-4.39-1.21-.81-1.4-.36-3.15,1.03-4.04l48.99-29.96-45.63,25.08c-1.55.84-3.53.32-4.41-1.16-.84-1.41-.39-3.19,1.02-4.09l63.78-39.91-60.39,33.18c-1.57.81-3.53.26-4.39-1.24-.79-1.39-.35-3.13,1.03-4.02l25.83-15.66-22.47,12.32c-1.53.87-3.52.4-4.44-1.06-.9-1.43-.44-3.29,1.04-4.18l50.71-31.77-47.31,26.03c-1.58.8-3.54.23-4.38-1.27-.76-1.37-.34-3.07.99-3.96l36.71-22.85-33.29,18.3c-1.56.83-3.53.3-4.4-1.19-.83-1.41-.37-3.19,1.04-4.08l6.28-3.83-2.44,1.32c-1.53.87-3.52.4-4.44-1.06-.9-1.43-.44-3.29,1.04-4.18l25.24-15.83-20.16,11.09c-1.54.87-3.52.38-4.43-1.08-.87-1.4-.45-3.21.98-4.13l33.99-22.26-26.31,14.47c-1.56.83-3.53.29-4.4-1.19-.8-1.37-.39-3.1.96-4.01l14.46-9.45-4.86,2.67c-1.55.84-3.53.32-4.41-1.15-.78-1.3-.46-2.94.74-3.89l20.5-15.97c-1.77-.21-3.03-1.75-2.81-3.44.13-.96.71-1.8,1.59-2.28l29.36-16.14c1.54-.86,3.53-.36,4.42,1.11.8,1.31.48,2.98-.75,3.94l-17.37,13.55,42.35-23.31c1.57-.81,3.54-.25,4.38,1.25.77,1.36.37,3.04-.94,3.95l-14.44,9.46,25.04-13.76c1.55-.84,3.53-.33,4.41,1.15.83,1.39.41,3.15-.97,4.06l-33.95,22.23,44.42-24.41c1.53-.87,3.52-.4,4.44,1.06.9,1.43.44,3.29-1.04,4.18l-25.31,15.88,31.89-17.53c1.56-.83,3.53-.3,4.4,1.19.83,1.41.37,3.19-1.04,4.08l-6.21,3.78,10.11-5.54c1.57-.82,3.53-.28,4.39,1.21.8,1.39.37,3.14-1.01,4.03l-36.76,22.87,41.82-22.98c1.57-.81,3.53-.26,4.39,1.23.79,1.38.36,3.11-1,4l-50.65,31.73,55.59-30.55c1.57-.81,3.53-.26,4.39,1.24.79,1.39.35,3.13-1.03,4.02l-25.88,15.68,28.22-15.51c1.53-.9,3.53-.45,4.47,1.01.94,1.45.47,3.36-1.06,4.25h0l-63.77,39.91,67.3-36.99c1.57-.82,3.53-.28,4.39,1.21.81,1.4.36,3.15-1.03,4.04l-48.99,29.95,50.62-27.83c1.55-.85,3.53-.35,4.42,1.12.86,1.41.41,3.22-1.02,4.12l-76.78,48.11,78.55-43.17c1.53-.89,3.52-.43,4.45,1.03s.45,3.35-1.08,4.24l-59.02,36.07,58.89-32.36c1.53-.88,3.52-.41,4.44,1.04.92,1.46.43,3.35-1.1,4.23l-33.11,19.82,31.62-17.37c1.58-.79,3.54-.22,4.37,1.29.77,1.39.32,3.1-1.05,3.99l-43.47,26.17,41.33-22.72c1.56-.83,3.53-.3,4.4,1.19.83,1.41.37,3.19-1.04,4.08l-63.6,38.81,60.56-33.26c1.55-.84,3.53-.32,4.41,1.16.84,1.41.39,3.19-1.02,4.09l-85.78,53.59,82.4-45.31c1.55-.84,3.53-.32,4.41,1.16.84,1.41.39,3.19-1.02,4.09l-86.87,54.31,83.48-45.87c1.55-.85,3.53-.34,4.42,1.13.87,1.44.39,3.27-1.09,4.15l-26.49,15.78,23.16-12.73c1.57-.81,3.53-.26,4.39,1.24.79,1.39.35,3.12-1.02,4.01l-73.06,44.97,69.69-38.29c1.54-.86,3.53-.36,4.42,1.11.87,1.42.41,3.24-1.04,4.13l-80.6,50.01,77.22-42.44c1.54-.86,3.52-.37,4.43,1.1.88,1.43.41,3.27-1.06,4.16l-151.94,93.02c.05,1.14-.58,2.22-1.62,2.79l-28.86,15.87c-.49.27-1.04.42-1.61.42h0Z"/>
      </g>
      <path class="cls-8" d="m260.54,382c-1.79,0-3.24-1.38-3.24-3.08,0-.72.27-1.43.75-1.98l.96-1.08-10.39,5.7c-1.57.81-3.53.26-4.39-1.24-.7-1.22-.45-2.73.6-3.69l3.44-2.96-8.11,4.46c-1.54.86-3.52.36-4.42-1.11-.78-1.28-.5-2.91.68-3.88l8.86-7.36-8.86,4.87c-1.54.87-3.52.38-4.43-1.08-.77-1.23-.54-2.81.55-3.8l3.51-3.22c-1.09.47-2.36.34-3.31-.34-1.04-.75-1.5-2.01-1.18-3.21l1.84-6.94c-.62-.27-1.14-.72-1.47-1.29-.89-1.47-.36-3.35,1.18-4.2l3.24-1.79c1.55-.85,3.53-.34,4.42,1.13.42.69.54,1.51.34,2.28l-1.39,5.25,15.94-8.75c1.54-.87,3.52-.38,4.43,1.08.77,1.23.54,2.81-.55,3.8l-3.45,3.17,14.79-8.13c1.54-.86,3.52-.36,4.42,1.11.78,1.28.5,2.91-.68,3.88l-8.87,7.34,5.79-3.17c1.57-.81,3.53-.26,4.39,1.24.7,1.22.45,2.73-.6,3.69l-3.49,3.01c1.63-.69,3.54,0,4.27,1.56.5,1.07.32,2.32-.47,3.22l-3.19,3.64c.7.25,1.28.72,1.64,1.34.89,1.47.36,3.35-1.18,4.2l-10.74,5.9c-.49.28-1.05.44-1.62.44h0Z"/>
      <path class="cls-8" d="m292.09,289.18c-1.79,0-3.24-1.38-3.24-3.08,0-.67.23-1.31.65-1.85l1.11-1.44-6.42,3.52c-1.55.85-3.53.35-4.42-1.13-.72-1.19-.53-2.69.48-3.68l6.34-6.21-16.01,8.8c-1.56.84-3.53.31-4.41-1.17-.73-1.24-.48-2.79.6-3.76l14.39-12.56-30.41,16.73c-1.56.83-3.53.3-4.4-1.18-.76-1.29-.45-2.91.74-3.86l22.69-17.71-50.21,27.6c-1.56.83-3.53.31-4.41-1.17-.82-1.38-.4-3.13.97-4.04l8.78-5.69-13.05,7.18c-1.54.87-3.52.38-4.43-1.08-.87-1.4-.45-3.21.98-4.13l17.65-11.56-17.96,9.86c-1.56.83-3.53.29-4.4-1.19-.79-1.36-.4-3.06.91-3.98l25.24-17.04-24.65,13.55c-1.56.83-3.53.29-4.4-1.19-.8-1.37-.39-3.1.96-4.01l8.81-5.74-6.43,3.53c-1.55.85-3.53.35-4.42-1.12-.84-1.37-.44-3.12.91-4.05l17.68-12.07-13.78,7.58c-1.55.85-3.53.35-4.42-1.13-.82-1.35-.45-3.07.86-4l15.25-10.87-8.6,4.72c-1.57.81-3.53.26-4.39-1.24-.7-1.22-.45-2.73.6-3.69l13.65-11.75c-1-.13-1.89-.7-2.39-1.53-.89-1.47-.36-3.36,1.19-4.21,0,0,0,0,0,0l22.1-12.16c1.57-.81,3.53-.26,4.39,1.24.7,1.22.45,2.73-.6,3.69l-11.33,9.78,29.09-15.98c1.55-.85,3.53-.35,4.42,1.13.82,1.35.45,3.07-.86,4l-15.25,10.87,23.49-12.94c1.56-.84,3.53-.31,4.41,1.17.81,1.36.42,3.08-.91,4l-17.69,12.11,23.15-12.71c1.55-.85,3.53-.35,4.42,1.12.85,1.4.42,3.19-.98,4.09l-8.75,5.72,11.49-6.34c1.55-.85,3.53-.34,4.42,1.13.83,1.38.43,3.13-.93,4.05l-25.24,17.03,28.23-15.52c1.55-.84,3.53-.33,4.41,1.15.83,1.39.41,3.15-.97,4.06l-17.69,11.59,18.66-10.26c1.55-.85,3.53-.35,4.42,1.12.85,1.4.42,3.19-.98,4.09l-8.79,5.69,8.36-4.59c1.55-.85,3.53-.35,4.42,1.12.79,1.31.48,2.97-.75,3.92l-22.73,17.7,21.7-11.92c1.56-.84,3.53-.31,4.41,1.17.73,1.24.48,2.79-.6,3.76l-14.38,12.55,10.63-5.83c1.55-.85,3.53-.35,4.42,1.13.72,1.19.53,2.69-.48,3.68l-6.41,6.27c1.64-.67,3.54.05,4.25,1.61.45,1,.31,2.16-.37,3.04l-5.77,7.47.03.05c.89,1.47.37,3.35-1.18,4.21l-4.31,2.38c-.49.26-1.03.4-1.59.39h0Z"/>
      <path class="cls-9" d="m249.75,283.09c-1.79,0-3.24-1.38-3.24-3.08,0-.89.4-1.73,1.1-2.32l5.1-4.26-10.75,5.91c-1.54.86-3.52.37-4.43-1.1-.8-1.29-.5-2.94.7-3.91l9.92-8.1-13.05,7.18c-1.57.82-3.53.28-4.39-1.21-.71-1.22-.46-2.75.6-3.71l13.36-11.55-14.05,7.69c-1.55.84-3.53.33-4.41-1.15-.73-1.23-.5-2.77.57-3.75l12.77-11.56-9.1,5c-1.52.89-3.51.45-4.45-1-.83-1.28-.57-2.94.61-3.93l5.88-5.31c-.48-.27-.89-.65-1.16-1.11-.89-1.47-.36-3.36,1.18-4.21l15.38-8.45c1.52-.89,3.51-.45,4.45,1,.83,1.28.57,2.94-.61,3.93l-.78.7,8.92-4.9c1.43-1.02,3.46-.74,4.53.62,1.07,1.36.78,3.29-.65,4.31h0l-12.77,11.56,16.6-9.12c1.57-.82,3.53-.28,4.39,1.21.71,1.22.46,2.75-.6,3.71l-13.36,11.55,17.05-9.37c1.55-.85,3.53-.35,4.42,1.13.78,1.29.49,2.92-.7,3.88l-9.93,8.11,9.06-5c1.55-.85,3.53-.36,4.42,1.12.78,1.28.5,2.9-.67,3.87l-5.18,4.31c1.61-.74,3.54-.09,4.32,1.44.73,1.45.17,3.2-1.3,4l-28.2,15.5c-.48.25-1.01.38-1.56.38h0Z"/>
      <path class="cls-8" d="m267.01,258.8c-1.79,0-3.23-1.38-3.23-3.08,0-.53.14-1.04.41-1.5l5.02-8.55-11.85,6.51c-1.55.85-3.53.35-4.42-1.13-.58-.95-.58-2.13,0-3.08l4.9-8.09-.28.15c-1.51.91-3.51.49-4.47-.95-.96-1.44-.51-3.34.99-4.25.08-.05.16-.09.24-.13l10.73-5.89c1.55-.84,3.53-.33,4.41,1.15.57.95.57,2.11,0,3.05l-4.9,8.12,11.58-6.36c1.25-.71,2.85-.51,3.88.47,1.04.97,1.27,2.49.56,3.7l-5.02,8.56.56-.3c1.58-.79,3.54-.21,4.37,1.3.78,1.42.29,3.17-1.13,4.03l-10.73,5.89c-.49.26-1.05.4-1.62.39h0Z"/>
      <path class="cls-2" d="m433.48,468.76c-8.6-1.76-17.25,2.79-20.25,10.66-10.78,26.38-48.87,30.46-73.35,21.31-33.18-12.39-43.58-41.89-43.69-73,.96-12.53,18.36-9.49,19.01,1.85,5.68,63.91,94.88,57.34,90.98-6.83.08-10.1-6.62-49.77,8.97-52.76,9.06,0,18.72,1.23,25.48-5.82,5.96-6.04,5.65-15.54-.7-21.21-2.7-2.42-6.21-3.85-9.91-4.05-25.88-.18-52.23,7.48-56.26,35.96-2.65,18.55-.38,38.5-.34,57.23-1.17,16.6-24.59,13.47-25.48-1.85v-111.51c0-37.44,6.24-79.7-19.1-111.45-32.42-39.05-91.96-45.7-132.98-14.83-2.78,2.09-5.43,4.32-7.94,6.7-30.36,28.82-28.02,65.41-28.02,102.77v130.16c-1.13,16.63-24.62,13.55-25.49-1.8,0-18.64,2.23-38.49-.3-57-3.82-27.84-29.35-34.34-54.36-34.34-20.47.74-23.19,30.09-1.24,31.07,27.53-.62,23.4,19.37,23.15,38.56,0,16.25-2.35,33.7,7.89,47.81,26.69,36.03,84.67,14.61,83.06-28.39.73-12.85,18.4-9.83,19.05,1.62,0,38.85-21.17,75.66-67.21,75.64-21.68.96-41.8-10.72-50.81-29.52-10.71-15.79-34.97-3.23-29.97,13.95,12.22,32.59,49.83,48.09,84.12,46.47,54.6-2.57,94.2-45.17,96.59-95.85.73-12.85,18.4-9.83,19.05,1.62,6.19,51.54,41.08,94.36,99.95,94.42,33.44,0,68.89-16.72,80.69-48.18,2.93-7.74-1.29-16.27-9.42-19.05-.39-.13-.78-.25-1.17-.35Zm-77,60.76c-52.33-4.54-80.64-43.93-86.19-90.03-.26-8.1-7.32-14.49-15.83-14.33-9.1.41-16.39,7.3-16.89,15.95-.56,85.52-126.78,126.58-167.43,44.69-3.12-10.7,11.32-14.59,17.03-6.16,13.25,27.76,46.16,37.48,76.17,29.37,40.36-10.91,55.17-45.13,55.17-81.81-1.29-20.38-32.01-17.49-32.72,1.62.79,37.06-44.47,53.75-69.16,24.57-10.79-13.1-8.12-31.67-8.12-47.23,1.44-22.92,6.39-46.33-27.33-42.59-5.33.12-10.03-3.3-11.32-8.23-.99-4.46,2.01-8.84,6.7-9.78.69-.14,1.39-.2,2.09-.17,27.86,0,48.45,10.34,48.88,39.51,3.88,19.83-12.29,63.24,19.06,65.21,11.21-.46,20.07-9.19,20.17-19.87v-119.99c0-16.02-.73-32.24,0-48.27,2.25-49.52,45.2-89.32,98.74-81.93,74.8,10.24,75.57,77.29,75.57,132.62v120.04c1.4,24.38,38.36,21.56,39.19-1.62,3.24-26.2-9.91-60.37,14.44-79.69,9.23-6.28,39.25-11.5,43.04,1.56,2.63,11.59-11.75,11.29-20.01,10.65-42.46,6.91,4.11,80.82-37.04,99.85-29.93,16.08-57.13-7.76-58.65-36.26-1.29-20.33-32.02-17.51-32.72,1.62-.38,40.04,19.78,78.23,66.34,82.59,24.76,2.34,54.19-7.44,63.86-31.13,4.7-11.25,21.91-3.08,18.02,7.5-11.84,30.71-48.75,44.54-81.08,41.73Z"/>
      <path class="cls-2" d="m203.44,296.15c3.09-2.38,6.48-4.38,10.09-5.96,1.04.21,2.1-.21,2.67-1.06,24.71-8.72,51.92-8.57,76.52.43.54.59,1.32.93,2.14.93,3.28,1.49,6.36,3.33,9.19,5.5,3.46,2.72,6.15-3.98,3.33-6.21-2.42-1.84-5.02-3.46-7.77-4.84,20.55-33.35.47-79.51-43.36-81.77-46.86-2.41-69.6,46.72-47.54,81.54-2.78,1.4-5.41,3.05-7.86,4.93-2.76,2.16-.83,9.18,2.59,6.51h0Zm34.59-25.19c-13.1-12.41-3.2-37.77,15.89-36.49-12.09,13.02,6.81,31.08,21.24,21.87.43,8.22-4.49,15.85-12.38,19.21-5.99-.42-12.01-.42-18,0-2.56-1.09-4.86-2.66-6.79-4.6h.03Zm37.33-24.1c-.37.38-.57.88-.56,1.4-3.24,7.63-15.78,4.79-16.87-3.17-1.93-16.19,21.63-12.68,17.41,1.77h.03Zm-26.15-36.09c42.22-4.28,65.78,39.12,44,71.25-6.42-2.47-13.11-4.23-19.95-5.25,9.71-6.78,10.57-17.92,9.15-28.15,5.71-12.18-9.13-24.25-21.32-19.01-29.44-7.53-50.47,28.46-26.27,47.11-7.11,1.05-14.06,2.91-20.71,5.54-14.87-21.18-8.88-49.83,13.37-63.98,6.5-4.13,13.95-6.71,21.72-7.51h0Z"/>
      <path class="cls-2" d="m309.04,337.4c3.03-3.02-4.21-5.29-6.7-2.8-8.05,6.28-18.07,9.83-28.47,10.08-1.12-.33-2.34-.22-3.38.3-11.53.84-23.1.81-34.63-.08-.95-.37-1.98-.5-3-.35-10.02-.39-19.64-3.88-27.39-9.95-2.49-2.46-9.75-.23-6.7,2.8,8.86,7.42,20.07,11.81,31.85,12.48-1.49,17.48-.31,33.03,22.39,32.03,24.41,1.78,26.17-12.68,24.21-32.03,11.77-.68,22.96-5.07,31.82-12.48h0Zm-39.54,25.77c1.67,14.83-12.59,13.85-23.68,13.05-11.55-3.38-6.39-17.05-7.48-25.6,10.38.66,20.79.66,31.16,0v12.54Z"/>
    </g>
  </g>
  <g id="Capa_3" data-name="Capa 3">
    <g id="Capa_1-2" data-name="Capa 1">
      <g>
        <g>
          <g>
            <path class="cls-4" d="m311.27,18.77s-1.83,1.17-4.61,3.6c-2.79,2.43-6.49,6.19-10.19,11.56-3.7,5.32-7.35,12.12-10.19,20.48-2.84,8.31-4.77,18.15-5.48,29.56-.66,11.41,0,23.83,1.01,36,1.01,12.17,2.33,24.08,3.45,34.53,1.12,10.39,1.98,19.52,2.53,26.01.56,6.44.86,10.29.86,10.29,0,0,1.32-3.65,3.5-9.73,2.23-6.13,5.42-14.6,9.18-24.44,3.75-9.84,8.11-21.04,12.27-32.5,4.11-11.51,7.96-23.17,10.29-34.43,2.28-11.2,2.99-21.34,2.38-30.07-.56-8.77-2.38-16.27-4.56-22.36-2.18-6.13-4.82-10.8-6.9-13.84-2.08-3.09-3.55-4.66-3.55-4.66Z"/>
            <path class="cls-3" d="m325.92,76.67c-6.49,5.68-12.12,10.8-16.38,14.7-4.31,3.95-7.35,7-8.87,8.37-1.06-1.77-3.35-5.37-6.39-10.39-3.14-4.87-7.2-11.15-12.02-18.4-.15,1.17-.35,2.33-.51,3.5,5.42,8.21,9.84,14.96,12.88,19.77,3.04,4.87,4.82,7.76,4.82,7.81l.71,1.17,1.01-.96s2.54-2.38,6.69-6.29c4.21-3.8,10.24-9.33,17.59-15.77.15-1.22.3-2.38.41-3.55l.05.05Z"/>
            <path class="cls-11" d="m286.93,204.03s1.01-3.09,2.59-9.43c1.57-6.34,3.7-15.92,5.73-29,1.98-13.08,3.4-28.24,4.06-40.21.66-11.97.71-20.69.71-20.69,0,0-2.23,8.42-4.66,20.18-2.48,11.71-5.07,26.77-6.49,39.9s-1.83,22.97-1.98,29.46c-.1,6.54.05,9.73.05,9.73v.05Z"/>
            <path class="cls-7" d="m283.33,65.11c5.37,8.31,9.89,15.16,13.08,20.23,3.19,5.02,5.07,8.01,5.07,8.01,0,0,2.59-2.38,7-6.44,4.46-4.01,10.7-9.63,17.9-16.12.86-16.58-2.69-29.61-6.69-38.58-1.98-4.51-4.11-7.76-5.68-10.04-1.57-2.23-2.69-3.4-2.69-3.4,0,0-1.32.81-3.45,2.59-2.13,1.77-5.02,4.41-8.06,8.16-6.19,7.61-12.93,19.37-16.43,35.59h-.05Z"/>
            <path class="cls-10" d="m323.89,89.65c2.28-11.2,2.99-21.34,2.38-30.07-.56-8.77-2.38-16.27-4.56-22.36-2.18-6.13-4.82-10.8-6.9-13.84-2.08-3.09-3.55-4.66-3.55-4.66l-22.61,171.97s1.32-3.65,3.5-9.73c2.23-6.13,5.42-14.6,9.18-24.44,3.75-9.84,8.11-21.04,12.27-32.5,4.11-11.51,7.96-23.17,10.29-34.43v.05Z"/>
          </g>
          <g>
            <path class="cls-5" d="m372.92,49.8s-2.03.66-5.32,2.28c-3.3,1.67-7.76,4.31-12.62,8.42-4.87,4.16-10.09,9.73-14.86,16.98-4.77,7.25-9.13,16.12-12.57,26.82-3.5,10.7-5.93,22.66-8.01,34.53-2.08,11.81-3.8,23.47-5.37,33.72-1.57,10.24-3.04,19.16-4.11,25.45-1.06,6.24-1.72,9.99-1.72,9.99,0,0,2.18-3.14,5.78-8.42,3.6-5.17,8.77-12.47,14.86-20.94,6.03-8.42,13.03-18.1,19.82-27.89,6.74-9.84,13.38-20.08,18.4-30.17,5.02-10.09,8.16-19.52,9.84-28.04,1.67-8.57,1.83-16.07,1.27-22.41-.61-6.34-1.88-11.46-3.09-14.96-1.22-3.45-2.23-5.32-2.23-5.32l-.05-.05Z"/>
            <path class="cls-8" d="m372.31,108.71c-3.8,1.83-7.3,3.6-10.6,5.32-3.19,1.67-6.13,3.19-8.72,4.56-5.07,2.64-8.72,4.72-10.49,5.68-.61-1.93-1.83-5.93-3.5-11.46-1.72-5.58-4.11-12.42-6.84-20.53-.46,1.06-.91,2.13-1.37,3.19,1.52,4.51,2.94,8.67,4.21,12.42.61,1.83,1.17,3.55,1.72,5.17.51,1.62.96,3.14,1.42,4.51,1.67,5.37,2.64,8.57,2.69,8.62l.41,1.27,1.22-.66s.76-.41,2.13-1.17,3.3-1.77,5.78-3.09c2.54-1.32,5.53-2.89,8.97-4.72,1.77-.91,3.6-1.88,5.58-2.89,1.98-.96,4.01-1.98,6.13-2.99.46-1.12.86-2.18,1.27-3.24Z"/>
            <path class="cls-11" d="m303.31,220.15s1.72-2.69,4.82-8.37c3.09-5.68,7.5-14.25,12.67-26.16s10.34-26.11,13.94-37.32c3.65-11.2,5.83-19.47,5.83-19.47,0,0-4.26,7.45-9.48,18.05-5.27,10.55-11.51,24.23-16.17,36.4-4.66,12.17-7.5,21.4-9.23,27.58-1.72,6.19-2.38,9.28-2.38,9.28Z"/>
            <path class="cls-1" d="m334.64,86.96c3.04,9.23,5.68,16.83,7.45,22.51,1.77,5.53,2.84,8.82,2.84,8.82,0,0,.76-.41,2.18-1.17s3.5-1.88,6.03-3.19c2.59-1.37,5.73-2.99,9.23-4.82,3.55-1.88,7.55-3.95,11.81-6.08,5.02-15.72,4.92-28.95,3.3-38.43-1.57-9.53-4.61-14.91-4.61-14.91,0,0-5.98,1.83-13.69,7.4-7.76,5.58-17.24,15.21-24.59,29.76l.05.1Z"/>
            <path class="cls-10" d="m367.14,120.52c5.02-10.09,8.16-19.52,9.84-28.04,1.67-8.57,1.83-16.07,1.27-22.41-.61-6.34-1.88-11.46-3.09-14.96-1.22-3.45-2.23-5.32-2.23-5.32l-64.59,158.13s2.18-3.14,5.78-8.42c3.6-5.17,8.77-12.47,14.86-20.94,6.03-8.42,13.03-18.1,19.82-27.89,6.74-9.84,13.38-20.08,18.4-30.17h-.05Z"/>
          </g>
          <g>
            <path class="cls-4" d="m424.28,93.2s-1.98.1-5.27.81-7.96,2.03-13.23,4.51c-5.22,2.43-11.26,6.24-17.19,11.51-5.98,5.27-11.91,12.17-17.59,20.84-5.63,8.67-10.65,18.71-15.31,28.7-4.66,10.04-8.87,19.82-12.78,28.65-7.71,17.54-13.54,30.01-13.54,30.01,0,0,2.64-2.23,7.1-5.98,4.46-3.75,10.8-9.02,18.2-15.11,7.4-6.13,15.77-12.83,24.13-20.03,8.37-7.15,16.68-14.7,23.47-22.46,6.84-7.76,11.86-15.36,15.36-22.56,3.5-7.15,5.53-13.94,6.49-19.62.96-5.73,1.01-10.55.81-13.94-.2-3.4-.66-5.32-.66-5.32Z"/>
            <path class="cls-3" d="m409.67,145.31c-3.8.76-7.35,1.52-10.6,2.18-3.24.76-6.24,1.42-8.82,2.03-5.12,1.22-8.82,2.08-10.65,2.48-.1-1.88-.25-5.68-.46-10.9-.1-2.64-.2-5.73-.46-9.02-.25-3.35-.51-6.95-.76-10.85-.66.81-1.32,1.67-1.98,2.54.3,4.36.61,8.37.86,11.97.15,3.6.3,6.74.46,9.38.2,5.12.35,8.16.35,8.21v1.22l1.27-.25c.05,0,2.99-.71,8.01-1.88,2.53-.61,5.63-1.32,9.13-2.08,3.5-.71,7.45-1.52,11.71-2.43.66-.86,1.27-1.72,1.93-2.59Z"/>
            <path class="cls-11" d="m322.07,227.85s2.18-1.93,6.24-6.19c4.06-4.26,10.04-10.8,17.49-20.18,7.4-9.38,15.36-20.69,21.24-29.81,5.93-9.13,9.84-15.97,9.84-15.97,0,0-5.53,5.63-12.73,13.79-7.2,8.11-15.97,18.81-23.02,28.49-7,9.68-11.71,17.19-14.75,22.26-2.99,5.07-4.31,7.66-4.31,7.66v-.05Z"/>
            <path class="cls-7" d="m381.44,117.13c.25,4.36.56,8.47.76,12.12.2,3.65.35,6.9.46,9.63.3,5.32.46,8.47.46,8.47,0,0,3.09-.71,8.26-1.83,2.64-.61,5.83-1.32,9.38-2.13,3.6-.76,7.6-1.62,11.86-2.53,4.06-6.34,6.9-12.47,8.82-18.15s2.84-10.75,3.24-15.16c.41-4.36.25-7.96.05-10.44-.2-2.48-.56-3.9-.56-3.9,0,0-5.73.25-13.94,3.4-8.16,3.04-18.86,9.38-28.85,20.58l.05-.05Z"/>
            <path class="cls-10" d="m402.32,154.59c6.84-7.76,11.86-15.36,15.36-22.56,3.5-7.15,5.53-13.94,6.49-19.62.96-5.73,1.01-10.55.81-13.94-.2-3.4-.66-5.32-.66-5.32l-94.86,125.03s2.64-2.23,7.1-5.98c4.46-3.75,10.8-9.02,18.2-15.11,7.4-6.13,15.77-12.83,24.13-20.03,8.37-7.15,16.68-14.7,23.47-22.46h-.05Z"/>
          </g>
          <g>
            <path class="cls-5" d="m458.4,141.01s-1.77-.41-4.87-.56c-3.14-.1-7.6,0-12.93,1.06s-11.41,2.94-18,6.34-13.54,8.16-20.63,14.65c-7.1,6.49-13.89,14.3-20.38,22.16-6.44,7.81-12.67,15.82-18.1,22.76-5.48,6.95-10.19,12.88-13.59,17.09-3.45,4.21-5.48,6.74-5.48,6.74,0,0,2.89-1.42,7.76-3.75,4.87-2.33,11.86-5.63,19.82-9.33,7.96-3.7,17.09-7.86,26.26-12.37s18.35-9.38,26.26-14.8,14.15-11.05,18.91-16.68c4.77-5.63,8.11-11.15,10.39-16.12,2.23-4.92,3.35-9.18,3.9-12.27.56-3.04.61-4.87.61-4.87l.05-.05Z"/>
            <path class="cls-8" d="m433.3,184.3c-7.3-.3-13.44-.61-18.4-.66-4.87-.05-8.47-.15-10.19-.15.2-.86.51-2.13.86-3.8s.81-3.7,1.27-6.08c.96-4.77,2.33-11.05,3.55-18.05-.76.61-1.57,1.22-2.38,1.83-1.37,7.96-2.89,14.75-3.8,19.37-.51,2.33-.86,4.16-1.17,5.48-.3,1.27-.46,1.98-.46,2.03l-.25,1.12h1.17s2.89.1,7.66.15c1.22,0,2.53,0,4.01.05,1.42.05,2.99.1,4.61.15,3.35.15,7.1.3,11.15.46.76-.61,1.57-1.27,2.28-1.88h.1Z"/>
            <path class="cls-11" d="m335.65,238.2s2.38-1.27,7.05-4.11c4.61-2.89,11.51-7.4,20.33-14.04,8.82-6.69,18.51-15.01,25.91-21.85,7.4-6.79,12.47-12.02,12.47-12.02,0,0-6.24,3.75-14.55,9.38-8.31,5.58-18.71,13.13-27.23,20.18-8.52,7.05-14.45,12.67-18.35,16.58-3.9,3.85-5.68,5.93-5.68,5.93l.05-.05Z"/>
            <path class="cls-1" d="m414.54,152.62c-.35,1.98-.76,3.9-1.12,5.78-.35,1.88-.76,3.65-1.06,5.32-.66,3.3-1.27,6.24-1.77,8.67-.46,2.43-.86,4.31-1.17,5.68-.3,1.32-.41,2.08-.41,2.08,0,0,2.94.1,7.91.25,5.07.05,11.91.41,20.13.66,10.14-9.48,15.77-19.42,18.51-27.07,2.74-7.6,2.84-12.88,2.84-12.88,0,0-1.27-.25-3.55-.46s-5.63-.2-9.68.25c-8.11.91-18.96,3.95-30.62,11.76v-.05Z"/>
            <path class="cls-10" d="m424.58,190.94c7.91-5.42,14.15-11.05,18.91-16.68s8.11-11.15,10.39-16.12c2.23-4.92,3.35-9.18,3.9-12.27.56-3.04.61-4.87.61-4.87l-113.97,90.2s2.89-1.42,7.76-3.75c4.87-2.33,11.86-5.63,19.82-9.33,7.96-3.7,17.09-7.86,26.26-12.37,9.18-4.51,18.35-9.38,26.26-14.8h.05Z"/>
          </g>
          <g>
            <path class="cls-4" d="m483.6,190.03s-1.52-.81-4.36-1.72c-1.42-.46-3.14-.96-5.17-1.37-2.03-.41-4.41-.76-7-.96-5.22-.41-11.41-.15-18.3,1.27s-14.6,4.06-22.81,8.21c-8.21,4.16-16.48,9.63-24.59,15.26-8.06,5.63-15.77,11.41-22.61,16.43-3.4,2.48-6.59,4.82-9.43,6.9-2.89,2.08-5.42,3.9-7.55,5.48-4.21,3.04-6.74,4.82-6.74,4.82,0,0,3.04-.56,8.16-1.47,5.17-.96,12.37-2.18,20.74-3.55,8.37-1.37,17.9-2.94,27.53-4.77,9.63-1.88,19.32-4.01,28.04-7,8.67-2.99,15.97-6.69,21.8-10.65s10.29-8.21,13.64-12.22,5.58-7.71,6.84-10.34c1.32-2.69,1.83-4.31,1.83-4.31h0Z"/>
            <path class="cls-3" d="m449.32,223.65c-6.59-2.13-12.42-3.9-16.88-5.27-4.46-1.37-7.86-2.28-9.38-2.74.76-1.47,2.38-4.51,4.61-8.67,2.13-4.16,4.87-9.53,7.96-15.82-.86.35-1.77.71-2.64,1.06-3.45,7.05-6.44,12.88-8.52,16.93-2.18,4.11-3.45,6.49-3.45,6.54l-.51.96,1.06.3s2.69.76,7.1,2.08c4.36,1.37,10.65,3.24,18.1,5.68.86-.41,1.77-.76,2.64-1.17l-.1.1Z"/>
            <path class="cls-11" d="m345.08,248.64s2.53-.56,7.61-2.03c5.02-1.47,12.57-3.9,22.46-7.81,9.89-3.95,20.99-9.18,29.56-13.59s14.65-7.96,14.65-7.96c0,0-6.74,1.88-15.87,4.97-9.13,3.04-20.63,7.4-30.32,11.71-9.68,4.36-16.68,8.06-21.24,10.65s-6.74,4.06-6.74,4.06h-.1Z"/>
            <path class="cls-7" d="m440.09,189.58c-3.55,6.95-6.59,12.98-8.77,17.29-2.18,4.26-3.5,6.74-3.5,6.74,0,0,2.74.81,7.3,2.18,4.56,1.42,11,3.4,18.45,5.73,11.86-6.19,19.47-13.94,24.03-20.33,2.33-3.19,3.75-5.98,4.66-7.96.91-2.03,1.27-3.19,1.27-3.19,0,0-1.12-.56-3.19-1.32-2.08-.71-5.07-1.67-8.97-2.23-7.76-1.17-18.66-1.12-31.33,3.09h.05Z"/>
            <path class="cls-10" d="m439.49,227.6c8.67-2.99,15.97-6.69,21.8-10.65,5.83-3.95,10.29-8.21,13.64-12.22,3.35-4.01,5.58-7.71,6.84-10.34,1.32-2.69,1.83-4.31,1.83-4.31l-128.58,54.35s3.04-.56,8.16-1.47c5.17-.96,12.37-2.18,20.74-3.55,8.37-1.37,17.9-2.94,27.53-4.77,9.63-1.88,19.32-4.01,28.04-7v-.05Z"/>
          </g>
          <g>
            <path class="cls-5" d="m479.69,234.7s-1.32-.86-3.75-2.03c-2.43-1.12-6.03-2.53-10.55-3.5-4.61-.96-10.19-1.47-16.58-.96-6.39.46-13.54,1.93-21.34,4.66-7.86,2.79-15.92,6.69-23.78,10.8-7.86,4.11-15.41,8.37-22.11,12.02-13.49,7.45-23.27,12.67-23.27,12.67,0,0,2.79-.15,7.5-.35,4.72-.2,11.31-.46,18.91-.76,7.66-.3,16.43-.56,25.2-1.06,8.82-.56,17.75-1.37,25.91-3.04,8.11-1.67,15.06-4.11,20.79-7,5.78-2.89,10.19-6.19,13.64-9.33,3.45-3.19,5.83-6.24,7.35-8.47,1.52-2.23,2.13-3.65,2.13-3.65h-.05Z"/>
            <path class="cls-8" d="m445.06,260.81c-5.58-2.69-10.6-4.92-14.5-6.64-3.85-1.72-6.64-2.94-8.06-3.55,1.67-2.43,7.2-9.94,14.04-20.38-.81.2-1.67.41-2.48.66-3.95,5.93-7.15,10.75-9.63,14.15-2.38,3.4-3.8,5.37-3.8,5.42l-.56.81.91.41s.61.25,1.67.71c1.01.46,2.53,1.12,4.41,1.98,3.75,1.72,9.28,4.11,15.51,7.15.81-.25,1.67-.51,2.48-.71Z"/>
            <path class="cls-11" d="m348.94,271.05s2.38-.2,7.05-.91c4.66-.76,11.66-2.03,20.94-4.41,9.28-2.38,19.87-5.78,28.04-8.77,8.16-2.94,13.99-5.42,13.99-5.42,0,0-6.29.91-14.8,2.59-8.52,1.67-19.37,4.21-28.54,6.95-9.18,2.74-15.87,5.27-20.23,7.05-4.41,1.77-6.49,2.84-6.49,2.84l.05.1Z"/>
            <path class="cls-1" d="m440.8,229.32c-4.01,5.88-7.35,10.85-9.84,14.4-2.43,3.55-3.85,5.63-3.85,5.63,0,0,2.33,1.06,6.24,2.84,1.98.91,4.31,1.98,7,3.19,1.37.61,2.79,1.27,4.26,1.93,1.47.71,2.99,1.42,4.61,2.13,5.68-2.08,10.49-4.66,14.45-7.3,3.95-2.69,7.05-5.48,9.43-8.06s4.11-4.92,5.17-6.59c1.01-1.67,1.47-2.69,1.47-2.69,0,0-3.75-2.59-10.44-4.56-6.69-1.98-16.58-3.14-28.39-.86l-.1-.05Z"/>
            <path class="cls-10" d="m435.84,263.19c8.11-1.67,15.06-4.11,20.79-7,5.78-2.89,10.19-6.19,13.64-9.33,3.45-3.19,5.83-6.24,7.35-8.47,1.52-2.23,2.13-3.65,2.13-3.65l-121.38,33.72s2.79-.15,7.5-.35c4.72-.2,11.31-.46,18.91-.76,7.66-.3,16.43-.56,25.2-1.06,8.82-.56,17.75-1.37,25.91-3.04l-.05-.05Z"/>
          </g>
          <g>
            <path class="cls-4" d="m469.4,278.86s-.2-.25-.71-.71c-.46-.46-1.17-1.06-2.13-1.83-1.88-1.47-4.72-3.4-8.47-5.17-3.75-1.77-8.52-3.35-14.15-4.26-5.63-.91-12.17-1.12-19.52-.35-7.35.76-15.21,2.48-22.82,4.41-7.66,1.93-15.06,4.06-21.65,5.88-6.54,1.83-12.27,3.35-16.33,4.46-4.01,1.06-6.44,1.72-6.44,1.72,0,0,9.68,1.77,23.17,4.51,6.74,1.32,14.25,2.89,22.05,4.26,7.76,1.32,15.72,2.48,23.12,2.69,7.4.2,13.89-.46,19.42-1.83,5.53-1.32,10.24-3.24,13.79-5.27,3.6-2.03,6.29-4.16,8.06-5.78s2.64-2.74,2.64-2.74h-.05Z"/>
            <path class="cls-3" d="m434.01,294.32c-2.18-1.72-4.21-3.35-6.03-4.82s-3.6-2.79-5.12-3.95c-2.99-2.28-5.17-3.9-6.24-4.72,1.01-.86,3.04-2.69,5.83-5.17,1.42-1.27,3.04-2.74,4.82-4.31,1.72-1.62,3.65-3.4,5.68-5.27h-2.28c-2.28,2.13-4.36,4.11-6.29,5.83s-3.6,3.19-4.97,4.46c-2.74,2.43-4.36,3.9-4.41,3.9l-.66.61.71.56s1.77,1.32,4.66,3.6c1.47,1.12,3.3,2.48,5.32,4.06,2.03,1.62,4.26,3.4,6.69,5.32.76,0,1.52-.1,2.28-.1Z"/>
            <path class="cls-11" d="m348.53,283.37s2.08.35,6.24.66c4.21.3,10.55.66,19.11.51,8.57-.15,18.4-.91,26.11-1.83,7.71-.86,13.28-1.77,13.28-1.77,0,0-1.42-.1-3.75-.3-2.38-.15-5.73-.35-9.63-.51-7.76-.3-17.64-.35-26.21.15-8.52.51-14.8,1.32-19.01,1.93-4.16.66-6.19,1.12-6.19,1.12l.05.05Z"/>
            <path class="cls-7" d="m436.8,266.13c-4.56,4.26-8.67,7.86-11.51,10.44-2.84,2.54-4.51,4.06-4.51,4.06,0,0,1.77,1.37,4.77,3.75,1.52,1.17,3.35,2.59,5.48,4.21,2.08,1.62,4.36,3.45,6.79,5.37,10.7-1.32,18.76-4.92,23.88-8.42,5.17-3.5,7.71-6.69,7.71-6.69,0,0-.66-.76-2.03-1.88-1.37-1.12-3.4-2.69-6.13-4.21-2.74-1.52-6.08-3.09-10.19-4.31-4.11-1.22-8.87-2.08-14.25-2.33Z"/>
            <path class="cls-10" d="m425.49,294.47c7.4.2,13.89-.46,19.42-1.83,5.53-1.32,10.24-3.24,13.79-5.27,3.6-2.03,6.29-4.16,8.06-5.78,1.77-1.62,2.64-2.74,2.64-2.74l-112.2,4.21s9.68,1.77,23.17,4.51c6.74,1.32,14.25,2.89,22.05,4.26,7.76,1.32,15.72,2.48,23.12,2.69l-.05-.05Z"/>
          </g>
          <g>
            <path class="cls-4" d="m195.87,18.77s1.83,1.17,4.61,3.6c2.79,2.43,6.49,6.19,10.19,11.56,3.7,5.32,7.35,12.12,10.19,20.48,2.84,8.31,4.77,18.15,5.48,29.56.66,11.41,0,23.83-1.01,36-1.01,12.17-2.33,24.08-3.45,34.53-1.12,10.39-1.98,19.52-2.53,26.01-.56,6.44-.86,10.29-.86,10.29,0,0-1.32-3.65-3.5-9.73-2.23-6.13-5.42-14.6-9.18-24.44-3.75-9.84-8.11-21.04-12.27-32.5-4.11-11.51-7.96-23.17-10.29-34.43-2.28-11.2-2.99-21.34-2.38-30.07.56-8.77,2.38-16.27,4.56-22.36,2.18-6.13,4.82-10.8,6.9-13.84,2.08-3.09,3.55-4.66,3.55-4.66Z"/>
            <path class="cls-3" d="m181.27,76.67c6.49,5.68,12.12,10.8,16.38,14.7,4.31,3.95,7.35,7,8.87,8.37,1.06-1.77,3.35-5.37,6.39-10.39,3.14-4.87,7.2-11.15,12.02-18.4.15,1.17.35,2.33.51,3.5-5.42,8.21-9.84,14.96-12.88,19.77-3.04,4.87-4.82,7.76-4.82,7.81l-.71,1.17-1.01-.96s-2.54-2.38-6.69-6.29c-4.21-3.8-10.24-9.33-17.59-15.77-.15-1.22-.3-2.38-.41-3.55l-.05.05Z"/>
            <path class="cls-11" d="m220.26,204.03s-1.01-3.09-2.59-9.43c-1.57-6.34-3.7-15.92-5.73-29-1.98-13.08-3.4-28.24-4.06-40.21-.66-11.97-.71-20.69-.71-20.69,0,0,2.23,8.42,4.66,20.18,2.48,11.71,5.07,26.77,6.49,39.9,1.47,13.13,1.83,22.97,1.98,29.46.1,6.54-.05,9.73-.05,9.73v.05Z"/>
            <path class="cls-7" d="m223.86,65.11c-5.37,8.31-9.89,15.16-13.08,20.23-3.19,5.02-5.07,8.01-5.07,8.01,0,0-2.59-2.38-6.95-6.44-4.46-4.01-10.7-9.63-17.9-16.12-.86-16.58,2.69-29.61,6.69-38.58,1.98-4.51,4.11-7.76,5.68-10.04,1.57-2.23,2.69-3.4,2.69-3.4,0,0,1.32.81,3.45,2.59,2.13,1.77,5.02,4.41,8.06,8.16,6.19,7.61,12.93,19.37,16.43,35.59Z"/>
            <path class="cls-10" d="m183.3,89.65c-2.28-11.2-2.99-21.34-2.38-30.07.56-8.77,2.38-16.27,4.56-22.36,2.18-6.13,4.82-10.8,6.9-13.84,2.08-3.09,3.55-4.66,3.55-4.66l22.61,171.97s-1.32-3.65-3.5-9.73c-2.23-6.13-5.42-14.6-9.18-24.44-3.75-9.84-8.11-21.04-12.27-32.5-4.11-11.51-7.96-23.17-10.29-34.43v.05Z"/>
          </g>
          <g>
            <path class="cls-5" d="m134.27,49.8s2.03.66,5.32,2.28c3.3,1.67,7.76,4.31,12.62,8.42,4.87,4.16,10.09,9.73,14.86,16.98,4.77,7.25,9.13,16.12,12.57,26.82,3.5,10.7,5.93,22.66,8.01,34.53,2.08,11.81,3.8,23.47,5.37,33.72s3.04,19.16,4.11,25.45c1.06,6.24,1.72,9.99,1.72,9.99,0,0-2.18-3.14-5.78-8.42-3.6-5.17-8.77-12.47-14.86-20.94-6.03-8.42-13.03-18.1-19.82-27.89-6.74-9.84-13.38-20.08-18.4-30.17-5.02-10.09-8.16-19.52-9.84-28.04-1.67-8.57-1.83-16.07-1.27-22.41.61-6.34,1.88-11.46,3.09-14.96,1.22-3.45,2.23-5.32,2.23-5.32l.05-.05Z"/>
            <path class="cls-8" d="m134.88,108.71c3.8,1.83,7.3,3.6,10.6,5.32,3.19,1.67,6.13,3.19,8.72,4.56,5.07,2.64,8.72,4.72,10.49,5.68.61-1.93,1.83-5.93,3.5-11.46,1.72-5.58,4.11-12.42,6.84-20.53.46,1.06.91,2.13,1.37,3.19-1.52,4.51-2.94,8.67-4.21,12.42-.61,1.83-1.17,3.55-1.72,5.17-.51,1.62-.96,3.14-1.42,4.51-1.67,5.37-2.64,8.57-2.69,8.62l-.41,1.27-1.22-.66s-.76-.41-2.13-1.17c-1.37-.76-3.3-1.77-5.78-3.09-2.53-1.32-5.53-2.89-8.97-4.72-1.77-.91-3.6-1.88-5.58-2.89-1.98-.96-4.01-1.98-6.13-2.99-.46-1.12-.86-2.18-1.27-3.24Z"/>
            <path class="cls-11" d="m203.88,220.15s-1.72-2.69-4.82-8.37c-3.09-5.68-7.5-14.25-12.68-26.16-5.17-11.91-10.34-26.11-13.94-37.32-3.65-11.2-5.83-19.47-5.83-19.47,0,0,4.26,7.45,9.48,18.05,5.27,10.55,11.51,24.23,16.17,36.4,4.66,12.17,7.5,21.4,9.23,27.58,1.72,6.19,2.38,9.28,2.38,9.28Z"/>
            <path class="cls-1" d="m172.55,86.96c-3.04,9.23-5.68,16.83-7.45,22.51-1.77,5.53-2.84,8.82-2.84,8.82,0,0-.76-.41-2.18-1.17s-3.5-1.88-6.03-3.19c-2.59-1.37-5.73-2.99-9.23-4.82-3.55-1.88-7.55-3.95-11.81-6.08-5.02-15.72-4.92-28.95-3.3-38.43,1.57-9.53,4.61-14.91,4.61-14.91,0,0,5.98,1.83,13.69,7.4,7.76,5.58,17.24,15.21,24.59,29.76l-.05.1Z"/>
            <path class="cls-10" d="m140.05,120.52c-5.02-10.09-8.16-19.52-9.84-28.04-1.67-8.57-1.83-16.07-1.27-22.41.61-6.34,1.88-11.46,3.09-14.96,1.22-3.45,2.23-5.32,2.23-5.32l64.59,158.13s-2.18-3.14-5.78-8.42c-3.6-5.17-8.77-12.47-14.86-20.94-6.03-8.42-13.03-18.1-19.82-27.89-6.74-9.84-13.38-20.08-18.4-30.17h.05Z"/>
          </g>
          <g>
            <path class="cls-4" d="m82.91,93.2s1.98.1,5.27.81,7.96,2.03,13.23,4.51c5.22,2.43,11.26,6.24,17.19,11.51,5.98,5.27,11.91,12.17,17.59,20.84,5.63,8.67,10.65,18.71,15.31,28.7,4.66,10.04,8.87,19.82,12.78,28.65,7.71,17.54,13.54,30.01,13.54,30.01,0,0-2.64-2.23-7.1-5.98-4.46-3.75-10.8-9.02-18.2-15.11-7.4-6.13-15.77-12.83-24.13-20.03-8.37-7.15-16.68-14.7-23.47-22.46-6.84-7.76-11.86-15.36-15.36-22.56-3.5-7.15-5.53-13.94-6.49-19.62-.96-5.73-1.01-10.55-.81-13.94s.66-5.32.66-5.32Z"/>
            <path class="cls-3" d="m97.46,145.31c3.8.76,7.35,1.52,10.6,2.18,3.24.76,6.24,1.42,8.82,2.03,5.12,1.22,8.82,2.08,10.65,2.48.1-1.88.25-5.68.46-10.9.1-2.64.2-5.73.46-9.02.25-3.35.51-6.95.76-10.85.66.81,1.32,1.67,1.98,2.54-.3,4.36-.61,8.37-.86,11.97-.15,3.6-.3,6.74-.46,9.38-.2,5.12-.35,8.16-.35,8.21v1.22l-1.27-.25c-.05,0-2.99-.71-8.01-1.88-2.54-.61-5.63-1.32-9.13-2.08-3.5-.71-7.45-1.52-11.71-2.43-.66-.86-1.27-1.72-1.93-2.59Z"/>
            <path class="cls-11" d="m185.12,227.85s-2.18-1.93-6.24-6.19c-4.06-4.26-10.04-10.8-17.49-20.18-7.4-9.38-15.36-20.69-21.24-29.81-5.93-9.13-9.84-15.97-9.84-15.97,0,0,5.53,5.63,12.73,13.79,7.2,8.11,15.97,18.81,23.02,28.49,7,9.68,11.71,17.19,14.75,22.26,2.99,5.07,4.31,7.66,4.31,7.66v-.05Z"/>
            <path class="cls-7" d="m125.7,117.13c-.25,4.36-.56,8.47-.76,12.12-.2,3.65-.35,6.9-.46,9.63-.3,5.32-.46,8.47-.46,8.47,0,0-3.09-.71-8.26-1.83-2.64-.61-5.83-1.32-9.38-2.13-3.6-.76-7.6-1.62-11.86-2.53-4.06-6.34-6.9-12.47-8.82-18.15s-2.84-10.75-3.24-15.16c-.41-4.36-.25-7.96-.05-10.44.2-2.48.56-3.9.56-3.9,0,0,5.73.25,13.94,3.4,8.16,3.04,18.86,9.38,28.85,20.58l-.05-.05Z"/>
            <path class="cls-10" d="m104.87,154.59c-6.84-7.76-11.86-15.36-15.36-22.56-3.5-7.15-5.53-13.94-6.49-19.62-.96-5.73-1.01-10.55-.81-13.94.2-3.4.66-5.32.66-5.32l94.86,125.03s-2.64-2.23-7.1-5.98c-4.46-3.75-10.8-9.02-18.2-15.11-7.4-6.13-15.77-12.83-24.13-20.03-8.37-7.15-16.68-14.7-23.47-22.46h.05Z"/>
          </g>
          <g>
            <path class="cls-5" d="m48.79,141.01s1.77-.41,4.87-.56c3.14-.1,7.6,0,12.93,1.06s11.41,2.94,18,6.34c6.59,3.4,13.54,8.16,20.63,14.65,7.1,6.49,13.89,14.3,20.38,22.16,6.44,7.81,12.68,15.82,18.1,22.76,5.48,6.95,10.19,12.88,13.59,17.09,3.45,4.21,5.48,6.74,5.48,6.74,0,0-2.89-1.42-7.76-3.75-4.87-2.33-11.86-5.63-19.82-9.33-7.96-3.7-17.09-7.86-26.26-12.37-9.18-4.51-18.35-9.38-26.26-14.8-7.91-5.42-14.15-11.05-18.91-16.68-4.77-5.63-8.11-11.15-10.39-16.12-2.23-4.92-3.35-9.18-3.9-12.27-.56-3.04-.61-4.87-.61-4.87l-.05-.05Z"/>
            <path class="cls-8" d="m73.89,184.3c7.3-.3,13.44-.61,18.4-.66,4.87-.05,8.47-.15,10.19-.15-.2-.86-.51-2.13-.86-3.8s-.81-3.7-1.27-6.08c-.96-4.77-2.33-11.05-3.55-18.05.76.61,1.57,1.22,2.38,1.83,1.37,7.96,2.89,14.75,3.8,19.37.51,2.33.86,4.16,1.17,5.48.3,1.27.46,1.98.46,2.03l.25,1.12h-1.17s-2.89.1-7.66.15c-1.22,0-2.53,0-4.01.05-1.42.05-2.99.1-4.61.15-3.35.15-7.1.3-11.15.46-.76-.61-1.57-1.27-2.28-1.88h-.1Z"/>
            <path class="cls-11" d="m171.54,238.2s-2.38-1.27-7.05-4.11c-4.61-2.89-11.51-7.4-20.33-14.04-8.82-6.69-18.51-15.01-25.91-21.85-7.4-6.79-12.47-12.02-12.47-12.02,0,0,6.24,3.75,14.55,9.38,8.31,5.58,18.71,13.13,27.23,20.18,8.52,7.05,14.45,12.67,18.35,16.58,3.9,3.85,5.68,5.93,5.68,5.93l-.05-.05Z"/>
            <path class="cls-1" d="m92.65,152.62c.35,1.98.76,3.9,1.12,5.78.35,1.88.76,3.65,1.06,5.32.66,3.3,1.27,6.24,1.77,8.67.46,2.43.86,4.31,1.17,5.68.3,1.32.41,2.08.41,2.08,0,0-2.94.1-7.91.25-5.07.05-11.91.41-20.13.66-10.14-9.48-15.77-19.42-18.51-27.07-2.74-7.6-2.84-12.88-2.84-12.88,0,0,1.27-.25,3.55-.46s5.63-.2,9.68.25c8.11.91,18.96,3.95,30.62,11.76v-.05Z"/>
            <path class="cls-10" d="m82.61,190.94c-7.91-5.42-14.15-11.05-18.91-16.68-4.77-5.63-8.11-11.15-10.39-16.12-2.23-4.92-3.35-9.18-3.9-12.27-.56-3.04-.61-4.87-.61-4.87l113.97,90.2s-2.89-1.42-7.76-3.75c-4.87-2.33-11.86-5.63-19.82-9.33-7.96-3.7-17.09-7.86-26.26-12.37-9.18-4.51-18.35-9.38-26.26-14.8h-.05Z"/>
          </g>
          <g>
            <path class="cls-4" d="m23.59,190.03s1.52-.81,4.36-1.72c1.42-.46,3.14-.96,5.17-1.37s4.41-.76,7-.96c5.22-.41,11.41-.15,18.3,1.27s14.6,4.06,22.82,8.21,16.48,9.63,24.59,15.26c8.06,5.63,15.77,11.41,22.61,16.43,3.4,2.48,6.59,4.82,9.43,6.9,2.89,2.08,5.42,3.9,7.55,5.48,4.26,3.04,6.74,4.82,6.74,4.82,0,0-3.04-.56-8.16-1.47-5.17-.96-12.37-2.18-20.74-3.55-8.37-1.37-17.9-2.94-27.53-4.77-9.63-1.88-19.32-4.01-28.04-7-8.67-2.99-15.97-6.69-21.8-10.65-5.83-3.95-10.29-8.21-13.64-12.22-3.35-4.01-5.58-7.71-6.84-10.34-1.32-2.69-1.83-4.31-1.83-4.31Z"/>
            <path class="cls-3" d="m57.87,223.65c6.59-2.13,12.42-3.9,16.88-5.27,4.46-1.37,7.86-2.28,9.38-2.74-.76-1.47-2.38-4.51-4.61-8.67-2.13-4.16-4.87-9.53-7.96-15.82.86.35,1.77.71,2.64,1.06,3.45,7.05,6.44,12.88,8.52,16.93,2.18,4.11,3.45,6.49,3.45,6.54l.51.96-1.06.3s-2.69.76-7.1,2.08c-4.36,1.37-10.65,3.24-18.1,5.68-.86-.41-1.77-.76-2.64-1.17l.1.1Z"/>
            <path class="cls-11" d="m162.11,248.64s-2.53-.56-7.6-2.03c-5.02-1.47-12.57-3.9-22.46-7.81-9.89-3.95-20.99-9.18-29.56-13.59s-14.65-7.96-14.65-7.96c0,0,6.74,1.88,15.87,4.97,9.13,3.04,20.63,7.4,30.32,11.71,9.68,4.36,16.68,8.06,21.24,10.65s6.74,4.06,6.74,4.06h.1Z"/>
            <path class="cls-7" d="m67.1,189.58c3.55,6.95,6.59,12.98,8.77,17.29,2.18,4.26,3.5,6.74,3.5,6.74,0,0-2.74.81-7.3,2.18-4.56,1.42-11,3.4-18.45,5.73-11.86-6.19-19.47-13.94-24.03-20.33-2.33-3.19-3.75-5.98-4.66-7.96-.91-2.03-1.27-3.19-1.27-3.19,0,0,1.12-.56,3.19-1.32,2.08-.71,5.07-1.67,8.97-2.23,7.76-1.17,18.66-1.12,31.33,3.09h-.05Z"/>
            <path class="cls-10" d="m67.7,227.6c-8.67-2.99-15.97-6.69-21.8-10.65-5.83-3.95-10.29-8.21-13.64-12.22-3.35-4.01-5.58-7.71-6.84-10.34-1.32-2.69-1.83-4.31-1.83-4.31l128.58,54.35s-3.04-.56-8.16-1.47c-5.17-.96-12.37-2.18-20.74-3.55-8.37-1.37-17.9-2.94-27.53-4.77-9.63-1.88-19.32-4.01-28.04-7v-.05Z"/>
          </g>
          <g>
            <path class="cls-5" d="m27.5,234.7s1.32-.86,3.75-2.03c2.43-1.12,6.03-2.53,10.55-3.5,4.61-.96,10.19-1.47,16.58-.96,6.39.46,13.54,1.93,21.34,4.66,7.86,2.79,15.92,6.69,23.78,10.8,7.86,4.11,15.41,8.37,22.11,12.02,13.49,7.45,23.27,12.67,23.27,12.67,0,0-2.79-.15-7.5-.35-4.72-.2-11.31-.46-18.91-.76-7.66-.3-16.43-.56-25.2-1.06-8.82-.56-17.75-1.37-25.91-3.04-8.11-1.67-15.06-4.11-20.79-7-5.78-2.89-10.19-6.19-13.64-9.33-3.45-3.19-5.83-6.24-7.35-8.47s-2.13-3.65-2.13-3.65h.05Z"/>
            <path class="cls-8" d="m62.13,260.81c5.58-2.69,10.6-4.92,14.5-6.64,3.85-1.72,6.64-2.94,8.06-3.55-1.67-2.43-7.2-9.94-14.04-20.38.81.2,1.67.41,2.48.66,3.95,5.93,7.15,10.75,9.63,14.15,2.38,3.4,3.8,5.37,3.8,5.42l.56.81-.91.41s-.61.25-1.67.71c-1.01.46-2.54,1.12-4.41,1.98-3.75,1.72-9.28,4.11-15.51,7.15-.81-.25-1.67-.51-2.48-.71Z"/>
            <path class="cls-11" d="m158.25,271.05s-2.38-.2-7.05-.91c-4.66-.76-11.66-2.03-20.94-4.41-9.28-2.38-19.87-5.78-28.04-8.77-8.16-2.94-13.99-5.42-13.99-5.42,0,0,6.29.91,14.8,2.59,8.52,1.67,19.37,4.21,28.54,6.95,9.18,2.74,15.87,5.27,20.23,7.05,4.41,1.77,6.49,2.84,6.49,2.84l-.05.1Z"/>
            <path class="cls-1" d="m66.39,229.32c4.01,5.88,7.35,10.85,9.84,14.4,2.43,3.55,3.85,5.63,3.85,5.63,0,0-2.33,1.06-6.24,2.84-1.98.91-4.31,1.98-7,3.19-1.37.61-2.79,1.27-4.26,1.93-1.47.71-2.99,1.42-4.61,2.13-5.68-2.08-10.49-4.66-14.45-7.3-3.95-2.69-7.05-5.48-9.43-8.06-2.38-2.59-4.11-4.92-5.17-6.59-1.01-1.67-1.47-2.69-1.47-2.69,0,0,3.75-2.59,10.44-4.56,6.69-1.98,16.58-3.14,28.39-.86l.1-.05Z"/>
            <path class="cls-10" d="m71.35,263.19c-8.11-1.67-15.06-4.11-20.79-7-5.78-2.89-10.19-6.19-13.64-9.33-3.45-3.19-5.83-6.24-7.35-8.47s-2.13-3.65-2.13-3.65l121.38,33.72s-2.79-.15-7.5-.35c-4.72-.2-11.31-.46-18.91-.76-7.66-.3-16.43-.56-25.2-1.06-8.82-.56-17.74-1.37-25.91-3.04l.05-.05Z"/>
          </g>
          <g>
            <path class="cls-4" d="m37.79,278.86s.2-.25.71-.71c.46-.46,1.17-1.06,2.13-1.83,1.88-1.47,4.72-3.4,8.47-5.17,3.75-1.77,8.47-3.35,14.15-4.26,5.63-.91,12.17-1.12,19.52-.35,7.35.76,15.21,2.48,22.81,4.41,7.66,1.93,15.06,4.06,21.65,5.88,6.54,1.83,12.27,3.35,16.33,4.46,4.01,1.06,6.44,1.72,6.44,1.72,0,0-9.68,1.77-23.17,4.51-6.74,1.32-14.25,2.89-22.05,4.26-7.76,1.32-15.72,2.48-23.12,2.69-7.4.2-13.89-.46-19.42-1.83-5.53-1.32-10.24-3.24-13.79-5.27-3.6-2.03-6.29-4.16-8.06-5.78-1.77-1.62-2.64-2.74-2.64-2.74h.05Z"/>
            <path class="cls-3" d="m73.18,294.32c2.18-1.72,4.21-3.35,6.03-4.82s3.6-2.79,5.12-3.95c2.99-2.28,5.17-3.9,6.24-4.72-1.01-.86-3.04-2.69-5.83-5.17-1.42-1.27-3.04-2.74-4.82-4.31-1.72-1.62-3.65-3.4-5.68-5.27h2.28c2.28,2.13,4.36,4.11,6.29,5.83,1.93,1.72,3.6,3.19,4.97,4.46,2.74,2.43,4.36,3.9,4.41,3.9l.66.61-.71.56s-1.77,1.32-4.66,3.6c-1.47,1.12-3.3,2.48-5.32,4.06-2.03,1.62-4.26,3.4-6.69,5.32-.76,0-1.52-.1-2.28-.1Z"/>
            <path class="cls-11" d="m158.66,283.37s-2.08.35-6.24.66c-4.21.3-10.55.66-19.11.51-8.57-.15-18.4-.91-26.11-1.83-7.71-.86-13.28-1.77-13.28-1.77,0,0,1.42-.1,3.75-.3,2.38-.15,5.73-.35,9.63-.51,7.76-.3,17.64-.35,26.21.15,8.52.51,14.8,1.32,19.01,1.93,4.16.66,6.19,1.12,6.19,1.12l-.05.05Z"/>
            <path class="cls-7" d="m70.39,266.13c4.56,4.26,8.67,7.86,11.51,10.44,2.84,2.54,4.51,4.06,4.51,4.06,0,0-1.77,1.37-4.77,3.75-1.52,1.17-3.35,2.59-5.48,4.21-2.08,1.62-4.36,3.45-6.79,5.37-10.7-1.32-18.76-4.92-23.88-8.42-5.17-3.5-7.71-6.69-7.71-6.69,0,0,.66-.76,2.03-1.88,1.37-1.12,3.4-2.69,6.13-4.21,2.74-1.52,6.08-3.09,10.19-4.31,4.11-1.22,8.87-2.08,14.25-2.33Z"/>
            <path class="cls-10" d="m81.7,294.47c-7.4.2-13.89-.46-19.42-1.83-5.53-1.32-10.24-3.24-13.79-5.27-3.6-2.03-6.29-4.16-8.06-5.78-1.77-1.62-2.64-2.74-2.64-2.74l112.2,4.21s-9.68,1.77-23.17,4.51c-6.74,1.32-14.25,2.89-22.05,4.26-7.76,1.32-15.72,2.48-23.12,2.69l.05-.05Z"/>
          </g>
        </g>
        <g>
          <path class="cls-5" d="m253.57,3s-19.77,22.71-20.23,69.92c-.46,47.2,20.23,108.9,20.23,108.9,0,0,20.69-61.75,20.23-108.9-.46-47.2-20.23-69.92-20.23-69.92Z"/>
          <path class="cls-8" d="m273.14,59.43c-9.18,14.2-16.98,24.49-19.52,27.78-2.53-3.3-10.34-13.59-19.52-27.78-.1,1.22-.2,2.43-.3,3.65,10.49,16.02,18.86,26.52,18.96,26.67l.86,1.12.86-1.12s8.47-10.65,18.96-26.67c-.1-1.22-.2-2.43-.3-3.65Z"/>
          <path class="cls-11" d="m253.57,195.66s4.21-13.13,4.31-40.36c.1-27.23-4.31-62.87-4.31-62.87,0,0-4.41,35.64-4.31,62.87s4.31,40.36,4.31,40.36Z"/>
          <path class="cls-1" d="m234.76,53.35c10.09,16.22,18.81,27.18,18.81,27.18,0,0,8.77-11,18.86-27.18-4.56-33.87-18.86-50.35-18.86-50.35,0,0-14.25,16.43-18.81,50.35Z"/>
          <path class="cls-10" d="m273.8,72.92c-.46-47.2-20.23-69.92-20.23-69.92v178.82s20.69-61.75,20.23-108.9Z"/>
        </g>
        <g>
          <path class="cls-12" d="m370.13,276.37c0-1.06,0-2.18-.1-3.35s-.2-2.33-.3-3.55c-.15-2.48-.66-5.02-1.06-7.71-.56-2.64-1.06-5.42-1.88-8.16-.71-2.79-1.67-5.53-2.59-8.26-1.06-2.69-2.08-5.42-3.35-8.01-.61-1.32-1.22-2.59-1.88-3.85-.66-1.27-1.27-2.48-1.98-3.7-1.42-2.38-2.74-4.66-4.16-6.74-1.37-2.13-2.79-4.01-4.16-5.78-1.32-1.77-2.64-3.3-3.8-4.66-1.12-1.37-2.23-2.48-3.09-3.45-1.72-1.93-2.79-2.94-2.79-2.94,0,0-1.06-1.01-2.89-2.84-.96-.86-2.13-1.88-3.5-3.09-1.32-1.22-2.94-2.43-4.66-3.8-1.77-1.37-3.7-2.74-5.78-4.21-2.13-1.37-4.36-2.89-6.79-4.26-2.38-1.42-4.92-2.74-7.55-4.06-1.32-.66-2.64-1.22-4.01-1.83-1.32-.61-2.69-1.22-4.11-1.72-2.74-1.12-5.53-2.08-8.31-2.94-2.79-.86-5.53-1.62-8.26-2.23-2.69-.61-5.32-1.17-7.86-1.52-2.48-.46-4.87-.71-7.1-.91-2.18-.25-4.21-.3-6.03-.41-1.77-.1-3.35-.1-4.66-.1-2.59,0-4.06.05-4.06.05,0,0-1.47,0-4.06-.05-1.27,0-2.84,0-4.66.1-1.77.1-3.8.15-6.03.41-2.18.2-4.56.46-7.1.91-2.53.35-5.12.91-7.86,1.52-2.69.61-5.48,1.37-8.26,2.23-2.79.91-5.58,1.83-8.31,2.94-1.37.51-2.74,1.12-4.11,1.72-1.32.61-2.69,1.17-4.01,1.83-2.59,1.32-5.17,2.59-7.55,4.06-2.43,1.37-4.61,2.89-6.79,4.26-2.08,1.47-4.06,2.84-5.78,4.21-1.72,1.37-3.35,2.59-4.66,3.8s-2.53,2.23-3.5,3.09c-1.83,1.83-2.89,2.84-2.89,2.84,0,0-1.06,1.01-2.79,2.94-.86.96-1.98,2.08-3.09,3.45-1.12,1.37-2.48,2.89-3.8,4.66s-2.79,3.65-4.16,5.78c-1.42,2.08-2.79,4.36-4.16,6.74-.71,1.17-1.32,2.43-1.98,3.7s-1.32,2.53-1.88,3.85c-1.27,2.59-2.28,5.32-3.35,8.01-.96,2.74-1.93,5.48-2.59,8.26-.81,2.74-1.32,5.53-1.88,8.16-.41,2.69-.86,5.22-1.06,7.71-.1,1.22-.2,2.43-.3,3.55-.05,1.17-.1,2.28-.1,3.35-.1,2.13,0,4.11,0,5.83s.1,3.24.25,4.46c.25,2.43.41,3.85.41,3.85h19.72s.2-1.12.61-3.09c.15-.96.41-2.18.76-3.5.3-1.37.66-2.84,1.12-4.46.41-1.62.96-3.35,1.57-5.17.56-1.83,1.37-3.65,2.08-5.58.81-1.88,1.62-3.85,2.64-5.73.86-1.93,2.03-3.8,3.04-5.73,1.12-1.88,2.23-3.7,3.45-5.42,1.12-1.77,2.48-3.4,3.65-5.02,1.27-1.57,2.43-3.09,3.7-4.41,1.17-1.42,2.38-2.64,3.5-3.75,1.06-1.17,2.23-2.13,3.14-2.99.91-.91,1.83-1.57,2.48-2.23,1.37-1.22,2.23-1.88,2.23-1.88,0,0,.81-.66,2.28-1.83.76-.56,1.67-1.22,2.69-1.98,1.01-.76,2.28-1.52,3.6-2.43,1.32-.86,2.79-1.72,4.36-2.64,1.62-.86,3.24-1.83,5.02-2.64,1.72-.91,3.6-1.72,5.53-2.53,1.93-.76,3.85-1.62,5.83-2.28,1.01-.3,1.98-.71,2.99-1.01s1.98-.61,2.99-.91c1.98-.56,3.95-1.06,5.88-1.52,1.93-.41,3.75-.86,5.58-1.12,1.77-.35,3.45-.56,5.02-.76,1.57-.25,2.99-.35,4.31-.51,1.27-.15,2.38-.25,3.35-.3,1.88-.15,2.89-.2,2.89-.2,0,0,1.06.1,2.89.2.91,0,2.03.1,3.35.3,1.27.15,2.74.2,4.31.51,1.57.2,3.24.41,5.02.76,1.77.3,3.65.71,5.58,1.12,1.93.41,3.9.96,5.88,1.52,1.01.3,1.98.61,2.99.91s1.98.71,2.99,1.01c1.98.66,3.9,1.52,5.83,2.28,1.88.81,3.75,1.67,5.53,2.53,1.77.81,3.4,1.83,5.02,2.64,1.57.91,3.04,1.77,4.36,2.64,1.32.91,2.53,1.67,3.6,2.43,1.06.76,1.93,1.42,2.69,1.98,1.42,1.17,2.28,1.83,2.28,1.83,0,0,.86.61,2.23,1.88.71.61,1.57,1.32,2.48,2.23s2.03,1.88,3.14,2.99c1.12,1.17,2.33,2.38,3.5,3.75,1.27,1.32,2.43,2.84,3.7,4.41,1.17,1.62,2.53,3.24,3.65,5.02,1.22,1.72,2.33,3.6,3.45,5.42,1.01,1.88,2.13,3.75,3.04,5.73,1.01,1.93,1.77,3.85,2.64,5.73.71,1.93,1.52,3.75,2.08,5.58.61,1.83,1.17,3.55,1.57,5.17.51,1.62.86,3.09,1.12,4.46.3,1.32.56,2.53.76,3.5.35,1.98.61,3.09.61,3.09h19.72s.15-1.42.41-3.85c.15-1.22.25-2.74.25-4.46.05-1.72.15-3.7,0-5.83h.1Z"/>
          <path class="cls-4" d="m283.48,202.4s2.38-1.47,4.92-2.94c2.53-1.42,5.17-2.64,5.17-2.64,0,0,1.17,2.69,2.08,5.42.46,1.32.91,2.69,1.27,3.65.3,1.01.51,1.67.51,1.67,0,0-.81-.41-2.13-.91s-2.99-1.32-4.77-1.88c-1.72-.66-3.5-1.27-4.82-1.67-1.32-.41-2.23-.71-2.23-.71Z"/>
          <path class="cls-5" d="m322.32,204.63s-.71.05-1.83.25c-1.12.15-2.53.41-3.95.71-2.84.51-5.63,1.27-5.63,1.27,0,0-.15-.71-.41-1.77-.25-1.06-.61-2.48-1.01-3.9-.76-2.79-1.72-5.73-1.72-5.73,0,0,.91.51,2.33,1.32.71.41,1.52.86,2.38,1.37.86.51,1.77,1.12,2.69,1.67,1.83,1.12,3.6,2.38,4.92,3.3,1.32.91,2.18,1.57,2.18,1.57l.05-.05Z"/>
          <path class="cls-5" d="m283.79,186.13s-2.64,1.47-5.07,3.19c-1.22.81-2.43,1.67-3.35,2.28-.91.66-1.47,1.12-1.47,1.12,0,0-1.57-2.43-3.3-4.92-1.72-2.38-3.65-4.72-3.65-4.72,0,0,1.06.1,2.64.3,1.62.15,3.7.56,5.83.91,2.13.35,4.21.86,5.78,1.22.81.15,1.42.35,1.88.46s.71.2.71.2v-.05Z"/>
          <path class="cls-4" d="m342.24,247.07s2.48.76,4.87,1.72,4.72,2.13,4.72,2.13c0,0-.15.61-.46,1.57-.25.91-.61,2.13-.96,3.35-.35,1.17-.71,2.38-1.01,3.24s-.51,1.42-.51,1.42c0,0-.35-.86-.86-2.18-.61-1.27-1.37-2.99-2.18-4.66-.91-1.67-1.72-3.35-2.43-4.56-.71-1.22-1.17-2.03-1.17-2.03Z"/>
          <path class="cls-5" d="m363.79,277.44s-.35-.46-.91-1.22c-.56-.71-1.32-1.62-2.18-2.53-1.67-1.77-3.45-3.45-3.45-3.45,0,0,.96-2.28,1.88-4.61.51-1.22.91-2.38,1.27-3.3s.56-1.57.56-1.57c0,0,.25,1.01.66,2.59.35,1.52.76,3.65,1.17,5.68.3,2.08.61,4.16.81,5.73.15,1.57.2,2.64.2,2.64v.05Z"/>
          <path class="cls-5" d="m351.22,237.08s-.66-.2-1.57-.56c-.96-.35-2.23-.76-3.55-1.12-1.32-.35-2.64-.71-3.6-.91-.96-.25-1.67-.35-1.67-.35,0,0,.25-2.74.51-5.48.15-2.74.25-5.63.25-5.63,0,0,.66.86,1.67,2.08,1.01,1.22,2.23,2.99,3.45,4.72,1.22,1.77,2.33,3.6,3.19,4.92.81,1.37,1.32,2.33,1.32,2.33Z"/>
          <path class="cls-4" d="m223.71,202.4s-2.38-1.47-4.92-2.94c-2.53-1.42-5.17-2.64-5.17-2.64,0,0-1.17,2.69-2.08,5.42-.46,1.32-.91,2.69-1.27,3.65-.3,1.01-.51,1.67-.51,1.67,0,0,.81-.41,2.13-.91s2.99-1.32,4.77-1.88c1.72-.66,3.5-1.27,4.82-1.67,1.32-.41,2.23-.71,2.23-.71Z"/>
          <path class="cls-5" d="m184.87,204.63s.71.05,1.83.25c1.12.15,2.53.41,3.95.71,2.84.51,5.63,1.27,5.63,1.27,0,0,.15-.71.41-1.77.25-1.06.61-2.48,1.01-3.9.76-2.79,1.72-5.73,1.72-5.73,0,0-.91.51-2.33,1.32-.71.41-1.52.86-2.38,1.37-.86.51-1.77,1.12-2.69,1.67-1.83,1.12-3.6,2.38-4.92,3.3-1.32.91-2.18,1.57-2.18,1.57l-.05-.05Z"/>
          <path class="cls-5" d="m223.4,186.13s2.59,1.47,5.07,3.19c1.22.81,2.43,1.67,3.35,2.28.91.66,1.47,1.12,1.47,1.12,0,0,1.57-2.43,3.3-4.92,1.72-2.38,3.65-4.72,3.65-4.72,0,0-1.06.1-2.64.3-1.62.15-3.7.56-5.83.91-2.13.35-4.21.86-5.78,1.22-.81.15-1.42.35-1.88.46s-.71.2-.71.2v-.05Z"/>
          <g>
            <path class="cls-7" d="m372.46,272.62c-.1-1.17-.15-2.38-.25-3.65-.15-2.53-.61-5.17-.96-7.91-.51-2.74-1.01-5.58-1.77-8.42-.71-2.84-1.62-5.68-2.59-8.52-1.06-2.79-2.08-5.63-3.35-8.31-.61-1.37-1.22-2.69-1.88-3.95-.66-1.27-1.27-2.59-1.98-3.8-1.42-2.43-2.79-4.82-4.21-7s-2.84-4.16-4.21-5.98c-1.32-1.88-2.69-3.4-3.85-4.87s-2.28-2.59-3.14-3.6c-1.77-1.98-2.84-3.04-2.84-3.04,0,0-1.06-1.06-2.99-2.94-.96-.91-2.18-1.98-3.55-3.19-1.37-1.27-3.04-2.53-4.82-3.95s-3.8-2.84-5.93-4.36c-2.18-1.42-4.46-2.99-6.95-4.41-2.43-1.47-5.07-2.84-7.76-4.21-1.32-.71-2.74-1.27-4.11-1.93s-2.79-1.22-4.21-1.77c-2.84-1.17-5.73-2.13-8.57-3.04-2.89-.86-5.73-1.67-8.52-2.33-2.79-.61-5.48-1.22-8.06-1.57-2.59-.46-5.02-.71-7.3-.91-2.28-.25-4.36-.3-6.19-.41s-3.45-.1-4.77-.1c-2.64.05-4.16.1-4.16.1,0,0-1.52,0-4.16-.1-1.32,0-2.94,0-4.77.1-1.83.1-3.9.15-6.19.41-2.28.2-4.72.46-7.3.91-2.59.35-5.27.96-8.06,1.57-2.79.66-5.63,1.42-8.52,2.33-2.84.91-5.73,1.88-8.57,3.04-1.42.56-2.84,1.17-4.21,1.77s-2.79,1.22-4.11,1.93c-2.69,1.37-5.32,2.69-7.76,4.21-2.48,1.42-4.77,2.99-6.95,4.41-2.13,1.52-4.16,2.94-5.93,4.36s-3.45,2.69-4.82,3.95c-1.37,1.22-2.59,2.33-3.55,3.19-1.88,1.88-2.99,2.94-2.99,2.94,0,0-1.12,1.06-2.84,3.04-.86,1.01-1.98,2.13-3.14,3.6-1.17,1.42-2.53,2.99-3.85,4.87-1.37,1.83-2.79,3.8-4.21,5.98-1.47,2.13-2.79,4.56-4.21,7-.71,1.22-1.32,2.54-1.98,3.8s-1.32,2.64-1.88,3.95c-1.27,2.69-2.28,5.53-3.35,8.31-.96,2.84-1.88,5.68-2.59,8.52-.76,2.84-1.27,5.68-1.77,8.42-.35,2.74-.81,5.37-.96,7.91-.1,1.27-.15,2.48-.25,3.65-.05,1.17,0,2.33-.05,3.45-.05,2.18.05,4.21.15,5.98.05,1.77.2,3.3.41,4.56.3,2.48.51,3.9.51,3.9h4.16s-.1-1.37-.3-3.75c-.1-1.22-.15-2.69-.15-4.36s-.05-3.6.1-5.68c.05-1.06.1-2.13.2-3.24s.25-2.28.35-3.45c.2-2.38.71-4.87,1.17-7.5.56-2.59,1.12-5.22,1.93-7.91.71-2.69,1.67-5.32,2.64-8.01,1.06-2.64,2.13-5.27,3.35-7.76.61-1.27,1.22-2.53,1.88-3.7.66-1.22,1.27-2.43,1.98-3.55,1.37-2.28,2.69-4.51,4.11-6.49,1.37-2.03,2.79-3.85,4.06-5.58s2.59-3.14,3.7-4.51c1.12-1.32,2.18-2.38,3.04-3.35,1.67-1.83,2.74-2.79,2.74-2.79,0,0,1.01-1.01,2.84-2.74.96-.81,2.08-1.83,3.4-2.99s2.89-2.33,4.56-3.65c1.72-1.32,3.6-2.64,5.63-4.06,2.08-1.32,4.26-2.79,6.59-4.06,2.33-1.37,4.82-2.64,7.3-3.9,1.27-.66,2.59-1.17,3.85-1.77,1.32-.61,2.64-1.17,3.95-1.67,2.64-1.06,5.37-1.98,8.06-2.84,2.69-.81,5.37-1.57,8.01-2.18,2.64-.56,5.17-1.17,7.6-1.47,2.43-.46,4.72-.66,6.84-.91s4.11-.3,5.83-.41,3.24-.15,4.51-.1h7.81c1.27,0,2.79,0,4.51.1s3.7.15,5.83.41c2.13.2,4.46.46,6.84.91,2.43.35,4.97.91,7.6,1.47,2.64.61,5.27,1.37,8.01,2.18,2.69.86,5.42,1.77,8.06,2.84,1.32.51,2.69,1.06,3.95,1.67,1.32.61,2.64,1.12,3.85,1.77,2.53,1.27,5.02,2.48,7.3,3.9,2.33,1.32,4.51,2.74,6.59,4.06,2.03,1.42,3.9,2.74,5.63,4.06,1.67,1.32,3.24,2.48,4.56,3.65s2.43,2.13,3.4,2.99c1.83,1.72,2.84,2.74,2.84,2.74,0,0,1.06.96,2.74,2.79.86.91,1.93,1.98,3.04,3.35,1.12,1.32,2.43,2.79,3.7,4.51,1.32,1.67,2.74,3.5,4.06,5.58,1.42,1.98,2.74,4.21,4.11,6.49.71,1.17,1.32,2.38,1.98,3.55.66,1.22,1.27,2.43,1.88,3.7,1.27,2.48,2.28,5.12,3.35,7.76.96,2.69,1.93,5.32,2.64,8.01.81,2.64,1.37,5.32,1.93,7.91.46,2.59.96,5.07,1.17,7.5.1,1.22.25,2.33.35,3.45s.1,2.23.2,3.24c.15,2.08.1,4.01.1,5.68s0,3.14-.15,4.36c-.2,2.38-.3,3.75-.3,3.75h4.16s.2-1.42.51-3.9c.2-1.27.3-2.79.41-4.56.1-1.77.2-3.75.15-5.98,0-1.12,0-2.23-.05-3.45h.1Z"/>
            <path class="cls-7" d="m350.66,283.73c-.25-1.37-.56-2.94-1.01-4.61-.35-1.67-.86-3.45-1.47-5.32-.51-1.88-1.27-3.8-1.98-5.83-.81-1.98-1.57-4.01-2.53-5.98-.86-2.03-1.98-4.01-2.99-5.98-1.12-1.93-2.23-3.85-3.45-5.73-1.12-1.88-2.48-3.6-3.65-5.27-2.53-3.3-5.02-6.24-7.35-8.62-1.12-1.22-2.28-2.23-3.19-3.19-.91-.96-1.88-1.67-2.59-2.33-1.42-1.32-2.28-1.98-2.28-1.98,0,0-.86-.71-2.33-1.93-.76-.56-1.72-1.27-2.79-2.08s-2.33-1.62-3.7-2.54-2.89-1.83-4.51-2.79c-1.67-.91-3.35-1.93-5.22-2.84-1.83-.96-3.75-1.83-5.73-2.69-1.98-.81-4.01-1.72-6.08-2.38-1.01-.35-2.08-.76-3.09-1.06-1.01-.3-2.08-.66-3.09-.96-2.08-.61-4.11-1.17-6.13-1.57-1.98-.46-3.95-.86-5.78-1.17-1.83-.35-3.6-.56-5.27-.81-1.62-.25-3.14-.35-4.46-.46-1.32-.15-2.48-.2-3.45-.25-1.93-.1-3.04-.2-3.04-.2,0,0-1.12.05-3.04.2-.96,0-2.13.1-3.45.25-1.32.15-2.84.2-4.46.46-1.62.2-3.4.41-5.27.81-1.88.3-3.8.71-5.78,1.17s-4.06,1.01-6.13,1.57c-1.01.3-2.08.61-3.09.96s-2.08.71-3.09,1.06c-2.08.66-4.06,1.57-6.08,2.38-1.98.86-3.9,1.72-5.73,2.69-1.88.86-3.55,1.93-5.22,2.84-1.62.96-3.14,1.88-4.51,2.79-1.32.96-2.64,1.72-3.7,2.54s-2.03,1.47-2.79,2.08c-1.47,1.22-2.33,1.93-2.33,1.93,0,0-.86.66-2.28,1.98-.71.66-1.62,1.37-2.59,2.33-.91.96-2.08,1.98-3.19,3.19-2.28,2.38-4.82,5.32-7.35,8.62-1.17,1.67-2.54,3.4-3.65,5.27-1.22,1.83-2.33,3.75-3.45,5.73-1.01,1.98-2.13,3.95-2.99,5.98-.96,1.98-1.72,4.06-2.53,5.98-.71,1.98-1.42,3.9-1.98,5.83-.56,1.88-1.06,3.65-1.47,5.32-.46,1.67-.76,3.24-1.01,4.61-.3,1.37-.51,2.59-.61,3.6-.3,2.03-.51,3.19-.51,3.19h4.16s.25-1.12.71-3.04c.2-.96.51-2.13.86-3.4.3-1.32.71-2.74,1.27-4.31.46-1.57,1.06-3.24,1.67-4.97s1.42-3.55,2.18-5.37c.86-1.83,1.67-3.7,2.69-5.53.91-1.88,2.03-3.65,3.09-5.42,1.12-1.77,2.23-3.5,3.45-5.17,1.12-1.67,2.43-3.19,3.6-4.77,1.27-1.47,2.43-2.89,3.65-4.16,1.17-1.32,2.38-2.48,3.45-3.55,1.06-1.12,2.18-1.98,3.04-2.84.91-.86,1.77-1.52,2.43-2.08,1.32-1.17,2.18-1.72,2.18-1.72,0,0,.81-.61,2.18-1.72.71-.51,1.62-1.12,2.64-1.83s2.23-1.42,3.45-2.28c1.27-.81,2.74-1.62,4.21-2.48,1.52-.81,3.09-1.72,4.82-2.48,1.67-.86,3.45-1.62,5.27-2.38,1.88-.71,3.7-1.52,5.58-2.13l2.84-.96c.96-.3,1.93-.56,2.84-.86,1.88-.51,3.8-1.01,5.63-1.42,1.83-.41,3.6-.81,5.32-1.06,1.67-.35,3.35-.56,4.82-.76,1.47-.25,2.89-.35,4.11-.51s2.28-.25,3.19-.3c1.77-.15,2.79-.25,2.79-.25,0,0,1.01.1,2.79.25.86.05,1.98.15,3.19.3,1.22.15,2.64.25,4.11.51,1.52.2,3.14.41,4.82.76,1.72.25,3.5.66,5.32,1.06,1.83.41,3.7.91,5.63,1.42.96.3,1.93.56,2.84.86l2.84.96c1.93.61,3.75,1.42,5.58,2.13,1.83.76,3.6,1.57,5.27,2.38,1.72.76,3.3,1.67,4.82,2.48,1.52.86,2.94,1.67,4.21,2.48,1.27.86,2.48,1.52,3.45,2.28,1.01.71,1.88,1.32,2.64,1.83,1.42,1.06,2.18,1.72,2.18,1.72,0,0,.86.61,2.18,1.72.66.61,1.57,1.22,2.43,2.08s1.98,1.72,3.04,2.84c1.06,1.06,2.28,2.23,3.45,3.55,1.27,1.27,2.38,2.69,3.65,4.16,1.17,1.52,2.48,3.04,3.6,4.77,1.22,1.67,2.33,3.4,3.45,5.17,1.01,1.83,2.18,3.6,3.09,5.42,1.01,1.83,1.83,3.7,2.69,5.53.76,1.83,1.57,3.6,2.18,5.37.66,1.72,1.27,3.4,1.67,4.97.51,1.57.91,3.04,1.27,4.31.35,1.32.66,2.43.86,3.4.46,1.93.71,3.04.71,3.04h4.16s-.2-1.17-.51-3.19c-.1-1.01-.35-2.23-.61-3.6h.41Z"/>
          </g>
          <g>
            <path class="cls-5" d="m335.1,210.46s-1.77-.1-4.41-.1c-2.69.05-6.13.2-9.63.66-1.72.2-3.45.51-5.02.76-1.62.3-3.09.66-4.31.91-2.48.56-4.11,1.12-4.11,1.12,0,0-.35-1.77-.91-4.41-.66-2.59-1.57-6.24-2.79-9.84-.61-1.77-1.22-3.65-1.88-5.32-.66-1.67-1.32-3.24-1.93-4.66-.61-1.37-1.12-2.53-1.47-3.3-.35-.81-.61-1.22-.61-1.22,0,0-1.88.76-4.56,1.93-2.74,1.32-6.13,2.94-9.48,4.97-3.3,1.93-6.44,4.06-8.67,5.73-1.12.81-2.03,1.52-2.69,2.03-.61.51-.96.81-.96.81,0,0-.86-1.47-2.33-3.7-1.47-2.13-3.5-5.07-5.78-7.81-2.28-2.74-4.72-5.48-6.64-7.35-1.93-1.93-3.3-3.19-3.3-3.19v5.32s1.32,1.27,3.14,3.19c1.83,1.88,4.21,4.66,6.34,7.4,2.13,2.79,4.11,5.68,5.42,7.81,1.37,2.23,2.18,3.65,2.18,3.65,0,0,.35-.3.96-.81s1.47-1.22,2.54-2.03c2.13-1.67,5.12-3.85,8.31-5.78,3.19-2.08,6.49-3.75,9.13-5.12,2.59-1.22,4.41-1.98,4.41-1.98,0,0,.2.46.56,1.22s.86,1.88,1.37,3.24c.56,1.37,1.17,2.89,1.77,4.56s1.17,3.5,1.72,5.22c1.12,3.5,1.93,7.05,2.48,9.58.51,2.59.81,4.31.81,4.31,0,0,1.57-.56,4.01-1.22,1.22-.3,2.64-.71,4.21-1.06,1.52-.3,3.19-.61,4.92-.91,3.4-.56,6.79-.81,9.43-.91,2.59-.1,4.36,0,4.36,0l3.35-3.65.05-.05Z"/>
            <path class="cls-5" d="m364.55,287.27c-.91-1.93-2.54-4.36-4.26-6.69-1.83-2.33-3.7-4.46-5.37-5.98-1.62-1.52-2.74-2.43-2.74-2.43,0,0,.15-.35.41-.96s.61-1.47,1.01-2.53c.91-2.18,1.98-5.12,3.09-8.26,1.01-3.14,2.13-6.49,2.79-9.08.35-1.32.66-2.38.86-3.19.2-.76.3-1.22.3-1.22,0,0-1.52-.91-3.8-2.13-2.28-1.22-5.48-2.69-8.72-3.85-1.62-.56-3.3-1.12-4.82-1.57-1.57-.41-3.04-.76-4.31-1.01-2.48-.56-4.21-.76-4.21-.76,0,0,.15-1.57.41-3.95.15-2.33.41-5.68.46-9.08v-5.07c-.1-1.67-.15-3.19-.2-4.51-.15-2.74-.35-4.51-.35-4.51l-3.35,3.65s.2,1.72.25,4.36c0,1.27.1,2.79.15,4.36,0,1.57,0,3.3-.05,4.92-.05,3.24-.35,6.49-.56,8.72-.25,2.28-.46,3.8-.46,3.8,0,0,1.72.15,4.21.61,1.27.2,2.69.51,4.26.86,1.52.41,3.14.86,4.82,1.37,3.24,1.06,6.44,2.33,8.72,3.5,2.28,1.12,3.8,1.98,3.8,1.98,0,0-.1.41-.3,1.17-.2.76-.51,1.77-.86,3.04-.66,2.48-1.72,5.73-2.69,8.72-1.12,3.04-2.13,5.88-2.99,7.96-.41,1.01-.71,1.88-.96,2.43s-.41.91-.41.91c0,0,1.17.86,2.79,2.33,1.67,1.42,3.65,3.5,5.58,5.73,1.77,2.23,3.5,4.61,4.51,6.44,1.06,1.83,1.67,3.14,1.67,3.14h2.84s-.56-1.32-1.57-3.24l.05.05Z"/>
            <path class="cls-5" d="m243.63,188.97c-2.28,2.79-4.31,5.68-5.78,7.81-1.42,2.23-2.33,3.7-2.33,3.7,0,0-.35-.3-.96-.81-.66-.51-1.57-1.22-2.69-2.03-2.23-1.62-5.37-3.8-8.67-5.73-3.3-2.03-6.74-3.65-9.48-4.97-2.69-1.17-4.56-1.93-4.56-1.93,0,0-.2.46-.61,1.22-.41.76-.91,1.93-1.47,3.3-.61,1.37-1.27,2.94-1.93,4.66-.66,1.72-1.27,3.55-1.88,5.32-1.22,3.6-2.13,7.2-2.79,9.84-.56,2.64-.91,4.41-.91,4.41,0,0-1.62-.51-4.11-1.12-1.27-.3-2.74-.61-4.31-.91-1.57-.25-3.3-.51-5.02-.76-3.5-.46-6.95-.61-9.63-.66-2.64,0-4.41.1-4.41.1l3.35,3.65h4.36c2.64.15,6.03.35,9.43.91,1.67.25,3.35.56,4.92.91s2.99.71,4.21,1.06c2.43.66,4.01,1.22,4.01,1.22,0,0,.3-1.72.81-4.31.56-2.53,1.42-6.08,2.48-9.58.56-1.77,1.12-3.55,1.72-5.22.61-1.67,1.22-3.19,1.77-4.56.56-1.37,1.01-2.48,1.37-3.24.35-.76.56-1.22.56-1.22,0,0,1.83.76,4.41,1.98,2.64,1.37,5.93,3.04,9.13,5.12,3.19,1.98,6.19,4.16,8.31,5.78,1.06.81,1.93,1.52,2.54,2.03.61.51.96.81.96.81,0,0,.81-1.47,2.18-3.65,1.37-2.13,3.3-5.02,5.42-7.81,2.13-2.74,4.46-5.53,6.34-7.4,1.83-1.93,3.14-3.19,3.14-3.19v-5.32s-1.37,1.27-3.3,3.19c-1.93,1.88-4.41,4.61-6.64,7.35l.05.05Z"/>
            <path class="cls-5" d="m175.09,227.8c0-1.62-.05-3.35-.05-4.92s.1-3.09.15-4.36c.1-2.64.25-4.36.25-4.36l-3.35-3.65s-.2,1.77-.35,4.51c-.05,1.32-.15,2.84-.2,4.51v5.07c0,3.4.25,6.69.46,9.08.25,2.38.41,3.95.41,3.95,0,0-1.72.2-4.21.76-1.27.25-2.74.61-4.31,1.01-1.52.46-3.19.96-4.82,1.57-3.24,1.17-6.44,2.59-8.72,3.85-2.28,1.22-3.8,2.13-3.8,2.13,0,0,.1.46.3,1.22.2.76.51,1.88.86,3.19.66,2.59,1.77,5.93,2.79,9.08,1.17,3.19,2.18,6.13,3.09,8.26.41,1.06.76,1.93,1.01,2.53.25.61.41.96.41.96,0,0-1.12.91-2.74,2.43-1.62,1.52-3.55,3.65-5.37,5.98-1.72,2.33-3.35,4.77-4.26,6.69-1.01,1.93-1.57,3.24-1.57,3.24h2.84s.61-1.27,1.67-3.14c1.01-1.88,2.74-4.21,4.51-6.44,1.93-2.23,3.85-4.31,5.58-5.73,1.67-1.42,2.79-2.33,2.79-2.33,0,0-.15-.35-.41-.91-.25-.61-.56-1.42-.96-2.43-.86-2.08-1.88-4.92-2.99-7.96-.96-2.99-2.08-6.24-2.69-8.72-.35-1.27-.66-2.33-.86-3.04-.2-.76-.3-1.17-.3-1.17,0,0,1.52-.86,3.8-1.98,2.28-1.17,5.48-2.43,8.72-3.5,1.62-.51,3.3-.96,4.82-1.37,1.57-.35,3.04-.66,4.26-.86,2.48-.46,4.21-.61,4.21-.61,0,0-.2-1.52-.46-3.8-.2-2.28-.51-5.48-.56-8.72l.05-.05Z"/>
          </g>
          <path class="cls-4" d="m164.95,247.07s-2.48.76-4.87,1.72c-2.38.96-4.72,2.13-4.72,2.13,0,0,.15.61.46,1.57.25.91.61,2.13.96,3.35.35,1.17.71,2.38,1.01,3.24.3.86.51,1.42.51,1.42,0,0,.35-.86.86-2.18.61-1.27,1.37-2.99,2.18-4.66.91-1.67,1.72-3.35,2.43-4.56.71-1.22,1.17-2.03,1.17-2.03Z"/>
          <path class="cls-5" d="m143.4,277.44s.35-.46.91-1.22c.56-.71,1.32-1.62,2.18-2.53,1.67-1.77,3.45-3.45,3.45-3.45,0,0-.96-2.28-1.88-4.61-.51-1.22-.91-2.38-1.27-3.3s-.56-1.57-.56-1.57c0,0-.25,1.01-.66,2.59-.35,1.52-.76,3.65-1.17,5.68-.3,2.08-.61,4.16-.81,5.73-.15,1.57-.2,2.64-.2,2.64v.05Z"/>
          <path class="cls-5" d="m155.97,237.08s.66-.2,1.57-.56c.96-.35,2.23-.76,3.55-1.12s2.64-.71,3.6-.91c.96-.25,1.67-.35,1.67-.35,0,0-.25-2.74-.51-5.48-.15-2.74-.25-5.63-.25-5.63,0,0-.66.86-1.67,2.08s-2.23,2.99-3.45,4.72c-1.22,1.77-2.33,3.6-3.19,4.92-.81,1.37-1.32,2.33-1.32,2.33Z"/>
          <g>
            <path class="cls-3" d="m322.52,218.42c-2.79.3-5.48.71-5.48.71,0,0,1.47,1.17,2.94,2.28,1.42,1.17,2.84,2.43,2.84,2.43l5.27-5.78s-2.79.05-5.58.35Z"/>
            <path class="cls-3" d="m257.47,193.83c-1.88-2.18-3.85-4.31-3.85-4.31v8.37s1.88.1,3.75.15c.91,0,1.88.05,2.53.15.71.05,1.17.1,1.17.1,0,0-.46-.56-1.06-1.42-.66-.86-1.57-1.98-2.48-3.04h-.05Z"/>
            <path class="cls-3" d="m357.71,286.57c-.61-.96-1.37-1.88-1.93-2.53s-.91-1.12-.91-1.12c0,0,.05.46.15,1.17s.25,1.67.3,2.59c.15,1.93.35,3.8.35,3.8h4.51s-1.17-2.03-2.43-3.9h-.05Z"/>
            <path class="cls-3" d="m328.2,219.84c-.05-1.06-.1-1.72-.1-1.72l-5.27,5.78s.35.3.86.76,1.17,1.12,1.88,1.72c.66.66,1.37,1.27,1.88,1.77.51.51.81.86.81.86,0,0,0-.66.05-1.67v-3.7c0-1.37,0-2.74-.1-3.8h0Z"/>
            <path class="cls-3" d="m179.09,218.12l5.27,5.78s1.42-1.22,2.84-2.43c1.47-1.17,2.94-2.28,2.94-2.28,0,0-2.69-.46-5.48-.71-2.74-.25-5.58-.35-5.58-.35Z"/>
            <path class="cls-3" d="m247.23,196.88c-.66.86-1.06,1.42-1.06,1.42,0,0,.46,0,1.17-.1.71-.05,1.62-.15,2.54-.15,1.88-.1,3.75-.15,3.75-.15v-8.37s-2.03,2.13-3.85,4.31c-.91,1.06-1.83,2.18-2.48,3.04h-.05Z"/>
            <path class="cls-3" d="m149.48,286.57c-1.32,1.88-2.43,3.9-2.43,3.9h4.51s.15-1.93.35-3.8c.05-.96.2-1.88.3-2.59.1-.71.15-1.17.15-1.17,0,0-.35.46-.91,1.12s-1.27,1.62-1.93,2.53h-.05Z"/>
            <path class="cls-3" d="m178.99,219.84c0,1.06-.05,2.43-.1,3.8v3.7c0,1.01.05,1.67.05,1.67,0,0,.3-.35.81-.86s1.17-1.12,1.88-1.77c.66-.66,1.37-1.27,1.88-1.72s.86-.76.86-.76l-5.27-5.78s0,.71-.1,1.72Z"/>
          </g>
        </g>
        <g>
          <g>
            <path class="cls-1" d="m149.94,310.29c0,1.47-1.22,2.69-2.69,2.69h0c-1.47,0-2.69-1.22-2.69-2.69v-17.09c0-1.47,1.22-2.69,2.69-2.69h0c1.47,0,2.69,1.22,2.69,2.69v17.09Z"/>
            <g>
              <path class="cls-4" d="m147.25,510s19.77-22.71,20.23-69.92c.46-47.15-20.23-108.9-20.23-108.9,0,0-20.69,61.75-20.23,108.9.46,47.2,20.23,69.92,20.23,69.92Z"/>
              <path class="cls-3" d="m127.73,453.57c9.18-14.2,16.98-24.49,19.52-27.78,2.54,3.3,10.34,13.59,19.52,27.78.1-1.22.2-2.43.3-3.65-10.49-16.02-18.86-26.52-18.96-26.67l-.86-1.12-.86,1.12s-8.47,10.65-18.96,26.67c.1,1.22.2,2.43.3,3.65Z"/>
              <path class="cls-11" d="m147.25,317.34s-4.21,13.13-4.31,40.36c-.1,27.23,4.31,62.87,4.31,62.87,0,0,4.41-35.64,4.31-62.87s-4.31-40.36-4.31-40.36Z"/>
              <path class="cls-7" d="m166.11,459.65c-10.09-16.22-18.81-27.18-18.81-27.18,0,0-8.77,11-18.86,27.18,4.56,33.87,18.86,50.35,18.86,50.35,0,0,14.25-16.43,18.81-50.35Z"/>
              <path class="cls-10" d="m127.02,440.08c.46,47.2,20.23,69.92,20.23,69.92v-178.82s-20.69,61.75-20.23,108.9Z"/>
            </g>
            <path class="cls-7" d="m155.31,331.49c0,2.79-2.28,5.07-5.07,5.07h-5.98c-2.79,0-5.07-2.28-5.07-5.07h0c0-2.79,2.28-5.07,5.07-5.07h5.98c2.79,0,5.07,2.28,5.07,5.07h0Z"/>
            <path class="cls-1" d="m161.04,321.35c0,2.79-2.28,5.07-5.07,5.07h-17.44c-2.79,0-5.07-2.28-5.07-5.07h0c0-2.79,2.28-5.07,5.07-5.07h17.44c2.79,0,5.07,2.28,5.07,5.07h0Z"/>
            <path class="cls-7" d="m155.31,311.15c0,2.79-2.28,5.07-5.07,5.07h-5.98c-2.79,0-5.07-2.28-5.07-5.07h0c0-2.79,2.28-5.07,5.07-5.07h5.98c2.79,0,5.07,2.28,5.07,5.07h0Z"/>
          </g>
          <g>
            <path class="cls-1" d="m136.05,306.69c-.46,1.17-1.77,1.72-2.89,1.27h0c-1.17-.46-1.72-1.77-1.27-2.89l5.22-13.18c.46-1.17,1.77-1.72,2.89-1.27h0c1.17.46,1.67,1.72,1.27,2.89l-5.22,13.18Z"/>
            <g>
              <path class="cls-5" d="m72.77,459.71s22.21-11.46,37.01-47.66c14.8-36.2,17.85-90.09,17.85-90.09,0,0-34.83,41.22-48.98,77.67-14.09,36.45-5.88,60.03-5.88,60.03v.05Z"/>
              <path class="cls-8" d="m75,410.27c11.41-8.11,20.58-13.69,23.58-15.41.96,3.3,3.8,13.64,6.49,27.38.46-.86.91-1.77,1.32-2.74-3.14-15.56-6.39-26.21-6.44-26.31l-.35-1.12-1.01.56s-9.79,5.58-22.76,14.7c-.3.96-.61,1.93-.91,2.89l.1.05Z"/>
              <path class="cls-11" d="m131.84,311.31s-7.25,8.82-15.67,29.76-15.97,49.74-15.97,49.74c0,0,14.3-26.11,22.61-47.1,8.26-20.99,9.08-32.4,9.08-32.4h-.05Z"/>
              <path class="cls-1" d="m102.69,426.7c-2.79-15.56-6.19-26.72-6.19-26.72,0,0-10.14,5.78-22.87,15.16-6.9,27.48-.91,44.51-.91,44.51,0,0,16.02-8.26,29.91-32.96h.05Z"/>
              <path class="cls-10" d="m78.6,399.63c-14.09,36.45-5.88,60.03-5.88,60.03l54.81-137.7s-34.83,41.22-48.98,77.67h.05Z"/>
            </g>
            <path class="cls-7" d="m133.71,324.69c-.86,2.18-3.3,3.19-5.48,2.33l-4.61-1.83c-2.18-.86-3.19-3.3-2.33-5.48h0c.86-2.18,3.3-3.19,5.48-2.33l4.61,1.83c2.18.86,3.19,3.3,2.33,5.48h0Z"/>
            <path class="cls-1" d="m141.22,318.61c-.86,2.18-3.3,3.19-5.48,2.33l-13.44-5.32c-2.18-.86-3.19-3.3-2.33-5.48h0c.86-2.18,3.3-3.19,5.48-2.33l13.44,5.32c2.18.86,3.19,3.3,2.33,5.48h0Z"/>
            <path class="cls-7" d="m139.95,309.03c-.86,2.18-3.3,3.19-5.48,2.33l-4.61-1.83c-2.18-.86-3.19-3.3-2.33-5.48h0c.86-2.18,3.3-3.19,5.48-2.33l4.61,1.83c2.18.86,3.19,3.3,2.33,5.48h0Z"/>
          </g>
          <path class="cls-1" d="m163.12,291.08c0,1.57-1.27,2.84-2.84,2.84h-26.06c-1.57,0-2.84-1.27-2.84-2.84h0c0-1.57,1.27-2.84,2.84-2.84h26.06c1.57,0,2.84,1.27,2.84,2.84h0Z"/>
          <g>
            <path class="cls-1" d="m357.25,310.29c0,1.47,1.22,2.69,2.69,2.69h0c1.47,0,2.69-1.22,2.69-2.69v-17.09c0-1.47-1.22-2.69-2.69-2.69h0c-1.47,0-2.69,1.22-2.69,2.69v17.09Z"/>
            <g>
              <path class="cls-4" d="m359.94,510s-19.77-22.71-20.23-69.92c-.46-47.15,20.23-108.9,20.23-108.9,0,0,20.69,61.75,20.23,108.9-.46,47.2-20.23,69.92-20.23,69.92Z"/>
              <path class="cls-3" d="m379.46,453.57c-9.18-14.2-16.98-24.49-19.52-27.78-2.53,3.3-10.34,13.59-19.52,27.78-.1-1.22-.2-2.43-.3-3.65,10.49-16.02,18.86-26.52,18.96-26.67l.86-1.12.86,1.12s8.47,10.65,18.96,26.67c-.1,1.22-.2,2.43-.3,3.65Z"/>
              <path class="cls-11" d="m359.94,317.34s4.21,13.13,4.31,40.36c.1,27.23-4.31,62.87-4.31,62.87,0,0-4.41-35.64-4.31-62.87.1-27.23,4.31-40.36,4.31-40.36Z"/>
              <path class="cls-7" d="m341.08,459.65c10.09-16.22,18.81-27.18,18.81-27.18,0,0,8.77,11,18.86,27.18-4.56,33.87-18.86,50.35-18.86,50.35,0,0-14.25-16.43-18.81-50.35Z"/>
              <path class="cls-10" d="m380.17,440.08c-.46,47.2-20.23,69.92-20.23,69.92v-178.82s20.69,61.75,20.23,108.9Z"/>
            </g>
            <path class="cls-7" d="m351.88,331.49c0,2.79,2.28,5.07,5.07,5.07h5.98c2.79,0,5.07-2.28,5.07-5.07h0c0-2.79-2.28-5.07-5.07-5.07h-5.98c-2.79,0-5.07,2.28-5.07,5.07h0Z"/>
            <path class="cls-1" d="m346.15,321.35c0,2.79,2.28,5.07,5.07,5.07h17.44c2.79,0,5.07-2.28,5.07-5.07h0c0-2.79-2.28-5.07-5.07-5.07h-17.44c-2.79,0-5.07,2.28-5.07,5.07h0Z"/>
            <path class="cls-7" d="m351.88,311.15c0,2.79,2.28,5.07,5.07,5.07h5.98c2.79,0,5.07-2.28,5.07-5.07h0c0-2.79-2.28-5.07-5.07-5.07h-5.98c-2.79,0-5.07,2.28-5.07,5.07h0Z"/>
          </g>
          <g>
            <path class="cls-1" d="m371.09,306.69c.46,1.17,1.77,1.72,2.89,1.27h0c1.17-.46,1.72-1.77,1.27-2.89l-5.22-13.18c-.46-1.17-1.77-1.72-2.89-1.27h0c-1.17.46-1.67,1.72-1.27,2.89l5.22,13.18Z"/>
            <g>
              <path class="cls-5" d="m434.42,459.71s-22.21-11.46-37.01-47.66c-14.8-36.2-17.85-90.09-17.85-90.09,0,0,34.83,41.22,48.98,77.67,14.09,36.45,5.88,60.03,5.88,60.03v.05Z"/>
              <path class="cls-8" d="m432.14,410.27c-11.41-8.11-20.58-13.69-23.58-15.41-.96,3.3-3.8,13.64-6.49,27.38-.46-.86-.91-1.77-1.32-2.74,3.14-15.56,6.39-26.21,6.44-26.31l.35-1.12,1.01.56s9.79,5.58,22.76,14.7c.3.96.61,1.93.91,2.89l-.1.05Z"/>
              <path class="cls-11" d="m375.35,311.31s7.25,8.82,15.67,29.76c8.42,20.94,15.97,49.74,15.97,49.74,0,0-14.3-26.11-22.61-47.1-8.26-20.99-9.08-32.4-9.08-32.4h.05Z"/>
              <path class="cls-1" d="m404.5,426.7c2.79-15.56,6.19-26.72,6.19-26.72,0,0,10.14,5.78,22.87,15.16,6.9,27.48.91,44.51.91,44.51,0,0-16.02-8.26-29.91-32.96h-.05Z"/>
              <path class="cls-10" d="m428.54,399.63c14.09,36.45,5.88,60.03,5.88,60.03l-54.81-137.7s34.83,41.22,48.98,77.67h-.05Z"/>
            </g>
            <path class="cls-7" d="m373.48,324.69c.86,2.18,3.3,3.19,5.48,2.33l4.61-1.83c2.18-.86,3.19-3.3,2.33-5.48h0c-.86-2.18-3.3-3.19-5.48-2.33l-4.61,1.83c-2.18.86-3.19,3.3-2.33,5.48h0Z"/>
            <path class="cls-1" d="m365.97,318.61c.86,2.18,3.3,3.19,5.48,2.33l13.44-5.32c2.18-.86,3.19-3.3,2.33-5.48h0c-.86-2.18-3.3-3.19-5.48-2.33l-13.44,5.32c-2.18.86-3.19,3.3-2.33,5.48h0Z"/>
            <path class="cls-7" d="m367.24,309.03c.86,2.18,3.3,3.19,5.48,2.33l4.61-1.83c2.18-.86,3.19-3.3,2.33-5.48h0c-.86-2.18-3.3-3.19-5.48-2.33l-4.61,1.83c-2.18.86-3.19,3.3-2.33,5.48h0Z"/>
          </g>
          <path class="cls-1" d="m344.07,291.08c0,1.57,1.27,2.84,2.84,2.84h26.06c1.57,0,2.84-1.27,2.84-2.84h0c0-1.57-1.27-2.84-2.84-2.84h-26.06c-1.57,0-2.84,1.27-2.84,2.84h0Z"/>
        </g>
      </g>
    </g>
  </g>
</svg>