<?xml version="1.0" encoding="UTF-8"?>
<svg xmlns="http://www.w3.org/2000/svg" viewBox="0 0 500 575">
  <defs>
    <style>
      .cls-1 {
        fill: #c96e62;
      }

      .cls-1, .cls-2, .cls-3, .cls-4, .cls-5, .cls-6, .cls-7, .cls-8, .cls-9, .cls-10 {
        stroke-width: 0px;
      }

      .cls-2 {
        fill: #262626;
      }

      .cls-3 {
        fill: #e58572;
      }

      .cls-4 {
        fill: #9e5f5a;
      }

      .cls-5 {
        fill: #241816;
      }

      .cls-6 {
        fill: #fff;
      }

      .cls-7 {
        fill: #5da0ff;
      }

      .cls-8 {
        fill: #f4d075;
      }

      .cls-9 {
        fill: #e7d8b4;
      }

      .cls-10 {
        fill: #cf9e76;
      }

      .cls-11 {
        fill: #fcd770;
        stroke: #000;
        stroke-miterlimit: 10;
      }
    </style>
  </defs>
  <g id="Capa_1" data-name="Capa 1">
    <g>
      <path class="cls-9" d="m250,573c-66.51,0-129.04-25.9-176.07-72.93C26.9,453.04,1,390.51,1,324s25.9-129.04,72.93-176.07c47.03-47.03,109.56-72.93,176.07-72.93s129.04,25.9,176.07,72.93c47.03,47.03,72.93,109.56,72.93,176.07s-25.9,129.04-72.93,176.07c-47.03,47.03-109.56,72.93-176.07,72.93Z"/>
      <path class="cls-5" d="m250,76c33.48,0,65.96,6.56,96.53,19.49,29.53,12.49,56.05,30.37,78.83,53.15,22.78,22.78,40.66,49.3,53.15,78.83,12.93,30.57,19.49,63.05,19.49,96.53s-6.56,65.96-19.49,96.53c-12.49,29.53-30.37,56.05-53.15,78.83-22.78,22.78-49.3,40.66-78.83,53.15-30.57,12.93-63.05,19.49-96.53,19.49s-65.96-6.56-96.53-19.49c-29.53-12.49-56.05-30.37-78.83-53.15-22.78-22.78-40.66-49.3-53.15-78.83-12.93-30.57-19.49-63.05-19.49-96.53s6.56-65.96,19.49-96.53c12.49-29.53,30.37-56.05,53.15-78.83s49.3-40.66,78.83-53.15c30.57-12.93,63.05-19.49,96.53-19.49m0-2C111.93,74,0,185.93,0,324s111.93,250,250,250,250-111.93,250-250-111.93-250-250-250h0Z"/>
    </g>
  </g>
  <g id="Capa_2" data-name="Capa 2">
    <g>
      <path class="cls-8" d="m86.73,183.01c-2,0-3.62-1.63-3.61-3.63,0-.67.19-1.33.54-1.9l7.5-12.13-14.71,8.49c-1.73,1-3.95.41-4.95-1.32-.78-1.35-.61-3.04.42-4.21l4.4-4.97-8.97,5.17c-1.41.81-3.19.58-4.34-.56-1.15-1.15-1.39-2.93-.59-4.34l7.51-13.18-18.53,10.7c-1.73,1-3.95.4-4.94-1.33-.71-1.23-.63-2.77.2-3.93l7.24-9.98-9.7,5.6c-1.73.99-3.95.39-4.94-1.34-.74-1.29-.62-2.89.31-4.05l3.62-4.5c-1.92-.54-3.05-2.54-2.5-4.47.26-.91.85-1.68,1.67-2.15l11.98-6.92c1.73-.99,3.95-.39,4.94,1.34.74,1.29.62,2.89-.31,4.05l-1.73,2.17,7.73-4.47c1.73-1.01,3.94-.42,4.95,1.31.72,1.24.64,2.79-.2,3.95l-7.24,9.98,15.44-8.93c1.41-.81,3.19-.57,4.34.57,1.15,1.15,1.39,2.93.59,4.34l-7.5,13.18,16.59-9.59c1.73-1,3.95-.41,4.95,1.32.78,1.35.61,3.04-.42,4.21l-4.39,4.97,8.01-4.62c1.72-1.01,3.94-.44,4.96,1.28.69,1.17.66,2.64-.07,3.78l-8.09,12.95h0c2,0,3.62,1.62,3.62,3.62,0,1.29-.69,2.49-1.81,3.13l-10.21,5.89c-.53.31-1.13.48-1.74.49Z"/>
      <path class="cls-8" d="m413.79,183.32c-2,0-3.62-1.62-3.62-3.62,0-1.02.43-2,1.19-2.68l20.42-18.44-26.43,15.26c-1.73,1.01-3.94.43-4.95-1.3-.83-1.42-.6-3.23.57-4.39l19.09-19.09-18.63,10.72c-1.69,1.07-3.92.57-5-1.11-1.07-1.69-.57-3.92,1.11-5,.09-.05.17-.11.26-.15l42.33-24.44c1.75-.96,3.95-.32,4.92,1.43.76,1.39.53,3.12-.57,4.26l-19.06,19.13,32.38-18.69c1.76-.95,3.95-.3,4.91,1.45.78,1.43.5,3.21-.67,4.34l-20.42,18.47,15.52-8.96c1.69-1.07,3.92-.57,5,1.11s.57,3.92-1.11,5c-.09.05-.17.11-.26.15l-45.16,26.06c-.55.32-1.17.49-1.81.49Z"/>
      <path class="cls-1" d="m94.22,223.17c-2,0-3.62-1.63-3.61-3.63,0-.93.37-1.83,1.01-2.51l9.67-9.99-11.04,6.37c-1.72,1.01-3.94.44-4.95-1.29-.89-1.52-.56-3.46.78-4.6l22.44-19.22-21.17,12.22c-1.74.98-3.95.37-4.93-1.38-.85-1.51-.51-3.41.8-4.53l11.53-9.64-5.71,3.29c-1.76.95-3.95.3-4.91-1.45-.78-1.43-.5-3.21.67-4.34l8.01-7.24c-1.71-1.04-2.25-3.27-1.21-4.97.32-.52.76-.95,1.28-1.25l19.43-11.22c1.76-.95,3.95-.3,4.91,1.45.78,1.43.5,3.21-.67,4.34l-1.28,1.15,12.04-6.95c1.74-.98,3.95-.37,4.93,1.38.85,1.51.51,3.41-.8,4.53l-11.53,9.68,18.9-10.9c1.74-.99,3.95-.38,4.93,1.36.85,1.5.53,3.39-.77,4.52l-22.55,19.3c1.83-.81,3.97.01,4.78,1.84.6,1.35.32,2.94-.72,4l-21.72,22.44c.31,1.53-.39,3.08-1.74,3.86l-4.97,2.9c-.56.32-1.19.49-1.84.48Z"/>
      <path class="cls-1" d="m405.35,221.04c-2,0-3.62-1.62-3.62-3.62,0-.78.25-1.55.72-2.17l1.86-2.49-2.72,1.57c-1.73,1-3.95.41-4.95-1.32-.73-1.27-.63-2.85.25-4.01l6.58-8.69-9.5,5.49c-1.73,1.01-3.94.43-4.95-1.29-.81-1.39-.61-3.15.49-4.32l5.14-5.48-6.99,4.03c-1.73,1-3.95.4-4.94-1.33-.72-1.25-.63-2.8.22-3.96l9.41-12.67-13.71,7.93c-1.73,1-3.95.41-4.95-1.32-.67-1.17-.65-2.61.07-3.75l7.33-11.72-11.52,6.65c-1.74.99-3.95.39-4.94-1.35-.59-1.03-.63-2.28-.13-3.34l1.91-3.99-3.03,1.74c-1.69,1.07-3.92.57-5-1.11-1.07-1.69-.57-3.92,1.11-5,.09-.05.17-.11.26-.15l13.16-7.59c1.73-.99,3.95-.39,4.94,1.34.59,1.03.64,2.29.13,3.36l-1.91,3.99,14-8.07c1.73-1,3.95-.41,4.95,1.32.67,1.17.65,2.61-.07,3.75l-7.33,11.73,16.21-9.38c1.73-1,3.95-.4,4.94,1.34.72,1.25.63,2.8-.23,3.96l-9.4,12.71,13.03-7.5c1.73-1,3.94-.41,4.95,1.32.8,1.38.6,3.12-.49,4.29l-5.13,5.47,3.94-2.27c1.49-.87,3.38-.56,4.53.72,1.14,1.29,1.21,3.22.17,4.59l-6.58,8.69,2.45-1.45c1.73-.99,3.95-.39,4.94,1.34.72,1.25.62,2.8-.23,3.96l-4.63,6.19c1.73,1,2.32,3.22,1.31,4.95-.32.55-.77,1-1.31,1.31l-8.89,5.13c-.56.33-1.2.49-1.85.48Z"/>
      <path class="cls-1" d="m173.3,554.29c-2,0-3.62-1.62-3.62-3.62,0-1.11.51-2.16,1.38-2.84l9.78-7.73-20.83,12.02c-1.73,1.01-3.94.42-4.95-1.31-.93-1.59-.51-3.63.97-4.73l14.55-10.82-16.96,9.84c-1.46.84-3.3.57-4.45-.66-1.15-1.23-1.3-3.1-.36-4.5l9.34-13.89-1.37.8c-1.69,1.07-3.92.57-5-1.11-1.07-1.69-.57-3.92,1.11-5,.09-.05.17-.11.26-.15l14.92-8.62c1.46-.84,3.3-.56,4.45.67,1.15,1.23,1.3,3.09.36,4.49l-9.35,13.86,57.26-33.06c1.73-1.01,3.94-.42,4.95,1.31.93,1.59.51,3.63-.97,4.73l-14.54,10.82,10.56-6.1c1.74-.98,3.95-.36,4.93,1.38.87,1.54.49,3.48-.88,4.59l-9.82,7.74,5.79-3.33c1.73-1,3.95-.4,4.94,1.33.81,1.41.58,3.2-.56,4.36l-9.22,9.33,4.84-2.79c1.77-.93,3.96-.24,4.89,1.53.87,1.67.32,3.72-1.27,4.73l-28.18,16.25c-1.76.95-3.96.29-4.9-1.47-.74-1.37-.51-3.07.56-4.2l9.2-9.32-26.01,14.99c-.55.33-1.17.5-1.81.51Z"/>
      <path class="cls-1" d="m179.62,508.73c-2,0-3.62-1.62-3.63-3.61,0-.9.33-1.77.94-2.44l3.94-4.34c-1.88.69-3.96-.27-4.65-2.15-.21-.57-.27-1.18-.18-1.78l1.66-11.04c-1.7-1.06-2.21-3.29-1.15-4.99.31-.5.75-.92,1.26-1.22l2.41-1.39c1.73-1,3.95-.4,4.94,1.33.41.71.56,1.53.44,2.34l-1.29,8.61,12.8-7.38c1.73-1,3.95-.4,4.94,1.33.78,1.36.6,3.07-.45,4.23l-3.82,4.21,11.06-6.38c1.69-1.07,3.92-.57,5,1.11,1.07,1.69.57,3.92-1.11,5-.09.05-.17.11-.26.15l-31.05,17.92c-.55.32-1.17.49-1.81.49Z"/>
      <path class="cls-1" d="m315.36,554.29c-2,0-3.62-1.62-3.62-3.62,0-1.06.47-2.07,1.28-2.76l2.52-2.17-13.92,8.04c-1.73,1-3.95.41-4.94-1.33-.81-1.4-.59-3.17.54-4.34l16.3-16.65-28.07,16.21c-1.73,1.01-3.94.43-4.95-1.3-.9-1.55-.54-3.52.85-4.64l5.41-4.4-3.95,2.27c-1.74.98-3.95.36-4.93-1.38-.83-1.48-.53-3.34.74-4.47l15.38-13.48-11.19,6.47c-1.75.97-3.95.35-4.92-1.4-.81-1.45-.53-3.25.67-4.39l18.33-16.7-14.08,8.12c-1.74.99-3.95.38-4.94-1.36-.52-.91-.62-2-.27-2.99l4.21-11.58c-1.95.45-3.89-.76-4.34-2.71-.36-1.55.34-3.15,1.72-3.95l7.54-4.34c1.74-.99,3.95-.39,4.94,1.34.52.91.62,2.01.27,3l-4.13,11.34,34.43-19.87c1.75-.96,3.95-.32,4.92,1.43.79,1.44.52,3.23-.67,4.37l-18.32,16.7,14.15-8.17c1.74-.99,3.95-.39,4.94,1.34.85,1.49.54,3.38-.75,4.51l-15.39,13.47,11.27-6.52c1.74-.98,3.95-.36,4.93,1.38.85,1.52.5,3.44-.84,4.55l-5.42,4.4,11.7-6.74c1.74-.99,3.95-.38,4.94,1.35.8,1.4.58,3.15-.54,4.31l-16.3,16.65,25.34-14.61c1.73-1,3.94-.41,4.95,1.32.88,1.52.54,3.44-.79,4.58l-2.51,2.17,2.17-1.25c1.74-.99,3.95-.39,4.94,1.35.79,1.39.58,3.13-.52,4.29l-2.7,2.82c1.62-.48,3.35.19,4.21,1.64,1,1.73.41,3.95-1.32,4.95l-21.28,12.24c-1.73,1-3.95.41-4.95-1.32-.81-1.39-.59-3.15.52-4.32l2.45-2.55-14.19,8.19c-.55.33-1.17.5-1.81.51Z"/>
      <path class="cls-1" d="m428.8,495.95c-2,0-3.62-1.62-3.62-3.62,0-.92.35-1.8.97-2.47l15.82-16.97-24.66,14.23c-1.74.99-3.95.38-4.93-1.36-.86-1.52-.52-3.44.82-4.56l11.46-9.48-11.18,6.46c-1.74.98-3.95.37-4.93-1.38-.85-1.51-.51-3.41.8-4.53l14.93-12.48-11.19,6.46c-1.73,1-3.94.41-4.95-1.32-.89-1.53-.54-3.49.83-4.61l11.85-9.76-7.89,4.55c-1.76.95-3.95.3-4.91-1.45-.78-1.43-.5-3.21.67-4.34l17.12-15.42-13.51,7.77c-1.7,1.05-3.93.53-4.98-1.17-.93-1.5-.64-3.45.68-4.62l17.07-16.15-14.28,8.26c-1.72,1.02-3.94.44-4.96-1.28-.87-1.47-.59-3.36.68-4.51l13.55-12.63-11.72,6.77c-1.73,1.01-3.94.43-4.95-1.3-.84-1.44-.59-3.27.61-4.43l13.32-12.94-5.74,3.31c-1.73,1-3.94.42-4.95-1.31-.78-1.34-.62-3.03.41-4.2l11.34-12.98c-1.09.14-2.17-.23-2.95-1.01-1.16-1.11-1.45-2.84-.72-4.26l8.01-15.64c-.79-1.69-.16-3.7,1.45-4.65l2.17-1.28c1.72-1.03,3.94-.47,4.96,1.25.64,1.08.68,2.41.1,3.53l-4.7,9.17,6.28-3.62c1.73-1,3.94-.42,4.95,1.31.78,1.34.62,3.03-.41,4.2l-10.74,12.31,12.11-6.99c1.73-1.01,3.94-.43,4.95,1.3.84,1.44.59,3.27-.61,4.43l-13.32,12.99,13.97-8.06c1.72-1.02,3.94-.44,4.96,1.28.87,1.47.59,3.36-.68,4.51l-13.55,12.65,13.44-7.77c1.7-1.05,3.93-.53,4.98,1.17.93,1.5.64,3.45-.68,4.62l-17.05,16.15,16.7-9.64c1.76-.95,3.95-.3,4.91,1.45.78,1.43.5,3.21-.67,4.34l-17.12,15.43,15.87-9.16c1.73-1,3.95-.41,4.94,1.33.88,1.53.53,3.47-.83,4.6l-11.82,9.75,9.67-5.58c1.73-1,3.95-.4,4.94,1.33.88,1.52.53,3.45-.82,4.58l-14.97,12.48,12.31-7.1c1.74-.99,3.95-.38,4.93,1.36.86,1.52.52,3.44-.82,4.56l-11.45,9.48,8.22-4.75c1.73-1,3.94-.41,4.95,1.32.8,1.38.6,3.12-.49,4.29l-15.81,16.97,11.63-6.71c1.69-1.07,3.92-.57,5,1.11,1.07,1.69.57,3.92-1.11,5-.09.05-.17.11-.26.15l-32.58,18.82c-.55.32-1.17.49-1.81.49Z"/>
      <path class="cls-1" d="m66.45,496.37c-2,0-3.62-1.63-3.61-3.63,0-.92.35-1.81.99-2.48l8.89-9.41-19.3,11.14c-1.73,1-3.95.4-4.94-1.33-.88-1.52-.53-3.45.82-4.58l7.83-6.52-10.03,5.79c-1.76.95-3.95.3-4.91-1.45-.78-1.43-.5-3.21.67-4.34l22.52-20.37-21.46,12.37c-1.74.98-3.95.37-4.93-1.37-.87-1.53-.51-3.47.86-4.58l15.59-12.53-11.05,6.38c-1.73,1-3.95.41-4.94-1.33-.88-1.53-.53-3.47.83-4.6l21.62-17.84-16.09,9.28c-1.73,1-3.94.41-4.95-1.32-.89-1.53-.54-3.49.83-4.61l16.65-13.68-10.32,5.95c-1.76.95-3.96.28-4.9-1.48-.77-1.43-.49-3.19.67-4.31l17.83-15.97-9.59,5.53c-1.76.95-3.96.29-4.9-1.47-.74-1.37-.51-3.07.56-4.2l15.75-15.93-4.71,2.72c-1.73,1-3.95.4-4.94-1.34-.78-1.37-.6-3.08.47-4.25l9.76-10.61c-1.96-.38-3.24-2.28-2.86-4.24.1-.51.31-.99.61-1.42l8.89-12.44c-.57-1.64.1-3.45,1.6-4.32l3.04-1.75c1.73-1,3.94-.41,4.95,1.32.71,1.23.64,2.77-.19,3.92l-2.73,3.82,1.5-.87c1.73-1,3.94-.42,4.95,1.31.8,1.37.61,3.11-.47,4.28l-7.7,8.42,7.44-4.29c1.73-1,3.95-.4,4.94,1.33.81,1.41.59,3.19-.56,4.35l-15.76,15.98,16.58-9.58c1.76-.95,3.96-.28,4.9,1.48.77,1.43.49,3.19-.67,4.31l-17.83,15.93,18.41-10.63c1.72-1.02,3.94-.45,4.96,1.27.92,1.55.56,3.54-.85,4.67l-16.65,13.68,15.37-8.87c1.74-.99,3.95-.38,4.93,1.36.86,1.52.52,3.44-.82,4.56l-21.64,17.92,14.26-8.23c1.74-.98,3.95-.37,4.93,1.37.87,1.53.51,3.47-.86,4.58l-15.58,12.53,10.14-5.86c1.76-.95,3.95-.3,4.91,1.45.78,1.43.5,3.21-.67,4.34l-22.5,20.4,17.62-10.14c1.72-1.01,3.94-.44,4.96,1.29.9,1.54.55,3.51-.83,4.64l-7.83,6.52,3.62-2.09c1.74-.98,3.95-.37,4.93,1.37.78,1.37.58,3.09-.5,4.24l-8.9,9.41,3.11-1.8c1.69-1.07,3.92-.57,5,1.11s.57,3.92-1.11,5c-.09.05-.17.11-.26.15l-24.51,14.09c-.55.33-1.18.51-1.82.51Z"/>
      <path class="cls-3" d="m248.72,496.29c-2,0-3.62-1.62-3.62-3.62,0-1.21.61-2.34,1.61-3.01l77.28-51.49-96.65,55.79c-1.75.98-3.95.35-4.93-1.39-.93-1.66-.42-3.75,1.17-4.79l63.75-40.73-75.93,43.84c-1.71,1.04-3.94.49-4.97-1.22-1.04-1.71-.49-3.94,1.22-4.97h0l75.75-48.14-86.8,50.11c-1.71,1.03-3.94.48-4.97-1.23-1.03-1.71-.48-3.94,1.23-4.97h0l75.75-47.68-84.96,49.05c-1.71,1.04-3.94.49-4.97-1.22-1.04-1.71-.49-3.94,1.22-4.97l101.47-64.26-111.1,64.14c-1.72,1.02-3.94.46-4.96-1.26-1.02-1.72-.46-3.94,1.26-4.96h0l28.58-17.5-33.13,19.14c-1.76.94-3.96.28-4.9-1.49-.88-1.64-.37-3.68,1.18-4.72l68.48-42.36-74.09,42.75c-1.8.86-3.97.1-4.83-1.71-.75-1.56-.28-3.44,1.11-4.47l112.22-70.4-119.15,68.78c-1.75.96-3.95.32-4.92-1.43-.91-1.65-.4-3.72,1.17-4.76l134.21-84.8-141.44,81.65c-1.76.95-3.96.3-4.91-1.46-.89-1.65-.38-3.7,1.18-4.74l123.81-77.47-129.23,74.57c-1.77.93-3.96.26-4.89-1.51-.86-1.63-.36-3.65,1.17-4.68l120.67-75.3-125.11,72.24c-1.72,1.02-3.94.46-4.96-1.26-1.02-1.72-.46-3.94,1.26-4.96l61.29-37.48-63.21,36.5c-1.72,1.02-3.94.45-4.96-1.27-1.02-1.72-.45-3.94,1.27-4.96l14.68-8.88-15.41,8.9c-1.76.96-3.95.31-4.91-1.45-.91-1.67-.37-3.75,1.22-4.78l14.86-8.98-15.29,8.8c-1.73,1-3.95.4-4.94-1.33-.97-1.69-.44-3.84,1.22-4.88l139.99-87.87-142.8,82.45c-1.76.95-3.96.3-4.91-1.46-.89-1.65-.38-3.7,1.18-4.74l136.02-85.25-137.91,79.62c-1.74.98-3.95.36-4.93-1.38-.95-1.68-.41-3.8,1.22-4.84l89.63-55.24-89.78,51.81c-1.74.98-3.95.36-4.93-1.39-.93-1.67-.41-3.77,1.19-4.81l134.02-84.15-134.31,77.56c-1.71,1.03-3.94.48-4.97-1.23s-.48-3.94,1.23-4.97l138.29-87.29-137.87,79.58c-1.73,1-3.95.4-4.94-1.33-.97-1.69-.44-3.84,1.22-4.88l110.77-69.22-109.02,62.93c-1.74.98-3.95.36-4.93-1.38-.95-1.68-.41-3.8,1.22-4.83l69.27-42.72-66.57,38.4c-1.76.94-3.96.28-4.9-1.49-.88-1.65-.36-3.71,1.21-4.73l9.83-5.99-6.52,3.74c-1.75.97-3.95.33-4.92-1.42-.92-1.67-.39-3.77,1.22-4.8l22.68-13.87-18.9,10.93c-1.72,1.02-3.94.46-4.96-1.26-1.02-1.72-.46-3.94,1.26-4.96l21-12.86-16.76,9.67c-1.75.96-3.95.32-4.92-1.43-.9-1.64-.4-3.7,1.15-4.75l116.7-75.23-110.62,63.85c-1.77.93-3.96.25-4.89-1.51-.86-1.64-.35-3.67,1.19-4.7l5.36-3.3c-1.84.78-3.97-.08-4.75-1.92-.69-1.62-.11-3.5,1.37-4.45l82.02-52.71-73.44,42.39c-1.7,1.05-3.93.52-4.98-1.19s-.52-3.93,1.19-4.98l75.48-49.29-64.23,37.09c-1.71,1.04-3.94.49-4.97-1.22-1.04-1.71-.49-3.94,1.22-4.97h0l12.1-7.65-1.52.88c-1.74.99-3.95.38-4.94-1.35-.93-1.64-.45-3.72,1.1-4.78l47.79-32.42-29.29,16.93c-1.73,1-3.95.41-4.94-1.33-.92-1.59-.5-3.61.96-4.71l32.08-24.03c-1.96-.37-3.26-2.26-2.89-4.23.2-1.04.83-1.93,1.74-2.46l44.1-25.46c1.73-1,3.95-.41,4.94,1.33.92,1.59.5,3.61-.96,4.71l-26.19,19.62,63.71-36.79c1.72-1.02,3.94-.45,4.96,1.27.98,1.66.49,3.8-1.12,4.86l-47.82,32.42,70-40.39c1.74-.99,3.95-.39,4.94,1.35.96,1.67.43,3.8-1.19,4.84l-12.11,7.65,22.88-13.21c1.74-.99,3.95-.38,4.94,1.36.94,1.65.44,3.75-1.14,4.8l-75.51,49.33,91.47-52.81c1.75-.96,3.95-.32,4.92,1.43.9,1.64.4,3.7-1.15,4.75l-82.05,52.71,94.98-54.82c1.72-1.02,3.94-.46,4.96,1.26s.46,3.94-1.26,4.96l-4.42,2.72,10.18-5.88c1.74-.99,3.95-.38,4.94,1.36.95,1.66.44,3.77-1.16,4.82l-116.72,75.25,129.33-74.66c1.76-.94,3.96-.28,4.9,1.49.88,1.65.36,3.71-1.21,4.73l-20.98,12.87,25.72-14.86c1.76-.94,3.96-.28,4.9,1.49.88,1.65.36,3.71-1.21,4.73l-22.73,13.91,27.01-15.59c1.76-.94,3.96-.28,4.9,1.49.88,1.65.36,3.71-1.21,4.73l-9.67,5.89,13.12-7.57c1.72-1.02,3.94-.46,4.96,1.26s.46,3.94-1.26,4.96l-69.42,42.83,74.31-42.9c1.73-1,3.95-.4,4.94,1.33.97,1.69.44,3.84-1.22,4.88l-110.77,69.2,116.81-67.41c1.76-.94,3.96-.28,4.9,1.49.87,1.63.37,3.66-1.16,4.7l-138.25,87.29,144.91-83.67c1.74-.98,3.95-.36,4.93,1.39.93,1.67.41,3.77-1.19,4.81l-133.99,84.13,139.27-80.4c1.72-1.03,3.94-.46,4.97,1.25,1.03,1.72.46,3.94-1.25,4.97l-89.58,55.2,92.34-53.32c1.71-1.03,3.94-.48,4.97,1.23,1.03,1.71.48,3.94-1.23,4.97l-136.12,85.3,139.81-80.75c1.71-1.03,3.94-.48,4.97,1.23,1.03,1.71.48,3.94-1.23,4.97l-139.97,87.87,143.06-82.59c1.76-.96,3.95-.31,4.91,1.45.91,1.67.37,3.75-1.22,4.78l-14.6,8.84,14.4-8.3c1.76-.96,3.95-.31,4.91,1.45.91,1.67.37,3.75-1.22,4.78l-14.9,9.03,14.41-8.31c1.76-.94,3.96-.28,4.9,1.49.88,1.65.36,3.71-1.21,4.73l-61.26,37.47,61.01-35.22c1.76-.95,3.96-.3,4.91,1.46.89,1.65.38,3.7-1.18,4.74l-120.72,75.3,120.91-69.83c1.71-1.03,3.94-.48,4.97,1.23,1.03,1.71.48,3.94-1.23,4.97l-123.81,77.47,123.31-71.19c1.75-.96,3.95-.32,4.92,1.43.91,1.65.4,3.72-1.17,4.76l-134.19,84.8,133.06-76.81c1.76-.95,3.96-.3,4.91,1.46.89,1.65.38,3.7-1.18,4.74l-112.19,70.36,109.81-63.39c1.74-.98,3.95-.36,4.93,1.38.95,1.68.41,3.8-1.22,4.83l-68.5,42.36,65.22-37.65c1.72-1.02,3.94-.46,4.96,1.26,1.02,1.72.46,3.94-1.26,4.96l-28.6,17.51,24.73-14.26c1.74-.99,3.95-.39,4.94,1.35.96,1.67.43,3.8-1.19,4.84l-101.51,64.29,96.48-55.69c1.76-.94,3.96-.28,4.9,1.49.87,1.63.37,3.66-1.16,4.7l-75.7,47.65,69.79-40.28c1.76-.95,3.95-.3,4.91,1.46.89,1.64.39,3.68-1.16,4.73l-75.69,48.11,68.16-39.36c1.72-1.01,3.94-.43,4.95,1.29.99,1.68.46,3.85-1.19,4.89l-63.87,40.81,54.79-31.63c1.74-.99,3.95-.38,4.94,1.36.94,1.64.45,3.73-1.12,4.79l-77.27,51.48,63.55-36.69c1.76-.94,3.96-.28,4.9,1.48.87,1.63.38,3.65-1.14,4.69l-11.9,7.62c1.87-.72,3.96.21,4.68,2.08.58,1.51.09,3.23-1.21,4.2l-44.98,33.37,13.87-8.01c1.74-.99,3.95-.38,4.94,1.36.98,1.72.39,3.91-1.32,4.91l-68.56,39.57c-1.74.99-3.95.38-4.94-1.36-.9-1.58-.48-3.59.97-4.68l44.97-33.35-81.39,46.98c-1.75.96-3.95.32-4.92-1.43-.9-1.64-.4-3.7,1.15-4.75l11.14-7.14-23.89,13.76c-.54.32-1.15.5-1.77.51Z"/>
      <path class="cls-4" d="m250.9,438.41c-2,0-3.62-1.62-3.62-3.62,0-1.14.54-2.21,1.45-2.9l6.67-4.93-16.25,9.41c-1.71,1.03-3.94.47-4.97-1.24-.94-1.56-.57-3.58.87-4.71l35.59-28.92-48.73,28.13c-1.74.99-3.95.39-4.94-1.35-.89-1.56-.5-3.54.91-4.65l38.1-29.41-45.82,26.46c-1.73,1-3.95.41-4.95-1.32-.92-1.6-.5-3.64.99-4.73l27.15-19.92-30.12,17.38c-1.74.98-3.95.37-4.93-1.37-.89-1.59-.47-3.59.99-4.68l17.82-12.98-18.16,10.48c-1.75.97-3.95.35-4.93-1.4-.85-1.53-.49-3.45.86-4.56l18.32-14.6-16.96,9.78c-1.74.98-3.95.36-4.93-1.39-.86-1.54-.49-3.47.87-4.58l4.14-3.29-.24.13c-1.73,1-3.95.41-4.95-1.33-.81-1.4-.59-3.16.53-4.32l6.13-6.34c-.97-.22-1.81-.84-2.3-1.71-1-1.73-.41-3.94,1.32-4.95l17.25-9.96c1.73-1,3.95-.41,4.94,1.33.81,1.4.59,3.17-.54,4.33l-3.62,3.77,20.4-11.77c1.74-.98,3.95-.36,4.93,1.39.86,1.54.49,3.47-.87,4.58l-4.18,3.27,16.37-9.41c1.75-.97,3.95-.35,4.93,1.4.85,1.53.49,3.45-.86,4.56l-18.33,14.6,34.69-20.02c1.74-.98,3.95-.37,4.93,1.37.89,1.59.47,3.59-.99,4.68l-17.77,12.96,29.01-16.75c1.73-1,3.95-.41,4.95,1.32.92,1.6.5,3.64-.99,4.73l-27.17,19.92,35.3-20.37c1.74-.99,3.95-.39,4.94,1.35.89,1.56.5,3.54-.91,4.65l-38.1,29.41,41.45-23.89c1.73-1.01,3.94-.43,4.95,1.3.9,1.55.54,3.52-.85,4.64l-35.59,28.87,31.91-18.42c1.72-1.01,3.94-.44,4.95,1.29.94,1.6.52,3.66-.99,4.76l-7.05,5.21c1.88-.68,3.96.28,4.64,2.16.52,1.44.09,3.05-1.09,4.03l-10.53,8.62c.45.31.82.71,1.09,1.18,1,1.73.41,3.95-1.32,4.95l-24.85,14.33c-1.74.99-3.95.38-4.94-1.36-.87-1.52-.52-3.45.83-4.57l.72-.57-15.77,9.1c-.55.31-1.18.48-1.81.47Z"/>
      <path class="cls-6" d="m212.35,297.97c-2,0-3.62-1.62-3.62-3.62,0-.87.31-1.71.88-2.37l3.03-3.49-10.99,6.34c-1.72,1.02-3.94.45-4.96-1.27-.86-1.45-.6-3.3.62-4.47l8.69-8.4-21.8,12.58c-1.74.99-3.95.38-4.93-1.36-.86-1.52-.52-3.44.82-4.56l11.79-9.75-29.46,16.97c-1.75.97-3.95.34-4.92-1.41-.86-1.55-.47-3.5.93-4.6l17.43-13.27-38.05,21.97c-1.74.98-3.95.37-4.93-1.37-.91-1.62-.45-3.67,1.07-4.74l9.73-6.73-9.46,5.46c-1.74.99-3.95.38-4.94-1.36-.87-1.54-.51-3.48.87-4.6l37.65-30.09-36.92,21.31c-1.74.99-3.95.39-4.94-1.35-.86-1.51-.53-3.43.8-4.55l31.18-26.34-24.94,14.4c-1.71,1.03-3.94.48-4.97-1.23-.88-1.46-.62-3.34.62-4.51l15.62-15.02c-1.37.07-2.67-.62-3.37-1.8-1-1.73-.41-3.94,1.32-4.95l23.07-13.31c1.71-1.03,3.94-.48,4.97,1.23.88,1.46.62,3.34-.62,4.51l-14.48,13.94,34.38-19.84c1.74-.99,3.95-.38,4.94,1.35.86,1.51.53,3.41-.79,4.54l-31.19,26.35,43.36-25.04c1.74-.99,3.95-.38,4.94,1.36.87,1.54.51,3.48-.87,4.6l-37.65,30.09,44.67-25.8c1.74-.98,3.95-.37,4.93,1.37.91,1.62.45,3.67-1.07,4.74l-9.79,6.77,10.57-6.1c1.74-.98,3.95-.37,4.93,1.37.88,1.56.49,3.54-.93,4.64l-17.43,13.27,17.47-10.09c1.74-.99,3.95-.38,4.93,1.36.86,1.52.52,3.44-.82,4.56l-11.77,9.74,9.8-5.65c1.72-1.02,3.94-.45,4.96,1.27.86,1.45.6,3.3-.62,4.47l-8.69,8.4,4.26-2.46c1.73-1,3.95-.4,4.94,1.33.77,1.33.61,3.01-.4,4.17l-4.79,5.53c1.96.38,3.25,2.27,2.87,4.24-.2,1.03-.83,1.93-1.74,2.45l-14.4,8.33c-.55.32-1.17.49-1.8.49Z"/>
      <path class="cls-6" d="m361.8,299.29c-2,0-3.62-1.62-3.62-3.62,0-.61.16-1.21.45-1.75l6.38-11.52-21,12.11c-1.74.99-3.95.38-4.94-1.35-.82-1.44-.56-3.25.63-4.4l9.99-9.56-24.27,14.02c-1.76.95-3.96.28-4.9-1.48-.77-1.43-.49-3.19.67-4.31l20.86-18.77-50.77,29.31c-1.73,1.01-3.94.43-4.95-1.3-.91-1.56-.53-3.56.89-4.67l35.27-28.08-43.79,25.25c-1.74.98-3.95.37-4.93-1.37-.89-1.59-.47-3.59.99-4.68l23.98-17.54-22.67,13.1c-1.74.99-3.95.38-4.94-1.36-.89-1.57-.49-3.56.94-4.66l24.12-18.29-20.32,11.71c-1.74.99-3.95.38-4.94-1.36-.91-1.59-.48-3.61,1-4.7l5.2-3.79c-1.42.33-2.89-.21-3.76-1.37-1.09-1.47-.91-3.53.43-4.79l14.32-13.39c-1.99-.14-3.5-1.87-3.36-3.86.08-1.2.76-2.28,1.8-2.89l22.99-13.28c1.72-1.03,3.94-.47,4.97,1.25.89,1.48.6,3.39-.68,4.54l-12.31,11.58,31.05-17.93c1.74-.99,3.95-.38,4.94,1.36.91,1.59.48,3.61-1,4.7l-4.14,2.93,10.14-5.84c1.74-.99,3.95-.38,4.94,1.36.89,1.57.49,3.56-.94,4.66l-24.12,18.29,30.8-17.74c1.74-.98,3.95-.37,4.93,1.37.89,1.59.47,3.59-.99,4.68l-23.99,17.54,27.76-16.02c1.73-1,3.94-.42,4.95,1.31.9,1.55.53,3.54-.88,4.66l-35.28,28.08,38.6-22.28c1.76-.95,3.96-.28,4.9,1.48.77,1.43.49,3.19-.67,4.31l-20.83,18.77,20.49-11.83c1.71-1.04,3.93-.51,4.98,1.2.9,1.47.64,3.38-.63,4.55l-10,9.56,6.18-3.58c1.73-1,3.94-.41,4.95,1.32.64,1.1.65,2.46.03,3.57l-7.53,13.5c1.91.6,2.97,2.63,2.38,4.53-.27.87-.86,1.61-1.65,2.06l-7.31,4.21c-.55.32-1.17.49-1.8.49Z"/>
      <path class="cls-8" d="m243.18,437.85c-2,0-3.63-1.61-3.63-3.61,0-1.09.49-2.13,1.34-2.82l11.46-9.35-20.82,12.02c-1.74.98-3.95.36-4.93-1.39-.88-1.58-.47-3.57.97-4.66l.2-.14-4.41,2.53c-1.74.99-3.95.39-4.94-1.35-.88-1.54-.51-3.5.88-4.61l11.98-9.53-16.73,9.66c-1.73,1.01-3.94.42-4.95-1.31-.92-1.57-.52-3.58.92-4.69l2.61-2.03-4.41,2.55c-1.73,1-3.95.4-4.94-1.33-.78-1.36-.6-3.07.45-4.24l10.56-11.63-3.06,1.76c-1.69,1.07-3.92.57-5-1.11-1.07-1.69-.57-3.92,1.11-5,.09-.05.17-.11.26-.15l23.1-13.34c1.73-1,3.95-.4,4.94,1.33.78,1.36.6,3.07-.45,4.24l-10.57,11.66,30.26-17.46c1.74-.99,3.95-.38,4.94,1.36.88,1.55.5,3.52-.9,4.63l-2.58,2.01,12.91-7.46c1.74-.99,3.95-.39,4.94,1.35.88,1.54.51,3.5-.88,4.61l-11.98,9.54,18.98-10.95c1.74-.98,3.95-.36,4.93,1.39.88,1.58.47,3.57-.97,4.66l-.14.1,2.95-1.69c1.73-1.01,3.94-.42,4.95,1.31.9,1.54.54,3.5-.84,4.63l-11.46,9.35,14.25-8.22c1.73-1,3.95-.4,4.94,1.33.78,1.36.6,3.08-.46,4.24l-10.37,11.32,4.63-2.67c1.77-.93,3.96-.24,4.89,1.53.87,1.67.32,3.72-1.27,4.73l-24.96,14.42c-1.72,1.01-3.94.44-4.96-1.29-.81-1.38-.62-3.12.47-4.3l10.37-11.32-32.74,18.92c-.55.32-1.17.49-1.81.49Z"/>
      <path class="cls-6" d="m259.21,394.99c-.99,0-1.93-.41-2.62-1.12-1.15-1.2-1.34-3.03-.45-4.44l5.99-9.31-22.27,12.86c-1.75.97-3.95.35-4.92-1.4-.81-1.45-.53-3.25.67-4.39l10.86-9.94-13.5,7.78c-1.73,1-3.95.4-4.94-1.34-.72-1.25-.63-2.8.23-3.96l9.06-12.24-5.21,3c-1.31.76-2.95.62-4.11-.34-1.16-.96-1.61-2.55-1.11-3.97l1.66-4.81c-.57-.31-1.04-.78-1.37-1.35-1-1.73-.41-3.94,1.32-4.95l3.94-2.27c1.73-1,3.95-.41,4.94,1.33.52.91.63,1.99.29,2.98l-.79,2.27,11.95-6.89c1.74-.99,3.95-.39,4.94,1.35.71,1.24.62,2.78-.23,3.94l-9.09,12.26,27.04-15.62c1.74-.98,3.95-.37,4.93,1.37.82,1.45.54,3.28-.68,4.42l-10.86,9.93,6.58-3.79c1.74-.99,3.95-.38,4.94,1.36.66,1.16.63,2.58-.08,3.71l-6.13,9.51c1.92-.55,3.93.56,4.48,2.48.46,1.59-.23,3.3-1.66,4.13l-12.01,6.93c-.54.33-1.16.51-1.79.52Z"/>
      <path class="cls-7" d="m212.51,297.91c-2,0-3.62-1.62-3.62-3.62,0-.88.32-1.73.9-2.39l2.41-2.74-9.92,5.72c-1.73,1-3.95.41-4.95-1.32-.84-1.45-.57-3.28.64-4.43l6.28-5.97-15.93,9.2c-1.75.97-3.95.35-4.93-1.4-.85-1.53-.49-3.45.86-4.56l1.12-.9-1.32.76c-1.74.98-3.95.36-4.93-1.39-.82-1.47-.53-3.32.72-4.45l9.24-8.18-7.55,4.34c-1.73,1-3.94.41-4.95-1.32-.76-1.31-.62-2.95.34-4.11l9.07-11.05c-1.93.53-3.92-.6-4.45-2.53-.44-1.59.25-3.27,1.68-4.1l16.18-9.34c1.73-.99,3.95-.39,4.94,1.34.75,1.3.61,2.93-.34,4.09l-8.86,10.8,21.45-12.38c1.74-.99,3.95-.38,4.94,1.35.84,1.48.54,3.35-.73,4.49l-9.27,8.18,12.19-7.04c1.74-.99,3.95-.38,4.94,1.36.87,1.54.51,3.48-.87,4.6l-1.11.88.23-.12c1.69-1.07,3.93-.56,4.99,1.13.95,1.51.66,3.49-.68,4.66l-6.28,5.98,2.68-1.54c1.73-1,3.94-.41,4.95,1.32.78,1.35.61,3.04-.41,4.21l-4.56,5.18c.94.25,1.74.86,2.22,1.7.99,1.73.4,3.94-1.32,4.94l-14.18,8.18c-.55.32-1.17.48-1.81.48Z"/>
      <path class="cls-7" d="m280.04,296.46c-2,0-3.62-1.62-3.62-3.62,0-1.04.45-2.03,1.23-2.72l12.26-10.8-12.11,6.99c-1.73.99-3.95.39-4.94-1.34-.79-1.37-.59-3.1.48-4.26l15.6-16.78-13.03,7.5c-1.74.98-3.95.36-4.93-1.38-.79-1.41-.55-3.18.59-4.32l6.01-5.95c-.61-.32-1.11-.81-1.45-1.4-1-1.73-.41-3.94,1.32-4.95l16.12-9.3c1.74-.98,3.95-.36,4.93,1.38.79,1.41.55,3.18-.59,4.32l-1.38,1.37,9.69-5.59c1.73-.99,3.95-.39,4.94,1.34.79,1.37.59,3.1-.48,4.26l-15.6,16.78,22.73-13.13c1.74-.99,3.95-.39,4.94,1.35.85,1.49.54,3.36-.74,4.5l-12.26,10.79,12.03-6.94c1.73-1,3.95-.4,4.94,1.33.81,1.41.58,3.2-.56,4.36l-5.43,5.45.64-.37c1.74-.99,3.95-.38,4.94,1.36.98,1.72.39,3.91-1.32,4.91l-24.29,14.02c-1.76.95-3.95.3-4.91-1.45-.75-1.38-.52-3.09.57-4.23l5.44-5.47-19.92,11.5c-.55.32-1.18.49-1.82.49Z"/>
      <path class="cls-2" d="m462.22,156.07c5.52-8.98,2.72-20.73-6.26-26.24-4.31-2.65-9.5-3.48-14.43-2.3-18.15,6.91-34.92,17.01-49.52,29.82-11.66-2.36-23.78.22-33.47,7.12-61.93-44.29-148.89-50.97-215.03-2.17-9.33-6.14-20.87-7.89-31.6-4.79-17.22-12.12-47.18-40.73-68.31-24.54-7.22,6.69-7.65,17.96-.97,25.18.8.86,1.68,1.64,2.63,2.33,14.28,5.82,27.66,13.64,39.73,23.24-4.76,12.96-2.53,27.45,5.91,38.37-22.45,40.24-28.4,87.62-16.61,132.16-24.02,35.27-36.45,77.14-35.59,119.8,4.01,32.32,55.1,30.26,57.15-2.77-.79-19.36.8-38.74,4.74-57.71,18.66,28.66,44.76,51.71,75.51,66.69v30.18c-18.42-2.17-35.48,17.29-26.59,34.93,7.62,14.43,30.18,9.8,43.44,9.8,44.01,4.65,32.35-29.47,33.23-59.75,16.77,2.41,33.8,2.41,50.57,0,1,31.13-11.25,63.91,33.68,59.21,13.57,0,35.55,4.45,43.92-9.67,9.82-17.38-8.33-36.28-26.21-33.96v-30.83c30.5-14.21,56.51-36.54,75.15-64.55,3.74,18.49,5.25,37.37,4.49,56.22,2.13,34.47,52.98,33.09,56.98.6.73-41.88-11.34-82.98-34.6-117.81,11.46-44.81,4.71-92.34-18.77-132.2,9.49-10.93,12.74-25.95,8.62-39.82,12.18-11.95,30.6-14.72,42.2-26.53Zm-397.83,4.41c-19.56-8.2-26.64-13.07-4.51-24.99,15.75,6.24,30.4,14.98,43.38,25.87-5.98,3.61-10.98,8.62-14.58,14.6-7.58-5.93-15.71-11.12-24.28-15.48Zm71.68,7.61c-16.02,13.14-29.75,28.84-40.65,46.47-19.95-27.82,11.38-60.69,40.68-46.47h-.03Zm-40.51,239.15c-5.28,21.01-7.45,42.68-6.45,64.32-1.93,24.37-42.28,22.6-43.86-1.37-.02-38.08,10.88-75.37,31.4-107.44,4.66,15.25,11.16,29.88,19.36,43.56-.19.29-.34.61-.45.93Zm111.14,139.37c-12.79,1.17-26.2-.2-39.02,0-9.8,1-12.84-5-9.84-20.66,26.79-21.6,25.29,17.17,24.86-42.79,11.88,5.13,24.29,8.91,37.01,11.26.96,16.85,5.62,50.23-13,52.19Zm116.57-28.19c9.55,0,21.48,1.45,24.72,12.5,5.3,18.1-8.04,16.25-15.71,16.25-49.23,3.69-51.36-2.27-47.73-53.13,12.25-2.08,24.23-5.53,35.71-10.3v32.05c.07,1.53,1.36,2.71,2.89,2.64.05,0,.09,0,.14,0h0Zm-71.05-29.68c-236.85-9.35-233.75-350.65,4.13-353.39,229.59,13.89,226.55,345.75-4.12,353.36v.02Zm206.24-16.88c-1.58,23.89-42.64,22.27-44.09-1.17,1.01-21.26-1.03-42.55-6.04-63.24,8.09-13.53,14.5-27.99,19.11-43.07,20.32,32.15,31.08,69.42,31.03,107.46v.02Zm-50.72-255.46c-11.61-18.25-26.31-34.34-43.44-47.54,30.44-17.74,64.16,19.15,43.44,47.54Zm8.64-41.51c-3.54-6.13-8.77-11.12-15.07-14.35,12.67-10.39,26.92-18.67,42.21-24.54,12.36-3.07,20.27,12.02,8.26,18.58-12.72,5.02-24.65,11.86-35.4,20.31h0Z"/>
      <path class="cls-2" d="m313.72,383.45c-1.69-34.93-41.99-31.97-68.16-31.56-23.94.32-55.34,2.74-55.75,33.3-.79,58.59,79.29,66.99,111.21,30.24,1.86-.31,3.19-1.97,3.08-3.86,5.92-8.22,9.26-18.01,9.61-28.13Zm-8.12,1.78c-.47,6.37-2.19,12.58-5.07,18.27-5.9-8.93-14.58-15.67-24.7-19.15,2.49-7.83,3.18-16.12,2.04-24.25,14.15,1.96,26.31,7.7,27.73,25.13h0Zm-48.18-26.22c3.86.05,7.89.11,11.9.32.71,7.91.22,15.88-1.45,23.65-.48.44-.82,1.01-.97,1.64-3.14,4.73-10.61,3.84-15.68,3.62-18.3,1.79-17.72-15.93-16.93-29.31,8.1-.45,16.29-.04,23.13.09Zm-59.08,24.62c1.82-16.11,13.64-21.97,27.43-23.98-1.06,8.27-.54,16.67,1.54,24.75-10.17,3.49-18.87,10.32-24.67,19.37-3.54-6.09-5.05-13.14-4.3-20.14Zm48.24,47.53c-15.22-1.96-29.21-9.36-39.4-20.82,5.82-9.45,15.12-16.24,25.89-18.91,11.68,5.18,25.04,5.04,36.61-.39,11.13,2.51,20.79,9.4,26.79,19.11-11.68,15.42-30.69,23.43-49.88,21.03h0Z"/>
      <path class="cls-2" d="m219.54,300.69c.46.39,1.04.61,1.64.63,4.84,1.91,9.48,4.27,13.89,7.03,3.45,2.17,8.45-4.76,4.5-7.24-4.13-2.62-8.48-4.88-12.99-6.76,3.16-6.6,5.05-13.74,5.57-21.04,4.68-1.66.64-8.25-.18-11.38-14.63-85.77-134.49-46.26-99.43,33.18-4.35,1.87-8.55,4.08-12.55,6.61-4.18,2.67-1.82,9.06,2.97,5.99,4.13-2.61,8.5-4.84,13.03-6.65,1.38,1.18,2.86.27,3.77-1.4,25.93-8.74,54.07-8.38,79.77,1.03Zm-30.86-14.86c-20.34-31.55,29.8-53.27,37.11-15.31-.3,7.45-2.26,14.74-5.75,21.33-10.14-3.4-20.69-5.42-31.36-6.02h0Zm-6.7-63.51c17.14.65,32.42,10.95,39.47,26.58-23.8-17.74-57.52,10.58-42.54,36.71-13.53.13-26.96,2.46-39.74,6.91-13.04-22.22-5.61-50.8,16.61-63.85,7.92-4.65,17.03-6.86,26.2-6.35h0Z"/>
      <path class="cls-2" d="m383.38,300.82c-3.91-2.46-8.01-4.61-12.26-6.43,36.48-90.42-100.64-114.28-100.05-20.53.5,7.18,2.35,14.21,5.46,20.7-3.99,1.73-7.85,3.77-11.53,6.08-3.48,2.22-1.23,10.59,2.59,8.15,14.23-8.56,30.32-13.56,46.89-14.59.89.39,1.91.31,2.73-.21,15.65-.99,31.35,1.14,46.18,6.24.55.48,1.25.74,1.98.72,5.41,2.02,10.61,4.58,15.51,7.65,4.21,2.7,5.96-5.58,2.51-7.79Zm-104.94-36.35c12.54-29.12,55.82-5.57,37.58,20.9-10.88.61-21.63,2.71-31.95,6.22-4.37-8.34-6.32-17.73-5.63-27.12Zm45.48,20.7c14.87-26.33-18.2-56.15-41.83-36,26.52-57.74,111.54-14.7,82.93,42.87-13.21-4.6-27.11-6.93-41.1-6.87Z"/>
    </g>
  </g>
  <g id="Capa_3" data-name="Capa 3">
    <g>
      <path class="cls-10" d="m462,116.11c0,45.6-70.88,140.85-212.43,140.85S37.1,161.71,37.1,116.11s59.25,31.03,210.46,31.03c151.34.09,214.45-76.63,214.45-31.03Z"/>
      <path class="cls-5" d="m249.57,262c-80.32,0-132.68-29.63-162.53-54.47-37.92-31.6-54.95-68.69-54.95-91.42,0-12.95,5-19.49,14.79-19.49,7.72,0,18.04,4.17,33.58,10.4,32.52,13.17,86.99,35.11,167.18,35.11s135.36-21.81,168.63-34.85c15.89-6.19,27.39-10.71,35.55-10.71,10.14,0,15.27,6.54,15.27,19.49,0,22.74-16.94,59.78-54.95,91.42-29.85,24.84-82.21,54.47-162.53,54.47l-.04.04ZM46.89,106.67c-2.19,0-4.7,0-4.7,9.44,0,20.32,15.84,54.12,51.31,83.7,28.57,23.79,78.83,52.14,156.12,52.14s127.55-28.35,156.12-52.14c35.46-29.58,51.31-63.33,51.31-83.7,0-9.44-2.68-9.44-5.22-9.44-6.28,0-17.6,4.43-31.86,10.01-34.02,13.3-90.81,35.55-172.32,35.55s-137.69-22.47-170.91-35.81c-13.43-5.4-24.05-9.7-29.85-9.7v-.04Z"/>
      <path class="cls-10" d="m289.69,8.05c-9.09,0-20.85,17.47-41.61,17.47s-33.44-17.47-44.29-17.47c-15.27,0-33.66,45.91-46.52,80.23-12.86,34.37-16.77,63.07-16.77,73.6,0,19.71,34.28,47.36,107.53,47.36s107.53-28.66,107.53-47.36c0-10.27-4.43-38.36-18.52-73.34-11.76-29.36-30.42-80.54-47.45-80.54l.09.04Z"/>
      <path class="cls-5" d="m248.12,214.29c-42.71,0-69.04-9.22-83.61-16.9-18.17-9.66-29.01-22.87-29.01-35.55,0-10.27,3.6-39.33,17.12-75.4C171.4,36.4,187.34,3.04,203.84,3.04c5.97,0,11.41,3.47,17.73,7.37,7.46,4.7,15.89,10.05,26.55,10.05s19.09-5.57,26.25-10.49c5.49-3.73,10.23-6.98,15.36-6.98,17.6,0,31.95,32.74,48.94,75.45,1.14,2.9,2.24,5.62,3.25,8.16,14.92,37.18,18.87,65.44,18.87,75.23,0,12.33-10.84,25.5-28.92,35.2-14.7,7.81-41.17,17.16-83.7,17.16l-.04.09ZM203.84,13.05c-1.67,0-7.94,1.76-19.71,24.49-8.03,15.54-15.71,35.24-22.16,52.45-12.11,32.17-16.46,60.61-16.46,71.85,0,6.85,6.19,17.38,23.66,26.69,13.61,7.2,38.27,15.76,78.92,15.76s65.27-8.73,78.92-16.06c17.47-9.35,23.66-20.06,23.66-26.33,0-10.58-4.87-38.27-18.17-71.45-1.05-2.59-2.11-5.35-3.29-8.25-5.79-14.57-12.95-32.65-20.5-46.79-10.71-20.15-16.9-22.3-19.09-22.3-2.06,0-5.93,2.68-9.7,5.22-7.55,5.14-17.86,12.25-31.86,12.25s-23.7-6.41-31.86-11.63c-4.65-3.03-9.13-5.93-12.25-5.93l-.09.04Z"/>
      <g>
        <path class="cls-5" d="m248.12,183.08c-63.69,0-97.92-20.98-105.78-39.33-1.27,8.03-1.76,14.31-1.76,18.08,0,19.71,34.28,47.36,107.53,47.36s107.53-28.66,107.53-47.36c0-3.73-.61-9.88-2.06-17.82-8.25,17.86-42.44,39.06-105.51,39.06h.04Z"/>
        <path class="cls-5" d="m248.12,214.29c-42.71,0-69.04-9.22-83.61-16.9-18.17-9.66-29.01-22.87-29.01-35.55,0-4.65.61-11.32,1.84-18.87.35-2.19,2.11-3.95,4.35-4.21s4.35.97,5.22,3.03c7.46,17.47,42.31,36.34,101.17,36.34s92.92-18.74,100.99-36.17c.92-1.98,3.03-3.12,5.22-2.9,2.19.26,3.95,1.89,4.3,4.08,1.32,7.55,2.11,14.22,2.11,18.74,0,12.33-10.84,25.5-28.92,35.2-14.66,7.9-41.13,17.25-83.61,17.25l-.04-.04Zm-102.4-56.75c-.13,1.62-.13,3.12-.13,4.35,0,6.85,6.19,17.38,23.66,26.69,13.61,7.2,38.27,15.76,78.92,15.76s65.27-8.73,78.92-16.06c17.47-9.35,23.66-20.06,23.66-26.33,0-1.32-.09-2.94-.22-4.7-16.11,16.68-50.83,30.99-102.35,30.99-54.6-.09-87.3-14.79-102.4-30.68h-.04Z"/>
      </g>
      <path class="cls-5" d="m353.68,149.73c-1.27,2.59-2.59,5.22-4.43,7.55-2.41,2.9-4.92,5.57-7.81,7.94-5.97,5-12.68,8.95-19.71,12.16-14.57,6.67-30.46,10.14-46.3,12.03-16.42,1.98-33.14,1.98-49.64.57-15.84-1.32-32.22-4.43-46.96-10.58-7.81-3.25-15.76-7.02-22.3-12.47-3.25-2.68-6.32-5.49-9-8.78-2.19-2.68-3.73-5.62-5.14-8.73,3.16,5.49,7.11,10.36,12.25,14.09,6.06,4.43,12.47,7.9,19.36,10.84,14.44,6.14,30.42,9.22,45.95,10.84,16.33,1.67,32.74,1.84,49.11.7,8.08-.57,16.2-1.62,24.05-3.16,7.55-1.54,15.14-3.29,22.38-5.97,7.94-2.94,16.06-6.28,23-11.28,3.38-2.41,6.54-5,9.44-8.03,2.24-2.41,3.99-5,5.71-7.72h.04Z"/>
      <path class="cls-5" d="m316.73,71.38c-8.16.35-15.27-4.3-20.41-10.36-6.06-7.11-9.48-16.46-9.92-25.76-.22-4.3.35-8.65,1.98-12.6,3.38,6.98,5.97,14.22,9.35,21.2,3.25,6.76,6.85,13.21,11.28,19.27,2.33,3.12,5.14,5.57,7.72,8.25Z"/>
      <path class="cls-5" d="m176.67,71.38c1.32-1.32,2.77-2.59,3.99-3.99,1.67-1.89,3.29-3.95,4.7-6.06,2.77-3.99,5.22-8.38,7.33-12.73,2.24-4.65,4.43-9.44,6.5-14.13,1.67-3.86,3.16-7.94,5-11.76,3.16,7.55,2.55,16.81-.09,24.4-2.9,8.51-7.94,16.24-15.71,21.11-3.6,2.24-7.59,3.29-11.76,3.16h.04Z"/>
      <path class="cls-5" d="m53.29,129.19c8.43,21.59,24.97,38.62,42.22,53.63,18.39,15.98,38.98,29.14,60.39,40.69,9.88,5.35,20.15,9.92,30.33,14.48-22.82-4.08-44.55-12.95-64.34-25.06-21.2-12.95-40.91-29.63-54.95-50.26-6.85-10.14-12.03-21.33-13.65-33.49Z"/>
      <path class="cls-5" d="m443.79,129.19c-2.94,22.82-18.52,42.57-34.76,57.94-18.21,17.16-39.77,31.03-62.94,40.56-11.41,4.65-23.17,8.16-35.24,10.27,20.15-8.87,39.68-18.79,58.16-30.81,20.28-13.21,39.63-28.49,55.48-46.88,8.08-9.35,14.84-19.49,19.36-31.03l-.04-.04Z"/>
      <path class="cls-5" d="m221.83,47.02c8.38,3.99,16.68,8.08,26.2,8.08s17.95-4.08,26.33-8.08c-4.21,7.9-12.95,13.61-21.68,14.92-7.46,1.14-15.14-.61-21.42-4.87-3.73-2.55-7.33-5.97-9.44-10.05Z"/>
      <path class="cls-11" d="m278.37,139.9c-.61,0-1.19.22-1.67.48l-8.03-13.96,8.03-13.96c.48.26,1.05.48,1.67.48,1.89,0,3.47-1.54,3.47-3.47s-1.54-3.47-3.47-3.47-3.47,1.54-3.47,3.47h-16.11l-8.51-14.79c1.05-.57,1.76-1.67,1.76-2.94,0-1.89-1.54-3.47-3.47-3.47s-3.47,1.54-3.47,3.47c0,1.27.7,2.41,1.76,2.94l-8.51,14.79h-16.11c0-1.89-1.54-3.47-3.47-3.47s-3.47,1.54-3.47,3.47,1.54,3.47,3.47,3.47c.61,0,1.19-.22,1.67-.48l8.03,13.96-8.03,13.96c-.48-.26-1.05-.48-1.67-.48-1.89,0-3.47,1.54-3.47,3.47s1.54,3.47,3.47,3.47,3.47-1.54,3.47-3.47h16.11l8.51,14.79c-1.05.57-1.76,1.67-1.76,2.94,0,1.89,1.54,3.47,3.47,3.47s3.47-1.54,3.47-3.47c0-1.27-.7-2.41-1.76-2.94l8.51-14.79h16.11c0,1.89,1.54,3.47,3.47,3.47s3.47-1.54,3.47-3.47-1.54-3.47-3.47-3.47Z"/>
      <g>
        <path class="cls-5" d="m353.81,136.65c-6.32,5.93-12.95,11.28-20.5,15.63-8.3,4.78-17.34,8.38-26.55,10.93-3.99,1.05-8.08,2.06-12.16,2.46,7.81-2.11,15.41-5.79,22.47-9.79,7.81-4.52,15.05-10.05,21.42-16.46,2.9-2.94,5.4-6.28,7.94-9.48,2.41,2.24,4.92,4.52,7.37,6.76v-.04Z"/>
        <path class="cls-5" d="m350.87,125.37c-5.97,5.49-12.25,10.23-19.44,14.09-6.41,3.47-13.3,6.14-20.32,8.03-3.12.83-6.32,1.62-9.57,2.06,8.43-2.77,16.55-7.33,23.7-12.51,3.38-2.46,6.63-5.14,9.57-8.08,3.16-3.25,5.97-6.63,8.65-10.27,2.41,2.24,4.92,4.52,7.37,6.76l.04-.09Z"/>
        <path class="cls-5" d="m347.93,114.13c-11.1,9.66-24.71,16.9-39.41,19.14,6.19-2.55,12.11-6.19,17.38-10.36,5.71-4.52,10.4-9.7,14.66-15.63,2.46,2.33,4.92,4.56,7.37,6.85Z"/>
        <path class="cls-5" d="m344.95,102.85c-8.6,6.89-18.65,12.11-29.58,14.22,9-5,16.55-12.38,22.12-20.98,2.55,2.33,5,4.52,7.46,6.76Z"/>
        <path class="cls-5" d="m342.05,91.57c-6.06,4.17-12.6,7.37-19.71,9.3,5-4.56,9-10.01,12.16-15.98,2.46,2.24,5,4.43,7.55,6.67Z"/>
      </g>
      <g>
        <path class="cls-5" d="m149.19,129.89c4.92,6.32,10.23,12.11,16.46,17.16,7.24,5.84,15.36,10.58,23.79,14.35,3.73,1.67,7.59,3.25,11.54,4.3-8.08-.92-16.11-3.38-23.7-6.28-9.09-3.47-17.69-8.25-25.41-14-3.6-2.68-6.85-5.71-10.05-8.78,2.46-2.24,4.92-4.52,7.37-6.76Z"/>
        <path class="cls-5" d="m152.18,118.61c2.77,3.6,5.49,7.02,8.65,10.27,2.94,2.94,6.19,5.62,9.57,8.08,7.11,5.22,15.27,9.79,23.7,12.51-14.13-1.84-28.09-8.03-39.77-16.11-3.47-2.41-6.5-5.14-9.57-7.94,2.46-2.33,4.92-4.56,7.37-6.85l.04.04Z"/>
        <path class="cls-5" d="m155.12,107.37c4.21,5.93,8.95,11.1,14.66,15.63,5.27,4.17,11.19,7.81,17.38,10.36-14.7-2.24-28.31-9.48-39.41-19.14,2.46-2.33,4.92-4.56,7.37-6.85Z"/>
        <path class="cls-5" d="m158.06,96.18c5.62,8.6,13.08,15.98,22.12,20.98-10.93-2.11-20.98-7.33-29.58-14.22,2.46-2.33,5-4.52,7.46-6.76Z"/>
        <path class="cls-5" d="m161.05,84.9c3.16,5.97,7.2,11.41,12.16,15.98-7.11-1.89-13.65-5.22-19.71-9.3,2.55-2.24,5.05-4.43,7.55-6.67Z"/>
      </g>
      <g>
        <polygon class="cls-5" points="141.38 155.52 97.49 134.19 144.85 146.08 141.38 155.52"/>
        <polygon class="cls-5" points="138.88 169.3 114.78 152.05 143.31 160.3 138.88 169.3"/>
        <polygon class="cls-5" points="350.79 146.08 398.19 134.19 354.25 155.52 350.79 146.08"/>
        <polygon class="cls-5" points="352.37 160.3 380.85 152.05 356.71 169.3 352.37 160.3"/>
      </g>
    </g>
  </g>
</svg>