<?xml version="1.0" encoding="UTF-8"?>
<svg xmlns="http://www.w3.org/2000/svg" viewBox="0 0 500 575">
  <defs>
    <style>
      .cls-1 {
        fill: #a54759;
      }

      .cls-1, .cls-2, .cls-3, .cls-4, .cls-5, .cls-6, .cls-7, .cls-8, .cls-9 {
        stroke-width: 0px;
      }

      .cls-2 {
        fill: #262626;
      }

      .cls-3 {
        fill: #241816;
      }

      .cls-4 {
        fill: #cd596b;
      }

      .cls-5 {
        fill: #fff;
      }

      .cls-6 {
        fill: #5da0ff;
      }

      .cls-7 {
        fill: #e7d8b4;
      }

      .cls-8 {
        fill: #cf9e76;
      }

      .cls-9 {
        fill: #773f4d;
      }

      .cls-10 {
        fill: #fcd770;
        stroke: #000;
        stroke-miterlimit: 10;
      }
    </style>
  </defs>
  <g id="Capa_1" data-name="Capa 1">
    <g>
      <path class="cls-7" d="m250,573c-66.51,0-129.04-25.9-176.07-72.93C26.9,453.04,1,390.51,1,324s25.9-129.04,72.93-176.07c47.03-47.03,109.56-72.93,176.07-72.93s129.04,25.9,176.07,72.93c47.03,47.03,72.93,109.56,72.93,176.07s-25.9,129.04-72.93,176.07c-47.03,47.03-109.56,72.93-176.07,72.93Z"/>
      <path class="cls-3" d="m250,76c33.48,0,65.96,6.56,96.53,19.49,29.53,12.49,56.05,30.37,78.83,53.15,22.78,22.78,40.66,49.3,53.15,78.83,12.93,30.57,19.49,63.05,19.49,96.53s-6.56,65.96-19.49,96.53c-12.49,29.53-30.37,56.05-53.15,78.83-22.78,22.78-49.3,40.66-78.83,53.15-30.57,12.93-63.05,19.49-96.53,19.49s-65.96-6.56-96.53-19.49c-29.53-12.49-56.05-30.37-78.83-53.15-22.78-22.78-40.66-49.3-53.15-78.83-12.93-30.57-19.49-63.05-19.49-96.53s6.56-65.96,19.49-96.53c12.49-29.53,30.37-56.05,53.15-78.83s49.3-40.66,78.83-53.15c30.57-12.93,63.05-19.49,96.53-19.49m0-2C111.93,74,0,185.93,0,324s111.93,250,250,250,250-111.93,250-250-111.93-250-250-250h0Z"/>
    </g>
  </g>
  <g id="Capa_2" data-name="Capa 2">
    <g>
      <g>
        <path class="cls-1" d="m161.27,197.45c-1.94,0-3.51-1.57-3.51-3.51,0-.96.39-1.87,1.08-2.53l10.36-9.9-14.48,8.32c-1.68.97-3.82.4-4.79-1.28-.85-1.47-.53-3.33.77-4.43l5.92-5.04-6.96,4.02c-1.68.96-3.82.38-4.78-1.3-.81-1.41-.54-3.2.65-4.31l9.59-8.86-7.92,4.58c-1.68.97-3.82.4-4.79-1.28-.74-1.28-.6-2.89.36-4.02l7.64-9.03c-1.3.03-2.51-.64-3.17-1.75-.97-1.68-.39-3.82,1.28-4.79l15.02-8.67c1.68-.97,3.82-.4,4.79,1.28.74,1.28.6,2.89-.36,4.02l-6.87,8.13,17.77-10.27c1.68-.96,3.82-.38,4.78,1.3.81,1.41.54,3.2-.65,4.31l-9.56,8.85,12.85-7.42c1.68-.97,3.82-.39,4.79,1.28.84,1.46.53,3.32-.76,4.42l-5.93,5.06,6.61-3.81c1.65-1.01,3.81-.49,4.82,1.16.87,1.43.62,3.27-.61,4.41l-21.25,20.31c.92,1.67.34,3.78-1.32,4.73l-9.58,5.54c-.54.32-1.16.49-1.79.5h0Z"/>
        <path class="cls-1" d="m333.91,195.01c-1.94,0-3.51-1.57-3.51-3.5,0-.89.33-1.74.94-2.39l5.61-6.07-9.03,5.21c-1.66,1-3.81.46-4.81-1.2-.85-1.42-.6-3.23.6-4.37l6.05-5.82-9.25,5.36c-1.67.97-3.82.41-4.79-1.27-.73-1.26-.61-2.84.31-3.98l12.47-15.36-19.51,11.27c-1.68.97-3.82.4-4.79-1.28-.78-1.34-.58-3.03.49-4.16l8.07-8.58c-1.85-.56-2.9-2.51-2.35-4.37.26-.85.83-1.57,1.59-2.02l15.28-8.81c1.68-.96,3.82-.38,4.78,1.3.76,1.33.57,3.01-.48,4.13l-5.46,5.8,15.29-8.82c1.67-.97,3.82-.41,4.79,1.27.73,1.26.61,2.84-.31,3.98l-12.47,15.35,17.85-10.3c1.66-1,3.81-.46,4.81,1.2.85,1.42.6,3.23-.6,4.37l-6.05,5.81,4.12-2.37c1.68-.96,3.82-.38,4.79,1.3.76,1.33.57,2.99-.46,4.12l-6.03,6.51c1.47-.31,2.97.37,3.71,1.68.97,1.68.39,3.82-1.28,4.79l-18.62,10.76c-.53.31-1.14.47-1.75.47h0Z"/>
        <path class="cls-1" d="m78.81,556.25c-1.94-.02-3.49-1.61-3.47-3.54.01-.98.43-1.9,1.15-2.56l12.3-10.92-23.98,13.81c-1.68.96-3.82.37-4.78-1.32-.83-1.45-.51-3.29.76-4.39l24.77-21.14-31.24,18.03c-1.68.96-3.82.37-4.78-1.31-.89-1.56-.46-3.53,1-4.58l4.33-3.09-4.08,2.35c-1.69.94-3.83.32-4.77-1.37-.84-1.51-.45-3.41.92-4.47l19.22-14.28-17.16,9.9c-1.68.97-3.82.39-4.79-1.28-.89-1.54-.49-3.49.93-4.56l22.59-16.88-18.73,10.81c-1.69.95-3.82.36-4.78-1.32-.86-1.51-.47-3.43.9-4.5l26.72-20.39-22.84,13.21c-1.67.97-3.82.41-4.79-1.27-.9-1.54-.49-3.52.94-4.58l22.17-16.5-18.23,10.52c-1.68.96-3.82.37-4.78-1.31-.88-1.54-.46-3.5.97-4.56l17.1-12.45-13.1,7.54c-1.69.95-3.83.35-4.77-1.34-.85-1.52-.46-3.43.92-4.49l25.45-19.19-21.13,12.21c-1.68.96-3.82.37-4.78-1.32-.87-1.53-.47-3.47.94-4.53l22.87-16.97-18.37,10.6c-1.69.94-3.83.33-4.77-1.36-.84-1.5-.46-3.39.9-4.46l28.79-21.94-23.84,13.76c-1.68.96-3.82.37-4.78-1.32-.87-1.53-.47-3.47.94-4.53l23.94-17.76-18.83,10.86c-1.69.94-3.83.34-4.77-1.35-.84-1.51-.46-3.41.91-4.47l28.62-21.68-23,13.27c-1.62.94-3.7.43-4.71-1.15-1.01-1.58-.59-3.68.95-4.76l5.12-3.56c-1.69.94-3.83.32-4.76-1.37-.83-1.5-.45-3.37.89-4.44l34.36-27.23-27.39,15.83c-1.67.98-3.82.41-4.8-1.26-.92-1.58-.48-3.6,1.02-4.64l6.07-4.28-.2.11c-1.68.96-3.82.38-4.79-1.3-.85-1.49-.5-3.37.82-4.46l34.36-27.87-25.74,14.85c-1.68.96-3.82.37-4.78-1.32-.85-1.49-.49-3.37.84-4.45l28.82-23.01-19.57,11.29c-1.69.95-3.82.36-4.78-1.33-.87-1.54-.46-3.48.95-4.53l8.41-6.18-.41.24c-1.69.95-3.82.36-4.78-1.33-.86-1.52-.47-3.45.93-4.51l10.37-7.78-1.27.74c-1.65,1.02-3.81.51-4.83-1.14-.95-1.54-.58-3.54.86-4.64l18.58-15.05-6.28,3.63c-1.68.96-3.82.39-4.79-1.29-.84-1.45-.52-3.29.74-4.39l17.57-15.19-1.29.76c-1.67.98-3.82.41-4.8-1.26-.82-1.39-.57-3.17.59-4.29l23.34-22.68c-.06-.1-.13-.19-.19-.29-.97-1.68-.39-3.82,1.28-4.79l10.57-6.1c1.67-.98,3.82-.41,4.8,1.26.82,1.39.57,3.17-.59,4.29l-14.09,13.69,8.86-5.11c1.68-.96,3.82-.39,4.79,1.29.84,1.45.52,3.29-.74,4.39l-17.53,15.19,12.45-7.25c1.68-.96,3.82-.38,4.79,1.3.85,1.49.5,3.37-.82,4.46l-18.55,15.08,13.65-7.88c1.68-.97,3.82-.39,4.79,1.28.89,1.54.49,3.49-.93,4.56l-10.34,7.77,5.76-3.32c1.69-.94,3.83-.32,4.76,1.37.84,1.52.44,3.44-.95,4.49l-8.46,6.19,3.92-2.26c1.68-.96,3.82-.37,4.78,1.32.85,1.49.49,3.37-.84,4.45l-28.83,23.03,23.77-13.73c1.68-.96,3.82-.38,4.79,1.3.85,1.49.5,3.37-.82,4.46l-34.32,27.9,29.15-16.83c1.67-.98,3.82-.41,4.8,1.26.92,1.58.48,3.6-1.02,4.64l-6.02,4.21,1.56-.9c1.68-.96,3.82-.37,4.78,1.31.85,1.5.49,3.39-.85,4.47l-34.41,27.23,29.3-16.91c1.68-.96,3.82-.38,4.79,1.3.9,1.57.46,3.57-1.03,4.62l-5.1,3.56.7-.39c1.69-.94,3.83-.34,4.77,1.35.84,1.51.46,3.41-.91,4.47l-28.61,21.68,23.14-13.32c1.68-.96,3.82-.37,4.78,1.32.87,1.53.47,3.47-.94,4.53l-23.93,17.72,18.53-10.69c1.69-.95,3.82-.36,4.78,1.32.86,1.51.47,3.43-.9,4.5l-28.82,21.96,23.6-13.62c1.68-.96,3.82-.37,4.78,1.32.87,1.53.47,3.47-.94,4.53l-22.83,16.94,18.1-10.43c1.68-.96,3.82-.38,4.78,1.3.88,1.53.48,3.47-.92,4.53l-25.51,19.21,20.9-12.03c1.7-.92,3.83-.29,4.75,1.41.82,1.51.42,3.4-.95,4.45l-17.09,12.41,12.82-7.4c1.67-.97,3.82-.41,4.79,1.27.9,1.54.49,3.52-.94,4.58l-22.17,16.51,17.95-10.37c1.68-.97,3.82-.39,4.79,1.28.88,1.53.49,3.47-.9,4.54l-26.74,20.41,22.61-13.06c1.68-.97,3.82-.39,4.79,1.28.89,1.54.49,3.49-.93,4.56l-22.56,16.87,18.59-10.73c1.69-.94,3.83-.33,4.77,1.36.85,1.52.45,3.43-.93,4.49l-19.21,14.28,15.34-8.86c1.68-.96,3.82-.37,4.78,1.31.89,1.56.46,3.53-1,4.58l-4.31,3.07.52-.29c1.69-.94,3.83-.34,4.77,1.35.81,1.44.5,3.25-.75,4.34l-24.78,21.16,20.76-11.98c1.68-.97,3.82-.4,4.79,1.28.83,1.44.54,3.27-.71,4.38l-12.31,10.91,7.53-4.34c1.65-1.02,3.81-.51,4.83,1.14.9,1.45.62,3.34-.66,4.47l-6.31,5.98c1.67.98,2.23,3.13,1.25,4.8-.3.52-.74.95-1.25,1.25l-16.7,9.59c-1.65,1.02-3.81.51-4.83-1.14-.9-1.45-.62-3.34.66-4.47l.7-.7-11.63,6.75c-.53.32-1.14.49-1.75.49h0Z"/>
        <path class="cls-1" d="m420.91,556.25c-1.94,0-3.51-1.57-3.51-3.51,0-.91.35-1.79.99-2.44l15.28-15.83-32.26,18.61c-1.74.85-3.84.13-4.69-1.61-.71-1.45-.34-3.21.91-4.24l5.82-4.34-9.12,5.27c-1.58.91-3.59.46-4.63-1.03-1.04-1.5-.76-3.54.65-4.71l28.75-23.8-31.99,18.43c-1.69.94-3.83.33-4.77-1.36-.86-1.54-.44-3.49.99-4.53l5.97-4.21-3.7,2.1c-1.68.97-3.82.39-4.79-1.28-.89-1.54-.49-3.49.93-4.56l22.28-16.69-18.47,10.65c-1.69.95-3.83.35-4.78-1.33-.83-1.48-.49-3.34.82-4.42l34.03-27.56-30.07,17.4c-1.69.95-3.83.35-4.77-1.34-.87-1.55-.44-3.51,1-4.56l5.53-3.91-1.77,1.02c-1.68.96-3.82.37-4.78-1.32-.85-1.5-.48-3.41.87-4.48l27.3-21.28-23.49,13.55c-1.67.98-3.82.42-4.8-1.25-.92-1.57-.49-3.59,1-4.64l7.31-5.21-3.64,2.1c-1.68.96-3.82.38-4.78-1.3-.88-1.53-.48-3.47.92-4.53l19.47-14.66-15.86,9.15c-1.68.96-3.82.38-4.78-1.31-.85-1.48-.5-3.36.81-4.44l29.98-24.48-26.52,15.31c-1.68.97-3.82.39-4.79-1.29-.86-1.49-.51-3.39.83-4.47l26.86-21.67-23.6,13.62c-1.68.96-3.82.37-4.78-1.31-.85-1.5-.49-3.39.85-4.47l23.41-18.62-20.33,11.75c-1.68.97-3.82.4-4.79-1.28-.87-1.5-.51-3.41.84-4.49l23.2-18.68-20.33,11.76c-1.68.96-3.82.37-4.78-1.31-.85-1.5-.49-3.39.85-4.47l19.81-15.73-17.19,9.89c-1.69.95-3.83.34-4.77-1.35-.84-1.5-.47-3.39.88-4.46l14.09-10.88-11.52,6.65c-1.67.98-3.82.41-4.8-1.26-.87-1.5-.52-3.41.83-4.5l19.07-15.43-16.29,9.4c-1.68.96-3.82.38-4.79-1.3-.85-1.49-.5-3.37.82-4.46l16.31-13.18-13.18,7.57c-1.68.96-3.82.37-4.78-1.32-.81-1.43-.52-3.23.69-4.33l21.88-19.58-18.85,10.88c-1.69.95-3.82.36-4.78-1.33-.79-1.41-.52-3.18.65-4.28l19.37-17.78-16.3,9.36c-1.68.97-3.82.4-4.79-1.28-.87-1.5-.51-3.41.84-4.49l4.36-3.51-1.04.6c-1.67.97-3.82.41-4.79-1.27-.85-1.46-.54-3.31.73-4.41l9.35-8.17-6.06,3.51c-1.68.96-3.82.37-4.78-1.31-.75-1.31-.57-2.95.43-4.07l14.86-16.27-11.57,6.68c-1.68.96-3.82.38-4.79-1.29-.74-1.3-.58-2.92.4-4.05l10.09-11.53-6.65,3.83c-1.68.96-3.82.38-4.78-1.3-.72-1.26-.59-2.84.33-3.96l6-7.27-2.36,1.4c-1.68.97-3.82.4-4.79-1.28-.62-1.07-.63-2.39-.02-3.47l4.68-8.34-.8.46c-1.08.63-2.42.63-3.51,0-1.09-.64-1.75-1.83-1.72-3.09l.29-12.37c-.38-.28-.69-.64-.93-1.05-.97-1.68-.4-3.82,1.28-4.79l1.49-.86c1.68-.97,3.82-.39,4.79,1.28.32.56.48,1.19.47,1.83l-.23,9.88,6.44-3.71c1.68-.97,3.82-.4,4.79,1.28.62,1.07.63,2.39.02,3.47l-4.68,8.33,8.12-4.68c1.68-.96,3.82-.38,4.78,1.3.72,1.26.59,2.84-.33,3.96l-6,7.26,8.14-4.69c1.68-.96,3.82-.37,4.78,1.31.73,1.29.58,2.9-.39,4.02l-10.08,11.55,12.71-7.34c1.68-.96,3.82-.37,4.78,1.31.75,1.31.57,2.95-.43,4.07l-14.8,16.3,17.71-10.22c1.68-.96,3.82-.38,4.78,1.3.83,1.44.52,3.27-.72,4.37l-9.41,8.11,9.87-5.69c1.68-.96,3.82-.37,4.78,1.32.85,1.49.49,3.37-.84,4.45l-4.38,3.51,4-2.31c1.69-.95,3.82-.36,4.78,1.33.79,1.41.52,3.18-.65,4.28l-19.35,17.76,20.53-11.86c1.68-.97,3.82-.39,4.79,1.28.83,1.44.54,3.26-.7,4.37l-21.88,19.58,22.68-13.07c1.69-.95,3.83-.35,4.78,1.33.83,1.48.49,3.34-.82,4.42l-16.31,13.18,15.85-9.12c1.67-.98,3.82-.42,4.8,1.25.88,1.5.53,3.43-.84,4.51l-19.06,15.43,18.49-10.67c1.68-.96,3.82-.37,4.78,1.31.86,1.51.49,3.43-.88,4.5l-14.14,10.92,12.9-7.45c1.68-.96,3.82-.38,4.78,1.3.86,1.5.5,3.41-.86,4.49l-19.77,15.7,18.6-10.74c1.69-.95,3.82-.36,4.78,1.33.84,1.48.49,3.36-.83,4.44l-23.21,18.68,21.92-12.62c1.66-.99,3.81-.45,4.81,1.21.91,1.52.54,3.49-.87,4.57l-23.45,18.59,21.79-12.58c1.69-.95,3.82-.36,4.78,1.33.84,1.48.49,3.36-.83,4.44l-26.86,21.67,25.06-14.47c1.66-.99,3.82-.45,4.81,1.22.9,1.51.54,3.45-.83,4.54l-29.97,24.46,27.94-16.13c1.68-.96,3.82-.38,4.78,1.3.88,1.53.48,3.47-.92,4.53l-19.47,14.63,16.83-9.72c1.67-.98,3.82-.42,4.8,1.25.92,1.57.49,3.59-1,4.64l-7.36,5.24,4.4-2.53c1.68-.97,3.82-.4,4.79,1.28.88,1.52.5,3.45-.88,4.52l-27.3,21.31,24.4-14.07c1.69-.95,3.83-.35,4.77,1.34.87,1.55.44,3.51-1,4.56l-5.46,3.86,2.19-1.26c1.67-.98,3.82-.42,4.8,1.25.88,1.5.53,3.43-.84,4.51l-34.06,27.57,30.78-17.76c1.68-.97,3.82-.39,4.79,1.28.89,1.54.49,3.49-.93,4.56l-22.29,16.7,18.71-10.84c1.68-.97,3.82-.39,4.79,1.29.9,1.57.47,3.56-1.01,4.61l-5.95,4.21,2.24-1.28c1.68-.96,3.82-.36,4.78,1.32.83,1.47.5,3.33-.8,4.42l-28.75,23.81,24.81-14.32c1.69-.95,3.82-.36,4.78,1.33.86,1.52.47,3.45-.93,4.51l-5.78,4.31,1.93-1.11c1.68-.96,3.82-.37,4.78,1.31.77,1.35.56,3.04-.51,4.16l-15.29,15.83,9.12-5.24c1.63-1.04,3.8-.56,4.84,1.08,1.04,1.63.56,3.8-1.08,4.84-.08.05-.17.1-.26.15l-30.73,17.71c-.53.32-1.14.49-1.75.49h0Z"/>
        <path class="cls-1" d="m175.22,556.25c-1.94,0-3.51-1.57-3.51-3.51,0-.91.35-1.79.99-2.44l16.53-17.09-31.4,18.14c-1.68.96-3.82.37-4.78-1.32-.87-1.53-.47-3.47.94-4.53l5-3.71-4.53,2.61c-1.68.96-3.82.39-4.79-1.29-.71-1.24-.6-2.8.29-3.92l7.26-9.12c-1.91.32-3.72-.96-4.04-2.87-.24-1.44.43-2.88,1.69-3.61l14.46-8.35c1.67-.97,3.82-.4,4.79,1.27.72,1.25.61,2.81-.29,3.94l-6.89,8.66,41.24-23.84c1.69-.94,3.83-.33,4.77,1.36.85,1.52.45,3.43-.93,4.49l-4.99,3.71.39-.22c1.68-.97,3.82-.39,4.79,1.28.78,1.35.57,3.06-.51,4.19l-16.53,17.09,11.43-6.59c1.68-.96,3.82-.38,4.78,1.31.68,1.19.6,2.67-.2,3.79l-4.98,6.86c1.93.09,3.43,1.73,3.34,3.67-.06,1.19-.71,2.27-1.74,2.87l-11.57,6.68c-1.68.96-3.82.38-4.78-1.31-.68-1.19-.6-2.67.2-3.79l4.21-5.75-18.88,10.87c-.53.32-1.14.49-1.75.49h0Z"/>
        <path class="cls-1" d="m180.48,519.37c-1.94,0-3.5-1.57-3.5-3.51,0-1.04.46-2.02,1.25-2.68l2.97-2.49c-1.24.22-2.5-.26-3.29-1.23-1.09-1.33-1.06-3.25.08-4.54l10.7-12.19-5.45,3.14c-1.68.96-3.82.37-4.78-1.31-.75-1.32-.57-2.96.45-4.08l2.91-3.18c-.55-.12-1.07-.38-1.5-.75-1.13-.96-1.53-2.53-1-3.91l3.32-8.74c-.16-.18-.3-.37-.42-.57-.97-1.67-.4-3.82,1.27-4.79,0,0,0,0,0,0l2.6-1.51c1.67-.97,3.82-.4,4.79,1.27.53.92.62,2.02.24,3.01l-1.75,4.61,6.61-3.81c1.68-.96,3.82-.37,4.78,1.31.75,1.32.57,2.96-.45,4.08l-.83.9,4.14-2.38c1.68-.97,3.82-.4,4.79,1.28.76,1.3.59,2.94-.4,4.07l-10.71,12.18,14.02-8.08c1.69-.95,3.83-.35,4.77,1.34.82,1.46.5,3.29-.77,4.38l-4.12,3.46c1.94.02,3.49,1.61,3.47,3.55-.01,1.23-.68,2.37-1.74,2.99l-30.71,17.73c-.53.31-1.14.47-1.75.47h0Z"/>
        <path class="cls-1" d="m310.56,556.25c-1.94,0-3.5-1.57-3.5-3.51,0-1.04.46-2.02,1.25-2.68l2.03-1.7-9.26,5.34c-1.66.99-3.81.45-4.81-1.21-.86-1.44-.58-3.28.66-4.4l11.8-11.11-13.88,8.01c-1.68.97-3.82.39-4.79-1.29-.74-1.29-.59-2.91.38-4.04l13.67-15.88-10.22,5.9c-1.7.92-3.83.29-4.75-1.41-.75-1.39-.49-3.11.65-4.2l3.3-2.98c-1.77.77-3.84-.04-4.62-1.81-.56-1.28-.3-2.78.65-3.8l9.78-10.07-6.54,3.77c-1.68.97-3.82.39-4.79-1.29-.76-1.32-.58-2.98.44-4.1l11.3-12.47-8.81,5.08c-1.69.95-3.82.36-4.78-1.33-.79-1.41-.52-3.18.65-4.28l2.66-2.45-.42.24c-1.63,1.04-3.8.56-4.84-1.08-1.04-1.63-.56-3.8,1.08-4.84.08-.05.17-.1.26-.15l27.97-16.13c1.69-.95,3.82-.36,4.78,1.33.79,1.41.52,3.18-.65,4.28l-2.64,2.43.61-.35c1.68-.97,3.82-.39,4.79,1.29.76,1.32.58,2.98-.44,4.1l-11.3,12.42,8.96-5.17c1.68-.97,3.82-.39,4.79,1.28.78,1.36.57,3.07-.52,4.19l-9.77,10.07,6.47-3.74c1.7-.92,3.83-.29,4.75,1.41.75,1.39.49,3.11-.65,4.2l-3.36,3.04c1.42-.57,3.04-.17,4.03,1,1.09,1.32,1.08,3.23-.04,4.53l-13.67,15.88,22.11-12.76c1.65-1.01,3.81-.48,4.82,1.17.88,1.44.6,3.31-.66,4.44l-11.81,11.11,17.71-10.22c1.69-.95,3.83-.35,4.77,1.34.82,1.46.5,3.29-.77,4.38l-2.02,1.7,1.87-1.07c1.67-.99,3.82-.44,4.8,1.23.83,1.4.59,3.2-.6,4.33l-1.82,1.75c1.9-.35,3.73.91,4.08,2.81.27,1.46-.41,2.92-1.69,3.67l-23.08,13.31c-1.67.99-3.82.44-4.8-1.23-.83-1.4-.59-3.2.6-4.33l1.23-1.19-11.68,6.74c-.53.31-1.13.48-1.74.49h0Z"/>
      </g>
      <path class="cls-4" d="m251,493.12c-1.94,0-3.5-1.58-3.5-3.51,0-1.16.57-2.24,1.53-2.89l32.04-21.84-45.73,26.41c-1.63.94-3.72.42-4.72-1.17-1.01-1.6-.57-3.71,1-4.77l56.95-38.69-70.19,40.52c-1.68.96-3.82.37-4.78-1.31-.92-1.61-.42-3.65,1.13-4.67l32.3-20.73-39.17,22.61c-1.68.96-3.82.37-4.78-1.31-.92-1.61-.42-3.65,1.13-4.67l48.28-31.05-55,31.75c-1.68.96-3.82.37-4.78-1.31-.92-1.61-.42-3.65,1.13-4.67l62.23-40.03-68.68,39.65c-1.68.96-3.82.37-4.78-1.31-.92-1.61-.42-3.65,1.13-4.67l76.65-49.41-82.74,47.76c-1.69.95-3.83.34-4.77-1.34-.9-1.61-.4-3.65,1.15-4.66l41.42-25.94-44.56,25.73c-1.69.95-3.83.34-4.77-1.34-.9-1.61-.4-3.65,1.15-4.66l48.19-30.15-51.04,29.45c-1.7.93-3.83.32-4.76-1.38-.89-1.61-.38-3.63,1.16-4.63l44.1-27.48-46.28,26.71c-1.65,1.01-3.81.49-4.82-1.17s-.49-3.81,1.17-4.82l100.22-64.36-104.07,60.11c-1.66,1-3.81.47-4.82-1.19s-.47-3.81,1.19-4.82l86.25-54.61-88.6,51.14c-1.71.91-3.83.27-4.75-1.44-.84-1.58-.37-3.53,1.11-4.55l106.11-68.02-108.55,62.67c-1.67.98-3.82.42-4.8-1.25-.96-1.63-.45-3.73,1.15-4.74l107.17-68.58-108.78,62.83c-1.7.92-3.83.29-4.75-1.41-.86-1.59-.37-3.59,1.14-4.59l63.02-39.27-62.82,36.27c-1.66,1-3.81.46-4.81-1.2-1-1.66-.46-3.81,1.2-4.81h0l73.45-46.01-73,42.12c-1.66,1-3.81.46-4.81-1.2-1-1.66-.46-3.81,1.2-4.81h0l70.88-44.38-69.91,40.37c-1.68.97-3.82.39-4.79-1.29-.94-1.63-.42-3.72,1.18-4.72l58.59-36.5-56.98,32.89c-1.7.93-3.83.31-4.76-1.38-.88-1.6-.39-3.6,1.14-4.61l90.24-57.29-88.45,51.06c-1.65,1.01-3.81.49-4.82-1.16-1.01-1.65-.49-3.81,1.16-4.82l105.95-68.35-103.59,59.79c-1.7.92-3.83.29-4.75-1.41-.86-1.59-.37-3.59,1.14-4.59l54.31-34.02-51.01,29.45c-1.7.93-3.83.31-4.76-1.38-.87-1.59-.39-3.59,1.12-4.6l91.7-59.12-87.58,50.56c-1.7.92-3.83.29-4.75-1.41-.86-1.59-.37-3.57,1.12-4.58l59.29-37.56-54.54,31.48c-1.65,1.01-3.81.49-4.82-1.17s-.49-3.81,1.17-4.82l69.5-44.7-63.69,36.77c-1.7.92-3.83.29-4.75-1.41-.86-1.58-.38-3.55,1.1-4.57l61.82-39.97-54.88,31.68c-1.68.96-3.82.37-4.78-1.31-.9-1.59-.44-3.6,1.07-4.63l78.06-52.72-68.09,39.3c-1.69.94-3.83.33-4.77-1.36-.87-1.56-.42-3.53,1.04-4.57l60.53-41.37-47.88,27.65c-1.68.96-3.82.37-4.78-1.31-.89-1.56-.46-3.53,1-4.58l44.88-31.9-27.26,15.73c-1.68.96-3.82.37-4.78-1.31-.86-1.51-.49-3.43.88-4.5l25.55-19.75c-1.85-.56-2.9-2.52-2.33-4.37.26-.85.83-1.57,1.6-2.01l35.76-20.66c1.69-.95,3.83-.34,4.77,1.35.84,1.5.47,3.39-.88,4.46l-18.95,14.68,46.58-26.87c1.68-.96,3.82-.37,4.78,1.31.89,1.56.46,3.53-1,4.58l-44.88,31.88,63.27-36.51c1.67-.97,3.82-.4,4.79,1.27.92,1.59.46,3.63-1.06,4.66l-60.56,41.37,74.43-42.97c1.68-.96,3.82-.37,4.78,1.31.9,1.59.44,3.6-1.07,4.63l-78.09,52.74,90.08-52c1.65-1.01,3.81-.49,4.82,1.16s.49,3.81-1.16,4.82h0l-61.71,39.87,68.68-39.65c1.7-.93,3.83-.31,4.76,1.38.87,1.59.39,3.59-1.12,4.6l-69.52,44.72,75.67-43.68c1.7-.92,3.83-.29,4.75,1.41.86,1.59.37,3.57-1.12,4.58l-59.21,37.53,63.53-36.68c1.68-.96,3.82-.37,4.78,1.31.92,1.61.42,3.65-1.13,4.67l-91.72,59.15,97.02-56.03c1.66-1,3.81-.46,4.81,1.2,1,1.66.46,3.81-1.2,4.81l-54.48,34.11,57.01-32.91c1.69-.94,3.83-.34,4.77,1.35.89,1.6.41,3.61-1.11,4.62l-105.88,68.32,110.09-63.54c1.71-.9,3.83-.25,4.74,1.46.83,1.57.35,3.52-1.11,4.53l-90.26,57.27,92.7-53.51c1.66-1,3.81-.46,4.81,1.21s.46,3.81-1.21,4.81h0l-58.54,36.46,59.38-34.29c1.66-1,3.81-.46,4.81,1.2,1,1.66.46,3.81-1.2,4.81l-70.93,44.41,71.59-41.33c1.68-.97,3.82-.39,4.79,1.29.94,1.63.42,3.72-1.18,4.72l-73.5,46.05,73.73-42.58c1.71-.9,3.83-.25,4.74,1.47.83,1.58.35,3.53-1.13,4.54l-63.06,39.32,62.63-36.16c1.69-.94,3.83-.34,4.77,1.35.9,1.6.4,3.63-1.13,4.64l-107.08,68.55,107.03-61.8c1.7-.93,3.83-.31,4.76,1.38.87,1.59.39,3.59-1.12,4.6l-106.14,68.02,105.3-60.79c1.7-.93,3.83-.31,4.76,1.38.88,1.6.39,3.6-1.14,4.61l-86.25,54.62,84.33-48.71c1.7-.93,3.83-.31,4.76,1.38.87,1.59.39,3.59-1.12,4.6l-100.2,64.35,97.76-56.44c1.66-1,3.81-.46,4.81,1.21,1,1.66.46,3.81-1.21,4.81l-44.18,27.52,40.84-23.58c1.68-.97,3.82-.39,4.79,1.29.94,1.63.42,3.72-1.18,4.72l-48.17,30.15,44.36-25.61c1.66-1,3.81-.46,4.81,1.2,1,1.66.46,3.81-1.2,4.81l-41.44,25.94,37.11-21.42c1.7-.93,3.83-.31,4.76,1.38.87,1.59.39,3.59-1.12,4.6l-76.57,49.4,71.07-41.03c1.68-.96,3.82-.37,4.78,1.31.92,1.61.42,3.65-1.13,4.67l-62.22,40.03,55.88-32.26c1.7-.93,3.83-.31,4.76,1.38.87,1.59.39,3.59-1.12,4.6l-48.27,31.03,40.89-23.62c1.65-1.01,3.81-.49,4.82,1.17,1.01,1.65.49,3.81-1.17,4.82h0l-32.37,20.78,24.32-14.02c1.64-1.03,3.8-.54,4.83,1.1,1.03,1.64.54,3.8-1.1,4.83l-56.91,38.66,44.5-25.69c1.69-.95,3.83-.35,4.77,1.34.89,1.57.43,3.56-1.05,4.59l-32.15,21.9,17.82-10.29c1.68-.96,3.82-.37,4.78,1.31.87,1.52.48,3.45-.91,4.51l-25.53,19.37c1.77-.8,3.84,0,4.64,1.76.73,1.62.13,3.54-1.4,4.45l-47.98,27.7c-1.66.99-3.82.45-4.81-1.22-.92-1.55-.52-3.54.92-4.61l25.48-19.33-51.19,29.53c-.52.31-1.12.47-1.72.48h0Z"/>
      <path class="cls-5" d="m206.54,289.56c-1.94,0-3.51-1.57-3.51-3.5,0-1.13.54-2.19,1.46-2.85l33.97-24.45-36.18,20.88c-1.67.98-3.82.41-4.79-1.26-.91-1.56-.49-3.55.97-4.61l35.76-26.05-36.15,20.86c-1.63,1.05-3.81.57-4.85-1.07-1.05-1.63-.57-3.81,1.07-4.85l16.9-11.71-14.73,8.5c-1.66.99-3.82.45-4.81-1.22-.94-1.59-.5-3.63,1.02-4.68l16.87-11.92-13.04,7.52c-1.69.94-3.83.34-4.77-1.35-.84-1.51-.46-3.41.91-4.47l20.58-15.59-13.76,7.94c-1.67.98-3.82.43-4.8-1.24-.84-1.43-.57-3.25.66-4.37l16.25-15.09c-1.32.06-2.57-.61-3.25-1.75-.97-1.68-.39-3.82,1.28-4.79l23.98-13.84c1.67-.98,3.82-.43,4.8,1.24.84,1.43.57,3.25-.66,4.37l-14.99,13.96,35.92-20.73c1.69-.94,3.83-.34,4.77,1.35.84,1.51.46,3.41-.91,4.47l-20.54,15.57,29.88-17.25c1.68-.97,3.82-.39,4.79,1.29.9,1.57.47,3.56-1.01,4.61l-16.83,11.92,21.93-12.69c1.67-.97,3.82-.41,4.79,1.27.92,1.58.47,3.61-1.04,4.65l-16.9,11.72,20.26-11.67c1.67-.98,3.82-.41,4.79,1.26.91,1.56.49,3.55-.97,4.61l-35.76,26.04,39.44-22.8c1.69-.95,3.83-.34,4.77,1.34.86,1.54.45,3.48-.97,4.53l-33.97,24.46,35.38-20.42c1.68-.96,3.82-.38,4.79,1.3.89,1.55.47,3.53-.98,4.58l-14.02,10.15,12.85-7.41c1.68-.96,3.82-.38,4.79,1.3.89,1.55.47,3.53-.98,4.58l-1.77,1.28c1.88-.46,3.78.69,4.24,2.57.31,1.27-.11,2.61-1.1,3.47l-11.47,10.01,7.15-4.13c1.68-.97,3.82-.4,4.79,1.28.81,1.4.56,3.18-.62,4.29l-5.26,5c1.07-.06,2.12.35,2.86,1.13,1.11,1.21,1.23,3.04.28,4.38l-6.78,9.64.13.22c.96,1.68.39,3.81-1.28,4.78l-4.67,2.7c-1.42.82-3.23.55-4.34-.67-1.11-1.22-1.23-3.04-.28-4.39l2.34-3.32-9.3,5.36c-1.68.97-3.82.4-4.79-1.28-.81-1.4-.56-3.18.62-4.29l4.21-3.99-12.82,7.45c-1.68.96-3.82.38-4.79-1.3-.83-1.45-.52-3.28.73-4.38l11.46-9.99-25.29,14.6c-1.68.96-3.82.38-4.79-1.3-.89-1.55-.47-3.53.98-4.58l.75-.54-12.96,7.49c-1.68.96-3.82.38-4.79-1.3-.89-1.55-.47-3.53.98-4.58l13.98-10.14-37.07,21.4c-.54.32-1.15.48-1.77.48h0Z"/>
      <path class="cls-9" d="m245.56,415.91c-1.94,0-3.5-1.58-3.5-3.51,0-1.17.58-2.25,1.55-2.9l16.13-10.83-27.2,15.7c-1.69.95-3.83.34-4.77-1.35-.89-1.59-.41-3.59,1.09-4.61l17.53-11.58-26.58,15.35c-1.68.97-3.82.4-4.79-1.27-.91-1.56-.48-3.56.99-4.61l48.42-34.86-61.42,35.46c-1.67.98-3.82.42-4.8-1.25-.91-1.55-.5-3.55.96-4.61l35.66-26.39-44.52,25.7c-1.68.97-3.82.39-4.79-1.29-.86-1.49-.51-3.39.83-4.47l32.4-26.04-39.85,23.01c-1.7.93-3.83.3-4.76-1.4-.84-1.53-.42-3.45.98-4.49l1.65-1.17-3.06,1.76c-1.69.95-3.82.36-4.78-1.33-.79-1.41-.52-3.18.65-4.28l22.28-20.43-26.13,15.1c-1.7.92-3.83.29-4.75-1.41-.75-1.39-.49-3.11.65-4.2l12.38-11.17-13.1,7.56c-1.68.97-3.82.39-4.79-1.29-.71-1.23-.61-2.76.26-3.89l11.17-14.56-11.22,6.49c-1.68.97-3.82.39-4.79-1.29-.54-.94-.62-2.08-.21-3.08l4.7-11.4-.79.45c-1.63,1.04-3.8.56-4.84-1.08s-.56-3.8,1.08-4.84c.08-.05.17-.1.26-.15l9.7-5.61c1.68-.97,3.82-.39,4.79,1.29.54.94.62,2.08.21,3.08l-4.7,11.4,17.59-10.15c1.68-.97,3.82-.39,4.79,1.28.71,1.23.61,2.76-.25,3.88l-11.18,14.57,26.55-15.33c1.7-.92,3.83-.29,4.75,1.41.75,1.39.49,3.11-.65,4.2l-12.37,11.16,25.04-14.48c1.69-.95,3.82-.36,4.78,1.33.79,1.41.52,3.18-.65,4.28l-22.28,20.43,42.51-24.54c1.69-.95,3.83-.35,4.77,1.34.87,1.55.44,3.51-1,4.56l-1.65,1.16,12.19-7.01c1.68-.97,3.82-.39,4.79,1.29.86,1.49.51,3.39-.83,4.47l-32.38,26.03,58.47-33.75c1.67-.98,3.82-.42,4.8,1.25.91,1.55.5,3.55-.96,4.61l-35.63,26.36,68.51-39.55c1.68-.97,3.82-.4,4.79,1.27.91,1.56.48,3.56-.99,4.61l-48.43,34.85,68.72-39.67c1.68-.97,3.82-.4,4.79,1.27.93,1.61.45,3.66-1.1,4.69l-17.64,11.62,14.21-8.2c1.68-.97,3.82-.4,4.79,1.28.93,1.6.45,3.64-1.08,4.67l-16.13,10.81,9.38-5.41c1.68-.96,3.82-.37,4.78,1.32.85,1.49.49,3.37-.84,4.45l-33.01,26.48,18.23-10.52c1.72-.9,3.83-.23,4.73,1.48.84,1.61.31,3.61-1.23,4.58l-58.11,33.55c-1.68.97-3.82.4-4.79-1.28-.87-1.5-.51-3.41.84-4.49l33.03-26.47-59.12,34.13c-.53.3-1.13.46-1.74.46h0Z"/>
      <path class="cls-5" d="m204.89,372.48c-1.94,0-3.51-1.56-3.51-3.5,0-.81.28-1.59.78-2.21l10.07-12.46-15.21,8.78c-1.68.97-3.82.39-4.79-1.29-.72-1.24-.6-2.79.28-3.92l4.21-5.35c-1.75.83-3.84.07-4.67-1.68-.42-.88-.45-1.9-.08-2.8l2.1-5.21c-.23-.22-.42-.46-.57-.74-.97-1.68-.4-3.82,1.28-4.79,0,0,0,0,0,0l3.02-1.72c1.67-.97,3.82-.4,4.79,1.27.54.93.62,2.07.22,3.07l-.53,1.34,6.8-3.93c1.68-.97,3.82-.39,4.79,1.29.72,1.24.6,2.79-.28,3.92l-4.21,5.34,15.7-9.06c1.68-.96,3.82-.38,4.78,1.31.71,1.25.59,2.81-.31,3.93l-10.09,12.46,8.18-4.72c1.72-.9,3.83-.23,4.73,1.48.84,1.61.31,3.61-1.23,4.58l-24.54,14.15c-.52.31-1.12.47-1.72.48Z"/>
      <path class="cls-5" d="m287.82,373.76c-1.94,0-3.5-1.57-3.5-3.51,0-.84.31-1.66.86-2.3l3.96-4.55-11.11,6.42c-1.68.96-3.82.38-4.79-1.3-.72-1.26-.59-2.84.33-3.96l10.61-12.92-11.03,6.36c-1.68.97-3.82.39-4.79-1.29-.4-.7-.55-1.51-.42-2.31l1.12-6.88c-1.89-.42-3.08-2.3-2.66-4.19.21-.96.82-1.78,1.67-2.27l3.7-2.1c1.68-.97,3.82-.39,4.79,1.29.4.7.55,1.51.42,2.31l-.93,5.7,21.32-12.31c1.68-.97,3.82-.4,4.79,1.28.73,1.27.6,2.85-.32,3.98l-10.61,12.92,12.62-7.29c1.68-.96,3.82-.37,4.78,1.31.73,1.29.58,2.89-.39,4.02l-4.02,4.61c1.63-.68,3.5-.04,4.38,1.49.97,1.68.39,3.82-1.28,4.79l-17.74,10.24c-.53.3-1.14.46-1.75.45h0Z"/>
      <path class="cls-6" d="m255.14,282.33c-1.94,0-3.51-1.57-3.51-3.51,0-.95.38-1.86,1.07-2.52l2.15-2.1-11.52,6.65c-1.68.97-3.82.39-4.79-1.29-.79-1.36-.57-3.08.53-4.2l16.7-17.02-24.69,14.26c-1.65,1.01-3.81.49-4.82-1.16-.87-1.43-.62-3.27.61-4.41l16.86-16.17-18.53,10.69c-1.67.98-3.82.43-4.8-1.24-.84-1.43-.57-3.25.66-4.37l13.2-12.21-9.37,5.41c-1.68.97-3.82.39-4.79-1.29-.8-1.38-.56-3.13.58-4.25l6.87-6.72c-.67-.3-1.22-.8-1.58-1.44-.97-1.68-.4-3.82,1.28-4.79l16.66-9.61c1.68-.97,3.82-.39,4.79,1.29.8,1.38.56,3.13-.58,4.25l-2.62,2.56,11.86-6.84c1.67-.98,3.82-.43,4.8,1.24.84,1.43.57,3.25-.66,4.37l-13.15,12.22,17-9.82c1.68-.96,3.82-.37,4.78,1.31.79,1.39.54,3.14-.61,4.26l-16.87,16.18,21.83-12.62c1.67-.98,3.82-.41,4.8,1.26.8,1.37.58,3.1-.53,4.23l-16.7,17.03,13.83-7.98c1.67-.99,3.82-.44,4.8,1.23.83,1.4.59,3.2-.6,4.33l-6.73,6.53c.62.31,1.14.79,1.48,1.4.97,1.68.4,3.82-1.28,4.79l-16.65,9.61c-.54.31-1.15.47-1.77.46h0Z"/>
      <path class="cls-5" d="m264.6,254.72c-1.94,0-3.5-1.57-3.5-3.51,0-.59.15-1.16.43-1.68l5.51-10.08-13.04,7.52c-1.68.97-3.82.39-4.79-1.29-.63-1.09-.62-2.44.01-3.52l5.22-8.86-.09.05c-1.72.9-3.83.23-4.73-1.48-.84-1.61-.31-3.61,1.23-4.58l11.63-6.7c1.68-.96,3.82-.38,4.78,1.3.62,1.09.62,2.42-.02,3.51l-5.21,8.85,12.33-7.12c1.68-.96,3.82-.39,4.79,1.29.61,1.06.62,2.35.04,3.43l-5.51,10.08.79-.46c1.72-.9,3.83-.23,4.73,1.48.84,1.61.31,3.61-1.23,4.58l-11.62,6.7c-.53.31-1.14.48-1.75.48h0Z"/>
      <path class="cls-2" d="m369.33,237.16c-.22-.11-.46-.2-.7-.26-6.44-14.84-14.84-28.75-24.96-41.37,44.94-30.62-15.59-79.9-39.54-33.24-29.9-17.11-75.81-16.66-106.75.8-24.09-48.18-85.55,1.4-39.97,32.96-10.35,12.55-18.93,26.45-25.52,41.32-75.89,47.88-87.42,167.46-88.95,246.99-.31,17.36-5.03,43.9,5.93,58.83,10.19,13.86,34.81,17,50.33,11.35,22.13-8.06,22.15-27.78,22.16-48.21,0-36.46,4.75-73.09,6.37-109.39,10.69,29.27,29.35,54.96,53.88,74.17-4.01,13.71-5.49,28.04-4.37,42.28-4.78.34-9.52,1.19-14.12,2.52-15.84,7.08-20.56,34.2-1.4,40.35,9.67,3.11,34.1,3.93,42.65-2.29,8.78-6.39,7.33-18.34,7.83-27.87.26-12.49,2.01-24.9,5.23-36.97,21.49,6.05,44.27,5.83,65.64-.65,3.03,11.09,4.74,22.5,5.1,33.99.57,9.48-1.47,22.77,6.24,29.96,8.93,8.34,28.56,4.47,39.61,4.47,30.89-4.52,17.67-47.2-10.1-42.93.35-14.72-1.25-29.41-4.74-43.71,24.79-19.59,43.45-45.87,53.78-75.73,1.49,35.76,6.47,71.91,6.49,107.9,0,26.11.18,49.22,30.57,53.63,50.11,7.26,48.38-36.34,47.73-72.52-1.38-79.54-13.5-197.55-88.43-246.4Zm-53.21-78.62c23.14-27.66,51.79,14.14,22.83,31.43-8.15-9.2-17.56-17.19-27.96-23.74,1.65-2.6,3.32-5.21,5.13-7.69Zm-162.14,23.89c-17.99-30.07,22.56-47.39,36.23-15.22-10.24,6.4-19.56,14.15-27.71,23.05-3.11-2.3-5.97-4.92-8.52-7.83Zm-34.09,192.67c0,29.13-6.02,59.01-6.65,88.41-.56,26.25,11.72,93.39-34.63,86.3-51.47-7.87-23.6-133.23-18.23-161.68,9.07-47.84,26.8-105.88,66.46-138.55-15.24,39.68-17.57,83.17-6.65,124.25-.2.4-.3.83-.3,1.28h0Zm86.18,141.89c.18,32.12-9.02,34.59-38.57,31.86-18.28-4.52-9.47-21.4,1-25.16,3.93-1.38,8.09-1.96,12.25-1.69,1.56-.1,2.77-1.41,2.76-2.97-.36-14.65,1.09-29.3,4.33-43.59,7.29,4.75,15.1,8.65,23.27,11.61-.93,9.74-4.4,20.26-5.04,29.94h0Zm110.99,2.31c.07,1.47,1.32,2.61,2.79,2.54.05,0,.1,0,.15-.01,8.56-1.6,17.28,1.9,22.36,8.98,4.76,7.71,3.04,17.53-7.34,18.23-11.22,0-29.35,3.7-36.13-6.1-5.61-8.11-3.58-21.36-4.36-30.95-.7-8.35-3.74-17.42-4.59-25.81,7.98-2.97,15.6-6.8,22.75-11.42,3.42,14.59,4.88,29.57,4.37,44.55h0Zm-1.47-54.41c-1.19.34-2.22,1.08-2.92,2.1-7.43,5.38-15.54,9.75-24.12,13.01-1.05-.5-2.67.18-3.95,1.4-129.57,35.73-197.54-140.03-146.96-239.98.49-.39.75-1,.7-1.62,6.7-15.32,15.63-29.56,26.5-42.26.76-.44,1.36-1.12,1.7-1.93,8.64-9.72,18.78-18,30.02-24.54.94-.24,1.79-.72,2.48-1.4,100.36-51.89,183.31,60.05,180.79,153.16-1.23,50.68-23.31,110.72-64.23,142.06h0Zm107.04,84.89c-45.8,7.2-34.65-63.18-35.17-87.13-1.49-29.8-5.27-61.12-7.53-90.14,11.21-40.58,9.03-83.69-6.21-122.93,40.96,33.34,58.67,94.4,67.41,143.22,5.14,28.77,30.84,149.22-18.5,156.98h0Z"/>
      <path class="cls-2" d="m352.47,339.75c-3.05-15.57-12.14-14.02-24.96-11.32-30.54,7.32-61.86,10.86-93.26,10.52-.96-.71-2.24-.79-3.28-.21-10.56-.33-21.07-1.61-31.4-3.84-.61-.63-1.51-.9-2.36-.7-35.94-15.62-62.23-11.77-41.7,30.99,37.27,81.59,183.05,63.56,196.96-25.44Zm-51.93,1.59c1.82,10.62,4.31,22.92-9.68,25.35-15.24,4.82-15.75-11.18-17.03-21.79,8.99-.36,17.93-1.56,26.71-3.56h0Zm-72.89,3.64c-.93,11.56-2.8,24.65-17.66,21.04-13.41-1.21-12.86-14.06-10.52-24.33,9.33,1.6,18.73,2.7,28.17,3.3h0Zm43.54,63.25c-42.77,7.8-103.08-8.76-112.19-57.11.53-24.73,18.13-13.28,33.83-10.78-4.28,15.88-2.94,32.16,16.65,33.71,17.64,3.33,25.08-13.65,24.96-28.71,10.36.58,20.75.53,31.13.1-.09,15.93,7.46,31.13,25.58,27.9,20.19-1.36,21.79-17.75,17.28-34.09,13.95-3.59,33.01-7.41,35.66,1.54-7.5,37.72-34.32,61.75-72.9,67.44Z"/>
      <path class="cls-2" d="m277.45,434.17c-17.45,4.68-35.85,4.53-53.23-.42-3.66-1.51-8.28,5.12-3.76,7.01,19.29,5.47,39.75,5.33,58.96-.41,4.47-1.85,3.09-8.27-1.98-6.18Z"/>
      <path class="cls-2" d="m195.76,296.93c3.24-2.62,6.79-4.84,10.57-6.59,1.34.46,2.82-.17,3.43-1.44,13.76-6.51,31.86-6.56,47.68-6.9,12.15.55,24.1,3.26,35.29,8.01.48.45,1.09.73,1.75.8,3.65,1.74,7.08,3.89,10.23,6.43,3.38,2.8,6.63-4.91,3.51-7.49-2.58-2.07-5.35-3.89-8.27-5.43,22.13-37.94.39-90.37-47.02-92.94-50.82-2.73-75.47,53.37-51.38,93.02-3.09,1.61-6.01,3.52-8.73,5.7-3.12,2.58-1.09,10.17,2.95,6.83Zm35.72-30.22c-11.92-14.84-.6-40.67,18.93-39.83-13.32,14.73,7.23,35.13,22.82,25.11.47,9.34-4.87,18.01-13.42,21.8-6.43-.42-12.89-.38-19.31.13-3.58-1.59-6.7-4.08-9.05-7.22h.03Zm27.73-38.85c1.08.1,2.14-.3,2.89-1.07,13.83-2.48,16.67,20.66,2.66,21.44-6.28-.87-10.67-6.67-9.8-12.96.4-2.9,1.9-5.54,4.19-7.38l.06-.03Zm-13.94-27.82c45.62-4.85,71.27,44.39,47.77,80.98-6.9-2.76-14.09-4.73-21.43-5.87,10.38-7.88,11.22-20.33,9.7-32.01,6.08-13.78-9.89-27.51-23.09-21.7-16.42-4.81-33.64,4.61-38.44,21.03-3.5,11.97.51,24.87,10.18,32.74-7.76,1.22-15.35,3.36-22.61,6.37-16.21-24.05-9.85-56.69,14.2-72.89,7.08-4.77,15.22-7.75,23.71-8.66h0Z"/>
    </g>
  </g>
  <g id="Capa_3" data-name="Capa 3">
    <g>
      <path class="cls-8" d="m467,115.11c0,45.6-70.88,140.85-212.43,140.85S42.1,160.71,42.1,115.11s59.25,31.03,210.46,31.03c151.34.09,214.45-76.63,214.45-31.03Z"/>
      <path class="cls-3" d="m254.57,261c-80.32,0-132.68-29.63-162.53-54.47-37.92-31.6-54.95-68.69-54.95-91.42,0-12.95,5-19.49,14.79-19.49,7.72,0,18.04,4.17,33.58,10.4,32.52,13.17,86.99,35.11,167.18,35.11s135.36-21.81,168.63-34.85c15.89-6.19,27.39-10.71,35.55-10.71,10.14,0,15.27,6.54,15.27,19.49,0,22.74-16.94,59.78-54.95,91.42-29.85,24.84-82.21,54.47-162.53,54.47l-.04.04ZM51.89,105.67c-2.19,0-4.7,0-4.7,9.44,0,20.32,15.84,54.12,51.31,83.7,28.57,23.79,78.83,52.14,156.12,52.14s127.55-28.35,156.12-52.14c35.46-29.58,51.31-63.33,51.31-83.7,0-9.44-2.68-9.44-5.22-9.44-6.28,0-17.6,4.43-31.86,10.01-34.02,13.3-90.81,35.55-172.32,35.55s-137.69-22.47-170.91-35.81c-13.43-5.4-24.05-9.7-29.85-9.7v-.04Z"/>
      <path class="cls-8" d="m294.69,7.05c-9.09,0-20.85,17.47-41.61,17.47s-33.44-17.47-44.29-17.47c-15.27,0-33.66,45.91-46.52,80.23-12.86,34.37-16.77,63.07-16.77,73.6,0,19.71,34.28,47.36,107.53,47.36s107.53-28.66,107.53-47.36c0-10.27-4.43-38.36-18.52-73.34-11.76-29.36-30.42-80.54-47.45-80.54l.09.04Z"/>
      <path class="cls-3" d="m253.12,213.29c-42.71,0-69.04-9.22-83.61-16.9-18.17-9.66-29.01-22.87-29.01-35.55,0-10.27,3.6-39.33,17.12-75.4C176.4,35.4,192.34,2.04,208.84,2.04c5.97,0,11.41,3.47,17.73,7.37,7.46,4.7,15.89,10.05,26.55,10.05s19.09-5.57,26.25-10.49c5.49-3.73,10.23-6.98,15.36-6.98,17.6,0,31.95,32.74,48.94,75.45,1.14,2.9,2.24,5.62,3.25,8.16,14.92,37.18,18.87,65.44,18.87,75.23,0,12.33-10.84,25.5-28.92,35.2-14.7,7.81-41.17,17.16-83.7,17.16l-.04.09ZM208.84,12.05c-1.67,0-7.94,1.76-19.71,24.49-8.03,15.54-15.71,35.24-22.16,52.45-12.11,32.17-16.46,60.61-16.46,71.85,0,6.85,6.19,17.38,23.66,26.69,13.61,7.2,38.27,15.76,78.92,15.76s65.27-8.73,78.92-16.06c17.47-9.35,23.66-20.06,23.66-26.33,0-10.58-4.87-38.27-18.17-71.45-1.05-2.59-2.11-5.35-3.29-8.25-5.79-14.57-12.95-32.65-20.5-46.79-10.71-20.15-16.9-22.3-19.09-22.3-2.06,0-5.93,2.68-9.7,5.22-7.55,5.14-17.86,12.25-31.86,12.25s-23.7-6.41-31.86-11.63c-4.65-3.03-9.13-5.93-12.25-5.93l-.09.04Z"/>
      <g>
        <path class="cls-3" d="m253.12,182.08c-63.69,0-97.92-20.98-105.78-39.33-1.27,8.03-1.76,14.31-1.76,18.08,0,19.71,34.28,47.36,107.53,47.36s107.53-28.66,107.53-47.36c0-3.73-.61-9.88-2.06-17.82-8.25,17.86-42.44,39.06-105.51,39.06h.04Z"/>
        <path class="cls-3" d="m253.12,213.29c-42.71,0-69.04-9.22-83.61-16.9-18.17-9.66-29.01-22.87-29.01-35.55,0-4.65.61-11.32,1.84-18.87.35-2.19,2.11-3.95,4.35-4.21s4.35.97,5.22,3.03c7.46,17.47,42.31,36.34,101.17,36.34s92.92-18.74,100.99-36.17c.92-1.98,3.03-3.12,5.22-2.9,2.19.26,3.95,1.89,4.3,4.08,1.32,7.55,2.11,14.22,2.11,18.74,0,12.33-10.84,25.5-28.92,35.2-14.66,7.9-41.13,17.25-83.61,17.25l-.04-.04Zm-102.4-56.75c-.13,1.62-.13,3.12-.13,4.35,0,6.85,6.19,17.38,23.66,26.69,13.61,7.2,38.27,15.76,78.92,15.76s65.27-8.73,78.92-16.06c17.47-9.35,23.66-20.06,23.66-26.33,0-1.32-.09-2.94-.22-4.7-16.11,16.68-50.83,30.99-102.35,30.99-54.6-.09-87.3-14.79-102.4-30.68h-.04Z"/>
      </g>
      <path class="cls-3" d="m358.68,148.73c-1.27,2.59-2.59,5.22-4.43,7.55-2.41,2.9-4.92,5.57-7.81,7.94-5.97,5-12.68,8.95-19.71,12.16-14.57,6.67-30.46,10.14-46.3,12.03-16.42,1.98-33.14,1.98-49.64.57-15.84-1.32-32.22-4.43-46.96-10.58-7.81-3.25-15.76-7.02-22.3-12.47-3.25-2.68-6.32-5.49-9-8.78-2.19-2.68-3.73-5.62-5.14-8.73,3.16,5.49,7.11,10.36,12.25,14.09,6.06,4.43,12.47,7.9,19.36,10.84,14.44,6.14,30.42,9.22,45.95,10.84,16.33,1.67,32.74,1.84,49.11.7,8.08-.57,16.2-1.62,24.05-3.16,7.55-1.54,15.14-3.29,22.38-5.97,7.94-2.94,16.06-6.28,23-11.28,3.38-2.41,6.54-5,9.44-8.03,2.24-2.41,3.99-5,5.71-7.72h.04Z"/>
      <path class="cls-3" d="m321.73,70.38c-8.16.35-15.27-4.3-20.41-10.36-6.06-7.11-9.48-16.46-9.92-25.76-.22-4.3.35-8.65,1.98-12.6,3.38,6.98,5.97,14.22,9.35,21.2,3.25,6.76,6.85,13.21,11.28,19.27,2.33,3.12,5.14,5.57,7.72,8.25Z"/>
      <path class="cls-3" d="m181.67,70.38c1.32-1.32,2.77-2.59,3.99-3.99,1.67-1.89,3.29-3.95,4.7-6.06,2.77-3.99,5.22-8.38,7.33-12.73,2.24-4.65,4.43-9.44,6.5-14.13,1.67-3.86,3.16-7.94,5-11.76,3.16,7.55,2.55,16.81-.09,24.4-2.9,8.51-7.94,16.24-15.71,21.11-3.6,2.24-7.59,3.29-11.76,3.16h.04Z"/>
      <path class="cls-3" d="m58.29,128.19c8.43,21.59,24.97,38.62,42.22,53.63,18.39,15.98,38.98,29.14,60.39,40.69,9.88,5.35,20.15,9.92,30.33,14.48-22.82-4.08-44.55-12.95-64.34-25.06-21.2-12.95-40.91-29.63-54.95-50.26-6.85-10.14-12.03-21.33-13.65-33.49Z"/>
      <path class="cls-3" d="m448.79,128.19c-2.94,22.82-18.52,42.57-34.76,57.94-18.21,17.16-39.77,31.03-62.94,40.56-11.41,4.65-23.17,8.16-35.24,10.27,20.15-8.87,39.68-18.79,58.16-30.81,20.28-13.21,39.63-28.49,55.48-46.88,8.08-9.35,14.84-19.49,19.36-31.03l-.04-.04Z"/>
      <path class="cls-3" d="m226.83,46.02c8.38,3.99,16.68,8.08,26.2,8.08s17.95-4.08,26.33-8.08c-4.21,7.9-12.95,13.61-21.68,14.92-7.46,1.14-15.14-.61-21.42-4.87-3.73-2.55-7.33-5.97-9.44-10.05Z"/>
      <path class="cls-10" d="m283.37,138.9c-.61,0-1.19.22-1.67.48l-8.03-13.96,8.03-13.96c.48.26,1.05.48,1.67.48,1.89,0,3.47-1.54,3.47-3.47s-1.54-3.47-3.47-3.47-3.47,1.54-3.47,3.47h-16.11l-8.51-14.79c1.05-.57,1.76-1.67,1.76-2.94,0-1.89-1.54-3.47-3.47-3.47s-3.47,1.54-3.47,3.47c0,1.27.7,2.41,1.76,2.94l-8.51,14.79h-16.11c0-1.89-1.54-3.47-3.47-3.47s-3.47,1.54-3.47,3.47,1.54,3.47,3.47,3.47c.61,0,1.19-.22,1.67-.48l8.03,13.96-8.03,13.96c-.48-.26-1.05-.48-1.67-.48-1.89,0-3.47,1.54-3.47,3.47s1.54,3.47,3.47,3.47,3.47-1.54,3.47-3.47h16.11l8.51,14.79c-1.05.57-1.76,1.67-1.76,2.94,0,1.89,1.54,3.47,3.47,3.47s3.47-1.54,3.47-3.47c0-1.27-.7-2.41-1.76-2.94l8.51-14.79h16.11c0,1.89,1.54,3.47,3.47,3.47s3.47-1.54,3.47-3.47-1.54-3.47-3.47-3.47Z"/>
      <g>
        <path class="cls-3" d="m358.81,135.65c-6.32,5.93-12.95,11.28-20.5,15.63-8.3,4.78-17.34,8.38-26.55,10.93-3.99,1.05-8.08,2.06-12.16,2.46,7.81-2.11,15.41-5.79,22.47-9.79,7.81-4.52,15.05-10.05,21.42-16.46,2.9-2.94,5.4-6.28,7.94-9.48,2.41,2.24,4.92,4.52,7.37,6.76v-.04Z"/>
        <path class="cls-3" d="m355.87,124.37c-5.97,5.49-12.25,10.23-19.44,14.09-6.41,3.47-13.3,6.14-20.32,8.03-3.12.83-6.32,1.62-9.57,2.06,8.43-2.77,16.55-7.33,23.7-12.51,3.38-2.46,6.63-5.14,9.57-8.08,3.16-3.25,5.97-6.63,8.65-10.27,2.41,2.24,4.92,4.52,7.37,6.76l.04-.09Z"/>
        <path class="cls-3" d="m352.93,113.13c-11.1,9.66-24.71,16.9-39.41,19.14,6.19-2.55,12.11-6.19,17.38-10.36,5.71-4.52,10.4-9.7,14.66-15.63,2.46,2.33,4.92,4.56,7.37,6.85Z"/>
        <path class="cls-3" d="m349.95,101.85c-8.6,6.89-18.65,12.11-29.58,14.22,9-5,16.55-12.38,22.12-20.98,2.55,2.33,5,4.52,7.46,6.76Z"/>
        <path class="cls-3" d="m347.05,90.57c-6.06,4.17-12.6,7.37-19.71,9.3,5-4.56,9-10.01,12.16-15.98,2.46,2.24,5,4.43,7.55,6.67Z"/>
      </g>
      <g>
        <path class="cls-3" d="m154.19,128.89c4.92,6.32,10.23,12.11,16.46,17.16,7.24,5.84,15.36,10.58,23.79,14.35,3.73,1.67,7.59,3.25,11.54,4.3-8.08-.92-16.11-3.38-23.7-6.28-9.09-3.47-17.69-8.25-25.41-14-3.6-2.68-6.85-5.71-10.05-8.78,2.46-2.24,4.92-4.52,7.37-6.76Z"/>
        <path class="cls-3" d="m157.18,117.61c2.77,3.6,5.49,7.02,8.65,10.27,2.94,2.94,6.19,5.62,9.57,8.08,7.11,5.22,15.27,9.79,23.7,12.51-14.13-1.84-28.09-8.03-39.77-16.11-3.47-2.41-6.5-5.14-9.57-7.94,2.46-2.33,4.92-4.56,7.37-6.85l.04.04Z"/>
        <path class="cls-3" d="m160.12,106.37c4.21,5.93,8.95,11.1,14.66,15.63,5.27,4.17,11.19,7.81,17.38,10.36-14.7-2.24-28.31-9.48-39.41-19.14,2.46-2.33,4.92-4.56,7.37-6.85Z"/>
        <path class="cls-3" d="m163.06,95.18c5.62,8.6,13.08,15.98,22.12,20.98-10.93-2.11-20.98-7.33-29.58-14.22,2.46-2.33,5-4.52,7.46-6.76Z"/>
        <path class="cls-3" d="m166.05,83.9c3.16,5.97,7.2,11.41,12.16,15.98-7.11-1.89-13.65-5.22-19.71-9.3,2.55-2.24,5.05-4.43,7.55-6.67Z"/>
      </g>
      <g>
        <polygon class="cls-3" points="146.38 154.52 102.49 133.19 149.85 145.08 146.38 154.52"/>
        <polygon class="cls-3" points="143.88 168.3 119.78 151.05 148.31 159.3 143.88 168.3"/>
        <polygon class="cls-3" points="355.79 145.08 403.19 133.19 359.25 154.52 355.79 145.08"/>
        <polygon class="cls-3" points="357.37 159.3 385.85 151.05 361.71 168.3 357.37 159.3"/>
      </g>
    </g>
  </g>
</svg>